<?xml version="1.0" encoding="UTF-8"?><svg id="_レイヤー_14" xmlns="http://www.w3.org/2000/svg" viewBox="0 0 768.87 91.13"><defs><style>.cls-1{fill:#717071;}.cls-2{fill:#877437;}.cls-3{fill:#fff;stroke:#877437;stroke-width:.81px;}</style></defs><rect class="cls-3" x=".4" y=".4" width="768.06" height="90.32"/><path class="cls-2" d="m26.14,21.91c0,3.92-3.19,7.11-7.11,7.11s-7.11-3.17-7.11-7.11,3.22-7.11,7.11-7.11,7.11,3.15,7.11,7.11Zm-13.64,0c0,3.62,2.95,6.53,6.53,6.53s6.53-2.93,6.53-6.53-2.95-6.53-6.53-6.53-6.53,2.88-6.53,6.53Zm11.46,0c0,2.72-2.21,4.93-4.93,4.93s-4.93-2.21-4.93-4.93,2.22-4.93,4.93-4.93,4.93,2.18,4.93,4.93Zm-9.28,0c0,2.4,1.95,4.35,4.35,4.35s4.35-1.95,4.35-4.35-1.97-4.35-4.35-4.35-4.35,1.92-4.35,4.35Z"/><path class="cls-2" d="m35.45,23.9c-.14.93-.53,3.43-3.31,5.27l-1.14-.79c1.18-.67,2.58-1.65,3.15-3.95-1.89.74-2.99,1.1-3.84,1.38-.08.29-.11.42-.27.42s-.24-.26-.27-.37l-.3-1.1c.77-.21,2.67-.72,4.88-1.57.03-.54.03-1.23.03-1.84h-4.42v-1.06h4.42v-2.42h-4.66v-1.07h4.66v-2l1.17.11c.19.02.34.06.34.19s-.16.26-.34.38v7.23c.19-.08,1.07-.43,1.25-.51v1.12c-.53.24-.78.35-1.34.58Zm3.44,1.73v3.49h-1.17v-14.33l1.14.11c.06,0,.24.05.24.16,0,.08-.08.16-.21.32v1.31h4.79v1.09h-4.79v2.54h4.42v1.04h-4.42v3.17h4.91v1.09h-4.91Z"/><path class="cls-2" d="m51.45,21.96c-.46.3-.77.51-1.38.93v4.45c0,1.02,0,1.78-2.43,1.67l-.42-1.2c.43.05.74.1,1.09.1.62,0,.62-.26.62-.64v-3.67c-.59.37-1.02.62-1.33.78-.02.14-.08.43-.26.43-.11,0-.18-.1-.21-.24l-.34-1.14c.69-.34,1.44-.74,2.13-1.12v-3.18h-1.82v-1.09h1.82v-3.3l1.22.11c.26.02.29.13.29.19,0,.14-.18.24-.37.35v2.64h1.38v1.09h-1.38v2.53c.62-.38.85-.53,1.36-.85l.02,1.15Zm5.17-.18c.16.08.27.13.27.22,0,.14-.21.16-.42.19-.21.37-.35.66-.64,1.12h5.55v1.01h-2.18c-.16.45-.46,1.22-1.17,2.06.54.21,1.5.66,2.72,1.47l-.96.83c-.34-.3-.88-.8-2.58-1.54-1.22.9-2.9,1.47-5.39,1.71l-.5-1.04c1.38-.05,3.38-.27,4.75-1.1-1.1-.38-1.97-.54-2.35-.61-.13.14-.16.18-.45.46l-.86-.54c.42-.42.93-.93,1.54-1.71h-2.3v-1.01h3.01c.58-.88.82-1.47.98-1.95l.98.42Zm-4.85-1.58h9.56v1.01h-9.56v-1.01Zm6.95-2.45l.8.48c.06.03.21.11.21.22,0,.14-.19.16-.48.18-.4.59-.45.66-.88,1.3-.05.08-.13.19-.14.21l-.91-.53c.29-.4.78-1.07,1.12-1.86h-3.87c.18.24.37.51,1.1,1.87l-1.01.5c-.32-.77-.75-1.47-1.1-1.95l.75-.42h-2.13v-1.01h3.81v-1.97l1.23.11c.06.02.3.05.3.19s-.19.24-.4.3v1.36h3.81v1.01h-2.21Zm-3.54,6.58c-.29.42-.48.66-.77,1.02.83.14,1.78.37,2.58.64.58-.62.85-1.23,1.01-1.66h-2.82Z"/><path class="cls-2" d="m65.66,18.45c-.38.3-.59.45-.91.66l-.8-.78c1.46-1.06,2.4-1.9,3.71-3.79l.88.54c.13.08.22.14.22.21,0,.13-.32.21-.51.26-.21.29-.22.29-.38.48h2.46l.45.54c-.75.78-.9.94-1.66,1.63h2.34v9.8c0,.9-.83,1.04-1.5,1.04-.26,0-.75-.03-1.17-.08l-.24-1.12c.24.03.82.11,1.22.11.21,0,.66,0,.66-.58v-2.67h-3.76c-.21,1.63-.82,3.41-1.55,4.5l-.88-.69c1.17-1.9,1.44-3.58,1.44-5.3v-4.75Zm2-.26c.4-.37.8-.75,1.25-1.25h-1.79c-.56.62-.75.85-1.2,1.25h1.74Zm.37,3.67h-1.33v1.39c0,.24,0,.29-.02.53h1.34v-1.92Zm0-2.75h-1.33v1.84h1.33v-1.84Zm2.39,0h-1.33v1.84h1.33v-1.84Zm0,2.75h-1.33v1.92h1.33v-1.92Zm7.84,7.25c-.22-.59-.46-1.23-.67-1.7-.77.19-1.54.38-2.29.58-.61.14-1.55.38-2.16.53-.1.3-.21.4-.32.4-.14,0-.21-.11-.24-.22l-.42-1.25c1.04-.13,1.66-.22,2.64-.42v-3.59h-1.5v.7h-1.06v-6.61h2.56v-2.85l1.34.1c.19.02.29.13.29.19,0,.14-.19.22-.51.37v2.19h2.66v5.91h-2.66v3.38c.54-.11.7-.14,1.25-.29-.43-.91-.5-1.04-.8-1.54l1.01-.42c.72,1.34,1.38,2.72,1.87,4.16l-.99.37Zm-3.46-10.53h-1.5v3.83h1.5v-3.83Zm2.66,0h-1.54v3.83h1.54v-3.83Z"/><path class="cls-2" d="m88.17,19.57v3.97h-1.09v-3.97h-1.39c-.19,2.85-1.89,3.91-2.42,4.26l-1.06-.8c1.07-.5,2.08-1.15,2.34-3.46h-2.21v-.99h2.3c.03-.77.03-1.54.03-2.3h-1.66v-.99h6.83v.99h-1.68v2.3h2.3v.99h-2.3Zm-5.83,9.09v-1.02h6.55v-2.02h-4.34v-1.01h4.34v-2.24l1.25.14c.21.03.34.06.34.18,0,.16-.21.26-.42.34v1.58h4.32v1.01h-4.32v2.02h6.5v1.02h-14.21Zm4.74-12.39h-1.31c0,1.49-.02,1.83-.05,2.3h1.36v-2.3Zm5.62-.38v5.73h-1.12v-6.26l1.17.08c.08.02.3.03.3.16,0,.11-.16.19-.35.29Zm2.95-.56v6.58c0,.74-.05,1.23-.66,1.49-.34.14-.4.14-2.02.14l-.32-1.22c.32.03.85.1,1.12.1.69,0,.75-.32.75-.7v-6.93l1.12.13c.13.02.3.03.3.14,0,.13-.16.21-.3.27Z"/><path class="cls-2" d="m113.82,21c-.98,1.49-2.26,3.2-5.84,5.12l-1.07-.96c.88-.37,1.98-.83,3.52-2.11,1.68-1.39,2.27-2.4,2.82-3.3h-6v-1.17h6.58v-3.17l1.33.16c.13.02.26.08.26.18,0,.08-.03.11-.34.35v2.48h3.67v1.17h-3.67v7.04c0,1.39-.67,1.63-2.91,1.62l-.46-1.33c.5.05,1.22.08,1.52.08.53,0,.61-.06.61-.67v-5.49Z"/><path class="cls-2" d="m122.22,22.87v-1.17h11.59v1.17h-11.59Z"/><path class="cls-2" d="m139.6,19.96c2.72,1.18,3.79,1.94,5.25,3.12l-.78,1.12c-.48-.42-1.09-.96-2.19-1.68-1.28-.85-2.02-1.15-2.74-1.44v7.12h-1.28v-12.5l1.22.06c.08,0,.45.02.45.22,0,.1-.13.18-.38.35v4.53l.46-.91Z"/><path class="cls-2" d="m149.84,26.28v1.09h-1.25v-10.26h10.6v10.26h-1.26v-1.09h-8.08Zm8.08-8.04h-8.08v6.92h8.08v-6.92Z"/><path class="cls-2" d="m163.92,20.69c.24.4.77,1.3,1.14,2.3l-.88.42c-.35-.99-.82-1.82-1.12-2.3l.86-.42Zm1.09,7.55c1.36-.5,2.85-1.02,4.29-3.09,1.36-1.94,1.58-3.71,1.76-5.17l.83.32c.37.11.46.19.46.27,0,.11-.05.13-.37.24-.42,1.58-.99,3.47-1.97,4.9-1.34,1.97-2.77,2.67-4.1,3.31l-.91-.78Zm1.95-8.29c.32.45.8,1.33,1.14,2.29l-.88.37c-.38-1.02-.9-1.92-1.12-2.29l.86-.37Z"/><path class="cls-2" d="m185.26,17.49c.24,0,.34-.02.58-.08l.75.91c-.62.51-.7.67-.83.96-1.31,3.46-2.16,4.96-4.03,6.79-1.09,1.06-1.89,1.55-3.27,2.34l-1.17-.96c1.41-.69,3.09-1.52,4.85-3.7,1.68-2.1,2.08-3.79,2.4-5.17h-4.83c-.7.96-1.44,1.91-3.17,3.41l-1.04-.79c.88-.67,1.84-1.41,2.98-2.95.98-1.33,1.26-2.14,1.49-2.77l1.15.4c.3.11.32.27.32.3,0,.14-.21.18-.51.21-.16.35-.32.69-.54,1.09h4.88Z"/><path class="cls-2" d="m190.43,19.08c.86.34,2.11.94,3.22,1.71l-.59,1.17c-.91-.69-1.66-1.15-3.17-1.79l.54-1.09Zm10.84,1.58c-.88,1.25-1.98,2.83-4.24,4.69-2.4,1.98-4.05,2.54-5.55,3.06l-.78-1.2c1.25-.35,2.8-.78,5.12-2.54,2.53-1.91,3.63-3.59,4.59-5.04l.86,1.04Zm-9.12-5.25c.96.38,2.13.98,3.17,1.71l-.59,1.12c-.7-.56-1.44-1.07-3.12-1.79l.54-1.04Z"/><path class="cls-2" d="m214.82,17.45c-.7.46-.74.5-.93.75-.94,1.94-1.38,2.69-2.24,3.87,1.49,1.25,3.01,2.66,4.34,4.59l-1.09.91c-.45-.77-.9-1.52-2.05-2.74-.9-.94-1.52-1.42-1.95-1.76-2,2.24-3.67,3.2-5.84,4.16l-.96-1.07c1.38-.48,3.03-1.04,5.14-3.1,2.11-2.07,2.8-3.79,3.38-5.2h-6.67v-1.12h7.12c.27,0,.58-.21.75-.34l1.01,1.04Z"/><path class="cls-2" d="m226.42,21.41c-.11,1.44-.24,2.93-1.26,4.48s-2.29,2.1-3.36,2.56l-1.12-1.01c1.06-.34,2.24-.7,3.28-2.18,1.02-1.42,1.09-2.75,1.14-3.86h-5.79v-1.17h12.34v1.17h-5.22Zm3.01-4.18h-7.97v-1.17h7.97v1.17Z"/><path class="cls-2" d="m246.32,27.63c-.26-.91-.64-1.67-.91-2.13-2.42.4-2.88.48-7.07,1.18-1.82.32-1.89.32-2.18.37-.26.37-.29.4-.38.4-.16,0-.21-.18-.24-.27l-.46-1.47c.26.02.56.05,1.92-.08,1.17-2.67,2.82-7.55,3.33-9.72l1.49.38c.1.02.27.08.27.22,0,.13-.27.22-.5.32-.22.56-2.39,6.4-3.19,8.66,2.18-.26,4.32-.58,6.47-1.01-.32-.5-.99-1.54-1.87-2.53l1.17-.67c1.55,1.87,2.62,3.71,3.46,5.75l-1.3.59Z"/><path class="cls-2" d="m27.34,45.81c0,3.92-3.19,7.11-7.11,7.11s-7.11-3.17-7.11-7.11,3.22-7.11,7.11-7.11,7.11,3.15,7.11,7.11Zm-13.64,0c0,3.62,2.95,6.53,6.53,6.53s6.53-2.93,6.53-6.53-2.95-6.53-6.53-6.53-6.53,2.88-6.53,6.53Zm11.46,0c0,2.72-2.21,4.93-4.93,4.93s-4.93-2.21-4.93-4.93,2.22-4.93,4.93-4.93,4.93,2.18,4.93,4.93Zm-9.28,0c0,2.4,1.95,4.35,4.35,4.35s4.35-1.95,4.35-4.35-1.97-4.35-4.35-4.35-4.35,1.92-4.35,4.35Z"/><path class="cls-2" d="m30.91,47.94v-1.14h4.08v-3.54h-3.23v-1.12h3.23v-3.3l1.18.11c.18.02.27.11.27.18,0,.1-.02.11-.29.37v2.64h3.35v-3.38l1.17.11c.14.02.29.11.29.18,0,.05,0,.08-.3.37v2.72h3.23v1.12h-3.23v3.54h4.1v1.14h-13.85Zm5.25,1.78c-1.25,1.66-2.59,2.58-3.91,3.25l-.94-.98c1.71-.74,3.03-1.68,4.24-3.39l.93.58c.11.08.18.14.18.22,0,.16-.18.22-.5.32Zm3.35-6.45h-3.35v3.54h3.35v-3.54Zm3.78,9.7c-1.97-1.23-3.41-3.04-4.02-3.87l1.06-.56c.69,1.01,2.32,2.59,4.02,3.57l-1.06.86Z"/><path class="cls-2" d="m60.3,52.93h-1.98l-.46-1.38c.4.08,1.46.24,2.03.24.51,0,.54-.27.54-.61v-2.62h-4.13v4h-1.17v-4h-4.24c-.37,1.78-.8,3.07-2,4.58l-.96-.78c1.54-1.98,1.79-3.76,1.92-5.17.13-1.52.13-2.99.13-8.13h11.62v12.71c0,.85-.22,1.17-1.3,1.17Zm-5.17-8.63h-3.99c0,1.62-.05,2.3-.16,3.14h4.15v-3.14Zm0-4.16h-3.99v3.07h3.99v-3.07Zm5.3,0h-4.13v3.07h4.13v-3.07Zm0,4.16h-4.13v3.14h4.13v-3.14Z"/><path class="cls-2" d="m77.72,50.65h-11.75v-1.17h5.33v-7.17h-4.26v-1.12h9.56v1.12h-4v7.17h5.12v1.17Z"/><path class="cls-2" d="m92.7,45.06c-1.79,1.79-3.75,3.75-10.5,6.18-.02.03-.19.42-.29.42-.13,0-.21-.19-.3-.4l-.54-1.31c1.58-.29,3.33-.59,6.27-2.27,2.79-1.57,3.91-2.79,4.82-3.78l.54,1.17Zm-8.42-1.33c-.78-.99-1.7-1.87-2.64-2.72l.93-.91c.5.42,1.86,1.62,2.79,2.8l-1.07.83Z"/><path class="cls-2" d="m98.05,43.86c2.72,1.18,3.79,1.94,5.25,3.12l-.78,1.12c-.48-.42-1.09-.96-2.19-1.68-1.28-.85-2.02-1.15-2.74-1.44v7.12h-1.28v-12.5l1.22.06c.08,0,.45.02.45.22,0,.1-.13.18-.38.35v4.53l.46-.91Z"/><path class="cls-2" d="m106.66,44.64v-1.17h9.46c.14,0,.56-.18.88-.45l.96,1.2c-.38.32-.45.38-.54.58-1.5,2.98-1.68,3.31-2.16,3.91-2.02,2.43-3.65,3.03-5.39,3.65l-1.04-1.04c1.44-.35,2.95-.74,4.75-2.59,1.57-1.62,2.06-3.04,2.42-4.08h-9.33Zm9.38-3.54h-7.64v-1.17h7.64v1.17Z"/><path class="cls-2" d="m132.73,45.06c-1.79,1.79-3.75,3.75-10.5,6.18-.02.03-.19.42-.29.42-.13,0-.21-.19-.3-.4l-.54-1.31c1.58-.29,3.33-.59,6.27-2.27,2.79-1.57,3.91-2.79,4.82-3.78l.54,1.17Zm-8.42-1.33c-.78-.99-1.7-1.87-2.64-2.72l.93-.91c.5.42,1.86,1.62,2.79,2.8l-1.07.83Z"/><path class="cls-2" d="m146.33,41.35c-.7.46-.74.5-.93.75-.94,1.94-1.38,2.69-2.24,3.87,1.49,1.25,3.01,2.66,4.34,4.59l-1.09.91c-.45-.77-.9-1.52-2.05-2.74-.9-.94-1.52-1.42-1.95-1.76-2,2.24-3.67,3.2-5.84,4.16l-.96-1.07c1.38-.48,3.03-1.04,5.14-3.1,2.11-2.07,2.8-3.79,3.38-5.2h-6.67v-1.12h7.12c.27,0,.58-.21.75-.34l1.01,1.04Z"/><path class="cls-2" d="m41.16,63.99c.11,0,.46-.34.54-.42l1.09,1.09c-.34.26-.42.32-.5.46-1.46,2.62-2.05,3.33-2.75,4.08l-1.04-.58c.53-.54,1.65-1.79,2.45-3.51l-5.07.45v4.1c0,1.33.54,1.49,2.34,1.49s2.19-.05,3.95-.32l.03,1.25c-1.12.1-2.93.21-4.56.21-2.51,0-2.98-.85-2.98-1.92v-4.67l-3.79.38-.08-1.09,3.87-.37v-4.05l1.18.1c.1.02.45.05.45.22,0,.06-.05.1-.42.35v3.25l5.28-.51Z"/><path class="cls-2" d="m55.99,62.24l.26,1.09-3.84.7.62,2.47,4.88-.83.29,1.12-4.87.88,1.41,5.28-1.2.26-1.42-5.38-5.62,1.01-.21-1.14,5.54-.96-.67-2.5-4.13.7-.21-1.07,4.05-.72-.78-2.99,1.38-.16s.37-.05.37.14c0,.08-.03.13-.3.45l.59,2.35,3.87-.7Z"/><path class="cls-2" d="m72.12,71.8v.94h-10.64v-.94h6.21l.75-5.01h-4.87v-.96h6.03l-.86,5.97h3.38Z"/><path class="cls-2" d="m77.46,60.79c.13,0,.32.05.32.16,0,.08-.02.11-.29.34v6.96h-1.3v-7.59l1.26.13Zm.62,11.46c1.84-.7,2.54-1.18,3.19-1.94.93-1.09,1.6-2.48,1.6-4.99,0-.48-.05-2.62-.06-3.06-.02-.5-.02-.58-.06-1.84l1.3.06c.06.02.34.03.34.19,0,.06-.03.1-.26.42.02,4.58.03,6.15-.62,8-.82,2.34-2.93,3.42-4.45,4.19l-.96-1.04Z"/><path class="cls-2" d="m95.25,66.08c-.11,1.44-.24,2.93-1.26,4.48s-2.29,2.1-3.36,2.56l-1.12-1.01c1.06-.34,2.24-.7,3.28-2.18,1.02-1.42,1.09-2.75,1.14-3.86h-5.79v-1.17h12.34v1.17h-5.22Zm3.01-4.18h-7.97v-1.17h7.97v1.17Z"/><path class="cls-2" d="m108.25,67.29c-1.04.7-1.97,1.26-3.59,2l-.96-.83c1.2-.38,2.35-.77,4.48-2.35,1.86-1.39,2.64-2.32,3.19-2.98l.75.69c.13.11.27.24.27.37,0,.08-.05.1-.16.1-.06,0-.32-.02-.38-.03-.96.94-1.58,1.54-2.56,2.26v7.12h-1.04v-6.34Z"/><path class="cls-2" d="m122.28,70.04c0,.86.16,1.12,1.58,1.12,1.31,0,2.51-.11,3.51-.24v1.33c-1.07.06-1.97.08-4.15.08-1.33,0-2.24-.42-2.24-1.75v-3.87h-5.09v-1.14h5.09v-3.41h-3.54v-1.12h9.46v1.12h-4.63v3.41h5.75v1.14h-5.75v3.33Z"/><path class="cls-2" d="m131.51,69.62h12.21v1.3h-12.21v-1.3Zm1.76-6.08v-1.3h8.87v1.3h-8.87Z"/><path class="cls-2" d="m157.85,63.57c-.29.24-.32.29-.42.42-1.18,2.66-1.41,3.07-2.1,4.1.56.38,1.07.78,1.58,1.28l-.83.96c-.69-.67-1.02-.96-1.46-1.28-.56.69-1.26,1.54-2.56,2.45-1.41,1.01-2.5,1.33-3.47,1.63l-.83-1.14c.83-.21,1.82-.46,3.17-1.31,1.34-.83,2.05-1.65,2.66-2.35-.85-.54-1.5-.91-2.79-1.49l.75-.96c1.49.72,2.29,1.22,2.74,1.49,1.1-1.71,1.52-2.85,1.79-3.67h-4.71c-1.5,2.05-2.53,2.87-3.25,3.43l-1.09-.83c1.01-.69,1.97-1.36,3.31-3.23,1.07-1.49,1.42-2.4,1.65-2.95l1.25.53c.19.08.26.21.26.27,0,.18-.4.24-.54.26-.22.46-.29.56-.83,1.49h3.92c.27,0,.77-.08,1.04-.16l.75,1.07Z"/><path class="cls-2" d="m161.4,67.54v-1.17h11.59v1.17h-11.59Z"/><path class="cls-2" d="m319.01,46.69c0,3.92-3.19,7.11-7.11,7.11s-7.11-3.17-7.11-7.11,3.22-7.11,7.11-7.11,7.11,3.15,7.11,7.11Zm-13.64,0c0,3.62,2.95,6.53,6.53,6.53s6.53-2.93,6.53-6.53-2.95-6.53-6.53-6.53-6.53,2.88-6.53,6.53Zm11.46,0c0,2.72-2.21,4.93-4.93,4.93s-4.93-2.21-4.93-4.93,2.22-4.93,4.93-4.93,4.93,2.18,4.93,4.93Zm-9.28,0c0,2.4,1.95,4.35,4.35,4.35s4.35-1.95,4.35-4.35-1.97-4.35-4.35-4.35-4.35,1.92-4.35,4.35Z"/><path class="cls-2" d="m328.96,42.9l1.04.75c.14.11.21.18.21.26,0,.1-.1.18-.54.16-.66.86-1.34,1.79-2.29,2.99,1.25,1.26,1.5,1.62,1.79,2,1.47-1.94,2.42-3.25,3.3-4.66l1.15.83c.18.13.22.21.22.27,0,.22-.34.21-.67.19-2.03,2.85-3.35,4.42-4.96,6.24,3.06-.24,4.29-.38,5.3-.5-.62-.8-.99-1.17-1.71-1.84l.83-.75c1.52,1.28,2.85,2.75,3.76,4.51l-.96.71c-.62-.94-.72-1.09-1.12-1.67-4.71.58-7.56.85-10.34,1.1-.1.19-.21.4-.38.4-.14,0-.19-.19-.21-.3l-.24-1.46c.58.03,1.14.05,3.46-.08.3-.29.69-.64,1.82-2.05-.93-1.12-2.18-2.48-3.91-3.87l.83-.91c.22.18.35.29,1.28,1.09.14-.19,1.47-1.97,2.1-3.43h-6.42v-1.09h6.53v-2.5l1.38.13c.18.02.34.05.34.18s-.18.22-.37.3v1.89h6.58v1.09h-7.8Z"/><path class="cls-2" d="m341.6,53.96h-1.12v-13.99h5.71v4.93h-4.59v9.06Zm3.51-11.94v-1.09h-3.46v1.09h3.46Zm0,2v-1.12h-3.46v1.12h3.46Zm2.85,6.08c.8,1.07,2.03,1.7,3.3,2.11l-.66.91c-.94-.4-2.02-.85-3.36-2.4-.75,1.39-1.97,2.18-3.23,2.66l-.91-.83c1.07-.32,2.58-.99,3.31-2.45h-3.36v-.91h3.6c.05-.48.05-.69.05-1.01v-.32h-2.98v-.88h1.47c-.13-.32-.32-.61-.75-1.09l.8-.54c.35.32.67.66,1.04,1.3l-.5.34h2.74l-.42-.38c.46-.5.7-.88.96-1.28l.78.5c.11.06.19.14.19.22,0,.14-.3.18-.38.19-.11.16-.27.38-.59.75h1.46v.88h-2.74v.37c0,.45-.03.66-.06.96h3.47v.91h-3.23Zm3.11,2.61c.32.03.91.13,1.14.13.45,0,.45-.26.45-.72v-7.22h-4.66v-4.93h5.75v12.15c0,1.18,0,1.9-2.08,1.79l-.59-1.2Zm1.58-11.78h-3.54v1.09h3.54v-1.09Zm0,1.97h-3.54v1.12h3.54v-1.12Z"/><path class="cls-2" d="m360.97,44.93c.98.9,2.48,2.34,2.48,4.5,0,2.53-2.02,2.5-3.38,2.48l-.29-1.26c.35.02.8.05,1.17.05.45,0,1.38,0,1.38-1.28,0-1.87-1.78-3.51-2.72-4.35,1.23-1.92,1.81-3.01,2.39-4.1h-2.83v12.96h-1.09v-13.96h4.99l.53.59c-1.12,2.03-1.92,3.28-2.62,4.37Zm6.1-1.67c0,.43-.02,1.36-.03,1.82h4.07c.03,2.67-.16,5.83-.53,7.06-.43,1.47-1.2,1.54-2.8,1.54-.38,0-.66-.02-.99-.05l-.37-1.25c.93.13,1.41.18,1.76.18.8,0,1.2-.21,1.42-1.79.21-1.52.29-3.06.32-4.59h-2.96c-.22,2.37-.75,5.06-3.3,7.79l-.96-.83c.74-.72,1.98-1.94,2.66-4.27.51-1.76.53-3.6.56-5.6h-2.72v-1.09h3.76v-2.66l1.23.05c.13,0,.22.05.22.13,0,.14-.14.24-.29.34v2.14h3.84v1.09h-4.9Z"/><path class="cls-2" d="m380.37,40.79c-.48.9-.85,1.39-1.36,1.99.77,1.62,1.55,3.27,1.55,6.29,0,.13,0,3.31-.74,4.23-.42.5-1.22.51-1.76.51-.26,0-.75-.02-1.47-.06l-.08-1.33c.86.18,1.17.22,1.6.22.72,0,.93-.35,1.1-1.12.21-.86.21-1.76.21-2.66,0-.98-.05-1.34-.16-2.16-.83,1.25-1.7,2.45-3.33,4.05l-.93-.93c1.55-1.28,2.54-2.38,3.79-4.79-.32-.8-.53-1.14-.66-1.38-.91.88-1.57,1.33-2.21,1.75l-.8-.83c1.33-.85,1.82-1.28,2.47-1.87-.59-.88-1.02-1.38-1.55-1.87l.8-.83c.75.77,1.09,1.17,1.58,1.82.37-.45.7-.91,1.25-2.03l.99.59c.06.05.16.11.16.21,0,.21-.29.21-.46.21Zm6.98,12.45h-4.29c-.78,0-1.3-.32-1.3-1.3v-11.62h6.8v6.9c0,1.34-.56,1.57-3.14,1.47l-.29-1.3c.69.1,1.01.14,1.41.14.45,0,.85-.11.85-.72v-5.43h-4.51v9.97c0,.37.03.7.8.7h3.63c.74,0,.94-.14,1.2-2.08l1.12.66c-.58,2.45-.91,2.59-2.29,2.59Z"/><path class="cls-2" d="m403.23,44.1c.11,0,.46-.34.54-.42l1.09,1.09c-.34.26-.42.32-.5.46-1.46,2.62-2.05,3.33-2.75,4.08l-1.04-.58c.53-.54,1.65-1.79,2.45-3.51l-5.07.45v4.1c0,1.33.54,1.49,2.34,1.49s2.19-.05,3.95-.32l.03,1.25c-1.12.1-2.93.21-4.56.21-2.51,0-2.98-.85-2.98-1.92v-4.67l-3.79.38-.08-1.09,3.87-.37v-4.05l1.18.1c.1.02.45.05.45.22,0,.06-.05.1-.42.35v3.25l5.28-.51Z"/><path class="cls-2" d="m419.86,45.94c-1.79,1.79-3.75,3.75-10.5,6.18-.02.03-.19.42-.29.42-.13,0-.21-.19-.3-.4l-.54-1.31c1.58-.29,3.33-.59,6.27-2.27,2.79-1.57,3.91-2.79,4.82-3.78l.54,1.17Zm-8.42-1.33c-.78-.99-1.7-1.87-2.64-2.72l.93-.91c.5.42,1.86,1.62,2.79,2.8l-1.07.83Z"/><path class="cls-2" d="m435.62,44.02v1.14h-3.2c-.08,1.84-.16,3.33-.9,4.93-.86,1.92-1.98,2.5-3.41,3.15l-1.12-.91c1.5-.53,2.58-.99,3.44-2.77.66-1.39.74-2.74.82-4.4h-3.55v3.91h-1.2v-3.91h-3.51v-1.14h3.51v-3.33l1.3.14c.11.02.29.05.29.18,0,.08-.03.11-.38.29v2.72h3.51c0-1.36-.05-2.72-.08-3.62l1.18.1c.21.02.45.03.45.21,0,.16-.18.24-.34.34v2.98h3.2Z"/><path class="cls-2" d="m439.18,47.65v-1.17h11.59v1.17h-11.59Z"/><path class="cls-2" d="m457.79,46.69c0,.8-.66,1.44-1.44,1.44s-1.42-.66-1.42-1.44.64-1.44,1.42-1.44,1.44.62,1.44,1.44Z"/><path class="cls-2" d="m464.49,50.92c-.77,1.42-1.18,2.05-1.63,2.62l-.99-.62c1.17-1.41,1.65-2.51,1.82-2.96l1.07.51c.13.06.19.14.19.22,0,.06,0,.14-.46.22Zm10.1-6.42v-2.72h-3.86v1.58c0,.35.13.46.46.46h1.18c.62,0,.8-.14,1.01-1.09l.96.5c-.24,1.09-.5,1.55-1.58,1.55h-1.98c-.72,0-1.12-.43-1.12-.91v-2.1h-6.35v2.96h-1.17v-4h6.15v-1.38l1.22.1c.08,0,.42.03.42.21,0,.11-.29.22-.43.29v.78h6.23v3.76h-1.12Zm-.77,4.53c-.38-.4-.66-.66-1.38-1.33-1.46.16-7.97.66-9.3.77-.08.29-.08.32-.19.32-.16,0-.21-.16-.24-.29l-.3-1.17c1.49-.02,2.19-.02,3.07-.1,1.07-1.22,1.73-2.22,2.43-3.41l1.12.67s.21.13.21.26c0,.08,0,.16-.66.16-1.17,1.55-1.5,1.94-1.76,2.24.46-.02,2.53-.14,2.95-.18,1.06-.06,1.31-.08,1.71-.11-.34-.29-.5-.42-.86-.67l.66-.78c.8.51,2.11,1.42,3.35,2.83l-.8.79Zm-6.48-6.04c-1.26,1.67-2.66,2.67-3.35,3.17l-.75-.71c1.34-.94,2.56-2.06,3.41-3.47l.91.56s.19.13.19.26c0,.16-.22.18-.42.19Zm3.7,10.52h-3.79c-.96,0-1.3-.42-1.3-1.09v-3.38l1.15.13c.08.02.3.05.3.18,0,.1-.03.13-.34.34v2.03c0,.56.35.7.8.7h2.58c.93,0,1.02-.38,1.34-1.87l1.04.53c-.34,1.54-.53,2.43-1.79,2.43Zm-1.04-2.43c-.69-.75-1.06-1.12-1.66-1.7l.7-.8c.72.56,1.22,1.01,1.74,1.66l-.78.83Zm5.2,2.26c-.67-1.06-1.23-1.87-2.16-2.88l.86-.62c.8.85,1.7,1.95,2.26,2.83l-.96.67Z"/><path class="cls-2" d="m482.78,44.93c.98.9,2.48,2.34,2.48,4.5,0,2.53-2.02,2.5-3.38,2.48l-.29-1.26c.35.02.8.05,1.17.05.45,0,1.38,0,1.38-1.28,0-1.87-1.78-3.51-2.72-4.35,1.23-1.92,1.81-3.01,2.39-4.1h-2.83v12.96h-1.09v-13.96h4.99l.53.59c-1.12,2.03-1.92,3.28-2.62,4.37Zm6.1-1.67c0,.43-.02,1.36-.03,1.82h4.07c.03,2.67-.16,5.83-.53,7.06-.43,1.47-1.2,1.54-2.8,1.54-.38,0-.66-.02-.99-.05l-.37-1.25c.93.13,1.41.18,1.76.18.8,0,1.2-.21,1.42-1.79.21-1.52.29-3.06.32-4.59h-2.96c-.22,2.37-.75,5.06-3.3,7.79l-.96-.83c.74-.72,1.98-1.94,2.66-4.27.51-1.76.53-3.6.56-5.6h-2.72v-1.09h3.76v-2.66l1.23.05c.13,0,.22.05.22.13,0,.14-.14.24-.29.34v2.14h3.84v1.09h-4.9Z"/><path class="cls-2" d="m502.17,40.79c-.48.9-.85,1.39-1.36,1.99.77,1.62,1.55,3.27,1.55,6.29,0,.13,0,3.31-.74,4.23-.42.5-1.22.51-1.76.51-.26,0-.75-.02-1.47-.06l-.08-1.33c.86.18,1.17.22,1.6.22.72,0,.93-.35,1.1-1.12.21-.86.21-1.76.21-2.66,0-.98-.05-1.34-.16-2.16-.83,1.25-1.7,2.45-3.33,4.05l-.93-.93c1.55-1.28,2.54-2.38,3.79-4.79-.32-.8-.53-1.14-.66-1.38-.91.88-1.57,1.33-2.21,1.75l-.8-.83c1.33-.85,1.82-1.28,2.47-1.87-.59-.88-1.02-1.38-1.55-1.87l.8-.83c.75.77,1.09,1.17,1.58,1.82.37-.45.7-.91,1.25-2.03l.99.59c.06.05.16.11.16.21,0,.21-.29.21-.46.21Zm6.98,12.45h-4.29c-.78,0-1.3-.32-1.3-1.3v-11.62h6.8v6.9c0,1.34-.56,1.57-3.14,1.47l-.29-1.3c.69.1,1.01.14,1.41.14.45,0,.85-.11.85-.72v-5.43h-4.51v9.97c0,.37.03.7.8.7h3.63c.74,0,.94-.14,1.2-2.08l1.12.66c-.58,2.45-.91,2.59-2.29,2.59Z"/><path class="cls-2" d="m525.04,44.1c.11,0,.46-.34.54-.42l1.09,1.09c-.34.26-.42.32-.5.46-1.46,2.62-2.05,3.33-2.75,4.08l-1.04-.58c.53-.54,1.65-1.79,2.45-3.51l-5.07.45v4.1c0,1.33.54,1.49,2.34,1.49s2.19-.05,3.95-.32l.03,1.25c-1.12.1-2.93.21-4.56.21-2.51,0-2.98-.85-2.98-1.92v-4.67l-3.79.38-.08-1.09,3.87-.37v-4.05l1.18.1c.1.02.45.05.45.22,0,.06-.05.1-.42.35v3.25l5.28-.51Z"/><path class="cls-2" d="m541.67,45.94c-1.79,1.79-3.75,3.75-10.5,6.18-.02.03-.19.42-.29.42-.13,0-.21-.19-.3-.4l-.54-1.31c1.58-.29,3.33-.59,6.27-2.27,2.79-1.57,3.91-2.79,4.82-3.78l.54,1.17Zm-8.42-1.33c-.78-.99-1.7-1.87-2.64-2.72l.93-.91c.5.42,1.86,1.62,2.79,2.8l-1.07.83Z"/><path class="cls-2" d="m557.43,44.02v1.14h-3.2c-.08,1.84-.16,3.33-.9,4.93-.86,1.92-1.98,2.5-3.41,3.15l-1.12-.91c1.5-.53,2.58-.99,3.44-2.77.66-1.39.74-2.74.82-4.4h-3.55v3.91h-1.2v-3.91h-3.51v-1.14h3.51v-3.33l1.3.14c.11.02.29.05.29.18,0,.08-.03.11-.38.29v2.72h3.51c0-1.36-.05-2.72-.08-3.62l1.18.1c.21.02.45.03.45.21,0,.16-.18.24-.34.34v2.98h3.2Z"/><path class="cls-2" d="m560.99,47.65v-1.17h11.59v1.17h-11.59Z"/><path class="cls-2" d="m319.01,71.55c0,3.92-3.19,7.11-7.11,7.11s-7.11-3.17-7.11-7.11,3.22-7.11,7.11-7.11,7.11,3.15,7.11,7.11Zm-13.64,0c0,3.62,2.95,6.53,6.53,6.53s6.53-2.93,6.53-6.53-2.95-6.53-6.53-6.53-6.53,2.88-6.53,6.53Zm11.46,0c0,2.72-2.21,4.93-4.93,4.93s-4.93-2.21-4.93-4.93,2.22-4.93,4.93-4.93,4.93,2.18,4.93,4.93Zm-9.28,0c0,2.4,1.95,4.35,4.35,4.35s4.35-1.95,4.35-4.35-1.97-4.35-4.35-4.35-4.35,1.92-4.35,4.35Z"/><path class="cls-2" d="m328.96,67.75l1.04.75c.14.11.21.18.21.26,0,.1-.1.18-.54.16-.66.86-1.34,1.79-2.29,2.99,1.25,1.26,1.5,1.62,1.79,2,1.47-1.94,2.42-3.25,3.3-4.66l1.15.83c.18.13.22.21.22.27,0,.22-.34.21-.67.19-2.03,2.85-3.35,4.42-4.96,6.24,3.06-.24,4.29-.38,5.3-.5-.62-.8-.99-1.17-1.71-1.84l.83-.75c1.52,1.28,2.85,2.75,3.76,4.51l-.96.71c-.62-.94-.72-1.09-1.12-1.67-4.71.58-7.56.85-10.34,1.1-.1.19-.21.4-.38.4-.14,0-.19-.19-.21-.3l-.24-1.46c.58.03,1.14.05,3.46-.08.3-.29.69-.64,1.82-2.05-.93-1.12-2.18-2.48-3.91-3.87l.83-.91c.22.18.35.29,1.28,1.09.14-.19,1.47-1.97,2.1-3.43h-6.42v-1.09h6.53v-2.5l1.38.13c.18.02.34.05.34.18s-.18.22-.37.3v1.89h6.58v1.09h-7.8Z"/><path class="cls-2" d="m341.6,78.82h-1.12v-13.99h5.71v4.93h-4.59v9.06Zm3.51-11.94v-1.09h-3.46v1.09h3.46Zm0,2v-1.12h-3.46v1.12h3.46Zm2.85,6.08c.8,1.07,2.03,1.7,3.3,2.11l-.66.91c-.94-.4-2.02-.85-3.36-2.4-.75,1.39-1.97,2.18-3.23,2.66l-.91-.83c1.07-.32,2.58-.99,3.31-2.45h-3.36v-.91h3.6c.05-.48.05-.69.05-1.01v-.32h-2.98v-.88h1.47c-.13-.32-.32-.61-.75-1.09l.8-.54c.35.32.67.66,1.04,1.3l-.5.34h2.74l-.42-.38c.46-.5.7-.88.96-1.28l.78.5c.11.06.19.14.19.22,0,.14-.3.18-.38.19-.11.16-.27.38-.59.75h1.46v.88h-2.74v.37c0,.45-.03.66-.06.96h3.47v.91h-3.23Zm3.11,2.61c.32.03.91.13,1.14.13.45,0,.45-.26.45-.72v-7.22h-4.66v-4.93h5.75v12.15c0,1.18,0,1.9-2.08,1.79l-.59-1.2Zm1.58-11.78h-3.54v1.09h3.54v-1.09Zm0,1.97h-3.54v1.12h3.54v-1.12Z"/><path class="cls-2" d="m357.79,67.88v-1.09h4.13c-.4-.71-.75-1.17-1.26-1.71l.96-.7c.64.64.99,1.12,1.42,1.87l-.88.54h4.83l-.58-.46c.62-.66,1.01-1.15,1.46-1.95l.91.59c.1.06.19.13.19.22,0,.11-.03.11-.37.11-.4.7-.72,1.1-1.07,1.49h4.08v1.09h-13.83Zm5.22,10.71h-.78l-.58-1.25c.93.13.98.14,1.09.14.29,0,.29-.19.29-.42v-1.6h-3.04v3.2h-1.14v-9.54h5.25v8.42c0,.77-.16,1.04-1.09,1.04Zm.02-8.42h-3.04v1.62h3.04v-1.62Zm0,2.62h-3.04v1.67h3.04v-1.67Zm4.21-2.83v6.16h-1.12v-6.71l1.04.1c.06.02.42.05.42.19,0,.11-.13.16-.34.26Zm3.17-.58v7.94c0,1.07-.3,1.22-1.14,1.22h-1.28l-.42-1.28c.26.03,1.23.13,1.34.13.22,0,.32-.06.32-.51v-7.99l1.14.08c.1.02.37.03.37.16,0,.1-.18.18-.34.26Z"/><path class="cls-2" d="m385.63,68.95c.11,0,.46-.34.54-.42l1.09,1.09c-.34.26-.42.32-.5.46-1.46,2.62-2.05,3.33-2.75,4.08l-1.04-.58c.53-.54,1.65-1.79,2.45-3.51l-5.07.45v4.1c0,1.33.54,1.49,2.34,1.49s2.19-.05,3.95-.32l.03,1.25c-1.12.1-2.93.21-4.56.21-2.51,0-2.98-.85-2.98-1.92v-4.67l-3.79.38-.08-1.09,3.87-.37v-4.05l1.18.1c.1.02.45.05.45.22,0,.06-.05.1-.42.35v3.25l5.28-.51Z"/><path class="cls-2" d="m400.46,67.21l.26,1.09-3.84.7.62,2.47,4.88-.83.29,1.12-4.87.88,1.41,5.28-1.2.26-1.42-5.38-5.62,1.01-.21-1.14,5.54-.96-.67-2.5-4.13.7-.21-1.07,4.05-.72-.78-2.99,1.38-.16s.37-.05.37.14c0,.08-.03.13-.3.45l.59,2.35,3.87-.7Z"/><path class="cls-2" d="m416.59,76.77v.94h-10.64v-.94h6.21l.75-5.01h-4.87v-.96h6.03l-.86,5.97h3.38Z"/><path class="cls-2" d="m421.93,65.75c.13,0,.32.05.32.16,0,.08-.02.11-.29.34v6.96h-1.3v-7.59l1.26.13Zm.62,11.46c1.84-.7,2.54-1.18,3.19-1.94.93-1.09,1.6-2.48,1.6-4.99,0-.48-.05-2.62-.06-3.06-.02-.5-.02-.58-.06-1.84l1.3.06c.06.02.34.03.34.19,0,.06-.03.1-.26.42.02,4.58.03,6.15-.62,8-.82,2.34-2.93,3.42-4.45,4.19l-.96-1.04Z"/><path class="cls-2" d="m439.73,71.05c-.11,1.44-.24,2.93-1.26,4.48s-2.29,2.1-3.36,2.56l-1.12-1.01c1.06-.34,2.24-.7,3.28-2.18,1.02-1.42,1.09-2.75,1.14-3.86h-5.79v-1.17h12.34v1.17h-5.22Zm3.01-4.18h-7.97v-1.17h7.97v1.17Z"/><path class="cls-2" d="m452.72,72.25c-1.04.7-1.97,1.26-3.59,2l-.96-.83c1.2-.38,2.35-.77,4.48-2.35,1.86-1.39,2.64-2.32,3.19-2.98l.75.69c.13.11.27.24.27.37,0,.08-.05.1-.16.1-.06,0-.32-.02-.38-.03-.96.94-1.58,1.54-2.56,2.26v7.12h-1.04v-6.34Z"/><path class="cls-2" d="m466.75,75.01c0,.86.16,1.12,1.58,1.12,1.31,0,2.51-.11,3.51-.24v1.33c-1.07.06-1.97.08-4.15.08-1.33,0-2.24-.42-2.24-1.75v-3.87h-5.09v-1.14h5.09v-3.41h-3.54v-1.12h9.46v1.12h-4.63v3.41h5.75v1.14h-5.75v3.33Z"/><path class="cls-2" d="m475.98,74.59h12.21v1.3h-12.21v-1.3Zm1.76-6.08v-1.3h8.87v1.3h-8.87Z"/><path class="cls-2" d="m502.32,68.54c-.29.24-.32.29-.42.42-1.18,2.66-1.41,3.07-2.1,4.1.56.38,1.07.78,1.58,1.28l-.83.96c-.69-.67-1.02-.96-1.46-1.28-.56.69-1.26,1.54-2.56,2.45-1.41,1.01-2.5,1.33-3.47,1.63l-.83-1.14c.83-.21,1.82-.46,3.17-1.31,1.34-.83,2.05-1.65,2.66-2.35-.85-.54-1.5-.91-2.79-1.49l.75-.96c1.49.72,2.29,1.22,2.74,1.49,1.1-1.71,1.52-2.85,1.79-3.67h-4.71c-1.5,2.05-2.53,2.87-3.25,3.43l-1.09-.83c1.01-.69,1.97-1.36,3.31-3.23,1.07-1.49,1.42-2.4,1.65-2.95l1.25.53c.19.08.26.21.26.27,0,.18-.4.24-.54.26-.22.46-.29.56-.83,1.49h3.92c.27,0,.77-.08,1.04-.16l.75,1.07Z"/><path class="cls-2" d="m505.87,72.51v-1.17h11.59v1.17h-11.59Z"/><polygon class="cls-1" points="295.15 45.88 268.82 79.63 268.82 12.11 295.15 45.88"/><path class="cls-2" d="m319.01,21.84c0,3.92-3.19,7.11-7.11,7.11s-7.11-3.17-7.11-7.11,3.22-7.11,7.11-7.11,7.11,3.15,7.11,7.11Zm-13.64,0c0,3.62,2.95,6.53,6.53,6.53s6.53-2.93,6.53-6.53-2.95-6.53-6.53-6.53-6.53,2.88-6.53,6.53Zm11.46,0c0,2.72-2.21,4.93-4.93,4.93s-4.93-2.21-4.93-4.93,2.22-4.93,4.93-4.93,4.93,2.18,4.93,4.93Zm-9.28,0c0,2.4,1.95,4.35,4.35,4.35s4.35-1.95,4.35-4.35-1.97-4.35-4.35-4.35-4.35,1.92-4.35,4.35Z"/><path class="cls-2" d="m328.96,18.04l1.04.75c.14.11.21.18.21.26,0,.1-.1.18-.54.16-.66.87-1.34,1.79-2.29,2.99,1.25,1.26,1.5,1.62,1.79,2,1.47-1.94,2.42-3.25,3.3-4.66l1.15.83c.18.13.22.21.22.27,0,.22-.34.21-.67.19-2.03,2.85-3.35,4.42-4.96,6.24,3.06-.24,4.29-.38,5.3-.5-.62-.8-.99-1.17-1.71-1.84l.83-.75c1.52,1.28,2.85,2.75,3.76,4.51l-.96.71c-.62-.94-.72-1.09-1.12-1.67-4.71.58-7.56.85-10.34,1.1-.1.19-.21.4-.38.4-.14,0-.19-.19-.21-.3l-.24-1.46c.58.03,1.14.05,3.46-.08.3-.29.69-.64,1.82-2.05-.93-1.12-2.18-2.48-3.91-3.87l.83-.91c.22.18.35.29,1.28,1.09.14-.19,1.47-1.97,2.1-3.43h-6.42v-1.09h6.53v-2.5l1.38.13c.18.02.34.05.34.18s-.18.22-.37.3v1.89h6.58v1.09h-7.8Z"/><path class="cls-2" d="m341.04,29.11h-1.12v-13.99h5.71v4.93h-4.59v9.06Zm3.51-11.94v-1.09h-3.46v1.09h3.46Zm0,2v-1.12h-3.46v1.12h3.46Zm2.85,6.08c.8,1.07,2.03,1.7,3.3,2.11l-.66.91c-.94-.4-2.02-.85-3.36-2.4-.75,1.39-1.97,2.18-3.23,2.66l-.91-.83c1.07-.32,2.58-.99,3.31-2.45h-3.36v-.91h3.6c.05-.48.05-.69.05-1.01v-.32h-2.98v-.88h1.47c-.13-.32-.32-.61-.75-1.09l.8-.54c.35.32.67.66,1.04,1.3l-.5.34h2.74l-.42-.38c.46-.5.7-.88.96-1.28l.78.5c.11.06.19.14.19.22,0,.14-.3.18-.38.19-.11.16-.27.38-.59.75h1.46v.88h-2.74v.37c0,.45-.03.66-.06.96h3.47v.91h-3.23Zm3.11,2.61c.32.03.91.13,1.14.13.45,0,.45-.26.45-.72v-7.22h-4.66v-4.93h5.75v12.15c0,1.18,0,1.9-2.08,1.79l-.59-1.2Zm1.58-11.78h-3.54v1.09h3.54v-1.09Zm0,1.97h-3.54v1.12h3.54v-1.12Z"/><path class="cls-2" d="m358.9,19.92c2.66,1.18,3.83,2.05,5.12,3.09l-.8,1.12c-1.81-1.6-3.39-2.48-4.91-3.12v7.12h-1.3v-12.5l1.26.1c.11,0,.42.03.42.21,0,.08-.26.27-.38.37v4.58l.59-.96Zm4.11-1.46c-.45-.54-1.12-1.2-1.54-1.54l.75-.72c.62.48,1.26,1.22,1.54,1.55l-.75.7Zm1.92-1.04c-.42-.56-1.1-1.23-1.54-1.58l.75-.67c.54.42,1.18,1.07,1.58,1.55l-.8.7Z"/><path class="cls-2" d="m367.88,17.92v-1.12h11.3c.1,0,.37-.11.59-.29l.91.87c-1.23,2.03-2.62,3.99-4.39,5.59l-.86-.83c.37-.32.85-.74,1.81-1.87,1.02-1.22,1.28-1.73,1.6-2.34h-10.96Zm1.38,9.17c1.33-.82,2.43-1.54,3.31-3.81.67-1.79.7-3.36.74-4.69l1.38.26c.16.03.24.11.24.19,0,.1-.03.13-.37.32-.22,2.32-.4,3.94-1.6,6-.69,1.15-1.22,1.68-2.58,2.64l-1.12-.91Z"/><path class="cls-2" d="m387.02,21.84c0,.8-.66,1.44-1.44,1.44s-1.42-.66-1.42-1.44.64-1.44,1.42-1.44,1.44.62,1.44,1.44Z"/><path class="cls-2" d="m397.65,21.37c-.1,1.42-.22,2.93-1.23,4.51-.99,1.58-2.24,2.15-3.3,2.62l-1.14-1.04c1.06-.35,2.24-.72,3.25-2.21.98-1.42,1.04-2.75,1.09-3.89h-5.71v-1.17h12.26v1.17h-5.22Zm3.01-4.21h-7.96v-1.2h7.96v1.2Zm2.62,1.67c-.42-.38-1.15-.93-1.58-1.2l.59-.83c.56.4,1.17.9,1.54,1.25l-.54.78Zm.59-2.32c-.27-.26-.96-.85-1.55-1.22l.54-.83c.61.4,1.3.98,1.58,1.25l-.58.8Z"/><path class="cls-2" d="m410.72,22.54c-1.04.7-1.97,1.26-3.59,2l-.96-.83c1.2-.38,2.35-.77,4.48-2.35,1.86-1.39,2.64-2.32,3.19-2.98l.75.69c.13.11.27.24.27.37,0,.08-.05.1-.16.1-.06,0-.32-.02-.38-.03-.96.94-1.58,1.54-2.56,2.26v7.12h-1.04v-6.34Z"/><path class="cls-2" d="m429.33,21.09c-1.79,1.79-3.75,3.75-10.5,6.18-.02.03-.19.42-.29.42-.13,0-.21-.19-.3-.4l-.54-1.31c1.58-.29,3.33-.59,6.27-2.27,2.79-1.57,3.91-2.79,4.82-3.78l.54,1.17Zm-8.42-1.33c-.78-.99-1.7-1.87-2.64-2.72l.93-.91c.5.42,1.86,1.62,2.79,2.8l-1.07.83Z"/><path class="cls-2" d="m431.9,18.17v-1.14h8.84c.13,0,.38-.11.72-.29l1.2,1.04c-.4.4-.45.43-.54.67-1.23,4.32-2.24,5.94-4.27,7.6-.98.8-1.73,1.23-3.52,2.03l-1.12-1.09c1.33-.46,3.03-1.06,4.72-2.75,2.06-2.07,2.48-4.15,2.87-6.08h-8.88Zm10.21-2.37c0-.88.75-1.55,1.58-1.55s1.55.71,1.55,1.55-.7,1.57-1.55,1.57-1.58-.71-1.58-1.57Zm2.42,0c0-.5-.38-.85-.85-.85-.43,0-.86.34-.86.85,0,.46.37.86.88.86.46,0,.83-.38.83-.86Z"/><path class="cls-2" d="m446.86,26.3c1.62-.9,3.46-2.03,3.46-7.06,0-.98-.05-1.92-.08-2.53l1.31.11c.06.02.35.03.35.19,0,.08-.03.11-.34.34.03,2.99-.05,3.91-.3,5.03-.67,2.93-1.97,3.87-3.36,4.87l-1.04-.94Zm7.25-9.92l1.28.1c.16.02.3.06.3.16s-.05.13-.38.34v8.2c.74-.4,1.52-.83,2.71-2.05,1.09-1.09,1.5-1.81,1.84-2.37l.83.96c-.53.8-1.12,1.7-2.61,3.01-1.46,1.26-2.42,1.78-3.22,2.21l-.75-.59v-9.96Z"/><path class="cls-2" d="m472.79,17.5l.26,1.09-3.84.7.62,2.47,4.88-.83.29,1.12-4.87.88,1.41,5.28-1.2.26-1.42-5.38-5.62,1.01-.21-1.14,5.54-.96-.67-2.5-4.13.7-.21-1.07,4.05-.72-.78-2.99,1.38-.16s.37-.05.37.14c0,.08-.03.13-.3.45l.59,2.35,3.87-.7Z"/><path class="cls-2" d="m477.84,22.8v-1.17h11.59v1.17h-11.59Z"/><path class="cls-2" d="m495.89,21.84c0,.8-.66,1.44-1.44,1.44s-1.42-.66-1.42-1.44.64-1.44,1.42-1.44,1.44.62,1.44,1.44Z"/><path class="cls-2" d="m509.92,18.92c-.24.24-.27.27-.37.42-1.23,2.69-1.47,3.12-2.08,4.08.38.27.9.66,1.54,1.3l-.8.96c-.75-.77-1.17-1.07-1.46-1.3-2.37,2.79-4.19,3.52-6.03,4.08l-.88-1.12c.86-.22,1.86-.48,3.19-1.31,1.34-.85,2.06-1.67,2.69-2.35-.53-.35-1.39-.9-2.78-1.5l.7-.96c.83.4,1.41.69,2.79,1.5.94-1.49,1.36-2.45,1.76-3.67h-4.67c-1.57,2.05-2.47,2.79-3.3,3.41l-1.07-.83c1.01-.69,1.98-1.36,3.33-3.23,1.07-1.47,1.44-2.4,1.66-2.93l1.2.51c.11.06.27.14.27.27,0,.14-.06.16-.51.26-.21.38-.53.96-.88,1.49h3.92c.21,0,.62-.05,1.04-.16l.75,1.09Zm-.42-1.3c-.42-.59-.88-1.09-1.41-1.58l.83-.62c.53.5.99.99,1.41,1.58l-.83.62Zm1.79-.75c-.42-.58-.93-1.14-1.41-1.58l.83-.62c.4.38.93.93,1.41,1.58l-.83.62Z"/><path class="cls-2" d="m514.06,18.38v-1.12h8.76c.13,0,.43-.16.7-.34l1.22,1.04c-.08.08-.43.43-.48.53-.03.06-.05.11-.06.18-1.23,4.27-2.22,5.89-4.29,7.57-.96.8-1.71,1.25-3.51,2.06l-1.14-1.14c1.33-.43,3.03-1.01,4.72-2.71,2.06-2.07,2.5-4.15,2.87-6.08h-8.79Zm9.38-1.76c-.38-.64-.98-1.31-1.17-1.54l.78-.58c.45.46.83.96,1.22,1.49l-.83.62Zm2.29-.5c-.37-.62-.88-1.22-1.17-1.54l.8-.59c.54.59,1.09,1.34,1.2,1.5l-.83.62Z"/><path class="cls-2" d="m528.17,26.3c1.62-.9,3.46-2.03,3.46-7.06,0-.98-.05-1.92-.08-2.53l1.31.11c.06.02.35.03.35.19,0,.08-.03.11-.34.34.03,2.99-.05,3.91-.3,5.03-.67,2.93-1.97,3.87-3.36,4.87l-1.04-.94Zm7.25-9.92l1.28.1c.16.02.3.06.3.16s-.05.13-.38.34v8.2c.74-.4,1.52-.83,2.71-2.05,1.09-1.09,1.5-1.81,1.84-2.37l.83.96c-.53.8-1.12,1.7-2.61,3.01-1.46,1.26-2.42,1.78-3.22,2.21l-.75-.59v-9.96Z"/><path class="cls-2" d="m546.08,26.21v1.09h-1.25v-10.26h10.6v10.26h-1.26v-1.09h-8.08Zm8.08-8.04h-8.08v6.92h8.08v-6.92Z"/><path class="cls-2" d="m559.6,20.62c.24.4.77,1.3,1.14,2.3l-.88.42c-.35-.99-.82-1.82-1.12-2.3l.86-.42Zm1.09,7.55c1.36-.5,2.85-1.02,4.29-3.09,1.36-1.94,1.58-3.71,1.76-5.17l.83.32c.37.11.46.19.46.27,0,.11-.05.13-.37.24-.42,1.58-.99,3.47-1.97,4.9-1.34,1.97-2.77,2.67-4.1,3.31l-.91-.78Zm1.95-8.29c.32.45.8,1.33,1.14,2.29l-.88.37c-.38-1.02-.9-1.92-1.12-2.29l.86-.37Z"/><path class="cls-2" d="m580.39,17.42c.24,0,.34-.02.58-.08l.75.91c-.62.51-.7.67-.83.96-1.31,3.46-2.16,4.96-4.03,6.79-1.09,1.06-1.89,1.55-3.27,2.34l-1.17-.96c1.41-.69,3.09-1.52,4.85-3.7,1.68-2.1,2.08-3.79,2.4-5.17h-4.83c-.7.96-1.44,1.91-3.17,3.41l-1.04-.79c.88-.67,1.84-1.41,2.98-2.94.98-1.33,1.26-2.15,1.49-2.77l1.15.4c.3.11.32.27.32.3,0,.14-.21.18-.51.21-.16.35-.32.69-.54,1.09h4.88Z"/><path class="cls-2" d="m594.4,21.84c0,.8-.66,1.44-1.44,1.44s-1.42-.66-1.42-1.44.64-1.44,1.42-1.44,1.44.62,1.44,1.44Z"/><path class="cls-2" d="m602.75,18.28c-.98-.66-1.68-1.78-1.79-1.95-1.06,1.5-2.16,2.67-2.79,3.25l-.93-.75c2.02-1.65,2.87-3.14,3.51-4.39l1.12.62c.06.03.14.11.14.21,0,.13-.1.16-.3.22.18.38.46,1.01,1.79,1.95l-.75.83Zm-3.75,8.64c-.06-.22-.5-1.65-1.04-2.62l.91-.46c.54.93.9,1.97,1.07,2.55l-.94.54Zm12.15-4.83v1.95h-1.7c.24.61.69,1.52,2.58,2.83l-.78.8c-1.02-.67-1.76-1.66-2.18-2.38v3.68h-.99v-4.93h-1.14v4.96h-.94v-3.51c-.37.62-1.1,1.68-2.08,2.5l-.83-.7c-1.36.56-2.74,1.04-4.11,1.52-.21.5-.24.54-.4.54-.11,0-.13-.1-.16-.19l-.37-1.41c.77-.13,1.74-.43,2.24-.59v-4.29h-2v-1.04h2v-1.84h-1.28v-1.04h3.54v1.04h-1.22v1.84h1.71v1.04h-1.71v4c.42-.14,1.46-.5,2.18-.83l-.18,1.04c1.34-1.14,2.1-2.43,2.34-3.04h-1.38v-.8h1.71v-1.15h-2.26v-.83h2.26v-1.06h-1.62v-.86h1.62v-1.3h-2.13v-.88h2.13c-.46-.69-1.04-1.46-1.46-1.92l.91-.58c.59.58,1.14,1.38,1.46,1.92l-.74.58h3.04l-.88-.58c.64-.82,1.04-1.62,1.3-2.13l1.04.67c.08.05.14.11.14.21,0,.13-.05.13-.48.18-.56,1.01-.62,1.12-.99,1.65h2.5v.88h-2.77v1.3h2.08v1.92h.9v.83h-.9Zm-7.92,2.3c-.18.58-.4,1.34-.53,1.7l-.94-.13c.14-.51.37-1.26.58-2.34l1.06.22c.24.05.29.19.29.24,0,.11-.29.24-.45.3Zm4.85-6.35h-1.14v1.3h1.14v-1.3Zm0,2.16h-1.14v1.06h1.14v-1.06Zm0,1.89h-1.14v1.15h1.14v-1.15Zm2.06-1.89h-1.07v1.06h1.07v-1.06Zm0,1.89h-1.07v1.17h1.07v-1.17Z"/><path class="cls-2" d="m619.22,26.38c2.63-.77,2.95-.9,3.28-1.04v1.12c-2.51.88-4.9,1.62-6.69,2.15-.06.27-.11.42-.27.42-.11,0-.18-.11-.21-.18l-.58-1.38c.98-.18,2.19-.5,3.3-.8v-3.62h-2.72v-1.09h6.34v1.09h-2.45v3.33Zm4.45-7.17c.38,3.11,1.06,5.09,2.03,6.56.48.74,1.33,1.6,1.71,1.6.5,0,1.01-1.14,1.3-1.83l.93.91c-.59,1.15-1.31,2.29-2.21,2.29-1.46,0-4.35-3.09-4.96-9.54h-7.43v-1.09h7.35c-.08-1.57-.08-2.54-.1-3.46l1.3.08c.29.02.37.16.37.24,0,.16-.27.32-.4.4-.02.91,0,1.89.03,2.74h5.3v1.09h-5.22Zm2.62-4.39c.75.59,1.31,1.18,1.97,2.13l-.96.75c-.58-.88-1.1-1.49-1.79-2.08l.78-.8Z"/><path class="cls-2" d="m639.11,21.37c-.1,1.42-.22,2.93-1.23,4.51-.99,1.58-2.24,2.15-3.3,2.62l-1.14-1.04c1.06-.35,2.24-.72,3.25-2.21.98-1.42,1.04-2.75,1.09-3.89h-5.71v-1.17h12.26v1.17h-5.22Zm3.01-4.21h-7.96v-1.2h7.96v1.2Zm2.62,1.67c-.42-.38-1.15-.93-1.58-1.2l.59-.83c.56.4,1.17.9,1.54,1.25l-.54.78Zm.59-2.32c-.27-.26-.96-.85-1.55-1.22l.54-.83c.61.4,1.3.98,1.58,1.25l-.58.8Z"/><path class="cls-2" d="m648.72,20.62c.24.4.77,1.3,1.14,2.3l-.88.42c-.35-.99-.82-1.82-1.12-2.3l.86-.42Zm1.09,7.55c1.36-.5,2.85-1.02,4.29-3.09,1.36-1.94,1.58-3.71,1.76-5.17l.83.32c.37.11.46.19.46.27,0,.11-.05.13-.37.24-.42,1.58-.99,3.47-1.97,4.9-1.34,1.97-2.77,2.67-4.1,3.31l-.91-.78Zm1.95-8.29c.32.45.8,1.33,1.14,2.29l-.88.37c-.38-1.02-.9-1.92-1.12-2.29l.86-.37Z"/><path class="cls-2" d="m662.27,19.92c2.66,1.18,3.83,2.05,5.12,3.09l-.8,1.12c-1.81-1.6-3.39-2.48-4.91-3.12v7.12h-1.3v-12.5l1.26.1c.11,0,.42.03.42.21,0,.08-.26.27-.38.37v4.58l.59-.96Zm4.11-1.46c-.45-.54-1.12-1.2-1.54-1.54l.75-.72c.62.48,1.26,1.22,1.54,1.55l-.75.7Zm1.92-1.04c-.42-.56-1.1-1.23-1.54-1.58l.75-.67c.54.42,1.18,1.07,1.58,1.55l-.8.7Z"/><path class="cls-2" d="m670.83,25.42c.51-.37,1.04-.74,1.92-1.78.83-.99.99-1.39,1.17-1.81l1.15.56c.14.06.24.18.24.27,0,.14-.24.16-.53.19-.5.74-1.6,2.35-2.87,3.34l-1.09-.78Zm5.97-5.43h-5.22v-1.17h5.22v-3.15l1.3.16c.24.02.37.06.37.18s-.05.14-.38.37v2.45h4.83v1.17h-4.83v6c0,.98-.02,1.71-1.25,1.92-.42.08-1.18.06-1.63.05l-.5-1.38c.32.03,1.01.13,1.52.13.45,0,.56-.11.58-.67v-6.05Zm3.49,1.63c1.52,1.25,2.54,2.58,3.17,3.59l-1.17.67c-.98-1.74-2.19-2.91-2.87-3.5l.86-.75Zm1.3-3.87c-.16-.19-.9-1.09-1.38-1.55l.75-.62c.45.42.99,1.02,1.38,1.55l-.75.62Zm1.92-1.01c-.16-.19-.93-1.12-1.38-1.54l.75-.62c.48.4,1.06,1.12,1.38,1.54l-.75.62Z"/><path class="cls-2" d="m685.97,26.3c1.62-.9,3.46-2.03,3.46-7.06,0-.98-.05-1.92-.08-2.53l1.31.11c.06.02.35.03.35.19,0,.08-.03.11-.34.34.03,2.99-.05,3.91-.3,5.03-.67,2.93-1.97,3.87-3.36,4.87l-1.04-.94Zm7.25-9.92l1.28.1c.16.02.3.06.3.16s-.05.13-.38.34v8.2c.74-.4,1.52-.83,2.71-2.05,1.09-1.09,1.5-1.81,1.84-2.37l.83.96c-.53.8-1.12,1.7-2.61,3.01-1.46,1.26-2.42,1.78-3.22,2.21l-.75-.59v-9.96Z"/><path class="cls-2" d="m704.42,19.89c2.72,1.18,3.79,1.94,5.25,3.12l-.78,1.12c-.48-.42-1.09-.96-2.19-1.68-1.28-.85-2.02-1.15-2.74-1.44v7.12h-1.28v-12.5l1.22.06c.08,0,.45.02.45.22,0,.1-.13.18-.38.35v4.53l.46-.91Z"/><path class="cls-2" d="m717.39,18.4c-.67-.64-1.15-1.22-1.78-2.1-.85,1.23-1.62,2.07-2.61,2.87l-.78-.83c.78-.64,2.1-1.71,3.04-3.62l1.06.37c.19.06.19.19.19.22,0,.11-.19.19-.29.24.59.77,1.17,1.38,1.95,2.08l-.78.77Zm-3.73,8.35c-.16-.77-.43-1.65-1.01-2.64l.96-.45c.46.8.77,1.6,1.06,2.75l-1.01.34Zm4.72.54c-1.87.74-3.11,1.17-4.85,1.71-.06.21-.1.34-.24.34-.1,0-.19-.08-.24-.24l-.37-1.1c.7-.08,1.23-.21,2.42-.62v-4.58h-2.21v-1.04h2.21v-1.84h-1.47v-.99h3.79v.99h-1.25v1.84h1.89v1.04h-1.89v4.21c.9-.32,1.39-.5,2.39-.91l-.18,1.2Zm-.21-3.03c-.16.66-.4,1.34-.62,1.98l-.96-.34c.46-1.18.64-1.84.77-2.37l.98.35c.06.03.19.08.19.16,0,.11-.13.14-.35.21Zm8.21,4.32c-3.38-.05-5.19-.1-6.21-1.71-.48,1.22-.88,1.81-1.33,2.34l-1.17-.54c1.79-1.57,1.95-3.2,2.05-6.34l1.1.26c.13.03.3.08.3.19,0,.16-.27.27-.42.34-.02,1.1-.11,1.87-.24,2.72.38.77.8,1.14,1.49,1.41v-6.5h-2.91v-1.04h7.01v1.04h-2.96v2.38h2.71v.99h-2.71v3.38c.26.03.58.06,1.1.06.74,0,1.79-.13,2.69-.22l-.51,1.25Zm-1.07-9.62v-1.42h-5.63v1.63h-1.09v-2.67h3.25v-1.92l1.22.13c.1.02.29.03.29.18,0,.16-.26.29-.37.35v1.26h3.41v2.47h-1.07Z"/></svg>