<?xml version="1.0" encoding="UTF-8"?><svg id="_レイヤー_14" xmlns="http://www.w3.org/2000/svg" viewBox="0 0 681.24 181.19"><defs><style>.cls-1{fill:#717071;}.cls-2{fill:#877437;}.cls-3{fill:#fff;stroke:#877437;stroke-width:1.07px;}</style></defs><rect class="cls-3" x=".54" y=".54" width="680.16" height="180.11"/><path class="cls-2" d="m28.87,38.18c0,5.63-4.58,10.21-10.21,10.21s-10.21-4.55-10.21-10.21,4.62-10.21,10.21-10.21,10.21,4.53,10.21,10.21Zm-19.59,0c0,5.2,4.23,9.38,9.38,9.38s9.38-4.21,9.38-9.38-4.23-9.38-9.38-9.38-9.38,4.14-9.38,9.38Zm16.46,0c0,3.91-3.17,7.08-7.08,7.08s-7.08-3.17-7.08-7.08,3.2-7.08,7.08-7.08,7.08,3.13,7.08,7.08Zm-13.34,0c0,3.45,2.81,6.25,6.25,6.25s6.25-2.81,6.25-6.25-2.83-6.25-6.25-6.25-6.25,2.76-6.25,6.25Z"/><path class="cls-2" d="m42.26,41.03c-.21,1.33-.76,4.92-4.76,7.57l-1.63-1.13c1.7-.97,3.7-2.37,4.53-5.68-2.71,1.06-4.3,1.59-5.52,1.98-.12.41-.16.6-.39.6s-.35-.37-.39-.53l-.44-1.59c1.1-.3,3.84-1.04,7.01-2.25.05-.78.05-1.77.05-2.64h-6.35v-1.52h6.35v-3.47h-6.69v-1.54h6.69v-2.87l1.68.16c.28.02.48.09.48.28s-.23.37-.48.55v10.39c.28-.12,1.54-.62,1.79-.74v1.61c-.76.35-1.13.51-1.93.83Zm4.94,2.48v5.01h-1.68v-20.58l1.63.16c.09,0,.34.07.34.23,0,.12-.12.23-.3.46v1.89h6.88v1.56h-6.88v3.66h6.35v1.5h-6.35v4.55h7.06v1.56h-7.06Z"/><path class="cls-2" d="m65.26,38.25c-.67.44-1.1.74-1.98,1.33v6.39c0,1.47,0,2.55-3.5,2.39l-.6-1.72c.62.07,1.06.14,1.56.14.9,0,.9-.37.9-.92v-5.27c-.85.53-1.47.9-1.91,1.13-.02.21-.11.62-.37.62-.16,0-.25-.14-.3-.34l-.48-1.63c.99-.48,2.07-1.06,3.06-1.61v-4.58h-2.62v-1.56h2.62v-4.74l1.75.16c.37.02.41.18.41.28,0,.21-.25.34-.53.51v3.79h1.98v1.56h-1.98v3.63c.9-.55,1.22-.76,1.95-1.22l.02,1.66Zm7.43-.25c.23.12.39.18.39.32,0,.21-.3.23-.6.28-.3.53-.51.94-.92,1.61h7.98v1.45h-3.13c-.23.64-.67,1.75-1.68,2.97.78.3,2.16.94,3.91,2.12l-1.38,1.2c-.48-.44-1.26-1.15-3.7-2.21-1.75,1.29-4.16,2.12-7.75,2.46l-.71-1.49c1.98-.07,4.85-.39,6.83-1.59-1.59-.55-2.83-.78-3.38-.87-.18.21-.23.25-.64.67l-1.24-.78c.6-.6,1.33-1.33,2.21-2.46h-3.31v-1.45h4.32c.83-1.26,1.17-2.12,1.4-2.8l1.4.6Zm-6.97-2.28h13.73v1.45h-13.73v-1.45Zm9.98-3.52l1.15.69c.09.05.3.16.3.32,0,.21-.28.23-.69.25-.57.85-.64.94-1.26,1.86-.07.12-.18.28-.21.3l-1.31-.76c.41-.57,1.13-1.54,1.61-2.67h-5.56c.25.34.53.74,1.59,2.69l-1.45.71c-.46-1.1-1.08-2.12-1.59-2.81l1.08-.6h-3.06v-1.45h5.47v-2.83l1.77.16c.09.02.44.07.44.28s-.28.34-.57.44v1.96h5.47v1.45h-3.17Zm-5.08,9.45c-.41.6-.69.94-1.1,1.47,1.2.21,2.55.53,3.7.92.83-.9,1.22-1.77,1.45-2.39h-4.05Z"/><path class="cls-2" d="m85.69,33.21c-.55.44-.85.64-1.31.94l-1.15-1.13c2.09-1.52,3.45-2.74,5.33-5.45l1.26.78c.18.11.32.21.32.3,0,.18-.46.3-.74.37-.3.41-.32.41-.55.69h3.54l.64.78c-1.08,1.13-1.29,1.36-2.39,2.34h3.36v14.07c0,1.29-1.2,1.5-2.16,1.5-.37,0-1.08-.05-1.68-.12l-.35-1.61c.35.05,1.17.16,1.75.16.3,0,.94,0,.94-.83v-3.84h-5.4c-.3,2.35-1.17,4.9-2.23,6.46l-1.27-.99c1.68-2.74,2.07-5.15,2.07-7.61v-6.83Zm2.87-.37c.58-.53,1.15-1.08,1.79-1.79h-2.58c-.8.9-1.08,1.22-1.72,1.79h2.51Zm.53,5.27h-1.91v2c0,.34,0,.41-.02.76h1.93v-2.76Zm0-3.96h-1.91v2.64h1.91v-2.64Zm3.43,0h-1.91v2.64h1.91v-2.64Zm0,3.96h-1.91v2.76h1.91v-2.76Zm11.27,10.42c-.32-.85-.67-1.77-.97-2.44-1.1.28-2.21.55-3.29.83-.87.21-2.23.55-3.1.76-.14.44-.3.58-.46.58-.21,0-.3-.16-.34-.32l-.6-1.79c1.49-.18,2.39-.32,3.79-.6v-5.15h-2.16v1.01h-1.52v-9.5h3.68v-4.09l1.93.14c.28.02.41.18.41.28,0,.21-.28.32-.74.53v3.15h3.82v8.49h-3.82v4.85c.78-.16,1.01-.21,1.79-.41-.62-1.31-.71-1.49-1.15-2.21l1.45-.6c1.04,1.93,1.98,3.91,2.69,5.98l-1.43.53Zm-4.97-15.13h-2.16v5.5h2.16v-5.5Zm3.82,0h-2.21v5.5h2.21v-5.5Z"/><path class="cls-2" d="m118.05,34.82v5.7h-1.56v-5.7h-2c-.28,4.09-2.71,5.61-3.47,6.12l-1.52-1.15c1.54-.71,2.99-1.66,3.36-4.97h-3.17v-1.43h3.31c.05-1.1.05-2.21.05-3.31h-2.39v-1.43h9.82v1.43h-2.41v3.31h3.31v1.43h-3.31Zm-8.37,13.06v-1.47h9.4v-2.9h-6.23v-1.45h6.23v-3.22l1.79.21c.3.05.48.09.48.25,0,.23-.3.37-.6.48v2.28h6.21v1.45h-6.21v2.9h9.34v1.47h-20.42Zm6.81-17.8h-1.89c0,2.14-.02,2.62-.07,3.31h1.96v-3.31Zm8.07-.55v8.23h-1.61v-8.99l1.68.11c.11.02.44.05.44.23,0,.16-.23.28-.51.41Zm4.23-.81v9.45c0,1.06-.07,1.77-.94,2.14-.48.21-.58.21-2.9.21l-.46-1.75c.46.05,1.22.14,1.61.14.99,0,1.08-.46,1.08-1.01v-9.96l1.61.18c.18.02.44.05.44.21,0,.18-.23.3-.44.39Z"/><path class="cls-2" d="m43.76,66.87c-1.4,2.14-3.24,4.6-8.39,7.36l-1.54-1.38c1.26-.53,2.85-1.2,5.06-3.04,2.41-2,3.27-3.45,4.05-4.74h-8.62v-1.68h9.45v-4.55l1.91.23c.18.02.37.11.37.25,0,.11-.05.16-.48.51v3.56h5.27v1.68h-5.27v10.12c0,2-.97,2.35-4.19,2.32l-.67-1.91c.71.07,1.75.12,2.18.12.76,0,.87-.09.87-.97v-7.89Z"/><path class="cls-2" d="m55.84,69.56v-1.68h16.65v1.68h-16.65Z"/><path class="cls-2" d="m80.81,65.37c3.91,1.7,5.45,2.78,7.54,4.48l-1.13,1.61c-.69-.6-1.56-1.38-3.15-2.41-1.84-1.22-2.9-1.66-3.93-2.07v10.23h-1.84v-17.96l1.75.09c.12,0,.64.02.64.32,0,.14-.18.25-.55.51v6.51l.67-1.31Z"/><path class="cls-2" d="m95.53,74.45v1.56h-1.79v-14.74h15.22v14.74h-1.82v-1.56h-11.61Zm11.61-11.54h-11.61v9.93h11.61v-9.93Z"/><path class="cls-2" d="m115.77,66.43c.34.57,1.1,1.86,1.63,3.31l-1.27.6c-.51-1.43-1.17-2.62-1.61-3.31l1.24-.6Zm1.56,10.85c1.95-.71,4.09-1.47,6.16-4.44,1.95-2.78,2.28-5.33,2.53-7.43l1.2.46c.53.16.67.28.67.39,0,.16-.07.18-.53.34-.6,2.28-1.43,4.99-2.83,7.04-1.93,2.83-3.98,3.84-5.89,4.76l-1.31-1.13Zm2.81-11.91c.46.64,1.15,1.91,1.63,3.29l-1.26.53c-.55-1.47-1.29-2.76-1.61-3.29l1.24-.53Z"/><path class="cls-2" d="m146.45,61.83c.34,0,.48-.02.83-.11l1.08,1.31c-.9.74-1.01.97-1.2,1.38-1.89,4.97-3.1,7.13-5.79,9.75-1.56,1.52-2.71,2.23-4.69,3.36l-1.68-1.38c2.02-.99,4.44-2.18,6.97-5.31,2.41-3.01,2.99-5.45,3.45-7.43h-6.94c-1.01,1.38-2.07,2.74-4.55,4.9l-1.5-1.13c1.26-.97,2.64-2.02,4.28-4.23,1.4-1.91,1.82-3.08,2.14-3.98l1.66.58c.44.16.46.39.46.44,0,.21-.3.25-.74.3-.23.51-.46.99-.78,1.56h7.01Z"/><path class="cls-2" d="m153.88,64.11c1.24.48,3.04,1.36,4.62,2.46l-.85,1.68c-1.31-.99-2.39-1.66-4.55-2.58l.78-1.56Zm15.57,2.28c-1.26,1.79-2.85,4.07-6.09,6.74-3.45,2.85-5.82,3.66-7.98,4.39l-1.13-1.72c1.79-.51,4.02-1.13,7.36-3.66,3.63-2.74,5.22-5.15,6.6-7.24l1.24,1.5Zm-13.11-7.54c1.38.55,3.06,1.4,4.55,2.46l-.85,1.61c-1.01-.8-2.07-1.54-4.48-2.58l.78-1.5Z"/><path class="cls-2" d="m188.93,61.76c-1.01.67-1.06.71-1.33,1.08-1.36,2.78-1.98,3.86-3.22,5.57,2.14,1.79,4.32,3.82,6.23,6.6l-1.56,1.31c-.64-1.1-1.29-2.18-2.94-3.93-1.29-1.36-2.18-2.05-2.8-2.53-2.88,3.22-5.27,4.6-8.39,5.98l-1.38-1.54c1.98-.69,4.35-1.5,7.38-4.46,3.04-2.97,4.02-5.45,4.85-7.47h-9.59v-1.61h10.23c.39,0,.83-.3,1.08-.48l1.45,1.5Z"/><path class="cls-2" d="m205.61,67.46c-.16,2.07-.35,4.21-1.82,6.44s-3.29,3.01-4.83,3.68l-1.61-1.45c1.52-.48,3.22-1.01,4.71-3.13,1.47-2.05,1.56-3.96,1.63-5.54h-8.32v-1.68h17.73v1.68h-7.5Zm4.32-6h-11.45v-1.68h11.45v1.68Z"/><path class="cls-2" d="m234.22,76.39c-.37-1.31-.92-2.39-1.31-3.06-3.47.57-4.14.69-10.16,1.7-2.62.46-2.71.46-3.13.53-.37.53-.41.57-.55.57-.23,0-.3-.25-.34-.39l-.67-2.12c.37.02.81.07,2.76-.12,1.68-3.84,4.05-10.85,4.78-13.96l2.14.55c.14.02.39.12.39.32,0,.18-.39.32-.71.46-.32.8-3.43,9.2-4.58,12.44,3.13-.37,6.21-.83,9.29-1.45-.46-.71-1.43-2.21-2.69-3.63l1.68-.97c2.23,2.69,3.77,5.33,4.97,8.25l-1.86.85Z"/><path class="cls-2" d="m30.07,120.08c0,5.63-4.58,10.21-10.21,10.21s-10.21-4.55-10.21-10.21,4.62-10.21,10.21-10.21,10.21,4.53,10.21,10.21Zm-19.59,0c0,5.2,4.23,9.38,9.38,9.38s9.38-4.21,9.38-9.38-4.23-9.38-9.38-9.38-9.38,4.14-9.38,9.38Zm16.46,0c0,3.91-3.17,7.08-7.08,7.08s-7.08-3.17-7.08-7.08,3.2-7.08,7.08-7.08,7.08,3.13,7.08,7.08Zm-13.34,0c0,3.45,2.81,6.25,6.25,6.25s6.25-2.81,6.25-6.25-2.83-6.25-6.25-6.25-6.25,2.76-6.25,6.25Z"/><path class="cls-2" d="m35.22,123.14v-1.63h5.86v-5.08h-4.65v-1.61h4.65v-4.74l1.7.16c.25.02.39.16.39.25,0,.14-.02.16-.41.53v3.79h4.81v-4.85l1.68.16c.21.02.41.16.41.25,0,.07,0,.12-.44.53v3.91h4.65v1.61h-4.65v5.08h5.89v1.63h-19.89Zm7.54,2.55c-1.79,2.39-3.73,3.7-5.61,4.67l-1.36-1.4c2.46-1.06,4.35-2.41,6.09-4.88l1.33.83c.16.12.25.21.25.32,0,.23-.25.32-.71.46Zm4.81-9.27h-4.81v5.08h4.81v-5.08Zm5.43,13.94c-2.83-1.77-4.9-4.37-5.77-5.57l1.52-.8c.99,1.45,3.33,3.73,5.77,5.13l-1.52,1.24Z"/><path class="cls-2" d="m77.45,130.31h-2.85l-.67-1.98c.57.11,2.09.34,2.92.34.74,0,.78-.39.78-.87v-3.77h-5.93v5.75h-1.68v-5.75h-6.09c-.53,2.55-1.15,4.42-2.87,6.58l-1.38-1.13c2.21-2.85,2.58-5.4,2.76-7.43.18-2.18.18-4.3.18-11.68h16.69v18.26c0,1.22-.32,1.68-1.86,1.68Zm-7.43-12.39h-5.73c0,2.32-.07,3.31-.23,4.51h5.96v-4.51Zm0-5.98h-5.73v4.42h5.73v-4.42Zm7.61,0h-5.93v4.42h5.93v-4.42Zm0,5.98h-5.93v4.51h5.93v-4.51Z"/><path class="cls-2" d="m102.49,127.02h-16.88v-1.68h7.66v-10.3h-6.12v-1.61h13.73v1.61h-5.75v10.3h7.36v1.68Z"/><path class="cls-2" d="m124.02,119c-2.58,2.58-5.38,5.38-15.08,8.88-.02.05-.28.6-.41.6-.18,0-.3-.28-.44-.58l-.78-1.89c2.28-.41,4.78-.85,9.01-3.26,4-2.25,5.61-4,6.92-5.43l.78,1.68Zm-12.1-1.91c-1.13-1.43-2.44-2.69-3.79-3.91l1.33-1.31c.71.6,2.67,2.32,4,4.02l-1.54,1.2Z"/><path class="cls-2" d="m131.73,117.27c3.91,1.7,5.45,2.78,7.54,4.48l-1.13,1.61c-.69-.6-1.56-1.38-3.15-2.41-1.84-1.22-2.9-1.66-3.93-2.07v10.23h-1.84v-17.96l1.75.09c.11,0,.64.02.64.32,0,.14-.18.25-.55.51v6.51l.67-1.31Z"/><path class="cls-2" d="m144.1,118.4v-1.68h13.59c.21,0,.8-.25,1.26-.64l1.38,1.72c-.55.46-.64.55-.78.83-2.16,4.28-2.41,4.76-3.1,5.61-2.9,3.5-5.24,4.35-7.75,5.24l-1.49-1.5c2.07-.51,4.23-1.06,6.83-3.72,2.25-2.32,2.97-4.37,3.47-5.86h-13.41Zm13.48-5.08h-10.97v-1.68h10.97v1.68Z"/><path class="cls-2" d="m181.57,119c-2.58,2.58-5.38,5.38-15.08,8.88-.02.05-.28.6-.41.6-.18,0-.3-.28-.44-.58l-.78-1.89c2.28-.41,4.78-.85,9.01-3.26,4-2.25,5.61-4,6.92-5.43l.78,1.68Zm-12.1-1.91c-1.13-1.43-2.44-2.69-3.79-3.91l1.33-1.31c.71.6,2.67,2.32,4,4.02l-1.54,1.2Z"/><path class="cls-2" d="m201.12,113.66c-1.01.67-1.06.71-1.33,1.08-1.36,2.78-1.98,3.86-3.22,5.57,2.14,1.79,4.32,3.82,6.23,6.6l-1.56,1.31c-.64-1.1-1.29-2.18-2.94-3.93-1.29-1.36-2.18-2.05-2.81-2.53-2.87,3.22-5.27,4.6-8.39,5.98l-1.38-1.54c1.98-.69,4.35-1.5,7.38-4.46,3.04-2.97,4.02-5.45,4.85-7.47h-9.59v-1.61h10.23c.39,0,.83-.3,1.08-.48l1.45,1.5Z"/><path class="cls-2" d="m49.94,146.35c.16,0,.67-.48.78-.6l1.56,1.56c-.48.37-.6.46-.71.67-2.09,3.77-2.94,4.78-3.96,5.86l-1.5-.83c.76-.78,2.37-2.58,3.52-5.04l-7.29.64v5.89c0,1.91.78,2.14,3.36,2.14s3.15-.07,5.68-.46l.05,1.79c-1.61.14-4.21.3-6.55.3-3.61,0-4.28-1.22-4.28-2.76v-6.71l-5.45.55-.11-1.56,5.56-.53v-5.82l1.7.14c.14.02.64.07.64.32,0,.09-.07.14-.6.51v4.67l7.59-.74Z"/><path class="cls-2" d="m71.26,143.85l.37,1.56-5.52,1.01.9,3.54,7.01-1.2.41,1.61-6.99,1.26,2.02,7.59-1.72.37-2.05-7.73-8.07,1.45-.3-1.63,7.96-1.38-.97-3.59-5.93,1.01-.3-1.54,5.82-1.04-1.13-4.3,1.98-.23c.07,0,.53-.07.53.21,0,.12-.05.18-.44.64l.85,3.38,5.56-1.01Z"/><path class="cls-2" d="m94.44,157.57v1.36h-15.29v-1.36h8.92l1.08-7.2h-6.99v-1.38h8.67l-1.24,8.58h4.85Z"/><path class="cls-2" d="m102.13,141.75c.18,0,.46.07.46.23,0,.11-.02.16-.41.48v10h-1.86v-10.9l1.82.18Zm.9,16.46c2.64-1.01,3.66-1.7,4.58-2.78,1.33-1.56,2.3-3.56,2.3-7.17,0-.69-.07-3.77-.09-4.39-.02-.71-.02-.83-.09-2.64l1.86.09c.09.02.48.05.48.28,0,.09-.05.14-.37.6.02,6.58.05,8.83-.9,11.5-1.17,3.36-4.21,4.92-6.39,6.02l-1.38-1.49Z"/><path class="cls-2" d="m127.7,149.36c-.16,2.07-.34,4.21-1.82,6.44s-3.29,3.01-4.83,3.68l-1.61-1.45c1.52-.48,3.22-1.01,4.71-3.13,1.47-2.05,1.56-3.96,1.63-5.54h-8.32v-1.68h17.73v1.68h-7.5Zm4.32-6h-11.45v-1.68h11.45v1.68Z"/><path class="cls-2" d="m146.38,151.09c-1.49,1.01-2.83,1.82-5.15,2.88l-1.38-1.2c1.72-.55,3.38-1.1,6.44-3.38,2.67-2,3.79-3.33,4.58-4.28l1.08.99c.18.16.39.34.39.53,0,.12-.07.14-.23.14-.09,0-.46-.02-.55-.05-1.38,1.36-2.28,2.21-3.68,3.24v10.23h-1.5v-9.11Z"/><path class="cls-2" d="m166.55,155.04c0,1.24.23,1.61,2.28,1.61,1.89,0,3.61-.16,5.04-.35v1.91c-1.54.09-2.83.12-5.96.12-1.91,0-3.22-.6-3.22-2.51v-5.56h-7.31v-1.63h7.31v-4.9h-5.08v-1.61h13.59v1.61h-6.65v4.9h8.26v1.63h-8.26v4.78Z"/><path class="cls-2" d="m179.82,154.45h17.54v1.86h-17.54v-1.86Zm2.53-8.74v-1.86h12.74v1.86h-12.74Z"/><path class="cls-2" d="m217.68,145.75c-.41.35-.46.41-.6.6-1.7,3.82-2.02,4.42-3.01,5.89.81.55,1.54,1.13,2.28,1.84l-1.2,1.38c-.99-.97-1.47-1.38-2.09-1.84-.8.99-1.82,2.21-3.68,3.52-2.02,1.45-3.59,1.91-4.99,2.35l-1.2-1.63c1.2-.3,2.62-.67,4.55-1.89,1.93-1.2,2.94-2.37,3.82-3.38-1.22-.78-2.16-1.31-4-2.14l1.08-1.38c2.14,1.04,3.29,1.75,3.93,2.14,1.59-2.46,2.18-4.09,2.58-5.27h-6.76c-2.16,2.94-3.63,4.12-4.67,4.92l-1.56-1.2c1.45-.99,2.83-1.95,4.76-4.64,1.54-2.14,2.05-3.45,2.37-4.23l1.79.76c.28.12.37.3.37.39,0,.25-.58.34-.78.37-.32.67-.41.8-1.2,2.14h5.63c.39,0,1.1-.12,1.5-.23l1.08,1.54Z"/><path class="cls-2" d="m222.79,151.46v-1.68h16.65v1.68h-16.65Z"/><path class="cls-2" d="m325.74,92.96c0,5.63-4.58,10.21-10.21,10.21s-10.21-4.55-10.21-10.21,4.62-10.21,10.21-10.21,10.21,4.53,10.21,10.21Zm-19.59,0c0,5.2,4.23,9.38,9.38,9.38s9.38-4.21,9.38-9.38-4.23-9.38-9.38-9.38-9.38,4.14-9.38,9.38Zm16.46,0c0,3.91-3.17,7.08-7.08,7.08s-7.08-3.17-7.08-7.08,3.2-7.08,7.08-7.08,7.08,3.13,7.08,7.08Zm-13.34,0c0,3.45,2.81,6.25,6.25,6.25s6.25-2.81,6.25-6.25-2.83-6.25-6.25-6.25-6.25,2.76-6.25,6.25Z"/><path class="cls-2" d="m340.05,87.51l1.5,1.08c.21.16.3.25.3.37,0,.14-.14.25-.78.23-.94,1.24-1.93,2.58-3.29,4.3,1.79,1.82,2.16,2.32,2.58,2.87,2.12-2.78,3.47-4.67,4.74-6.69l1.66,1.2c.25.18.32.3.32.39,0,.32-.48.3-.97.28-2.92,4.09-4.81,6.35-7.13,8.97,4.39-.35,6.16-.55,7.61-.71-.9-1.15-1.43-1.68-2.46-2.64l1.2-1.08c2.18,1.84,4.09,3.96,5.4,6.48l-1.38,1.01c-.9-1.36-1.03-1.56-1.61-2.39-6.76.83-10.85,1.22-14.85,1.59-.14.28-.3.58-.55.58-.21,0-.28-.28-.3-.44l-.34-2.09c.83.05,1.63.07,4.97-.12.44-.41.99-.92,2.62-2.94-1.33-1.61-3.13-3.56-5.61-5.56l1.2-1.31c.32.25.51.41,1.84,1.56.21-.28,2.12-2.83,3.01-4.92h-9.22v-1.56h9.38v-3.59l1.98.18c.25.02.48.07.48.25s-.25.32-.53.44v2.71h9.45v1.56h-11.2Z"/><path class="cls-2" d="m358.22,103.4h-1.61v-20.1h8.21v7.08h-6.6v13.01Zm5.04-17.15v-1.56h-4.97v1.56h4.97Zm0,2.88v-1.61h-4.97v1.61h4.97Zm4.09,8.74c1.15,1.54,2.92,2.44,4.74,3.04l-.94,1.31c-1.36-.58-2.9-1.22-4.83-3.45-1.08,2-2.83,3.13-4.64,3.82l-1.31-1.2c1.54-.46,3.7-1.43,4.76-3.52h-4.83v-1.31h5.17c.07-.69.07-.99.07-1.45v-.46h-4.28v-1.26h2.12c-.18-.46-.46-.87-1.08-1.56l1.15-.78c.51.46.97.94,1.5,1.86l-.71.48h3.93l-.6-.55c.67-.71,1.01-1.26,1.38-1.84l1.13.71c.16.09.28.21.28.32,0,.21-.44.25-.55.28-.16.23-.39.55-.85,1.08h2.09v1.26h-3.93v.53c0,.64-.05.94-.09,1.38h4.99v1.31h-4.64Zm4.46,3.75c.46.05,1.31.18,1.63.18.64,0,.64-.37.64-1.03v-10.37h-6.69v-7.08h8.25v17.45c0,1.7,0,2.74-2.99,2.58l-.85-1.72Zm2.28-16.92h-5.08v1.56h5.08v-1.56Zm0,2.83h-5.08v1.61h5.08v-1.61Z"/><path class="cls-2" d="m386.07,90.43c1.4,1.29,3.56,3.36,3.56,6.46,0,3.63-2.9,3.59-4.85,3.56l-.41-1.82c.51.02,1.15.07,1.68.07.64,0,1.98,0,1.98-1.84,0-2.69-2.55-5.04-3.91-6.25,1.77-2.76,2.6-4.32,3.43-5.89h-4.07v18.63h-1.56v-20.05h7.17l.76.85c-1.61,2.92-2.76,4.71-3.77,6.28Zm8.76-2.39c0,.62-.02,1.96-.05,2.62h5.84c.05,3.84-.23,8.37-.76,10.14-.62,2.12-1.73,2.21-4.02,2.21-.55,0-.94-.02-1.43-.07l-.53-1.79c1.33.18,2.02.25,2.53.25,1.15,0,1.72-.3,2.05-2.58.3-2.18.41-4.39.46-6.6h-4.25c-.32,3.4-1.08,7.27-4.74,11.2l-1.38-1.2c1.06-1.04,2.85-2.78,3.82-6.14.74-2.53.76-5.17.8-8.05h-3.91v-1.56h5.4v-3.82l1.77.07c.18,0,.32.07.32.18,0,.21-.21.34-.41.48v3.08h5.52v1.56h-7.04Z"/><path class="cls-2" d="m413.95,84.48c-.69,1.29-1.22,2-1.95,2.85,1.1,2.32,2.23,4.69,2.23,9.04,0,.18,0,4.76-1.06,6.07-.6.71-1.75.74-2.53.74-.37,0-1.08-.02-2.12-.09l-.12-1.91c1.24.25,1.68.32,2.3.32,1.03,0,1.33-.51,1.59-1.61.3-1.24.3-2.53.3-3.82,0-1.4-.07-1.93-.23-3.1-1.2,1.79-2.44,3.52-4.78,5.82l-1.33-1.33c2.23-1.84,3.66-3.43,5.45-6.88-.46-1.15-.76-1.63-.94-1.98-1.31,1.26-2.25,1.91-3.17,2.51l-1.15-1.2c1.91-1.22,2.62-1.84,3.54-2.69-.85-1.26-1.47-1.98-2.23-2.69l1.15-1.2c1.08,1.1,1.56,1.68,2.28,2.62.53-.64,1.01-1.31,1.79-2.92l1.43.85c.09.07.23.16.23.3,0,.3-.41.3-.67.3Zm10.03,17.89h-6.16c-1.13,0-1.86-.46-1.86-1.86v-16.69h9.77v9.91c0,1.93-.8,2.25-4.51,2.12l-.41-1.86c.99.14,1.45.21,2.02.21.64,0,1.22-.16,1.22-1.03v-7.8h-6.48v14.33c0,.53.05,1.01,1.15,1.01h5.22c1.06,0,1.36-.21,1.72-2.99l1.61.94c-.83,3.52-1.31,3.73-3.29,3.73Z"/><path class="cls-2" d="m446.81,89.24c.16,0,.67-.48.78-.6l1.56,1.56c-.48.37-.6.46-.71.67-2.09,3.77-2.94,4.78-3.96,5.86l-1.49-.83c.76-.78,2.37-2.58,3.52-5.04l-7.29.64v5.89c0,1.91.78,2.14,3.36,2.14s3.15-.07,5.68-.46l.05,1.79c-1.61.14-4.21.3-6.55.3-3.61,0-4.28-1.22-4.28-2.76v-6.71l-5.45.55-.12-1.56,5.57-.53v-5.82l1.7.14c.14.02.64.07.64.32,0,.09-.07.14-.6.51v4.67l7.59-.74Z"/><path class="cls-2" d="m470.71,91.88c-2.58,2.58-5.38,5.38-15.08,8.88-.02.05-.28.6-.41.6-.18,0-.3-.28-.44-.58l-.78-1.89c2.28-.41,4.78-.85,9.01-3.26,4-2.25,5.61-4,6.92-5.43l.78,1.68Zm-12.1-1.91c-1.13-1.43-2.44-2.69-3.79-3.91l1.33-1.31c.71.6,2.67,2.32,4,4.02l-1.54,1.2Z"/><path class="cls-2" d="m493.36,89.12v1.63h-4.6c-.11,2.64-.23,4.78-1.29,7.08-1.24,2.76-2.85,3.59-4.9,4.53l-1.61-1.31c2.16-.76,3.7-1.43,4.94-3.98.94-2,1.06-3.93,1.17-6.32h-5.11v5.61h-1.72v-5.61h-5.04v-1.63h5.04v-4.78l1.86.21c.16.02.41.07.41.25,0,.12-.05.16-.55.41v3.91h5.04c0-1.96-.07-3.91-.12-5.2l1.7.14c.3.02.64.05.64.3,0,.23-.25.34-.48.48v4.28h4.6Z"/><path class="cls-2" d="m498.5,94.34v-1.68h16.65v1.68h-16.65Z"/><path class="cls-2" d="m525.25,92.96c0,1.15-.94,2.07-2.07,2.07s-2.05-.94-2.05-2.07.92-2.07,2.05-2.07,2.07.9,2.07,2.07Z"/><path class="cls-2" d="m334.48,129.03c-1.1,2.05-1.7,2.94-2.35,3.77l-1.43-.9c1.68-2.02,2.37-3.61,2.62-4.25l1.54.74c.18.09.28.21.28.32,0,.09,0,.21-.67.32Zm14.51-9.22v-3.91h-5.54v2.28c0,.51.18.67.67.67h1.7c.9,0,1.15-.21,1.45-1.56l1.38.71c-.34,1.56-.71,2.23-2.28,2.23h-2.85c-1.04,0-1.61-.62-1.61-1.31v-3.01h-9.13v4.25h-1.68v-5.75h8.83v-1.98l1.75.14c.12,0,.6.05.6.3,0,.16-.41.32-.62.41v1.13h8.95v5.4h-1.61Zm-1.1,6.51c-.55-.58-.94-.94-1.98-1.91-2.09.23-11.45.94-13.36,1.1-.12.41-.12.46-.28.46-.23,0-.3-.23-.34-.41l-.44-1.68c2.14-.02,3.15-.02,4.42-.14,1.54-1.75,2.48-3.2,3.5-4.9l1.61.97c.07.05.3.18.3.37,0,.12,0,.23-.94.23-1.68,2.23-2.16,2.78-2.53,3.22.67-.02,3.63-.21,4.23-.25,1.52-.09,1.89-.12,2.46-.16-.48-.41-.71-.6-1.24-.97l.94-1.13c1.15.74,3.04,2.05,4.81,4.07l-1.15,1.13Zm-9.31-8.67c-1.82,2.39-3.82,3.84-4.81,4.55l-1.08-1.01c1.93-1.36,3.68-2.97,4.9-4.99l1.31.81s.28.18.28.37c0,.23-.32.25-.6.28Zm5.31,15.11h-5.45c-1.38,0-1.86-.6-1.86-1.56v-4.85l1.66.18c.12.02.44.07.44.25,0,.14-.05.18-.48.48v2.92c0,.8.51,1.01,1.15,1.01h3.7c1.33,0,1.47-.55,1.93-2.69l1.5.76c-.48,2.21-.76,3.5-2.58,3.5Zm-1.49-3.5c-.99-1.08-1.52-1.61-2.39-2.44l1.01-1.15c1.04.8,1.75,1.45,2.51,2.39l-1.13,1.2Zm7.47,3.24c-.96-1.52-1.77-2.69-3.1-4.14l1.24-.9c1.15,1.22,2.44,2.81,3.24,4.07l-1.38.97Z"/><path class="cls-2" d="m360.77,120.43c1.4,1.29,3.56,3.36,3.56,6.46,0,3.63-2.9,3.59-4.85,3.56l-.41-1.82c.51.02,1.15.07,1.68.07.64,0,1.98,0,1.98-1.84,0-2.69-2.55-5.04-3.91-6.25,1.77-2.76,2.6-4.32,3.43-5.89h-4.07v18.63h-1.56v-20.05h7.17l.76.85c-1.61,2.92-2.76,4.71-3.77,6.28Zm8.76-2.39c0,.62-.02,1.96-.05,2.62h5.84c.05,3.84-.23,8.37-.76,10.14-.62,2.12-1.72,2.21-4.02,2.21-.55,0-.94-.02-1.43-.07l-.53-1.79c1.33.18,2.02.25,2.53.25,1.15,0,1.72-.3,2.05-2.58.3-2.18.41-4.39.46-6.6h-4.25c-.32,3.4-1.08,7.27-4.74,11.2l-1.38-1.2c1.06-1.04,2.85-2.78,3.82-6.14.74-2.53.76-5.17.81-8.05h-3.91v-1.56h5.4v-3.82l1.77.07c.18,0,.32.07.32.18,0,.21-.21.34-.41.48v3.08h5.52v1.56h-7.04Z"/><path class="cls-2" d="m388.65,114.48c-.69,1.29-1.22,2-1.96,2.85,1.1,2.32,2.23,4.69,2.23,9.04,0,.18,0,4.76-1.06,6.07-.6.71-1.75.74-2.53.74-.37,0-1.08-.02-2.12-.09l-.12-1.91c1.24.25,1.68.32,2.3.32,1.03,0,1.33-.51,1.59-1.61.3-1.24.3-2.53.3-3.82,0-1.4-.07-1.93-.23-3.1-1.2,1.79-2.44,3.52-4.78,5.82l-1.33-1.33c2.23-1.84,3.66-3.43,5.45-6.88-.46-1.15-.76-1.63-.94-1.98-1.31,1.26-2.25,1.91-3.17,2.51l-1.15-1.2c1.91-1.22,2.62-1.84,3.54-2.69-.85-1.26-1.47-1.98-2.23-2.69l1.15-1.2c1.08,1.1,1.56,1.68,2.28,2.62.53-.64,1.01-1.31,1.79-2.92l1.43.85c.09.07.23.16.23.3,0,.3-.41.3-.67.3Zm10.03,17.89h-6.16c-1.13,0-1.86-.46-1.86-1.86v-16.69h9.77v9.91c0,1.93-.8,2.25-4.51,2.12l-.41-1.86c.99.14,1.45.21,2.02.21.64,0,1.22-.16,1.22-1.03v-7.8h-6.49v14.33c0,.53.05,1.01,1.15,1.01h5.22c1.06,0,1.36-.21,1.72-2.99l1.61.94c-.83,3.52-1.31,3.73-3.29,3.73Z"/><path class="cls-2" d="m421.51,119.24c.16,0,.67-.48.78-.6l1.56,1.56c-.48.37-.6.46-.71.67-2.09,3.77-2.94,4.78-3.96,5.86l-1.5-.83c.76-.78,2.37-2.58,3.52-5.04l-7.29.64v5.89c0,1.91.78,2.14,3.36,2.14s3.15-.07,5.68-.46l.05,1.79c-1.61.14-4.21.3-6.55.3-3.61,0-4.28-1.22-4.28-2.76v-6.71l-5.45.55-.12-1.56,5.57-.53v-5.82l1.7.14c.14.02.64.07.64.32,0,.09-.07.14-.6.51v4.67l7.59-.74Z"/><path class="cls-2" d="m445.41,121.88c-2.58,2.58-5.38,5.38-15.08,8.88-.02.05-.28.6-.41.6-.18,0-.3-.28-.44-.58l-.78-1.89c2.28-.41,4.78-.85,9.01-3.26,4-2.25,5.61-4,6.92-5.43l.78,1.68Zm-12.1-1.91c-1.13-1.43-2.44-2.69-3.79-3.91l1.33-1.31c.71.6,2.67,2.32,4,4.02l-1.54,1.2Z"/><path class="cls-2" d="m468.06,119.12v1.63h-4.6c-.12,2.64-.23,4.78-1.29,7.08-1.24,2.76-2.85,3.59-4.9,4.53l-1.61-1.31c2.16-.76,3.7-1.43,4.94-3.98.94-2,1.06-3.93,1.17-6.32h-5.11v5.61h-1.72v-5.61h-5.04v-1.63h5.04v-4.78l1.86.21c.16.02.41.07.41.25,0,.12-.05.16-.55.41v3.91h5.04c0-1.96-.07-3.91-.12-5.2l1.7.14c.3.02.64.05.64.3,0,.23-.25.34-.48.48v4.28h4.6Z"/><path class="cls-2" d="m473.2,124.34v-1.68h16.65v1.68h-16.65Z"/><path class="cls-2" d="m325.74,158.81c0,5.63-4.58,10.21-10.21,10.21s-10.21-4.55-10.21-10.21,4.62-10.21,10.21-10.21,10.21,4.53,10.21,10.21Zm-19.59,0c0,5.2,4.23,9.38,9.38,9.38s9.38-4.21,9.38-9.38-4.23-9.38-9.38-9.38-9.38,4.14-9.38,9.38Zm16.46,0c0,3.91-3.17,7.08-7.08,7.08s-7.08-3.17-7.08-7.08,3.2-7.08,7.08-7.08,7.08,3.13,7.08,7.08Zm-13.34,0c0,3.45,2.81,6.25,6.25,6.25s6.25-2.81,6.25-6.25-2.83-6.25-6.25-6.25-6.25,2.76-6.25,6.25Z"/><path class="cls-2" d="m340.05,153.36l1.5,1.08c.21.16.3.25.3.37,0,.14-.14.25-.78.23-.94,1.24-1.93,2.58-3.29,4.3,1.79,1.82,2.16,2.32,2.58,2.87,2.12-2.78,3.47-4.67,4.74-6.69l1.66,1.2c.25.18.32.3.32.39,0,.32-.48.3-.97.28-2.92,4.09-4.81,6.35-7.13,8.97,4.39-.35,6.16-.55,7.61-.71-.9-1.15-1.43-1.68-2.46-2.64l1.2-1.08c2.18,1.84,4.09,3.96,5.4,6.48l-1.38,1.01c-.9-1.36-1.03-1.56-1.61-2.39-6.76.83-10.85,1.22-14.85,1.59-.14.28-.3.58-.55.58-.21,0-.28-.28-.3-.44l-.34-2.09c.83.05,1.63.07,4.97-.12.44-.41.99-.92,2.62-2.94-1.33-1.61-3.13-3.56-5.61-5.56l1.2-1.31c.32.25.51.41,1.84,1.56.21-.28,2.12-2.83,3.01-4.92h-9.22v-1.56h9.38v-3.59l1.98.18c.25.02.48.07.48.25s-.25.32-.53.44v2.71h9.45v1.56h-11.2Z"/><path class="cls-2" d="m358.22,169.25h-1.61v-20.1h8.21v7.08h-6.6v13.01Zm5.04-17.15v-1.56h-4.97v1.56h4.97Zm0,2.88v-1.61h-4.97v1.61h4.97Zm4.09,8.74c1.15,1.54,2.92,2.44,4.74,3.04l-.94,1.31c-1.36-.58-2.9-1.22-4.83-3.45-1.08,2-2.83,3.13-4.64,3.82l-1.31-1.2c1.54-.46,3.7-1.43,4.76-3.52h-4.83v-1.31h5.17c.07-.69.07-.99.07-1.45v-.46h-4.28v-1.26h2.12c-.18-.46-.46-.87-1.08-1.56l1.15-.78c.51.46.97.94,1.5,1.86l-.71.48h3.93l-.6-.55c.67-.71,1.01-1.26,1.38-1.84l1.13.71c.16.09.28.21.28.32,0,.21-.44.25-.55.28-.16.23-.39.55-.85,1.08h2.09v1.26h-3.93v.53c0,.64-.05.94-.09,1.38h4.99v1.31h-4.64Zm4.46,3.75c.46.05,1.31.18,1.63.18.64,0,.64-.37.64-1.03v-10.37h-6.69v-7.08h8.25v17.45c0,1.7,0,2.74-2.99,2.58l-.85-1.72Zm2.28-16.92h-5.08v1.56h5.08v-1.56Zm0,2.83h-5.08v1.61h5.08v-1.61Z"/><path class="cls-2" d="m381.5,153.55v-1.56h5.93c-.58-1.01-1.08-1.68-1.82-2.46l1.38-1.01c.92.92,1.43,1.61,2.05,2.69l-1.26.78h6.94l-.83-.67c.9-.94,1.45-1.66,2.09-2.81l1.31.85c.14.09.28.18.28.32,0,.16-.05.16-.53.16-.57,1.01-1.03,1.59-1.54,2.14h5.86v1.56h-19.87Zm7.5,15.38h-1.13l-.83-1.79c1.33.18,1.4.21,1.56.21.41,0,.41-.28.41-.6v-2.3h-4.37v4.6h-1.63v-13.71h7.54v12.09c0,1.1-.23,1.5-1.56,1.5Zm.02-12.1h-4.37v2.32h4.37v-2.32Zm0,3.77h-4.37v2.39h4.37v-2.39Zm6.05-4.07v8.85h-1.61v-9.64l1.5.14c.09.02.6.07.6.28,0,.16-.18.23-.48.37Zm4.55-.83v11.41c0,1.54-.44,1.75-1.63,1.75h-1.84l-.6-1.84c.37.05,1.77.18,1.93.18.32,0,.46-.09.46-.74v-11.47l1.63.12c.14.02.53.05.53.23,0,.14-.25.25-.48.37Z"/><path class="cls-2" d="m421.51,155.09c.16,0,.67-.48.78-.6l1.56,1.56c-.48.37-.6.46-.71.67-2.09,3.77-2.94,4.78-3.96,5.86l-1.5-.83c.76-.78,2.37-2.58,3.52-5.04l-7.29.64v5.89c0,1.91.78,2.14,3.36,2.14s3.15-.07,5.68-.46l.05,1.79c-1.61.14-4.21.3-6.55.3-3.61,0-4.28-1.22-4.28-2.76v-6.71l-5.45.55-.12-1.56,5.57-.53v-5.82l1.7.14c.14.02.64.07.64.32,0,.09-.07.14-.6.51v4.67l7.59-.74Z"/><path class="cls-2" d="m442.83,152.58l.37,1.56-5.52,1.01.9,3.54,7.01-1.2.41,1.61-6.99,1.26,2.02,7.59-1.72.37-2.05-7.73-8.07,1.45-.3-1.63,7.96-1.38-.97-3.59-5.93,1.01-.3-1.54,5.82-1.04-1.13-4.3,1.98-.23c.07,0,.53-.07.53.21,0,.12-.05.18-.44.64l.85,3.38,5.56-1.01Z"/><path class="cls-2" d="m466.02,166.31v1.36h-15.29v-1.36h8.92l1.08-7.2h-6.99v-1.38h8.67l-1.24,8.58h4.85Z"/><path class="cls-2" d="m473.7,150.49c.18,0,.46.07.46.23,0,.11-.02.16-.41.48v10h-1.86v-10.9l1.82.18Zm.9,16.46c2.64-1.01,3.66-1.7,4.58-2.78,1.33-1.56,2.3-3.56,2.3-7.17,0-.69-.07-3.77-.09-4.39-.02-.71-.02-.83-.09-2.64l1.86.09c.09.02.48.05.48.28,0,.09-.05.14-.37.6.02,6.58.04,8.83-.9,11.5-1.17,3.36-4.21,4.92-6.39,6.02l-1.38-1.49Z"/><path class="cls-2" d="m499.28,158.1c-.16,2.07-.34,4.21-1.82,6.44s-3.29,3.01-4.83,3.68l-1.61-1.45c1.52-.48,3.22-1.01,4.71-3.13,1.47-2.05,1.56-3.96,1.63-5.54h-8.32v-1.68h17.73v1.68h-7.5Zm4.32-6h-11.45v-1.68h11.45v1.68Z"/><path class="cls-2" d="m517.95,159.83c-1.5,1.01-2.83,1.82-5.15,2.88l-1.38-1.2c1.72-.55,3.38-1.1,6.44-3.38,2.67-2,3.79-3.33,4.58-4.28l1.08.99c.18.16.39.34.39.53,0,.12-.07.14-.23.14-.09,0-.46-.02-.55-.05-1.38,1.36-2.28,2.21-3.68,3.24v10.23h-1.49v-9.11Z"/><path class="cls-2" d="m538.13,163.78c0,1.24.23,1.61,2.28,1.61,1.89,0,3.61-.16,5.04-.35v1.91c-1.54.09-2.83.12-5.96.12-1.91,0-3.22-.6-3.22-2.51v-5.56h-7.31v-1.63h7.31v-4.9h-5.08v-1.61h13.59v1.61h-6.65v4.9h8.25v1.63h-8.25v4.78Z"/><path class="cls-2" d="m551.4,163.18h17.54v1.86h-17.54v-1.86Zm2.53-8.74v-1.86h12.74v1.86h-12.74Z"/><path class="cls-2" d="m589.25,154.49c-.41.35-.46.41-.6.6-1.7,3.82-2.02,4.42-3.01,5.89.8.55,1.54,1.13,2.28,1.84l-1.2,1.38c-.99-.97-1.47-1.38-2.09-1.84-.8.99-1.82,2.21-3.68,3.52-2.02,1.45-3.59,1.91-4.99,2.35l-1.2-1.63c1.2-.3,2.62-.67,4.55-1.89,1.93-1.2,2.94-2.37,3.82-3.38-1.22-.78-2.16-1.31-4-2.14l1.08-1.38c2.14,1.04,3.29,1.75,3.93,2.14,1.59-2.46,2.18-4.09,2.58-5.27h-6.76c-2.16,2.94-3.63,4.12-4.67,4.92l-1.56-1.2c1.45-.99,2.83-1.95,4.76-4.64,1.54-2.14,2.05-3.45,2.37-4.23l1.79.76c.28.12.37.3.37.39,0,.25-.57.34-.78.37-.32.67-.41.8-1.2,2.14h5.63c.39,0,1.1-.12,1.5-.23l1.08,1.54Z"/><path class="cls-2" d="m594.36,160.19v-1.68h16.65v1.68h-16.65Z"/><polygon class="cls-1" points="287.03 93.06 260.7 144.55 260.7 41.54 287.03 93.06"/><path class="cls-2" d="m325.74,26.1c0,5.63-4.58,10.21-10.21,10.21s-10.21-4.55-10.21-10.21,4.62-10.21,10.21-10.21,10.21,4.53,10.21,10.21Zm-19.59,0c0,5.2,4.23,9.38,9.38,9.38s9.38-4.21,9.38-9.38-4.23-9.38-9.38-9.38-9.38,4.14-9.38,9.38Zm16.46,0c0,3.91-3.17,7.08-7.08,7.08s-7.08-3.17-7.08-7.08,3.2-7.08,7.08-7.08,7.08,3.13,7.08,7.08Zm-13.34,0c0,3.45,2.81,6.25,6.25,6.25s6.25-2.81,6.25-6.25-2.83-6.25-6.25-6.25-6.25,2.76-6.25,6.25Z"/><path class="cls-2" d="m340.05,20.66l1.5,1.08c.21.16.3.25.3.37,0,.14-.14.25-.78.23-.94,1.24-1.93,2.58-3.29,4.3,1.79,1.82,2.16,2.32,2.58,2.87,2.12-2.78,3.47-4.67,4.74-6.69l1.66,1.2c.25.18.32.3.32.39,0,.32-.48.3-.97.28-2.92,4.09-4.81,6.35-7.13,8.97,4.39-.35,6.16-.55,7.61-.71-.9-1.15-1.43-1.68-2.46-2.64l1.2-1.08c2.18,1.84,4.09,3.96,5.4,6.48l-1.38,1.01c-.9-1.36-1.03-1.56-1.61-2.39-6.76.83-10.85,1.22-14.85,1.59-.14.28-.3.58-.55.58-.21,0-.28-.28-.3-.44l-.34-2.09c.83.05,1.63.07,4.97-.12.44-.41.99-.92,2.62-2.94-1.33-1.61-3.13-3.56-5.61-5.56l1.2-1.31c.32.25.51.41,1.84,1.56.21-.28,2.12-2.83,3.01-4.92h-9.22v-1.56h9.38v-3.59l1.98.18c.25.02.48.07.48.25s-.25.32-.53.44v2.71h9.45v1.56h-11.2Z"/><path class="cls-2" d="m358.22,36.54h-1.61v-20.1h8.21v7.08h-6.6v13.01Zm5.04-17.15v-1.56h-4.97v1.56h4.97Zm0,2.87v-1.61h-4.97v1.61h4.97Zm4.09,8.74c1.15,1.54,2.92,2.44,4.74,3.04l-.94,1.31c-1.36-.58-2.9-1.22-4.83-3.45-1.08,2-2.83,3.13-4.64,3.82l-1.31-1.2c1.54-.46,3.7-1.43,4.76-3.52h-4.83v-1.31h5.17c.07-.69.07-.99.07-1.45v-.46h-4.28v-1.26h2.12c-.18-.46-.46-.87-1.08-1.56l1.15-.78c.51.46.97.94,1.5,1.86l-.71.48h3.93l-.6-.55c.67-.71,1.01-1.26,1.38-1.84l1.13.71c.16.09.28.21.28.32,0,.21-.44.25-.55.28-.16.23-.39.55-.85,1.08h2.09v1.26h-3.93v.53c0,.64-.05.94-.09,1.38h4.99v1.31h-4.64Zm4.46,3.75c.46.05,1.31.18,1.63.18.64,0,.64-.37.64-1.03v-10.37h-6.69v-7.08h8.25v17.45c0,1.7,0,2.74-2.99,2.58l-.85-1.72Zm2.28-16.92h-5.08v1.56h5.08v-1.56Zm0,2.83h-5.08v1.61h5.08v-1.61Z"/><path class="cls-2" d="m384.69,23.35c3.82,1.7,5.5,2.94,7.36,4.44l-1.15,1.61c-2.6-2.3-4.88-3.56-7.06-4.48v10.23h-1.86v-17.96l1.82.14c.16,0,.6.05.6.3,0,.12-.37.39-.55.53v6.58l.85-1.38Zm5.91-2.09c-.64-.78-1.61-1.72-2.21-2.21l1.08-1.03c.9.69,1.82,1.75,2.21,2.23l-1.08,1.01Zm2.76-1.5c-.6-.8-1.59-1.77-2.21-2.28l1.08-.97c.78.6,1.7,1.54,2.28,2.23l-1.15,1.01Z"/><path class="cls-2" d="m398.42,20.47v-1.61h16.23c.14,0,.53-.16.85-.41l1.31,1.24c-1.77,2.92-3.77,5.73-6.3,8.02l-1.24-1.2c.53-.46,1.22-1.06,2.6-2.69,1.47-1.75,1.84-2.48,2.3-3.36h-15.75Zm1.98,13.18c1.91-1.17,3.5-2.21,4.76-5.47.97-2.58,1.01-4.83,1.06-6.74l1.98.37c.23.05.35.16.35.28,0,.14-.05.18-.53.46-.32,3.33-.58,5.66-2.3,8.62-.99,1.66-1.75,2.41-3.7,3.79l-1.61-1.31Z"/><path class="cls-2" d="m426.74,26.1c0,1.15-.94,2.07-2.07,2.07s-2.05-.94-2.05-2.07.92-2.07,2.05-2.07,2.07.9,2.07,2.07Z"/><path class="cls-2" d="m442.81,25.44c-.14,2.05-.32,4.21-1.77,6.49-1.43,2.28-3.22,3.08-4.74,3.77l-1.63-1.49c1.52-.51,3.22-1.04,4.67-3.17,1.4-2.05,1.5-3.96,1.56-5.59h-8.21v-1.68h17.61v1.68h-7.5Zm4.32-6.05h-11.43v-1.73h11.43v1.73Zm3.77,2.39c-.6-.55-1.66-1.33-2.28-1.72l.85-1.2c.8.58,1.68,1.29,2.21,1.79l-.78,1.13Zm.85-3.33c-.39-.37-1.38-1.22-2.23-1.75l.78-1.2c.87.58,1.86,1.4,2.28,1.79l-.83,1.15Z"/><path class="cls-2" d="m462.41,27.12c-1.5,1.01-2.83,1.82-5.15,2.88l-1.38-1.2c1.72-.55,3.38-1.1,6.44-3.38,2.67-2,3.79-3.33,4.58-4.28l1.08.99c.18.16.39.34.39.53,0,.12-.07.14-.23.14-.09,0-.46-.02-.55-.05-1.38,1.36-2.28,2.21-3.68,3.24v10.23h-1.49v-9.11Z"/><path class="cls-2" d="m489.96,25.02c-2.57,2.58-5.38,5.38-15.08,8.88-.02.05-.28.6-.41.6-.18,0-.3-.28-.44-.58l-.78-1.89c2.28-.41,4.78-.85,9.01-3.26,4-2.25,5.61-4,6.92-5.43l.78,1.68Zm-12.09-1.91c-1.13-1.43-2.44-2.69-3.79-3.91l1.33-1.31c.71.6,2.67,2.32,4,4.02l-1.54,1.2Z"/><path class="cls-2" d="m494.47,20.84v-1.63h12.69c.18,0,.55-.16,1.03-.41l1.72,1.5c-.57.57-.64.62-.78.97-1.77,6.21-3.22,8.53-6.14,10.92-1.4,1.15-2.48,1.77-5.06,2.92l-1.61-1.56c1.91-.67,4.35-1.52,6.78-3.96,2.97-2.97,3.56-5.96,4.12-8.74h-12.76Zm14.67-3.4c0-1.26,1.08-2.23,2.28-2.23s2.23,1.01,2.23,2.23-1.01,2.25-2.23,2.25-2.28-1.01-2.28-2.25Zm3.47,0c0-.71-.55-1.22-1.22-1.22-.62,0-1.24.48-1.24,1.22,0,.67.53,1.24,1.26,1.24.67,0,1.2-.55,1.2-1.24Z"/><path class="cls-2" d="m516.78,32.52c2.32-1.29,4.97-2.92,4.97-10.14,0-1.4-.07-2.76-.12-3.63l1.89.16c.09.02.51.05.51.28,0,.11-.05.16-.48.48.05,4.3-.07,5.61-.44,7.22-.97,4.21-2.83,5.56-4.83,6.99l-1.49-1.36Zm10.42-14.26l1.84.14c.23.02.44.09.44.23s-.07.18-.55.48v11.77c1.06-.58,2.18-1.2,3.89-2.94,1.56-1.56,2.16-2.6,2.64-3.4l1.2,1.38c-.76,1.15-1.61,2.44-3.75,4.32-2.09,1.82-3.47,2.55-4.62,3.17l-1.08-.85v-14.3Z"/><path class="cls-2" d="m554.85,19.87l.37,1.56-5.52,1.01.9,3.54,7.01-1.2.41,1.61-6.99,1.26,2.02,7.59-1.72.37-2.05-7.73-8.07,1.45-.3-1.63,7.96-1.38-.97-3.59-5.93,1.01-.3-1.54,5.82-1.04-1.13-4.3,1.98-.23c.07,0,.53-.07.53.21,0,.12-.05.18-.44.64l.85,3.38,5.56-1.01Z"/><path class="cls-2" d="m562.92,27.48v-1.68h16.65v1.68h-16.65Z"/><path class="cls-2" d="m589.67,26.1c0,1.15-.94,2.07-2.07,2.07s-2.05-.94-2.05-2.07.92-2.07,2.05-2.07,2.07.9,2.07,2.07Z"/><path class="cls-2" d="m345.82,51.92c-.34.34-.39.39-.53.6-1.77,3.86-2.12,4.48-2.99,5.86.55.39,1.29.94,2.21,1.86l-1.15,1.38c-1.08-1.1-1.68-1.54-2.09-1.86-3.4,4-6.03,5.06-8.67,5.86l-1.26-1.61c1.24-.32,2.67-.69,4.58-1.89,1.93-1.22,2.97-2.39,3.86-3.38-.76-.51-2-1.29-4-2.16l1.01-1.38c1.2.58,2.02.99,4,2.16,1.36-2.14,1.96-3.52,2.53-5.27h-6.71c-2.25,2.94-3.54,4-4.74,4.9l-1.54-1.2c1.45-.99,2.85-1.95,4.78-4.64,1.54-2.12,2.07-3.45,2.39-4.21l1.72.74c.16.09.39.21.39.39,0,.21-.09.23-.74.37-.3.55-.76,1.38-1.26,2.14h5.63c.3,0,.9-.07,1.49-.23l1.08,1.56Zm-.6-1.86c-.6-.85-1.26-1.56-2.02-2.28l1.2-.9c.76.71,1.43,1.43,2.02,2.28l-1.2.9Zm2.58-1.08c-.6-.83-1.33-1.63-2.02-2.28l1.2-.9c.58.55,1.33,1.33,2.02,2.28l-1.2.9Z"/><path class="cls-2" d="m352.59,51.14v-1.61h12.58c.18,0,.62-.23,1.01-.48l1.75,1.5c-.12.12-.62.62-.69.76-.05.09-.07.16-.09.25-1.77,6.14-3.2,8.46-6.16,10.88-1.38,1.15-2.46,1.79-5.04,2.97l-1.63-1.63c1.91-.62,4.35-1.45,6.78-3.89,2.97-2.97,3.59-5.96,4.12-8.74h-12.62Zm13.47-2.53c-.55-.92-1.4-1.89-1.68-2.21l1.13-.83c.64.67,1.2,1.38,1.75,2.14l-1.2.9Zm3.29-.71c-.53-.9-1.26-1.75-1.68-2.21l1.15-.85c.78.85,1.56,1.93,1.72,2.16l-1.2.9Z"/><path class="cls-2" d="m373.68,62.52c2.32-1.29,4.97-2.92,4.97-10.14,0-1.4-.07-2.76-.12-3.63l1.89.16c.09.02.51.05.51.28,0,.11-.05.16-.48.48.05,4.3-.07,5.61-.44,7.22-.97,4.21-2.83,5.56-4.83,6.99l-1.49-1.36Zm10.42-14.26l1.84.14c.23.02.44.09.44.23s-.07.18-.55.48v11.77c1.06-.58,2.18-1.2,3.89-2.94,1.56-1.56,2.16-2.6,2.64-3.4l1.2,1.38c-.76,1.15-1.61,2.44-3.75,4.32-2.09,1.82-3.47,2.55-4.62,3.17l-1.08-.85v-14.3Z"/><path class="cls-2" d="m400.22,62.38v1.56h-1.79v-14.74h15.22v14.74h-1.82v-1.56h-11.61Zm11.61-11.54h-11.61v9.93h11.61v-9.93Z"/><path class="cls-2" d="m420.46,54.36c.34.57,1.1,1.86,1.63,3.31l-1.27.6c-.51-1.43-1.17-2.62-1.61-3.31l1.24-.6Zm1.56,10.85c1.95-.71,4.09-1.47,6.16-4.44,1.95-2.78,2.28-5.33,2.53-7.43l1.2.46c.53.16.67.28.67.39,0,.16-.07.18-.53.34-.6,2.28-1.43,4.99-2.83,7.04-1.93,2.83-3.98,3.84-5.89,4.76l-1.31-1.13Zm2.81-11.91c.46.64,1.15,1.91,1.63,3.29l-1.27.53c-.55-1.47-1.29-2.76-1.61-3.29l1.24-.53Z"/><path class="cls-2" d="m451.14,49.76c.34,0,.48-.02.83-.11l1.08,1.31c-.9.74-1.01.97-1.2,1.38-1.89,4.97-3.1,7.13-5.79,9.75-1.56,1.52-2.71,2.23-4.69,3.36l-1.68-1.38c2.02-.99,4.44-2.18,6.97-5.31,2.41-3.01,2.99-5.45,3.45-7.43h-6.94c-1.01,1.38-2.07,2.74-4.55,4.9l-1.49-1.13c1.26-.97,2.64-2.02,4.28-4.23,1.4-1.91,1.82-3.08,2.14-3.98l1.66.58c.44.16.46.39.46.44,0,.21-.3.25-.74.3-.23.51-.46.99-.78,1.56h7.01Z"/><path class="cls-2" d="m472.9,56.1c0,1.15-.94,2.07-2.07,2.07s-2.05-.94-2.05-2.07.92-2.07,2.05-2.07,2.07.9,2.07,2.07Z"/><path class="cls-2" d="m485.71,51c-1.4-.94-2.42-2.55-2.58-2.81-1.52,2.16-3.1,3.84-4,4.67l-1.33-1.08c2.9-2.37,4.12-4.51,5.04-6.3l1.61.9c.09.05.21.16.21.3,0,.18-.14.23-.44.32.25.55.67,1.45,2.58,2.8l-1.08,1.2Zm-5.38,12.42c-.09-.32-.71-2.37-1.5-3.77l1.31-.67c.78,1.33,1.29,2.83,1.54,3.66l-1.36.78Zm17.45-6.94v2.81h-2.44c.34.87.99,2.18,3.7,4.07l-1.13,1.15c-1.47-.97-2.53-2.39-3.13-3.43v5.29h-1.43v-7.08h-1.63v7.13h-1.36v-5.04c-.53.9-1.59,2.42-2.99,3.59l-1.2-1.01c-1.95.8-3.93,1.49-5.91,2.18-.3.71-.35.78-.58.78-.16,0-.18-.14-.23-.28l-.53-2.02c1.1-.18,2.51-.62,3.22-.85v-6.16h-2.87v-1.5h2.87v-2.64h-1.84v-1.49h5.08v1.49h-1.75v2.64h2.46v1.5h-2.46v5.75c.6-.21,2.09-.71,3.13-1.2l-.25,1.5c1.93-1.63,3.01-3.5,3.36-4.37h-1.98v-1.15h2.46v-1.66h-3.24v-1.2h3.24v-1.52h-2.32v-1.24h2.32v-1.86h-3.06v-1.26h3.06c-.67-.99-1.5-2.09-2.09-2.76l1.31-.83c.85.83,1.63,1.98,2.09,2.76l-1.06.83h4.37l-1.27-.83c.92-1.17,1.5-2.32,1.86-3.06l1.49.97c.12.07.21.16.21.3,0,.18-.07.18-.69.25-.8,1.45-.9,1.61-1.43,2.37h3.59v1.26h-3.98v1.86h2.99v2.76h1.29v1.2h-1.29Zm-11.38,3.31c-.25.83-.58,1.93-.76,2.44l-1.36-.18c.21-.74.53-1.82.83-3.36l1.52.32c.35.07.41.28.41.34,0,.16-.41.34-.64.44Zm6.97-9.13h-1.63v1.86h1.63v-1.86Zm0,3.1h-1.63v1.52h1.63v-1.52Zm0,2.71h-1.63v1.66h1.63v-1.66Zm2.97-2.71h-1.54v1.52h1.54v-1.52Zm0,2.71h-1.54v1.68h1.54v-1.68Z"/><path class="cls-2" d="m510.18,62.63c3.77-1.1,4.23-1.29,4.71-1.49v1.61c-3.61,1.26-7.04,2.32-9.61,3.08-.09.39-.16.6-.39.6-.16,0-.25-.16-.3-.25l-.83-1.98c1.4-.25,3.15-.71,4.74-1.15v-5.2h-3.91v-1.56h9.11v1.56h-3.52v4.78Zm6.39-10.3c.55,4.46,1.52,7.31,2.92,9.43.69,1.06,1.91,2.3,2.46,2.3.71,0,1.45-1.63,1.86-2.62l1.33,1.31c-.85,1.66-1.89,3.29-3.17,3.29-2.09,0-6.25-4.44-7.13-13.7h-10.67v-1.56h10.55c-.11-2.25-.11-3.66-.14-4.97l1.86.12c.41.02.53.23.53.34,0,.23-.39.46-.57.58-.02,1.31,0,2.71.04,3.93h7.61v1.56h-7.5Zm3.77-6.3c1.08.85,1.89,1.7,2.83,3.06l-1.38,1.08c-.83-1.26-1.59-2.14-2.58-2.99l1.13-1.15Z"/><path class="cls-2" d="m539.57,55.44c-.14,2.05-.32,4.21-1.77,6.49-1.43,2.28-3.22,3.08-4.74,3.77l-1.63-1.49c1.52-.51,3.22-1.04,4.67-3.17,1.4-2.05,1.5-3.96,1.56-5.59h-8.21v-1.68h17.61v1.68h-7.5Zm4.32-6.05h-11.43v-1.73h11.43v1.73Zm3.77,2.39c-.6-.55-1.66-1.33-2.28-1.72l.85-1.2c.8.58,1.68,1.29,2.21,1.79l-.78,1.13Zm.85-3.33c-.39-.37-1.38-1.22-2.23-1.75l.78-1.2c.87.58,1.86,1.4,2.28,1.79l-.83,1.15Z"/><path class="cls-2" d="m554.2,54.36c.34.57,1.1,1.86,1.63,3.31l-1.26.6c-.51-1.43-1.17-2.62-1.61-3.31l1.24-.6Zm1.56,10.85c1.96-.71,4.09-1.47,6.16-4.44,1.95-2.78,2.28-5.33,2.53-7.43l1.2.46c.53.16.67.28.67.39,0,.16-.07.18-.53.34-.6,2.28-1.43,4.99-2.83,7.04-1.93,2.83-3.98,3.84-5.89,4.76l-1.31-1.13Zm2.81-11.91c.46.64,1.15,1.91,1.63,3.29l-1.26.53c-.55-1.47-1.29-2.76-1.61-3.29l1.24-.53Z"/><path class="cls-2" d="m574.49,53.35c3.82,1.7,5.5,2.94,7.36,4.44l-1.15,1.61c-2.6-2.3-4.88-3.56-7.06-4.48v10.23h-1.86v-17.96l1.82.14c.16,0,.6.05.6.3,0,.12-.37.39-.55.53v6.58l.85-1.38Zm5.91-2.09c-.64-.78-1.61-1.72-2.21-2.21l1.08-1.03c.9.69,1.82,1.75,2.21,2.23l-1.08,1.01Zm2.76-1.5c-.6-.8-1.59-1.77-2.21-2.28l1.08-.97c.78.6,1.7,1.54,2.28,2.23l-1.15,1.01Z"/><path class="cls-2" d="m587.6,61.26c.74-.53,1.49-1.06,2.76-2.55,1.2-1.43,1.42-2,1.68-2.6l1.66.8c.21.09.34.25.34.39,0,.21-.34.23-.76.28-.71,1.06-2.3,3.38-4.12,4.81l-1.56-1.13Zm8.58-7.8h-7.5v-1.68h7.5v-4.53l1.86.23c.34.02.53.09.53.25s-.07.21-.55.53v3.52h6.95v1.68h-6.95v8.62c0,1.4-.02,2.46-1.79,2.76-.6.12-1.7.09-2.35.07l-.71-1.98c.46.05,1.45.18,2.18.18.64,0,.8-.16.83-.97v-8.69Zm5.01,2.35c2.18,1.79,3.66,3.7,4.55,5.15l-1.68.97c-1.4-2.51-3.15-4.19-4.12-5.04l1.24-1.08Zm1.86-5.56c-.23-.28-1.29-1.56-1.98-2.23l1.08-.9c.64.6,1.43,1.47,1.98,2.23l-1.08.9Zm2.76-1.45c-.23-.28-1.33-1.61-1.98-2.21l1.08-.9c.69.58,1.52,1.61,1.98,2.21l-1.08.9Z"/><path class="cls-2" d="m610.16,62.52c2.32-1.29,4.97-2.92,4.97-10.14,0-1.4-.07-2.76-.11-3.63l1.89.16c.09.02.51.05.51.28,0,.11-.05.16-.48.48.05,4.3-.07,5.61-.44,7.22-.97,4.21-2.83,5.56-4.83,6.99l-1.5-1.36Zm10.42-14.26l1.84.14c.23.02.44.09.44.23s-.07.18-.55.48v11.77c1.06-.58,2.18-1.2,3.89-2.94,1.56-1.56,2.16-2.6,2.64-3.4l1.2,1.38c-.76,1.15-1.61,2.44-3.75,4.32-2.09,1.82-3.47,2.55-4.62,3.17l-1.08-.85v-14.3Z"/><path class="cls-2" d="m637.49,53.3c3.91,1.7,5.45,2.78,7.54,4.48l-1.13,1.61c-.69-.6-1.56-1.38-3.15-2.41-1.84-1.22-2.9-1.66-3.93-2.07v10.23h-1.84v-17.96l1.75.09c.11,0,.64.02.64.32,0,.14-.18.25-.55.51v6.51l.67-1.31Z"/><path class="cls-2" d="m656.94,51.16c-.97-.92-1.66-1.75-2.55-3.01-1.22,1.77-2.32,2.97-3.75,4.12l-1.13-1.2c1.13-.92,3.01-2.46,4.37-5.2l1.52.53c.28.09.28.28.28.32,0,.16-.28.28-.41.34.85,1.1,1.68,1.98,2.81,2.99l-1.13,1.1Zm-5.36,12c-.23-1.1-.62-2.37-1.45-3.79l1.38-.64c.67,1.15,1.1,2.3,1.52,3.96l-1.45.48Zm6.78.78c-2.69,1.06-4.46,1.68-6.97,2.46-.09.3-.14.48-.34.48-.14,0-.28-.12-.34-.35l-.53-1.59c1.01-.12,1.77-.3,3.47-.9v-6.58h-3.17v-1.5h3.17v-2.64h-2.12v-1.43h5.45v1.43h-1.79v2.64h2.71v1.5h-2.71v6.05c1.29-.46,2-.71,3.43-1.31l-.25,1.72Zm-.3-4.35c-.23.94-.58,1.93-.9,2.85l-1.38-.48c.67-1.7.92-2.64,1.1-3.4l1.4.51c.09.05.28.11.28.23,0,.16-.18.21-.51.3Zm11.8,6.21c-4.85-.07-7.45-.14-8.92-2.46-.69,1.75-1.26,2.6-1.91,3.36l-1.68-.78c2.58-2.25,2.8-4.6,2.94-9.11l1.59.37c.18.05.44.12.44.28,0,.23-.39.39-.6.48-.02,1.59-.16,2.69-.35,3.91.55,1.1,1.15,1.63,2.14,2.02v-9.34h-4.18v-1.5h10.07v1.5h-4.25v3.43h3.89v1.43h-3.89v4.85c.37.05.83.09,1.59.09,1.06,0,2.58-.18,3.86-.32l-.74,1.79Zm-1.54-13.82v-2.05h-8.09v2.34h-1.56v-3.84h4.67v-2.76l1.75.18c.14.02.41.05.41.25,0,.23-.37.41-.53.51v1.82h4.9v3.54h-1.54Z"/></svg>