<?xml version="1.0" encoding="UTF-8"?><svg id="_レイヤー_16" xmlns="http://www.w3.org/2000/svg" xmlns:xlink="http://www.w3.org/1999/xlink" viewBox="0 0 425.7 52.12"><defs><style>.cls-1{fill:#004da0;}.cls-2{fill:#e50019;}.cls-3{clip-path:url(#clippath);}.cls-4{fill:none;}.cls-5{fill:#363480;}</style><clipPath id="clippath"><rect class="cls-4" x="739.93" y="-291.85" width="430.37" height="276.03"/></clipPath></defs><g class="cls-3"><image width="2089" height="908" transform="translate(-173.33 -404.97) scale(.65)" xlink:href="アートボード 71.png"/></g><path class="cls-2" d="m367.7,22.64h-3.37c1.79-1.92,1.82-3.11-.08-5.26-1.44-1.61-1.58-3.54-.15-5.86h3.53c-1.21,1.83-1.51,4.13-.13,5.57,1.9,1.97,2.58,3.61.21,5.56Zm6.21-5.56c-1.39-1.44-1.07-3.73.12-5.57h-3.53c-1.43,2.33-1.28,4.26.15,5.86,1.92,2.15,1.88,3.34.08,5.26h3.39c2.38-1.95,1.7-3.59-.2-5.56Zm43.67,0c-1.39-1.44-1.08-3.73.14-5.57h-3.55c-1.42,2.33-1.29,4.26.15,5.86,1.9,2.15,1.87,3.34.09,5.26h3.38c2.38-1.95,1.7-3.59-.21-5.56Zm6.4,0c-1.39-1.44-1.06-3.73.12-5.57h-3.54c-1.43,2.33-1.28,4.26.16,5.86,1.9,2.15,1.87,3.34.08,5.26h3.38c2.38-1.95,1.69-3.59-.2-5.56Z"/><path class="cls-5" d="m366.44,41.88h19.12v-16.6h-12.72c.23,1.07.36,2.19.36,3.33,0,.19,0,.35,0,.53h7.96v2.54h-8.26c-.25,1.28-.67,2.54-1.22,3.74h9.63v2.59h-11.16c-1.03,1.44-2.28,2.74-3.72,3.86h0Z"/><path class="cls-5" d="m345.91,36.08c-.69,1.35-1.58,2.59-2.63,3.73h0c2.8,2.08,6.38,3.33,10.29,3.33,8.93,0,16.15-6.51,16.15-14.53,0-1.17-.16-2.3-.43-3.39l-5.05.04c.41,1.05.63,2.18.63,3.35,0,5.61-5.05,10.16-11.3,10.16-2.95,0-5.65-1.02-7.65-2.7h-.01Z"/><path class="cls-5" d="m347.64,26.41c.09.72.14,1.46.14,2.2,0,.67-.04,1.33-.12,1.98h11.06v-4.18h-11.08Z"/><path class="cls-5" d="m344.65,19.05c.92,1.3,1.67,2.71,2.22,4.19h11.85v-4.18h-14.08Z"/><path class="cls-5" d="m344.51,28.61c0,8.02-7.23,14.53-16.14,14.53s-16.15-6.51-16.15-14.53,7.22-14.54,16.15-14.54,16.14,6.51,16.14,14.54m-16.14-9.88c-6.06,0-10.96,4.44-10.96,9.88s4.89,9.88,10.96,9.88,10.96-4.42,10.96-9.88-4.9-9.88-10.96-9.88Z"/><rect class="cls-5" x="388.78" y="33.64" width="13.03" height="4.09"/><path class="cls-5" d="m264.91,25.37c1.5-3.88,5.58-6.65,10.4-6.65s8.87,2.77,10.36,6.65h-20.75m22.84-6.02c-2.95-3.23-7.43-5.29-12.44-5.29-7.72,0-14.15,4.84-15.76,11.31h-10.35c-.16,1.05-.24,2.11-.24,3.17,0,13.63,7.51,21.68,21.36,23.08h.01c1.54.16,5.54.49,8.97.49h110.63c3.43,0,7.43-.33,8.97-.49h.01c6.57-.66,11.74-2.83,15.33-6.39h0c2.7,1.48,4.84,3.96,5.91,6.76h5.39c-1.09-3.66-5.1-8.79-8.56-10.27h0c2.16-3.51,3.26-7.93,3.26-13.18,0-1.06-.08-2.12-.23-3.17h-20.91v4.14h16.31c-.28,10.22-5.34,15.99-14.9,17.61h0c-2.22.39-6.8.89-10.54.89h-110.76c-3.73,0-8.32-.49-10.53-.89h0c-9.57-1.62-14.62-7.39-14.9-17.61h5.38-.01c.5,7.62,7.53,13.62,16.13,13.62,4.96,0,9.43-2.04,12.41-5.24h-.02c2.96,3.25,7.45,5.28,12.47,5.28s9.08-1.87,12.04-4.85h0c-1.09-1.47-1.93-3.07-2.5-4.83h0c-1.87,3.01-5.45,5.02-9.54,5.02s-7.56-1.94-9.46-4.87h-5.98c-1.93,2.9-5.43,4.82-9.42,4.82-5.68,0-10.34-3.89-10.91-8.84h27.01c.03-.32.04-.67.04-1.02,0-1.67-.31-3.26-.86-4.74h0c1.86-3.03,5.45-5.08,9.59-5.08s7.67,2.02,9.54,5.02h0c.56-1.75,1.41-3.37,2.5-4.83h0c-2.96-3-7.25-4.87-12.04-4.87s-9.45,2.03-12.42,5.24h0Z"/><path class="cls-5" d="m366.44,41.88h19.12v-16.6h-12.72c.23,1.07.36,2.19.36,3.33,0,.19,0,.35,0,.53h7.96v2.54h-8.26c-.25,1.28-.67,2.54-1.22,3.74h9.63v2.59h-11.16c-1.03,1.44-2.28,2.74-3.72,3.86h0Z"/><path class="cls-5" d="m345.91,36.08c-.69,1.35-1.58,2.59-2.63,3.73h0c2.8,2.08,6.38,3.33,10.29,3.33,8.93,0,16.15-6.51,16.15-14.53,0-1.17-.16-2.3-.43-3.39l-5.05.04c.41,1.05.63,2.18.63,3.35,0,5.61-5.05,10.16-11.3,10.16-2.95,0-5.65-1.02-7.65-2.7h-.01Z"/><path class="cls-5" d="m347.64,26.41c.09.72.14,1.46.14,2.2,0,.67-.04,1.33-.12,1.98h11.06v-4.18h-11.08Z"/><path class="cls-5" d="m344.65,19.05c.92,1.3,1.67,2.71,2.22,4.19h11.85v-4.18h-14.08Z"/><path class="cls-5" d="m344.51,28.61c0,8.02-7.23,14.53-16.14,14.53s-16.15-6.51-16.15-14.53,7.22-14.54,16.15-14.54,16.14,6.51,16.14,14.54m-16.14-9.88c-6.06,0-10.96,4.44-10.96,9.88s4.89,9.88,10.96,9.88,10.96-4.42,10.96-9.88-4.9-9.88-10.96-9.88Z"/><rect class="cls-5" x="388.78" y="33.64" width="13.03" height="4.09"/><path class="cls-5" d="m264.91,25.37c1.5-3.88,5.58-6.65,10.4-6.65s8.87,2.77,10.36,6.65h-20.75m22.84-6.02c-2.95-3.23-7.43-5.29-12.44-5.29-7.72,0-14.15,4.84-15.76,11.31h-10.35c-.16,1.05-.24,2.11-.24,3.17,0,13.63,7.51,21.68,21.36,23.08h.01c1.54.16,5.54.49,8.97.49h110.63c3.43,0,7.43-.33,8.97-.49h.01c6.57-.66,11.74-2.83,15.33-6.39h0c2.7,1.48,4.84,3.96,5.91,6.76h5.39c-1.09-3.66-5.1-8.79-8.56-10.27h0c2.16-3.51,3.26-7.93,3.26-13.18,0-1.06-.08-2.12-.23-3.17h-20.91v4.14h16.31c-.28,10.22-5.34,15.99-14.9,17.61h0c-2.22.39-6.8.89-10.54.89h-110.76c-3.73,0-8.32-.49-10.53-.89h0c-9.57-1.62-14.62-7.39-14.9-17.61h5.38-.01c.5,7.62,7.53,13.62,16.13,13.62,4.96,0,9.43-2.04,12.41-5.24h-.02c2.96,3.25,7.45,5.28,12.47,5.28s9.08-1.87,12.04-4.85h0c-1.09-1.47-1.93-3.07-2.5-4.83h0c-1.87,3.01-5.45,5.02-9.54,5.02s-7.56-1.94-9.46-4.87h-5.98c-1.93,2.9-5.43,4.82-9.42,4.82-5.68,0-10.34-3.89-10.91-8.84h27.01c.03-.32.04-.67.04-1.02,0-1.67-.31-3.26-.86-4.74h0c1.86-3.03,5.45-5.08,9.59-5.08s7.67,2.02,9.54,5.02h0c.56-1.75,1.41-3.37,2.5-4.83h0c-2.96-3-7.25-4.87-12.04-4.87s-9.45,2.03-12.42,5.24h0Z"/><path class="cls-4" d="m248.98,12.95v38.23h176.58V12.95h-176.58Z"/><path class="cls-1" d="m65.83,0c-4.66,0-8.47,3.43-8.47,7.64v43.53h9.73V8.74h31.57c2.81,0,2.43,2.08,2.43,4.06s.38,3.61-2.43,3.61h-29.33s7.71,9.74,10.47,13.12l18.11,21.58h12.53l-22.44-25.96h15.71c4.69,0,7.13-2.66,7.13-6.86V6.87c0-4.19-2.44-6.87-7.13-6.87h-37.87Z"/><path class="cls-1" d="m195.31,0c-4.67,0-8.48,3.43-8.48,7.64v43.53h9.72V8.74h31.57c2.81,0,2.43,2.08,2.43,4.06s.38,3.61-2.43,3.61h-29.34s7.72,9.74,10.46,13.12l18.13,21.58h12.53l-22.44-25.96h15.73c4.66,0,7.09-2.66,7.09-6.86V6.87c0-4.19-2.44-6.87-7.09-6.87h-37.89Z"/><path class="cls-1" d="m8.47,0C3.82,0,0,3.43,0,7.64v43.53h9.72V8.74h31.59c2.79,0,2.41,2.08,2.41,4.06s.38,3.61-2.41,3.61H11.96l6.92,8.74h27.47c4.65,0,7.08-2.66,7.08-6.86V6.87c0-4.19-2.43-6.87-7.08-6.87H8.47Z"/><rect class="cls-1" x="115.3" y=".07" width="9.72" height="51.11"/><path class="cls-1" d="m137.07,0c-4.67,0-8.5,3.43-8.5,7.64v35.86c0,4.17,3.83,7.61,8.5,7.61h37.23c4.64,0,8.45-3.44,8.45-7.61V7.64c0-4.21-3.81-7.64-8.45-7.64h-37.23Zm33.85,8.74c1.18,0,2.12.87,2.12,1.91v29.82c0,1.06-.94,1.9-2.12,1.9h-30.51c-1.18,0-2.11-.84-2.11-1.9V10.65c0-1.03.93-1.91,2.11-1.91h30.51Z"/></svg>