<?xml version="1.0" encoding="UTF-8"?><svg id="_レイヤー_16" xmlns="http://www.w3.org/2000/svg" viewBox="0 0 679.49 106.89"><defs><style>.cls-1{fill:#fff;}.cls-2{fill:none;stroke:#fff;stroke-width:1.01px;}.cls-3{fill:#877437;}</style></defs><rect class="cls-3" width="679.49" height="106.89"/><path class="cls-1" d="m103.14,70.1v6.19h-2.03v-6.19h-11.99v-1.87h4.49v-7.16h7.5v-4.11h-6.04c-1.12,1.58-1.95,2.54-2.99,3.63l-1.74-1.12c2.14-2.08,3.87-4.25,5.29-7.58.53.24,1.44.45,1.87.83.32.13.45.21.45.4,0,.32-.4.38-.8.43-.19.32-.4.72-.88,1.55h15.19v1.87h-8.33v4.11h7.08v1.87h-7.08v5.29h9.37v1.87h-9.37Zm-2.03-7.16h-5.55v5.29h5.55v-5.29Z"/><path class="cls-1" d="m126.48,52.95v8.41h-8.14v14.93h-1.87v-23.34h10.01Zm-1.87,1.6h-6.27v1.84h6.27v-1.84Zm0,5.23v-1.92h-6.27v1.92h6.27Zm-.43,14.1h-1.82v-10.01h10.31v8.62h-8.49v1.39Zm6.62-8.41h-6.62v1.82h6.62v-1.82Zm0,3.42h-6.62v2h6.62v-2Zm3.12,5.31c.45.03.88.08,1.42.08.99,0,1.36-.19,1.36-.85v-12.07h-8.22v-8.41h10.09v20.21c0,2.51-.21,2.94-3.68,3.04l-.96-2Zm2.78-19.65h-6.41v1.84h6.41v-1.84Zm0,3.31h-6.41v1.92h6.41v-1.92Z"/><rect class="cls-2" x="82.98" y="43.16" width="62.3" height="42.12"/><path class="cls-1" d="m163.77,71.61c-.29,4.75-.63,7.73-2.29,11.86l-4.93-1.32c1.09-3.04,2-6.47,2.41-12.95l4.7.86c.34.06,1.03.23,1.03.57,0,.29-.29.52-.92.97Zm11.86-5.1c-.11-.52-.23-1.26-.46-2.35-2,.52-2.81.57-3.78.75v22.05h-5.84v-21.25c-2.06.23-4.35.46-5.1.57-.4,0-.8.06-1.26.57-.46.46-.63.63-.92.63-.17,0-.46-.23-.51-.52l-1.15-6.64c2.46,0,3.72,0,6.13-.11.57-.69,1.43-1.6,2.23-2.69-2.92-3.26-5.33-5.1-7.96-6.87l3.55-4.81c.92.63,1.43,1.03,1.95,1.49,2.46-3.55,3.78-6.24,5.21-9.62l5.1,2.75c.29.17.4.4.4.51,0,.17-.12.34-.34.46-.75.34-.92.46-1.03.63-2.92,4.41-3.38,5.1-5.9,8.36.97.97,1.6,1.66,2.35,2.63,3.32-4.58,4.87-7.1,6.24-9.45l5.21,3.15c.34.17.4.52.4.63,0,.52-.57.63-.63.63-.92.06-.97.17-1.78,1.2-2.92,3.72-6.01,7.33-9.22,10.77,1.83-.11,3.04-.23,5.5-.52-.29-1.03-.57-2.23-.97-3.32l5.16-1.2c1.2,3.38,2.06,6.59,2.63,10.08l-5.21,1.49Zm.46,13.86c-1.2-4.29-1.78-7.22-2.23-11l4.64-.97c.69,5.04,1.72,8.65,2.41,10.71l-4.81,1.26Zm26.64.97c-1.6,4.58-4.7,5.33-8.42,5.33h-2.46l-3.15-6.7c1.2.12,3.04.34,5.1.34,1.83,0,2.98-.46,4.07-4.07,1.15-3.78,2.18-11.4,2.18-20.16v-3.89h-13c-1.66,2.86-2.69,4.47-4.3,6.24l-4.47-3.61c2.58-3.32,5.33-7.33,8.48-16.78l6.07,2c.29.12.57.29.57.57s-.17.46-.4.57c-.86.4-.92.46-1.2,1.2-.69,1.83-.8,2.23-1.49,3.61h15.7v10.71c0,8.13-1.15,18.67-3.26,24.63Zm-13.58-9.62c-1.66-5.5-3.21-8.76-4.47-11.29l5.16-2.06c1.43,2.81,2.92,6.19,4.47,11.63l-5.16,1.72Z"/><path class="cls-1" d="m240.58,58.79c-4.91,12.22-5.68,20.74-6.46,28.23h-11.96c.43-5.77.95-12.74,5.94-25.82,5.85-15.49,11.53-21,17.99-27.2l-3.87.43h-30.81v-10.24h45.96v10.24c-5.25,5.17-11.62,11.36-16.79,24.36Z"/><path class="cls-1" d="m275.27,70.14v11.19c0,1.63-.09,11.02-11.62,12.22v-5.77c5.85-.26,6.2-3.96,6.37-5.77h-6.37v-11.88h11.62Z"/><path class="cls-1" d="m282.58,87.02c1.55-11.19,5.42-17.9,19.62-28.32,9.21-6.71,11.96-10.16,11.96-15.67,0-5.94-4.13-10.42-9.81-10.42-8.69,0-8.95,9.04-9.04,13.69h-10.93c.17-5.59.86-23.24,20.31-23.24,12.91,0,21.26,8.95,21.26,19.97,0,10.07-7.14,15.75-15.32,21.43-8.44,5.85-10.59,8.26-13.26,13.51h29.09v9.04h-43.9Z"/><path class="cls-1" d="m352.39,88.22c-19.97,0-21.86-23.41-21.86-31.5,0-10.33,1.81-33.66,21.86-33.66,7.92,0,13.17,3.87,16.53,9.21,4.3,6.89,5.34,15.23,5.34,23.33s-1.29,32.62-21.86,32.62Zm-.17-55.86c-5.77,0-9.9,4.22-9.9,23.24-.09,19.88,4.48,23.33,10.07,23.33,6.28,0,9.98-4.82,9.98-23.33,0-19.88-4.48-23.24-10.16-23.24Z"/><path class="cls-1" d="m400.24,88.22c-19.97,0-21.86-23.41-21.86-31.5,0-10.33,1.81-33.66,21.86-33.66,7.92,0,13.17,3.87,16.53,9.21,4.3,6.89,5.34,15.23,5.34,23.33s-1.29,32.62-21.86,32.62Zm-.17-55.86c-5.77,0-9.9,4.22-9.9,23.24-.09,19.88,4.48,23.33,10.07,23.33,6.28,0,9.98-4.82,9.98-23.33,0-19.88-4.48-23.24-10.16-23.24Z"/><path class="cls-1" d="m463.8,86.79l-2.92-6.76c.92.17,1.89.34,4.81.34,1.89,0,2.46-.23,2.46-1.89v-11.86h-30.76v19.76h-6.42v-46.05h43.65v39.47c0,5.96-2.58,6.93-10.83,6.99Zm-14.66-40.27h-11.74v13.92h11.74v-13.92Zm19.02,0h-11.86v13.92h11.86v-13.92Z"/><path class="cls-1" d="m503.96,85.99c-.69-1.55-1.43-2.81-2.29-4.3-2.18.74-6.76,2.29-12.95,3.55-1.15.23-1.2.23-1.55.75-.4.57-.57.75-.86.75s-.52-.17-.63-.52l-1.55-6.3c1.6-.06,2.81-.23,3.55-.29v-27.09h19.82v19.76h-5.5c3.49,4.35,5.27,7.62,6.82,10.77l-4.87,2.92Zm-1.32-39.18c.57,1.43.8,2.58.92,3.67l-6.13.57c-.23-1.89-.63-3.09-1.03-4.24h-3.44c-1.09,1.66-1.95,2.81-3.55,4.7l-4.87-2.29c2.98-3.32,5.27-7.22,6.99-11.34l5.44,1.26c.23.06.57.17.57.52,0,.29-.46.52-.92.74-.52.23-.57.34-.97,1.32h13.4v5.1h-6.42Zm-.86,10.37h-8.19v3.09h8.19v-3.09Zm0,7.39h-8.19v3.09h8.19v-3.09Zm-8.19,7.73v6.47c2.52-.46,4.07-.8,5.61-1.15-.4-.69-.8-1.37-1.95-2.81l3.09-2.52h-6.76Zm32.25-25.49c.51.97.8,1.78,1.26,3.61l-5.56,1.2c-.4-1.2-.92-2.63-2.06-4.81h-2.75c-2.18,3.04-3.15,4.07-4.12,5.1l-4.87-2.98c3.44-3.72,5.5-7.16,7.33-11.05l6.3.97c.17,0,.52.29.52.57,0,.34-.46.63-1.09,1.03-.23.17-.29.29-.8,1.26h14.61v5.1h-8.76Zm.23,35.74h-2.86l-2.75-6.13c.52.06,2.75.17,3.49.17.63,0,1.6,0,1.6-1.78v-17.01h-8.13v29.21h-5.96v-34.48h20.45v24.29c0,3.89-1.32,5.73-5.84,5.73Z"/><path class="cls-1" d="m549.32,71.61c-.29,4.75-.63,7.73-2.29,11.86l-4.93-1.32c1.09-3.04,2-6.47,2.41-12.95l4.7.86c.34.06,1.03.23,1.03.57,0,.29-.29.52-.92.97Zm11.86-5.1c-.11-.52-.23-1.26-.46-2.35-2,.52-2.81.57-3.78.75v22.05h-5.84v-21.25c-2.06.23-4.35.46-5.1.57-.4,0-.8.06-1.26.57-.46.46-.63.63-.92.63-.17,0-.46-.23-.51-.52l-1.15-6.64c2.46,0,3.72,0,6.13-.11.57-.69,1.43-1.6,2.23-2.69-2.92-3.26-5.33-5.1-7.96-6.87l3.55-4.81c.92.63,1.43,1.03,1.95,1.49,2.46-3.55,3.78-6.24,5.21-9.62l5.1,2.75c.29.17.4.4.4.51,0,.17-.12.34-.34.46-.75.34-.92.46-1.03.63-2.92,4.41-3.38,5.1-5.9,8.36.97.97,1.6,1.66,2.35,2.63,3.32-4.58,4.87-7.1,6.24-9.45l5.21,3.15c.34.17.4.52.4.63,0,.52-.57.63-.63.63-.92.06-.97.17-1.78,1.2-2.92,3.72-6.01,7.33-9.22,10.77,1.83-.11,3.04-.23,5.5-.52-.29-1.03-.57-2.23-.97-3.32l5.16-1.2c1.2,3.38,2.06,6.59,2.63,10.08l-5.21,1.49Zm.46,13.86c-1.2-4.29-1.78-7.22-2.23-11l4.64-.97c.69,5.04,1.72,8.65,2.41,10.71l-4.81,1.26Zm26.64.97c-1.6,4.58-4.7,5.33-8.42,5.33h-2.46l-3.15-6.7c1.2.12,3.04.34,5.1.34,1.83,0,2.98-.46,4.07-4.07,1.15-3.78,2.18-11.4,2.18-20.16v-3.89h-13c-1.66,2.86-2.69,4.47-4.3,6.24l-4.47-3.61c2.58-3.32,5.33-7.33,8.48-16.78l6.07,2c.29.12.57.29.57.57s-.17.46-.4.57c-.86.4-.92.46-1.2,1.2-.69,1.83-.8,2.23-1.49,3.61h15.7v10.71c0,8.13-1.15,18.67-3.26,24.63Zm-13.58-9.62c-1.66-5.5-3.21-8.76-4.47-11.29l5.16-2.06c1.43,2.81,2.92,6.19,4.47,11.63l-5.16,1.72Z"/></svg>