<?xml version="1.0" encoding="UTF-8"?><svg id="_レイヤー_16" xmlns="http://www.w3.org/2000/svg" viewBox="0 0 889.96 56.83"><defs><style>.cls-1{fill:#fff;}.cls-2{fill:none;stroke:#fff;stroke-width:.54px;}.cls-3{fill:#877437;}</style></defs><rect class="cls-3" width="889.96" height="56.83"/><path class="cls-1" d="m317.46,36.9v3.34h-1.09v-3.34h-6.47v-1.01h2.42v-3.86h4.05v-2.22h-3.26c-.6.85-1.05,1.37-1.61,1.96l-.94-.61c1.15-1.12,2.09-2.29,2.85-4.09.29.13.78.25,1.01.45.17.07.24.12.24.22,0,.17-.22.2-.43.23-.1.17-.22.39-.48.83h8.2v1.01h-4.49v2.22h3.82v1.01h-3.82v2.85h5.06v1.01h-5.06Zm-1.09-3.86h-3v2.85h3v-2.85Z"/><path class="cls-1" d="m330.06,27.65v4.54h-4.39v8.05h-1.01v-12.59h5.4Zm-1.01.86h-3.39v.99h3.39v-.99Zm0,2.82v-1.04h-3.39v1.04h3.39Zm-.23,7.61h-.98v-5.4h5.56v4.65h-4.58v.75Zm3.57-4.54h-3.57v.98h3.57v-.98Zm0,1.84h-3.57v1.08h3.57v-1.08Zm1.69,2.87c.25.01.48.04.76.04.53,0,.73-.1.73-.46v-6.51h-4.44v-4.54h5.45v10.9c0,1.35-.12,1.58-1.99,1.64l-.52-1.08Zm1.5-10.6h-3.46v.99h3.46v-.99Zm0,1.79h-3.46v1.04h3.46v-1.04Z"/><rect class="cls-2" x="306.59" y="22.36" width="33.61" height="22.73"/><path class="cls-1" d="m350.18,37.71c-.15,2.56-.34,4.17-1.24,6.4l-2.66-.71c.59-1.64,1.08-3.49,1.3-6.98l2.53.46c.19.03.56.12.56.31,0,.15-.15.28-.49.53Zm6.4-2.75c-.06-.28-.12-.68-.25-1.27-1.08.28-1.51.31-2.04.4v11.9h-3.15v-11.46c-1.11.12-2.35.25-2.75.31-.22,0-.43.03-.68.31-.25.25-.34.34-.49.34-.09,0-.25-.12-.28-.28l-.62-3.58c1.33,0,2.01,0,3.31-.06.31-.37.77-.87,1.21-1.45-1.58-1.76-2.87-2.75-4.29-3.71l1.92-2.6c.49.34.77.56,1.05.8,1.33-1.92,2.04-3.37,2.81-5.19l2.75,1.48c.15.09.22.22.22.28,0,.09-.06.19-.19.25-.4.19-.49.25-.56.34-1.58,2.38-1.82,2.75-3.18,4.51.53.53.87.9,1.27,1.42,1.79-2.47,2.63-3.83,3.37-5.1l2.81,1.7c.19.09.22.28.22.34,0,.28-.31.34-.34.34-.49.03-.53.09-.96.65-1.58,2.01-3.24,3.96-4.97,5.81.99-.06,1.64-.12,2.97-.28-.15-.56-.31-1.21-.53-1.79l2.78-.65c.65,1.82,1.11,3.55,1.42,5.44l-2.81.8Zm.25,7.48c-.65-2.32-.96-3.89-1.21-5.93l2.5-.53c.37,2.72.93,4.67,1.3,5.78l-2.6.68Zm14.37.53c-.87,2.47-2.53,2.87-4.54,2.87h-1.33l-1.7-3.62c.65.06,1.64.19,2.75.19.99,0,1.61-.25,2.19-2.19.62-2.04,1.17-6.15,1.17-10.88v-2.1h-7.01c-.9,1.54-1.45,2.41-2.32,3.37l-2.41-1.95c1.39-1.79,2.87-3.96,4.57-9.05l3.28,1.08c.15.06.31.15.31.31s-.09.25-.22.31c-.46.22-.49.25-.65.65-.37.99-.43,1.21-.8,1.95h8.47v5.78c0,4.39-.62,10.07-1.76,13.29Zm-7.32-5.19c-.9-2.97-1.73-4.73-2.41-6.09l2.78-1.11c.77,1.51,1.58,3.34,2.41,6.27l-2.78.93Z"/><path class="cls-1" d="m391.62,30.8c-2.65,6.59-3.06,11.19-3.48,15.23h-6.45c.23-3.11.51-6.87,3.2-13.93,3.16-8.36,6.22-11.33,9.71-14.67l-2.09.23h-16.62v-5.53h24.79v5.53c-2.83,2.79-6.27,6.13-9.05,13.14Z"/><path class="cls-1" d="m410.33,36.92v6.04c0,.88-.05,5.94-6.27,6.59v-3.11c3.16-.14,3.34-2.14,3.44-3.11h-3.44v-6.41h6.27Z"/><path class="cls-1" d="m414.28,46.03c.84-6.04,2.92-9.66,10.59-15.28,4.97-3.62,6.45-5.48,6.45-8.45,0-3.2-2.23-5.62-5.29-5.62-4.69,0-4.83,4.88-4.88,7.38h-5.9c.09-3.02.46-12.54,10.96-12.54,6.96,0,11.47,4.83,11.47,10.77,0,5.43-3.85,8.5-8.27,11.56-4.55,3.16-5.71,4.46-7.15,7.29h15.69v4.88h-23.68Z"/><path class="cls-1" d="m451.93,46.68c-10.77,0-11.79-12.63-11.79-16.99,0-5.57.98-18.16,11.79-18.16,4.27,0,7.1,2.09,8.92,4.97,2.32,3.71,2.88,8.22,2.88,12.58s-.7,17.6-11.79,17.6Zm-.09-30.13c-3.11,0-5.34,2.28-5.34,12.54-.05,10.73,2.41,12.58,5.43,12.58,3.39,0,5.39-2.6,5.39-12.58,0-10.73-2.41-12.54-5.48-12.54Z"/><path class="cls-1" d="m477.75,46.68c-10.77,0-11.79-12.63-11.79-16.99,0-5.57.97-18.16,11.79-18.16,4.27,0,7.1,2.09,8.92,4.97,2.32,3.71,2.88,8.22,2.88,12.58s-.7,17.6-11.79,17.6Zm-.09-30.13c-3.11,0-5.34,2.28-5.34,12.54-.05,10.73,2.41,12.58,5.43,12.58,3.39,0,5.39-2.6,5.39-12.58,0-10.73-2.41-12.54-5.48-12.54Z"/><path class="cls-1" d="m512.04,45.9l-1.58-3.65c.49.09,1.02.19,2.6.19,1.02,0,1.33-.12,1.33-1.02v-6.4h-16.59v10.66h-3.46v-24.84h23.55v21.29c0,3.21-1.39,3.74-5.84,3.77Zm-7.91-21.72h-6.33v7.51h6.33v-7.51Zm10.26,0h-6.4v7.51h6.4v-7.51Z"/><path class="cls-1" d="m533.71,45.47c-.37-.83-.77-1.51-1.24-2.32-1.17.4-3.65,1.24-6.98,1.92-.62.12-.65.12-.83.4-.22.31-.31.4-.46.4s-.28-.09-.34-.28l-.83-3.4c.87-.03,1.51-.12,1.92-.16v-14.62h10.69v10.66h-2.97c1.88,2.35,2.84,4.11,3.68,5.81l-2.63,1.58Zm-.71-21.13c.31.77.43,1.39.49,1.98l-3.31.31c-.12-1.02-.34-1.67-.56-2.29h-1.85c-.59.9-1.05,1.51-1.92,2.53l-2.63-1.24c1.61-1.79,2.84-3.89,3.77-6.12l2.94.68c.12.03.31.09.31.28,0,.15-.25.28-.49.4-.28.12-.31.18-.53.71h7.23v2.75h-3.46Zm-.46,5.59h-4.42v1.67h4.42v-1.67Zm0,3.99h-4.42v1.67h4.42v-1.67Zm-4.42,4.17v3.49c1.36-.25,2.19-.43,3.03-.62-.22-.37-.43-.74-1.05-1.51l1.67-1.36h-3.65Zm17.4-13.75c.28.53.43.96.68,1.95l-3,.65c-.22-.65-.49-1.42-1.11-2.6h-1.48c-1.17,1.64-1.7,2.19-2.23,2.75l-2.63-1.61c1.85-2.01,2.97-3.86,3.96-5.96l3.4.53c.09,0,.28.15.28.31,0,.19-.25.34-.59.56-.12.09-.15.15-.43.68h7.88v2.75h-4.73Zm.12,19.28h-1.54l-1.48-3.31c.28.03,1.48.09,1.88.09.34,0,.87,0,.87-.96v-9.18h-4.39v15.76h-3.21v-18.6h11.03v13.1c0,2.1-.71,3.09-3.15,3.09Z"/><path class="cls-1" d="m558.19,37.71c-.15,2.56-.34,4.17-1.24,6.4l-2.66-.71c.59-1.64,1.08-3.49,1.3-6.98l2.53.46c.19.03.56.12.56.31,0,.15-.15.28-.49.53Zm6.4-2.75c-.06-.28-.12-.68-.25-1.27-1.08.28-1.51.31-2.04.4v11.9h-3.15v-11.46c-1.11.12-2.35.25-2.75.31-.22,0-.43.03-.68.31-.25.25-.34.34-.49.34-.09,0-.25-.12-.28-.28l-.62-3.58c1.33,0,2.01,0,3.31-.06.31-.37.77-.87,1.21-1.45-1.58-1.76-2.87-2.75-4.29-3.71l1.92-2.6c.49.34.77.56,1.05.8,1.33-1.92,2.04-3.37,2.81-5.19l2.75,1.48c.15.09.22.22.22.28,0,.09-.06.19-.19.25-.4.19-.49.25-.56.34-1.58,2.38-1.82,2.75-3.18,4.51.53.53.87.9,1.27,1.42,1.79-2.47,2.63-3.83,3.37-5.1l2.81,1.7c.19.09.22.28.22.34,0,.28-.31.34-.34.34-.49.03-.53.09-.96.65-1.58,2.01-3.24,3.96-4.97,5.81.99-.06,1.64-.12,2.97-.28-.15-.56-.31-1.21-.53-1.79l2.78-.65c.65,1.82,1.11,3.55,1.42,5.44l-2.81.8Zm.25,7.48c-.65-2.32-.96-3.89-1.21-5.93l2.5-.53c.37,2.72.93,4.67,1.3,5.78l-2.6.68Zm14.37.53c-.87,2.47-2.53,2.87-4.54,2.87h-1.33l-1.7-3.62c.65.06,1.64.19,2.75.19.99,0,1.61-.25,2.19-2.19.62-2.04,1.17-6.15,1.17-10.88v-2.1h-7.01c-.9,1.54-1.45,2.41-2.32,3.37l-2.41-1.95c1.39-1.79,2.87-3.96,4.57-9.05l3.27,1.08c.15.06.31.15.31.31s-.09.25-.22.31c-.46.22-.49.25-.65.65-.37.99-.43,1.21-.8,1.95h8.47v5.78c0,4.39-.62,10.07-1.76,13.29Zm-7.32-5.19c-.9-2.97-1.73-4.73-2.41-6.09l2.78-1.11c.77,1.51,1.58,3.34,2.41,6.27l-2.78.93Z"/></svg>