<?xml version="1.0" encoding="UTF-8"?><svg id="_レイヤー_5" xmlns="http://www.w3.org/2000/svg" viewBox="0 0 268.33 93.6"><defs><style>.cls-1{fill:#fff;}.cls-2{fill:none;stroke:#fff;stroke-width:.54px;}.cls-3{fill:#877437;}</style></defs><rect class="cls-3" width="268.33" height="93.6"/><path class="cls-1" d="m25.4,41.03v3.34h-1.09v-3.34h-6.47v-1.01h2.42v-3.86h4.05v-2.22h-3.26c-.6.85-1.05,1.37-1.61,1.96l-.94-.61c1.15-1.12,2.09-2.29,2.85-4.09.29.13.78.25,1.01.45.17.07.25.12.25.22,0,.17-.22.2-.43.23-.1.17-.22.39-.48.83h8.2v1.01h-4.49v2.22h3.82v1.01h-3.82v2.85h5.06v1.01h-5.06Zm-1.09-3.86h-3v2.85h3v-2.85Z"/><path class="cls-1" d="m38,31.78v4.54h-4.39v8.05h-1.01v-12.59h5.4Zm-1.01.86h-3.38v.99h3.38v-.99Zm0,2.82v-1.04h-3.38v1.04h3.38Zm-.23,7.61h-.98v-5.4h5.56v4.65h-4.58v.75Zm3.57-4.54h-3.57v.98h3.57v-.98Zm0,1.84h-3.57v1.08h3.57v-1.08Zm1.69,2.87c.24.01.48.04.76.04.53,0,.73-.1.73-.46v-6.51h-4.44v-4.54h5.44v10.9c0,1.35-.12,1.58-1.99,1.64l-.52-1.08Zm1.5-10.6h-3.46v.99h3.46v-.99Zm0,1.79h-3.46v1.04h3.46v-1.04Z"/><rect class="cls-2" x="14.53" y="26.5" width="33.61" height="22.73"/><path class="cls-1" d="m57.84,41.85c-.15,2.56-.34,4.17-1.24,6.4l-2.66-.71c.59-1.64,1.08-3.49,1.3-6.98l2.53.46c.19.03.56.12.56.31,0,.15-.15.28-.49.53Zm6.4-2.75c-.06-.28-.12-.68-.25-1.27-1.08.28-1.51.31-2.04.4v11.9h-3.15v-11.46c-1.11.12-2.35.25-2.75.31-.22,0-.43.03-.68.31-.25.25-.34.34-.49.34-.09,0-.25-.12-.28-.28l-.62-3.58c1.33,0,2.01,0,3.31-.06.31-.37.77-.87,1.21-1.45-1.58-1.76-2.87-2.75-4.29-3.71l1.92-2.6c.49.34.77.56,1.05.8,1.33-1.92,2.04-3.37,2.81-5.19l2.75,1.48c.15.09.22.22.22.28,0,.09-.06.19-.19.25-.4.19-.49.25-.56.34-1.58,2.38-1.82,2.75-3.18,4.51.53.53.87.9,1.27,1.42,1.79-2.47,2.63-3.83,3.37-5.1l2.81,1.7c.19.09.22.28.22.34,0,.28-.31.34-.34.34-.49.03-.53.09-.96.65-1.58,2.01-3.24,3.96-4.97,5.81.99-.06,1.64-.12,2.97-.28-.15-.56-.31-1.21-.53-1.79l2.78-.65c.65,1.82,1.11,3.55,1.42,5.44l-2.81.8Zm.25,7.48c-.65-2.32-.96-3.89-1.21-5.93l2.5-.53c.37,2.72.93,4.67,1.3,5.78l-2.6.68Zm14.37.53c-.87,2.47-2.53,2.87-4.54,2.87h-1.33l-1.7-3.62c.65.06,1.64.19,2.75.19.99,0,1.61-.25,2.19-2.19.62-2.04,1.17-6.15,1.17-10.88v-2.1h-7.01c-.9,1.54-1.45,2.41-2.32,3.37l-2.41-1.95c1.39-1.79,2.87-3.96,4.57-9.05l3.28,1.08c.15.06.31.15.31.31s-.09.25-.22.31c-.46.22-.49.25-.65.65-.37.99-.43,1.21-.8,1.95h8.47v5.78c0,4.39-.62,10.07-1.76,13.29Zm-7.32-5.19c-.9-2.97-1.73-4.73-2.41-6.09l2.78-1.11c.77,1.51,1.58,3.34,2.41,6.27l-2.78.93Z"/><path class="cls-1" d="m93.94,50.16v-23.59h-9.19v-4.41h2.69c2.46,0,6.36-1.49,7.38-5.9h5.01v33.9h-5.9Z"/><path class="cls-1" d="m120.87,50.81c-2.74,0-5.25-1.02-7.2-2.83-1.86-1.76-2.46-3.25-3.02-6.36h6.13c.14,2.14,1.67,4.04,4.23,4.04,5.01,0,5.76-5.99,6.31-10.54-1.81,3.06-5.11,3.67-6.92,3.67-5.71,0-10.26-4.74-10.26-11,0-5.53,3.9-12.12,11.28-12.12,9.38,0,11.93,9.01,11.93,16.02,0,3.53-.37,19.13-12.49,19.13Zm.84-29.62c-2.88,0-5.25,2.14-5.25,6.13,0,3.58,1.95,6.31,4.97,6.31,3.71,0,5.62-3.25,5.62-6.41,0-3.53-2.18-6.04-5.34-6.04Z"/><path class="cls-1" d="m143.81,36.8v6.04c0,.88-.05,5.94-6.27,6.59v-3.11c3.16-.14,3.34-2.14,3.44-3.11h-3.44v-6.41h6.27Z"/><path class="cls-1" d="m159.6,50.81c-10.77,0-11.79-12.63-11.79-16.99,0-5.57.98-18.16,11.79-18.16,4.27,0,7.1,2.09,8.92,4.97,2.32,3.71,2.88,8.22,2.88,12.58s-.7,17.6-11.79,17.6Zm-.09-30.13c-3.11,0-5.34,2.28-5.34,12.54-.05,10.73,2.41,12.58,5.43,12.58,3.39,0,5.39-2.6,5.39-12.58,0-10.73-2.41-12.54-5.48-12.54Z"/><path class="cls-1" d="m185.42,50.81c-10.77,0-11.79-12.63-11.79-16.99,0-5.57.97-18.16,11.79-18.16,4.27,0,7.1,2.09,8.92,4.97,2.32,3.71,2.88,8.22,2.88,12.58s-.7,17.6-11.79,17.6Zm-.09-30.13c-3.11,0-5.34,2.28-5.34,12.54-.05,10.73,2.41,12.58,5.43,12.58,3.39,0,5.39-2.6,5.39-12.58,0-10.73-2.41-12.54-5.48-12.54Z"/><path class="cls-1" d="m211.23,50.81c-10.77,0-11.79-12.63-11.79-16.99,0-5.57.98-18.16,11.79-18.16,4.27,0,7.1,2.09,8.92,4.97,2.32,3.71,2.88,8.22,2.88,12.58s-.7,17.6-11.79,17.6Zm-.09-30.13c-3.11,0-5.34,2.28-5.34,12.54-.05,10.73,2.41,12.58,5.43,12.58,3.39,0,5.39-2.6,5.39-12.58,0-10.73-2.41-12.54-5.48-12.54Z"/><path class="cls-1" d="m245.53,50.04l-1.58-3.65c.49.09,1.02.19,2.6.19,1.02,0,1.33-.12,1.33-1.02v-6.4h-16.59v10.66h-3.46v-24.84h23.54v21.29c0,3.21-1.39,3.74-5.84,3.77Zm-7.91-21.72h-6.33v7.51h6.33v-7.51Zm10.26,0h-6.4v7.51h6.4v-7.51Z"/><path class="cls-1" d="m118.09,74.71c5.07-3.28,5.65-3.62,7.73-4.73l-.03-3.99c-1.85.19-2.97.22-4.7.15l-.46-3.49c.87.09,1.61.16,3.03.16.77,0,1.24-.03,2.13-.09-.03-3.49-.03-3.77-.06-5.78l3.43.46c.87.12.87.34.87.49,0,.12-.46.49-.53.59-.12.19-.22,3.21-.25,3.8,1.98-.43,3.03-.8,4.76-1.61v3.52c-1.95.74-3.4,1.05-4.82,1.33l-.03,3.06c.9-.25,2.56-.71,4.76-.71,4.79,0,7.45,3.18,7.45,7.04s-2.47,6.8-5.78,6.8-3.83-2.13-4.26-4.39l2.87-1.14c.37,1.27.62,2.07,1.58,2.07,1.11,0,2.38-1.11,2.38-3.28s-1.48-4.11-4.29-4.11c-1.82,0-3.62.68-4.7,1.08-.03,4.91-.03,5.47-.06,9.24l-3.28,1.3c-1.33-1.42-2.1-2.26-4.91-5.22-.43.4-.49.43-.93.9l-1.89-3.46Zm7.73-1.08c-.87.53-1.51.93-2.81,1.88.99,1.24,2.26,2.41,2.81,2.9v-4.79Zm15.88-5.53c-1.39-1.21-3-2.38-6.09-3.52l2.01-2.72c2.53.93,4.57,2.32,6.09,3.49l-2.01,2.75Z"/><path class="cls-1" d="m161.94,74.68c-2.29-2.13-5.38-4.63-9.08-6.18v13.35h-3.65v-24.47l3.71.65c.09.03.74.12.74.5,0,.18-.8.68-.8.83v8.13l1.45-2.29c1.58.68,2.6,1.08,5.25,2.81,2.44,1.61,3.58,2.63,4.82,3.71l-2.44,2.97Z"/><path class="cls-1" d="m188.09,64.64c-1.11,3-2.47,6.58-5.5,10.47-3.12,4.02-6.4,6.09-8.37,7.32l-3.37-2.32c1.92-1.02,5.99-3.12,9.67-8.06,2.66-3.58,3.58-6.46,4.08-8.13h-7.91c-1.05,1.51-2.75,3.89-5.87,6.89l-3.06-2.1c4.42-3.55,7.29-8.16,8.53-11.87l3.18,1.21c.19.06.8.34.8.65,0,.25-.34.31-.77.43-.19.46-.56,1.08-.87,1.67h6.92c.37,0,.87-.28,1.36-.59l2.5,2.94c-.62.43-1.08.83-1.33,1.48Z"/></svg>