<?xml version="1.0" encoding="UTF-8"?><svg id="_レイヤー_5" xmlns="http://www.w3.org/2000/svg" viewBox="0 0 305.39 92.84"><defs><style>.cls-1{fill:#fff;}.cls-2{fill:none;stroke:#fff;stroke-width:.61px;}.cls-3{fill:#877437;}</style></defs><rect class="cls-3" width="305.39" height="92.84"/><path class="cls-1" d="m26.72,37.6v3.97h-1.3v-3.97h-7.68v-1.2h2.87v-4.58h4.81v-2.63h-3.87c-.72,1.01-1.25,1.62-1.92,2.33l-1.11-.72c1.37-1.33,2.48-2.72,3.39-4.86.34.15.92.29,1.2.53.21.09.29.14.29.26,0,.21-.26.24-.51.27-.12.21-.26.46-.56.99h9.73v1.2h-5.34v2.63h4.53v1.2h-4.53v3.39h6v1.2h-6Zm-1.3-4.58h-3.56v3.39h3.56v-3.39Z"/><path class="cls-1" d="m41.67,26.62v5.39h-5.22v9.56h-1.2v-14.95h6.41Zm-1.2,1.03h-4.02v1.18h4.02v-1.18Zm0,3.35v-1.23h-4.02v1.23h4.02Zm-.27,9.03h-1.16v-6.41h6.6v5.52h-5.44v.89Zm4.24-5.39h-4.24v1.16h4.24v-1.16Zm0,2.19h-4.24v1.28h4.24v-1.28Zm2,3.4c.29.02.56.05.91.05.63,0,.87-.12.87-.55v-7.73h-5.27v-5.39h6.47v12.95c0,1.61-.14,1.88-2.36,1.95l-.62-1.28Zm1.78-12.59h-4.11v1.18h4.11v-1.18Zm0,2.12h-4.11v1.23h4.11v-1.23Z"/><rect class="cls-2" x="11.43" y="21.69" width="45.34" height="24.02"/><path class="cls-1" d="m68.54,37.9c-.18,2.95-.39,4.79-1.42,7.35l-3.05-.82c.67-1.88,1.24-4.01,1.49-8.02l2.91.53c.21.04.64.14.64.36,0,.18-.18.32-.57.6Zm7.35-3.16c-.07-.32-.14-.78-.28-1.46-1.24.32-1.74.35-2.34.46v13.66h-3.62v-13.17c-1.28.14-2.7.28-3.16.36-.25,0-.5.04-.78.35-.28.28-.39.39-.57.39-.11,0-.28-.14-.32-.32l-.71-4.12c1.53,0,2.31,0,3.8-.07.35-.43.89-.99,1.38-1.67-1.81-2.02-3.3-3.16-4.93-4.26l2.2-2.98c.57.39.89.64,1.21.92,1.53-2.2,2.34-3.87,3.23-5.96l3.16,1.7c.18.11.25.25.25.32,0,.11-.07.21-.21.28-.46.21-.57.28-.64.39-1.81,2.73-2.09,3.16-3.66,5.18.6.6.99,1.03,1.46,1.63,2.06-2.84,3.02-4.4,3.87-5.86l3.23,1.95c.21.11.25.32.25.39,0,.32-.36.39-.39.39-.57.04-.6.11-1.1.75-1.81,2.31-3.73,4.54-5.71,6.67,1.14-.07,1.88-.14,3.41-.32-.18-.64-.35-1.38-.6-2.06l3.19-.75c.75,2.09,1.28,4.08,1.63,6.25l-3.23.92Zm.28,8.59c-.75-2.66-1.1-4.47-1.38-6.81l2.88-.6c.43,3.12,1.06,5.36,1.49,6.64l-2.98.78Zm16.5.6c-.99,2.84-2.91,3.3-5.22,3.3h-1.53l-1.95-4.15c.75.07,1.88.21,3.16.21,1.14,0,1.85-.28,2.52-2.52.71-2.34,1.35-7.06,1.35-12.49v-2.41h-8.06c-1.03,1.77-1.67,2.77-2.66,3.87l-2.77-2.24c1.6-2.06,3.3-4.54,5.25-10.4l3.76,1.24c.18.07.35.18.35.36s-.11.28-.25.35c-.53.25-.57.28-.75.75-.43,1.14-.5,1.38-.92,2.24h9.73v6.64c0,5.04-.71,11.57-2.02,15.26Zm-8.41-5.96c-1.03-3.41-1.99-5.43-2.77-6.99l3.19-1.28c.89,1.74,1.81,3.83,2.77,7.21l-3.19,1.06Z"/><path class="cls-1" d="m98.69,47.45c.96-6.93,3.36-11.09,12.16-17.54,5.71-4.16,7.41-6.29,7.41-9.71,0-3.68-2.56-6.45-6.08-6.45-5.39,0-5.55,5.6-5.6,8.48h-6.77c.11-3.47.53-14.4,12.59-14.4,8,0,13.17,5.55,13.17,12.37,0,6.24-4.43,9.76-9.49,13.28-5.23,3.63-6.56,5.12-8.21,8.37h18.03v5.6h-27.2Z"/><path class="cls-1" d="m139.64,47.45v-27.09h-10.56v-5.07h3.09c2.83,0,7.31-1.71,8.48-6.77h5.76v38.93h-6.77Z"/><path class="cls-1" d="m167.27,32.1v6.93c0,1.01-.05,6.83-7.2,7.57v-3.57c3.63-.16,3.84-2.45,3.95-3.57h-3.95v-7.36h7.2Z"/><path class="cls-1" d="m185.72,48.2c-10.72,0-13.65-10.4-13.65-18.4,0-4.11.37-21.97,14.29-21.97,3.2,0,6.08,1.12,8.32,3.25,2.13,2.03,2.77,3.73,3.47,7.25h-7.04c-.21-2.4-1.92-4.59-4.91-4.59-5.71,0-6.56,6.83-7.2,12.05,2.03-3.52,5.81-4.16,7.95-4.16,6.51,0,11.79,5.39,11.79,12.59,0,6.4-4.48,13.97-13.01,13.97Zm0-20.69c-4.21,0-6.4,3.73-6.4,7.36,0,4.05,2.51,6.99,6.13,6.99,3.25,0,6.03-2.51,6.03-7.04,0-4.16-2.24-7.31-5.76-7.31Z"/><path class="cls-1" d="m215.05,48.2c-12.37,0-13.55-14.51-13.55-19.52,0-6.4,1.12-20.85,13.55-20.85,4.91,0,8.16,2.4,10.24,5.71,2.67,4.27,3.31,9.44,3.31,14.45s-.8,20.21-13.55,20.21Zm-.11-34.61c-3.57,0-6.13,2.61-6.13,14.4-.05,12.32,2.77,14.45,6.24,14.45,3.89,0,6.19-2.99,6.19-14.45,0-12.32-2.77-14.4-6.29-14.4Z"/><path class="cls-1" d="m244.7,48.2c-12.37,0-13.55-14.51-13.55-19.52,0-6.4,1.12-20.85,13.55-20.85,4.91,0,8.16,2.4,10.24,5.71,2.67,4.27,3.31,9.44,3.31,14.45s-.8,20.21-13.55,20.21Zm-.11-34.61c-3.57,0-6.13,2.61-6.13,14.4-.05,12.32,2.77,14.45,6.24,14.45,3.89,0,6.19-2.99,6.19-14.45,0-12.32-2.77-14.4-6.29-14.4Z"/><path class="cls-1" d="m284.08,47.31l-1.81-4.19c.57.11,1.17.21,2.98.21,1.17,0,1.53-.14,1.53-1.17v-7.35h-19.06v12.24h-3.98v-28.54h27.04v24.45c0,3.69-1.6,4.29-6.71,4.33Zm-9.09-24.95h-7.28v8.62h7.28v-8.62Zm11.78,0h-7.35v8.62h7.35v-8.62Z"/><path class="cls-1" d="m188.45,80.48l-.43-.43,4.38-4.37-4.38-4.37.43-.43,4.37,4.38,4.37-4.38.43.43-4.38,4.37,4.38,4.37-.43.43-4.37-4.38-4.37,4.38Zm1.82-4.8c0,.61-.5,1.12-1.12,1.12s-1.13-.5-1.13-1.12.51-1.12,1.13-1.12,1.12.51,1.12,1.12Zm3.66-3.67c0,.59-.48,1.12-1.12,1.12s-1.12-.51-1.12-1.12.51-1.13,1.12-1.13,1.12.51,1.12,1.13Zm0,7.33c0,.61-.48,1.13-1.12,1.13s-1.12-.51-1.12-1.13.51-1.12,1.12-1.12,1.12.51,1.12,1.12Zm3.68-3.67c0,.61-.5,1.12-1.13,1.12s-1.12-.5-1.12-1.12.51-1.12,1.12-1.12,1.13.51,1.13,1.12Z"/><path class="cls-1" d="m205.6,80.8h-5.29v-.36c.27-.85.9-1.79,1.98-3.02,1.98-2.29,2.65-3.06,2.65-4.41,0-1.01-.65-1.85-1.79-1.85-.94,0-1.51.57-1.51,1.05,0,.04,0,.22.13.42.18.27.28.42.28.67,0,.4-.32.75-.73.75-.47,0-.77-.45-.77-.94,0-.98.96-2.41,2.9-2.41,1.67,0,2.69,1.05,2.69,2.51,0,1.36-.78,2.1-1.99,3.14-.46.38-2.24,1.9-2.91,3.38h1.86c1.89,0,2.33-.73,2.73-1.85l.4.15-.65,2.76Z"/><path class="cls-1" d="m130.5,83.09c-.43-.96-.89-1.74-1.42-2.66-1.35.46-4.19,1.42-8.02,2.2-.71.14-.75.14-.96.46-.25.35-.35.46-.53.46s-.32-.11-.39-.32l-.96-3.9c.99-.04,1.74-.14,2.2-.18v-16.79h12.28v12.25h-3.41c2.17,2.7,3.27,4.72,4.22,6.67l-3.02,1.81Zm-.82-24.28c.35.89.5,1.6.57,2.27l-3.8.35c-.14-1.17-.39-1.92-.64-2.63h-2.13c-.67,1.03-1.21,1.74-2.2,2.91l-3.02-1.42c1.85-2.06,3.27-4.47,4.33-7.03l3.37.78c.14.04.35.11.35.32,0,.18-.28.32-.57.46-.32.14-.35.21-.6.82h8.3v3.16h-3.97Zm-.53,6.42h-5.08v1.92h5.08v-1.92Zm0,4.58h-5.08v1.92h5.08v-1.92Zm-5.08,4.79v4.01c1.56-.28,2.52-.5,3.48-.71-.25-.43-.5-.85-1.21-1.74l1.92-1.56h-4.19Zm19.98-15.79c.32.6.5,1.1.78,2.24l-3.44.75c-.25-.75-.57-1.63-1.28-2.98h-1.7c-1.35,1.88-1.95,2.52-2.56,3.16l-3.02-1.84c2.13-2.31,3.41-4.44,4.54-6.85l3.9.6c.11,0,.32.18.32.36,0,.21-.28.39-.67.64-.14.11-.18.18-.5.78h9.05v3.16h-5.43Zm.14,22.15h-1.77l-1.7-3.8c.32.04,1.7.11,2.17.11.39,0,.99,0,.99-1.1v-10.54h-5.04v18.1h-3.69v-21.37h12.67v15.05c0,2.41-.82,3.55-3.62,3.55Z"/><path class="cls-1" d="m158.6,74.18c-.18,2.95-.39,4.79-1.42,7.35l-3.05-.82c.67-1.88,1.24-4.01,1.49-8.02l2.91.53c.21.04.64.14.64.36,0,.18-.18.32-.57.6Zm7.35-3.16c-.07-.32-.14-.78-.28-1.46-1.24.32-1.74.35-2.34.46v13.66h-3.62v-13.17c-1.28.14-2.7.28-3.16.36-.25,0-.5.04-.78.35-.28.28-.39.39-.57.39-.11,0-.28-.14-.32-.32l-.71-4.12c1.53,0,2.31,0,3.8-.07.35-.43.89-.99,1.38-1.67-1.81-2.02-3.3-3.16-4.93-4.26l2.2-2.98c.57.39.89.64,1.21.92,1.53-2.2,2.34-3.87,3.23-5.96l3.16,1.7c.18.11.25.25.25.32,0,.11-.07.21-.21.28-.46.21-.57.28-.64.39-1.81,2.73-2.09,3.16-3.66,5.18.6.6.99,1.03,1.46,1.63,2.06-2.84,3.02-4.4,3.87-5.86l3.23,1.95c.21.11.25.32.25.39,0,.32-.35.39-.39.39-.57.04-.6.11-1.1.75-1.81,2.31-3.73,4.54-5.71,6.67,1.14-.07,1.88-.14,3.41-.32-.18-.64-.35-1.38-.6-2.06l3.19-.75c.75,2.09,1.28,4.08,1.63,6.25l-3.23.92Zm.28,8.59c-.75-2.66-1.1-4.47-1.38-6.81l2.88-.6c.43,3.12,1.06,5.36,1.49,6.64l-2.98.78Zm16.5.6c-.99,2.84-2.91,3.3-5.22,3.3h-1.53l-1.95-4.15c.75.07,1.88.21,3.16.21,1.14,0,1.85-.28,2.52-2.52.71-2.34,1.35-7.06,1.35-12.49v-2.41h-8.06c-1.03,1.77-1.67,2.77-2.66,3.87l-2.77-2.24c1.6-2.06,3.3-4.54,5.25-10.4l3.76,1.24c.18.07.35.18.35.36s-.11.28-.25.35c-.53.25-.57.28-.75.75-.43,1.14-.5,1.38-.92,2.24h9.72v6.64c0,5.04-.71,11.57-2.02,15.26Zm-8.41-5.96c-1.03-3.41-1.99-5.43-2.77-6.99l3.19-1.28c.89,1.74,1.81,3.83,2.77,7.21l-3.19,1.06Z"/></svg>