<?xml version="1.0" encoding="UTF-8"?><svg id="_レイヤー_5" xmlns="http://www.w3.org/2000/svg" viewBox="0 0 681.86 176"><defs><style>.cls-1{fill:#fff;}.cls-2{fill:#877437;}.cls-3{fill:none;stroke:#fff;stroke-width:1.03px;}</style></defs><rect class="cls-2" width="681.86" height="176"/><path class="cls-1" d="m113.15,73.33v6.34h-2.08v-6.34h-12.26v-1.91h4.59v-7.32h7.67v-4.21h-6.17c-1.15,1.61-1.99,2.59-3.06,3.71l-1.78-1.15c2.18-2.13,3.96-4.34,5.41-7.76.55.25,1.48.46,1.91.85.33.14.46.22.46.41,0,.33-.41.38-.82.44-.19.33-.41.74-.9,1.58h15.54v1.91h-8.52v4.21h7.24v1.91h-7.24v5.41h9.59v1.91h-9.59Zm-2.08-7.32h-5.68v5.41h5.68v-5.41Z"/><path class="cls-1" d="m137.02,55.8v8.6h-8.33v15.27h-1.91v-23.87h10.24Zm-1.91,1.64h-6.42v1.88h6.42v-1.88Zm0,5.35v-1.97h-6.42v1.97h6.42Zm-.44,14.42h-1.86v-10.24h10.54v8.82h-8.69v1.42Zm6.77-8.6h-6.77v1.86h6.77v-1.86Zm0,3.5h-6.77v2.05h6.77v-2.05Zm3.2,5.44c.46.03.9.08,1.45.08,1.01,0,1.39-.19,1.39-.87v-12.35h-8.41v-8.6h10.32v20.68c0,2.57-.22,3-3.77,3.11l-.98-2.05Zm2.84-20.1h-6.56v1.88h6.56v-1.88Zm0,3.39h-6.56v1.97h6.56v-1.97Z"/><rect class="cls-3" x="92.53" y="45.79" width="63.72" height="43.08"/><path class="cls-1" d="m174.64,74.89c-.29,4.86-.64,7.91-2.34,12.13l-5.04-1.35c1.11-3.11,2.05-6.62,2.46-13.24l4.8.88c.35.06,1.05.23,1.05.59,0,.29-.29.53-.94,1Zm12.13-5.21c-.12-.53-.23-1.29-.47-2.4-2.05.53-2.87.59-3.87.76v22.55h-5.97v-21.73c-2.11.23-4.45.47-5.21.59-.41,0-.82.06-1.29.59-.47.47-.64.64-.94.64-.18,0-.47-.23-.53-.53l-1.17-6.79c2.52,0,3.81,0,6.27-.12.59-.7,1.46-1.64,2.29-2.75-2.99-3.34-5.45-5.21-8.14-7.03l3.63-4.92c.94.64,1.46,1.05,1.99,1.52,2.52-3.63,3.87-6.38,5.33-9.84l5.21,2.81c.29.18.41.41.41.53,0,.18-.12.35-.35.47-.76.35-.94.47-1.05.64-2.99,4.51-3.46,5.21-6.03,8.55,1,1,1.64,1.7,2.4,2.69,3.4-4.69,4.98-7.26,6.38-9.67l5.33,3.22c.35.18.41.53.41.64,0,.53-.59.64-.64.64-.94.06-1,.18-1.82,1.23-2.99,3.81-6.15,7.5-9.43,11.01,1.87-.12,3.1-.23,5.62-.53-.29-1.05-.59-2.29-1-3.4l5.27-1.23c1.23,3.46,2.11,6.74,2.69,10.31l-5.33,1.52Zm.47,14.18c-1.23-4.39-1.82-7.38-2.29-11.25l4.75-1c.7,5.16,1.76,8.85,2.46,10.95l-4.92,1.29Zm27.24,1c-1.64,4.69-4.8,5.45-8.61,5.45h-2.52l-3.22-6.85c1.23.12,3.1.35,5.21.35,1.87,0,3.05-.47,4.16-4.16,1.17-3.87,2.23-11.66,2.23-20.62v-3.98h-13.3c-1.7,2.93-2.75,4.57-4.39,6.38l-4.57-3.69c2.64-3.4,5.45-7.5,8.67-17.16l6.21,2.05c.29.12.59.29.59.59s-.18.47-.41.59c-.88.41-.94.47-1.23,1.23-.7,1.88-.82,2.29-1.52,3.69h16.05v10.95c0,8.32-1.17,19.1-3.34,25.19Zm-13.88-9.84c-1.7-5.62-3.28-8.96-4.57-11.54l5.27-2.11c1.46,2.87,2.99,6.33,4.57,11.89l-5.27,1.76Z"/><path class="cls-1" d="m243.07,90.64v-44.72h-17.43v-8.36h5.11c4.67,0,12.06-2.82,14-11.18h9.51v64.26h-11.18Z"/><path class="cls-1" d="m294.13,91.88c-5.19,0-9.95-1.94-13.64-5.37-3.52-3.34-4.67-6.16-5.72-12.06h11.62c.26,4.05,3.17,7.66,8.01,7.66,9.51,0,10.92-11.36,11.97-19.98-3.43,5.81-9.68,6.96-13.12,6.96-10.83,0-19.45-8.98-19.45-20.86,0-10.48,7.39-22.97,21.39-22.97,17.78,0,22.62,17.08,22.62,30.37,0,6.69-.7,36.27-23.68,36.27Zm1.58-56.16c-5.46,0-9.95,4.05-9.95,11.62,0,6.78,3.7,11.97,9.42,11.97,7.04,0,10.65-6.16,10.65-12.15,0-6.69-4.14-11.44-10.12-11.44Z"/><path class="cls-1" d="m337.61,65.32v11.44c0,1.67-.09,11.27-11.88,12.5v-5.9c5.99-.26,6.34-4.05,6.51-5.9h-6.51v-12.15h11.88Z"/><path class="cls-1" d="m367.54,91.88c-20.42,0-22.36-23.94-22.36-32.22,0-10.56,1.85-34.42,22.36-34.42,8.1,0,13.47,3.96,16.9,9.42,4.4,7.04,5.46,15.58,5.46,23.86s-1.32,33.36-22.36,33.36Zm-.18-57.13c-5.9,0-10.12,4.31-10.12,23.77-.09,20.33,4.58,23.86,10.3,23.86,6.43,0,10.21-4.93,10.21-23.86,0-20.33-4.58-23.77-10.39-23.77Z"/><path class="cls-1" d="m416.48,91.88c-20.42,0-22.36-23.94-22.36-32.22,0-10.56,1.85-34.42,22.36-34.42,8.1,0,13.47,3.96,16.9,9.42,4.4,7.04,5.46,15.58,5.46,23.86s-1.32,33.36-22.36,33.36Zm-.18-57.13c-5.9,0-10.12,4.31-10.12,23.77-.09,20.33,4.58,23.86,10.3,23.86,6.43,0,10.21-4.93,10.21-23.86,0-20.33-4.58-23.77-10.39-23.77Z"/><path class="cls-1" d="m465.42,91.88c-20.42,0-22.36-23.94-22.36-32.22,0-10.56,1.85-34.42,22.36-34.42,8.1,0,13.47,3.96,16.9,9.42,4.4,7.04,5.46,15.58,5.46,23.86s-1.32,33.36-22.36,33.36Zm-.18-57.13c-5.9,0-10.12,4.31-10.12,23.77-.09,20.33,4.58,23.86,10.3,23.86,6.43,0,10.21-4.93,10.21-23.86,0-20.33-4.58-23.77-10.39-23.77Z"/><path class="cls-1" d="m530.43,90.41l-2.99-6.91c.94.18,1.93.35,4.92.35,1.93,0,2.52-.23,2.52-1.93v-12.13h-31.46v20.21h-6.56v-47.1h44.64v40.36c0,6.09-2.64,7.09-11.07,7.15Zm-15-41.18h-12.01v14.23h12.01v-14.23Zm19.45,0h-12.13v14.23h12.13v-14.23Z"/><path class="cls-1" d="m288.86,137.19c9.61-6.21,10.72-6.85,14.64-8.96l-.06-7.56c-3.51.35-5.62.41-8.9.29l-.88-6.62c1.64.17,3.05.29,5.74.29,1.46,0,2.34-.06,4.04-.18-.06-6.62-.06-7.15-.12-10.95l6.5.88c1.64.23,1.64.64,1.64.94,0,.23-.88.94-1,1.11-.23.35-.41,6.09-.47,7.21,3.75-.82,5.74-1.52,9.02-3.05v6.68c-3.69,1.41-6.44,1.99-9.14,2.52l-.06,5.8c1.7-.47,4.86-1.35,9.02-1.35,9.08,0,14.12,6.03,14.12,13.36s-4.69,12.89-10.95,12.89-7.26-4.04-8.08-8.32l5.45-2.17c.7,2.4,1.17,3.92,2.99,3.92,2.11,0,4.51-2.11,4.51-6.21s-2.81-7.79-8.14-7.79c-3.46,0-6.85,1.29-8.9,2.05-.06,9.31-.06,10.37-.12,17.51l-6.21,2.46c-2.52-2.69-3.98-4.28-9.31-9.9-.82.76-.94.82-1.76,1.7l-3.57-6.56Zm14.64-2.05c-1.64,1-2.87,1.76-5.33,3.57,1.88,2.34,4.28,4.57,5.33,5.51v-9.08Zm30.11-10.49c-2.64-2.29-5.68-4.51-11.54-6.68l3.81-5.16c4.8,1.76,8.67,4.39,11.54,6.62l-3.81,5.21Z"/><path class="cls-1" d="m371.98,137.13c-4.33-4.04-10.19-8.79-17.22-11.71v25.31h-6.91v-46.39l7.03,1.23c.18.06,1.41.23,1.41.94,0,.35-1.52,1.29-1.52,1.58v15.41l2.75-4.33c2.99,1.29,4.92,2.05,9.96,5.33,4.63,3.05,6.79,4.98,9.14,7.03l-4.63,5.62Z"/><path class="cls-1" d="m421.55,118.09c-2.11,5.68-4.69,12.48-10.43,19.86-5.92,7.62-12.13,11.54-15.88,13.88l-6.38-4.39c3.63-1.93,11.36-5.92,18.33-15.29,5.04-6.79,6.79-12.24,7.73-15.41h-15c-1.99,2.87-5.21,7.38-11.13,13.06l-5.8-3.98c8.38-6.74,13.82-15.46,16.17-22.49l6.03,2.29c.35.12,1.52.64,1.52,1.23,0,.47-.64.58-1.46.82-.35.88-1.05,2.05-1.64,3.16h13.12c.7,0,1.64-.53,2.58-1.11l4.75,5.56c-1.17.82-2.05,1.58-2.52,2.81Z"/></svg>