<?xml version="1.0" encoding="UTF-8"?><svg id="_レイヤー_5" xmlns="http://www.w3.org/2000/svg" viewBox="0 0 680.14 203.78"><defs><style>.cls-1{fill:#fff;}.cls-2{fill:#877437;}.cls-3{fill:none;stroke:#fff;stroke-width:1.17px;}</style></defs><rect class="cls-2" width="680.14" height="203.78"/><path class="cls-1" d="m92.65,90.04v7.64h-2.5v-7.64h-14.79v-2.31h5.53v-8.83h9.26v-5.07h-7.45c-1.38,1.94-2.4,3.13-3.69,4.48l-2.14-1.38c2.64-2.57,4.78-5.24,6.52-9.36.66.3,1.78.56,2.31,1.02.4.17.56.26.56.49,0,.4-.49.46-.99.53-.23.4-.49.89-1.09,1.91h18.75v2.31h-10.28v5.07h8.73v2.31h-8.73v6.52h11.56v2.31h-11.56Zm-2.5-8.83h-6.85v6.52h6.85v-6.52Z"/><path class="cls-1" d="m121.45,68.89v10.38h-10.05v18.42h-2.31v-28.79h12.35Zm-2.31,1.98h-7.74v2.27h7.74v-2.27Zm0,6.46v-2.37h-7.74v2.37h7.74Zm-.53,17.39h-2.24v-12.35h12.72v10.64h-10.48v1.71Zm8.17-10.38h-8.17v2.24h8.17v-2.24Zm0,4.22h-8.17v2.47h8.17v-2.47Zm3.85,6.56c.56.03,1.09.1,1.75.1,1.22,0,1.68-.23,1.68-1.05v-14.89h-10.15v-10.38h12.45v24.94c0,3.1-.26,3.62-4.55,3.75l-1.19-2.47Zm3.43-24.25h-7.91v2.27h7.91v-2.27Zm0,4.08h-7.91v2.37h7.91v-2.37Z"/><rect class="cls-3" x="63.2" y="59.39" width="87.34" height="46.27"/><path class="cls-1" d="m173.2,90.62c-.34,5.67-.75,9.23-2.73,14.15l-5.88-1.57c1.3-3.62,2.39-7.72,2.87-15.45l5.61,1.03c.41.07,1.23.27,1.23.68,0,.34-.34.62-1.09,1.16Zm14.15-6.08c-.14-.62-.27-1.5-.55-2.8-2.39.62-3.35.68-4.51.89v26.32h-6.97v-25.36c-2.46.27-5.2.55-6.08.68-.48,0-.96.07-1.5.68-.55.55-.75.75-1.09.75-.21,0-.55-.27-.62-.62l-1.37-7.93c2.94,0,4.44,0,7.31-.14.68-.82,1.71-1.91,2.67-3.21-3.49-3.9-6.36-6.08-9.5-8.2l4.24-5.74c1.09.75,1.71,1.23,2.32,1.78,2.94-4.24,4.51-7.45,6.22-11.48l6.08,3.28c.34.21.48.48.48.62,0,.21-.14.41-.41.55-.89.41-1.09.55-1.23.75-3.49,5.26-4.03,6.08-7.04,9.98,1.16,1.16,1.91,1.98,2.8,3.14,3.96-5.47,5.81-8.48,7.45-11.28l6.22,3.76c.41.21.48.62.48.75,0,.62-.68.75-.75.75-1.09.07-1.16.21-2.12,1.44-3.49,4.44-7.18,8.75-11.01,12.85,2.19-.14,3.62-.27,6.56-.62-.34-1.23-.68-2.67-1.16-3.96l6.15-1.44c1.44,4.03,2.46,7.86,3.14,12.03l-6.22,1.78Zm.55,16.54c-1.44-5.13-2.12-8.61-2.67-13.12l5.54-1.16c.82,6.02,2.05,10.32,2.87,12.78l-5.74,1.5Zm31.79,1.16c-1.91,5.47-5.61,6.36-10.05,6.36h-2.94l-3.76-8c1.44.14,3.62.41,6.08.41,2.19,0,3.55-.55,4.85-4.85,1.37-4.51,2.6-13.6,2.6-24.06v-4.65h-15.52c-1.98,3.42-3.21,5.33-5.13,7.45l-5.33-4.31c3.08-3.96,6.36-8.75,10.12-20.03l7.25,2.39c.34.14.68.34.68.68s-.21.55-.48.68c-1.03.48-1.09.55-1.44,1.44-.82,2.19-.96,2.67-1.78,4.31h18.73v12.78c0,9.71-1.37,22.29-3.9,29.39Zm-16.2-11.48c-1.98-6.56-3.83-10.46-5.33-13.47l6.15-2.46c1.71,3.35,3.49,7.38,5.33,13.88l-6.15,2.05Z"/><path class="cls-1" d="m231.28,109.01c1.85-13.35,6.47-21.37,23.42-33.8,10.99-8.01,14.28-12.12,14.28-18.7,0-7.09-4.93-12.43-11.71-12.43-10.38,0-10.68,10.79-10.79,16.33h-13.05c.21-6.68,1.03-27.73,24.24-27.73,15.41,0,25.37,10.68,25.37,23.83,0,12.02-8.53,18.8-18.29,25.58-10.07,6.99-12.63,9.86-15.82,16.13h34.72v10.79h-52.39Z"/><path class="cls-1" d="m310.17,109.01v-52.18h-20.34v-9.76h5.96c5.44,0,14.07-3.29,16.33-13.05h11.09v74.99h-13.05Z"/><path class="cls-1" d="m363.38,79.45v13.35c0,1.95-.1,13.15-13.87,14.59v-6.88c6.98-.31,7.4-4.73,7.6-6.88h-7.6v-14.18h13.87Z"/><path class="cls-1" d="m398.92,110.45c-20.65,0-26.3-20.03-26.3-35.44,0-7.91.72-42.32,27.53-42.32,6.16,0,11.71,2.16,16.02,6.27,4.11,3.9,5.34,7.19,6.68,13.97h-13.56c-.41-4.62-3.7-8.83-9.45-8.83-10.99,0-12.63,13.15-13.87,23.21,3.9-6.78,11.2-8.01,15.31-8.01,12.53,0,22.7,10.38,22.7,24.24,0,12.33-8.63,26.91-25.06,26.91Zm0-39.86c-8.12,0-12.33,7.19-12.33,14.18,0,7.81,4.83,13.46,11.81,13.46,6.27,0,11.61-4.83,11.61-13.56,0-8.01-4.31-14.07-11.09-14.07Z"/><path class="cls-1" d="m455.42,110.45c-23.83,0-26.09-27.94-26.09-37.6,0-12.33,2.16-40.16,26.09-40.16,9.45,0,15.72,4.62,19.72,10.99,5.14,8.22,6.37,18.18,6.37,27.84s-1.54,38.93-26.09,38.93Zm-.21-66.67c-6.88,0-11.81,5.03-11.81,27.74-.1,23.73,5.34,27.84,12.02,27.84,7.5,0,11.92-5.75,11.92-27.84,0-23.73-5.34-27.74-12.12-27.74Z"/><path class="cls-1" d="m512.53,110.45c-23.83,0-26.09-27.94-26.09-37.6,0-12.33,2.16-40.16,26.09-40.16,9.45,0,15.72,4.62,19.72,10.99,5.14,8.22,6.37,18.18,6.37,27.84s-1.54,38.93-26.09,38.93Zm-.21-66.67c-6.88,0-11.81,5.03-11.81,27.74-.1,23.73,5.34,27.84,12.02,27.84,7.5,0,11.92-5.75,11.92-27.84,0-23.73-5.34-27.74-12.12-27.74Z"/><path class="cls-1" d="m588.39,108.74l-3.49-8.07c1.09.21,2.26.41,5.74.41,2.26,0,2.94-.27,2.94-2.26v-14.15h-36.71v23.58h-7.66v-54.96h52.09v47.1c0,7.11-3.08,8.27-12.92,8.34Zm-17.5-48.06h-14.01v16.61h14.01v-16.61Zm22.7,0h-14.15v16.61h14.15v-16.61Z"/><path class="cls-1" d="m404.19,172.63l-.83-.83,8.43-8.4-8.43-8.4.83-.83,8.4,8.43,8.41-8.43.83.83-8.43,8.4,8.43,8.4-.83.83-8.41-8.43-8.4,8.43Zm3.5-9.23c0,1.17-.96,2.15-2.15,2.15s-2.18-.96-2.18-2.15.99-2.15,2.18-2.15,2.15.99,2.15,2.15Zm7.06-7.06c0,1.14-.93,2.15-2.15,2.15s-2.15-.99-2.15-2.15.99-2.18,2.15-2.18,2.15.99,2.15,2.18Zm0,14.11c0,1.17-.93,2.18-2.15,2.18s-2.15-.99-2.15-2.18.99-2.15,2.15-2.15,2.15.99,2.15,2.15Zm7.08-7.06c0,1.17-.96,2.15-2.18,2.15s-2.15-.96-2.15-2.15.99-2.15,2.15-2.15,2.18.99,2.18,2.15Z"/><path class="cls-1" d="m437.21,173.26h-10.19v-.7c.52-1.63,1.74-3.45,3.81-5.81,3.81-4.41,5.11-5.89,5.11-8.48,0-1.95-1.25-3.55-3.45-3.55-1.82,0-2.91,1.09-2.91,2.02,0,.08,0,.42.26.8.34.52.54.8.54,1.3,0,.78-.62,1.45-1.4,1.45-.91,0-1.48-.86-1.48-1.82,0-1.89,1.84-4.64,5.58-4.64,3.22,0,5.19,2.02,5.19,4.82,0,2.62-1.5,4.05-3.84,6.04-.88.73-4.31,3.66-5.6,6.51h3.58c3.63,0,4.49-1.4,5.27-3.55l.78.29-1.25,5.32Z"/><path class="cls-1" d="m292.55,177.66c-.82-1.85-1.71-3.35-2.73-5.13-2.6.89-8.07,2.73-15.45,4.24-1.37.27-1.44.27-1.85.89-.48.68-.68.89-1.03.89s-.62-.21-.75-.62l-1.85-7.52c1.91-.07,3.35-.27,4.24-.34v-32.33h23.65v23.58h-6.56c4.17,5.2,6.29,9.09,8.13,12.85l-5.81,3.49Zm-1.57-46.76c.68,1.71.96,3.08,1.09,4.38l-7.31.68c-.27-2.26-.75-3.69-1.23-5.06h-4.1c-1.3,1.98-2.32,3.35-4.24,5.61l-5.81-2.73c3.55-3.96,6.29-8.61,8.34-13.54l6.49,1.5c.27.07.68.21.68.62,0,.34-.55.62-1.09.89-.62.27-.68.41-1.16,1.57h16v6.08h-7.66Zm-1.03,12.37h-9.78v3.69h9.78v-3.69Zm0,8.82h-9.78v3.69h9.78v-3.69Zm-9.78,9.23v7.72c3.01-.55,4.85-.96,6.7-1.37-.48-.82-.96-1.64-2.32-3.35l3.69-3.01h-8.07Zm38.49-30.42c.62,1.16.96,2.12,1.5,4.31l-6.63,1.44c-.48-1.44-1.09-3.14-2.46-5.74h-3.28c-2.6,3.62-3.76,4.85-4.92,6.08l-5.81-3.55c4.1-4.44,6.56-8.54,8.75-13.19l7.52,1.16c.21,0,.62.34.62.68,0,.41-.55.75-1.3,1.23-.27.21-.34.34-.96,1.5h17.43v6.08h-10.46Zm.27,42.66h-3.42l-3.28-7.31c.62.07,3.28.21,4.17.21.75,0,1.91,0,1.91-2.12v-20.3h-9.71v34.86h-7.11v-41.15h24.4v28.98c0,4.65-1.57,6.84-6.97,6.84Z"/><path class="cls-1" d="m346.69,160.5c-.34,5.67-.75,9.23-2.73,14.15l-5.88-1.57c1.3-3.62,2.39-7.72,2.87-15.45l5.61,1.03c.41.07,1.23.27,1.23.68,0,.34-.34.62-1.09,1.16Zm14.15-6.08c-.14-.62-.27-1.5-.55-2.8-2.39.62-3.35.68-4.51.89v26.32h-6.97v-25.36c-2.46.27-5.2.55-6.08.68-.48,0-.96.07-1.5.68-.55.55-.75.75-1.09.75-.21,0-.55-.27-.62-.62l-1.37-7.93c2.94,0,4.44,0,7.31-.14.68-.82,1.71-1.91,2.67-3.21-3.49-3.9-6.36-6.08-9.5-8.2l4.24-5.74c1.09.75,1.71,1.23,2.32,1.78,2.94-4.24,4.51-7.45,6.22-11.48l6.08,3.28c.34.21.48.48.48.62,0,.21-.14.41-.41.55-.89.41-1.09.55-1.23.75-3.49,5.26-4.03,6.08-7.04,9.98,1.16,1.16,1.91,1.98,2.8,3.14,3.96-5.47,5.81-8.48,7.45-11.28l6.22,3.76c.41.21.48.62.48.75,0,.62-.68.75-.75.75-1.09.07-1.16.21-2.12,1.44-3.49,4.44-7.18,8.75-11.01,12.85,2.19-.14,3.62-.27,6.56-.62-.34-1.23-.68-2.67-1.16-3.96l6.15-1.44c1.44,4.03,2.46,7.86,3.14,12.03l-6.22,1.78Zm.55,16.54c-1.44-5.13-2.12-8.61-2.67-13.12l5.54-1.16c.82,6.02,2.05,10.32,2.87,12.78l-5.74,1.5Zm31.79,1.16c-1.91,5.47-5.61,6.36-10.05,6.36h-2.94l-3.76-8c1.44.14,3.62.41,6.08.41,2.19,0,3.55-.55,4.85-4.85,1.37-4.51,2.6-13.6,2.6-24.06v-4.65h-15.52c-1.98,3.42-3.21,5.33-5.13,7.45l-5.33-4.31c3.08-3.96,6.36-8.75,10.12-20.03l7.25,2.39c.34.14.68.34.68.68s-.21.55-.48.68c-1.03.48-1.09.55-1.44,1.44-.82,2.19-.96,2.67-1.78,4.31h18.73v12.78c0,9.71-1.37,22.29-3.9,29.39Zm-16.2-11.48c-1.98-6.56-3.83-10.46-5.33-13.47l6.15-2.46c1.71,3.35,3.49,7.38,5.33,13.88l-6.15,2.05Z"/></svg>