<?xml version="1.0" encoding="UTF-8"?><svg id="_レイヤー_1" xmlns="http://www.w3.org/2000/svg" xmlns:xlink="http://www.w3.org/1999/xlink" viewBox="0 0 341.91 31.36"><defs><style>.cls-1{fill:url(#_名称未設定グラデーション_45);}.cls-2{fill:url(#_名称未設定グラデーション_3);}</style><linearGradient id="_名称未設定グラデーション_45" x1="-5.13" y1="15.54" x2="75.91" y2="15.54" gradientUnits="userSpaceOnUse"><stop offset="0" stop-color="#f6ad00"/><stop offset="1" stop-color="#e26300"/></linearGradient><linearGradient id="_名称未設定グラデーション_3" x1="202.01" y1="15.82" x2="276.29" y2="15.82" gradientUnits="userSpaceOnUse"><stop offset="0" stop-color="#e96094"/><stop offset="1" stop-color="#b90052"/></linearGradient></defs><polygon class="cls-1" points="46.88 15.54 25.16 0 25.16 9.01 0 9.01 0 22.07 25.16 22.07 25.16 31.09 46.88 15.54"/><path d="m65.51,9.31c-.04,1.06-.04,1.69-.04,2.77,0,3.34.09,7.92.17,9.06,0,.11.04.61.04.72,0,.7-.74.91-1.08.91-.38,0-.49-.21-.49-.57,0-.02,0-.28.04-.76h-7.01c.02.55.04,1.38-1.04,1.38-.4,0-.51-.23-.51-.51,0-.13.06-1.1.09-1.65.08-1.46.13-6.78.13-8.11,0-4.04-.09-4.49-.3-5.33l1.91.99h6.46l.59-.57c.15-.15.25-.23.38-.23.11,0,.23.09.36.21l.82.74c.13.13.23.25.23.36,0,.23-.25.36-.74.59Zm-1.35-.64h-7.05v5.74h7.05v-5.74Zm0,6.2h-7.05v6.12h7.05v-6.12Z"/><path d="m69.39,15.75c-.42,0-.76-.32-.76-.7,0-.25.04-.32.53-1.1.64-1,.74-1.92.81-2.46h.11c.13.34.47,1.17.47,2.33,0,1.69-.83,1.93-1.17,1.93Zm5.65-4.45c-.42.38-2.18,1.67-2.24,1.72-.04,1.48-.21,2.97-.49,4.43,1.21.38,2.88,1.5,2.88,2.54,0,.44-.27.83-.76.83-.61,0-.72-.4-1-1.29-.15-.44-.47-1.4-1.16-1.95-.4,1.61-.99,3.81-3.56,5.5l-.04-.11c1.44-1.71,2.98-4.04,2.98-11.14,0-.83-.04-3.64-.46-5.51l1.95.59c.08.02.28.11.28.27,0,.13-.06.17-.57.59.02,2.44-.02,3.83-.06,4.95.17-.25.99-1.4,1.27-2.96l1.5,1.06c.09.06.17.17.17.27,0,.3-.55.25-.7.23Zm8.04,11.81c-2.52,0-3.05,0-3.05-2.12,0-1.04,0-3.73.04-4.45h-2.25l.97.3c.11.04.3.11.3.32,0,.09-.04.21-.45.46-.72,4.02-3.7,5.36-6.27,5.65v-.09c4.34-1.52,4.87-5.04,5.04-6.63-.64,0-1.59,0-2.5.17l-.38-.76c.8.08.87.08,1.61.09,0-.44-.02-2.37-.02-2.77-.61.04-.89.06-1.42.15l-.38-.74c.83.06,1.61.09,1.78.09-.02-1.25-.06-1.71-.23-2.54l1.67.47c.13.04.23.11.23.25,0,.09-.06.17-.09.23-.06.06-.3.25-.36.3.02.21.02,1.12.02,1.31h1.46v-3.47h-1.02c-.47,0-1.38.02-2.24.17l-.38-.76c1.19.09,2.35.13,2.92.13h.72c-.04-1.61-.11-1.9-.38-2.6l1.78.46c.23.06.3.15.3.26,0,.21-.34.44-.42.49-.02.3-.04.4-.04.78v.61h2.27l.61-.8c.08-.11.19-.23.28-.23.11,0,.23.08.36.19l.93.8c.11.09.19.17.19.3,0,.17-.15.19-.28.19h-4.36c-.02.99-.02,1.23,0,3.47h1.48c-.04-1.76-.06-2.01-.25-2.79l1.63.49c.11.04.28.13.28.32,0,.11-.02.15-.09.21-.06.06-.3.23-.38.28v1.48h1.1l.59-.72c.11-.13.19-.25.3-.25s.23.11.34.23l.8.7c.11.11.19.19.19.3,0,.17-.17.19-.3.19h-3.01v2.82h.81l.49-.7c.08-.09.21-.23.3-.23.11,0,.29.15.34.21l.78.68c.09.09.17.17.17.28,0,.19-.15.21-.28.21h-4.02c-.02.47,0,3.66,0,3.88,0,1.38,0,1.4,1.35,1.4,1.04,0,1.48,0,1.71-.51.17-.38.7-2.14.76-2.44h.11c0,.68.08,2.29.66,2.67.19.11.28.17.28.36,0,1.21-1.89,1.21-3.09,1.21Zm-1.57-9.86h-4.21v2.82h4.23c0-.21-.02-2.71-.02-2.82Z"/><path d="m90.89,18.5c-.13.76-.15.89-.15,1.14,0,.13.04.72.02.83-.04.25-.17.59-.59.59-1.06,0-1.69-1.63-1.69-4.26,0-.44.02-1.95.3-3.77.19-1.12.47-2.96.47-3.34,0-.89-.17-1.19-.53-1.86,1.38-.02,2.03,1.46,2.03,2.01,0,.25-.06.38-.23.93-.87,2.69-1.16,3.6-1.16,5.4,0,.55.09,2.1.42,2.1.11,0,.21-.17.28-.32.15-.36,1.4-3.32,1.74-4.13l.13.04c-.15.74-.95,3.96-1.06,4.64Zm12.32-6.8c-.55.38-2.63.66-3.45.76.02.59.15,3.22.15,3.77,0,2.96-.83,5.51-4.76,7.32l-.09-.15c2.92-2.07,3.58-4.43,3.58-9.04,0-.85-.02-1.4-.02-1.76-.32.04-1.76.23-2.05.23-.93,0-2.07-.23-2.8-1.21.38.09.8.19,1.67.19.11,0,1.25,0,3.13-.3-.17-3.13-.3-3.81-1.9-4.06.27-.32.72-.61,1.1-.61.17,0,1.97.17,1.97,1.27,0,.13-.04.72-.04.83-.04.55,0,1.74,0,2.33.91-.17,1.27-.28,2.18-.57.13-.04.28-.08.47-.08.46,0,1.06.32,1.06.74,0,.13-.11.28-.21.34Z"/><path d="m106.96,16.36c-.83,0-1.52-.68-1.52-1.52s.68-1.52,1.52-1.52,1.52.64,1.52,1.52-.7,1.52-1.52,1.52Z"/><path d="m112.87,13.97c-.55,0-.78-.49-.97-.89-.25-.53-.74-1.4-1.16-1.76l.02-.09c2.18.34,2.82,1.23,2.82,1.9,0,.15-.08.85-.72.85Zm.99,4.36c-.13.49-.19.8-.19,1.21,0,.64.13,1.08.23,1.37.21.64.26.83.26,1.27,0,.23,0,1.12-.81,1.12-.87,0-.87-.91-.87-2.14,0-1.91-.23-2.44-1.35-2.99v-.15c1.29.19,1.67-.66,2.43-2.43.4-.93,2.24-5.74,2.29-5.91l.15.04c-.57,2.9-.82,3.77-2.14,8.62Zm.78-8.93c-.55,0-.76-.49-.93-.91-.13-.29-.53-1.18-1.19-1.84l.02-.09c.99.17,2.84.64,2.84,2.01,0,.59-.38.83-.74.83Zm12.91,3.17h-7.26c-.08.46-.19,1.08-.49,2.73h4.62l.57-.51c.15-.13.25-.19.34-.19.13,0,.25.06.38.19l.74.66c.1.09.15.19.15.34,0,.09-.09.23-.17.3-.06.06-.38.27-.49.32-.23,1.93-.53,4.42-1.38,5.65-.46.68-1.42,1.44-2.69,1.48-.11-.83-.66-1.38-1.69-2.16v-.11c.27.06,2.01.32,2.29.32.93,0,1.38-.95,1.72-2.56.36-1.63.36-2.67.36-3.28h-4.83c-.06.32-.25,1.4-.34,1.54-.27.38-.7.42-.85.42-.27,0-.61-.11-.61-.47,0-.08.02-.25.08-.47.46-1.61.7-3,.91-4.17-.76,0-1.69.02-2.43.17l-.38-.76c1.12.09,1.69.09,2.88.11l.68-3.94h-.64c-.32,0-1.35,0-2.24.17l-.38-.76c1.5.13,2.88.13,2.92.13h4.81l.64-.87c.13-.17.19-.23.26-.23.09,0,.19.04.38.19l1.1.87c.11.09.19.21.19.3,0,.13-.11.19-.28.19h-5.38l-.68,3.94h4.81l.78-.97c.13-.15.21-.23.3-.23s.19.08.34.21l1.06.95c.13.11.19.23.19.32,0,.15-.15.17-.3.17Z"/><path d="m142.47,21.07c-2.41,0-2.43-2.41-2.43-3.07s.42-3.54.49-4.13c.11-.99.17-1.4.17-1.95,0-.36,0-1.31-.87-1.31-1.55,0-4.61,3.54-5.44,4.68,0,1.4.06,2.77.17,4.17,0,.11.09,1.31.09,1.35,0,.32-.15,1.1-.36,1.55-.08.17-.23.23-.38.23-.32,0-.47-.34-.57-.76-.25-1.04-.28-1.16-.76-2.16l.09-.06c.15.13.7.61.81.61.09,0,.11-.09.11-.23,0-.27-.11-2.82-.11-3.35-.64.99-1.4,2.45-2.1,3.7-.3.55-.44.78-.76.78-.38,0-.51-.49-.51-.87,0-.49.04-.57.78-1.44.59-.72,1.91-2.84,2.62-4.79.02-.27.08-.85.13-1.46-.4.21-2.2,1.35-2.5,1.35-.61,0-1.12-.99-1.12-1.63,0-.23.06-.36.11-.47.25.25.66.66,1.18.66.45,0,2.01-.64,2.41-.81.04-.34.23-2.52.23-2.56,0-1.1-.55-1.23-1.54-1.44.21-.17.64-.49,1.23-.49.89,0,1.86.83,1.86,1.35,0,.25-.09.42-.3.95-.11.27-.25.61-.44,1.65.13.02.8.49.8.74,0,.11-.34.64-.55.97-.28.45-.47.87-.59,1.14,0,.19-.02.28-.02.64,1.16-1.55,3.94-4.72,5.76-4.72.8,0,1.86.49,1.86,2.03,0,1.12-.4,3.66-.49,4.19-.09.55-.21,1.44-.21,2.14,0,.76.04,1.46,1.12,1.46,1.35,0,3.39-1,4.13-1.55l.11.11c-.72.95-2.33,2.84-4.23,2.84Z"/><path d="m149.59,16.36c-.83,0-1.52-.68-1.52-1.52s.68-1.52,1.52-1.52,1.52.64,1.52,1.52-.7,1.52-1.52,1.52Z"/><path d="m157.7,7.75c-.21.38-1,2.14-1.16,2.5l.62.27c.19.08.34.13.34.3,0,.23-.28.42-.51.55v4.13c0,1.04.11,5.61.11,6.54,0,.59,0,1.5-1.1,1.5-.19,0-.46-.15-.46-.51,0-.13.04-.64.04-.74.17-2.92.17-4.15.17-10.35-.68,1.38-1.52,2.79-2.6,3.7l-.15-.11c1.29-2.16,3.13-7.24,3.32-8.02.02-.06.11-.62.17-1.33l1.61.8c.15.08.28.17.28.3,0,.17-.19.3-.7.47Zm12.55,8.21h-7.66c-.55.81-.83,1.17-1.02,1.38h5.89l.46-.53c.06-.06.21-.19.3-.19s.23.08.34.17l.76.61c.11.1.21.19.21.29,0,.21-.38.42-.57.53-.34,4.59-1.69,5.12-3.18,5.42-.25-.89-1.1-1.5-1.55-1.67l.04-.13c.61.09,1.27.17,1.78.17.59,0,.82-.08,1.06-.59.27-.55.63-2.24.63-3.62h-1.37c-1.46,3.35-3.39,5.1-7.24,5.8l-.06-.15c2.77-1.06,4.68-2.65,5.97-5.65h-1.52c-1.76,2.94-3.35,3.9-5.19,4.57l-.08-.15c1.44-.93,3.17-2.86,3.98-4.42h-1.02c-.97,1.1-1.93,2.03-3.77,2.88l-.09-.13c1.76-1.35,3.09-3.43,3.66-4.59h-.87c-.46,0-1.4.02-2.24.17l-.38-.76c1.52.11,2.62.13,2.92.13h7.47l.64-.8c.11-.13.21-.25.3-.25s.25.1.36.17l1.16.83c.08.06.19.17.19.28,0,.21-.17.21-.3.21Zm-.61-7.03h-8.89c-1.23,1.78-1.67,2.43-3.11,3.47l-.11-.11c1.23-1.61,2.96-4.74,3.09-6.18l1.54.72c.08.04.25.13.25.28,0,.23-.17.27-.68.44-.09.13-.55.78-.64.93h6.25l.64-.81c.13-.17.21-.25.28-.25.09,0,.23.09.34.19l1.14.83c.08.06.19.17.19.28,0,.19-.19.21-.28.21Zm-2.6,2.03v1.06c0,.32.09,1.82.09,2.1,0,.51-.47.83-.83.83-.42,0-.42-.3-.44-.62h-3.83c.02.62-.61.64-.76.64-.08,0-.47-.02-.47-.45,0-.09.08-1.31.08-1.55,0-.36-.02-2.12-.02-2.52s0-.51-.02-.78l1.21.49h3.64l.47-.49c.06-.06.15-.13.23-.13s.17.08.23.13l.66.59c.06.06.13.17.13.27,0,.15-.09.23-.38.44Zm-1.16-.34h-3.87v1.29h3.87v-1.29Zm0,1.74h-3.87v1.52h3.87v-1.52Z"/><polygon class="cls-2" points="252.09 15.82 230.37 .27 230.37 9.29 205.21 9.29 205.21 22.35 230.37 22.35 230.37 31.36 252.09 15.82"/><path d="m279.02,9.02c-.04.59-.04,8.22.04,11.56,0,.23.11,1.23.11,1.44,0,.47-.4.83-.95.83-.3,0-.64-.11-.64-.47,0-.11.02-.64.02-.76h-11.43c.02.38.08,1.14-.91,1.14-.51,0-.64-.23-.64-.49,0-.09.02-.36.06-.63.13-1.29.15-8.43.15-10.14,0-3.33-.02-3.54-.25-4.61l1.78.93h2.39l.53-.57c.13-.15.23-.23.32-.23s.21.08.38.21l.76.59c.13.11.21.21.21.32,0,.13-.08.23-.57.61-.04.7-.04,1.06-.04,1.78,0,.91,0,1.31.08,4.09h2.63c0-.59.04-3.98.04-4.19,0-2.1-.08-2.39-.32-3.49l1.8.91h2.84l.53-.46c.17-.15.27-.23.38-.23.09,0,.23.1.38.23l.7.64c.13.13.21.21.21.3,0,.13-.06.21-.59.66Zm-1.42-.7h-3.24c-.02,1.29,0,2.62.02,3.9.02.44.11,2.6.11,3.09,0,.87-.81.87-.93.87-.53,0-.53-.23-.53-1.1h-2.62c.02.34.06,1.19-.97,1.19-.47,0-.51-.36-.51-.68,0-.38.08-3.03.09-3.53,0-.28.02-3.18.04-3.79h-2.9v12.89h11.43v-12.85Z"/><path d="m297.57,19.82c-.25,0-.49-.13-1.02-.59-1.12-.99-1.89-1.44-2.25-1.67-1.23,2.48-2.84,4.28-4.74,5.1l-.06-.08c1.61-1.59,2.86-3.51,3.71-5.61-1.36-.66-2.77-1.21-4.7-1.4-.62,1.21-2.63,5.21-4.36,5.21-.91,0-1.57-1.52-1.57-2.29,0-2.31,2.71-3.51,5.15-3.7,1.37-3.09,2.14-5.72,2.14-5.8,0-.13-.11-.19-.21-.19-.49,0-1.54.7-1.91.95-.34.23-.53.32-.68.32-.44,0-1.23-.72-1.23-1.57,0-.42.17-.62.28-.8.21.59.72.81,1.08.81.32,0,1.74-.36,2.62-.7.19-.08.76-.3.85-.3.34,0,1.19.68,1.19,1.12,0,.21-.04.25-.47.83-.59.76-1.93,3.9-2.5,5.27,1.82.15,3.79.74,4.74,1.12.11-.34.44-1.46.44-2.16,0-.59-.23-.99-.72-1.59.15-.06.3-.09.47-.09.78,0,1.71,1.04,1.71,1.63,0,.34-.42,1.91-.74,2.73,1.55.76,3.43,1.71,3.43,2.73,0,.57-.4.72-.64.72Zm-14.19-1.67c0,.83.55,1.42.97,1.42.74,0,2.46-2.65,3.01-3.96-1.12-.11-3.98.8-3.98,2.54Z"/><path d="m302.17,16.36c-.83,0-1.52-.68-1.52-1.52s.68-1.52,1.52-1.52,1.52.64,1.52,1.52-.7,1.52-1.52,1.52Z"/><path d="m310.7,10.42l.44-.59c.17-.23.23-.25.3-.25s.15.02.34.21l.62.59c.06.06.19.19.19.3,0,.17-.15.19-.28.19h-2.07v3.75c.89-.38,1.72-.78,2.63-1.19l.09.13c-.76.66-2.25,1.63-2.71,1.91,0,.91.04,5.59.04,5.76,0,.64-.04,1.33-.83,1.91-.66.49-1.25.53-1.54.55-.21-1.25-1.23-1.86-1.42-1.95l.02-.11c.38.06.78.13,1.52.13.32,0,.85,0,.89-.17.06-.19.06-.82.06-1.71v-3.62c-.3.19-1.61,1.02-1.88,1.19-.04.13-.09.38-.11.46-.04.13-.13.21-.26.21-.11,0-.23-.11-.3-.21l-1.16-1.65c.61,0,.97,0,3.71-1.12l-.06-4.28h-.3c-.34,0-1.33,0-2.24.17l-.38-.74c1.31.09,2.08.11,2.92.11-.02-.49-.02-2.65-.04-3.11-.04-.47-.21-.97-.32-1.27l1.97.7c.15.06.25.13.25.27,0,.11-.06.21-.17.28-.08.06-.27.19-.38.27-.02.45,0,2.46,0,2.86h.46Zm5.74,5.5c-.51,2.86-1.52,6.16-6.48,7.58l-.04-.15c3.22-1.52,4.68-4.04,5.29-7.43h-.87c-.32,0-1.35.02-2.24.17l-.38-.76c1.5.13,2.88.13,2.92.13h.64c.21-1.44.21-2.5.21-4.55-.38.02-1.16.04-1.91.17l-.36-.74c.74.06,1.46.09,2.27.11-.04-1.72-.13-3.22-.17-3.49-.04-.36-.08-.53-.23-.85l2.03.51c.11.04.34.15.34.32s-.08.21-.7.62c.02.95.04,1.97.02,2.88h2.14l.55-.63c.09-.09.15-.21.26-.21.09,0,.17.08.29.15l.85.64c.09.08.21.17.21.27,0,.17-.08.26-.59.51,0,.66-.08,3.62-.11,4.26h.74l.68-.87c.13-.17.19-.25.32-.25.09,0,.26.15.32.21l.87.87c.11.09.19.19.19.28,0,.21-.19.21-.28.21h-6.18c.76,2.65,3.09,4.95,6.42,6.08v.13c-1.02.13-1.38.19-2.1,1.06-1.65-1-4-3.79-4.64-7.28h-.28Zm2.69-.46c0-.72.11-3.88.11-4.55h-2.46c-.04,2.1-.08,3.22-.27,4.55h2.62Z"/><path d="m337.68,21.07c-2.41,0-2.43-2.41-2.43-3.07s.42-3.54.49-4.13c.11-.99.17-1.4.17-1.95,0-.36,0-1.31-.87-1.31-1.55,0-4.61,3.54-5.44,4.68,0,1.4.06,2.77.17,4.17,0,.11.09,1.31.09,1.35,0,.32-.15,1.1-.36,1.55-.08.17-.23.23-.38.23-.32,0-.47-.34-.57-.76-.25-1.04-.28-1.16-.76-2.16l.09-.06c.15.13.7.61.81.61.09,0,.11-.09.11-.23,0-.27-.11-2.82-.11-3.35-.64.99-1.4,2.45-2.1,3.7-.3.55-.44.78-.76.78-.38,0-.51-.49-.51-.87,0-.49.04-.57.78-1.44.59-.72,1.91-2.84,2.62-4.79.02-.27.08-.85.13-1.46-.4.21-2.2,1.35-2.5,1.35-.61,0-1.12-.99-1.12-1.63,0-.23.06-.36.11-.47.25.25.66.66,1.18.66.45,0,2.01-.64,2.41-.81.04-.34.23-2.52.23-2.56,0-1.1-.55-1.23-1.54-1.44.21-.17.64-.49,1.23-.49.89,0,1.86.83,1.86,1.35,0,.25-.09.42-.3.95-.11.27-.25.61-.44,1.65.13.02.8.49.8.74,0,.11-.34.64-.55.97-.28.45-.47.87-.59,1.14,0,.19-.02.28-.02.64,1.16-1.55,3.94-4.72,5.76-4.72.8,0,1.86.49,1.86,2.03,0,1.12-.4,3.66-.49,4.19-.09.55-.21,1.44-.21,2.14,0,.76.04,1.46,1.12,1.46,1.35,0,3.39-1,4.13-1.55l.11.11c-.72.95-2.33,2.84-4.23,2.84Z"/></svg>