<?xml version="1.0" encoding="UTF-8"?><svg id="_レイヤー_1" xmlns="http://www.w3.org/2000/svg" viewBox="0 0 517.61 209.71"><defs><style>.cls-1{fill:#fff;}.cls-2{fill:#867437;}.cls-3{fill:#00b8ee;}.cls-4{fill:#f9bf11;}.cls-5{fill:#666;}</style></defs><path class="cls-3" d="m165.34,50.64h-24.01c-2.73,0-5.02-.93-6.87-2.81-1.85-1.87-2.64-4.04-2.38-6.52l2.48-22.73h10.58l-2.45,22.5c-.09.84.18,1.57.8,2.2.63.63,1.4.94,2.32.94h9.65l2.79-25.65h10.58l-3.49,32.06Z"/><path class="cls-3" d="m200.02,50.64h-17.88c-2.75,0-5.06-.93-6.93-2.81-1.87-1.87-2.66-4.05-2.39-6.56l1.46-13.39c.27-2.46,1.54-4.62,3.81-6.5,2.27-1.87,4.76-2.8,7.47-2.8h17.95l-.7,6.41h-14.17c-.94,0-1.79.3-2.54.91-.75.61-1.17,1.34-1.26,2.19l-1.41,12.98c-.09.84.18,1.57.8,2.2.63.63,1.39.94,2.31.94h14.18l-.7,6.41Z"/><path class="cls-3" d="m242.02,41.28c-.28,2.51-1.54,4.69-3.8,6.56-2.26,1.87-4.77,2.81-7.52,2.81h-14.7c-2.73,0-5.02-.93-6.87-2.81-1.86-1.87-2.65-4.04-2.37-6.52l1.46-13.37c.27-2.52,1.54-4.71,3.8-6.58,2.26-1.86,4.77-2.78,7.55-2.78h14.7c2.72,0,5.01.93,6.85,2.78,1.84,1.86,2.63,4.03,2.36,6.52l-1.46,13.39Zm-10.56-.19l1.41-12.98c.09-.84-.17-1.56-.78-2.18-.62-.62-1.38-.92-2.3-.92h-7.23c-.94,0-1.79.3-2.53.91-.75.61-1.17,1.34-1.26,2.19l-1.41,12.98c-.09.84.18,1.57.8,2.2.63.63,1.39.94,2.31.94h7.23c.92,0,1.75-.32,2.5-.94.75-.63,1.17-1.36,1.27-2.2Z"/><path class="cls-3" d="m291.88,50.64h-10.58l2.45-22.54c.09-.84-.17-1.56-.79-2.18-.62-.62-1.38-.92-2.29-.92h-3.18l-2.79,25.64h-10.58l2.79-25.64h-3.14c-.94,0-1.79.3-2.53.91-.74.61-1.17,1.34-1.26,2.19l-2.45,22.54h-10.58l2.47-22.76c.28-2.46,1.55-4.62,3.82-6.5,2.27-1.87,4.76-2.8,7.46-2.8h24.45c2.72,0,5,.93,6.85,2.78,1.85,1.86,2.63,4.03,2.36,6.52l-2.47,22.76Z"/><path class="cls-4" d="m367.83,29.16l1.18-4.37h-11.66c.68-1.67,2.73-6.71,3.33-8.63,1.03-3.31-1.33-4.61-3.61-4.61h-6.57l-4.46,13.24h-3.8l6.86-24.79h-13.06s-6.63,24.56-6.63,24.56l-6.06-11.46h-10.58l6.09,11.69h-13.6l-.83,4.37h28.58l-8.09,26.18c-1.32,4.83-1.29,7.09,4.05,7.09h28.19l5.48-10.2h-24.17l6.49-23.08h22.86Zm-41.72,8.48c1.66-3.22,1.44-5.36-2.69-5.36h-5.85l-17.07,27.21h-170.77l-.28,2.95h182.77s12.52-22.15,13.89-24.8Z"/><path class="cls-5" d="m218.99,71.27h3.9c.5.12.9.37,1.2.75.23.26.34.73.34,1.43v.66c0,.65-.12,1.08-.34,1.29l-.11.14v.06c.32.31.49.73.49,1.26v2.84c-.05.12-.13.17-.23.17h-1.61c-.15,0-.23-.09-.23-.26v-2.78c-.06-.32-.22-.49-.49-.49h-.8l-.12.11v3.09c0,.21-.07.32-.23.32h-1.62c-.11,0-.19-.09-.23-.26l-.02-8.26.09-.09Zm2.01,1.75v1.69l.09.09h.89c.23,0,.37-.17.43-.52v-.92c-.07-.31-.26-.46-.57-.46h-.72l-.12.11Z"/><path class="cls-5" d="m236.48,71.27h4.96l.09.09v1.29c0,.13-.07.2-.2.2h-2.84c-.11,0-.17.06-.17.17v1.49l.08.09h2.41c.17,0,.26.07.26.2v1.23c0,.11-.06.17-.17.17h-2.41c-.11,0-.17.06-.17.17v1.43c0,.32.25.49.74.49h2.41c.13,0,.2.06.2.2v1.29l-.09.09h-3.7c-.55-.14-.96-.43-1.23-.86-.19-.39-.29-.76-.29-1.12v-6.28c0-.23.04-.34.11-.34Z"/><path class="cls-5" d="m255.08,71.27h3.67l.09.09v1.35c0,.1-.04.17-.11.2h-2.61c-.3.09-.46.25-.46.49v.6c0,.32.29.52.86.6.15,0,.75.14,1.81.43.52.31.77.83.77,1.55v1.21c0,.94-.41,1.59-1.23,1.95l-.72.14h-3.24c-.1,0-.19-.06-.26-.17v-1.43l.17-.14.2.03h2.52c.31-.06.46-.22.46-.46v-.72c0-.26-.12-.43-.37-.52-1.72-.36-2.58-.62-2.58-.77-.32-.28-.49-.72-.49-1.32v-1.23c0-.79.39-1.37,1.18-1.75l.34-.11Z"/><path class="cls-5" d="m271.11,71.27h1.83c.08.03.11.11.11.26v8.26l-.08.09h-1.86c-.08-.03-.12-.11-.12-.26v-8.08c0-.14.04-.23.12-.26Z"/><path class="cls-5" d="m289.03,71.27c.59.09,1.02.28,1.28.56.18.29.27.63.27,1.04l.03,5.13c-.03.42-.21.83-.55,1.23-.42.4-.86.61-1.32.63h-3.61c-.06,0-.11-.08-.17-.23v-8.05c0-.21.07-.32.2-.32h3.87Zm-2.04,1.58v5.33c0,.06.04.09.12.09h.89c.37,0,.56-.13.57-.4v-4.62c0-.29-.24-.42-.72-.4h-.86Z"/><path class="cls-5" d="m302.61,71.27h4.96l.09.09v1.29c0,.13-.07.2-.2.2h-2.84c-.11,0-.17.06-.17.17v1.49l.09.09h2.41c.17,0,.26.07.26.2v1.23c0,.11-.06.17-.17.17h-2.41c-.11,0-.17.06-.17.17v1.43c0,.32.25.49.74.49h2.41c.13,0,.2.06.2.2v1.29l-.09.09h-3.7c-.55-.14-.96-.43-1.23-.86-.19-.39-.29-.76-.29-1.12v-6.28c0-.23.04-.34.12-.34Z"/><path class="cls-5" d="m319.79,71.27h2.75c.11.08.37.77.77,2.06l.95,2.81h.09v-4.65c.03-.15.07-.22.11-.22h1.95l.08.09v8.43l-.08.09h-2.67c-.12,0-.21-.13-.26-.4l-1.52-4.5h-.09v4.67c0,.15-.06.23-.17.23h-1.92l-.09-.09v-8.43l.09-.09Z"/><path class="cls-5" d="m340.34,71.27h3.24c.17,0,.26.11.26.32v1.2c0,.21-.11.31-.32.31h-2.69c-.15,0-.23.07-.23.23v4.45c.02.18.11.29.28.31h2.7c.17,0,.26.07.26.2v1.35c0,.15-.06.23-.17.23h-3.67c-.38-.08-.74-.29-1.06-.6-.36-.4-.54-.89-.54-1.46v-4.53s0-.14,0-.14c0-.39.18-.81.54-1.26.43-.38.87-.57,1.32-.57l.09-.03Z"/><path class="cls-5" d="m355.86,71.27h4.96l.09.09v1.29c0,.13-.07.2-.2.2h-2.84c-.11,0-.17.06-.17.17v1.49l.09.09h2.41c.17,0,.26.07.26.2v1.23c0,.11-.06.17-.17.17h-2.41c-.11,0-.17.06-.17.17v1.43c0,.32.25.49.75.49h2.41c.13,0,.2.06.2.2v1.29l-.09.09h-3.7c-.55-.14-.96-.43-1.23-.86-.19-.39-.29-.76-.29-1.12v-6.28c0-.23.04-.34.11-.34Z"/><rect class="cls-2" y="97.15" width="251.19" height="112.56"/><path class="cls-1" d="m67.06,129.97c-.85.74-1.7,1.29-2.08,1.53.66.36,1.48.93,1.48,1.99,0,.83-.55.96-.87.96-.55,0-1-.32-1.36-1.29-.47-1.25-.95-1.85-1.21-2.1.02.68.04,3.71.06,4.35,0,.62.11,3.37.11,3.92,0,.62-.25,1.17-1.17,1.17-.72,0-.72-.36-.72-.59,0-.04.02-.34.04-.74.15-2.33.13-3.1.15-6.81-.89.76-2.46,1.99-4.2,2.71l-.08-.11c2.91-2.38,6.53-7.68,7.06-8.91h-3.61c-1.31,0-1.76.04-2.31.15l-.34-.78c1.29.11,2.8.13,3.03.13h.38c-.02-1.38-.06-2.78-.57-4.07l2.52.57c.19.04.32.19.32.34,0,.17-.17.3-.66.74-.04.51-.04.7-.06,2.42h1.17l.68-.55c.11-.08.21-.17.32-.17s.25.11.34.19l1.25,1.06c.11.08.15.23.15.34,0,.23-.13.32-.87.55-.87,1.4-1.74,2.57-2.95,3.84.32.08.83.19,1.59.53.06-.17.78-1.99.91-3.05l1.76,1c.13.08.23.19.23.34,0,.23-.11.25-.51.36Zm8.34-4.43c.04.59.06,1.38.06,2.59,0,4.03-.28,8.4-.87,9.67-.91,1.97-2.65,2.08-3.52,2.1-.11-1.31-.89-2.04-1.74-2.78v-.11c1.15.47,2.27.59,2.61.59.68,0,.95-.47,1.25-1.57.15-.53.53-2.46.53-5.81,0-1.8-.06-3.63-.13-5.45h-2.65c0,2.27-.04,4.67-.32,6.87-.28,2.12-1.63,6.53-6.81,8.33v-.17c4.96-3.75,5.26-7.21,5.32-15.04-1.12,0-1.63.08-1.97.15l-.34-.79c1.27.13,2.78.13,3.01.13h3.63l.61-.55c.11-.08.23-.23.34-.23s.21.11.32.19l1.1.87c.13.11.25.19.25.36,0,.23-.42.49-.7.64Z"/><path class="cls-1" d="m83.16,136.57c-2.14,2.42-3.05,3.27-4.75,4.16l-.11-.08c1.34-1.8,2.67-3.78,3.14-5.09.06-.17.08-.25.21-1l2.16,1.32c.08.04.15.13.15.23,0,.32-.57.42-.81.47Zm6.07-2.29h-8c-1.48,0-1.89.06-2.29.13l-.36-.76c.93.06,1.38.08,2.59.11,0-.89.04-5.77.04-6.36,0-1.23-.02-1.59-.04-2.08-.74.02-1.12.04-1.74.15l-.34-.79c.42.04,1.02.08,2.08.11-.08-2.06-.17-2.33-.47-3.35l2.57.64c.17.04.21.15.21.25,0,.19-.08.25-.66.76-.02.47-.04.81-.02,1.72h2.59c-.04-1.76-.13-2.27-.38-3.39l2.33.68c.15.04.23.11.23.21s-.06.17-.55.68c-.02.3-.02,1.44-.02,1.82h.38l.53-.87c.06-.08.17-.25.32-.25.17,0,.38.19.51.34l.62.74c.04.06.19.21.19.32,0,.21-.19.23-.32.23h-2.25v3.25c0,1.46-.02,3.75-.02,5.22h.19l.64-.79c.19-.23.23-.28.34-.28s.3.15.38.23l.83.78c.13.13.21.19.21.32,0,.21-.19.23-.32.23Zm-3.84-8.97h-2.59v2.23h2.61c0-.61,0-1.63-.02-2.23Zm.02,2.74h-2.61v2.48h2.61v-2.48Zm0,2.99h-2.61v2.74h2.61v-2.74Zm1.65,7.64c-.57,0-.72-.25-1.42-1.65-.32-.64-.23-.7-1.27-1.74l-.13-.13.06-.08c2.57.57,3.71,1.38,3.71,2.57,0,.49-.25,1.04-.95,1.04Zm9.84-15.53c-.08.11-.51.53-.59.64-.06.93-.06,1.68-.06,2.14,0,1.7.11,10.01.11,11.9,0,1.19,0,2.27-2.48,2.93-.4-1.72-1.89-2.33-2.4-2.54l.02-.19c1.06.15,1.76.19,2.31.19.91,0,.95-.21.95-.7v-5.43h-3.27c-.17,2.16-.51,6.41-5.01,8.61v-.06c3.54-3.58,3.54-7,3.54-13.34,0-.72-.04-3.75-.19-4.69-.04-.19-.23-1.04-.25-1.23l1.99,1.04h2.97l.47-.53c.23-.25.25-.3.34-.3.06,0,.19.11.28.17l1.21.96c.06.04.17.15.17.25,0,.08-.06.15-.11.19Zm-2.14,4.37h-3.14c0,.17.02,1.04.02,1.23,0,1.42-.06,2.25-.11,2.82h3.22v-4.05Zm0-4.6h-3.14v4.09h3.14v-4.09Z"/><path class="cls-1" d="m112.96,130.93l.49-.47c.13-.13.23-.23.32-.23s.21.11.32.19l.81.66c.15.11.19.21.19.36,0,.17-.08.28-.38.51.02.79.04,1.46.04,2.61,0,.36.11,1.95.11,2.27,0,.81-1.12.91-1.27.91-.17,0-.45-.08-.45-.4v-.19h-6.36l1.48,1.21c.11.08.21.19.21.36,0,.19-.21.25-.34.25-.06,0-.15,0-.28-.04-1.76.76-4.31,1.68-6.26,1.68-.38,0-.55-.02-.87-.06l.02-.13c1.44-.15,3.52-1.27,4.86-2.12.85-.53.91-.7,1.12-1.15h-1c-.02.3-.04.45-.3.62-.19.13-.62.28-.91.28s-.49-.17-.49-.49c0-.19.08-1.06.08-1.23.04-.79.06-4.28.08-5.01-1.87.83-3.44.91-4.28.96l-.06-.13c3.05-.83,4.98-2.35,5.81-4.07h-2.46c-.42,1.17-.55,1.55-1.36,1.55-.7,0-.87-.42-.87-.64,0-.32.83-2.1.98-2.5.13-.36.47-1.29.51-2.14l1.8,1.04h2.08c.08-.78.08-1.27.11-1.63h-3.01c-1.31,0-1.76.04-2.29.15l-.36-.79c1.29.11,2.8.13,3.03.13h2.63c-.04-1.29-.21-1.72-.38-2.14l2.38.59c.32.08.36.19.36.3s-.06.23-.61.55c-.02.3-.02.38-.02.7h2.71c-.02-.81-.11-1.17-.38-2.02l2.18.47c.23.04.38.17.38.36s-.21.3-.57.49c0,.15-.02.55-.02.7h2.21l.51-.47c.11-.08.21-.21.3-.21s.25.11.34.17l.91.7c.17.13.23.19.23.34,0,.17-.06.21-.55.62-.02.21-.04.38-.04.62,0,.08,0,1.08-.02,1.21-.11.55-.89.64-1.02.64-.36,0-.68-.15-.68-.55,0-.11,0-.17.02-.4h-2.23c0,.28.02,1.44.02,1.68h3.48l.51-.53c.13-.13.3-.23.4-.23.13,0,.28.08.42.21l.85.72c.21.17.28.3.28.45,0,.28-.21.4-.59.55-1.02,1.82-1.23,2.23-2.8,2.23.02-.36-.13-1.27-.91-1.84v-.15s1.21.11,1.29.11c.3,0,.34-.11.59-1h-3.52c.02.66.02,1.8,0,1.99-.08.55-.78.62-.98.62-.45,0-.76-.17-.76-.64,0-.17.08-.87.08-1.97h-3.48c-.38,1.06-.93,1.85-1.97,2.59l.53.28h7.06Zm-7.08-3.37c.21-.57.3-1,.4-1.68h-2.31c-.34,1.08-.38,1.19-.55,1.68h2.46Zm-.13,3.88v1.38h7.38v-1.38h-7.38Zm7.38,1.89h-7.38v1.38h7.38v-1.38Zm0,3.31v-1.42h-7.38v1.42h7.38Zm-2.31-9.08c0-.4.02-1.31.02-1.68h-2.97c-.13.85-.3,1.51-.36,1.68h3.31Zm.04-2.18v-1.63h-2.74c-.04.4-.08.91-.17,1.63h2.91Zm-.53,12.37c.55-.08.95-.08,1.19-.08,1.46,0,5.22.57,5.22,2.29,0,.19-.19,1-.89,1-.47,0-.7-.17-1.38-.72-2.06-1.63-3.14-2.08-4.14-2.35v-.13Zm4.39-12.37c.02-.23.04-1.38.04-1.63h-2.31v1.63h2.27Z"/><path class="cls-1" d="m135.87,123l.81-.66c.21-.17.23-.19.3-.19.11,0,.28.13.38.19l1.06.79c.15.11.25.23.25.4,0,.21-.08.28-.87.81-.08,1.91.04,13.66-.17,14.46-.3,1.12-1.59,1.55-2.59,1.72-.32-.98-.68-1.72-2.08-2.46l.08-.19c1.02.19,1.68.23,1.99.23.76,0,.85-.23.85-.81,0-.68.04-2.86.06-3.58h-4.62c0,1.46.08,3.82.08,5.28,0,.49,0,1.53-1.27,1.53-.83,0-.89-.57-.89-.95,0-.23.11-1.21.11-1.44.02-.7.13-3.78.17-4.41h-4.26c-.17,1.14-.49,2.57-1.99,4.3-1.1,1.25-2.08,1.91-2.69,2.29l-.17-.15c1.55-1.36,2.44-3.16,2.97-5.9.34-1.78.42-6.7.42-8.72,0-.74,0-1.72-.38-3.56l2.33,1.02h10.12Zm-10.31,5.45c-.02,1.08-.13,3.84-.21,4.75h4.2l.06-4.75h-4.05Zm0-4.94v4.43h4.05v-4.43h-4.05Zm10.41,9.69l.02-4.75h-4.58l-.08,4.75h4.64Zm.02-5.26l.04-4.43h-4.65c0,.64.04,3.73.02,4.43h4.58Z"/><path class="cls-1" d="m156.62,127.01c0,7.27-3.07,12.8-7.5,12.8s-7.5-5.7-7.5-12.8,3.1-12.76,7.5-12.76,7.5,5.67,7.5,12.76Zm-11.3,0c0,4.43.33,11.73,3.8,11.73s3.8-7.06,3.8-11.73c0-4.37-.33-11.7-3.8-11.7s-3.8,7.1-3.8,11.7Z"/><path class="cls-1" d="m173.1,123.19l.93-.98c.06-.06.17-.19.3-.19.08,0,.21.08.3.17l1.27,1.17c.11.11.19.21.19.34,0,.17-.15.36-.81.76-.04,1.85-.06,4.96.04,9.14.04,1.15.15,2.97.15,4.11,0,1.06,0,2.52-2.93,2.86-.19-1.38-1.15-1.99-1.93-2.5l.04-.15c.59.11,1.46.17,2.08.17.57,0,.79-.17.79-1.02.02-1.34,0-2.67.02-5.15h-12.13c0,.51.02,3.08.02,3.14,0,.49.13,4.2.13,4.33,0,1.06-.78,1.21-1.34,1.21-.81,0-.81-.45-.81-.74,0-.28.08-1.48.08-1.74.04-1.59.13-10.07.13-12,0-2.82-.13-3.69-.23-4.39l2.44,1.46h11.26Zm-11.71.51v7.72h5.15v-7.72h-5.15Zm12.15,7.72v-7.72h-5.22v7.72h5.22Z"/><path class="cls-1" d="m194.31,125.69c-1.25,0-2.78,0-3.82.32-2.21.68-4.58,3.46-4.58,6.62,0,1.02.45,3.14,3.35,4.03.45.13,2.52.53,2.88.74.51.3.72.66.72,1.1,0,.81-.66.81-1.06.81-.53,0-2.16-.28-3.73-1.02-3.14-1.51-3.27-4.16-3.27-5.2,0-3.27,1.95-5.3,4.28-7.28-1.15-.11-5.05,1.44-6.87,2.29-1.06.49-1.19.53-1.48.53-.59,0-1.68-.66-1.68-2.02,0-.7.3-1.08.47-1.34.45.96.95,1.25,1.7,1.25.68,0,10.5-2.33,10.97-2.48.85-.3,1.27-.42,1.63-.42,1,0,1.99.64,1.99,1.27,0,.79-.66.79-1.51.79Zm-.59,5.34c-.55,0-.72-.32-1.12-1.15-.28-.55-1.04-1.53-1.63-2.21,1.25.36,3.46,1,3.46,2.52,0,.36-.17.83-.7.83Zm2.44-.98c-.47,0-.66-.32-1.15-1.23-.49-.89-1.36-1.53-1.85-1.87,1.57.08,3.73,1,3.73,2.31,0,.57-.47.79-.74.79Z"/><path class="cls-1" d="m44.19,168.58c1.83-3.6,2.43-4.7,5.4-8.23,4.27-5.13,5.73-6.9,5.73-10.26,0-1.5-.77-4.5-3.9-4.5-1.63,0-3.5.83-3.5,2.57,0,.53.13.7.63,1.4.2.27.53.83.53,1.53,0,1.03-.77,2.07-1.97,2.07-1.3,0-2.2-1.13-2.2-2.43,0-2.37,2.33-6.17,7.03-6.17,4.23,0,6.96,2.9,6.96,6.33,0,3.63-2.33,5.57-6.2,8.73-1.67,1.4-4.3,3.57-6.13,6.8h6.33c3.3,0,4.63-2.17,5.4-4.1l.73.27-1.63,6.9h-13.23v-.9Z"/><path class="cls-1" d="m60.59,161.51l10.26-16.96h1.67v16.96h3.43v1.1h-3.43v3.77c0,1.33.6,2.03,1.87,2.03h.87v1.07h-8.76v-1.07h.83c1.07,0,1.93-.77,1.93-2.1v-3.7h-8.66v-1.1Zm1.27,0h7.4v-12.26l-7.4,12.26Z"/><path class="cls-1" d="m84.08,155.2c-.02.66-.04,1.21-.04,2.46,0,1.74.02,2.86.17,7.57,0,.19.04,1.02.04,1.19,0,.68-.87.89-1.23.89-.62,0-.62-.45-.62-.66,0-.06.04-.93.04-1.04h-2.31c0,.28.04,1.65.04,1.85,0,.95-.91,1.08-1.23,1.08-.68,0-.68-.38-.68-.72,0-.21.08-1.19.08-1.38.04-.93.11-8.31.11-8.4,0-2.95-.11-3.78-.3-5.18l2.12,1.04h1.87l.68-.68c.19-.19.28-.21.36-.21.15,0,.32.15.4.21l1.02.89c.08.08.21.21.21.34,0,.23-.21.38-.74.74Zm-1.61-.78h-2.35v4.98h2.35v-4.98Zm0,5.49h-2.35v5.2h2.35v-5.2Zm13.96-.4h-9.52c-1.29,0-1.76.04-2.29.15l-.34-.78c1.27.13,2.78.13,3.01.13h1.76c0-.49.02-2.48.02-3.27h-.98c-1.29,0-1.76.06-2.29.15l-.34-.78c1.29.13,2.78.13,3.01.13h.59c0-2.27-.11-2.63-.36-3.44l2.46.7c.32.08.4.28.4.38,0,.21-.25.38-.72.66-.02.45-.04.72-.06,1.7h1.63l.98-1.04c.23-.23.23-.28.34-.28.08,0,.17.04.38.23l1.21,1.04c.13.11.21.19.21.34,0,.19-.17.21-.32.21h-4.43v3.27h2.76l.91-1.1c.17-.19.21-.25.32-.25.13,0,.17.04.42.23l1.34,1.08c.11.08.21.19.21.32,0,.21-.19.23-.32.23Zm-.08,3.61h-3.42c0,.32-.02,1.74-.02,2.02,0,.51.06,2.74.06,3.2,0,1.85-1,2.52-3.03,2.84-.17-.78-.36-1.53-1.87-2.4l.06-.13s1.59.15,2.08.15c.89,0,1-.21,1-.93s.04-4.07.04-4.75h-4.09c-1.29,0-1.76.04-2.29.15l-.36-.78c1.29.11,2.8.13,3.03.13h3.69c-.02-.95-.04-2.18-.3-2.88l2.18.53c.34.08.49.13.49.32,0,.21-.21.32-.66.57,0,.08-.02,1.27-.02,1.46h.47l1.15-1.17c.23-.23.28-.28.36-.28.15,0,.34.19.38.23l1.17,1.17c.17.17.21.21.21.32,0,.21-.17.23-.32.23Zm-8.14,4.6c-.72,0-.89-.74-.98-1.21-.19-1.02-.28-1.36-1.12-2.71l.08-.08c.62.25,3.03,1.23,3.03,2.93,0,.64-.51,1.08-1.02,1.08Z"/><path class="cls-1" d="m108.09,153.49c.08.06.13.15.13.32,0,.23-.64.66-.74.74,0,.66.08,3.88.08,4.62,0,.62-.78.85-1.25.85-.4,0-.55-.32-.55-.57,0-.13.02-.23.04-.36h-3.48c.02,2.04.02,4.39.02,6.11,0,1,0,3.39.08,4.31.02.23.02.38.02.45,0,.83-1.08.95-1.27.95-.64,0-.64-.45-.64-.59,0-.36.13-2.1.15-2.5.06-2.06.06-3.2.06-13.43,0-.81-.04-1.25-.23-2.23l2.18,1.04h2.84l.7-.57c.15-.13.25-.19.36-.19.08,0,.19.08.25.13l1.23.93Zm-5.77,2.29h3.5v-2.08h-3.5v2.08Zm0,2.8h3.5v-2.29h-3.5v2.29Zm7.89,2.93l.4-.57c.11-.17.19-.28.4-.28.13,0,.3.15.38.21l.83.7c.15.13.19.17.19.28,0,.13-.13.25-.62.72,0,1.34,0,2.8.06,3.75,0,.17.08.93.08,1.08,0,.85-.78,1-1.36,1-.32,0-.42-.15-.42-.49,0-.13.04-.45.04-.57h-3.86c.02.17.04.4.04.53,0,.85-1.1.85-1.17.85-.57,0-.57-.47-.57-.64,0-.51.17-4.18.17-4.96,0-1.08-.08-1.65-.17-2.42l1.72.81h3.84Zm-3.86.51v2.08h3.88v-2.08h-3.88Zm0,2.59v2.23h3.88v-2.23h-3.88Zm8.25-11.41l.59-.55c.19-.19.3-.25.47-.25.13,0,.21.06.32.15l1.1.95c.11.08.19.23.19.34s-.11.23-.3.38c-.23.19-.34.28-.53.42,0,1.31.06,13.93-.02,14.51-.06.53-.36,1.51-2.65,2.1-.23-1-.7-1.91-2.33-2.61l.06-.15c1.42.13,2.25.15,2.44.15.87,0,.87-.28.87-.81v-8.74h-3.56c.06.81-.91.93-1.17.93-.62,0-.62-.45-.62-.64,0-.23.11-4.37.11-5.2,0-1-.04-1.42-.13-1.99l2.08,1h3.08Zm-3.37.51v2.08h3.58v-2.08h-3.58Zm0,2.59v2.29h3.58v-2.29h-3.58Z"/><path class="cls-1" d="m125.29,156.96c.11.06.23.15.23.3,0,.19-.15.3-.51.57,0,2.38,0,4.96.02,7.38,0,.68.06,3.73.06,4.35,0,.45,0,.74-.25,1.02-.21.25-.68.53-1.12.53-.57,0-.66-.45-.66-.72,0-.34.21-4.43.23-5.28.04-2.16.06-4.18.06-6.66-.38.57-1.97,2.91-3.84,3.99l-.11-.11c2.06-2.42,3.92-7.08,4.28-7.97.51-1.27.64-1.53.72-2.74l2.29,1.06c.13.06.25.17.25.34,0,.13-.11.25-.25.34-.08.04-.32.15-.53.23-.28.57-.66,1.36-1.59,2.95l.7.42Zm7.42,5.64c-.06.45-.25,2.48-1.04,3.99,1.31.87,4.07,2.12,7.95,2.06v.13c-1.12.72-1.51,1.72-1.63,2.12-2.67-.42-5.01-1.51-7-3.29-.83,1.02-2.5,2.29-5.28,2.8v-.19c2.01-.91,3.46-2.14,4.35-3.56-.78-.93-1.21-1.78-1.72-3.1l.17-.15c.32.57.78,1.38,1.99,2.35.34-.91.55-1.93.68-3.16h-2.63c.02.85-.51,1.12-1.19,1.12-.59,0-.66-.28-.66-.59,0-.51.06-2.78.06-3.22,0-1.04-.06-1.8-.25-3.1l2.42,1.12h2.35c0-.19-.04-2.23-.04-2.27h-2.71c-1.29,0-1.76.04-2.29.13l-.34-.76c1,.08,2.01.13,3.01.13h2.31c-.02-1.8-.17-2.5-.57-3.56l2.67.76c.19.06.28.13.28.3s-.13.28-.68.55c0,.32-.02,1.67-.02,1.95h2.59l1.02-1.15c.15-.17.21-.28.34-.28.11,0,.23.13.38.23l1.46,1.14c.15.11.21.19.21.32,0,.19-.19.23-.34.23h-5.66c0,.74-.02,1.7-.02,2.27h2.63l.55-.7c.13-.17.19-.25.32-.25.11,0,.25.11.34.17l1.08.79c.15.11.25.19.25.34,0,.19-.13.34-.55.72,0,.55.08,3.05.08,3.56,0,.74-.51,1.12-1.25,1.12-.62,0-.62-.38-.57-1.08h-3.05Zm-1.48-.51c.06-.93.06-3.16.06-3.65h-2.74v3.65h2.67Zm4.56,0v-3.65h-2.91c-.02,1.42-.04,2.65-.13,3.65h3.03Z"/><path class="cls-1" d="m148.65,163.11c-.19.47-1.21,2.63-1.21,2.99,0,.19.21,1.1.21,1.29,0,.64-.4.93-.81.93-.57,0-3.86-1.06-4.2-7.42-.02-.47-.08-2.5-.15-2.91-.15-1.12-.4-1.63-.87-2.57,1.06.06,2.97.76,2.97,2.54,0,.13-.02.25-.06.49-.04.3-.42,2.46-.42,3.44,0,2.21,1.25,3.56,1.7,3.56.19,0,.38-.28.51-.45,1.15-1.65,2.31-3.31,3.39-5.05l.15.06c-.11.25-.21.55-1.21,3.08Zm8.95,1.74c-.36,0-.68-.34-1.27-1.04-.13-.13-.72-.62-2.16-.91v-.11c.13-.02,1.78-.11,1.85-.13.19-.04.38-.23.38-.55,0-.36-.34-1.59-1.15-2.78-.85-1.23-1.91-2.04-2.42-2.4,2.16-.23,5.71,2.74,5.71,6.17,0,.98-.47,1.74-.93,1.74Z"/><path class="cls-1" d="m167.39,156.35l.7-.91c.13-.17.21-.28.32-.28s.19.06.4.23l1.15.91c.13.08.23.17.23.32,0,.21-.19.23-.32.23h-5.11l.89.32c.3.11.38.19.38.34,0,.19-.04.23-.51.55,0,.79,0,1.25-.04,1.95h1.17l.74-.7c.11-.11.32-.23.42-.23.13,0,.3.08.45.21l.93.85c.11.08.19.25.19.38,0,.28-.34.49-.7.57-.02.49-.15,7.04-1.08,8.59-.72,1.19-1.87,1.4-2.46,1.51-.08-1.34-.34-1.57-1.53-2.74l.04-.11c.59.11,1.48.28,2.06.28.32,0,.49-.08.64-.45.23-.57.66-3.58.66-6.32,0-.21-.02-1.15-.02-1.34h-1.55c-.3,4.86-1.82,8.29-4.67,10.48l-.13-.11c2.71-4.03,3.14-9.76,3.14-12.07,0-.64,0-1.38-.19-1.97-1.27,0-1.76.04-2.38.15l-.34-.78c1.19.11,2.5.13,3.27.13.15-2.44-.23-3.8-.49-4.64l2.5.7c.23.06.42.17.42.38,0,.19-.42.49-.66.64v2.93h1.46Zm8.19.64l1.91,1.1c.13.08.32.19.32.4,0,.23-.42.45-.76.55-.62,3.52-1.82,6.11-2.25,6.87,1.53,1.72,3.18,2.69,5.68,3.05v.15c-1.17.85-1.31.95-1.87,1.89-.76-.4-3.08-1.63-4.77-3.78-2.27,2.57-5.45,3.42-6.45,3.67v-.13c1.25-.66,3.75-2.04,5.62-4.84-1.19-2.27-1.48-6.68-1.51-7.25-.87,1.65-1.76,2.59-2.35,3.18h-.13c1.89-4.48,2.25-7.87,2.25-8.76,0-.53-.06-.85-.19-1.23l2.54.76c.17.04.36.19.36.32,0,.11-.17.34-.68.57-.13.42-.81,2.48-.95,2.95h4.35l.81-1.02c.08-.13.19-.28.32-.28s.25.11.4.23l1.32,1.02c.08.06.21.19.21.32,0,.23-.21.23-.32.23h-3.86Zm-3.39,0c-.17.49-.17.53-.32.89.21,1.51.78,4.39,1.95,6.62.91-1.93,1.29-4.07,1.29-6.21,0-.64-.02-1-.06-1.29h-2.86Z"/><path class="cls-1" d="m200.72,170.43c-.62.02-3.56.06-3.86.06-1.99,0-3.99-.13-5.96-.53-3.35-.68-4.2-2.08-5.03-4.05-.49,1.65-1.04,3.37-3.14,5.18l-.04-.04c1.61-2.78,1.89-5.83,1.89-7.13,0-.28,0-.62-.11-1.21l2.06.64c.15.06.23.19.23.32,0,.19-.08.25-.47.49-.08.45-.15.76-.28,1.21.36.81.81,1.29,1.15,1.63v-5.15h-2.23c-1.46,0-1.89.08-2.29.15l-.34-.78c1,.08,1.99.13,3.01.13h4.16l.66-.76c.08-.08.19-.25.34-.25.11,0,.21.08.4.21l1.02.76c.11.06.23.19.23.32,0,.23-.21.23-.34.23h-3.03v2.86h.72l.55-.74c.11-.15.21-.28.34-.28.11,0,.21.08.38.23l.95.76c.11.08.23.15.23.3,0,.21-.23.23-.34.23h-2.84v2.93c.76.38,2.86.64,5.11.64,3.73,0,6.34-.19,8.21-.95l.06.13c-.98,1.04-1.19,1.27-1.42,2.48Zm-10.01-16.31c-.02.83.08,4.5.08,5.24,0,.7-.83.91-1.1.91-.59,0-.59-.4-.59-.62v-.51h-3.1c0,.59,0,1.1-1.02,1.1-.51,0-.7-.3-.7-.74,0-.21.06-1.15.06-1.34,0-1.12.02-2.57.02-3.73,0-.57-.06-1.42-.19-2.14l1.85.78h2.95l.53-.61c.06-.06.13-.19.21-.19s.19.08.25.13l1.15.76c.11.06.21.17.21.28,0,.25-.53.61-.62.68Zm-1.61-.53h-3.1v2.25h3.1v-2.25Zm0,2.76h-3.1v2.29h3.1v-2.29Zm6.74,9.97c-.06,0-.4-.06-.47-.06-1.85,1.04-2.59,1.31-4.9,1.93l-.02-.06c2.35-1.65,3.78-3.29,3.94-3.5l1.55,1.23c.06.04.13.13.13.25s-.08.21-.23.21Zm5.22-12.56h-3.78c-.38.49-.53.64-1.95,2.12h2.61l.62-.7c.08-.11.17-.23.3-.23.11,0,.19.08.32.17l1.02.74c.08.06.19.15.19.3,0,.13-.23.3-.64.59-.06.53-.08.66-.08,1.17,0,.87.19,5.22.19,6.19,0,.62-.42.91-1,.91-.68,0-.68-.38-.7-.74h-3.97c.06.66-.78.81-1.02.81-.53,0-.62-.32-.62-.57,0-.49.11-2.78.11-3.31,0-1.74-.02-4.65-.25-6.21l1.82.89h.59c.19-.87.28-1.67.32-2.12h-.85c-1.48,0-1.89.08-2.29.15l-.28-.78c1,.08,1.99.13,3.01.13h3.8l.64-.81c.11-.13.19-.28.32-.28.11,0,.23.08.4.21l1.25.85c.11.06.23.17.23.3,0,.23-.21.23-.32.23Zm-2.91,2.63h-3.99v2.08h3.99v-2.08Zm0,2.59h-3.99v2.08h3.99v-2.08Zm0,2.59h-3.99v2.21h3.99v-2.21Zm1.95,6.58c-.38,0-.45-.06-1.27-1.08-.15-.19-1.53-1.68-2.5-2.1v-.08c3.65.3,4.73,1.42,4.73,2.38,0,.49-.42.89-.95.89Z"/><path class="cls-1" d="m203.94,166.04c-.02-1.93-.04-4.82-.64-9.18-.04-.28-.34-1.61-.34-1.91,0-.93.64-1.34,1.31-1.34.61,0,1.31.34,1.31,1.34,0,.28-.3,1.59-.34,1.91-.62,4.29-.62,7.47-.64,9.18h-.68Zm1.65,2.52c0,.72-.59,1.32-1.31,1.32s-1.31-.59-1.31-1.32.59-1.31,1.31-1.31,1.31.59,1.31,1.31Z"/><path class="cls-1" d="m207.88,166.04c-.02-1.93-.04-4.82-.64-9.18-.04-.28-.34-1.61-.34-1.91,0-.93.64-1.34,1.31-1.34.61,0,1.31.34,1.31,1.34,0,.28-.3,1.59-.34,1.91-.62,4.29-.62,7.47-.64,9.18h-.68Zm1.65,2.52c0,.72-.59,1.32-1.31,1.32s-1.31-.59-1.31-1.32.59-1.31,1.31-1.31,1.31.59,1.31,1.31Z"/><path class="cls-1" d="m80.25,192.26c-1.89-1.23-3.64-3.96-3.64-7.33s1.74-6.11,3.64-7.33l.15.21c-1.59,1.45-2.74,4.23-2.74,7.12s1.15,5.67,2.74,7.12l-.15.21Z"/><path class="cls-1" d="m95.11,184.57c-2.99-1.17-5.33-3.85-5.89-5.33-1.68,2.62-5.32,5.79-7.61,6.21l-.06-.08c1.95-1.47,4.05-3.14,6.02-6.36.41-.67.47-.82.59-1.21l1.58.86c.11.06.12.11.12.2,0,.14-.11.26-.35.27,1.03,1.73,4.3,3.65,6.88,3.88v.09c-.7.44-1.17,1.08-1.27,1.47Zm.02,6.59h-10.52c-.94,0-1.26.05-1.64.11l-.26-.56c.92.09,2,.09,2.17.09h3.33v-2.94h-2.29c-.94,0-1.26.03-1.64.11l-.26-.56c.92.08,2,.09,2.17.09h2.02v-2.71h-1.26c-.92,0-1.26.03-1.64.09l-.24-.55c.92.08,1.98.09,2.15.09h3.56l.65-.77c.15-.17.17-.2.24-.2.06,0,.08.03.27.17l1.03.77s.15.11.15.23c0,.14-.12.17-.23.17h-3.45v2.71h2l.68-.79q.17-.18.24-.18s.11.02.27.17l.92.77c.08.06.15.12.15.23,0,.14-.12.17-.23.17h-4.05v2.94h3.44l.74-.85q.17-.18.23-.18c.09,0,.12.01.29.15l1.05.85c.09.08.15.14.15.23,0,.15-.12.17-.23.17Z"/><path class="cls-1" d="m108.81,183.19c0,.23.09,3.65.09,4.03,0,.48-.45.82-.97.82s-.45-.58-.44-1.03h-6.73c-.3,1.91-1.05,3.76-3.79,5.04l-.08-.09c1.92-1.89,2.67-3.45,2.67-7.58,0-1.21-.06-2.11-.23-2.94l1.76.8h6.26l.52-.55c.06-.06.14-.14.24-.14s.18.06.24.11l.8.71c.08.08.14.15.14.26,0,.17-.12.27-.48.55Zm1.77-3.18h-11.09c-.92,0-1.26.03-1.64.09l-.24-.55c.91.08,1.98.09,2.15.09h8.56l.73-.88c.08-.09.14-.18.23-.18.11,0,.2.08.29.15l1.12.91c.08.06.12.12.12.2,0,.14-.12.17-.23.17Zm-3.08,2.61h-6.61c.03.47.05.94.05,1.68s-.03,1.56-.12,2.35h6.68v-4.03Z"/><path class="cls-1" d="m119.53,182.1c-.08.06-.24.18-.36.27-.03.73-.08,4.23-.15,5.02-.27,3.14-.83,4.26-2.88,4.44.02-.41.02-.96-1.65-2.03l.06-.12c1.02.3,1.68.33,1.86.33.5,0,.88-.12,1.09-.99.18-.71.45-3.74.39-7.14h-1.77c-.03,2.64-.08,7.15-4.08,9.92l-.11-.11c1.33-1.17,2.12-3.89,2.26-4.38.44-1.52.58-2.74.64-5.44h-.85c-1.05,0-1.33.05-1.64.11l-.24-.56c.71.06,1.44.09,2.15.09h.58c0-1.21,0-1.86-.03-2.38-.05-.7-.15-.94-.26-1.23l1.83.58c.11.03.26.14.26.27,0,.11-.03.21-.47.47-.02.33-.03,1.92-.05,2.29h1.62l.64-.55c.06-.04.12-.12.18-.12.09,0,.15.05.23.11l.76.61c.06.06.17.18.17.29,0,.09-.08.15-.18.24Zm5.91-.49c-.08.08-.2.18-.3.29v7.33c0,.24.11,1.29.11,1.5,0,.67-.58.86-.88.86-.5,0-.53-.29-.53-.73,0-.23.02-.36.05-.51h-2.2c.02.29.02.77-.08.95-.14.26-.45.53-.82.53-.55,0-.55-.38-.55-.61,0-1.23.17-6.62.17-7.73,0-2.41-.14-3.09-.24-3.55l1.7.92h1.92l.45-.45s.14-.15.2-.15c.08,0,.17.09.26.18l.74.64c.06.06.15.18.15.27,0,.08-.06.15-.15.24Zm-1.55-.36h-2.23v8.74h2.23v-8.74Z"/><path class="cls-1" d="m127.26,191.46c4.61-2.47,6.41-7.48,6.3-9.44l.45.05c-.12-1.3-.11-2.11-.09-2.62h-1.45c-.94,0-1.27.05-1.65.11l-.24-.56c.92.09,1.98.11,2.17.11h.89l.56-.56c.11-.11.2-.17.26-.17.11,0,.18.06.3.15l.95.71c.11.08.21.17.21.26,0,.29-1.09.68-1.5.8-.12,4.83,3.64,8.85,6.98,9.68v.12c-.61.17-1.2.32-1.76,1.33-2.47-1.58-4.38-3.94-5.14-6.76-.97,2.55-2.76,5.52-7.21,6.92l-.05-.14Z"/><path class="cls-1" d="m149.17,181.37l.71.33c.09.05.18.14.18.23,0,.08-.09.15-.14.18-.06.03-.35.2-.41.24-.05.46-.09,1-.27,1.86h3.2l.58-.56c.12-.11.17-.14.26-.14s.15.06.23.12l.89.73c.08.06.12.15.12.26,0,.18-.41.41-.62.53-.05.44-.21,2.67-.29,3.17-.44,3.24-1.48,3.48-3.12,3.64-.03-.95-.62-1.64-1.47-2.03v-.15c1.02.32,1.77.33,2.02.33.85,0,1.08-.2,1.32-2.01.09-.73.26-2.83.23-3.52h-3.41c-.39,1.58-1.53,6.24-6.36,7.14l-.06-.14c3.64-1.26,5.36-6.14,5.36-9.51,0-.23-.02-.47-.06-.7h-3.41c-.65,0-1.14.01-1.64.11l-.24-.56c.71.06,1.42.09,2.15.09h3.53c-.05-1.7-.05-1.89-.45-3.03l2.02.53c.12.03.24.11.24.18,0,.09-.11.17-.12.18-.18.14-.29.2-.42.29-.02.21-.02,1.67-.02,1.85h4.02l.8-.89c.11-.11.17-.2.24-.2.06,0,.12.05.27.17l1.11.89c.08.06.15.14.15.23,0,.17-.15.17-.23.17h-6.88Z"/><path class="cls-1" d="m158.94,190.98c-.05.29-.18.38-.29.38-.17,0-.27-.17-.33-.33l-.65-1.65c.18.03.35.06.59.06.71,0,2.05-.33,2.82-.53v-4.15h-1.06c-1.06,0-1.35.06-1.64.11l-.26-.56c.73.08,1.44.09,2.17.09h2.33l.61-.82c.08-.09.15-.2.24-.2.08,0,.14.05.27.17l.94.83c.08.06.15.12.15.23,0,.15-.14.15-.23.15h-2.3v3.82c.76-.21,2.56-.74,3.64-1.21l.05.11c-1.64,1.21-3.26,2.05-7.05,3.52Zm12.39-9.12h-5.18c.35,3.5,1.26,5.47,2.3,6.94.2.27.83,1.06,1.2,1.06q.17,0,.56-.79c.29-.58.48-1.06.74-1.71h.08c-.02.32-.14,1.88-.14,2.68,0,.2,0,.35.2.59.23.3.29.39.29.59,0,.3-.26.59-.73.59-.7,0-2.05-.76-2.83-1.73-1.7-2.14-2.38-4.58-2.89-8.23h-5.2c-.94,0-1.26.03-1.64.11l-.26-.56c.92.08,2,.09,2.17.09h4.88c-.02-.11-.21-2.05-.24-2.33-.09-.74-.2-.97-.33-1.24l2,.5c.26.06.3.15.3.23,0,.17-.3.32-.58.46,0,.51,0,1.2.09,2.39h2.95l.76-.91c.14-.17.17-.2.24-.2.06,0,.12.03.29.18l1.05.89c.09.08.15.14.15.23,0,.14-.12.17-.23.17Zm-3.03-1.08c-.33,0-.5-.18-.68-.61-.38-.92-.5-1.14-.77-1.45l.08-.17c.41.06.97.15,1.38.44.48.32.68.76.68,1.08,0,.21-.14.71-.68.71Z"/><path class="cls-1" d="m173.24,192.26l-.15-.21c1.59-1.45,2.74-4.23,2.74-7.12s-1.15-5.67-2.74-7.12l.15-.21c1.89,1.23,3.64,3.95,3.64,7.33s-1.74,6.11-3.64,7.33Z"/><rect class="cls-2" x="266.42" y="97.15" width="251.19" height="112.56"/><path class="cls-1" d="m341.94,118.87c-.42.13-.44.15-1.61,1.14-.59.51-3.1,2.75-3.65,3.17-.53.4-.88.62-1.14.79,1.34,1.08,2.18,2.55,2.18,3.39,0,.57-.35,1.19-1.03,1.19-.33,0-.68-.07-1.19-.97-1.39-2.44-3.48-4.36-5.72-6.03,3.28.84,4.8,1.74,5.24,2.02,3.45-3.92,3.76-4.27,4.64-5.79-6.05.57-9.4.88-11.18,1.5-.18.07-.88.42-1.03.42-.51,0-1.91-1.8-1.91-2.64,0-.37.09-.73.29-1.3.86,1.43.97,1.58,1.98,1.58,2.35,0,11.22-.62,11.57-.68.4-.09.55-.18.99-.51.26-.18.42-.2.53-.2.31,0,.9.66,1.3,1.1.22.26.84.92.84,1.17,0,.33-.11.35-1.08.64Z"/><path class="cls-1" d="m351,118.43c-.37,0-.66-.31-1.41-1.06-1.8-1.83-2.88-2.31-3.67-2.68.4-.04.66-.07,1.08-.07.75,0,4.86.31,4.86,2.75,0,.68-.51,1.06-.86,1.06Zm1.98,7.33c-.81.64-2.13,1.58-2.88,2.27-.13.11-.64.7-.77.77-.11.07-.22.09-.31.09-.79,0-2.35-2-2.35-3.08,0-.37.09-.75.15-1.03.7,1.19,1.36,1.5,1.74,1.5.62,0,4.29-2.68,5.08-3.3,3.59-2.79,5.7-5.17,6.89-6.54l.09.04c-.35,1.41-2.55,5.33-7.63,9.29Z"/><path class="cls-1" d="m368.14,121.86c-.29,0-.37-.04-1.17-.62-1.96-1.41-2.79-1.83-4.22-2.29.77-.11,1.39-.18,2.35-.18,2.77,0,3.83,1.19,3.83,2.09,0,.13-.02.99-.79.99Zm1.67-5.02c-.33,0-.46-.11-1.74-1.19-1.47-1.23-2.2-1.67-3.26-1.98.51-.07.95-.13,1.54-.13,2.84,0,4.22,1.34,4.22,2.35,0,.15-.04.95-.77.95Zm1.36,9.88c-.81.64-1.85,1.41-2.77,2.11-.13.09-.59.59-.68.7-.18.18-.35.26-.55.26-.44,0-2.2-1.28-2.2-3.06,0-.24.02-.33.09-.53.26.29,1.39,1.14,1.74,1.14,1.74,0,9.13-6.73,11.62-10.12l.13.07c-1.12,3.26-4.47,7.11-7.37,9.42Z"/><path class="cls-1" d="m383.1,124.5c-.15.04-.75.35-.9.35-.29,0-1.39-.88-1.39-1.96,0-.2.04-.35.09-.59.37.55.84,1.01,1.52,1.01.53,0,2.29-.15,2.95-.22,1.54-.13,1.58-.15,3.37-.24.09-1.54.09-1.67.13-3.04-.95.07-5.28.48-5.92.64-.15.04-.84.26-.99.26-.51,0-1.21-1.19-1.21-1.78,0-.29.07-.62.15-.86.64,1.1.99,1.1,2.05,1.1.86,0,5.19-.13,5.79-.59.07-.04.37-.31.44-.37.09-.07.15-.13.26-.13.22,0,1.69,1.28,1.69,1.56,0,.18-.07.2-.57.55-.22.15-.22.22-.26.77-.07,1.17-.26,6.4-.46,7.46-.13.73-.46,1.12-.86,1.12-.55,0-.7-.57-.88-1.21-1.72.11-4.38.46-4.97.64-.18.04-.88.42-1.03.42-.46,0-1.45-1.34-1.45-2.09,0-.24.04-.42.15-.68.2.33.64,1.1,1.63,1.1.2,0,5.54-.4,6.01-.44.15-1.76.15-1.96.24-3.3-1.69,0-4.77.35-5.57.53Z"/><path class="cls-1" d="m399.1,118.43c-.37,0-.66-.31-1.41-1.06-1.8-1.83-2.88-2.31-3.67-2.68.4-.04.66-.07,1.08-.07.75,0,4.86.31,4.86,2.75,0,.68-.51,1.06-.86,1.06Zm1.98,7.33c-.81.64-2.13,1.58-2.88,2.27-.13.11-.64.7-.77.77-.11.07-.22.09-.31.09-.79,0-2.35-2-2.35-3.08,0-.37.09-.75.15-1.03.7,1.19,1.36,1.5,1.74,1.5.62,0,4.29-2.68,5.08-3.3,3.59-2.79,5.7-5.17,6.89-6.54l.09.04c-.35,1.41-2.55,5.33-7.64,9.29Z"/><path class="cls-1" d="m429.3,121.24c-4.33-1.69-7.75-5.59-8.56-7.75-2.44,3.81-7.72,8.41-11.05,9.02l-.09-.11c2.84-2.13,5.88-4.55,8.74-9.24.59-.97.68-1.19.86-1.76l2.29,1.25c.15.09.18.15.18.29,0,.2-.15.37-.51.4,1.5,2.51,6.25,5.3,9.99,5.63v.13c-1.01.64-1.69,1.56-1.85,2.13Zm.02,9.57h-15.27c-1.36,0-1.83.07-2.38.15l-.37-.81c1.34.13,2.9.13,3.15.13h4.84v-4.27h-3.32c-1.36,0-1.83.04-2.38.15l-.37-.81c1.34.11,2.9.13,3.15.13h2.93v-3.94h-1.83c-1.34,0-1.83.04-2.38.13l-.35-.79c1.34.11,2.88.13,3.12.13h5.17l.95-1.12c.22-.24.24-.29.35-.29.09,0,.11.04.4.24l1.5,1.12s.22.15.22.33c0,.2-.18.24-.33.24h-5.02v3.94h2.9l.99-1.14q.24-.26.35-.26c.07,0,.15.02.4.24l1.34,1.12c.11.09.22.18.22.33,0,.2-.18.24-.33.24h-5.87v4.27h4.99l1.08-1.23q.24-.26.33-.26c.13,0,.18.02.42.22l1.52,1.23c.13.11.22.2.22.33,0,.22-.18.24-.33.24Z"/><path class="cls-1" d="m449.19,119.24c0,.33.13,5.3.13,5.85,0,.7-.66,1.19-1.41,1.19s-.66-.84-.64-1.5h-9.77c-.44,2.77-1.52,5.46-5.5,7.33l-.11-.13c2.79-2.75,3.87-5.02,3.87-11,0-1.76-.09-3.06-.33-4.27l2.55,1.17h9.09l.75-.79c.09-.09.2-.2.35-.2s.26.09.35.15l1.17,1.03c.11.11.2.22.2.37,0,.24-.18.4-.7.79Zm2.57-4.62h-16.11c-1.34,0-1.83.04-2.38.13l-.35-.79c1.32.11,2.88.13,3.12.13h12.43l1.06-1.28c.11-.13.2-.26.33-.26.15,0,.29.11.42.22l1.63,1.32c.11.09.18.18.18.29,0,.2-.18.24-.33.24Zm-4.47,3.79h-9.59c.04.68.07,1.36.07,2.44s-.04,2.27-.18,3.41h9.7v-5.85Z"/><path class="cls-1" d="m314.6,145.55l1.21-1.56c.15-.2.24-.26.33-.26.15,0,.35.18.42.24l1.83,1.61c.13.13.26.22.26.38,0,.2-.18.26-.37.26h-16.11c-1.34,0-1.83.04-2.38.15l-.35-.95c1.03.09,2.07.13,3.12.13h12.04Z"/><path class="cls-1" d="m326.1,147.46c0,.97.15,5.24.15,6.09,0,1.58-1.17,2.29-2.4,2.53-.46-1.63-2-2.4-2.57-2.57v-.15c.75.07,1.89.09,2.35.09.55,0,.77-.07.77-.59,0-.22-.07-3.81-.09-4.53-.55.26-1.12.53-1.83.84-.09.33-.15.51-.42.51-.18,0-.31-.15-.37-.29l-1.17-2.16c.33.02.64.04,1.1.04.55,0,1.34-.15,2.66-.48-.04-2.33-.07-2.64-.18-5.41-1.36,0-1.91,0-2.68.13l-.35-.79c.88.07,1.47.09,3.01.13-.02-.55-.09-2.93-.13-3.41-.07-.48-.24-1.06-.37-1.47l2.82.88c.29.09.31.31.31.35,0,.31-.57.53-.73.59v3.06h.07l.79-.88c.22-.24.24-.29.33-.29.11,0,.18.04.42.24l1.08.88c.11.09.22.18.22.33,0,.2-.18.24-.33.24h-2.55c0,1.5.02,3.5.04,4.95.84-.24,2.24-.64,3.32-1.01l.07.09c-.86.75-2.44,1.58-3.34,2.07Zm14.61-3.48h-5.74v4.18h1.87l.86-.7c.24-.2.35-.29.44-.29s.15.04.37.24l.9.81c.2.18.26.31.26.42,0,.2-.07.24-.64.64,0,.7.02,1.94.11,3.52.04.64.11,1.85.11,1.92,0,.97-.95,1.19-1.34,1.19-.68,0-.68-.42-.68-.68,0-.11.02-.55.02-.64h-6.34c.02.37.02.62-.02.73-.11.35-.62.64-1.08.64s-.81-.24-.81-.75c0-.4.04-2.18.04-2.53,0-1.25,0-4.55-.18-5.52l2.22,1.01h2.07v-4.18h-2.86c-1.34,0-1.83.07-2.38.15l-.37-.81c1.34.13,2.9.13,3.15.13h2.46v-3.92c-1.23.22-2.6.35-3.87.35-.37,0-.73,0-1.1-.04v-.13c2.51-.57,6.38-1.83,8.65-3.01.44-.22.55-.37.7-.59l1.5,1.36c.15.13.24.24.24.37,0,.29-.4.29-.73.31-.73.33-1.69.68-3.59,1.06v4.25h2.68l.95-1.12c.2-.24.24-.29.35-.29.09,0,.13.02.4.24l1.47,1.14c.13.09.22.2.22.33,0,.2-.2.22-.33.22Zm-3.45,4.71h-6.34v5.37h6.34v-5.37Z"/><path class="cls-1" d="m355.18,142.8h-3.12c-.04,2.33,0,3.59.02,4.66.02.4.02,1.14-.95,1.14s-.92-.57-.92-.88c0-.04.02-.31.02-.62.02-.68.09-3.7.11-4.31h-1.89c-.09,2.09-.22,5.26-5.21,7.72l-.13-.15c2.99-2.53,3.34-4.88,3.5-7.57h-.92c-1.34,0-1.83.04-2.38.15l-.35-.81c1.34.11,2.88.13,3.12.13h.55c.02-.79.02-.84-.02-4.25-1.5,0-1.98.07-2.38.15l-.37-.81c1.34.11,2.9.13,3.15.13h4.27l.84-1.08c.15-.2.22-.29.33-.29.13,0,.33.18.42.24l1.19,1.08c.15.13.22.2.22.33,0,.2-.18.24-.33.24h-1.85l-.02,4.25h.24l.88-1.14c.18-.24.24-.26.33-.26.11,0,.2.07.4.24l1.39,1.12c.11.09.22.2.22.33,0,.22-.18.24-.33.24Zm7.11,12.23h-16.5c-1.34,0-1.83.04-2.38.15l-.35-.81c1.34.11,2.88.13,3.12.13h6.14v-2.73h-4.09c-1.34,0-1.83.04-2.38.15l-.37-.81c1.34.11,2.9.13,3.15.13h3.7c0-2.22,0-2.49-.2-3.65l2.13.64c.37.11.57.24.57.51,0,.2-.11.26-.59.55-.02.29-.04.62-.02,1.96h2.09l.84-1.34c.07-.09.22-.29.35-.29s.35.2.4.24l1.52,1.34c.13.13.22.2.22.33,0,.22-.18.24-.33.24h-5.08v2.73h4.82l1.03-1.39c.2-.29.29-.29.33-.29.15,0,.35.18.42.24l1.58,1.39c.13.11.22.2.22.33,0,.22-.18.24-.33.24Zm-11.95-17.01h-1.85c.04,1.87,0,3.52-.02,4.25h1.89c0-.77.04-2.73-.02-4.25Zm7.37.97c-.02.97.04,5.21.04,6.07,0,.44,0,1.34-.95,1.34-.88,0-.88-.53-.88-.81,0-.2.07-1.06.07-1.23.07-2.11.04-4.42.04-4.8,0-.44-.02-.64-.2-2.31l1.96.64c.31.11.44.24.44.42,0,.13,0,.2-.53.68Zm3.5-1.17c-.02.53-.04,3.89-.04,5.72,0,1.08.04,2.82,0,3.89-.02.66-.11,2.29-2.57,2.35-.11-.97-1.03-1.96-2.29-2.38v-.18c.79.11,1.76.2,2.53.2.59,0,.59-.09.59-2.13,0-1.56-.02-5.54-.02-6.8-.02-1.34-.11-1.72-.24-2.27l2.4.68c.33.09.37.2.37.29,0,.29-.4.46-.73.62Z"/><path class="cls-1" d="m376.7,139.81c-.62.44-.88.73-1.43,1.32-.35.37-1.87,2.09-2.2,2.44.37.22,1.14.75,1.14,1.06,0,.15-.22.77-.24.9-.02.18-.07,1.34-.07,2.75,0,.86.15,4.64.15,5.39,0,.55-.2,1.52-.86,1.52s-1.21-1.14-1.21-1.74c0-.22.2-1.21.22-1.41.15-1.25.18-2.49.18-3.74,0-.44,0-2.84-.13-3.28q-.04-.13-.29-.31c-3.34,3.26-5.94,4.33-7.61,4.91l-.09-.13c4.49-2.75,10.36-10.17,10.36-11.07,0-.55-.59-1.06-1.1-1.47.29-.04.57-.09.97-.09,1.36,0,2.88,1.72,2.88,2.22,0,.26-.09.33-.68.73Z"/><path class="cls-1" d="m387.28,142.67c-.37,0-.66-.31-1.41-1.06-1.8-1.83-2.88-2.31-3.67-2.68.4-.04.66-.07,1.08-.07.75,0,4.86.31,4.86,2.75,0,.68-.51,1.06-.86,1.06Zm1.98,7.33c-.81.64-2.13,1.58-2.88,2.27-.13.11-.64.7-.77.77-.11.07-.22.09-.31.09-.79,0-2.35-2-2.35-3.08,0-.37.09-.75.15-1.03.7,1.19,1.36,1.5,1.74,1.5.62,0,4.29-2.68,5.08-3.3,3.59-2.79,5.7-5.17,6.89-6.54l.09.04c-.35,1.41-2.55,5.33-7.63,9.29Z"/><path class="cls-1" d="m412.06,142.07c-.48.2-.51.2-1.39,1.78-3.65,6.45-5.74,7.75-7.44,8.8-1.94,1.23-3.59,1.63-4.29,1.8l-.04-.15c3.1-1.63,5.48-3.96,7.42-6.53-.35-.11-.73-.57-.79-.64-1.56-1.85-1.67-1.98-2.66-2.55-.99,1.03-2.24,2.13-3.76,2.82l-.04-.13c2.4-2.38,5.3-7.15,5.3-8.05,0-.73-.77-.99-1.32-1.19.31-.18.64-.37,1.19-.37,1.25,0,2.68,1.03,2.68,1.58,0,.22-.07.26-.53.75-.22.22-.42.53-.57.75.99.09,3.3-.22,3.87-.42.18-.07.97-.62,1.17-.62.24,0,1.83,1.56,1.83,1.94,0,.22-.07.22-.62.44Zm-5.57-.09c-.2,0-.42,0-1.19-.53-1.23,1.72-2.11,2.75-2.18,2.82,1.01.07,3.76.44,4.03,2.33,1.69-2.66,2.29-4.36,2.55-5.15-2.62.48-2.9.53-3.21.53Z"/><path class="cls-1" d="m431.66,147.02c-.35,0-.9-.02-1.34-.07-.42-.02-5.79-.07-6.16-.07-1.28,0-4.64.07-5.65.35-.4.11-.57.15-.75.15-.81,0-2.05-1.74-2.05-2.62,0-.29.09-.66.35-1.23.77,1.54,1.3,1.8,3.92,1.8,1.28,0,8.91-.02,9.66-.29.33-.11.59-.22.88-.22.04,0,2.62.2,2.62,1.36,0,.37-.42.81-1.47.81Z"/><path class="cls-1" d="m446.9,142.53c-.22.09-.42.29-.75.7-.86,1.08-1.5,1.8-2.07,2.46.37.2.84.46.84.64,0,.11-.18.62-.2.73-.04.15-.2,1.08-.2,2.64,0,.59.11,3.15.11,3.67,0,.92,0,1.85-.79,1.85-.64,0-1.14-.9-1.14-1.58,0-.24.15-1.28.18-1.5.11-1.21.11-3.21.11-3.94,0-.31,0-1.06-.09-1.28-2.79,2.91-5.28,4-7.08,4.62l-.09-.24c2.95-1.85,5.26-4.58,6.62-6.18.42-.51,2.16-2.57,2.16-2.88,0-.09-.09-.11-.13-.11-.09,0-3.39.97-4.22,1.58-.29.2-.4.29-.66.29-.79,0-1.72-1.63-1.72-2.62,0-.42.07-.57.15-.79.73,1.03,1.14,1.28,1.78,1.28.97,0,4.95-.66,5.81-1.32.48-.37.53-.42.7-.42.37,0,2.02,1.03,2.02,1.5,0,.33-.09.35-1.34.9Zm-1.89-2.88c-.33,0-.48-.11-1.01-.57-1.61-1.34-2.27-1.94-3.61-2.38.79-.22,1.32-.22,1.63-.22,1.32,0,2.75.42,3.3.86.44.37.55,1.12.55,1.34,0,.59-.35.97-.86.97Zm5.72,10.85c-.66,0-.97-.46-1.23-.88-.37-.55-1.63-2.42-4.77-4.25,3.81.31,6.78,2.18,6.78,4.18,0,.15-.02.95-.77.95Z"/><path class="cls-1" d="m456.76,146.1c0,.57-.31.9-.7.9-.55,0-.77-.53-1.01-1.1-.35-.84-.97-1.74-1.61-2.42,1.74.24,3.32,1.39,3.32,2.62Zm-1.67,8.34c6.54-3.12,8.54-10.32,8.54-10.58,0-.44-.68-.88-1.17-1.14.26-.09.59-.15.99-.15,1.01,0,2.22,1.19,2.22,1.5,0,.13-.04.18-.48.68-.11.13-1.08,2.2-1.3,2.6-2.99,5.41-6.47,6.69-8.76,7.3l-.04-.2Zm5.48-9.35c0,.42-.22.92-.75.92s-.62-.26-.97-1.23c-.22-.62-.59-1.39-1.32-2.31,2,.55,3.04,1.69,3.04,2.62Z"/><path class="cls-1" d="m477.26,148.65c-.35,0-.64-.24-.95-.59-2.29-2.53-2.9-3.17-4.49-3.74-.04,1.36.04,6.18.04,6.32,0,.44.15,2.44.15,2.84,0,.95-.46,1.63-1.06,1.63-.64,0-1.19-.95-1.19-2.16,0-.24,0-.33.15-1.34.26-1.8.29-4.53.29-5.85,0-1.12-.04-6.23-.26-7.04-.07-.29-.13-.48-1.76-1.12.35-.2.9-.51,1.45-.51.42,0,2.79.46,2.79,1.14,0,.18-.29.92-.33,1.08-.26,1.08-.29,3.3-.29,4.49,2.51.31,6.34,1.72,6.34,3.79,0,.79-.51,1.08-.9,1.08Z"/><path class="cls-1" d="m316.69,177.13c-.48,0-.63-.07-1.96-1.04-3.29-2.37-4.7-3.07-7.1-3.85,1.29-.19,2.33-.3,3.96-.3,4.66,0,6.44,2,6.44,3.52,0,.22-.04,1.67-1.33,1.67Zm2.81-8.44c-.55,0-.78-.18-2.92-2-2.48-2.07-3.7-2.81-5.48-3.33.85-.11,1.59-.22,2.59-.22,4.77,0,7.1,2.26,7.1,3.96,0,.26-.07,1.59-1.3,1.59Zm2.29,16.61c-1.37,1.07-3.11,2.37-4.66,3.55-.22.15-1,1-1.15,1.18-.3.3-.59.44-.92.44-.74,0-3.7-2.15-3.7-5.14,0-.41.04-.56.15-.89.44.48,2.33,1.92,2.92,1.92,2.92,0,15.36-11.32,19.54-17.02l.22.11c-1.89,5.48-7.51,11.95-12.4,15.84Z"/><path class="cls-1" d="m350.66,177.02c0,.19-.37,1.11-.41,1.3-.11.67-.56,5.85-.59,7.51,1.26-.04,6.33-.22,7.22-.37.26-.04,1.18-.26,1.41-.26.26,0,3.33,1.11,3.33,2.33,0,.44-.26.85-.78.85-.11,0-2.15-.44-2.29-.48-1.3-.26-3.37-.55-6.18-.55-1.22,0-8.33.15-11.73,1.33-.22.07-1.15.63-1.37.63-.78,0-2.85-2-2.85-3.55,0-.59.15-.96.26-1.33.74,1.07,1.63,2.15,3.29,2.15.15,0,6.7-.55,7.59-.63.04-.55.19-2.92.19-5,0-3.4-.19-3.7-.7-4.62-1.07.15-1.85.26-2.63.41-.52.07-1.07.19-1.26.19-1.07,0-2.7-1.78-2.63-3.15.96.74,1.96,1.07,3.55,1.07,3.96,0,8.03-.55,8.47-.67.3-.07,1.52-.59,1.78-.59.37,0,2.52.44,2.52,1.48,0,.85-1.07.85-1.44.85-3.11,0-3.37,0-5.51.15.78.63.78.81.78.96Z"/><path class="cls-1" d="m388.88,169.88c-.3.07-.74.22-1.11.44-2.66,1.7-3.15,2-7.66,4.74-2.44,9.25-4.33,13.91-10.43,16.98l-.11-.22c6.18-6.7,7.4-16.39,7.4-17.32,0-1.37-.56-1.59-2.7-2.33.81-.41,1.44-.7,2.22-.7,1,0,3.29.63,3.7,1.48.19.37.15.63.15.81,3.66-3.26,5.18-5.33,5.18-5.88,0-.15-.04-.26-.41-.26-.22,0-11.29.96-14.88,2.37-.3.11-1.55.7-1.81.7-.44,0-1.78-.96-2.11-1.22-1.41-1.26-1.48-1.48-1.48-2.41,0-1.04.15-1.48.3-1.89,1,1.59,2.33,2.11,3.77,2.11,1.55,0,14.06-1.44,16.87-1.85.3-.07,1.52-.52,1.78-.52.74,0,3.89,3.15,3.89,3.85,0,.59-.11.63-2.55,1.11Z"/><path class="cls-1" d="m400.27,164.03l15.32,20.61v-16.69c0-1.55-1.11-2.7-2.52-2.7h-1.26v-1.22h8.7v1.22h-1.18c-1.41,0-2.55,1.04-2.55,2.7v23.09h-1.18l-16.5-22.72v18.83c0,1.41.92,2.7,2.55,2.7h1.18v1.18h-8.7v-1.18h1.18c1.44,0,2.55-1.07,2.55-2.7v-19.2c0-.74-.52-2.7-2.66-2.7h-1.07v-1.22h6.14Z"/><path class="cls-1" d="m447.41,177.54c0,7.14-4.11,14.21-11.99,14.21s-12.03-7.07-12.03-14.21,4.03-14.17,12.03-14.17,11.99,7.18,11.99,14.17Zm-19.87,0c0,8.18,3.11,12.99,7.88,12.99s7.84-5,7.84-12.99-3.07-12.95-7.84-12.95-7.88,4.96-7.88,12.95Z"/><path class="cls-1" d="m455.25,189.38c0,1.29-1.07,2.37-2.37,2.37s-2.37-1.07-2.37-2.37,1.07-2.37,2.37-2.37,2.37,1.04,2.37,2.37Z"/><path class="cls-1" d="m459.47,189.86h2.15c1.15,0,2.11-.81,2.11-2.33v-19.28c0-.89-.59-1.89-1.63-1.89h-2.85v-1.07c3.85-.15,6.22-1.22,6.73-1.44.15-.07,1.07-.48,1.15-.48.19,0,.22.15.22.37v23.87c0,1.11.89,2.26,2.48,2.26h1.78v1.18h-12.14v-1.18Z"/><path class="cls-1" d="m479.13,190.79l-.38-.38,3.9-3.89-3.9-3.89.38-.38,3.89,3.9,3.89-3.9.38.38-3.9,3.89,3.9,3.89-.38.38-3.89-3.9-3.89,3.9Zm1.62-4.27c0,.54-.44,1-1,1s-1.01-.44-1.01-1,.46-1,1.01-1,1,.46,1,1Zm3.26-3.26c0,.53-.43,1-1,1s-1-.46-1-1,.46-1.01,1-1.01,1,.46,1,1.01Zm0,6.52c0,.54-.43,1.01-1,1.01s-1-.46-1-1.01.46-1,1-1,1,.46,1,1Zm3.27-3.26c0,.54-.44,1-1.01,1s-1-.44-1-1,.46-1,1-1,1.01.46,1.01,1Z"/><path class="cls-1" d="m494.05,191.07h-4.71v-.32c.24-.75.8-1.59,1.76-2.69,1.76-2.04,2.36-2.72,2.36-3.92,0-.9-.58-1.64-1.6-1.64-.84,0-1.34.5-1.34.94,0,.04,0,.19.12.37.16.24.25.37.25.6,0,.36-.29.67-.65.67-.42,0-.68-.4-.68-.84,0-.88.85-2.15,2.58-2.15,1.49,0,2.4.94,2.4,2.23,0,1.21-.7,1.87-1.78,2.79-.41.34-1.99,1.69-2.59,3.01h1.66c1.68,0,2.07-.65,2.43-1.64l.36.13-.58,2.46Z"/></svg>