<?xml version="1.0" encoding="UTF-8"?><svg id="_レイヤー_1" xmlns="http://www.w3.org/2000/svg" viewBox="0 0 631.79 151.29"><defs><style>.cls-1{fill:#877437;}.cls-2{fill:none;stroke:#867437;stroke-miterlimit:10;stroke-width:.81px;}</style></defs><line class="cls-2" x1="631.79" y1="82.29" y2="82.29"/><line class="cls-2" x1="315.89" y1="13.78" x2="315.89" y2="150.79"/><path class="cls-1" d="m117.48,12.09s-4.63-.51-5.5-.51-1.35.03-3.79.21c1.29.99,1.41,1.08,1.41,1.29s-.54.99-.6,1.14c-.24.57-1.11,3.1-1.35,3.61-2.41,5.38-5.71,7.67-8.51,8.42l-.15-.12c4.75-3.73,7.22-10.77,7.22-12.54,0-.87-.15-1.05-.51-1.5-3.34.48-4.3.87-5.86,1.41-.39.15-.75.27-1.11.27-.63,0-2.77-1.77-2.77-3.46,0-.51.12-.81.24-1.17.84,1.17,1.35,1.96,2.92,1.96.06,0,.15-.03.21-.03,1.02-.15,6.38-.72,7.43-.84,2.2-.27,6.23-.72,6.62-.84.24-.06,1.26-.39,1.5-.39.42,0,3.64.57,3.64,2.11,0,.99-.72.99-1.02.99Zm-6.62-5.98c-2.2.06-2.23.06-7.94.75h-.27c-.99,0-2.38-1.14-2.38-2.53,0-.12.03-.3.12-.75.27.33,1.14,1.2,3.34,1.2,1.44,0,3.88-.39,5.11-.69.33-.09,1.74-.51,2.04-.51.45,0,2.59.42,2.59,1.47,0,.96-1.08,1.02-2.62,1.05Z"/><path class="cls-1" d="m129.06,22.92c-1.08.57-1.29.78-1.77,1.26-.27.27-.39.27-.48.27-.75,0-2.38-3.01-2.38-3.19s.33-.81.39-.93c.24-.66.3-1.62.33-1.99.06-.96.06-4.66.06-5.8,0-.9-.03-6.77-.24-7.34-.12-.27-.33-.45-.9-.69-.18-.06-1.32-.48-1.62-.57,1.05-.57,1.56-.84,2.23-.84.99,0,3.73,1.08,3.73,1.8,0,.27-.45,1.47-.51,1.71-.33,1.5-.57,9.5-.57,11.61,0,1.02.03,1.68.06,2.35,6.04-2.26,12.93-8.18,15.52-10.71l.21.21c-2.92,4.63-5.53,8.24-14.04,12.84Z"/><path class="cls-1" d="m165.09,7.52c-.57.36-.6.48-.81,1.53-.99,5.32-1.99,8.72-4.6,11.76-2.2,2.59-5.08,4.48-8.33,5.44l-.06-.12c7.91-5.77,9.65-10.59,10.59-19.4-7.52.45-8.78.6-10.04.87-.27.06-.54.09-.66.09-.21,0-1.05-.36-1.23-.39.03.39.06.66,0,3.04,0,.57.12,3.25.12,3.85,0,.81-.42,1.59-1.14,1.59-.66,0-1.38-1.23-1.38-2.35,0-.39.09-1.98.09-2.32,0-1.2-.18-4.15-.33-4.54-.48-1.14-1.14-1.5-1.77-1.8.36-.15.87-.39,1.38-.39.36,0,1.29.24,2.41,1.11.21.18.87.3,1.32.3,1.05,0,10.47-.6,11.19-.84.24-.09.39-.21.9-.72.12-.09.24-.18.36-.18.27,0,2.71,1.83,2.71,2.65,0,.33-.21.48-.69.81Z"/><path class="cls-1" d="m192.04,15.28c-.48,0-1.23-.03-1.83-.09-.57-.03-7.91-.09-8.42-.09-1.74,0-6.35.09-7.73.48-.54.15-.78.21-1.02.21-1.11,0-2.8-2.38-2.8-3.58,0-.39.12-.9.48-1.68,1.05,2.11,1.77,2.47,5.35,2.47,1.75,0,12.18-.03,13.2-.39.45-.15.81-.3,1.2-.3.06,0,3.58.27,3.58,1.86,0,.51-.57,1.11-2.01,1.11Z"/><path class="cls-1" d="m216.43,9.14c-.87.27-1.23.72-1.86,1.89-3.64,6.71-6.83,9.77-10.59,12.09-1.14.69-3.7,2.17-6.08,2.62l-.12-.21c6.59-4.03,12.09-9.96,15.19-17.11-.69.09-3.1.42-4.39.63-.15.03-.63.21-.84.21-.3,0-.81-.18-1.38-.51-2.71,3.28-4,4.39-8.03,6.77l-.21-.21c4.09-4.42,5.2-5.87,6.86-8.72.66-1.14.93-1.83.93-2.2,0-.33-1.02-1.11-1.65-1.47.48-.15.99-.27,1.5-.27,1.05,0,3.67,1.38,3.67,2.41,0,.33-.06.42-.87,1.11-.39.36-.51.51-1.11,1.23.75.06,4.45-.18,5.14-.42.33-.12,1.59-1.02,1.89-1.02.24,0,.39.12,1.68,1.26.87.78,1.02.96,1.02,1.26,0,.42-.18.48-.75.66Z"/><path class="cls-1" d="m39.86,57.74c-2.82-1.83-5.41-5.89-5.41-10.92s2.59-9.09,5.41-10.92l.23.32c-2.37,2.17-4.08,6.29-4.08,10.6s1.71,8.43,4.08,10.6l-.23.32Z"/><path class="cls-1" d="m45.71,46.85c-1.38,0-1.87.07-2.44.16l-.38-.83c.56.07,2.57.13,2.86.13l.97-.68c.11-.09.25-.18.36-.18.09,0,.22.09.32.18l.9.79c.11.09.25.2.25.36s-.14.32-.59.7c0,.59-.07,3.13-.07,3.65,0,2.35.2,3.59,6.58,3.59,3.97,0,5.82-.36,8.64-.95v.16c-.74.59-1.35,1.62-1.44,2.53-1.67.05-3.92.07-4.62.07-2.75,0-8.75,0-9.72-3.72-1.08,1.49-1.83,2.37-2.59,3.25,0,.25-.04.61-.32.61-.11,0-.22-.11-.29-.2l-1.94-2.25c1.8.07,3.47-.63,3.95-.92v-6.43h-.43Zm-1.13-9.74c1.26.18,3.92,1.44,3.92,3.16,0,.74-.5,1.24-1.06,1.24-.9,0-1.13-.68-1.51-1.89-.36-1.13-1.04-1.94-1.42-2.41l.07-.09Zm7.06,12.18c.02.52.07,2.84.07,3.31,0,.95-1.13,1.08-1.35,1.08-.54,0-.63-.43-.63-.65,0-.16.05-.81.05-.95.04-1.4.07-4.78.07-5.75,0-1.31,0-3.02-.27-4.92l2.25,1.13h3.41c-.07-.11-.36-.72-.43-.83-.72-1.13-1.29-1.58-1.92-2.03v-.14c1.08,0,2.17.32,3.09.92.38-.43.52-.59,1.62-2.03h-5.14c-1.38,0-1.87.07-2.44.16l-.36-.83c1.06.09,2.14.13,3.2.13h4.89l.86-.54c.14-.09.27-.2.41-.2s.25.14.38.25l1.31,1.2c.09.09.2.18.2.36,0,.29-.34.34-1.13.38-.29.02-.61.16-3.56,1.29.29.25.72.59.72,1.26,0,.41-.16.54-.29.65h2.73l.65-.7c.07-.07.18-.18.29-.18s.23.09.32.16l1.33.99c.09.07.14.13.14.2,0,.13-.2.34-.36.47-.16.13-.22.2-.36.34-.02.23-.04.61-.04,1.06v5.37c0,2.03,0,2.25-.47,2.75-.5.52-1.11.79-1.85.92-.13-1.04-.9-1.76-1.85-2.46v-.11c.54.07,1.26.14,1.78.14.65,0,.65-.23.65-.65v-1.56h-3.16c0,.56.11,3.38.11,3.65,0,.7-.63,1.01-1.24,1.01-.52,0-.61-.34-.61-.68,0-.63.04-3.43.04-3.99h-3.11Zm3.14-3.65v-2.55h-3.16c0,.36.02,2.14.02,2.55h3.14Zm-3.14.54v2.57h3.11c0-.81,0-.97.02-2.57h-3.14Zm7.96-.54v-2.55h-3.18v2.55h3.18Zm0,3.11v-2.57h-3.18c0,.41.02,2.19.02,2.57h3.16Z"/><path class="cls-1" d="m70.43,42.23c.2.11.32.23.32.38,0,.2-.09.32-.56.72v5.73c0,.61.04,5.8.04,6.77,0,.7-.2,1.4-1.31,1.4-.52,0-.83-.2-.83-.7,0-.2.23-2.68.25-3.11.14-2.3.18-5.82.18-7.96v-1.26c-1.31,2.05-2.26,3.23-4.04,4.87l-.14-.14c2.75-4.06,4.58-9.43,4.87-10.4.23-.77.32-1.31.29-2.21l2.64,1.31c.14.07.23.18.23.38s-.14.32-.29.41c-.11.07-.43.2-.7.29-.34.74-.74,1.69-1.53,3.2l.59.32Zm11.32-.72l.97-1.24c.13-.16.2-.27.36-.27.14,0,.23.07.41.23l1.51,1.24c.16.14.23.2.23.34,0,.2-.18.25-.34.25h-11.21c-1.4,0-1.87.04-2.44.13l-.38-.81c1.06.09,2.14.13,3.22.13h7.67Zm-.59,8.66l.59-.72c.09-.11.2-.23.34-.23s.27.09.45.25l.88.72c.13.11.27.23.27.36,0,.29-.41.54-.7.7.02.74.23,4.44.23,4.67,0,.77-.61,1.13-1.33,1.13-.81,0-.79-.45-.74-1.56h-6.34c0,.74,0,1.58-1.4,1.58-.43,0-.7-.2-.7-.79,0-.27.09-1.42.09-1.67.02-.61.07-1.44.07-2.37,0-1.8-.09-2.41-.23-3.13l2.28,1.06h6.25Zm-1.53-11.68l.95-1.17c.11-.16.23-.27.36-.27.11,0,.22.09.41.23l1.49,1.17c.16.11.23.2.23.34,0,.2-.2.25-.34.25h-7.17c-1.38,0-1.87.04-2.44.14l-.36-.81c1.06.09,2.14.14,3.2.14h3.68Zm-.02,5.8l.83-1.13c.14-.18.2-.29.34-.29s.27.13.43.25l1.42,1.13c.16.11.22.2.22.36,0,.2-.2.23-.36.23h-6.92c-1.38,0-1.87.07-2.44.16l-.38-.83c1.08.11,2.14.14,3.23.14h3.63Zm.23,2.89l.65-1.2c.07-.14.18-.27.34-.27.14,0,.23.07.43.23l1.49,1.2c.14.11.23.2.23.36,0,.2-.2.23-.36.23h-6.99c-1.38,0-1.87.07-2.44.16l-.36-.83c1.06.09,2.14.14,3.2.14h3.81Zm-5.03,3.54v4.24h6.34v-4.24h-6.34Z"/><path class="cls-1" d="m102.14,48.25c-.83,0-2.5-.13-4.01-1.08v-.16c.25.07.41.09.97.09,1.47,0,5.53-.2,5.53-3.02,0-.86-.56-2.1-2.21-2.1-1.17,0-4.35.9-8.01,3.25.32.5,1.78,2.73,2.08,3.2.99,1.6,2.93,5.07,2.93,6.47,0,.88-.54,1.24-.97,1.24-.65,0-.92-.41-1.24-1.38-.77-2.32-1.85-5.57-3.92-8.79-1.26.9-1.67,1.31-2.3,1.92-.13.13-.54.52-1.13.52-1.17,0-2.14-1.01-2.14-2.12,0-.47.13-.63.29-.83.65.74.95.86,1.29.86.52,0,.63-.04,3.2-1.51-.2-.27-1.17-1.47-1.35-1.74-.2-.32-.29-.63-.29-.95,0-1.22,1.24-1.31,1.87-1.33.29-.02,3.07-.27,3.23-.36.07-.04.11-.11.11-.18,0-.45-1.08-.97-2.59-1.69.34-.09.77-.18,1.42-.18,1.71,0,3.79.72,3.79,2.46,0,.52-.29.83-.72.83-.25,0-.38-.04-1.04-.25-.36-.11-1.49-.27-2.68-.27-.68,0-1.74.04-1.74.77,0,.14.07.38.23.65.32.5.79,1.26.97,1.56.79-.45,1.42-.79,2.46-1.24,3.13-1.35,5.28-1.56,6.16-1.56,2.14,0,4.15,1.04,4.15,3.25,0,1.62-1.29,3.68-4.31,3.68Z"/><path class="cls-1" d="m125.83,44.96l1.01-1.08c.16-.16.27-.29.36-.29.07,0,.16.07.41.25l1.53,1.08c.11.09.23.18.23.36,0,.2-.18.23-.34.23h-17.41c-1.4,0-1.87.07-2.44.16l-.38-.83c1.06.11,2.14.14,3.22.14h8.21c1.06-2.46,1.13-4.22,1.15-4.94l2.23,1.15c.18.09.34.25.34.43,0,.25-.32.34-.68.47-.9,1.35-1.78,2.34-2.32,2.89h4.87Zm-2.14-5.5l.86-1.02q.23-.27.34-.27c.09,0,.13.02.43.23l1.44,1.02c.13.09.25.18.25.36,0,.2-.18.23-.34.23h-13.1c-1.38,0-1.87.07-2.44.16l-.36-.83c1.06.11,2.12.14,3.2.14h3.97c-.04-1.53-.07-1.85-.61-3.07l2.55.74c.32.09.59.23.59.43s-.2.34-.59.54v1.35h3.81Zm-1.24,8.52l.61-.72c.18-.23.29-.32.45-.32.18,0,.41.16.56.29l.77.59c.13.11.32.27.32.43,0,.25-.34.43-.74.63,0,1.1.25,5.93.25,6.92,0,1.13-1.06,1.15-1.31,1.15-.72,0-.72-.2-.7-1.15h-7.38c0,.41,0,1.38-1.29,1.38-.81,0-.81-.63-.81-.92,0-.25.09-1.29.09-1.51.07-1.26.09-4.26.09-5.66,0-1.26-.04-1.74-.16-2.5l2.32,1.4h6.92Zm-8.07-7.44c2.57,1.2,2.71,2.84,2.71,3.09,0,.74-.52,1.2-1.15,1.2-.81,0-1.06-.63-1.08-1.47-.04-1.4-.07-1.8-.68-2.66l.2-.16Zm.9,7.98v3.04h7.38v-3.04h-7.38Zm0,3.59v3.16h7.38v-3.16h-7.38Z"/><path class="cls-1" d="m148.65,47.1c.02.29.04,1.62.07,1.89.02.45.09,1.15.09,1.58,0,.81-.72,1.11-1.26,1.11-.88,0-.86-.65-.86-1.08h-10.06c-.77,4.17-3.81,6.29-5.91,7.17l-.07-.16c2.93-2.35,4.31-5.8,4.31-9.29,0-1.51-.2-2.71-.34-3.54l2.48,1.17h9.49l.74-.81c.07-.07.2-.2.34-.2.16,0,.25.07.41.18l1.04.77s.27.2.27.45c0,.18-.07.41-.74.77Zm2.84-6.61h-9v2.66h4.69l.79-1.2c.09-.13.18-.29.34-.29.13,0,.34.16.43.25l1.4,1.2c.11.11.23.2.23.34,0,.23-.2.25-.36.25h-13.98c-1.38,0-1.87.05-2.44.16l-.36-.83c1.35.11,2.95.13,3.2.13h4.08v-2.66h-5.93c-1.38,0-1.87.04-2.44.16l-.36-.83c1.35.11,2.95.14,3.2.14h5.5c-.02-1.08-.02-1.47-.5-3.54l2.84.68c.18.04.27.23.27.34,0,.16-.07.2-.61.65v1.87h5.91l1.01-1.31c.14-.18.23-.29.36-.29s.32.16.41.25l1.44,1.31c.09.07.2.23.2.34,0,.2-.16.25-.34.25Zm-10.69,6h-3.92c.02,2.25-.16,3.47-.16,3.56h4.08v-3.56Zm5.91,0h-3.92v3.56h3.92v-3.56Z"/><path class="cls-1" d="m163.5,54.68c1.65-.63,7.08-2.77,7.08-8.3,0-3.14-2.03-6.04-6.5-6.04-.68,0-1.13.07-1.42.11,1.51.65,1.94,1.6,1.94,1.94,0,.32-1.67,3.99-2.91,6.31-2.35,4.42-3.11,4.58-3.74,4.58-.5,0-.74-.34-1.44-1.33-.32-.45-.41-.52-.9-.95-.68-.56-1.02-1.76-1.02-2.62,0-4.85,4.2-8.8,9.68-8.8,4.62,0,8.41,2.66,8.41,7.13,0,4.69-4.06,7.67-9.18,8.12v-.16Zm-7.24-6.7c0,1.44.68,3.38,1.51,3.38.72,0,1.6-1.67,2.07-2.55.72-1.38,2.73-5.46,2.73-6.81,0-.16-.02-.77-.77-1.42-3.07.7-5.55,4.49-5.55,7.4Z"/><path class="cls-1" d="m184.07,48.57l.77-.79c.14-.13.18-.2.29-.2.07,0,.16.07.25.14l1.2.97c.11.09.18.16.18.32,0,.32-.2.43-.83.77-.02.54-.05.95,0,2.44,0,.45.09,2.44.09,2.86,0,.34,0,1.31-1.17,1.31-.09,0-.81-.02-.81-.65,0-.18.04-.45.04-.61h-5.03c.04.18.07.36.07.56,0,1.11-1.31,1.11-1.44,1.11-.43,0-.7-.14-.7-.56,0-.2.07-1.08.09-1.26.07-.95.13-4.31.13-5.12,0-.65-.04-1.76-.18-2.37l2.1,1.11h1.51v-4.22h-2.41c-1.38,0-1.87.07-2.44.16l-.36-.83c1.38.14,2.95.14,3.2.14h2.01v-3.56c-1.6.32-3.34.52-5.64.47v-.2c3.32-.56,9.2-2.57,10.24-3.9l1.74,1.29c.25.18.25.29.25.36,0,.27-.32.27-.7.25-.86.29-2.1.72-4.01,1.29v4.01h2.03l.88-1.17c.09-.14.2-.27.34-.27s.23.07.43.23l1.44,1.17c.11.09.23.2.23.36,0,.2-.2.23-.34.23h-5.01v4.22h1.58Zm-5.07.54v5.46h5.1v-5.46h-5.1Zm11.84-11.52c.14.04.45.18.45.43,0,.2-.5.54-.77.72-.2,3.95-.23,11.57-.23,12.43,0,.47,0,2.62.11,2.91.14.41.81.41.99.41,1.58,0,1.8,0,2.64-4.4h.14c.43,3.77.54,3.88.88,4.19.29.27.41.38.41.68,0,1.38-3.02,1.38-3.92,1.38-1.96,0-3.02-.18-3.02-1.78,0-2.34.07-12.67.07-14.79,0-1.83,0-2.19-.18-3.09l2.44.92Z"/><path class="cls-1" d="m218.28,50.71c-1.96,2.66-3.38,3.61-5.12,3.61-.79,0-2.93-.25-2.93-3.07,0-.95.07-1.33.59-4.8.18-1.2.29-2.66.29-3.09,0-.34,0-1.47-1.08-1.47-1.38,0-4.76,3.18-6.31,5.25,0,1.2.23,5.12.23,5.21,0,.11.14,1.8.14,1.85,0,.47-.2,1.89-.97,1.89-.52,0-.7-.32-.86-1.13-.23-1.22-.29-1.56-.81-2.64l.11-.07s.88.63.95.63c.09,0,.09-.14.09-.27s-.09-3-.11-3.56c-.88,1.51-1.98,3.7-2.19,4.13-.38.81-.54,1.15-1.04,1.15-.68,0-.77-.88-.77-1.17,0-.74.41-1.2,1.02-1.83.41-.45,2.01-2.8,3.04-5.62.05-.74.05-.83.11-1.56-.86.47-.97.56-2.05,1.29-.29.2-.52.34-.81.34-.72,0-1.35-1.2-1.35-1.98,0-.36.14-.61.23-.79.61.56.92.81,1.47.81s2.46-.77,2.64-.83c.04-.56.23-2.39.23-2.84,0-1.47-.79-1.58-1.85-1.74.22-.25.74-.83,1.53-.83s2.48.88,2.48,1.71c0,.14-.02.38-.29.92-.41.83-.52,1.06-.72,2.01.11.04,1.08.63,1.08.97,0,.11-.09.23-.81,1.33-.45.7-.61,1.13-.68,1.31,0,.11-.02.27-.02.36,1.71-2.21,4.83-5.37,6.83-5.37.38,0,2.46.16,2.46,2.62,0,.59-.23,2.19-.45,3.77-.25,1.58-.47,3.13-.47,3.68,0,1.17.41,1.44,1.2,1.44,1.08,0,3.59-.86,4.87-1.78l.14.16Z"/><path class="cls-1" d="m227.58,56.73c-3.41,0-4.87-1.69-4.87-4.35,0-.68.02-.81.32-2.32-2.1-.81-2.86-1.53-2.86-2.46,0-.77.36-1.24,1.89-2.71.27-.25.86-.79.86-.97,0-.2-.11-.29-.29-.36-1.51-.65-2.68-1.2-2.75-3,1.67,1.49,2.55,1.67,4.53,2.08.13-.83.41-2.53.41-3.27,0-1.38-.79-1.67-1.71-2.01.23-.25.47-.5,1.24-.5,1.06,0,2.82.88,2.82,1.83,0,.38-.32,1.1-.41,1.31-.41.9-.65,1.47-1.08,3.02.52.27,1.04.74,1.04,1.17,0,.75-.81.72-1.51.7-.11.5-.52,2.23-.81,3.9.77.02,2.03.09,2.28.18.38.14,1.1.88,1.1,1.26,0,.56-1.01.56-1.42.56-1.02,0-1.89-.27-2.23-.38-.04.34-.11.79-.11,1.49,0,.86,0,3.5,3.41,3.5,1.69,0,3.77-.88,3.77-3.34,0-2.28-1.99-5.43-3.86-6.58l.07-.11c.63.25,5.86,2.28,5.86,6.65s-4.29,4.71-5.66,4.71Zm-6.5-9.61c0,.9,1.42,1.33,2.19,1.53l.7-3.77c-1.94.23-2.89,1.53-2.89,2.23Z"/><path class="cls-1" d="m247,41.42c-1.51.52-3.07.95-4.62,1.29-2.82,6.2-3.38,7.42-4.38,8.77-.07.11-.29.38-.63.38-.29,0-.88-.25-.88-1.04,0-.56.32-.99.5-1.24.72-.99,2.17-3,3.77-6.5-.5.11-1.13.25-1.89.25-1.98,0-2.39-1.13-2.39-1.65,0-.23.07-.43.16-.65.36.68,1.04.99,2.34.99.7,0,1.38-.09,2.37-.32.11-.29.77-1.98.77-2.73,0-.83-.92-1.11-1.31-1.22.38-.34.79-.54,1.29-.54.86,0,2.32.95,2.32,1.6,0,.29-.29.68-.41.86-.43.65-.54.88-.88,1.51.56-.18,1.13-.41,1.62-.63,1.04-.47,1.15-.54,1.42-.54.32,0,1.35.38,1.35.88,0,.29-.32.45-.52.52Zm5.66,5.57c-.41,0-.77-.18-.9-.25-.99-.54-1.33-.72-2.14-.72-2.17,0-2.3,1.76-2.3,2.64,0,1.2.25,2.21.41,2.91,2.14.38,4.33,1.49,4.33,2.73,0,.23-.14.99-.74.99-.43,0-1.35-.65-1.83-.99-.79-.59-1.06-.7-1.53-.9-.02.5-.09,1.49-.86,2.19-.92.86-2.53.92-2.86.92-1.8,0-3.59-1.08-3.59-2.64,0-1.8,1.99-2.57,4.38-2.57.41,0,.68.02.97.04-.14-1.17-.18-1.58-.18-2.12,0-2.73,2.68-3.54,3.63-3.83.09-.02.52-.11.59-.16.09-.07.11-.16.11-.23,0-.45-1.2-1.29-3.11-1.69.56-.18,1.08-.29,1.69-.29,2.77,0,4.69,1.87,4.69,3.16,0,.45-.23.81-.74.81Zm-8.46,5.53c-.43,0-2.73,0-2.73,1.33,0,.95,1.53,1.26,2.37,1.26,2.28,0,2.25-1.8,2.23-2.37-.45-.14-.77-.23-1.87-.23Z"/><path class="cls-1" d="m261.55,55.94c-3.61,0-4.17-2.28-4.17-5.86,0-.65.27-8.03.27-9.54s-.23-1.8-2.05-2.3c.7-.74,1.78-.74,1.94-.74,1.31,0,2.64,1.15,2.64,1.76,0,.23-.27,1.13-.32,1.31-.9,4.33-.9,10.49-.9,10.69,0,1.92,0,3.13,2.39,3.13,2.91,0,8.41-2.5,10.24-4.2l.13.14c-2.77,5.12-8.39,5.62-10.17,5.62Z"/><path class="cls-1" d="m273.53,57.74l-.22-.32c2.37-2.17,4.08-6.29,4.08-10.6s-1.71-8.43-4.08-10.6l.22-.32c2.82,1.83,5.41,5.89,5.41,10.92s-2.59,9.09-5.41,10.92Z"/><path class="cls-1" d="m422.65,9.5l.87-.96c.12-.12.24-.27.39-.27s.33.15.45.24l1.2,1.08c.15.12.27.33.27.54,0,.3-.12.45-.75,1.08-.06.87,0,4.93-.09,5.53-.06.36-.66,1.08-1.59,1.08-.51,0-.69-.39-.6-.87h-2.68v2.8h1.68l.99-1.2c.21-.24.33-.36.48-.36.18,0,.36.15.54.3l1.44,1.2c.15.12.3.24.3.45,0,.27-.24.33-.45.33h-4.99v2.53c3.22-.45,4.48-.69,5.44-.87v.21c-3.16,1.74-10.23,3.58-12.12,3.94-.21.57-.42.84-.69.84-.24,0-.48-.27-.57-.42l-1.41-2.95c.45.09,1.05.12,1.47.12.57,0,1.5-.09,2.35-.21.33-.03,2.47-.24,3.28-.36v-2.83h-2.62c-1.83,0-2.5.06-3.25.18l-.48-1.08c1.83.15,3.94.18,4.27.18h2.08v-2.8h-2.71c.06.42.03.81-.36,1.11-.21.18-.75.45-1.2.45-.54,0-.75-.36-.75-.93,0-1.05.09-5.65.09-6.62,0-.57-.09-2.5-.3-3.04l2.95,1.56h2.29v-2.32h-3.13c-1.86,0-2.53.06-3.28.21l-.48-1.11c1.83.15,3.94.18,4.3.18h2.59v-2.2c-1.17.12-2.95.27-4.27.27-.93,0-1.53-.06-2.08-.09v-.18c2.53-.54,7.43-1.89,9.74-2.83.72-.27,1.26-.69,1.56-.99l2.01,1.86c.12.09.27.27.27.51,0,.27-.3.42-1.41.33-.51.15-1.5.39-3.58.78v2.53h3.07l1.11-1.56c.12-.18.3-.36.48-.36s.33.15.51.3l1.8,1.56c.18.15.3.27.3.45,0,.27-.24.33-.45.33h-6.83v2.32h2.53Zm-4.78,3.25v-2.53h-2.74v2.53h2.74Zm0,3.49v-2.77h-2.74v2.77h2.74Zm2.26-6.01v2.53h2.74v-2.53h-2.74Zm0,3.25v2.77h2.74v-2.77h-2.74Zm13.68-4.93l1.29-1.26c.12-.12.33-.33.45-.33.18,0,.39.18.51.27l1.5,1.17c.24.18.36.3.36.51,0,.3-.66.75-1.05,1.02v1.5c-.15,5.56-.21,9.68-.93,11.82-.9,2.74-1.92,4.24-5.05,4.6-.24-2.01-1.77-2.86-3.22-3.61l.09-.24c1.65.39,3.31.39,3.52.39,1.32,0,1.53-.18,1.98-1.2.96-2.23,1.32-10.32,1.32-11.79,0-.78-.12-1.74-.24-2.14h-2.62c0,1.29-.03,4.21-.99,7.94-1.71,6.71-5.14,9.17-8.57,10.8l-.21-.21c3.46-2.38,5.23-6.13,6.1-8.81.66-1.99,1.11-4.81,1.2-9.71-1.89,0-2.53.06-3.25.21l-.48-1.11c1.23.12,1.47.12,3.73.18.06-1.98.12-5.8-.63-8.45l3.52,1.2c.18.06.54.27.54.51,0,.21-.15.33-.27.45-.39.33-.42.36-.6.54-.03.84-.06,4.84-.09,5.74h2.08Z"/><path class="cls-1" d="m467.47,3.19h-11.73v4.33h2.47l.78-.99c.09-.12.21-.24.39-.24.15,0,.27.12.48.3l1.41,1.23c.09.09.24.24.24.42,0,.21-.18.42-.81,1.02-.03.72-.03,1.17-.03,1.92,0,1.32.15,7.85.15,9.32,0,1.11-.93,1.56-1.56,1.56-.36,0-1.02-.12-1.02-1.05,0-.15.06-.39.12-.69h-7.49c.06.51.09.9-.03,1.2-.21.48-1.02.75-1.47.75-1.05,0-1.05-.81-1.05-1.2,0-2.8.12-7.22.12-9.99,0-1.11,0-3.4-.24-4.93l2.95,1.35h2.35V3.19h-8.09c-2.11,0-2.68.09-3.25.18l-.51-1.08c1.44.12,2.86.18,4.3.18h17.08l1.35-1.71c.12-.18.27-.39.45-.39s.36.18.57.33l2.23,1.71c.12.09.3.27.3.45,0,.3-.3.33-.45.33Zm-1.75,5.41c-.12,2.83.06,12.93.12,14.56,0,.42.15,2.32.15,2.71,0,1.35-1.17,1.59-1.8,1.59-1.02,0-1.02-.72-1.02-1.08,0-.09.06-1.32.06-1.53h-16.93c.03,1.29.06,2.44-1.62,2.44-1.17,0-1.17-.75-1.17-1.08,0-.15.06-1.14.09-1.35.09-1.38.09-5.41.09-6.98,0-2.35,0-8.66-.24-10.59-.06-.6-.15-.84-.3-1.29l3.52.99c.24.06.33.21.33.54,0,.42-.39.72-.78.99-.06,1.47-.09,2.86-.09,5.02,0,1.44,0,1.98.09,6.74,0,.54.06,3.34.06,3.85h16.96c0-9.32,0-14.26-.18-16.45-.06-.66-.18-1.11-.33-1.56l3.25.9c.24.06.51.18.51.51,0,.39-.42.81-.75,1.08Zm-12.24-.36h-2.62v5.17h2.62v-5.17Zm0,5.9h-2.62v5.47h2.62v-5.47Zm4.9-5.9h-2.65v5.17h2.65v-5.17Zm0,5.9h-2.65v5.47h2.65v-5.47Z"/><path class="cls-1" d="m479.19,6.38l1.08-.96c.09-.09.27-.21.39-.21.21,0,.36.12.51.27l1.17,1.17c.15.15.36.36.36.6,0,.45-.48.57-1.44.84-.54.93-1.26,2.08-2.74,3.88v.21c3.73.75,4.03,1.8,4.03,2.71,0,.96-.87,1.35-1.38,1.35-.66,0-.96-.54-1.26-1.2-.66-1.44-.78-1.71-1.38-2.35.03,1.9.12,11.16.12,13.26,0,1.05-.75,1.5-1.56,1.5-.93,0-.93-.69-.93-.99s.09-1.83.09-2.17c.06-1.2.06-1.53.06-9.96-2.74,2.5-4.51,3.43-5.47,3.91l-.09-.09c3.31-3.22,5.98-7.01,8.12-11.07h-3.52c-2.08,0-2.65.09-3.25.18l-.48-1.08c1.68.12,3.4.18,4.6.18v-2.5c0-2.17-.39-3.13-.72-3.88l3.52,1.17c.15.06.39.15.39.42s-.09.33-.9.96v3.82h.69Zm7.22,10.8l2.23,1.26c.15.09.36.27.36.51,0,.42-.39.54-.84.54-2.53,4.6-6.44,6.74-9.08,6.98l-.09-.15c3.46-1.86,6.2-5.68,6.89-8.18-.42.36-1.05.36-1.14.36-.99,0-.99-.57-.99-1.02,0-1.35.06-8.06.06-9.59,0-4.24-.09-5.71-.39-7.16l3.04,1.56h6.26l.78-.9c.15-.15.3-.3.51-.3.18,0,.33.09.39.15l1.47,1.23c.21.18.3.27.3.42,0,.21,0,.3-.96.84,0,1.11.06,8.06.06,8.75.03.69.12,4.03.12,4.78,0,1.2-1.17,1.41-1.56,1.41-.9,0-.9-.51-.93-1.5h-.96v6.56c0,.69,0,.78,2.44.78,1.08,0,1.68,0,2.35-4.81h.18c.15.87.24,1.17.42,2.01.39,1.75.42,1.92.84,2.17.72.39.78.42.78.9,0,2.08-2.86,2.17-5.38,2.17s-3.73-.27-3.91-1.5c-.06-.39-.06-7.58-.06-8.27h-3.16Zm-.27-14.17v3.94h6.74v-3.94h-6.74Zm0,4.66v3.97h6.74v-3.97h-6.74Zm6.74,8.78v-4.09h-6.74v4.09h6.74Z"/><path class="cls-1" d="m513.21,3.07h-2.41c0,1.05-.03,10.5.12,19.01,0,.66.18,3.94.18,4.69,0,.84-1.14,1.14-1.83,1.14-.21,0-.51-.03-.63-.3-.09-.21-.09-2.08-.09-3.31,0-1.44,0-2.71.06-3.79-1.65,1.17-3.34,2.32-5.17,3.16-.06.18-.12.57-.45.57-.18,0-.27-.12-.33-.24l-1.62-3.22c.54.06.99.12,1.44.12.48,0,.87-.06,1.17-.09V3.1c-.75.03-1.14.09-1.59.15l-.48-1.08c1.41.12,2.86.18,4.27.18h3.61l1.05-1.23c.3-.36.33-.39.48-.39.09,0,.3.15.54.3l1.83,1.26c.15.09.33.27.33.45,0,.3-.3.33-.48.33Zm-4.57,0h-2.71v5.2h2.71V3.07Zm0,5.92h-2.71v5.2h2.71v-5.2Zm0,5.92h-2.71v5.5c.54-.12,1.29-.3,2.71-.72v-4.78Zm4.09,10.29c-.87,0-1.32-.72-1.32-1.32,0-.69.42-1.11,1.35-2.11.75-.81,1.05-1.71,1.32-3.07h.18c.27.72.66,1.77.66,3.07,0,1.62-.93,3.43-2.2,3.43Zm15.01-20.63h-7.1v3.31h3.31l.6-.63c.24-.27.36-.39.51-.39.18,0,.33.12.45.21l1.53,1.14c.12.09.3.21.3.33,0,.3-.45.51-.84.72-.03.6-.06,1.14,0,3.01,0,.39.12,2.32.12,2.74,0,.87-1.32,1.2-1.8,1.2-.72,0-.72-.54-.69-1.47h-9.2c.03.99.06,1.89-1.56,1.89-.78,0-.81-.39-.81-.87,0-.27.12-3.49.12-3.91,0-1.74,0-4.03-.12-5.2l2.53,1.23h3.16c-.03-1.26-.03-1.96-.03-3.31h-1.5c-2.08,0-2.65.09-3.25.21l-.48-1.11c1.41.12,2.86.18,4.27.18h.93c0-2.26-.09-2.53-.63-3.85l3.37.93c.33.09.48.3.48.45,0,.27-.45.6-.75.84v1.62h3.82l.78-1.44c.15-.27.27-.39.45-.39s.45.24.54.33l1.65,1.44c.15.12.3.27.3.45,0,.33-.3.33-.45.33Zm-11.13,4.03h-1.68v5.41h1.68v-5.41Zm7.67,17.23c-.87.75-2.29.87-3.73.87-4.3,0-4.63-.81-4.63-3.46,0-.54.06-3.01.06-3.52,0-1.17-.09-1.56-.27-2.29l2.86.81c.33.09.57.18.57.48,0,.36-.45.6-.75.75-.03,1.08-.09,2.68-.09,3.52,0,1.2,0,1.29,2.17,1.29,1.71,0,2.01-.18,2.8-3.61l.15.03c.39,2.5.39,2.53,1.05,3.04.54.39.57.45.57.69,0,.51-.48,1.14-.75,1.38Zm-2.83-5.14c-1.05,0-1.23-.54-1.77-2.35-.03-.12-.33-1.05-1.29-2.23l.12-.24c2.35.84,4.21,1.8,4.21,3.61,0,.93-.75,1.2-1.26,1.2Zm-1.11-12.09h-1.68v5.41h1.68v-5.41Zm3.79,0h-1.77v5.41h1.77v-5.41Zm3.01,15.61c-.87,0-.99-.51-1.32-1.77-.15-.6-.57-1.59-.99-2.47-.6-1.17-.96-1.59-1.35-2.04l.15-.18c2.5,1.02,4.9,2.92,4.9,4.81,0,.78-.45,1.65-1.38,1.65Z"/><path class="cls-1" d="m376.97,57.74c-2.82-1.83-5.41-5.89-5.41-10.92s2.59-9.09,5.41-10.92l.23.32c-2.37,2.17-4.08,6.29-4.08,10.6s1.71,8.43,4.08,10.6l-.23.32Z"/><path class="cls-1" d="m399.21,40.29h-16.19c-1.38,0-1.87.07-2.44.16l-.36-.83c1.35.14,2.95.14,3.2.14h5.53c.04-1.53-.23-2.75-.56-3.36l2.8.86c.11.04.34.11.34.36,0,.27-.45.43-.68.5,0,.38,0,.45-.04,1.65h5.1l1.15-1.31c.23-.25.25-.29.36-.29s.29.16.41.25l1.51,1.31c.11.11.23.2.23.36,0,.2-.2.23-.34.23Zm-1.06,8.62c-.05.86.13,4.58.13,5.34s0,1.53-1.2,2.3c-.77.47-1.4.54-1.83.59,0-.79-.92-1.87-2.1-2.5v-.16c.52.07,1.22.16,2.53.16.65,0,.72-.16.72-1.85,0-.83-.04-3.68-.11-4.44h-12.92c-.07.54-.07.65-.07,1.67,0,.86.07,4.62.07,5.39,0,.63,0,1.47-1.29,1.47-.5,0-.81-.25-.81-.77,0-.77.16-1.98.2-2.75.07-1.01.07-1.69.07-2.25,0-1.49,0-3.54-.27-4.44l2.32,1.15h12.45l.77-.79c.07-.07.2-.18.36-.18s.36.16.45.23l1.11.86c.16.11.2.18.2.32,0,.18-.07.23-.79.68Zm-2.98-5.91c-.04.43.09,2.41.09,2.82,0,.86-1.35.95-1.42.95-.7,0-.52-1.01-.5-1.15h-7.46c0,.61-.02.79-.18.97-.23.27-.81.43-1.17.43-.56,0-.56-.34-.56-.56,0-.5.09-2.75.09-3.2,0-.43-.04-2.1-.07-2.37l2.05.95h7.17l.65-.63c.07-.07.25-.23.34-.23.14,0,.16.04.41.23l1.17.9c.11.09.13.16.13.27,0,.25-.07.27-.74.63Zm-1.53,7.87c0,.45,0,.97.02,1.44.02.2.09.99.09,1.15,0,.56-.29.72-.41.79-.25.14-.63.27-.9.27-.36,0-.65-.18-.65-.47,0-.13.04-.36.04-.52h-4.42c.04.47.13,1.33-1.01,1.33-.32,0-.86-.09-.86-.56,0-.11.16-2.46.16-2.91,0-.83-.14-2.03-.25-2.53l2.1,1.17h4.11l.68-.72c.14-.16.23-.25.29-.25.13,0,.29.13.36.18l.97.81c.11.09.18.18.18.32,0,.09,0,.18-.5.5Zm-.25-8.5h-7.49v2.71h7.49v-2.71Zm-1.56,8.21h-4.44v2.41h4.44v-2.41Z"/><path class="cls-1" d="m421.9,38.8h-8.8v3.25h1.85l.59-.75c.07-.09.16-.18.29-.18.11,0,.2.09.36.23l1.06.92c.07.07.18.18.18.32,0,.16-.14.32-.61.77-.02.54-.02.88-.02,1.44,0,.99.11,5.89.11,6.99,0,.83-.7,1.17-1.17,1.17-.27,0-.77-.09-.77-.79,0-.11.04-.29.09-.52h-5.62c.04.38.07.68-.02.9-.16.36-.77.56-1.11.56-.79,0-.79-.61-.79-.9,0-2.1.09-5.41.09-7.49,0-.83,0-2.55-.18-3.7l2.21,1.02h1.76v-3.25h-6.07c-1.58,0-2.01.07-2.44.14l-.38-.81c1.08.09,2.14.14,3.22.14h12.81l1.01-1.29c.09-.13.2-.29.34-.29s.27.14.43.25l1.67,1.29c.09.07.23.2.23.34,0,.23-.23.25-.34.25Zm-1.31,4.06c-.09,2.12.04,9.7.09,10.92,0,.32.11,1.74.11,2.03,0,1.01-.88,1.2-1.35,1.2-.77,0-.77-.54-.77-.81,0-.07.04-.99.04-1.15h-12.7c.02.97.04,1.83-1.22,1.83-.88,0-.88-.56-.88-.81,0-.11.04-.86.07-1.01.07-1.04.07-4.06.07-5.23,0-1.76,0-6.5-.18-7.94-.05-.45-.11-.63-.23-.97l2.64.74c.18.04.25.16.25.41,0,.32-.29.54-.59.74-.04,1.1-.07,2.14-.07,3.77,0,1.08,0,1.49.07,5.05,0,.41.04,2.5.04,2.89h12.72c0-6.99,0-10.69-.13-12.34-.04-.5-.14-.83-.25-1.17l2.44.68c.18.04.38.13.38.38,0,.29-.32.61-.56.81Zm-9.18-.27h-1.96v3.88h1.96v-3.88Zm0,4.42h-1.96v4.1h1.96v-4.1Zm3.68-4.42h-1.98v3.88h1.98v-3.88Zm0,4.42h-1.98v4.1h1.98v-4.1Z"/><path class="cls-1" d="m432.37,40.58l.74-.77c.2-.23.29-.32.43-.32.11,0,.2.09.41.25l.99.79c.14.11.23.18.23.36,0,.2-.2.23-.34.23h-2.21c.05.77.07,2.55.07,3.41,0,.9-1.06.9-1.15.9-.68,0-.7-.38-.7-.59,0-.32.04-1.69.04-1.96.02-.7.02-1.22,0-1.76h-1.6c-.25,1.6-.79,4.31-4.33,5.39l-.04-.11c1.89-1.85,2.64-3.59,2.64-6.7,0-1.01-.04-1.62-.25-2.46l2.32,1.01c1.58-.36,2.82-1.04,3.63-1.8l1.6,1.31c.11.09.23.25.23.38,0,.2-.18.34-.47.34-.09,0-.38-.02-.56-.02-1.71.2-3.74.23-4.6.23,0,.63-.02,1.31-.09,1.89h3.02Zm6.9,5.73l.54-.61c.16-.18.25-.29.41-.29s.29.09.45.2l1.1.72c.18.11.29.2.29.36,0,.18-.32.38-.83.65,0,.79.11,4.62.11,5.5,0,.95-1.04.97-1.29.97-.52,0-.63-.18-.59-.56h-6.68l1.11.9c.16.13.23.18.23.32,0,.18-.18.29-.88.34-2.93,1.56-5.48,2.07-7.85,2.28v-.14c2.28-.88,4.24-1.92,6.16-3.7h-.92c.04.7-.81.92-1.35.92-.38,0-.52-.14-.52-.54,0-.18.11-1.76.11-2.08.04-1.17.04-3.95.04-5.16,0-.32-.02-.95-.07-1.38l2.3,1.29h8.12Zm-8.64.54v1.56h8.86v-1.56h-8.86Zm0,2.1v1.58h8.86v-1.58h-8.86Zm8.86,3.77v-1.65h-8.86v1.65h8.86Zm2.71-12.13l.79-1.08c.14-.18.23-.29.36-.29s.25.11.41.25l1.2,1.08c.16.16.23.2.23.36,0,.18-.16.23-.32.23h-3.36c.02.77.07,2.48.07,3.34,0,.9-1.06.9-1.15.9-.7,0-.7-.38-.7-.56,0-.59.07-3.16.02-3.68h-2.08c-.23,1.06-.74,3.7-4.29,4.85l-.04-.09c.77-.68,2.73-2.41,2.73-6.38,0-.83-.07-1.44-.34-2.41l2.26.9c1.17-.27,2.59-.88,3.65-1.8l1.71,1.33c.16.11.25.2.25.38,0,.2-.16.27-.41.27-.09,0-.25-.04-.38-.07-1.74.36-4.85.34-4.92.34,0,1.02-.07,1.62-.13,2.14h4.44Zm-5.25,12.95c2.57.16,6.68.65,6.68,2.75,0,.56-.5.97-.99.97-.56,0-.68-.09-1.8-1.06-1.67-1.44-2.73-2.05-3.9-2.55l.02-.11Z"/><path class="cls-1" d="m455.26,56.73c-3.41,0-4.87-1.69-4.87-4.35,0-.68.02-.81.32-2.32-2.1-.81-2.86-1.53-2.86-2.46,0-.77.36-1.24,1.89-2.71.27-.25.86-.79.86-.97,0-.2-.11-.29-.29-.36-1.51-.65-2.68-1.2-2.75-3,1.67,1.49,2.55,1.67,4.53,2.08.14-.83.41-2.53.41-3.27,0-1.38-.79-1.67-1.71-2.01.23-.25.47-.5,1.24-.5,1.06,0,2.82.88,2.82,1.83,0,.38-.32,1.1-.41,1.31-.41.9-.65,1.47-1.08,3.02.52.27,1.04.74,1.04,1.17,0,.75-.81.72-1.51.7-.11.5-.52,2.23-.81,3.9.77.02,2.03.09,2.28.18.38.14,1.1.88,1.1,1.26,0,.56-1.01.56-1.42.56-1.02,0-1.89-.27-2.23-.38-.04.34-.11.79-.11,1.49,0,.86,0,3.5,3.41,3.5,1.69,0,3.77-.88,3.77-3.34,0-2.28-1.99-5.43-3.86-6.58l.07-.11c.63.25,5.86,2.28,5.86,6.65s-4.29,4.71-5.66,4.71Zm-6.5-9.61c0,.9,1.42,1.33,2.19,1.53l.7-3.77c-1.94.23-2.89,1.53-2.89,2.23Z"/><path class="cls-1" d="m478.74,54.68c-.61,0-.95-.59-1.17-.95-1.74-2.89-2.77-4.33-4.58-5.75-3.45,4.1-6.88,6.29-10.06,6.86v-.18c5.39-2.5,10.96-10.06,11.71-13.26-.07.02-4.58.83-5.77,1.42-.65.34-.74.36-.92.36-.34,0-1.76-1.04-1.76-2.48,0-.59.09-.74.2-.99.92,1.2,1.11,1.44,1.85,1.44.54,0,5.48-.43,6.41-1.01.16-.11.88-.72,1.06-.72.29,0,2.05,1.67,2.05,2.03,0,.25-.16.32-.88.59-.2.09-.29.25-.63.86-1.49,2.71-1.74,3.16-2.91,4.67,2.75,1.15,6.29,3.86,6.29,5.89,0,.54-.2,1.24-.88,1.24Z"/><path class="cls-1" d="m497.53,53.93c-.7,0-.92-.63-1.17-1.33-.07-.2-.86-2.34-.9-2.46-1.96.81-4.42,1.42-9.09,2.62-.61.16-.77.2-1.04.54-.23.25-.34.34-.54.34-.61,0-1.92-1.83-1.92-3.07,0-.11,0-.23.04-.56.77.74.99.92,1.96.92.32,0,.59-.02.77-.04.83-1.69,4.06-8.84,4.06-10.28,0-.86-.5-1.2-1.76-1.74.59-.18,1.11-.36,1.58-.36,1.06,0,2.8,1.29,2.8,2.3,0,.36-.09.45-.63.95-.32.32-1.06,2.14-1.24,2.48-.97,1.89-2.57,4.6-4.01,6.58,4.24-.5,4.71-.54,8.82-1.15-.97-2.12-2.39-3.68-3.02-4.35.72.29,1.74.77,3.45,2.46,2.32,2.26,2.73,3.61,2.73,4.76,0,.83-.36,1.4-.88,1.4Z"/><path class="cls-1" d="m518.03,47.87c-.36,0-.92-.02-1.38-.07-.43-.02-5.93-.07-6.32-.07-1.31,0-4.76.07-5.8.36-.41.11-.59.16-.77.16-.83,0-2.1-1.78-2.1-2.68,0-.29.09-.68.36-1.26.79,1.58,1.33,1.85,4.01,1.85,1.31,0,9.13-.02,9.9-.29.34-.11.61-.23.9-.23.05,0,2.68.2,2.68,1.4,0,.38-.43.83-1.51.83Z"/><path class="cls-1" d="m537.77,55.11c-.5,0-.61-.2-1.58-1.96-.99-1.85-2.39-3.5-4.08-4.78-3.32,4.06-7.22,6.16-9.92,6.83v-.09c5.82-3.45,10.44-9.13,11.57-13.15-4.65.92-5.12,1.01-5.73,1.35-.65.38-.72.43-.9.43-.25,0-.36-.11-.68-.45-.65-.65-1.1-1.13-1.1-2.1,0-.47.11-.68.23-.95.74,1.06,1.04,1.47,1.69,1.47,1.04,0,5.46-.47,6.31-.88.2-.11,1.01-.77,1.22-.77.32,0,2.08,1.6,2.08,1.94,0,.2-.09.25-.83.59-.25.11-.34.25-.45.47-1.13,2.07-1.69,3.16-3.16,4.92,2.77,1.22,6.25,3.54,6.25,5.82,0,1.13-.68,1.31-.9,1.31Zm.16-14.12c-.38,0-.5-.16-1.01-.88-.2-.27-1.2-1.44-2.35-1.94.83-.04,1.65.11,2.73.5.56.2,1.2.5,1.2,1.49,0,.16,0,.83-.56.83Zm2.21-1.17c-.29,0-.41-.11-1.26-1.04-.63-.68-1.35-1.31-2.21-1.74.61-.02,4.06.04,4.06,2.01,0,.54-.32.77-.59.77Z"/><path class="cls-1" d="m546.64,50.14c-.32,1.65-.45,2.44-.45,2.95,0,.25.13,1.31.13,1.53,0,.7-.09,1.15-.72,1.15-1.33,0-2.59-2.73-2.59-6.68,0-1.44.2-3.29.9-7.01.11-.65.16-1.26.16-1.51,0-.72-.18-1.29-.88-2.17.16-.09.32-.18.59-.18.81,0,2.5,1.38,2.5,2.21,0,.41-.23.92-.32,1.13-.95,2.14-1.74,3.92-1.74,6.58,0,1.44.38,3.22.79,3.22.16,0,.27-.27.34-.45.2-.63,1.33-3.58,1.99-4.8h.16c-.11.63-.74,3.45-.86,4.01Zm10.8,3.7c-5.44,0-7.62-.97-7.62-3.81,0-.74.18-.97.32-1.17.38,1.6.74,3.04,4.92,3.04.47,0,2.57-.16,3-.16,1.6,0,1.89.77,1.89,1.13,0,.97-1.24.97-2.5.97Zm-.02-11.82c-2.39.41-4.04,1.29-4.44,1.62l-.16-.13c.29-.34,1.94-1.85,1.94-2.03,0-.32-.72-.32-.9-.32-1.38,0-3.36.81-3.95,1.04.77-1.8,3.92-2.48,6.09-2.48.99,0,2.84.32,2.84,1.35,0,.47-.29.77-1.42.95Z"/><path class="cls-1" d="m562.59,57.74l-.22-.32c2.37-2.17,4.08-6.29,4.08-10.6s-1.71-8.43-4.08-10.6l.22-.32c2.82,1.83,5.41,5.89,5.41,10.92s-2.59,9.09-5.41,10.92Z"/><path class="cls-1" d="m91.16,104.28c-.15,0-.33,0-.51-.03-1.59-.21-3.19-.33-4.81-.33-1.05,0-1.71.03-2.2.06,0,.6,0,2.08.06,4.39.03,1.02.21,5.56.21,6.5,0,3.91-1.23,4.81-1.92,4.81-.57,0-.81-.57-1.32-1.68-.3-.63-1.05-1.77-3.22-3.04l.09-.27c1.44.42,3.4.6,3.49.6.39,0,.48-.15.54-.33.09-.33.24-6.17.24-7.67v-.69c-2.89,4.51-7.19,7.94-12.27,9.62l-.12-.21c3.79-2.62,9.41-7.73,11.55-11.79-3.91.45-6.35,1.23-6.47,1.29-.3.12-.87.27-.99.27-.57,0-2.95-.99-2.95-3.49,0-.45.06-.72.12-1.05,1.32,1.44,1.92,2.04,4.12,2.04s5.8-.42,6.98-.57c-.06-3.25-.15-4.42-.45-5.14s-.81-.9-2.35-1.47c.78-.78,1.96-.78,2.04-.78,1.08,0,3.55,1.05,3.55,1.89,0,.21-.33.81-.45,1.05-.39.84-.42,2.14-.48,4.24,2.8-.33,3.1-.36,3.64-.48.24-.06,1.26-.45,1.5-.45.27,0,3.1.57,3.1,1.83,0,.42-.18.87-.72.87Z"/><path class="cls-1" d="m103.25,102.87c-.51,0-.9-.42-1.92-1.44-2.47-2.5-3.94-3.16-5.02-3.67.54-.06.9-.09,1.47-.09,1.02,0,6.65.42,6.65,3.76,0,.93-.69,1.44-1.17,1.44Zm2.71,10.01c-1.11.87-2.92,2.17-3.94,3.1-.18.15-.87.96-1.05,1.05-.15.09-.3.12-.42.12-1.08,0-3.22-2.74-3.22-4.21,0-.51.12-1.02.21-1.41.96,1.62,1.87,2.04,2.38,2.04.84,0,5.87-3.67,6.95-4.51,4.9-3.82,7.79-7.07,9.41-8.93l.12.06c-.48,1.92-3.49,7.28-10.44,12.69Z"/><path class="cls-1" d="m137.06,105.75c-.15.12-.24.27-.87,1.65-1.35,2.89-2.71,5.92-6.44,8.9-1.5,1.23-4.9,3.58-8.18,3.67v-.21c3.04-1.2,7.31-5.47,8.12-6.41,1.29-1.47,3.16-4.12,4.48-8.42-1.8.18-9.2.93-10.92,1.65-.18.09-.96.51-1.14.51-.63,0-3.04-1.71-3.04-3.79,0-.33.06-.63.24-1.08.24.33.54.78,1.32,1.38.69.51.9.57,1.74.57,1.99,0,11.55-.75,11.91-.93.24-.15,1.05-1.17,1.29-1.17.3,0,2.68,1.68,2.68,2.47,0,.39-.3.6-1.2,1.2Zm-4-5.9c-1.41.06-5.87.33-7.13.57-1.35.24-1.5.3-1.92.3-1.41,0-2.77-2.1-2.62-3.61,1.41,1.44,3.07,1.44,4.27,1.44,3.4,0,5.74-.63,6.11-.75.27-.06,1.32-.6,1.56-.6s1.53.45,1.89.63c.42.18.81.48.81,1.08,0,.78-.48.84-2.98.93Z"/><path class="cls-1" d="m157.9,98.96c-.84.6-1.2.99-1.95,1.8-.48.51-2.56,2.86-3.01,3.34.51.3,1.56,1.02,1.56,1.44,0,.21-.3,1.05-.33,1.23-.03.24-.09,1.83-.09,3.76,0,1.17.21,6.35.21,7.37,0,.75-.27,2.07-1.17,2.07s-1.65-1.56-1.65-2.38c0-.3.27-1.65.3-1.92.21-1.71.24-3.4.24-5.11,0-.6,0-3.88-.18-4.48q-.06-.18-.39-.42c-4.57,4.45-8.12,5.92-10.41,6.71l-.12-.18c6.14-3.76,14.17-13.89,14.17-15.13,0-.75-.81-1.44-1.5-2.01.39-.06.78-.12,1.32-.12,1.86,0,3.94,2.35,3.94,3.04,0,.36-.12.45-.93.99Z"/><path class="cls-1" d="m172.37,102.87c-.51,0-.9-.42-1.92-1.44-2.47-2.5-3.94-3.16-5.02-3.67.54-.06.9-.09,1.47-.09,1.02,0,6.65.42,6.65,3.76,0,.93-.69,1.44-1.17,1.44Zm2.71,10.01c-1.11.87-2.92,2.17-3.94,3.1-.18.15-.87.96-1.05,1.05-.15.09-.3.12-.42.12-1.08,0-3.22-2.74-3.22-4.21,0-.51.12-1.02.21-1.41.96,1.62,1.87,2.04,2.38,2.04.84,0,5.87-3.67,6.95-4.51,4.9-3.82,7.79-7.07,9.41-8.93l.12.06c-.48,1.92-3.49,7.28-10.44,12.69Z"/><path class="cls-1" d="m214.59,112.37h-12.09v5.17c0,1.53-.84,3.31-3.97,3.79-.3-1.83-1.32-2.44-3.43-3.46v-.24c.54.06,2.92.18,3.67.18.99,0,1.26-.12,1.26-.96v-4.48h-8.54c-1.83,0-2.5.06-3.25.21l-.48-1.11c1.8.15,3.94.18,4.27.18h8c0-1.92,0-2.14-.54-3.85l2.47.75c.42-.48,2.17-2.5,2.32-2.77h-7.46c-1.83,0-2.5.06-3.25.21l-.48-1.11c1.83.15,3.94.18,4.27.18h7.13l1.71-1.2c.15-.12.36-.21.45-.21.24,0,.39.12.57.33l1.8,1.83c.12.12.15.24.15.36,0,.81-.69.87-2.59.75-1.5.78-2.74,1.38-3.91,1.89.18.15.3.24.3.42,0,.3-.21.57-.48.9v1.5h7.25l1.53-1.59c.3-.3.51-.54.63-.54s.15.03.54.33l2.29,1.74c.09.06.3.24.3.45,0,.3-.24.33-.45.33Zm-1.83-9.32c-.3.21-1.5,1.26-1.77,1.44-.51.33-.81.51-1.65,1.08l-.18-.12c.42-.96,1.02-3.67,1.08-3.97h-17.5c0,2.98-1.62,5.47-3.34,5.47-.78,0-1.41-.54-1.41-1.41s.33-1.14,1.62-2.26c1.65-1.41,2.11-2.44,2.65-3.97h.15c.15.51.24.87.3,1.44h11.31c.81-1.2,2.62-4.48,2.62-6.56,0-.15,0-.24-.03-.45l3.25,1.56c.21.09.39.21.39.48,0,.54-1.02.63-1.2.66-1.26,1.53-3.01,3.31-4.27,4.3h5.44l1.23-1.05c.33-.27.39-.27.48-.27.18,0,.21.03.57.36l1.86,1.65c.33.3.39.45.39.6,0,.69-.72.81-1.98.99Zm-17.14-3.19c-.87,0-1.17-.45-1.59-1.74-.39-1.11-.75-2.23-1.89-3.4l.12-.15c2.17.45,4.75,1.87,4.75,3.85,0,.36-.09,1.44-1.38,1.44Zm5.92-.3c-1.05,0-1.32-.84-1.71-2.04-.3-.93-.48-1.5-1.86-3.22l.12-.12c2.68.48,4.9,2.29,4.9,3.85,0,.63-.39,1.53-1.44,1.53Z"/><path class="cls-1" d="m230.17,97.42c0,1.05.15,5.68.15,6.65,0,1.17-.21,2.29-3.31,3.25-.3-1.53-.99-2.17-2.1-3.07l.12-.24c.36.03,1.68.12,2.04.12.48,0,.57-.09.6-.45.03-.54.03-1.35.03-2.47-1.05.96-3.16,2.2-3.49,2.38-1.71,1.02-2.59,1.53-3.37,2.02-.21.45-.45,1.05-.81,1.05-.24,0-.33-.21-.45-.39l-1.77-2.98c.21.03.45.09.66.09,1.5,0,8.87-2.35,9.14-2.41l.09.06v-4.72h-5.74c-1.87,0-2.5.09-3.25.21l-.51-1.11c1.83.18,3.97.18,4.3.18h4.84l1.2-.93c.18-.12.36-.3.54-.3.15,0,.27.18.45.33l1.32,1.29c.15.12.27.3.27.48,0,.24-.09.33-.96.96Zm-7.04,3.88c-.87,0-1.02-.33-1.65-1.65-.33-.75-.84-1.35-1.71-2.17v-.21c3.52.15,4.63,1.68,4.63,2.71,0,.36-.18,1.32-1.26,1.32Zm16.57,8.93c0,1.2.03,2.47.06,4.72,0,.75.18,4.09.18,4.78,0,.84-.48,1.41-1.8,1.41-1.08,0-1.05-.84-1.02-1.68h-11.64c-.03.69-.09,1.86-1.8,1.86-.54,0-1.11-.18-1.11-1.11,0-.51.18-2.8.21-3.25.09-1.59.12-3.04.12-4.57,0-2.44-.06-2.86-.48-5.44l3.19,1.83h3.97c.15-.33,1.08-2.32,1.29-4.27l2.44,1.29c.39.21.45.39.45.54,0,.27-.12.39-.54.51-.45.15-2.02,1.23-2.98,1.92h6.56l.99-.96c.15-.15.3-.33.51-.33.12,0,.27.12.45.24l1.38,1.02c.18.15.39.33.39.54,0,.33-.09.39-.81.93Zm-2.56-.72h-11.67v4.18h11.67v-4.18Zm0,4.9h-11.67v4.33h11.67v-4.33Zm5.02-16.96c0,.99.06,5.38.06,6.25,0,1.05,0,2.89-3.94,3.67-.12-.9-.24-1.96-1.56-3.01v-.24c.48.06,1.41.12,1.96.12.75,0,.96-.12.96-.96v-2.29c-.48.45-4.21,2.83-5.5,3.64-.18.48-.27.87-.63.87-.21,0-.42-.21-.54-.36l-1.92-2.53c.48,0,1.32-.03,2.04-.15,1.05-.18,5.62-1.44,6.56-1.65,0-.45.03-1.23.03-3.79v-.66h-4.63c-1.86,0-2.5.06-3.28.21l-.48-1.11c1.83.15,3.97.18,4.3.18h3.7l.81-.75c.18-.15.39-.36.63-.36.21,0,.42.18.6.33l1.35,1.14c.12.12.27.27.27.42,0,.33-.06.39-.78,1.02Zm-7.37,3.73c-.9,0-1.23-.9-1.44-1.56-.57-1.71-.81-2.08-1.17-2.41l.12-.24c2.47.27,3.82,1.65,3.82,2.86,0,.87-.72,1.35-1.32,1.35Z"/><path class="cls-1" d="m91.87,151.29c-2.82-1.83-5.41-5.89-5.41-10.92s2.59-9.09,5.41-10.92l.23.32c-2.37,2.17-4.08,6.29-4.08,10.6s1.71,8.43,4.08,10.6l-.23.32Z"/><path class="cls-1" d="m113.84,139.24c-1.04.52-1.22.61-2.14.97l-.09-.07c.09-.18.54-1.51.63-1.87h-9.18c.11,1.83-.72,2.32-1.33,2.32-.2,0-.34-.04-.43-.09-.52.47-.83.77-1.78,1.44-.02.9.07,4.85.07,5.66,0,1.74,0,2.71-2.41,3.04-.18-1.15-1.2-2.03-2.17-2.53v-.14c.45.02,2.05.09,2.25.09.59,0,.68-.36.68-.81,0-.63-.04-3.5-.07-4.29-.7.43-2.01,1.22-2.1,1.29-.09.23-.18.45-.34.45-.07,0-.2-.13-.23-.2l-1.15-2.53c.23.07.52.16.92.16.77,0,2.57-.56,2.89-.68-.02-.79-.02-4.89-.04-5.82h-.45c-1.38,0-1.87.04-2.44.16l-.36-.83c1.44.14,3.11.14,3.25.14-.16-3.7-.25-3.95-.63-4.98l2.62.77c.27.07.34.23.34.38,0,.34-.32.61-.65.86-.02.47-.02,2.55-.02,2.98h.23l.47-.86c.07-.11.18-.32.36-.32.11,0,.25.11.41.25l1.01.88c.14.11.23.2.23.34,0,.23-.18.25-.34.25h-2.37c0,1.76,0,3.95.02,5.3.97-.34,1.06-.36,1.6-.59-.14-.11-.32-.27-.32-.72,0-.43.02-.45.68-1.31.52-.65.77-1.06.9-1.89h.09c.2.29.38.59.54,1.29h6.45c1.4-2.86,1.6-3.81,1.69-4.96l1.96,1.06c.25.14.45.27.45.56,0,.2-.11.25-.59.38-.68.68-.92.9-3.11,2.95h2.26l.74-.68c.25-.23.32-.29.43-.29.05,0,.09,0,.29.2l1.35,1.26c.11.09.2.25.2.45,0,.38-.11.38-1.29.56Zm-.95,11.03c-2.89-.97-4.42-1.83-5.66-2.82-2.73,2.59-5.73,2.93-6.58,3.02v-.18c.9-.36,3.07-1.31,5.44-3.95-1.08-1.31-1.71-2.91-2.08-4.58-.86.02-1.24.09-1.58.16l-.36-.83c1.38.11,2.95.14,3.2.14h3.63l.97-.88c.23-.2.32-.2.38-.2.16,0,.23.07.34.16l1.29,1.06c.16.14.25.27.25.43,0,.32-.23.47-1.35.83-1.06,1.85-1.85,2.89-2.53,3.7.63.38,2.62,1.51,5.71,1.51.45,0,.77-.02,1.04-.04v.09c-.32.27-1.4,1.22-2.1,2.39Zm-.34-18.31c-.11,0-.52-.04-.65-.07-2.5.97-7.01,1.78-10.15,1.69v-.11c1.2-.18,4.4-1.04,7.89-2.37,1.22-.47,1.42-.7,1.69-1.17l1.53,1.38c.18.18.2.25.2.32,0,.29-.29.34-.52.34Zm-7.44,5.59c-.63,0-.9-.52-1.08-1.38-.18-.77-.41-1.53-.81-2.21l.07-.09c1.26.47,2.73,1.31,2.73,2.59,0,.5-.2,1.08-.9,1.08Zm-.25,4.22h-.36c.27,1.01.92,2.35,2.37,3.61,1.22-1.62,1.67-2.62,2.14-3.61h-4.15Zm3.5-4.69c-.72,0-.86-.47-1.17-1.67-.2-.83-.45-1.47-.65-1.98l.05-.07c.29.11,2.73,1.17,2.73,2.66,0,.68-.45,1.06-.95,1.06Z"/><path class="cls-1" d="m137.27,135.25h-7.15l1.22.74c.13.07.29.23.29.36,0,.32-.59.29-.79.29-.65.7-1.29,1.15-2.19,1.78h3.65l.97-1.1c.16-.18.25-.27.36-.27.16,0,.27.09.41.23l1.2,1.1c.14.14.23.2.23.36,0,.2-.18.23-.34.23h-7.08c0,.2,0,1.47.02,1.76h2.77l.86-.9c.18-.18.29-.32.38-.32.11,0,.34.18.47.27l1.31.88c.14.09.25.23.25.36,0,.2-.18.25-.34.25h-5.71v1.98h5.28l1.24-1.29c.25-.25.29-.29.38-.29.13,0,.36.2.41.25l1.4,1.29c.11.11.23.23.23.36,0,.2-.2.23-.34.23h-8.16c1.49,1.62,4.51,3.7,8.73,4.1v.09c-.61.36-1.65.95-2.14,2.14-4.15-1.44-6.25-5.03-6.97-6.34h-.04c.07,4.42.11,4.92.16,5.66,0,.09.02.25.02.38,0,.79-.95.95-1.29.95-.79,0-.79-.43-.79-.77s.14-4.92.16-5.73c-1.87,2.66-5.53,5.14-8.93,5.73l-.02-.13c3.38-1.74,5.12-3.56,7.06-6.09h-3.95c-1.38,0-1.87.07-2.44.16l-.36-.83c1.35.13,2.95.13,3.2.13h5.44v-1.98h-4.01c-1.38,0-1.87.04-2.44.16l-.38-.83c1.38.11,2.98.14,3.22.14h3.61v-1.76h-4.78c-1.38,0-1.87.07-2.44.16l-.38-.83c1.38.13,2.98.13,3.23.13h2.28c-.23-.11-.36-.25-.61-.95-.38-1.04-.56-1.56-1.11-2.23h-2.53c-1.38,0-1.87.04-2.44.16l-.36-.83c1.35.11,2.95.14,3.2.14h4.29c0-2.44-.13-3.59-.36-4.67l2.53.77c.14.04.32.11.32.32,0,.29-.5.47-.75.54-.09,1.17-.09,2.35-.07,3.04h1.42c0-3.25-.2-3.9-.45-4.65l2.55.68c.23.07.41.11.41.34,0,.29-.43.5-.77.63,0,.29-.09,2.89-.09,3h.81s1.2-2.17,1.22-4.26l2.19,1.11c.18.09.34.18.34.34,0,.29-.47.38-.68.43-.95.99-2.37,2.3-2.46,2.39h3.16l1.15-1.13c.25-.25.29-.32.36-.32.14,0,.32.13.47.27l1.35,1.08c.13.11.27.27.27.38,0,.23-.2.25-.34.25Zm-14.64-.81c-.63,0-.86-.52-1.33-1.62-.27-.65-.72-1.24-1.29-1.71l.09-.16c1.33.27,3.45.92,3.45,2.48,0,.38-.22,1.01-.92,1.01Zm.52.81c1.87.68,2.53,1.38,2.53,2.28,0,.32-.11.68-.59.9h3c.92-1.6,1.06-2.66,1.13-3.18h-6.07Z"/><path class="cls-1" d="m147.61,150.27c-3.41,0-4.87-1.69-4.87-4.35,0-.68.02-.81.32-2.32-2.1-.81-2.86-1.53-2.86-2.46,0-.77.36-1.24,1.89-2.71.27-.25.86-.79.86-.97,0-.2-.11-.29-.29-.36-1.51-.65-2.68-1.2-2.75-3,1.67,1.49,2.55,1.67,4.53,2.08.13-.83.41-2.53.41-3.27,0-1.38-.79-1.67-1.71-2.01.23-.25.47-.5,1.24-.5,1.06,0,2.82.88,2.82,1.83,0,.38-.32,1.1-.41,1.31-.41.9-.65,1.47-1.08,3.02.52.27,1.04.74,1.04,1.17,0,.74-.81.72-1.51.7-.11.5-.52,2.23-.81,3.9.77.02,2.03.09,2.28.18.38.14,1.1.88,1.1,1.26,0,.56-1.01.56-1.42.56-1.02,0-1.89-.27-2.23-.38-.04.34-.11.79-.11,1.49,0,.86,0,3.5,3.41,3.5,1.69,0,3.77-.88,3.77-3.34,0-2.28-1.99-5.43-3.86-6.58l.07-.11c.63.25,5.86,2.28,5.86,6.65s-4.29,4.71-5.66,4.71Zm-6.5-9.61c0,.9,1.42,1.33,2.19,1.53l.7-3.77c-1.94.23-2.89,1.53-2.89,2.23Z"/><path class="cls-1" d="m156.29,140.78c-.9,0-.97-.74-.97-.97,0-.34.09-.47.88-1.71.97-1.49.86-2.59.81-3.04h.23c.32.7.77,1.71.77,3.34,0,.7,0,2.39-1.71,2.39Zm6.95-1.98c-.92,0-1.17-.7-1.44-1.47-.36-1.06-.68-1.47-1.2-1.94-.07,3.83-.09,6.2-.09,7.01,0,1.15.07,6.18.07,7.22,0,.38,0,1.15-1.29,1.15-.56,0-.68-.29-.68-.9,0-.32.09-1.78.11-2.08.16-4.29.2-11.5.2-12.04,0-3.61-.13-4.6-.59-5.84l2.64.77c.2.07.54.16.54.38,0,.29-.32.5-.79.72-.05.54-.11,2.95-.14,3.45l.04-.07c2.35.52,3.54,1.58,3.54,2.64,0,.61-.29.99-.95.99Zm11.32,11.52c-.81-.5-2.91-1.76-4.38-3.74-1.53-2.05-1.67-3.83-1.76-4.83-.05.97-.18,2.95-1.49,4.8-1.87,2.66-4.92,3.47-6.11,3.79l-.07-.11c3.41-2.34,5.5-4.76,5.75-8.86h-2.57c-1.58,0-2.01.07-2.44.16l-.38-.83c1.08.09,2.14.13,3.23.13h2.19c.09-1.22.11-4.96.11-6.31h-1.4c-1.58,0-2.01.07-2.46.14l-.36-.81c1.06.09,2.14.14,3.22.14h.99c-.04-2.17-.07-2.73-.59-4.08l2.59.61c.43.09.68.23.68.5,0,.32-.47.65-.7.79,0,.25,0,1.47-.02,2.19h2.62l.81-.79c.11-.11.22-.18.36-.18.16,0,.32.11.43.23l1.15,1.1c.07.07.16.2.16.29,0,.2-.27.43-.77.86-.04.45-.04.92-.18,5.34h.29l.88-.99c.14-.13.23-.29.38-.29.13,0,.27.13.41.23l1.26,1.01c.09.07.2.2.2.34,0,.23-.2.25-.34.25h-7.53c.59,1.92,3.32,5.8,8.57,6.61l.05.25c-.95.25-2.08.59-2.8,2.1Zm-5.95-15.81c-.02.52-.11,6.2-.11,6.31h2.75c.02-1.01.16-5.41.18-6.31h-2.82Z"/><path class="cls-1" d="m181.58,140.24c-1.4,0-1.89.07-2.46.16l-.36-.83c.97.09,1.76.14,2.93.14l.83-.83c.09-.09.14-.16.25-.16s.2.09.32.16l1.15.83c.11.09.23.25.23.41,0,.23-.29.41-.7.68v4.6c0,.5.27,2.86,6.88,2.86,2.41,0,6.65-.16,8.8-1.01l.09.13c-1.24,1.2-1.47,1.69-1.62,2.71-2.71,0-6.43,0-8.39-.16-3.97-.34-5.75-2.8-6.22-3.5-.38.47-2.21,2.41-2.57,2.82.02.38.04.77-.36.77-.07,0-.13-.04-.18-.09l-1.74-2.19c1.49-.02,2.8-.54,3.52-.83v-6.65h-.38Zm-1.4-9.81c1.65.29,3.9,1.38,3.9,3.18,0,.77-.72.97-1.11.97-.74,0-.88-.36-1.2-1.33-.38-1.15-.77-2.03-1.65-2.68l.05-.14Zm12.11,11.03l.41-.52c.09-.14.2-.23.36-.23.11,0,.27.09.34.13l.97.74c.09.07.16.2.16.32,0,.16-.2.41-.5.7,0,.07-.04.25-.04.34,0,.25.07,1.01.07,1.42.02.68,0,.7-.32.95.34.02.97.07,1.2.07.5,0,.63-.04.63-.68,0-1.98-.02-5.66-.05-7.71h-8.5v9.34c0,.5-.56.9-1.06.9-.74,0-.74-.45-.74-.74,0-1.17.16-6.29.16-7.44,0-2.95-.07-3.18-.23-3.74l2.3,1.15h4.56c.43-1.04.72-2.05.72-3.16h-5.25c-1.56,0-2.01.09-2.44.16l-.36-.83c1.01.09,2.17.14,3.2.14h2.62c0-.79.02-1.56-.52-2.91l2.82.68c.11.02.23.14.23.29s-.04.2-.61.65c-.04.65-.04,1.17-.04,1.29h3.11l.88-.95c.13-.14.25-.29.36-.29.14,0,.27.13.43.25l1.24.97c.09.07.23.2.23.32,0,.25-.23.25-.34.25h-4.98l1.56.72c.11.04.23.2.23.32,0,.29-.2.32-.61.36-.38.43-.92,1.04-1.85,1.76h2.55l.59-.74c.11-.14.25-.25.38-.25s.27.13.43.23l1.15.72c.09.07.2.13.2.32,0,.23-.09.27-.77.77-.02.43-.04.97-.04,1.78s.13,4.74.13,5.64c0,1.6-.25,2.26-2.39,2.84-.18-1.33-1.15-2.14-1.4-2.28-.14.02-.41.09-.54.09-.5,0-.5-.32-.5-.77h-2.66c-.02.29-.02.45-.16.61-.18.18-.61.34-.92.34-.56,0-.56-.45-.56-.68,0-.36.07-2.17.07-2.57,0-.13-.07-1.51-.11-1.87l1.71.83h.41c0-1.01.02-1.13,0-1.94-1.51,0-1.98.09-2.39.16l-.38-.83c.92.09,1.42.11,2.77.14-.04-.77-.11-.99-.36-1.78l2.21.63c.09.02.23.09.23.25,0,.27-.23.41-.56.61v.29h1.15l.56-.65c.09-.11.2-.27.36-.27.14,0,.25.11.41.25l.79.65c.09.09.2.18.2.32,0,.25-.23.25-.34.25h-3.13v1.94h.61Zm-4.33-8.14c1.47.45,2.48,1.04,2.48,2.12,0,.43-.29.88-.83.88-.72,0-.86-.63-.92-.9-.07-.34-.32-1.4-.83-1.83l.11-.27Zm1.78,8.68v2.25h2.66v-2.25h-2.66Z"/><path class="cls-1" d="m205.58,143.69c-.32,1.65-.45,2.44-.45,2.95,0,.25.13,1.31.13,1.53,0,.7-.09,1.15-.72,1.15-1.33,0-2.59-2.73-2.59-6.68,0-1.44.2-3.29.9-7.01.11-.65.16-1.26.16-1.51,0-.72-.18-1.29-.88-2.17.16-.09.32-.18.59-.18.81,0,2.5,1.38,2.5,2.21,0,.41-.23.92-.32,1.13-.95,2.14-1.74,3.92-1.74,6.58,0,1.44.38,3.22.79,3.22.16,0,.27-.27.34-.45.2-.63,1.33-3.58,1.99-4.8h.16c-.11.63-.74,3.45-.86,4.01Zm10.8,3.7c-5.44,0-7.62-.97-7.62-3.81,0-.74.18-.97.32-1.17.38,1.6.74,3.04,4.92,3.04.47,0,2.57-.16,3-.16,1.6,0,1.89.77,1.89,1.13,0,.97-1.24.97-2.5.97Zm-.02-11.82c-2.39.41-4.04,1.29-4.44,1.62l-.16-.13c.29-.34,1.94-1.85,1.94-2.03,0-.32-.72-.32-.9-.32-1.38,0-3.36.81-3.95,1.04.77-1.8,3.92-2.48,6.09-2.48.99,0,2.84.32,2.84,1.35,0,.47-.29.77-1.42.95Z"/><path class="cls-1" d="m221.52,151.29l-.22-.32c2.37-2.17,4.08-6.29,4.08-10.6s-1.71-8.43-4.08-10.6l.22-.32c2.82,1.83,5.41,5.89,5.41,10.92s-2.59,9.09-5.41,10.92Z"/><path class="cls-1" d="m393.63,104.28c-.15,0-.33,0-.51-.03-1.59-.21-3.19-.33-4.81-.33-1.05,0-1.71.03-2.2.06,0,.6,0,2.08.06,4.39.03,1.02.21,5.56.21,6.5,0,3.91-1.23,4.81-1.92,4.81-.57,0-.81-.57-1.32-1.68-.3-.63-1.05-1.77-3.22-3.04l.09-.27c1.44.42,3.4.6,3.49.6.39,0,.48-.15.54-.33.09-.33.24-6.17.24-7.67v-.69c-2.89,4.51-7.19,7.94-12.27,9.62l-.12-.21c3.79-2.62,9.41-7.73,11.55-11.79-3.91.45-6.35,1.23-6.47,1.29-.3.12-.87.27-.99.27-.57,0-2.95-.99-2.95-3.49,0-.45.06-.72.12-1.05,1.32,1.44,1.92,2.04,4.12,2.04s5.8-.42,6.98-.57c-.06-3.25-.15-4.42-.45-5.14s-.81-.9-2.35-1.47c.78-.78,1.96-.78,2.04-.78,1.08,0,3.55,1.05,3.55,1.89,0,.21-.33.81-.45,1.05-.39.84-.42,2.14-.48,4.24,2.8-.33,3.1-.36,3.64-.48.24-.06,1.26-.45,1.5-.45.27,0,3.1.57,3.1,1.83,0,.42-.18.87-.72.87Z"/><path class="cls-1" d="m405.72,102.87c-.51,0-.9-.42-1.92-1.44-2.47-2.5-3.94-3.16-5.02-3.67.54-.06.9-.09,1.47-.09,1.02,0,6.65.42,6.65,3.76,0,.93-.69,1.44-1.17,1.44Zm2.71,10.01c-1.11.87-2.92,2.17-3.94,3.1-.18.15-.87.96-1.05,1.05-.15.09-.3.12-.42.12-1.08,0-3.22-2.74-3.22-4.21,0-.51.12-1.02.21-1.41.96,1.62,1.87,2.04,2.38,2.04.84,0,5.87-3.67,6.95-4.51,4.9-3.82,7.79-7.07,9.41-8.93l.12.06c-.48,1.92-3.49,7.28-10.44,12.69Z"/><path class="cls-1" d="m439.53,105.75c-.15.12-.24.27-.87,1.65-1.35,2.89-2.71,5.92-6.44,8.9-1.5,1.23-4.9,3.58-8.18,3.67v-.21c3.04-1.2,7.31-5.47,8.12-6.41,1.29-1.47,3.16-4.12,4.48-8.42-1.8.18-9.2.93-10.92,1.65-.18.09-.96.51-1.14.51-.63,0-3.04-1.71-3.04-3.79,0-.33.06-.63.24-1.08.24.33.54.78,1.32,1.38.69.51.9.57,1.74.57,1.98,0,11.55-.75,11.91-.93.24-.15,1.05-1.17,1.29-1.17.3,0,2.68,1.68,2.68,2.47,0,.39-.3.6-1.2,1.2Zm-4-5.9c-1.41.06-5.87.33-7.13.57-1.35.24-1.5.3-1.92.3-1.41,0-2.77-2.1-2.62-3.61,1.41,1.44,3.07,1.44,4.27,1.44,3.4,0,5.74-.63,6.11-.75.27-.06,1.32-.6,1.56-.6s1.53.45,1.89.63c.42.18.81.48.81,1.08,0,.78-.48.84-2.98.93Z"/><path class="cls-1" d="m460.37,98.96c-.84.6-1.2.99-1.95,1.8-.48.51-2.56,2.86-3.01,3.34.51.3,1.56,1.02,1.56,1.44,0,.21-.3,1.05-.33,1.23-.03.24-.09,1.83-.09,3.76,0,1.17.21,6.35.21,7.37,0,.75-.27,2.07-1.17,2.07s-1.65-1.56-1.65-2.38c0-.3.27-1.65.3-1.92.21-1.71.24-3.4.24-5.11,0-.6,0-3.88-.18-4.48q-.06-.18-.39-.42c-4.57,4.45-8.12,5.92-10.41,6.71l-.12-.18c6.14-3.76,14.17-13.89,14.17-15.13,0-.75-.81-1.44-1.5-2.01.39-.06.78-.12,1.32-.12,1.86,0,3.94,2.35,3.94,3.04,0,.36-.12.45-.93.99Z"/><path class="cls-1" d="m474.83,102.87c-.51,0-.9-.42-1.92-1.44-2.47-2.5-3.94-3.16-5.02-3.67.54-.06.9-.09,1.47-.09,1.02,0,6.65.42,6.65,3.76,0,.93-.69,1.44-1.17,1.44Zm2.71,10.01c-1.11.87-2.92,2.17-3.94,3.1-.18.15-.87.96-1.05,1.05-.15.09-.3.12-.42.12-1.08,0-3.22-2.74-3.22-4.21,0-.51.12-1.02.21-1.41.96,1.62,1.87,2.04,2.38,2.04.84,0,5.87-3.67,6.95-4.51,4.9-3.82,7.79-7.07,9.41-8.93l.12.06c-.48,1.92-3.49,7.28-10.44,12.69Z"/><path class="cls-1" d="m511.56,104.16c-.24,0-1.26-.09-1.47-.09-1.38,0-1.83.03-5.08.27,1.05.78,1.17.87,1.17,1.05,0,.21-.78.93-.84,1.11-.15.3-1.26,3.91-1.53,4.6-2.04,5.17-7.49,8.15-9.8,8.81l-.09-.18c8.18-5.35,8.9-13.89,8.9-14.29,0-.45-.18-.6-.54-.9-1.29.12-1.44.12-2.13.24-.6.12-.96.18-1.23.18-.57,0-.69-.09-1.86-.93-1.99,2.56-3.25,4.24-6.8,5.89l-.12-.18c3.67-3.37,7.52-10.35,7.52-11.94,0-.66-.39-.9-1.44-1.59.33-.18.72-.36,1.29-.36,1.65,0,3.82,1.9,3.82,2.62,0,.18-.21.39-.63.84-.33.36-1.83,2.32-2.71,3.49.63.09.9.09,1.29.09,2.01,0,7.82-.66,8.87-.87.33-.06,1.89-.48,2.11-.48.09,0,2.98.48,2.98,1.65,0,.69-.36.96-1.65.96Zm1.29-3.01c-.45,0-.57-.12-1.53-1.2-.84-.96-1.8-1.83-2.92-2.53,1.8.21,5.23.54,5.23,2.77,0,.42-.18.96-.78.96Zm2.41-2.11c-.39,0-.51-.12-1.41-1.17-.12-.15-1.71-1.87-3.25-2.47,1.47-.12,5.5.27,5.5,2.62,0,.66-.45,1.02-.84,1.02Z"/><path class="cls-1" d="m540.04,108.82c-.48,0-1.23-.03-1.83-.09-.57-.03-7.91-.09-8.42-.09-1.74,0-6.35.09-7.73.48-.54.15-.78.21-1.02.21-1.11,0-2.8-2.38-2.8-3.58,0-.39.12-.9.48-1.68,1.05,2.11,1.77,2.47,5.35,2.47,1.75,0,12.18-.03,13.2-.39.45-.15.81-.3,1.2-.3.06,0,3.58.27,3.58,1.86,0,.51-.57,1.11-2.01,1.11Z"/><path class="cls-1" d="m565.6,116.91c-.93,0-1.23-.84-1.56-1.77-.09-.27-1.14-3.13-1.2-3.28-2.62,1.08-5.89,1.9-12.12,3.49-.81.21-1.02.27-1.38.72-.3.33-.45.45-.72.45-.81,0-2.56-2.44-2.56-4.09,0-.15,0-.3.06-.75,1.02.99,1.32,1.23,2.62,1.23.42,0,.78-.03,1.02-.06,1.11-2.26,5.41-11.79,5.41-13.71,0-1.14-.66-1.59-2.35-2.32.78-.24,1.47-.48,2.11-.48,1.41,0,3.73,1.71,3.73,3.07,0,.48-.12.6-.84,1.26-.42.42-1.41,2.86-1.65,3.31-1.29,2.53-3.43,6.13-5.35,8.78,5.65-.66,6.29-.72,11.76-1.53-1.29-2.83-3.19-4.9-4.03-5.8.96.39,2.32,1.02,4.6,3.28,3.1,3.01,3.64,4.81,3.64,6.35,0,1.11-.48,1.86-1.17,1.86Z"/><path class="cls-1" d="m406.62,151.29c-2.82-1.83-5.41-5.89-5.41-10.92s2.59-9.09,5.41-10.92l.23.32c-2.37,2.17-4.08,6.29-4.08,10.6s1.71,8.43,4.08,10.6l-.23.32Z"/><path class="cls-1" d="m424.44,148.22c-.61,0-.95-.59-1.17-.95-1.74-2.89-2.77-4.33-4.58-5.75-3.45,4.1-6.88,6.29-10.06,6.86v-.18c5.39-2.5,10.96-10.06,11.71-13.26-.07.02-4.58.83-5.77,1.42-.65.34-.74.36-.92.36-.34,0-1.76-1.04-1.76-2.48,0-.59.09-.74.2-.99.92,1.2,1.11,1.44,1.85,1.44.54,0,5.48-.43,6.41-1.01.16-.11.88-.72,1.06-.72.29,0,2.05,1.67,2.05,2.03,0,.25-.16.32-.88.59-.2.09-.29.25-.63.86-1.49,2.71-1.74,3.16-2.91,4.67,2.75,1.15,6.29,3.86,6.29,5.89,0,.54-.2,1.24-.88,1.24Z"/><path class="cls-1" d="m438.24,143.08c-.36,0-.65-.25-.97-.61-2.35-2.59-2.98-3.25-4.6-3.83-.05,1.4.04,6.34.04,6.47,0,.45.16,2.5.16,2.91,0,.97-.47,1.67-1.08,1.67-.65,0-1.22-.97-1.22-2.21,0-.25,0-.34.16-1.38.27-1.85.29-4.65.29-6,0-1.15-.04-6.38-.27-7.22-.07-.29-.14-.5-1.8-1.15.36-.2.92-.52,1.49-.52.43,0,2.86.47,2.86,1.17,0,.18-.29.95-.34,1.11-.27,1.1-.29,3.38-.29,4.6,2.57.32,6.5,1.76,6.5,3.88,0,.81-.52,1.11-.92,1.11Z"/><path class="cls-1" d="m446.97,147.14c-.81.43-.97.59-1.33.95-.2.2-.29.2-.36.2-.56,0-1.78-2.25-1.78-2.39s.25-.61.29-.7c.18-.5.23-1.22.25-1.49.04-.72.04-3.5.04-4.35,0-.68-.02-5.07-.18-5.5-.09-.2-.25-.34-.68-.52-.13-.04-.99-.36-1.22-.43.79-.43,1.17-.63,1.67-.63.74,0,2.8.81,2.8,1.35,0,.2-.34,1.11-.38,1.29-.25,1.13-.43,7.13-.43,8.71,0,.77.02,1.26.05,1.76,4.53-1.69,9.7-6.13,11.64-8.03l.16.16c-2.19,3.47-4.15,6.18-10.53,9.63Z"/><path class="cls-1" d="m474.15,148.22c-.61,0-.95-.59-1.17-.95-1.74-2.89-2.77-4.33-4.58-5.75-3.45,4.1-6.88,6.29-10.06,6.86v-.18c5.39-2.5,10.96-10.06,11.71-13.26-.07.02-4.58.83-5.77,1.42-.65.34-.74.36-.92.36-.34,0-1.76-1.04-1.76-2.48,0-.59.09-.74.2-.99.92,1.2,1.11,1.44,1.85,1.44.54,0,5.48-.43,6.41-1.01.16-.11.88-.72,1.06-.72.29,0,2.05,1.67,2.05,2.03,0,.25-.16.32-.88.59-.2.09-.29.25-.63.86-1.49,2.71-1.74,3.16-2.91,4.67,2.75,1.15,6.29,3.86,6.29,5.89,0,.54-.2,1.24-.88,1.24Z"/><path class="cls-1" d="m492.74,136.49c-.25.11-.45.23-.72,1.01-2.8,8.44-7.89,10.6-11.19,11.52l-.07-.2c4.53-2.55,8.64-7.69,9.9-13.35-.95-.04-8.14.83-9.56,1.58-.36.2-.43.25-.56.25-.27,0-1.98-.92-1.98-2.86,0-.36.11-.63.25-.97.2.2.97,1.15,1.17,1.31.23.16.54.29,1.15.29,1.53,0,8.71-.68,9.27-.92.18-.09.88-.63,1.06-.63.25,0,1.49,1.22,1.69,1.44.23.23.36.43.36.74,0,.43-.16.52-.77.79Z"/><path class="cls-1" d="m499.85,134.53c-.2.45-.36.9-.36,2.55,0,.56.09,3.04.09,3.56,0,.34,0,1.85-.83,1.85-.43,0-1.24-.7-1.24-1.92,0-.2.11-.99.16-1.42.07-.72.09-2.25.09-3.41,0-1.65,0-2.1-1.89-2.55.36-.23.9-.54,1.42-.54.63,0,2.75.72,2.75,1.35,0,.11-.02.2-.18.52Zm7.65-.09c-.11.88-.05,2.3-.07,3.18-.09,4.17-.38,7.01-2.75,9.54-.79.83-2.35,2.21-4.31,2.44l-.07-.16c2.98-1.65,4.42-4.92,4.8-6.79.5-2.5.5-6.07.5-6.77,0-3.13-.11-3.2-2.19-3.63.34-.27.81-.65,1.71-.65,1.13,0,2.77.68,2.77,1.22,0,.25-.38,1.38-.41,1.62Z"/><path class="cls-1" d="m528.04,141.41c-.36,0-.92-.02-1.38-.07-.43-.02-5.93-.07-6.32-.07-1.31,0-4.76.07-5.8.36-.41.11-.59.16-.77.16-.83,0-2.1-1.78-2.1-2.68,0-.29.09-.68.36-1.26.79,1.58,1.33,1.85,4.01,1.85,1.31,0,9.13-.02,9.9-.29.34-.11.61-.23.9-.23.05,0,2.68.2,2.68,1.4,0,.38-.43.83-1.51.83Z"/><path class="cls-1" d="m532.94,151.29l-.22-.32c2.37-2.17,4.08-6.29,4.08-10.6s-1.71-8.43-4.08-10.6l.22-.32c2.82,1.83,5.41,5.89,5.41,10.92s-2.59,9.09-5.41,10.92Z"/></svg>