<?xml version="1.0" encoding="UTF-8"?><svg id="_レイヤー_1" xmlns="http://www.w3.org/2000/svg" viewBox="0 0 631.79 137.01"><defs><style>.cls-1{fill:#877437;}.cls-2{fill:none;stroke:#867437;stroke-miterlimit:10;stroke-width:.81px;}</style></defs><line class="cls-2" x1="631.79" y1="68.51" y2="68.51"/><line class="cls-2" x1="315.89" y1="0" x2="315.89" y2="137.01"/><path class="cls-1" d="m118.84,15.69s-3.31-.37-3.93-.37-.97.02-2.71.15c.92.71,1.01.77,1.01.92s-.39.71-.43.82c-.17.41-.79,2.21-.97,2.58-1.72,3.85-4.08,5.48-6.08,6.02l-.11-.09c3.39-2.66,5.16-7.69,5.16-8.96,0-.62-.11-.75-.37-1.07-2.38.34-3.07.62-4.19,1.01-.28.11-.54.19-.79.19-.45,0-1.98-1.27-1.98-2.47,0-.37.09-.58.17-.84.6.84.97,1.4,2.08,1.4.04,0,.11-.02.15-.02.73-.11,4.55-.52,5.31-.6,1.57-.19,4.45-.52,4.73-.6.17-.04.9-.28,1.07-.28.3,0,2.6.41,2.6,1.5,0,.71-.52.71-.73.71Zm-4.73-4.28c-1.57.04-1.59.04-5.67.54h-.19c-.71,0-1.7-.82-1.7-1.8,0-.09.02-.21.09-.54.19.24.82.86,2.38.86,1.03,0,2.77-.28,3.65-.49.24-.06,1.25-.37,1.46-.37.32,0,1.85.3,1.85,1.05,0,.69-.77.73-1.87.75Z"/><path class="cls-1" d="m127.11,23.42c-.77.41-.92.56-1.27.9-.19.19-.28.19-.34.19-.54,0-1.7-2.15-1.7-2.28s.24-.58.28-.67c.17-.47.21-1.16.24-1.42.04-.69.04-3.33.04-4.15,0-.64-.02-4.83-.17-5.24-.09-.19-.24-.32-.64-.49-.13-.04-.95-.34-1.16-.41.75-.41,1.12-.6,1.59-.6.71,0,2.66.77,2.66,1.29,0,.19-.32,1.05-.37,1.22-.24,1.07-.41,6.79-.41,8.29,0,.73.02,1.2.04,1.68,4.32-1.61,9.24-5.84,11.09-7.65l.15.15c-2.08,3.31-3.95,5.89-10.03,9.17Z"/><path class="cls-1" d="m152.84,12.42c-.41.26-.43.34-.58,1.1-.71,3.8-1.42,6.23-3.29,8.4-1.57,1.85-3.63,3.2-5.95,3.89l-.04-.09c5.65-4.12,6.9-7.56,7.56-13.86-5.37.32-6.27.43-7.18.62-.19.04-.39.06-.47.06-.15,0-.75-.26-.88-.28.02.28.04.47,0,2.17,0,.41.09,2.32.09,2.75,0,.58-.3,1.14-.82,1.14-.47,0-.99-.88-.99-1.68,0-.28.06-1.42.06-1.65,0-.86-.13-2.96-.24-3.24-.34-.82-.82-1.07-1.27-1.29.26-.11.62-.28.99-.28.26,0,.92.17,1.72.79.15.13.62.21.95.21.75,0,7.48-.43,7.99-.6.17-.06.28-.15.64-.52.09-.06.17-.13.26-.13.19,0,1.93,1.31,1.93,1.89,0,.24-.15.34-.49.58Z"/><path class="cls-1" d="m172.09,17.97c-.34,0-.88-.02-1.31-.06-.41-.02-5.65-.06-6.02-.06-1.25,0-4.53.06-5.52.34-.39.11-.56.15-.73.15-.79,0-2-1.7-2-2.56,0-.28.09-.64.34-1.2.75,1.5,1.27,1.76,3.82,1.76,1.25,0,8.7-.02,9.43-.28.32-.11.58-.21.86-.21.04,0,2.56.19,2.56,1.33,0,.37-.41.79-1.44.79Z"/><path class="cls-1" d="m189.51,13.58c-.62.19-.88.52-1.33,1.35-2.6,4.79-4.88,6.98-7.56,8.64-.82.49-2.64,1.55-4.34,1.87l-.09-.15c4.71-2.88,8.64-7.11,10.85-12.22-.49.06-2.21.3-3.14.45-.11.02-.45.15-.6.15-.21,0-.58-.13-.99-.37-1.93,2.34-2.86,3.14-5.74,4.83l-.15-.15c2.92-3.16,3.72-4.19,4.9-6.23.47-.82.67-1.31.67-1.57,0-.24-.73-.79-1.18-1.05.34-.11.71-.19,1.07-.19.75,0,2.62.99,2.62,1.72,0,.24-.04.3-.62.79-.28.26-.37.37-.79.88.54.04,3.18-.13,3.67-.3.24-.09,1.14-.73,1.35-.73.17,0,.28.09,1.2.9.62.56.73.69.73.9,0,.3-.13.34-.54.47Z"/><path class="cls-1" d="m63.4,48.3c-2.01-1.3-3.87-4.21-3.87-7.8s1.85-6.49,3.87-7.8l.16.23c-1.69,1.55-2.92,4.5-2.92,7.57s1.22,6.03,2.92,7.57l-.16.23Z"/><path class="cls-1" d="m67.57,40.52c-.98,0-1.34.05-1.74.11l-.27-.6c.4.05,1.84.1,2.05.1l.69-.48c.08-.06.18-.13.26-.13.06,0,.16.06.23.13l.64.56c.08.06.18.15.18.26s-.1.23-.42.5c0,.42-.05,2.24-.05,2.61,0,1.68.15,2.56,4.71,2.56,2.84,0,4.16-.26,6.17-.68v.11c-.53.42-.97,1.16-1.03,1.8-1.19.03-2.8.05-3.3.05-1.97,0-6.25,0-6.94-2.66-.77,1.06-1.31,1.69-1.85,2.32,0,.18-.03.44-.23.44-.08,0-.16-.08-.21-.14l-1.39-1.61c1.29.05,2.48-.45,2.82-.66v-4.59h-.31Zm-.81-6.96c.9.13,2.8,1.03,2.8,2.26,0,.53-.35.89-.76.89-.64,0-.81-.48-1.08-1.35-.26-.81-.74-1.39-1.02-1.72l.05-.06Zm5.04,8.7c.02.37.05,2.03.05,2.37,0,.68-.81.77-.97.77-.39,0-.45-.31-.45-.47,0-.11.03-.58.03-.68.03-1,.05-3.42.05-4.11,0-.93,0-2.16-.19-3.51l1.61.81h2.43c-.05-.08-.26-.52-.31-.6-.52-.8-.92-1.13-1.37-1.45v-.1c.77,0,1.55.23,2.21.66.27-.31.37-.42,1.16-1.45h-3.67c-.98,0-1.34.05-1.74.11l-.26-.6c.76.06,1.53.1,2.29.1h3.5l.61-.39c.1-.06.19-.14.29-.14s.18.1.27.18l.93.85c.06.06.15.13.15.26,0,.21-.24.24-.81.27-.21.02-.44.11-2.55.92.21.18.52.42.52.9,0,.29-.11.39-.21.47h1.95l.47-.5s.13-.13.21-.13.16.06.23.11l.95.71c.06.05.1.1.1.15,0,.1-.15.24-.26.34s-.16.14-.26.24c-.02.16-.03.43-.03.76v3.83c0,1.45,0,1.61-.34,1.97-.35.37-.79.56-1.32.66-.1-.74-.64-1.26-1.32-1.76v-.08c.39.05.9.1,1.27.1.47,0,.47-.16.47-.47v-1.11h-2.26c0,.4.08,2.42.08,2.61,0,.5-.45.72-.89.72-.37,0-.44-.24-.44-.48,0-.45.03-2.45.03-2.85h-2.22Zm2.24-2.61v-1.82h-2.26c0,.26.02,1.53.02,1.82h2.24Zm-2.24.39v1.84h2.22c0-.58,0-.69.02-1.84h-2.24Zm5.69-.39v-1.82h-2.27v1.82h2.27Zm0,2.22v-1.84h-2.27c0,.29.02,1.56.02,1.84h2.26Z"/><path class="cls-1" d="m85.23,37.21c.15.08.23.16.23.27,0,.15-.06.23-.4.52v4.09c0,.43.03,4.14.03,4.83,0,.5-.15,1-.93,1-.37,0-.6-.14-.6-.5,0-.15.16-1.92.18-2.22.1-1.64.13-4.16.13-5.69v-.9c-.93,1.47-1.61,2.3-2.88,3.48l-.1-.1c1.97-2.9,3.27-6.73,3.48-7.43.16-.55.23-.93.21-1.58l1.89.93c.1.05.16.13.16.27s-.1.23-.21.29c-.08.05-.31.14-.5.21-.24.53-.53,1.21-1.1,2.29l.42.23Zm8.09-.52l.69-.89c.1-.11.15-.19.26-.19.1,0,.16.05.29.16l1.08.89c.11.1.16.15.16.24,0,.15-.13.18-.24.18h-8.01c-1,0-1.34.03-1.74.1l-.27-.58c.76.06,1.53.1,2.3.1h5.48Zm-.42,6.19l.42-.52c.06-.08.15-.16.24-.16s.19.06.32.18l.63.52c.1.08.19.16.19.26,0,.21-.29.39-.5.5.02.53.16,3.17.16,3.34,0,.55-.44.8-.95.8-.58,0-.56-.32-.53-1.11h-4.53c0,.53,0,1.13-1,1.13-.31,0-.5-.15-.5-.56,0-.19.06-1.02.06-1.19.02-.43.05-1.03.05-1.69,0-1.29-.06-1.72-.16-2.24l1.63.76h4.46Zm-1.1-8.35l.68-.84c.08-.11.16-.19.26-.19.08,0,.16.06.29.16l1.06.84c.11.08.16.14.16.24,0,.14-.15.18-.24.18h-5.12c-.98,0-1.34.03-1.74.1l-.26-.58c.76.06,1.53.1,2.29.1h2.63Zm-.02,4.14l.6-.81c.1-.13.15-.21.24-.21s.19.1.31.18l1.02.8c.11.08.16.15.16.26,0,.15-.15.16-.26.16h-4.95c-.98,0-1.34.05-1.74.11l-.27-.6c.77.08,1.53.1,2.3.1h2.59Zm.16,2.06l.47-.85c.05-.1.13-.19.24-.19.1,0,.16.05.31.16l1.06.85c.1.08.16.15.16.26,0,.15-.15.16-.26.16h-5c-.98,0-1.34.05-1.74.11l-.26-.6c.76.06,1.53.1,2.29.1h2.72Zm-3.59,2.53v3.03h4.53v-3.03h-4.53Z"/><path class="cls-1" d="m107.88,41.52c-.6,0-1.79-.1-2.87-.77v-.11c.18.05.29.06.69.06,1.05,0,3.95-.14,3.95-2.16,0-.61-.4-1.5-1.58-1.5-.84,0-3.11.64-5.72,2.32.23.36,1.27,1.95,1.48,2.29.71,1.14,2.09,3.62,2.09,4.62,0,.63-.39.89-.69.89-.47,0-.66-.29-.89-.98-.55-1.66-1.32-3.98-2.8-6.28-.9.64-1.19.93-1.64,1.37-.1.1-.39.37-.81.37-.84,0-1.53-.73-1.53-1.51,0-.34.1-.45.21-.6.47.53.68.61.92.61.37,0,.45-.03,2.29-1.08-.15-.19-.84-1.05-.97-1.24-.15-.22-.21-.45-.21-.68,0-.87.89-.94,1.34-.95.21-.02,2.19-.19,2.3-.26.05-.03.08-.08.08-.13,0-.32-.77-.69-1.85-1.21.24-.06.55-.13,1.02-.13,1.22,0,2.71.52,2.71,1.76,0,.37-.21.6-.52.6-.18,0-.27-.03-.74-.18-.26-.08-1.06-.19-1.92-.19-.48,0-1.24.03-1.24.55,0,.1.05.27.16.47.23.35.56.9.69,1.11.56-.32,1.02-.56,1.76-.89,2.24-.97,3.77-1.11,4.4-1.11,1.53,0,2.96.74,2.96,2.32,0,1.16-.92,2.63-3.08,2.63Z"/><path class="cls-1" d="m124.8,39.16l.73-.77c.11-.11.19-.21.26-.21.05,0,.11.05.29.18l1.1.77c.08.06.16.13.16.26,0,.14-.13.16-.24.16h-12.44c-1,0-1.34.05-1.74.11l-.27-.6c.76.08,1.53.1,2.3.1h5.87c.76-1.76.81-3.01.82-3.53l1.6.82c.13.06.24.18.24.31,0,.18-.23.24-.48.34-.64.97-1.27,1.68-1.66,2.06h3.48Zm-1.53-3.93l.61-.72q.16-.19.24-.19c.06,0,.1.02.31.16l1.03.73c.1.06.18.13.18.26,0,.14-.13.16-.24.16h-9.36c-.98,0-1.34.05-1.74.11l-.26-.6c.76.08,1.51.1,2.29.1h2.84c-.03-1.1-.05-1.32-.44-2.19l1.82.53c.23.06.42.16.42.31s-.15.24-.42.39v.97h2.72Zm-.89,6.09l.44-.52c.13-.16.21-.23.32-.23.13,0,.29.11.4.21l.55.42c.1.08.23.19.23.31,0,.18-.24.31-.53.45,0,.79.18,4.24.18,4.95,0,.81-.76.82-.93.82-.52,0-.52-.14-.5-.82h-5.27c0,.29,0,.98-.92.98-.58,0-.58-.45-.58-.66,0-.18.06-.92.06-1.08.05-.9.06-3.05.06-4.04,0-.9-.03-1.24-.11-1.79l1.66,1h4.95Zm-5.77-5.32c1.84.85,1.93,2.03,1.93,2.21,0,.53-.37.85-.82.85-.58,0-.76-.45-.77-1.05-.03-1-.05-1.29-.48-1.9l.15-.11Zm.64,5.71v2.17h5.27v-2.17h-5.27Zm0,2.56v2.26h5.27v-2.26h-5.27Z"/><path class="cls-1" d="m141.1,40.7c.02.21.03,1.16.05,1.35.02.32.06.82.06,1.13,0,.58-.52.79-.9.79-.63,0-.61-.47-.61-.77h-7.19c-.55,2.98-2.72,4.5-4.22,5.12l-.05-.11c2.09-1.68,3.08-4.14,3.08-6.64,0-1.08-.15-1.93-.24-2.53l1.77.84h6.78l.53-.58s.15-.14.24-.14c.11,0,.18.05.29.13l.74.55s.19.15.19.32c0,.13-.05.29-.53.55Zm2.03-4.72h-6.43v1.9h3.35l.56-.85c.06-.1.13-.21.24-.21.1,0,.24.11.31.18l1,.85c.08.08.16.14.16.24,0,.16-.15.18-.26.18h-9.99c-.98,0-1.34.03-1.74.11l-.26-.6c.97.08,2.11.1,2.29.1h2.92v-1.9h-4.24c-.98,0-1.34.03-1.74.11l-.26-.6c.97.08,2.11.1,2.29.1h3.93c-.02-.77-.02-1.05-.35-2.53l2.03.48c.13.03.19.16.19.24,0,.11-.05.14-.44.47v1.34h4.22l.73-.94c.1-.13.16-.21.26-.21s.23.11.29.18l1.03.93c.06.05.15.16.15.24,0,.14-.11.18-.24.18Zm-7.64,4.29h-2.8c.02,1.61-.11,2.48-.11,2.55h2.92v-2.55Zm4.22,0h-2.8v2.55h2.8v-2.55Z"/><path class="cls-1" d="m151.7,46.11c1.18-.45,5.06-1.98,5.06-5.93,0-2.24-1.45-4.32-4.64-4.32-.48,0-.81.05-1.02.08,1.08.47,1.39,1.14,1.39,1.39,0,.22-1.19,2.85-2.08,4.51-1.68,3.16-2.22,3.27-2.67,3.27-.35,0-.53-.24-1.03-.95-.23-.32-.29-.37-.64-.68-.48-.4-.73-1.26-.73-1.87,0-3.46,3-6.28,6.91-6.28,3.3,0,6.01,1.9,6.01,5.09,0,3.35-2.9,5.48-6.56,5.8v-.11Zm-5.17-4.79c0,1.03.48,2.42,1.08,2.42.52,0,1.14-1.19,1.48-1.82.52-.98,1.95-3.9,1.95-4.87,0-.11-.02-.55-.55-1.01-2.19.5-3.96,3.21-3.96,5.29Z"/><path class="cls-1" d="m166.4,41.74l.55-.56c.1-.1.13-.15.21-.15.05,0,.11.05.18.1l.85.69c.08.06.13.11.13.23,0,.23-.15.31-.6.55-.02.39-.03.68,0,1.74,0,.32.06,1.74.06,2.05,0,.24,0,.94-.84.94-.06,0-.58-.02-.58-.47,0-.13.03-.32.03-.43h-3.59c.03.13.05.26.05.4,0,.79-.93.79-1.03.79-.31,0-.5-.1-.5-.4,0-.14.05-.77.06-.9.05-.68.1-3.08.1-3.66,0-.47-.03-1.26-.13-1.69l1.5.79h1.08v-3.01h-1.72c-.98,0-1.34.05-1.74.11l-.26-.6c.98.1,2.11.1,2.29.1h1.43v-2.55c-1.14.23-2.38.37-4.03.34v-.14c2.37-.4,6.57-1.84,7.32-2.79l1.24.92c.18.13.18.21.18.26,0,.19-.23.19-.5.18-.61.21-1.5.52-2.87.92v2.87h1.45l.63-.84c.06-.1.15-.19.24-.19s.16.05.31.16l1.03.84c.08.06.16.14.16.26,0,.14-.15.16-.24.16h-3.58v3.01h1.13Zm-3.63.39v3.9h3.64v-3.9h-3.64Zm8.46-8.23c.1.03.32.13.32.31,0,.15-.35.39-.55.52-.15,2.82-.16,8.27-.16,8.88,0,.34,0,1.87.08,2.08.1.29.58.29.71.29,1.13,0,1.29,0,1.89-3.14h.1c.31,2.69.39,2.77.63,3,.21.19.29.27.29.48,0,.98-2.16.98-2.8.98-1.4,0-2.16-.13-2.16-1.27,0-1.68.05-9.06.05-10.57,0-1.31,0-1.56-.13-2.21l1.74.66Z"/><path class="cls-1" d="m190.84,43.27c-1.4,1.9-2.42,2.58-3.66,2.58-.56,0-2.09-.18-2.09-2.19,0-.68.05-.95.42-3.43.13-.85.21-1.9.21-2.21,0-.24,0-1.05-.77-1.05-.98,0-3.4,2.27-4.51,3.75,0,.85.16,3.66.16,3.72,0,.08.1,1.29.1,1.32,0,.34-.15,1.35-.69,1.35-.37,0-.5-.23-.61-.81-.16-.87-.21-1.11-.58-1.88l.08-.05s.63.45.68.45c.06,0,.06-.1.06-.19s-.06-2.14-.08-2.54c-.63,1.08-1.42,2.64-1.56,2.95-.27.58-.39.82-.74.82-.48,0-.55-.63-.55-.84,0-.53.29-.85.73-1.3.29-.32,1.43-2,2.18-4.01.03-.53.03-.6.08-1.11-.61.34-.69.4-1.47.92-.21.14-.37.24-.58.24-.52,0-.97-.85-.97-1.42,0-.26.1-.43.16-.56.44.4.66.58,1.05.58s1.76-.55,1.89-.6c.03-.4.16-1.71.16-2.03,0-1.05-.56-1.13-1.32-1.24.16-.18.53-.6,1.1-.6s1.77.63,1.77,1.22c0,.1-.02.27-.21.66-.29.6-.37.76-.52,1.43.08.03.77.45.77.69,0,.08-.06.16-.58.95-.32.5-.44.81-.48.93,0,.08-.02.19-.02.26,1.22-1.58,3.45-3.83,4.88-3.83.27,0,1.76.11,1.76,1.87,0,.42-.16,1.56-.32,2.69-.18,1.13-.34,2.24-.34,2.63,0,.84.29,1.03.85,1.03.77,0,2.56-.61,3.48-1.27l.1.11Z"/><path class="cls-1" d="m197.48,47.58c-2.43,0-3.48-1.21-3.48-3.11,0-.48.02-.58.23-1.66-1.5-.58-2.05-1.1-2.05-1.76,0-.55.26-.89,1.35-1.93.19-.18.61-.56.61-.69,0-.15-.08-.21-.21-.26-1.08-.47-1.92-.85-1.97-2.14,1.19,1.06,1.82,1.19,3.24,1.48.1-.6.29-1.8.29-2.34,0-.98-.56-1.19-1.22-1.43.16-.18.34-.35.89-.35.76,0,2.01.63,2.01,1.31,0,.27-.23.79-.29.93-.29.64-.47,1.05-.77,2.16.37.19.74.53.74.84,0,.53-.58.52-1.08.5-.08.35-.37,1.59-.58,2.79.55.02,1.45.06,1.63.13.27.1.79.63.79.9,0,.4-.73.4-1.02.4-.73,0-1.35-.19-1.6-.27-.03.24-.08.56-.08,1.06,0,.61,0,2.5,2.43,2.5,1.21,0,2.69-.63,2.69-2.38,0-1.63-1.42-3.88-2.76-4.71l.05-.08c.45.18,4.19,1.63,4.19,4.75s-3.06,3.37-4.04,3.37Zm-4.64-6.87c0,.64,1.02.95,1.56,1.1l.5-2.69c-1.39.16-2.06,1.1-2.06,1.59Z"/><path class="cls-1" d="m211.35,36.63c-1.08.37-2.19.68-3.3.92-2.01,4.43-2.42,5.3-3.13,6.27-.05.08-.21.27-.45.27-.21,0-.63-.18-.63-.74,0-.4.23-.71.35-.89.52-.71,1.55-2.14,2.69-4.64-.35.08-.81.18-1.35.18-1.42,0-1.71-.8-1.71-1.18,0-.16.05-.31.11-.47.26.48.74.71,1.68.71.5,0,.98-.06,1.69-.23.08-.21.55-1.42.55-1.95,0-.6-.66-.79-.93-.87.27-.24.56-.39.92-.39.61,0,1.66.68,1.66,1.14,0,.21-.21.48-.29.61-.31.47-.39.63-.63,1.08.4-.13.81-.29,1.16-.45.74-.34.82-.39,1.02-.39.23,0,.97.27.97.63,0,.21-.23.32-.37.37Zm4.04,3.98c-.29,0-.55-.13-.64-.18-.71-.39-.95-.52-1.53-.52-1.55,0-1.64,1.26-1.64,1.88,0,.85.18,1.58.29,2.08,1.53.27,3.09,1.06,3.09,1.95,0,.16-.1.71-.53.71-.31,0-.97-.47-1.31-.71-.56-.42-.76-.5-1.1-.64-.02.35-.06,1.06-.61,1.56-.66.61-1.8.66-2.05.66-1.29,0-2.56-.77-2.56-1.88,0-1.29,1.42-1.84,3.13-1.84.29,0,.48.02.69.03-.1-.84-.13-1.13-.13-1.51,0-1.95,1.92-2.53,2.59-2.74.06-.02.37-.08.42-.11.06-.05.08-.11.08-.16,0-.32-.85-.92-2.22-1.21.4-.13.77-.21,1.21-.21,1.98,0,3.35,1.34,3.35,2.26,0,.32-.16.58-.53.58Zm-6.04,3.95c-.31,0-1.95,0-1.95.95,0,.68,1.1.9,1.69.9,1.63,0,1.61-1.29,1.6-1.69-.32-.1-.55-.16-1.34-.16Z"/><path class="cls-1" d="m221.74,47.01c-2.58,0-2.98-1.63-2.98-4.19,0-.47.19-5.74.19-6.82s-.16-1.29-1.47-1.64c.5-.53,1.27-.53,1.39-.53.93,0,1.89.82,1.89,1.26,0,.16-.19.81-.23.93-.64,3.09-.64,7.49-.64,7.64,0,1.37,0,2.24,1.71,2.24,2.08,0,6.01-1.79,7.32-3l.1.1c-1.98,3.66-5.99,4.01-7.27,4.01Z"/><path class="cls-1" d="m230.3,48.3l-.16-.23c1.69-1.55,2.92-4.5,2.92-7.57s-1.22-6.03-2.92-7.57l.16-.23c2.01,1.3,3.87,4.21,3.87,7.8s-1.85,6.49-3.87,7.8Z"/><path class="cls-1" d="m436.11,13.84l.62-.69c.09-.09.17-.19.28-.19s.24.11.32.17l.86.77c.11.09.19.24.19.39,0,.21-.09.32-.54.77-.04.62,0,3.52-.06,3.95-.04.26-.47.77-1.14.77-.37,0-.49-.28-.43-.62h-1.91v2h1.2l.71-.86c.15-.17.24-.26.34-.26.13,0,.26.11.39.21l1.03.86c.11.09.21.17.21.32,0,.19-.17.24-.32.24h-3.57v1.8c2.3-.32,3.2-.49,3.89-.62v.15c-2.26,1.25-7.3,2.56-8.66,2.81-.15.41-.3.6-.49.6-.17,0-.34-.19-.41-.3l-1.01-2.11c.32.06.75.09,1.05.09.41,0,1.07-.06,1.68-.15.24-.02,1.76-.17,2.34-.26v-2.02h-1.87c-1.31,0-1.78.04-2.32.13l-.34-.77c1.31.11,2.81.13,3.05.13h1.48v-2h-1.93c.04.3.02.58-.26.79-.15.13-.54.32-.86.32-.39,0-.54-.26-.54-.67,0-.75.06-4.04.06-4.73,0-.41-.06-1.78-.21-2.17l2.11,1.12h1.63v-1.65h-2.23c-1.33,0-1.8.04-2.34.15l-.34-.79c1.31.11,2.81.13,3.07.13h1.85v-1.57c-.84.09-2.11.19-3.05.19-.67,0-1.1-.04-1.48-.06v-.13c1.8-.39,5.31-1.35,6.96-2.02.52-.19.9-.49,1.12-.71l1.44,1.33c.09.06.19.19.19.37,0,.19-.21.3-1.01.24-.37.11-1.07.28-2.56.56v1.8h2.19l.79-1.12c.09-.13.21-.26.34-.26s.24.11.37.21l1.29,1.12c.13.11.21.19.21.32,0,.19-.17.24-.32.24h-4.88v1.65h1.8Zm-3.42,2.32v-1.8h-1.96v1.8h1.96Zm0,2.49v-1.98h-1.96v1.98h1.96Zm1.61-4.3v1.8h1.96v-1.8h-1.96Zm0,2.32v1.98h1.96v-1.98h-1.96Zm9.78-3.52l.92-.9c.09-.09.24-.24.32-.24.13,0,.28.13.37.19l1.07.84c.17.13.26.21.26.37,0,.21-.47.54-.75.73v1.07c-.11,3.97-.15,6.92-.67,8.44-.64,1.96-1.38,3.03-3.61,3.29-.17-1.44-1.27-2.04-2.3-2.58l.06-.17c1.18.28,2.36.28,2.51.28.95,0,1.1-.13,1.42-.86.69-1.59.95-7.37.95-8.42,0-.56-.09-1.25-.17-1.53h-1.87c0,.92-.02,3.01-.71,5.67-1.22,4.79-3.67,6.55-6.12,7.71l-.15-.15c2.47-1.7,3.74-4.38,4.36-6.29.47-1.42.79-3.44.86-6.94-1.35,0-1.8.04-2.32.15l-.34-.79c.88.09,1.05.09,2.66.13.04-1.42.09-4.15-.45-6.04l2.51.86c.13.04.39.19.39.37,0,.15-.11.24-.19.32-.28.24-.3.26-.43.39-.02.6-.04,3.46-.06,4.1h1.48Z"/><path class="cls-1" d="m468.12,9.33h-8.38v3.09h1.76l.56-.71c.06-.09.15-.17.28-.17.11,0,.19.09.34.21l1.01.88c.06.06.17.17.17.3,0,.15-.13.3-.58.73-.02.52-.02.84-.02,1.38,0,.95.11,5.61.11,6.66,0,.79-.67,1.12-1.12,1.12-.26,0-.73-.09-.73-.75,0-.11.04-.28.09-.49h-5.35c.04.37.06.64-.02.86-.15.34-.73.54-1.05.54-.75,0-.75-.58-.75-.86,0-2,.09-5.16.09-7.13,0-.79,0-2.43-.17-3.52l2.11.97h1.68v-3.09h-5.78c-1.5,0-1.91.06-2.32.13l-.37-.77c1.03.09,2.04.13,3.07.13h12.2l.97-1.22c.09-.13.19-.28.32-.28s.26.13.41.24l1.59,1.22c.09.06.21.19.21.32,0,.21-.21.24-.32.24Zm-1.25,3.87c-.09,2.02.04,9.24.09,10.4,0,.3.11,1.65.11,1.93,0,.97-.84,1.14-1.29,1.14-.73,0-.73-.52-.73-.77,0-.06.04-.95.04-1.1h-12.1c.02.92.04,1.74-1.16,1.74-.84,0-.84-.54-.84-.77,0-.11.04-.82.06-.97.06-.99.06-3.87.06-4.98,0-1.68,0-6.19-.17-7.56-.04-.43-.11-.6-.21-.92l2.51.71c.17.04.24.15.24.39,0,.3-.28.52-.56.71-.04,1.05-.06,2.04-.06,3.59,0,1.03,0,1.42.06,4.81,0,.39.04,2.38.04,2.75h12.12c0-6.66,0-10.18-.13-11.75-.04-.47-.13-.79-.24-1.12l2.32.64c.17.04.37.13.37.37,0,.28-.3.58-.54.77Zm-8.74-.26h-1.87v3.7h1.87v-3.7Zm0,4.21h-1.87v3.91h1.87v-3.91Zm3.5-4.21h-1.89v3.7h1.89v-3.7Zm0,4.21h-1.89v3.91h1.89v-3.91Z"/><path class="cls-1" d="m476.49,11.61l.77-.69c.06-.06.19-.15.28-.15.15,0,.26.09.37.19l.84.84c.11.11.26.26.26.43,0,.32-.34.41-1.03.6-.39.67-.9,1.48-1.96,2.77v.15c2.66.54,2.88,1.29,2.88,1.93,0,.69-.62.97-.99.97-.47,0-.69-.39-.9-.86-.47-1.03-.56-1.22-.99-1.68.02,1.35.09,7.97.09,9.47,0,.75-.54,1.07-1.12,1.07-.67,0-.67-.49-.67-.71s.06-1.31.06-1.55c.04-.86.04-1.1.04-7.11-1.96,1.78-3.22,2.45-3.91,2.79l-.06-.06c2.36-2.3,4.28-5.01,5.8-7.91h-2.51c-1.48,0-1.89.06-2.32.13l-.34-.77c1.2.09,2.43.13,3.29.13v-1.78c0-1.55-.28-2.23-.52-2.77l2.51.84c.11.04.28.11.28.3s-.06.24-.64.69v2.73h.49Zm5.16,7.71l1.59.9c.11.06.26.19.26.37,0,.3-.28.39-.6.39-1.8,3.29-4.6,4.81-6.49,4.98l-.06-.11c2.47-1.33,4.43-4.06,4.92-5.84-.3.26-.75.26-.82.26-.71,0-.71-.41-.71-.73,0-.97.04-5.76.04-6.85,0-3.03-.06-4.08-.28-5.11l2.17,1.12h4.47l.56-.64c.11-.11.21-.21.37-.21.13,0,.24.06.28.11l1.05.88c.15.13.21.19.21.3,0,.15,0,.21-.69.6,0,.79.04,5.76.04,6.25.02.49.09,2.88.09,3.42,0,.86-.84,1.01-1.12,1.01-.64,0-.64-.37-.67-1.07h-.69v4.68c0,.49,0,.56,1.74.56.77,0,1.2,0,1.68-3.44h.13c.11.62.17.84.3,1.44.28,1.25.3,1.38.6,1.55.52.28.56.3.56.64,0,1.48-2.04,1.55-3.85,1.55s-2.66-.19-2.79-1.07c-.04-.28-.04-5.41-.04-5.91h-2.26Zm-.19-10.12v2.81h4.81v-2.81h-4.81Zm0,3.33v2.84h4.81v-2.84h-4.81Zm4.81,6.27v-2.92h-4.81v2.92h4.81Z"/><path class="cls-1" d="m500.79,9.24h-1.72c0,.75-.02,7.5.09,13.58,0,.47.13,2.81.13,3.35,0,.6-.82.82-1.31.82-.15,0-.37-.02-.45-.21-.06-.15-.06-1.48-.06-2.36,0-1.03,0-1.93.04-2.71-1.18.84-2.38,1.65-3.7,2.26-.04.13-.09.41-.32.41-.13,0-.19-.09-.24-.17l-1.16-2.3c.39.04.71.09,1.03.09.34,0,.62-.04.84-.06v-12.65c-.54.02-.82.06-1.14.11l-.34-.77c1.01.09,2.04.13,3.05.13h2.58l.75-.88c.21-.26.24-.28.34-.28.06,0,.21.11.39.21l1.31.9c.11.06.24.19.24.32,0,.21-.21.24-.34.24Zm-3.27,0h-1.93v3.72h1.93v-3.72Zm0,4.23h-1.93v3.72h1.93v-3.72Zm0,4.23h-1.93v3.93c.39-.09.92-.21,1.93-.52v-3.42Zm2.92,7.35c-.62,0-.95-.52-.95-.95,0-.49.3-.79.97-1.5.54-.58.75-1.22.95-2.19h.13c.19.52.47,1.27.47,2.19,0,1.16-.67,2.45-1.57,2.45Zm10.72-14.74h-5.07v2.36h2.36l.43-.45c.17-.19.26-.28.37-.28.13,0,.24.09.32.15l1.1.82c.09.06.21.15.21.24,0,.21-.32.37-.6.52-.02.43-.04.82,0,2.15,0,.28.09,1.65.09,1.96,0,.62-.95.86-1.29.86-.52,0-.52-.39-.49-1.05h-6.57c.02.71.04,1.35-1.12,1.35-.56,0-.58-.28-.58-.62,0-.19.09-2.49.09-2.79,0-1.25,0-2.88-.09-3.72l1.8.88h2.26c-.02-.9-.02-1.4-.02-2.36h-1.07c-1.48,0-1.89.06-2.32.15l-.34-.79c1.01.09,2.04.13,3.05.13h.67c0-1.61-.06-1.8-.45-2.75l2.41.67c.24.06.34.21.34.32,0,.19-.32.43-.54.6v1.16h2.73l.56-1.03c.11-.19.19-.28.32-.28s.32.17.39.24l1.18,1.03c.11.09.21.19.21.32,0,.24-.21.24-.32.24Zm-7.95,2.88h-1.2v3.87h1.2v-3.87Zm5.48,12.31c-.62.54-1.63.62-2.66.62-3.07,0-3.31-.58-3.31-2.47,0-.39.04-2.15.04-2.51,0-.84-.06-1.12-.19-1.63l2.04.58c.24.06.41.13.41.34,0,.26-.32.43-.54.54-.02.77-.06,1.91-.06,2.51,0,.86,0,.92,1.55.92,1.22,0,1.44-.13,2-2.58l.11.02c.28,1.78.28,1.8.75,2.17.39.28.41.32.41.49,0,.37-.34.82-.54.99Zm-2.02-3.67c-.75,0-.88-.39-1.27-1.68-.02-.09-.24-.75-.92-1.59l.09-.17c1.68.6,3.01,1.29,3.01,2.58,0,.67-.54.86-.9.86Zm-.79-8.64h-1.2v3.87h1.2v-3.87Zm2.71,0h-1.27v3.87h1.27v-3.87Zm2.15,11.15c-.62,0-.71-.37-.95-1.27-.11-.43-.41-1.14-.71-1.76-.43-.84-.69-1.14-.97-1.46l.11-.13c1.78.73,3.5,2.08,3.5,3.44,0,.56-.32,1.18-.99,1.18Z"/><path class="cls-1" d="m403.48,48.3c-2.01-1.3-3.87-4.21-3.87-7.8s1.85-6.49,3.87-7.8l.16.23c-1.69,1.55-2.92,4.5-2.92,7.57s1.22,6.03,2.92,7.57l-.16.23Z"/><path class="cls-1" d="m419.36,35.83h-11.57c-.98,0-1.34.05-1.74.11l-.26-.6c.97.1,2.11.1,2.29.1h3.95c.03-1.1-.16-1.97-.4-2.4l2,.61c.08.03.24.08.24.26,0,.19-.32.31-.48.35,0,.27,0,.32-.03,1.18h3.64l.82-.93c.16-.18.18-.21.26-.21s.21.11.29.18l1.08.93c.08.08.16.14.16.26,0,.14-.15.16-.24.16Zm-.76,6.16c-.03.61.1,3.27.1,3.82s0,1.1-.85,1.64c-.55.34-1,.39-1.31.42,0-.56-.66-1.34-1.5-1.79v-.11c.37.05.87.11,1.8.11.47,0,.52-.11.52-1.32,0-.6-.03-2.63-.08-3.17h-9.23c-.05.39-.05.47-.05,1.19,0,.61.05,3.3.05,3.85,0,.45,0,1.05-.92,1.05-.35,0-.58-.18-.58-.55,0-.55.11-1.42.15-1.97.05-.72.05-1.21.05-1.61,0-1.06,0-2.53-.19-3.17l1.66.82h8.89l.55-.56s.15-.13.26-.13.26.11.32.16l.79.61c.11.08.15.13.15.23,0,.13-.05.16-.56.48Zm-2.13-4.22c-.03.31.06,1.72.06,2.01,0,.61-.97.68-1.02.68-.5,0-.37-.72-.35-.82h-5.33c0,.43-.02.56-.13.69-.16.19-.58.31-.84.31-.4,0-.4-.24-.4-.4,0-.36.06-1.97.06-2.29,0-.31-.03-1.5-.05-1.69l1.47.68h5.12l.47-.45s.18-.16.24-.16c.1,0,.11.03.29.16l.84.64c.08.06.1.11.1.19,0,.18-.05.19-.53.45Zm-1.1,5.62c0,.32,0,.69.02,1.03.02.14.06.71.06.82,0,.4-.21.52-.29.56-.18.1-.45.19-.64.19-.26,0-.47-.13-.47-.34,0-.1.03-.26.03-.37h-3.16c.03.34.1.95-.73.95-.23,0-.61-.06-.61-.4,0-.08.11-1.76.11-2.08,0-.6-.1-1.45-.18-1.8l1.5.84h2.93l.48-.52c.1-.11.16-.18.21-.18.1,0,.21.1.26.13l.69.58c.08.06.13.13.13.22,0,.06,0,.13-.35.36Zm-.18-6.08h-5.35v1.93h5.35v-1.93Zm-1.11,5.87h-3.17v1.72h3.17v-1.72Z"/><path class="cls-1" d="m435.57,34.77h-6.28v2.32h1.32l.42-.53c.05-.06.11-.13.21-.13.08,0,.15.06.26.16l.76.66s.13.13.13.23c0,.11-.1.23-.44.55-.02.39-.02.63-.02,1.03,0,.71.08,4.21.08,5,0,.6-.5.84-.84.84-.19,0-.55-.06-.55-.56,0-.08.03-.21.06-.37h-4.01c.03.27.05.48-.02.64-.11.26-.55.4-.79.4-.56,0-.56-.44-.56-.64,0-1.5.06-3.87.06-5.35,0-.6,0-1.82-.13-2.64l1.58.72h1.26v-2.32h-4.33c-1.13,0-1.43.05-1.74.1l-.27-.58c.77.06,1.53.1,2.3.1h9.15l.73-.92c.06-.1.15-.21.24-.21s.19.1.31.18l1.19.92c.06.05.16.15.16.24,0,.16-.16.18-.24.18Zm-.93,2.9c-.06,1.51.03,6.93.06,7.8,0,.23.08,1.24.08,1.45,0,.73-.63.85-.97.85-.55,0-.55-.39-.55-.58,0-.05.03-.71.03-.82h-9.07c.02.69.03,1.3-.87,1.3-.63,0-.63-.4-.63-.58,0-.08.03-.61.05-.72.05-.74.05-2.9.05-3.74,0-1.26,0-4.64-.13-5.67-.03-.32-.08-.45-.16-.69l1.89.53c.13.03.18.11.18.29,0,.23-.21.39-.42.53-.03.79-.05,1.53-.05,2.69,0,.77,0,1.06.05,3.61,0,.29.03,1.79.03,2.06h9.09c0-5,0-7.64-.1-8.81-.03-.35-.1-.6-.18-.84l1.74.48c.13.03.27.1.27.27,0,.21-.23.44-.4.58Zm-6.56-.19h-1.4v2.77h1.4v-2.77Zm0,3.16h-1.4v2.93h1.4v-2.93Zm2.63-3.16h-1.42v2.77h1.42v-2.77Zm0,3.16h-1.42v2.93h1.42v-2.93Z"/><path class="cls-1" d="m443.05,36.04l.53-.55c.15-.16.21-.22.31-.22.08,0,.15.06.29.18l.71.56c.1.08.16.13.16.26,0,.15-.15.16-.24.16h-1.58c.03.55.05,1.82.05,2.43,0,.64-.76.64-.82.64-.48,0-.5-.27-.5-.42,0-.23.03-1.21.03-1.4.02-.5.02-.87,0-1.26h-1.14c-.18,1.14-.56,3.08-3.09,3.85l-.03-.08c1.35-1.32,1.89-2.56,1.89-4.79,0-.72-.03-1.16-.18-1.76l1.66.72c1.13-.26,2.01-.74,2.59-1.29l1.14.93c.08.06.16.18.16.27,0,.14-.13.24-.34.24-.06,0-.27-.02-.4-.02-1.22.15-2.67.16-3.29.16,0,.45-.02.93-.06,1.35h2.16Zm4.93,4.09l.39-.43c.11-.13.18-.21.29-.21s.21.06.32.15l.79.52c.13.08.21.15.21.26,0,.13-.23.27-.6.47,0,.56.08,3.3.08,3.93,0,.68-.74.69-.92.69-.37,0-.45-.13-.42-.4h-4.77l.79.64c.11.1.16.13.16.23,0,.13-.13.21-.63.24-2.09,1.11-3.92,1.48-5.61,1.63v-.1c1.63-.63,3.03-1.37,4.4-2.64h-.66c.03.5-.58.66-.97.66-.27,0-.37-.1-.37-.39,0-.13.08-1.26.08-1.48.03-.84.03-2.82.03-3.69,0-.22-.02-.68-.05-.98l1.64.92h5.8Zm-6.17.39v1.11h6.33v-1.11h-6.33Zm0,1.5v1.13h6.33v-1.13h-6.33Zm6.33,2.69v-1.18h-6.33v1.18h6.33Zm1.93-8.67l.56-.77c.1-.13.16-.21.26-.21s.18.08.29.18l.85.77c.11.11.16.15.16.26,0,.13-.11.16-.23.16h-2.4c.02.55.05,1.77.05,2.38,0,.64-.76.64-.82.64-.5,0-.5-.27-.5-.4,0-.42.05-2.26.02-2.63h-1.48c-.16.76-.53,2.64-3.06,3.46l-.03-.06c.55-.48,1.95-1.72,1.95-4.56,0-.6-.05-1.03-.24-1.72l1.61.64c.84-.19,1.85-.63,2.61-1.29l1.22.95c.11.08.18.14.18.27,0,.14-.11.19-.29.19-.06,0-.18-.03-.27-.05-1.24.26-3.46.24-3.51.24,0,.72-.05,1.16-.1,1.53h3.17Zm-3.75,9.25c1.84.11,4.77.47,4.77,1.97,0,.4-.35.69-.71.69-.4,0-.48-.06-1.29-.76-1.19-1.03-1.95-1.47-2.79-1.82l.02-.08Z"/><path class="cls-1" d="m459.4,47.58c-2.43,0-3.48-1.21-3.48-3.11,0-.48.02-.58.23-1.66-1.5-.58-2.05-1.1-2.05-1.76,0-.55.26-.89,1.35-1.93.19-.18.61-.56.61-.69,0-.15-.08-.21-.21-.26-1.08-.47-1.92-.85-1.97-2.14,1.19,1.06,1.82,1.19,3.24,1.48.1-.6.29-1.8.29-2.34,0-.98-.56-1.19-1.22-1.43.16-.18.34-.35.89-.35.76,0,2.01.63,2.01,1.31,0,.27-.23.79-.29.93-.29.64-.47,1.05-.77,2.16.37.19.74.53.74.84,0,.53-.58.52-1.08.5-.08.35-.37,1.59-.58,2.79.55.02,1.45.06,1.63.13.27.1.79.63.79.9,0,.4-.73.4-1.02.4-.73,0-1.35-.19-1.6-.27-.03.24-.08.56-.08,1.06,0,.61,0,2.5,2.43,2.5,1.21,0,2.69-.63,2.69-2.38,0-1.63-1.42-3.88-2.76-4.71l.05-.08c.45.18,4.19,1.63,4.19,4.75s-3.06,3.37-4.04,3.37Zm-4.64-6.87c0,.64,1.02.95,1.56,1.1l.5-2.69c-1.39.16-2.06,1.1-2.06,1.59Z"/><path class="cls-1" d="m476.17,46.11c-.44,0-.68-.42-.84-.68-1.24-2.06-1.98-3.09-3.27-4.11-2.47,2.93-4.91,4.5-7.19,4.9v-.13c3.85-1.79,7.83-7.19,8.36-9.47-.05.02-3.27.6-4.12,1.01-.47.24-.53.26-.66.26-.24,0-1.26-.74-1.26-1.77,0-.42.06-.53.15-.71.66.85.79,1.03,1.32,1.03.39,0,3.92-.31,4.58-.72.11-.08.63-.52.76-.52.21,0,1.47,1.19,1.47,1.45,0,.18-.11.23-.63.42-.15.06-.21.18-.45.61-1.06,1.93-1.24,2.26-2.08,3.34,1.97.82,4.5,2.76,4.5,4.21,0,.39-.15.89-.63.89Z"/><path class="cls-1" d="m489.6,45.58c-.5,0-.66-.45-.84-.95-.05-.14-.61-1.68-.64-1.76-1.4.58-3.16,1.01-6.49,1.87-.44.11-.55.14-.74.39-.16.18-.24.24-.39.24-.44,0-1.37-1.31-1.37-2.19,0-.08,0-.16.03-.4.55.53.71.66,1.4.66.23,0,.42-.02.55-.03.6-1.21,2.9-6.32,2.9-7.35,0-.61-.35-.85-1.26-1.24.42-.13.79-.26,1.13-.26.76,0,2,.92,2,1.64,0,.26-.06.32-.45.68-.23.22-.76,1.53-.89,1.77-.69,1.35-1.84,3.29-2.87,4.71,3.03-.35,3.37-.39,6.3-.82-.69-1.51-1.71-2.63-2.16-3.11.52.21,1.24.55,2.47,1.76,1.66,1.61,1.95,2.58,1.95,3.4,0,.6-.26,1-.63,1Z"/><path class="cls-1" d="m504.24,41.24c-.26,0-.66-.02-.98-.05-.31-.02-4.24-.05-4.51-.05-.93,0-3.4.05-4.14.26-.29.08-.42.11-.55.11-.6,0-1.5-1.27-1.5-1.92,0-.21.06-.48.26-.9.56,1.13.95,1.32,2.87,1.32.93,0,6.53-.02,7.07-.21.24-.08.44-.16.64-.16.03,0,1.92.14,1.92,1,0,.27-.31.6-1.08.6Z"/><path class="cls-1" d="m518.34,46.42c-.35,0-.44-.15-1.13-1.4-.71-1.32-1.71-2.5-2.92-3.42-2.37,2.9-5.16,4.4-7.09,4.88v-.06c4.16-2.47,7.46-6.53,8.27-9.39-3.32.66-3.66.72-4.09.97-.47.27-.52.31-.64.31-.18,0-.26-.08-.48-.32-.47-.47-.79-.81-.79-1.5,0-.34.08-.48.16-.68.53.76.74,1.05,1.21,1.05.74,0,3.9-.34,4.51-.63.15-.08.73-.55.87-.55.23,0,1.48,1.14,1.48,1.39,0,.15-.06.18-.6.42-.18.08-.24.18-.32.34-.81,1.48-1.21,2.26-2.26,3.51,1.98.87,4.46,2.53,4.46,4.16,0,.81-.48.94-.64.94Zm.11-10.09c-.27,0-.35-.11-.73-.63-.15-.19-.85-1.03-1.68-1.39.6-.03,1.18.08,1.95.35.4.15.85.35.85,1.06,0,.11,0,.6-.4.6Zm1.58-.84c-.21,0-.29-.08-.9-.74-.45-.48-.97-.94-1.58-1.24.44-.02,2.9.03,2.9,1.43,0,.39-.23.55-.42.55Z"/><path class="cls-1" d="m524.67,42.87c-.23,1.18-.32,1.74-.32,2.11,0,.18.1.93.1,1.1,0,.5-.06.82-.52.82-.95,0-1.85-1.95-1.85-4.77,0-1.03.15-2.35.64-5.01.08-.47.11-.9.11-1.08,0-.52-.13-.92-.63-1.55.11-.06.23-.13.42-.13.58,0,1.79.98,1.79,1.58,0,.29-.16.66-.23.81-.68,1.53-1.24,2.8-1.24,4.71,0,1.03.27,2.3.56,2.3.11,0,.19-.19.24-.32.15-.45.95-2.56,1.42-3.43h.11c-.08.45-.53,2.47-.61,2.87Zm7.72,2.64c-3.88,0-5.45-.69-5.45-2.72,0-.53.13-.69.23-.84.27,1.14.53,2.17,3.51,2.17.34,0,1.84-.11,2.14-.11,1.14,0,1.35.55,1.35.81,0,.69-.89.69-1.79.69Zm-.02-8.44c-1.71.29-2.88.92-3.17,1.16l-.11-.1c.21-.24,1.39-1.32,1.39-1.45,0-.23-.52-.23-.64-.23-.98,0-2.4.58-2.82.74.55-1.29,2.8-1.77,4.35-1.77.71,0,2.03.23,2.03.97,0,.34-.21.55-1.02.68Z"/><path class="cls-1" d="m536.06,48.3l-.16-.23c1.69-1.55,2.92-4.5,2.92-7.57s-1.22-6.03-2.92-7.57l.16-.23c2.01,1.3,3.87,4.21,3.87,7.8s-1.85,6.49-3.87,7.8Z"/><path class="cls-1" d="m100.04,90.83c-.11,0-.24,0-.37-.02-1.14-.15-2.28-.24-3.44-.24-.75,0-1.22.02-1.57.04,0,.43,0,1.48.04,3.14.02.73.15,3.97.15,4.64,0,2.79-.88,3.44-1.38,3.44-.41,0-.58-.41-.95-1.2-.21-.45-.75-1.27-2.3-2.17l.06-.19c1.03.3,2.43.43,2.49.43.28,0,.34-.11.39-.24.06-.24.17-4.4.17-5.48v-.49c-2.06,3.22-5.13,5.67-8.77,6.88l-.09-.15c2.71-1.87,6.72-5.52,8.25-8.42-2.79.32-4.53.88-4.62.92-.21.09-.62.19-.71.19-.41,0-2.11-.71-2.11-2.49,0-.32.04-.52.09-.75.95,1.03,1.38,1.46,2.94,1.46s4.15-.3,4.98-.41c-.04-2.32-.11-3.16-.32-3.67s-.58-.64-1.68-1.05c.56-.56,1.4-.56,1.46-.56.77,0,2.54.75,2.54,1.35,0,.15-.24.58-.32.75-.28.6-.3,1.53-.34,3.03,2-.24,2.21-.26,2.6-.34.17-.04.9-.32,1.07-.32.19,0,2.21.41,2.21,1.31,0,.3-.13.62-.52.62Z"/><path class="cls-1" d="m108.67,89.82c-.37,0-.64-.3-1.38-1.03-1.76-1.78-2.81-2.26-3.59-2.62.39-.04.64-.06,1.05-.06.73,0,4.75.3,4.75,2.69,0,.67-.49,1.03-.84,1.03Zm1.93,7.15c-.79.62-2.08,1.55-2.81,2.21-.13.11-.62.69-.75.75-.11.06-.21.09-.3.09-.77,0-2.3-1.96-2.3-3.01,0-.37.09-.73.15-1.01.69,1.16,1.33,1.46,1.7,1.46.6,0,4.19-2.62,4.96-3.22,3.5-2.73,5.56-5.05,6.72-6.38l.09.04c-.34,1.38-2.49,5.2-7.46,9.07Z"/><path class="cls-1" d="m132.82,91.88c-.11.09-.17.19-.62,1.18-.97,2.06-1.93,4.23-4.6,6.36-1.07.88-3.5,2.56-5.84,2.62v-.15c2.17-.86,5.22-3.91,5.8-4.58.92-1.05,2.26-2.94,3.2-6.02-1.29.13-6.57.67-7.8,1.18-.13.06-.69.37-.82.37-.45,0-2.17-1.22-2.17-2.71,0-.24.04-.45.17-.77.17.24.39.56.95.99.49.37.64.41,1.25.41,1.42,0,8.25-.54,8.51-.67.17-.11.75-.84.92-.84.21,0,1.91,1.2,1.91,1.76,0,.28-.21.43-.86.86Zm-2.86-4.21c-1.01.04-4.19.24-5.09.41-.97.17-1.07.21-1.38.21-1.01,0-1.98-1.5-1.87-2.58,1.01,1.03,2.19,1.03,3.05,1.03,2.43,0,4.1-.45,4.36-.54.19-.04.95-.43,1.12-.43s1.1.32,1.35.45c.3.13.58.34.58.77,0,.56-.34.6-2.13.67Z"/><path class="cls-1" d="m147.71,87.02c-.6.43-.86.71-1.4,1.29-.34.37-1.83,2.04-2.15,2.38.37.21,1.12.73,1.12,1.03,0,.15-.21.75-.24.88-.02.17-.06,1.31-.06,2.69,0,.84.15,4.53.15,5.26,0,.54-.19,1.48-.84,1.48s-1.18-1.12-1.18-1.7c0-.21.19-1.18.21-1.38.15-1.22.17-2.43.17-3.65,0-.43,0-2.77-.13-3.2q-.04-.13-.28-.3c-3.27,3.18-5.8,4.23-7.43,4.79l-.09-.13c4.38-2.69,10.12-9.93,10.12-10.81,0-.54-.58-1.03-1.07-1.44.28-.04.56-.09.95-.09,1.33,0,2.81,1.68,2.81,2.17,0,.26-.09.32-.67.71Z"/><path class="cls-1" d="m158.04,89.82c-.37,0-.64-.3-1.38-1.03-1.76-1.78-2.81-2.26-3.59-2.62.39-.04.64-.06,1.05-.06.73,0,4.75.3,4.75,2.69,0,.67-.49,1.03-.84,1.03Zm1.93,7.15c-.79.62-2.08,1.55-2.81,2.21-.13.11-.62.69-.75.75-.11.06-.21.09-.3.09-.77,0-2.3-1.96-2.3-3.01,0-.37.09-.73.15-1.01.69,1.16,1.33,1.46,1.7,1.46.6,0,4.19-2.62,4.96-3.22,3.5-2.73,5.56-5.05,6.72-6.38l.09.04c-.34,1.38-2.49,5.2-7.46,9.07Z"/><path class="cls-1" d="m188.2,96.6h-8.64v3.7c0,1.1-.6,2.36-2.84,2.71-.21-1.31-.95-1.74-2.45-2.47v-.17c.39.04,2.08.13,2.62.13.71,0,.9-.09.9-.69v-3.2h-6.1c-1.31,0-1.78.04-2.32.15l-.34-.79c1.29.11,2.81.13,3.05.13h5.71c0-1.38,0-1.53-.39-2.75l1.76.54c.3-.34,1.55-1.78,1.65-1.98h-5.33c-1.31,0-1.78.04-2.32.15l-.34-.79c1.31.11,2.81.13,3.05.13h5.09l1.22-.86c.11-.09.26-.15.32-.15.17,0,.28.09.41.24l1.29,1.31c.09.09.11.17.11.26,0,.58-.49.62-1.85.54-1.07.56-1.96.99-2.79,1.35.13.11.21.17.21.3,0,.21-.15.41-.34.64v1.07h5.18l1.1-1.14c.21-.21.37-.39.45-.39s.11.02.39.24l1.63,1.25c.06.04.21.17.21.32,0,.21-.17.24-.32.24Zm-1.31-6.66c-.21.15-1.07.9-1.27,1.03-.37.24-.58.37-1.18.77l-.13-.09c.3-.69.73-2.62.77-2.84h-12.5c0,2.13-1.16,3.91-2.38,3.91-.56,0-1.01-.39-1.01-1.01s.24-.82,1.16-1.61c1.18-1.01,1.5-1.74,1.89-2.84h.11c.11.37.17.62.21,1.03h8.08c.58-.86,1.87-3.2,1.87-4.68,0-.11,0-.17-.02-.32l2.32,1.12c.15.06.28.15.28.34,0,.39-.73.45-.86.47-.9,1.1-2.15,2.36-3.05,3.07h3.89l.88-.75c.24-.19.28-.19.34-.19.13,0,.15.02.41.26l1.33,1.18c.24.21.28.32.28.43,0,.49-.52.58-1.42.71Zm-12.25-2.28c-.62,0-.84-.32-1.14-1.25-.28-.79-.54-1.59-1.35-2.43l.09-.11c1.55.32,3.39,1.33,3.39,2.75,0,.26-.06,1.03-.99,1.03Zm4.23-.21c-.75,0-.95-.6-1.22-1.46-.21-.67-.34-1.07-1.33-2.3l.09-.09c1.91.34,3.5,1.63,3.5,2.75,0,.45-.28,1.1-1.03,1.1Z"/><path class="cls-1" d="m199.33,85.93c0,.75.11,4.06.11,4.75,0,.84-.15,1.63-2.36,2.32-.21-1.1-.71-1.55-1.5-2.19l.09-.17c.26.02,1.2.09,1.46.09.34,0,.41-.06.43-.32.02-.39.02-.97.02-1.76-.75.69-2.26,1.57-2.49,1.7-1.22.73-1.85,1.1-2.41,1.44-.15.32-.32.75-.58.75-.17,0-.24-.15-.32-.28l-1.27-2.13c.15.02.32.06.47.06,1.07,0,6.34-1.68,6.53-1.72l.06.04v-3.37h-4.1c-1.33,0-1.78.06-2.32.15l-.37-.79c1.31.13,2.84.13,3.07.13h3.46l.86-.67c.13-.09.26-.21.39-.21.11,0,.19.13.32.24l.95.92c.11.09.19.21.19.34,0,.17-.06.24-.69.69Zm-5.03,2.77c-.62,0-.73-.24-1.18-1.18-.24-.54-.6-.97-1.22-1.55v-.15c2.51.11,3.31,1.2,3.31,1.93,0,.26-.13.95-.9.95Zm11.84,6.38c0,.86.02,1.76.04,3.37,0,.54.13,2.92.13,3.42,0,.6-.34,1.01-1.29,1.01-.77,0-.75-.6-.73-1.2h-8.31c-.02.49-.06,1.33-1.29,1.33-.39,0-.79-.13-.79-.79,0-.37.13-2,.15-2.32.06-1.14.09-2.17.09-3.27,0-1.74-.04-2.04-.34-3.89l2.28,1.31h2.84c.11-.24.77-1.65.92-3.05l1.74.92c.28.15.32.28.32.39,0,.19-.09.28-.39.37-.32.11-1.44.88-2.13,1.38h4.68l.71-.69c.11-.11.21-.24.37-.24.09,0,.19.09.32.17l.99.73c.13.11.28.24.28.39,0,.24-.06.28-.58.67Zm-1.83-.52h-8.34v2.99h8.34v-2.99Zm0,3.5h-8.34v3.09h8.34v-3.09Zm3.59-12.12c0,.71.04,3.85.04,4.47,0,.75,0,2.06-2.81,2.62-.09-.64-.17-1.4-1.12-2.15v-.17c.34.04,1.01.09,1.4.09.54,0,.69-.09.69-.69v-1.63c-.34.32-3.01,2.02-3.93,2.6-.13.34-.19.62-.45.62-.15,0-.3-.15-.39-.26l-1.38-1.8c.34,0,.95-.02,1.46-.11.75-.13,4.02-1.03,4.68-1.18,0-.32.02-.88.02-2.71v-.47h-3.31c-1.33,0-1.78.04-2.34.15l-.34-.79c1.31.11,2.84.13,3.07.13h2.64l.58-.54c.13-.11.28-.26.45-.26.15,0,.3.13.43.24l.97.82c.09.09.19.19.19.3,0,.24-.04.28-.56.73Zm-5.26,2.66c-.64,0-.88-.64-1.03-1.12-.41-1.22-.58-1.48-.84-1.72l.09-.17c1.76.19,2.73,1.18,2.73,2.04,0,.62-.52.97-.95.97Z"/><path class="cls-1" d="m100.54,124.4c-2.01-1.31-3.87-4.21-3.87-7.8s1.85-6.49,3.87-7.8l.16.23c-1.69,1.55-2.92,4.5-2.92,7.57s1.22,6.03,2.92,7.57l-.16.23Z"/><path class="cls-1" d="m116.24,115.8c-.74.37-.87.44-1.53.69l-.06-.05c.06-.13.39-1.08.45-1.34h-6.56c.08,1.31-.52,1.66-.95,1.66-.15,0-.24-.03-.31-.06-.37.34-.6.55-1.27,1.03-.02.64.05,3.46.05,4.04,0,1.24,0,1.93-1.72,2.17-.13-.82-.85-1.45-1.55-1.8v-.1c.32.02,1.47.06,1.61.06.42,0,.48-.26.48-.58,0-.45-.03-2.5-.05-3.06-.5.31-1.43.87-1.5.92-.06.16-.13.32-.24.32-.05,0-.15-.1-.16-.15l-.82-1.8c.16.05.37.11.66.11.55,0,1.84-.4,2.06-.48-.02-.56-.02-3.5-.03-4.16h-.32c-.98,0-1.34.03-1.74.11l-.26-.6c1.03.1,2.22.1,2.32.1-.11-2.64-.18-2.82-.45-3.56l1.87.55c.19.05.24.16.24.27,0,.24-.23.43-.47.61-.02.34-.02,1.82-.02,2.13h.16l.34-.61c.05-.08.13-.23.26-.23.08,0,.18.08.29.18l.73.63c.1.08.16.14.16.24,0,.16-.13.18-.24.18h-1.69c0,1.26,0,2.82.02,3.79.69-.24.76-.26,1.14-.42-.1-.08-.23-.19-.23-.52,0-.31.02-.32.48-.93.37-.47.55-.76.64-1.35h.06c.15.21.27.42.39.92h4.61c1-2.05,1.14-2.72,1.21-3.54l1.4.76c.18.1.32.19.32.4,0,.15-.08.18-.42.27-.48.48-.66.64-2.22,2.11h1.61l.53-.48c.18-.16.23-.21.31-.21.03,0,.06,0,.21.15l.97.9c.08.06.15.18.15.32,0,.27-.08.27-.92.4Zm-.68,7.88c-2.06-.69-3.16-1.3-4.04-2.01-1.95,1.85-4.09,2.09-4.71,2.16v-.13c.64-.26,2.19-.93,3.88-2.82-.77-.94-1.22-2.08-1.48-3.27-.61.02-.89.06-1.13.11l-.26-.6c.98.08,2.11.1,2.29.1h2.59l.69-.63c.16-.14.23-.14.27-.14.11,0,.16.05.24.11l.92.76c.11.1.18.19.18.31,0,.23-.16.34-.97.6-.76,1.32-1.32,2.06-1.8,2.64.45.27,1.87,1.08,4.08,1.08.32,0,.55-.02.74-.03v.06c-.23.19-1,.87-1.5,1.71Zm-.24-13.08c-.08,0-.37-.03-.47-.05-1.79.69-5.01,1.27-7.25,1.21v-.08c.85-.13,3.14-.74,5.64-1.69.87-.34,1.02-.5,1.21-.84l1.1.98c.13.13.15.18.15.23,0,.21-.21.24-.37.24Zm-5.32,4c-.45,0-.64-.37-.77-.98-.13-.55-.29-1.1-.58-1.58l.05-.06c.9.34,1.95.93,1.95,1.85,0,.36-.15.77-.64.77Zm-.18,3.01h-.26c.19.72.66,1.68,1.69,2.58.87-1.16,1.19-1.87,1.53-2.58h-2.96Zm2.5-3.35c-.52,0-.61-.34-.84-1.19-.15-.6-.32-1.05-.47-1.42l.03-.05c.21.08,1.95.84,1.95,1.9,0,.48-.32.76-.68.76Z"/><path class="cls-1" d="m132.98,112.95h-5.11l.87.53c.1.05.21.16.21.26,0,.23-.42.21-.56.21-.47.5-.92.82-1.56,1.27h2.61l.69-.79c.11-.13.18-.19.26-.19.11,0,.19.06.29.16l.85.79c.1.1.16.15.16.26,0,.15-.13.16-.24.16h-5.06c0,.14,0,1.05.02,1.26h1.98l.61-.64c.13-.13.21-.23.27-.23.08,0,.24.13.34.19l.93.63c.1.06.18.16.18.26,0,.14-.13.18-.24.18h-4.08v1.42h3.77l.89-.92c.18-.18.21-.21.27-.21.1,0,.26.14.29.18l1,.92c.08.08.16.16.16.26,0,.14-.15.16-.24.16h-5.83c1.06,1.16,3.22,2.64,6.24,2.93v.06c-.44.26-1.18.68-1.53,1.53-2.96-1.03-4.46-3.59-4.98-4.53h-.03c.05,3.16.08,3.51.11,4.04,0,.06.02.18.02.27,0,.56-.68.68-.92.68-.56,0-.56-.31-.56-.55s.1-3.51.11-4.09c-1.34,1.9-3.95,3.67-6.38,4.09l-.02-.1c2.42-1.24,3.66-2.55,5.04-4.35h-2.82c-.98,0-1.34.05-1.74.11l-.26-.6c.97.1,2.11.1,2.29.1h3.88v-1.42h-2.87c-.98,0-1.34.03-1.74.11l-.27-.6c.98.08,2.13.1,2.3.1h2.58v-1.26h-3.42c-.98,0-1.34.05-1.74.11l-.27-.6c.98.1,2.13.1,2.3.1h1.63c-.16-.08-.26-.18-.44-.68-.27-.74-.4-1.11-.79-1.59h-1.8c-.98,0-1.34.03-1.74.11l-.26-.6c.97.08,2.11.1,2.29.1h3.06c0-1.74-.1-2.56-.26-3.34l1.8.55c.1.03.23.08.23.23,0,.21-.35.34-.53.39-.06.84-.06,1.68-.05,2.18h1.02c0-2.32-.15-2.79-.32-3.32l1.82.48c.16.05.29.08.29.24,0,.21-.31.35-.55.45,0,.21-.06,2.06-.06,2.14h.58s.85-1.55.87-3.05l1.56.79c.13.06.24.13.24.24,0,.21-.34.27-.48.31-.68.71-1.69,1.64-1.76,1.71h2.26l.82-.81c.18-.18.21-.22.26-.22.1,0,.23.1.34.19l.97.77c.1.08.19.19.19.27,0,.16-.15.18-.24.18Zm-10.46-.58c-.45,0-.61-.37-.95-1.16-.19-.47-.52-.89-.92-1.22l.06-.11c.95.19,2.47.66,2.47,1.77,0,.27-.16.73-.66.73Zm.37.58c1.34.48,1.8.98,1.8,1.63,0,.23-.08.48-.42.64h2.14c.66-1.14.76-1.9.81-2.27h-4.33Z"/><path class="cls-1" d="m140.35,123.68c-2.43,0-3.48-1.21-3.48-3.11,0-.48.02-.58.23-1.66-1.5-.58-2.05-1.1-2.05-1.76,0-.55.26-.89,1.35-1.93.19-.18.61-.56.61-.69,0-.14-.08-.21-.21-.26-1.08-.47-1.92-.85-1.97-2.14,1.19,1.06,1.82,1.19,3.24,1.48.1-.6.29-1.8.29-2.34,0-.98-.56-1.19-1.22-1.43.16-.18.34-.35.89-.35.76,0,2.01.63,2.01,1.3,0,.27-.23.79-.29.94-.29.64-.47,1.05-.77,2.16.37.19.74.53.74.84,0,.53-.58.52-1.08.5-.08.35-.37,1.6-.58,2.79.55.02,1.45.06,1.63.13.27.1.79.63.79.9,0,.4-.73.4-1.02.4-.73,0-1.35-.19-1.6-.27-.03.24-.08.56-.08,1.06,0,.61,0,2.5,2.43,2.5,1.21,0,2.69-.63,2.69-2.38,0-1.63-1.42-3.88-2.76-4.71l.05-.08c.45.18,4.19,1.63,4.19,4.75s-3.06,3.37-4.04,3.37Zm-4.64-6.86c0,.64,1.02.95,1.56,1.1l.5-2.69c-1.39.16-2.06,1.1-2.06,1.6Z"/><path class="cls-1" d="m146.56,116.89c-.64,0-.69-.53-.69-.69,0-.24.06-.34.63-1.22.69-1.06.61-1.85.58-2.17h.16c.23.5.55,1.22.55,2.38,0,.5,0,1.71-1.22,1.71Zm4.96-1.42c-.66,0-.84-.5-1.03-1.05-.26-.76-.48-1.05-.85-1.39-.05,2.74-.06,4.43-.06,5.01,0,.82.05,4.42.05,5.16,0,.27,0,.82-.92.82-.4,0-.48-.21-.48-.64,0-.23.06-1.27.08-1.48.11-3.06.15-8.22.15-8.61,0-2.58-.1-3.29-.42-4.17l1.89.55c.15.05.39.11.39.27,0,.21-.23.36-.56.52-.03.39-.08,2.11-.1,2.47l.03-.05c1.68.37,2.53,1.13,2.53,1.88,0,.44-.21.71-.68.71Zm8.09,8.23c-.58-.36-2.08-1.26-3.13-2.68-1.1-1.47-1.19-2.74-1.26-3.45-.03.69-.13,2.11-1.06,3.43-1.34,1.9-3.51,2.48-4.37,2.71l-.05-.08c2.43-1.68,3.93-3.4,4.11-6.33h-1.84c-1.13,0-1.43.05-1.74.11l-.27-.6c.77.06,1.53.1,2.3.1h1.56c.06-.87.08-3.54.08-4.51h-1c-1.13,0-1.43.05-1.76.1l-.26-.58c.76.06,1.53.1,2.3.1h.71c-.03-1.55-.05-1.95-.42-2.92l1.85.44c.31.06.48.16.48.35,0,.23-.34.47-.5.56,0,.18,0,1.05-.02,1.56h1.87l.58-.56c.08-.08.16-.13.26-.13.11,0,.23.08.31.16l.82.79s.11.15.11.21c0,.14-.19.31-.55.61-.03.32-.03.66-.13,3.82h.21l.63-.71c.1-.1.16-.21.27-.21.1,0,.19.1.29.16l.9.72c.06.05.15.14.15.24,0,.16-.15.18-.24.18h-5.38c.42,1.37,2.37,4.14,6.12,4.72l.03.18c-.68.18-1.48.42-2,1.5Zm-4.25-11.3c-.02.37-.08,4.43-.08,4.51h1.97c.02-.73.11-3.87.13-4.51h-2.01Z"/><path class="cls-1" d="m164.62,116.51c-1,0-1.35.05-1.76.11l-.26-.6c.69.06,1.26.1,2.09.1l.6-.6c.06-.06.1-.11.18-.11s.15.06.23.11l.82.6c.08.06.16.18.16.29,0,.16-.21.29-.5.48v3.29c0,.35.19,2.05,4.91,2.05,1.72,0,4.75-.11,6.28-.73l.06.1c-.89.85-1.05,1.21-1.16,1.93-1.93,0-4.59,0-5.99-.11-2.84-.24-4.11-2-4.45-2.5-.27.34-1.58,1.72-1.84,2.01.02.27.03.55-.26.55-.05,0-.1-.03-.13-.06l-1.24-1.56c1.06-.02,2-.39,2.51-.6v-4.75h-.27Zm-1-7.01c1.18.21,2.79.98,2.79,2.27,0,.55-.52.69-.79.69-.53,0-.63-.26-.85-.95-.27-.82-.55-1.45-1.18-1.92l.03-.1Zm8.65,7.88l.29-.37c.06-.1.15-.16.26-.16.08,0,.19.06.24.1l.69.53c.06.05.11.14.11.23,0,.11-.15.29-.35.5,0,.05-.03.18-.03.24,0,.18.05.72.05,1.02.02.48,0,.5-.23.68.24.02.69.05.85.05.35,0,.45-.03.45-.48,0-1.42-.02-4.04-.03-5.51h-6.07v6.67c0,.35-.4.64-.76.64-.53,0-.53-.32-.53-.53,0-.84.11-4.5.11-5.32,0-2.11-.05-2.27-.16-2.68l1.64.82h3.25c.31-.74.52-1.47.52-2.26h-3.75c-1.11,0-1.43.06-1.74.11l-.26-.6c.73.06,1.55.1,2.29.1h1.87c0-.56.02-1.11-.37-2.08l2.01.48c.08.02.16.1.16.21s-.03.15-.44.47c-.03.47-.03.84-.03.92h2.22l.63-.68c.1-.1.18-.21.26-.21.1,0,.19.1.31.18l.89.69c.06.05.16.14.16.22,0,.18-.16.18-.24.18h-3.56l1.11.52c.08.03.16.14.16.23,0,.21-.15.23-.44.26-.27.31-.66.74-1.32,1.26h1.82l.42-.53c.08-.1.18-.18.27-.18s.19.1.31.16l.82.52c.06.05.15.1.15.23,0,.16-.06.19-.55.55-.02.31-.03.69-.03,1.27s.1,3.38.1,4.03c0,1.14-.18,1.61-1.71,2.03-.13-.95-.82-1.53-1-1.63-.1.02-.29.06-.39.06-.35,0-.35-.23-.35-.55h-1.9c-.02.21-.02.32-.11.43-.13.13-.44.24-.66.24-.4,0-.4-.32-.4-.48,0-.26.05-1.55.05-1.84,0-.1-.05-1.08-.08-1.34l1.22.6h.29c0-.73.02-.81,0-1.39-1.08,0-1.42.06-1.71.11l-.27-.6c.66.06,1.02.08,1.98.1-.03-.55-.08-.71-.26-1.27l1.58.45c.06.02.16.06.16.18,0,.19-.16.29-.4.44v.21h.82l.4-.47c.06-.08.15-.19.26-.19.1,0,.18.08.29.18l.56.47c.06.06.15.13.15.22,0,.18-.16.18-.24.18h-2.24v1.39h.44Zm-3.09-5.82c1.05.32,1.77.74,1.77,1.52,0,.31-.21.63-.6.63-.52,0-.61-.45-.66-.64-.05-.24-.23-1-.6-1.31l.08-.19Zm1.27,6.2v1.61h1.9v-1.61h-1.9Z"/><path class="cls-1" d="m181.76,118.97c-.23,1.18-.32,1.74-.32,2.11,0,.18.1.93.1,1.1,0,.5-.06.82-.52.82-.95,0-1.85-1.95-1.85-4.77,0-1.03.15-2.35.64-5.01.08-.47.11-.9.11-1.08,0-.52-.13-.92-.63-1.55.11-.06.23-.13.42-.13.58,0,1.79.98,1.79,1.58,0,.29-.16.66-.23.8-.68,1.53-1.24,2.8-1.24,4.71,0,1.03.27,2.3.56,2.3.11,0,.19-.19.24-.32.15-.45.95-2.56,1.42-3.43h.11c-.08.45-.53,2.46-.61,2.87Zm7.72,2.64c-3.88,0-5.45-.69-5.45-2.72,0-.53.13-.69.23-.84.27,1.14.53,2.18,3.51,2.18.34,0,1.84-.11,2.14-.11,1.14,0,1.35.55,1.35.81,0,.69-.89.69-1.79.69Zm-.02-8.44c-1.71.29-2.88.92-3.17,1.16l-.11-.1c.21-.24,1.39-1.32,1.39-1.45,0-.22-.52-.22-.64-.22-.98,0-2.4.58-2.82.74.55-1.29,2.8-1.77,4.35-1.77.71,0,2.03.22,2.03.97,0,.34-.21.55-1.02.68Z"/><path class="cls-1" d="m193.15,124.4l-.16-.23c1.69-1.55,2.92-4.5,2.92-7.57s-1.22-6.03-2.92-7.57l.16-.23c2.01,1.31,3.87,4.21,3.87,7.8s-1.85,6.49-3.87,7.8Z"/><path class="cls-1" d="m415.38,90.83c-.11,0-.24,0-.37-.02-1.14-.15-2.28-.24-3.44-.24-.75,0-1.22.02-1.57.04,0,.43,0,1.48.04,3.14.02.73.15,3.97.15,4.64,0,2.79-.88,3.44-1.38,3.44-.41,0-.58-.41-.95-1.2-.21-.45-.75-1.27-2.3-2.17l.06-.19c1.03.3,2.43.43,2.49.43.28,0,.34-.11.39-.24.06-.24.17-4.4.17-5.48v-.49c-2.06,3.22-5.13,5.67-8.77,6.88l-.09-.15c2.71-1.87,6.72-5.52,8.25-8.42-2.79.32-4.53.88-4.62.92-.21.09-.62.19-.71.19-.41,0-2.11-.71-2.11-2.49,0-.32.04-.52.09-.75.95,1.03,1.38,1.46,2.94,1.46s4.15-.3,4.98-.41c-.04-2.32-.11-3.16-.32-3.67s-.58-.64-1.68-1.05c.56-.56,1.4-.56,1.46-.56.77,0,2.54.75,2.54,1.35,0,.15-.24.58-.32.75-.28.6-.3,1.53-.34,3.03,2-.24,2.21-.26,2.6-.34.17-.04.9-.32,1.07-.32.19,0,2.21.41,2.21,1.31,0,.3-.13.62-.52.62Z"/><path class="cls-1" d="m424.01,89.82c-.37,0-.64-.3-1.38-1.03-1.76-1.78-2.81-2.26-3.59-2.62.39-.04.64-.06,1.05-.06.73,0,4.75.3,4.75,2.69,0,.67-.49,1.03-.84,1.03Zm1.93,7.15c-.79.62-2.08,1.55-2.81,2.21-.13.11-.62.69-.75.75-.11.06-.21.09-.3.09-.77,0-2.3-1.96-2.3-3.01,0-.37.09-.73.15-1.01.69,1.16,1.33,1.46,1.7,1.46.6,0,4.19-2.62,4.96-3.22,3.5-2.73,5.56-5.05,6.72-6.38l.09.04c-.34,1.38-2.49,5.2-7.46,9.07Z"/><path class="cls-1" d="m448.16,91.88c-.11.09-.17.19-.62,1.18-.97,2.06-1.93,4.23-4.6,6.36-1.07.88-3.5,2.56-5.84,2.62v-.15c2.17-.86,5.22-3.91,5.8-4.58.92-1.05,2.26-2.94,3.2-6.02-1.29.13-6.57.67-7.8,1.18-.13.06-.69.37-.82.37-.45,0-2.17-1.22-2.17-2.71,0-.24.04-.45.17-.77.17.24.39.56.95.99.49.37.64.41,1.25.41,1.42,0,8.25-.54,8.51-.67.17-.11.75-.84.92-.84.21,0,1.91,1.2,1.91,1.76,0,.28-.21.43-.86.86Zm-2.86-4.21c-1.01.04-4.19.24-5.09.41-.97.17-1.07.21-1.38.21-1.01,0-1.98-1.5-1.87-2.58,1.01,1.03,2.19,1.03,3.05,1.03,2.43,0,4.1-.45,4.36-.54.19-.04.95-.43,1.12-.43s1.1.32,1.35.45c.3.13.58.34.58.77,0,.56-.34.6-2.13.67Z"/><path class="cls-1" d="m463.05,87.02c-.6.43-.86.71-1.4,1.29-.34.37-1.83,2.04-2.15,2.38.37.21,1.12.73,1.12,1.03,0,.15-.21.75-.24.88-.02.17-.06,1.31-.06,2.69,0,.84.15,4.53.15,5.26,0,.54-.19,1.48-.84,1.48s-1.18-1.12-1.18-1.7c0-.21.19-1.18.21-1.38.15-1.22.17-2.43.17-3.65,0-.43,0-2.77-.13-3.2q-.04-.13-.28-.3c-3.27,3.18-5.8,4.23-7.43,4.79l-.09-.13c4.38-2.69,10.12-9.93,10.12-10.81,0-.54-.58-1.03-1.07-1.44.28-.04.56-.09.95-.09,1.33,0,2.81,1.68,2.81,2.17,0,.26-.09.32-.67.71Z"/><path class="cls-1" d="m473.38,89.82c-.37,0-.64-.3-1.38-1.03-1.76-1.78-2.81-2.26-3.59-2.62.39-.04.64-.06,1.05-.06.73,0,4.75.3,4.75,2.69,0,.67-.49,1.03-.84,1.03Zm1.93,7.15c-.79.62-2.08,1.55-2.81,2.21-.13.11-.62.69-.75.75-.11.06-.21.09-.3.09-.77,0-2.3-1.96-2.3-3.01,0-.37.09-.73.15-1.01.69,1.16,1.33,1.46,1.7,1.46.6,0,4.19-2.62,4.96-3.22,3.5-2.73,5.56-5.05,6.72-6.38l.09.04c-.34,1.38-2.49,5.2-7.46,9.07Z"/><path class="cls-1" d="m499.61,90.74c-.17,0-.9-.06-1.05-.06-.99,0-1.31.02-3.63.19.75.56.84.62.84.75,0,.15-.56.67-.6.79-.11.21-.9,2.79-1.1,3.29-1.46,3.7-5.35,5.82-7,6.29l-.06-.13c5.84-3.82,6.36-9.93,6.36-10.21,0-.32-.13-.43-.39-.64-.92.09-1.03.09-1.53.17-.43.09-.69.13-.88.13-.41,0-.49-.06-1.33-.67-1.42,1.83-2.32,3.03-4.86,4.21l-.09-.13c2.62-2.41,5.37-7.39,5.37-8.53,0-.47-.28-.64-1.03-1.14.24-.13.52-.26.92-.26,1.18,0,2.73,1.35,2.73,1.87,0,.13-.15.28-.45.6-.24.26-1.31,1.65-1.93,2.49.45.06.64.06.92.06,1.44,0,5.59-.47,6.34-.62.24-.04,1.35-.34,1.5-.34.06,0,2.13.34,2.13,1.18,0,.49-.26.69-1.18.69Zm.92-2.15c-.32,0-.41-.09-1.1-.86-.6-.69-1.29-1.31-2.08-1.8,1.29.15,3.74.39,3.74,1.98,0,.3-.13.69-.56.69Zm1.72-1.5c-.28,0-.37-.09-1.01-.84-.09-.11-1.22-1.33-2.32-1.76,1.05-.09,3.93.19,3.93,1.87,0,.47-.32.73-.6.73Z"/><path class="cls-1" d="m519.95,94.07c-.34,0-.88-.02-1.31-.06-.41-.02-5.65-.06-6.02-.06-1.25,0-4.53.06-5.52.34-.39.11-.56.15-.73.15-.79,0-2-1.7-2-2.56,0-.28.09-.64.34-1.2.75,1.5,1.27,1.76,3.82,1.76,1.25,0,8.7-.02,9.43-.28.32-.11.58-.21.86-.21.04,0,2.56.19,2.56,1.33,0,.37-.41.79-1.44.79Z"/><path class="cls-1" d="m538.21,99.85c-.67,0-.88-.6-1.12-1.27-.06-.19-.82-2.23-.86-2.34-1.87.77-4.21,1.35-8.66,2.49-.58.15-.73.19-.99.52-.21.24-.32.32-.52.32-.58,0-1.83-1.74-1.83-2.92,0-.11,0-.21.04-.54.73.71.95.88,1.87.88.3,0,.56-.02.73-.04.79-1.61,3.87-8.42,3.87-9.8,0-.82-.47-1.14-1.68-1.65.56-.17,1.05-.34,1.5-.34,1.01,0,2.66,1.22,2.66,2.19,0,.34-.09.43-.6.9-.3.3-1.01,2.04-1.18,2.36-.92,1.8-2.45,4.38-3.82,6.27,4.04-.47,4.49-.52,8.4-1.1-.92-2.02-2.28-3.5-2.88-4.15.69.28,1.65.73,3.29,2.34,2.21,2.15,2.6,3.44,2.6,4.53,0,.79-.34,1.33-.84,1.33Z"/><path class="cls-1" d="m424.66,124.4c-2.01-1.31-3.87-4.21-3.87-7.8s1.85-6.49,3.87-7.8l.16.23c-1.69,1.55-2.92,4.5-2.92,7.57s1.22,6.03,2.92,7.57l-.16.23Z"/><path class="cls-1" d="m437.39,122.21c-.44,0-.68-.42-.84-.68-1.24-2.06-1.98-3.09-3.27-4.11-2.47,2.93-4.91,4.5-7.19,4.9v-.13c3.85-1.79,7.83-7.19,8.36-9.47-.05.02-3.27.6-4.12,1.02-.47.24-.53.26-.66.26-.24,0-1.26-.74-1.26-1.77,0-.42.06-.53.15-.71.66.85.79,1.03,1.32,1.03.39,0,3.92-.31,4.58-.73.11-.08.63-.52.76-.52.21,0,1.47,1.19,1.47,1.45,0,.18-.11.22-.63.42-.15.06-.21.18-.45.61-1.06,1.93-1.24,2.26-2.08,3.33,1.97.82,4.5,2.75,4.5,4.21,0,.39-.15.89-.63.89Z"/><path class="cls-1" d="m447.25,118.54c-.26,0-.47-.18-.69-.43-1.68-1.85-2.13-2.32-3.29-2.74-.03,1,.03,4.53.03,4.62,0,.32.11,1.79.11,2.08,0,.69-.34,1.19-.77,1.19-.47,0-.87-.69-.87-1.58,0-.18,0-.24.11-.98.19-1.32.21-3.32.21-4.29,0-.82-.03-4.56-.19-5.16-.05-.21-.1-.35-1.29-.82.26-.15.66-.37,1.06-.37.31,0,2.05.34,2.05.84,0,.13-.21.68-.24.79-.19.79-.21,2.42-.21,3.29,1.84.23,4.64,1.26,4.64,2.77,0,.58-.37.79-.66.79Z"/><path class="cls-1" d="m453.48,121.44c-.58.31-.69.42-.95.68-.15.14-.21.14-.26.14-.4,0-1.27-1.61-1.27-1.71s.18-.44.21-.5c.13-.35.16-.87.18-1.06.03-.52.03-2.5.03-3.11,0-.48-.02-3.62-.13-3.93-.06-.14-.18-.24-.48-.37-.1-.03-.71-.26-.87-.31.56-.31.84-.45,1.19-.45.53,0,2,.58,2,.97,0,.14-.24.79-.27.92-.18.81-.31,5.09-.31,6.22,0,.55.02.9.03,1.26,3.24-1.21,6.93-4.38,8.31-5.74l.11.11c-1.56,2.48-2.96,4.41-7.52,6.88Z"/><path class="cls-1" d="m472.9,122.21c-.44,0-.68-.42-.84-.68-1.24-2.06-1.98-3.09-3.27-4.11-2.47,2.93-4.91,4.5-7.19,4.9v-.13c3.85-1.79,7.83-7.19,8.36-9.47-.05.02-3.27.6-4.12,1.02-.47.24-.53.26-.66.26-.24,0-1.26-.74-1.26-1.77,0-.42.06-.53.15-.71.66.85.79,1.03,1.32,1.03.39,0,3.92-.31,4.58-.73.11-.08.63-.52.76-.52.21,0,1.47,1.19,1.47,1.45,0,.18-.11.22-.63.42-.15.06-.21.18-.45.61-1.06,1.93-1.24,2.26-2.08,3.33,1.97.82,4.5,2.75,4.5,4.21,0,.39-.15.89-.63.89Z"/><path class="cls-1" d="m486.17,113.83c-.18.08-.32.16-.52.73-2,6.03-5.64,7.57-7.99,8.23l-.05-.15c3.24-1.82,6.17-5.49,7.07-9.54-.68-.03-5.82.6-6.83,1.13-.26.14-.31.18-.4.18-.19,0-1.42-.66-1.42-2.05,0-.26.08-.45.18-.69.15.14.69.82.84.93.16.11.39.21.82.21,1.1,0,6.22-.48,6.62-.66.13-.06.63-.45.76-.45.18,0,1.06.87,1.21,1.03.16.16.26.31.26.53,0,.31-.11.37-.55.56Z"/><path class="cls-1" d="m491.25,112.43c-.15.32-.26.64-.26,1.82,0,.4.06,2.18.06,2.55,0,.24,0,1.32-.6,1.32-.31,0-.89-.5-.89-1.37,0-.15.08-.71.11-1.02.05-.52.06-1.61.06-2.43,0-1.18,0-1.5-1.35-1.82.26-.16.64-.39,1.02-.39.45,0,1.97.52,1.97.97,0,.08-.02.14-.13.37Zm5.46-.06c-.08.63-.03,1.64-.05,2.27-.06,2.98-.27,5.01-1.97,6.82-.56.6-1.68,1.58-3.08,1.74l-.05-.11c2.13-1.18,3.16-3.51,3.43-4.85.35-1.79.35-4.33.35-4.83,0-2.24-.08-2.29-1.56-2.59.24-.19.58-.47,1.22-.47.81,0,1.98.48,1.98.87,0,.18-.27.98-.29,1.16Z"/><path class="cls-1" d="m511.39,117.35c-.26,0-.66-.02-.98-.05-.31-.02-4.24-.05-4.51-.05-.93,0-3.4.05-4.14.26-.29.08-.42.11-.55.11-.6,0-1.5-1.27-1.5-1.92,0-.21.06-.48.26-.9.56,1.13.95,1.32,2.87,1.32.93,0,6.53-.02,7.07-.21.24-.08.44-.16.64-.16.03,0,1.92.15,1.92,1,0,.27-.31.6-1.08.6Z"/><path class="cls-1" d="m514.88,124.4l-.16-.23c1.69-1.55,2.92-4.5,2.92-7.57s-1.22-6.03-2.92-7.57l.16-.23c2.01,1.31,3.87,4.21,3.87,7.8s-1.85,6.49-3.87,7.8Z"/></svg>