<?xml version="1.0" encoding="UTF-8"?><svg id="_レイヤー_1" xmlns="http://www.w3.org/2000/svg" viewBox="0 0 304.17 176.81"><defs><style>.cls-1{fill:#dcf1fc;}.cls-2{fill:#d0ecfa;}.cls-3{fill:#b4e1f8;}.cls-4{fill:#bde5f9;}.cls-5,.cls-6,.cls-7{fill:#fff;}.cls-8{fill:#d9f0fb;}.cls-9{fill:#bfe5f9;}.cls-10{fill:#d3edfb;}.cls-11{fill:#f4fbfe;}.cls-12{fill:#ebf7fd;}.cls-13{fill:#e7f5fd;}.cls-14{fill:#0068b6;}.cls-15{fill:#00acad;}.cls-16{fill:#a2daf6;}.cls-17{fill:#a6dcf6;}.cls-6,.cls-18,.cls-19,.cls-7,.cls-20,.cls-21{stroke:#fff;stroke-linecap:round;stroke-linejoin:round;}.cls-6,.cls-21{stroke-width:1.34px;}.cls-22{fill:#fbfdff;}.cls-23{fill:#f2fafe;}.cls-24{fill:#e9f6fd;}.cls-25{fill:#9bd7f5;}.cls-26{fill:#f6fbfe;}.cls-27{fill:#92d4f4;}.cls-28{fill:#9ed8f6;}.cls-29{fill:#37a0da;}.cls-30{fill:#00b3e7;}.cls-31{fill:#a0d9f6;}.cls-32{fill:#c8e9fa;}.cls-33{fill:#c5e8f9;}.cls-34{fill:#fbd375;}.cls-35{fill:#ea6da4;}.cls-36{fill:#fdfeff;}.cls-37{fill:#a4dbf6;}.cls-38{fill:#eff9fd;}.cls-39{fill:#8d80bb;}.cls-40{fill:#a9ddf7;}.cls-18{fill:#99d2ef;stroke-width:2.51px;}.cls-41{fill:#7dccf3;}.cls-19{fill:#f5bcbf;}.cls-19,.cls-20{stroke-width:2.02px;}.cls-42{fill:#c3e7f9;}.cls-43{fill:#abddf7;}.cls-44{fill:#b8e3f8;}.cls-45{fill:#97d6f5;}.cls-46{fill:#c1e6f9;}.cls-47{fill:#e2f4fc;}.cls-48{fill:#e4f4fc;}.cls-49{fill:#d7effb;}.cls-50{fill:#95d5f5;}.cls-7{stroke-width:2.39px;}.cls-51{fill:#99d6f5;}.cls-52{fill:#b1e0f7;}.cls-53{fill:#ceecfa;}.cls-54{fill:#f8fcfe;}.cls-55{fill:#ea6d8d;}.cls-56{fill:#e0f3fc;}.cls-57{fill:#addef7;}.cls-58{fill:#90d3f4;}.cls-59{fill:#b6e2f8;}.cls-60{fill:#edf8fd;}.cls-61{fill:#ef8200;}.cls-20{fill:#59bdec;}.cls-62{fill:#afdff7;}.cls-63{fill:#bae4f8;}.cls-64{fill:#ccebfa;}.cls-65{fill:#d5eefb;}.cls-66{fill:#def2fc;}.cls-67{fill:#23b6bc;}.cls-21,.cls-68{fill:#f8c058;}.cls-69{fill:#8ed2f4;}.cls-70{fill:#caeafa;}</style></defs><path class="cls-5" d="m290.07,26.68c11.81,26.21-41.29,75.71-118.61,110.57-77.32,34.85-149.58,41.86-161.39,15.65C-1.75,126.7,51.36,77.19,128.67,42.34,205.99,7.48,278.25.47,290.07,26.68Z"/><path class="cls-36" d="m289.68,26.86c11.79,26.16-41.22,75.58-118.4,110.37-77.18,34.79-149.31,41.79-161.11,15.62C-1.62,126.7,51.39,77.28,128.57,42.49,205.75,7.69,277.88.69,289.68,26.86Z"/><path class="cls-22" d="m289.29,27.04c11.77,26.11-41.14,75.45-118.19,110.18-77.05,34.73-149.05,41.71-160.82,15.6C-1.5,126.7,51.42,77.37,128.47,42.63,205.51,7.9,277.51.92,289.29,27.04Z"/><path class="cls-54" d="m288.9,27.21c11.75,26.07-41.07,75.31-117.98,109.98-76.91,34.67-148.78,41.64-160.53,15.57C-1.37,126.69,51.46,77.45,128.36,42.78,205.26,8.11,277.14,1.14,288.9,27.21Z"/><path class="cls-26" d="m288.5,27.39c11.73,26.02-41,75.18-117.76,109.79-76.77,34.61-148.52,41.57-160.25,15.54C-1.24,126.69,51.49,77.54,128.26,42.93,205.02,8.32,276.77,1.36,288.5,27.39Z"/><path class="cls-11" d="m288.11,27.57c11.71,25.97-40.92,75.04-117.55,109.59-76.63,34.54-148.25,41.49-159.96,15.51C-1.11,126.69,51.52,77.63,128.15,43.08,204.78,8.53,276.4,1.59,288.11,27.57Z"/><path class="cls-23" d="m287.72,27.74c11.69,25.93-40.85,74.91-117.34,109.39-76.5,34.48-147.99,41.42-159.67,15.49C-.99,126.69,51.55,77.71,128.05,43.23,204.54,8.74,276.03,1.81,287.72,27.74Z"/><path class="cls-38" d="m287.33,27.92c11.66,25.88-40.78,74.77-117.13,109.2-76.36,34.42-147.72,41.34-159.39,15.46C-.86,126.69,51.59,77.8,127.95,43.37,204.3,8.95,275.66,2.03,287.33,27.92Z"/><path class="cls-60" d="m286.94,28.09c11.64,25.83-40.7,74.64-116.92,109-76.22,34.36-147.45,41.27-159.1,15.43C-.73,126.69,51.62,77.89,127.84,43.52,204.06,9.16,275.29,2.25,286.94,28.09Z"/><path class="cls-12" d="m286.55,28.27c11.62,25.79-40.63,74.5-116.71,108.8-76.09,34.3-147.19,41.19-158.81,15.4C-.6,126.69,51.65,77.97,127.74,43.67,203.82,9.37,274.92,2.48,286.55,28.27Z"/><path class="cls-24" d="m286.16,28.45c11.6,25.74-40.56,74.37-116.5,108.61-75.95,34.24-146.92,41.12-158.53,15.38C-.48,126.68,51.69,78.06,127.63,43.82,203.57,9.58,274.55,2.7,286.16,28.45Z"/><path class="cls-13" d="m285.77,28.62c11.58,25.7-40.48,74.23-116.29,108.41-75.81,34.17-146.66,41.05-158.24,15.35C-.35,126.68,51.72,78.14,127.53,43.97,203.33,9.79,274.18,2.92,285.77,28.62Z"/><path class="cls-48" d="m285.38,28.8c11.56,25.65-40.41,74.1-116.08,108.21-75.67,34.11-146.39,40.97-157.95,15.32C-.22,126.68,51.75,78.23,127.42,44.12,203.09,10,273.81,3.14,285.38,28.8Z"/><path class="cls-47" d="m284.99,28.97c11.54,25.6-40.34,73.97-115.87,108.02-75.54,34.05-146.13,40.9-157.67,15.29C-.1,126.68,51.79,78.32,127.32,44.26,202.85,10.21,273.44,3.37,284.99,28.97Z"/><path class="cls-56" d="m284.6,29.15c11.52,25.56-40.26,73.83-115.66,107.82-75.4,33.99-145.86,40.82-157.38,15.26C.03,126.68,51.82,78.4,127.22,44.41,202.61,10.42,273.07,3.59,284.6,29.15Z"/><path class="cls-66" d="m284.21,29.33c11.5,25.51-40.19,73.7-115.45,107.62-75.26,33.93-145.6,40.75-157.09,15.24C.16,126.68,51.85,78.49,127.11,44.56,202.37,10.63,272.7,3.81,284.21,29.33Z"/><path class="cls-1" d="m283.82,29.5c11.48,25.46-40.12,73.56-115.24,107.43-75.12,33.86-145.33,40.68-156.81,15.21C.29,126.68,51.89,78.58,127.01,44.71,202.13,10.85,272.33,4.03,283.82,29.5Z"/><path class="cls-8" d="m283.43,29.68c11.46,25.42-40.04,73.43-115.03,107.23-74.99,33.8-145.06,40.6-156.52,15.18C.41,126.67,51.92,78.66,126.9,44.86,201.89,11.06,271.96,4.26,283.43,29.68Z"/><path class="cls-49" d="m283.04,29.85c11.44,25.37-39.97,73.29-114.82,107.04-74.85,33.74-144.8,40.53-156.23,15.15C.54,126.67,51.95,78.75,126.8,45,201.64,11.27,271.6,4.48,283.04,29.85Z"/><path class="cls-65" d="m282.64,30.03c11.42,25.32-39.9,73.16-114.61,106.84-74.71,33.68-144.53,40.45-155.95,15.13C.67,126.67,51.99,78.84,126.69,45.15,201.4,11.48,271.23,4.7,282.64,30.03Z"/><path class="cls-10" d="m282.25,30.21c11.39,25.28-39.82,73.02-114.4,106.64-74.58,33.62-144.27,40.38-155.66,15.1C.8,126.67,52.02,78.92,126.59,45.3,201.16,11.69,270.86,4.92,282.25,30.21Z"/><path class="cls-2" d="m281.86,30.38c11.37,25.23-39.75,72.89-114.19,106.45-74.44,33.56-144,40.3-155.37,15.07C.92,126.67,52.05,79.01,126.49,45.45,200.92,11.9,270.49,5.15,281.86,30.38Z"/><path class="cls-53" d="m281.47,30.56c11.35,25.18-39.68,72.76-113.98,106.25-74.3,33.49-143.74,40.23-155.09,15.04C1.05,126.67,52.08,79.09,126.38,45.6,200.68,12.11,270.12,5.37,281.47,30.56Z"/><path class="cls-64" d="m281.08,30.73c11.33,25.14-39.6,72.62-113.77,106.05-74.16,33.43-143.47,40.16-154.8,15.02C1.18,126.67,52.12,79.18,126.28,45.75,200.44,12.32,269.75,5.59,281.08,30.73Z"/><path class="cls-70" d="m280.69,30.91c11.31,25.09-39.53,72.49-113.56,105.86-74.03,33.37-143.21,40.08-154.51,14.99C1.31,126.66,52.15,79.27,126.17,45.89,200.2,12.53,269.38,5.81,280.69,30.91Z"/><path class="cls-32" d="m280.3,31.09c11.29,25.04-39.46,72.35-113.35,105.66-73.89,33.31-142.94,40.01-154.23,14.96C1.43,126.66,52.18,79.35,126.07,46.04,199.95,12.74,269.01,6.04,280.3,31.09Z"/><path class="cls-33" d="m279.91,31.26c11.27,25-39.38,72.22-113.14,105.46-73.75,33.25-142.67,39.93-153.94,14.93C1.56,126.66,52.22,79.44,125.97,46.19,199.71,12.95,268.64,6.26,279.91,31.26Z"/><path class="cls-42" d="m279.52,31.44c11.25,24.95-39.31,72.08-112.93,105.27-73.61,33.19-142.41,39.86-153.65,14.91C1.69,126.66,52.25,79.53,125.86,46.34,199.47,13.16,268.27,6.48,279.52,31.44Z"/><path class="cls-46" d="m279.13,31.61c11.23,24.91-39.24,71.95-112.71,105.07-73.48,33.12-142.14,39.79-153.37,14.88C1.82,126.66,52.28,79.61,125.76,46.49,199.23,13.37,267.9,6.71,279.13,31.61Z"/><path class="cls-9" d="m278.74,31.79c11.21,24.86-39.16,71.81-112.5,104.88-73.34,33.06-141.88,39.71-153.08,14.85C1.94,126.66,52.32,79.7,125.65,46.64,198.99,13.58,267.53,6.93,278.74,31.79Z"/><path class="cls-4" d="m278.35,31.97c11.19,24.81-39.09,71.68-112.29,104.68-73.2,33-141.61,39.64-152.79,14.82C2.07,126.66,52.35,79.79,125.55,46.78,198.75,13.79,267.16,7.15,278.35,31.97Z"/><path class="cls-63" d="m277.96,32.14c11.17,24.77-39.02,71.55-112.08,104.48-73.06,32.94-141.35,39.56-152.51,14.79C2.2,126.65,52.38,79.87,125.44,46.93c73.06-32.93,141.35-39.56,152.51-14.79Z"/><path class="cls-44" d="m277.57,32.32c11.14,24.72-38.94,71.41-111.87,104.29-72.93,32.88-141.08,39.49-152.22,14.77C2.33,126.65,52.42,79.96,125.34,47.08c72.93-32.87,141.08-39.48,152.23-14.76Z"/><path class="cls-59" d="m277.18,32.5c11.12,24.67-38.87,71.28-111.66,104.09-72.79,32.81-140.82,39.41-151.93,14.74C2.45,126.65,52.45,80.05,125.24,47.23c72.79-32.81,140.81-39.41,151.94-14.73Z"/><path class="cls-3" d="m276.78,32.67c11.1,24.63-38.8,71.14-111.45,103.89-72.65,32.75-140.55,39.34-151.65,14.71C2.58,126.65,52.48,80.13,125.13,47.38c72.65-32.75,140.55-39.34,151.65-14.7Z"/><path class="cls-52" d="m276.39,32.85c11.08,24.58-38.72,71.01-111.24,103.7-72.52,32.69-140.28,39.27-151.36,14.68C2.71,126.65,52.52,80.22,125.03,47.52c72.51-32.69,140.28-39.26,151.37-14.68Z"/><path class="cls-62" d="m276,33.02c11.06,24.53-38.65,70.87-111.03,103.5-72.38,32.63-140.02,39.19-151.07,14.66C2.83,126.65,52.55,80.3,124.92,47.67c72.38-32.62,140.02-39.19,151.08-14.65Z"/><path class="cls-57" d="m275.61,33.2c11.04,24.49-38.58,70.74-110.82,103.3-72.24,32.57-139.75,39.12-150.79,14.63C2.96,126.65,52.58,80.39,124.82,47.82c72.24-32.56,139.75-39.11,150.79-14.62Z"/><path class="cls-43" d="m275.22,33.38c11.02,24.44-38.5,70.6-110.61,103.11-72.1,32.51-139.49,39.04-150.5,14.6C3.09,126.64,52.61,80.48,124.71,47.97c72.1-32.5,139.49-39.04,150.51-14.59Z"/><path class="cls-40" d="m274.83,33.55c11,24.39-38.43,70.47-110.4,102.91-71.97,32.44-139.22,38.97-150.21,14.57C3.22,126.64,52.65,80.56,124.61,48.12c71.97-32.44,139.22-38.96,150.22-14.57Z"/><path class="cls-17" d="m274.44,33.73c10.98,24.35-38.36,70.34-110.19,102.71-71.83,32.38-138.96,38.9-149.93,14.55C3.34,126.64,52.68,80.65,124.51,48.27c71.83-32.38,138.96-38.89,149.93-14.54Z"/><path class="cls-37" d="m274.05,33.9c10.96,24.3-38.28,70.2-109.98,102.52-71.69,32.32-138.69,38.82-149.64,14.52C3.47,126.64,52.71,80.74,124.4,48.41c71.69-32.31,138.69-38.81,149.65-14.51Z"/><path class="cls-16" d="m273.66,34.08c10.94,24.25-38.21,70.07-109.77,102.32-71.55,32.26-138.42,38.75-149.35,14.49C3.6,126.64,52.75,80.82,124.3,48.56c71.55-32.25,138.43-38.74,149.36-14.48Z"/><path class="cls-31" d="m273.27,34.26c10.92,24.21-38.14,69.93-109.56,102.13-71.42,32.2-138.16,38.67-149.07,14.46C3.73,126.64,52.78,80.91,124.19,48.71c71.42-32.19,138.16-38.67,149.08-14.45Z"/><path class="cls-28" d="m272.88,34.43c10.89,24.16-38.06,69.8-109.35,101.93-71.28,32.14-137.89,38.6-148.78,14.44C3.85,126.64,52.81,81,124.09,48.86c71.28-32.13,137.89-38.59,148.79-14.43Z"/><path class="cls-25" d="m272.49,34.61c10.87,24.12-37.99,69.66-109.14,101.73-71.14,32.07-137.63,38.52-148.49,14.41C3.98,126.63,52.85,81.08,123.98,49.01c71.14-32.07,137.63-38.52,148.5-14.4Z"/><path class="cls-51" d="m272.1,34.78c10.85,24.07-37.92,69.53-108.93,101.54-71.01,32.01-137.36,38.45-148.21,14.38-10.85-24.07,37.92-69.53,108.92-101.55,71.01-32,137.36-38.44,148.22-14.37Z"/><path class="cls-45" d="m271.71,34.96c10.83,24.02-37.84,69.39-108.72,101.34-70.87,31.95-137.1,38.38-147.92,14.35-10.83-24.02,37.84-69.4,108.71-101.35,70.87-31.94,137.1-38.37,147.93-14.34Z"/><path class="cls-50" d="m271.32,35.14c10.81,23.98-37.77,69.26-108.51,101.14-70.73,31.89-136.83,38.3-147.63,14.32-10.81-23.97,37.77-69.26,108.5-101.15,70.73-31.88,136.83-38.29,147.64-14.31Z"/><path class="cls-27" d="m270.92,35.31c10.79,23.93-37.7,69.13-108.3,100.95-70.59,31.83-136.57,38.23-147.35,14.3-10.79-23.93,37.7-69.13,108.29-100.96,70.59-31.82,136.57-38.22,147.36-14.29Z"/><path class="cls-58" d="m270.53,35.49c10.77,23.88-37.62,68.99-108.09,100.75-70.46,31.77-136.3,38.15-147.06,14.27-10.77-23.88,37.62-68.99,108.08-100.76,70.46-31.76,136.3-38.15,147.07-14.26Z"/><path class="cls-69" d="m270.14,35.66c10.75,23.84-37.55,68.86-107.88,100.55-70.32,31.7-136.03,38.08-146.77,14.24-10.75-23.84,37.55-68.86,107.87-100.56,70.32-31.69,136.04-38.07,146.78-14.23Z"/><path class="cls-58" d="m269.72,35.85c10.71,23.74-37.51,68.63-107.68,100.26-70.17,31.64-135.73,38.03-146.42,14.29-10.7-23.74,37.51-68.63,107.67-100.27,70.17-31.63,135.73-38.03,146.43-14.28Z"/><path class="cls-27" d="m269.3,36.04c10.66,23.65-37.46,68.4-107.49,99.96-70.02,31.57-135.42,37.99-146.07,14.34-10.66-23.64,37.46-68.4,107.48-99.97,70.02-31.56,135.42-37.98,146.08-14.33Z"/><path class="cls-50" d="m268.88,36.23c10.62,23.55-37.42,68.17-107.29,99.67-69.87,31.5-135.11,37.94-145.72,14.39-10.62-23.55,37.42-68.17,107.28-99.68,69.87-31.49,135.11-37.93,145.73-14.38Z"/><path class="cls-45" d="m268.46,36.42c10.58,23.45-37.37,67.94-107.09,99.37-69.72,31.43-134.8,37.9-145.37,14.44-10.58-23.45,37.37-67.95,107.09-99.38,69.72-31.42,134.8-37.89,145.38-14.43Z"/><path class="cls-51" d="m268.04,36.61c10.53,23.36-37.33,67.72-106.9,99.07-69.57,31.36-134.5,37.85-145.02,14.49-10.53-23.36,37.33-67.72,106.89-99.08,69.57-31.35,134.5-37.84,145.03-14.48Z"/><path class="cls-25" d="m267.62,36.8c10.49,23.26-37.28,67.49-106.7,98.78-69.41,31.29-134.19,37.81-144.67,14.54-10.49-23.26,37.29-67.49,106.7-98.79,69.42-31.29,134.19-37.8,144.68-14.53Z"/><path class="cls-28" d="m267.19,36.99c10.45,23.17-37.24,67.26-106.51,98.48-69.26,31.23-133.88,37.76-144.32,14.59-10.45-23.17,37.24-67.26,106.5-98.49,69.26-31.22,133.88-37.75,144.33-14.58Z"/><path class="cls-31" d="m266.77,37.18c10.4,23.07-37.2,67.03-106.31,98.19-69.11,31.16-133.57,37.71-143.97,14.64-10.4-23.07,37.2-67.03,106.31-98.19,69.11-31.15,133.57-37.71,143.97-14.63Z"/><path class="cls-16" d="m266.35,37.37c10.36,22.98-37.15,66.8-106.12,97.89-68.96,31.09-133.26,37.67-143.62,14.69-10.36-22.98,37.15-66.81,106.11-97.9,68.96-31.08,133.26-37.66,143.62-14.68Z"/><path class="cls-37" d="m265.93,37.56c10.32,22.88-37.11,66.58-105.92,97.59-68.81,31.02-132.96,37.62-143.27,14.74-10.32-22.88,37.11-66.58,105.92-97.6,68.81-31.02,132.96-37.62,143.27-14.73Z"/><path class="cls-17" d="m265.51,37.75c10.27,22.79-37.06,66.35-105.73,97.3-68.66,30.95-132.65,37.58-142.91,14.79-10.27-22.78,37.06-66.35,105.72-97.31,68.66-30.95,132.65-37.57,142.92-14.78Z"/><path class="cls-40" d="m265.09,37.94c10.23,22.69-37.02,66.12-105.53,97-68.51,30.89-132.34,37.53-142.56,14.84-10.23-22.69,37.02-66.12,105.53-97.01,68.51-30.88,132.34-37.53,142.57-14.83Z"/><path class="cls-43" d="m264.67,38.13c10.19,22.59-36.97,65.89-105.34,96.71-68.36,30.82-132.03,37.49-142.21,14.89-10.19-22.59,36.98-65.89,105.33-96.71,68.36-30.81,132.03-37.48,142.22-14.88Z"/><path class="cls-57" d="m264.25,38.32c10.15,22.5-36.93,65.66-105.14,96.41-68.21,30.75-131.72,37.44-141.86,14.94-10.14-22.5,36.93-65.66,105.14-96.42,68.21-30.74,131.72-37.43,141.87-14.93Z"/><path class="cls-62" d="m263.82,38.51c10.1,22.4-36.89,65.43-104.95,96.11-68.06,30.68-131.42,37.4-141.51,14.99-10.1-22.4,36.89-65.44,104.94-96.12,68.06-30.68,131.42-37.39,141.52-14.98Z"/><path class="cls-52" d="m263.4,38.7c10.06,22.31-36.84,65.21-104.75,95.82-67.91,30.61-131.11,37.35-141.16,15.04-10.06-22.31,36.84-65.21,104.75-95.82,67.91-30.61,131.11-37.34,141.17-15.03Z"/><path class="cls-3" d="m262.98,38.89c10.02,22.21-36.8,64.98-104.56,95.52-67.76,30.55-130.8,37.3-140.81,15.09-10.01-22.21,36.8-64.98,104.55-95.53,67.76-30.54,130.8-37.3,140.81-15.08Z"/><path class="cls-59" d="m262.56,39.08c9.97,22.12-36.75,64.75-104.36,95.23-67.6,30.48-130.49,37.26-140.46,15.14-9.97-22.12,36.75-64.75,104.36-95.23,67.6-30.47,130.49-37.25,140.46-15.13Z"/><path class="cls-44" d="m262.14,39.27c9.93,22.02-36.71,64.52-104.17,94.93-67.45,30.41-130.18,37.21-140.11,15.19-9.93-22.02,36.71-64.52,104.16-94.93,67.45-30.4,130.18-37.21,140.11-15.18Z"/><path class="cls-63" d="m261.72,39.46c9.89,21.92-36.66,64.29-103.97,94.63-67.3,30.34-129.88,37.17-139.76,15.24-9.88-21.93,36.67-64.29,103.97-94.64,67.3-30.34,129.88-37.16,139.76-15.23Z"/><path class="cls-4" d="m261.3,39.65c9.84,21.83-36.62,64.07-103.78,94.34-67.15,30.27-129.57,37.12-139.41,15.29-9.84-21.83,36.62-64.07,103.77-94.34,67.15-30.27,129.57-37.12,139.41-15.29Z"/><path class="cls-9" d="m260.88,39.84c9.8,21.73-36.57,63.84-103.58,94.04-67,30.21-129.26,37.08-139.05,15.34-9.8-21.73,36.58-63.84,103.58-94.05,67-30.2,129.26-37.07,139.06-15.34Z"/><path class="cls-46" d="m260.45,40.03c9.76,21.64-36.53,63.61-103.39,93.75-66.85,30.14-128.95,37.03-138.7,15.39-9.75-21.64,36.53-63.61,103.38-93.75,66.85-30.13,128.95-37.02,138.71-15.39Z"/><path class="cls-42" d="m260.03,40.22c9.71,21.54-36.49,63.38-103.19,93.45-66.7,30.07-128.64,36.99-138.35,15.44-9.71-21.54,36.49-63.38,103.19-93.45,66.7-30.07,128.64-36.98,138.36-15.44Z"/><path class="cls-33" d="m259.61,40.41c9.67,21.45-36.44,63.15-103,93.15-66.55,30-128.34,36.94-138,15.49-9.67-21.45,36.45-63.15,102.99-93.16,66.55-30,128.34-36.93,138.01-15.49Z"/><path class="cls-32" d="m259.19,40.6c9.63,21.35-36.4,62.93-102.8,92.86-66.4,29.93-128.03,36.89-137.65,15.54-9.63-21.35,36.4-62.92,102.8-92.86,66.4-29.93,128.03-36.89,137.65-15.54Z"/><path class="cls-70" d="m258.77,40.79c9.59,21.26-36.35,62.7-102.61,92.56-66.25,29.87-127.72,36.85-137.3,15.59-9.58-21.26,36.36-62.7,102.6-92.56,66.25-29.86,127.72-36.84,137.3-15.59Z"/><path class="cls-64" d="m258.35,40.98c9.54,21.16-36.31,62.47-102.41,92.26-66.1,29.8-127.41,36.8-136.95,15.64-9.54-21.16,36.31-62.47,102.41-92.27,66.1-29.79,127.41-36.8,136.95-15.64Z"/><path class="cls-53" d="m257.93,41.17c9.5,21.06-36.26,62.24-102.22,91.97-65.95,29.73-127.1,36.76-136.6,15.69-9.5-21.07,36.27-62.24,102.21-91.97,65.95-29.73,127.1-36.75,136.6-15.69Z"/><path class="cls-2" d="m257.51,41.36c9.46,20.97-36.22,62.01-102.02,91.67-65.8,29.66-126.8,36.71-136.25,15.74-9.45-20.97,36.22-62.01,102.02-91.67,65.79-29.66,126.8-36.71,136.25-15.74Z"/><path class="cls-10" d="m257.08,41.55c9.41,20.87-36.18,61.78-101.83,91.38-65.64,29.59-126.49,36.67-135.9,15.79-9.41-20.88,36.18-61.78,101.82-91.38,65.64-29.59,126.49-36.66,135.9-15.79Z"/><path class="cls-65" d="m256.66,41.74c9.37,20.78-36.13,61.56-101.63,91.08-65.49,29.53-126.18,36.62-135.55,15.84-9.37-20.78,36.14-61.56,101.63-91.08,65.49-29.52,126.18-36.62,135.55-15.84Z"/><path class="cls-49" d="m256.24,41.93c9.33,20.68-36.09,61.33-101.44,90.78-65.34,29.46-125.87,36.57-135.19,15.89-9.32-20.68,36.09-61.33,101.43-90.79,65.34-29.46,125.87-36.57,135.2-15.89Z"/><path class="cls-8" d="m255.82,42.12c9.28,20.59-36.04,61.1-101.24,90.49-65.19,29.39-125.56,36.53-134.84,15.94-9.28-20.59,36.05-61.1,101.24-90.49,65.19-29.39,125.56-36.52,134.85-15.94Z"/><path class="cls-1" d="m255.4,42.31c9.24,20.49-36,60.87-101.05,90.19-65.04,29.32-125.26,36.48-134.49,15.99-9.24-20.49,36-60.87,101.04-90.19,65.04-29.32,125.26-36.48,134.49-15.99Z"/><path class="cls-66" d="m254.98,42.5c9.2,20.4-35.95,60.64-100.85,89.9-64.89,29.25-124.95,36.44-134.14,16.04-9.19-20.4,35.96-60.64,100.85-89.9,64.89-29.25,124.95-36.43,134.14-16.04Z"/><path class="cls-56" d="m254.56,42.69c9.15,20.3-35.91,60.42-100.66,89.6-64.74,29.18-124.64,36.39-133.79,16.09-9.15-20.3,35.91-60.41,100.65-89.6,64.74-29.18,124.64-36.39,133.79-16.09Z"/><path class="cls-47" d="m254.14,42.88c9.11,20.2-35.87,60.19-100.46,89.3-64.59,29.12-124.33,36.35-133.44,16.14-9.11-20.21,35.87-60.19,100.46-89.3,64.59-29.12,124.33-36.34,133.44-16.14Z"/><path class="cls-48" d="m253.71,43.07c9.07,20.11-35.82,59.96-100.26,89.01-64.44,29.05-124.02,36.3-133.09,16.19-9.06-20.11,35.83-59.96,100.26-89.01,64.44-29.05,124.02-36.3,133.09-16.19Z"/><path class="cls-13" d="m253.29,43.26c9.02,20.01-35.78,59.73-100.07,88.71-64.29,28.98-123.72,36.26-132.74,16.24-9.02-20.02,35.78-59.73,100.07-88.71,64.29-28.98,123.72-36.25,132.74-16.24Z"/><path class="cls-24" d="m252.87,43.45c8.98,19.92-35.73,59.5-99.87,88.42-64.14,28.91-123.41,36.21-132.39,16.29-8.98-19.92,35.74-59.5,99.87-88.42,64.13-28.91,123.41-36.21,132.39-16.29Z"/><path class="cls-12" d="m252.45,43.64c8.94,19.82-35.69,59.28-99.68,88.12-63.99,28.84-123.1,36.16-132.04,16.34-8.93-19.82,35.69-59.27,99.68-88.12,63.98-28.84,123.1-36.16,132.04-16.34Z"/><path class="cls-60" d="m252.03,43.83c8.9,19.73-35.64,59.05-99.48,87.82-63.83,28.78-122.79,36.12-131.69,16.39-8.89-19.73,35.65-59.04,99.48-87.82,63.83-28.78,122.79-36.12,131.69-16.39Z"/><path class="cls-38" d="m251.61,44.02c8.85,19.63-35.6,58.82-99.29,87.53-63.68,28.71-122.48,36.07-131.33,16.44-8.85-19.63,35.6-58.82,99.29-87.53,63.68-28.71,122.48-36.07,131.33-16.44Z"/><path class="cls-23" d="m251.19,44.21c8.81,19.53-35.56,58.59-99.09,87.23-63.53,28.64-122.18,36.03-130.98,16.49-8.81-19.54,35.56-58.59,99.09-87.23,63.53-28.64,122.18-36.02,130.98-16.49Z"/><path class="cls-11" d="m250.77,44.4c8.77,19.44-35.51,58.36-98.9,86.94-63.38,28.57-121.87,35.98-130.63,16.54-8.76-19.44,35.52-58.36,98.9-86.93,63.38-28.57,121.87-35.98,130.63-16.54Z"/><path class="cls-26" d="m250.34,44.59c8.72,19.34-35.47,58.14-98.7,86.64-63.23,28.5-121.56,35.94-130.28,16.59-8.72-19.35,35.47-58.13,98.71-86.64,63.23-28.51,121.56-35.93,130.28-16.59Z"/><path class="cls-54" d="m249.92,44.78c8.68,19.25-35.42,57.91-98.51,86.34-63.08,28.44-121.25,35.89-129.93,16.64-8.68-19.25,35.43-57.9,98.51-86.34,63.08-28.44,121.25-35.89,129.93-16.64Z"/><path class="cls-22" d="m249.5,44.96c8.64,19.15-35.38,57.68-98.31,86.05-62.93,28.37-120.94,35.85-129.58,16.69-8.63-19.16,35.38-57.68,98.32-86.04,62.93-28.37,120.95-35.84,129.58-16.69Z"/><path class="cls-36" d="m249.08,45.15c8.59,19.06-35.33,57.45-98.12,85.75-62.78,28.3-120.64,35.8-129.23,16.74-8.59-19.06,35.34-57.45,98.12-85.75,62.78-28.3,120.64-35.8,129.23-16.74Z"/><path class="cls-5" d="m248.66,45.34c8.55,18.96-35.29,57.22-97.92,85.46-62.63,28.23-120.33,35.75-128.88,16.79-8.55-18.97,35.29-57.22,97.93-85.45,62.63-28.23,120.33-35.75,128.88-16.79Z"/><path class="cls-7" d="m15.06,114.42c-3.43,0-5.67-2.79-5.67-6.49,0-3.93,2.61-6.59,5.95-6.59,2.93,0,5.4,2.06,5.4,6.41,0,3.15-1.32,6.67-5.67,6.67Zm.69-31.01c-2.33.14-6.81.37-10.25,5.67-2.06,3.21-3.02,9.33-3.02,14s1.1,17.52,12.71,17.52c8.32,0,11.66-6.95,11.66-12.99,0-7.09-4.44-11.89-10.84-11.89-3.89,0-6.04,1.82-7,2.64.1-2.1.28-4.98,2.47-7.22,1.14-1.15,2.74-1.79,4.49-1.79,1.5,0,2.74.27,4.66,2.33,1.51,1.6,2.11,1.65,2.79,1.65,1.42,0,2.79-1.01,2.79-2.93,0-.78-.18-1.55-.83-2.47-2.42-3.39-6.4-4.07-9.65-4.53Z"/><path class="cls-7" d="m55.67,108.86c0,5.63-4.81,11.08-13.65,11.08-.32,0-3.31-.03-4.13-.5-.58-.32-.89-.95-.89-1.67,0-.52.25-2.02,1.93-2.02.09,0,.2,0,.64.06.89.12,1.79.17,2.65.17,2.57,0,4.97-.43,7.04-2.22,2.03-1.73,2.4-3.55,2.4-4.87,0-4.42-4.59-5.78-7.36-5.78-2.08,0-5.16.67-8.4,2.17-.37.17-2.13,1.04-2.48,1.19-.32.14-.69.2-.98.2-.96,0-1.85-.81-1.85-2.08,0-1.06.75-1.56,1.21-1.85,1.44-.9,7.42-3.43,12.38-3.43,6.4,0,11.48,3.49,11.48,9.55Z"/><path class="cls-7" d="m70.3,101.48c0,1.32.03,4.04-1.13,8.14-.52,1.79-1.5,4.79-2.97,4.79-1.27,0-2.74-1.68-2.74-4.53s1.53-7.36,6.84-8.4Zm3.67-.43c.78.11,2.45.37,4.44,1.75,2.14,1.48,2.83,4.22,2.83,6.04,0,3.4-2.23,6.86-6.04,7.38-.26.03-1.56.14-1.85.2-1.55.26-1.55,1.76-1.55,1.91,0,.52.23,1.09.54,1.41.52.52,1.27.52,1.53.52,4.01,0,11.2-2.96,11.2-11.48,0-3.54-1.21-6.63-4.27-8.97-2.94-2.25-5.92-2.42-7.5-2.42-7.64,0-13.59,5.25-13.59,12.61,0,4.31,2.45,8.43,6.38,8.43,2.83,0,4.59-2.2,5.74-4.68,2.43-5.19,2.22-10.35,2.14-12.69Z"/><path class="cls-7" d="m103.36,99.38c.03,1.18.06,1.58.23,5.1-.37-1.35-.69-2.24-1.79-2.22.23-.37,1.27-1.96,1.56-2.88Zm9.38,8.07c.43.55.86.58.98.58.55,0,1.1-.58,1.1-1.27,0-.55-.58-2.68-.78-3.37-.06-.29-.35-1.39-1.29-1.39-.12,0-.24.03-.32.06.58-.87,1.88-2.8,1.88-3.52,0-.67-.52-1.33-1.3-1.33s-1.13.52-1.47,1.19c-.32.6-.43.78-1.62,2.54-.37-.38-.41-.44-.58-.58.49-.72,1.87-2.8,1.87-3.43,0-.81-.66-1.33-1.35-1.33s-.87.4-1.07.78c-.09.11-1.15,1.96-1.38,2.3-.09-.03-.26-.09-.46-.09-.14,0-.26.03-.38.06-.06-1.62-.06-1.82-.14-2.05-.28-.86-1.12-.86-1.47-.86-.66,0-1.42.23-1.53.98-.03.25-.06,1.41-.06,1.84-.17-.47-.61-.81-1.07-.81-.29,0-.9.11-1.24.75-.38.72-.78,1.41-1.18,2.1-.15-.11-.38-.28-.69-.57.12-.17.72-1.18.87-1.41.58-.9.75-1.21.75-1.62,0-.78-.61-1.21-1.21-1.21-.72,0-1.01.46-1.16.7-.46.66-.92,1.35-1.3,2.08-.14-.11-.43-.29-.83-.29-.95,0-1.44.95-1.44,1.5,0,.63.26.83.52,1.04-.32-.06-.41-.06-1.33-.06v-2.74c0-1.3,0-2.31-1.62-2.31-1.5,0-1.5,1.16-1.5,2.31v2.74h-.58c-1.36,0-2.31,0-2.31,1.67,0,.67.2,1.04.66,1.33.29.2.46.2,1.87.2-.58,2.57-1.67,4.99-2.8,7.33-.23.46-.37.75-.37,1.09,0,1.01,1.06,1.47,1.58,1.47.9,0,1.22-.6,1.93-2.13v8.05c0,1.3,0,2.31,1.62,2.31,1.5,0,1.5-1.12,1.5-2.31v-9c.46.64.81,1.12,1.56,1.12.49,0,.77-.23.98-.4l-.12,2.57c-.03.66-.14,1.53-.2,1.93-.15.81-.67,2.77-.87,3.29-.2.64-.26.79-.26,1.07,0,.9.9,1.47,1.79,1.47s1.18-.55,1.41-1.01c.14-.29.66-1.79,1.1-4.65.26.2,1.15.92,1.55,1.27.44.37.75.61,1.25.61.98,0,1.56-1.01,1.56-1.59,0-.69-.11-.81-1.82-2.13-1.26-1.01-1.5-1.21-2.02-1.21-.14,0-.26.03-.34.06v-.64c0-.63.31-.63.6-.63h4.33c.14.49.69,2.66,1.84,4.99-.26.2-.57.46-1.09.78-.26.17-2.34,1.21-2.63,1.36-.29.14-1.13.55-1.13,1.61,0,.52.32,1.62,1.62,1.62s3.84-1.7,4.96-2.54c1.16,1.42,2.71,2.37,3.87,2.37,1.7,0,2.97-2.69,2.97-4.44,0-1.33-1.38-1.5-1.58-1.5-.95,0-1.21.92-1.27,1.18-.17.72-.23.89-.6.89-.35,0-.5-.23-.93-.83.81-.9,2.48-2.83,2.48-3.7,0-1.06-1.21-1.61-1.68-1.61-.69,0-.95.34-1.24.73-.81,1.12-.92,1.27-1.33,1.72-.43-.95-.6-1.44-.95-2.62h4.38c1.18,0,2.31,0,2.31-1.5s-1.13-1.5-2.31-1.5h-.4l-.43-1.33,1.33-.12Zm-10.33.23c.31.3.69.41.95.41.23,0,.37-.09.43-.15.08.61.08.7.14.96h-5.11c-1.04,0-1.65.26-1.99.78-.11-.17-.72-.95-.84-1.13-.98-1.35-1.59-2.37-1.96-3.05v-1.53c1.38,0,2.3,0,2.3-1.67,0-.38-.08-.64-.17-.81,1.79,1.36,1.99,1.5,2.11,1.59-.32.46-.98,1.44-1.53,2.16-.49.02-1.67.11-1.67,1.41,0,.43.2,1.44,1.47,1.44.18,0,.23,0,.92-.06l4.94-.35Zm4.76,1.22c-.06-.41-.09-.58-.14-1.01l1.62-.14.28,1.16h-1.75Zm-.43-3.84c-.06-.87-.09-2.02-.11-3.31.46.42,1.18,1.12,1.62,1.56-.15.23-.64.89-1.33,1.75h-.17Zm-6.69-.05c.4-.6.55-.86.95-1.5.03.2.29.93.44,1.39l-1.39.11Zm10.5-.23c.11-.14,1.1-1.53,1.1-1.55.03.28.05.4.34,1.44l-1.44.12Z"/><path class="cls-7" d="m127.34,113.88h-5.95v-1.53h5.95v1.53Zm0,2.86v.98c0,.52-.06.84-.81.84-.31,0-1.81-.32-2.13-.32-1.18,0-1.47,1.13-1.47,1.73,0,.72.44,1.13.81,1.3.35.17,2.43.61,3.7.61.55,0,3.32,0,3.32-2.54v-11.77c0-2.11-1.91-2.8-2.75-2.8h-7.56c-2.11,0-2.45,1.73-2.45,2.2v12.58c0,1.44,0,2.3,1.81,2.3,1.58,0,1.58-1.06,1.58-2.3v-2.8h5.95Zm0-7.31h-5.95v-.89c0-.63.5-.63.7-.63h4.56c.55,0,.69.29.69.63v.89Zm8.19-7.73c1.7-.27,4.16-.72,6.29-1.38.44-.12,1.27-.38,1.27-1.41,0-.21,0-1.79-1.59-1.79-.12,0-.29,0-.64.12-.32.09-1.9.58-2.25.66-.43.14-2.6.64-3.09.75v-.52c0-1.3,0-2.31-1.79-2.31-1.56,0-1.56,1.07-1.56,2.31v6.64c0,2.71,2.83,2.71,3.49,2.71h4.64c1.31,0,1.91-.49,2.31-.86.73-.69,1.01-2.65,1.01-3.23,0-.87-.69-1.42-1.67-1.42-1.1,0-1.24.55-1.41,1.36-.23.98-.46,1.1-1.18,1.1h-3.15c-.58,0-.69-.35-.69-.76v-1.96Zm.09,13.62c1.7-.26,2.39-.38,5.51-1.33,1.3-.41,2.11-.81,2.11-1.79,0-.67-.38-1.9-1.5-1.9-.26,0-.49.09-.84.2-1.21.41-2.68.92-3.69,1.21-.23.06-1.33.29-1.59.35v-1.22c0-1.12,0-1.47-.46-1.87-.17-.15-.52-.44-1.27-.44-1.62,0-1.7,1.3-1.7,2.31v7.85c0,.5.14,1.65.89,2.29.78.63,1.91.69,2.45.69h4.42c.4,0,1.79-.17,2.6-.95,1.16-1.1,1.21-3.52,1.21-3.81,0-1.04-.64-1.62-1.7-1.62-1.33,0-1.44.9-1.53,1.48-.21,1.32-.26,1.67-1.62,1.67h-2.34c-.84,0-.95-.5-.95-.93v-2.19Zm-16.39-14.68c-1.1.03-2.08.06-2.08,1.7,0,.96.46,1.62,1.64,1.62.75,0,8.08-.61,9.2-1.18.35.89.61,1.59,1.39,1.59.4,0,1.21-.23,1.61-.58.23-.17.46-.55.46-.99,0-.69-1.3-3.37-1.74-4.29-.89-1.88-1.15-2.43-2.07-2.43-.43,0-1.88.44-1.88,1.53,0,.4.12.57.44,1.15.08.18.43,1.01.52,1.18-.92.2-2.97.46-4.01.58.37-.95,1.21-3.09,1.21-3.72,0-1.36-1.61-1.47-1.91-1.47-1.01,0-1.24.78-1.38,1.24-.64,2.11-.69,2.37-1.41,4.07Z"/><path class="cls-7" d="m31.35,65.81c0-5.37-6.68-9.72-14.92-9.72s-14.91,4.36-14.91,9.72,6.68,9.74,14.91,9.74c.91,0,1.79-.05,2.65-.16l4.66,2.06-1.36-2.72c5.27-1.49,8.96-4.92,8.96-8.92Z"/><path class="cls-7" d="m1.19,65.81c0,5.54,6.84,10.06,15.23,10.06h0c.85,0,1.73-.06,2.6-.15.14.07,5.41,2.39,5.41,2.39,0,0-1.33-2.66-1.59-3.18,5.37-1.64,8.82-5.19,8.82-9.12,0-5.54-6.83-10.05-15.23-10.05s-15.23,4.52-15.23,10.05Zm.64,0c0-5.19,6.54-9.4,14.59-9.4s14.59,4.22,14.59,9.4c0,3.73-3.43,7.11-8.72,8.62l-.37.1s.74,1.46,1.13,2.26c-1.11-.49-3.93-1.74-3.93-1.74h-.08c-.88.11-1.76.17-2.61.17-8.05,0-14.59-4.23-14.59-9.42Z"/><path class="cls-7" d="m92.21,74.68h-3.87v-2.06s.02-1.53-1.58-1.53c0,0-1.56.01-1.56,1.54v2.09h-5.07s-1.26.06-1.26,1.59c0,0-.05,1.35,1.28,1.35h4.77s.26,3.92-5.11,7.64c0,0-1.47.77-.58,2.24,0,0,.83,1.08,1.99.46,0,0,6.03-3.14,6.84-10.34h2.86s.41-.06.41.49c0,0-.02,3.87-.57,5.89,0,0-.2,1.14-1.92.96,0,0-1.61-.15-1.57,1.58,0,0,.04,1.33,1.61,1.43,0,0,4.2.55,4.89-3.31,0,0,.9-5.21.61-8.33,0,0-.14-1.69-2.16-1.69Z"/><path class="cls-7" d="m109.91,72.06h-10.34s-2.46-.06-2.46,2.33v3.89s-.08,1.67,1.68,1.67c0,0,1.59.05,1.59-1.67v-3.15s-.02-.29.25-.31h7.83s.54-.04.53.55c0,0-.39,7.22-6.28,9.91,0,0-1.47.62-.74,2.19,0,0,.89,1.19,2.48.41,0,0,6.32-2.52,7.81-12.72,0,0,.54-3.09-2.34-3.09Z"/><path class="cls-7" d="m118.64,78.21l-.84-1.53s-.64-1.57-1.95-.8c0,0-1.28.61-.33,2.15l.88,1.5s.6,1.08,1.8.37c0,0,.94-.51.45-1.68Z"/><path class="cls-7" d="m120.2,78.58s.61,1.08,1.8.37c0,0,.94-.5.45-1.68l-.84-1.53s-.65-1.56-1.96-.81c0,0-1.28.62-.33,2.16l.88,1.49Z"/><path class="cls-7" d="m126.85,75.22s-1.48-.3-1.81,1.46c0,0-1.05,6.29-6.71,8.46,0,0-1.29.57-.69,1.86,0,0,.53.95,1.9.44,0,0,6.6-2.25,8.36-10.58,0,0,.27-1.25-1.04-1.64Z"/><path class="cls-7" d="m142.71,73.51h-4.96s1.29-1.67-.33-2.38c0,0-1.49-.68-2.23.82,0,0-2.27,4.34-4.94,6.61,0,0-1.23,1.03-.17,2.11,0,0,.97.91,2.15-.02,0,0,2.76-2.64,3.82-4.29h4.37s.47.12.35.53c0,0-1.32,4.93-7.75,8.79,0,0-1.32.7-.59,2.05,0,0,.62,1.15,2.15.47,0,0,7.25-3.02,9.92-12.62,0,0,.5-2.03-1.79-2.05Z"/><path class="cls-7" d="m39.46,63v.92c0,.3-.06,1.83-.17,2.34-.21.92-.83.94-1.16.94-.37,0-.75-.04-1.11-.09l-.05-.95c.24.04.59.1.91.1.39,0,.43-.1.5-.42.02-.11.12-1.48.12-1.62v-.31h-1.3c-.06.31-.18.97-.56,1.68-.57,1.03-1.3,1.48-1.58,1.66l-.68-.69c1.22-.82,1.6-1.41,1.81-2.64h-1.51v-.9h1.62c.02-.44.02-.7.04-1.02h1.02c-.03.44-.05.65-.07,1.02h2.16Zm-.91-.18c-.07-.47-.14-.71-.22-.96l.52-.07c.1.23.22.73.25.94l-.56.1Zm.86-.09c-.04-.26-.15-.67-.25-.92l.54-.07c.13.36.19.61.24.89l-.53.1Z"/><path class="cls-7" d="m40.88,66.43c.34-.14,1.18-.48,2.08-1.42.76-.81,1.05-1.53,1.18-1.86h-2.91v-.91h4.17c-.07.42-.24,1.34-1.08,2.56.7.5,1.36,1.06,1.97,1.67l-.81.8c-.56-.67-1.32-1.4-1.73-1.76-.09.11-.31.35-.64.64-.8.71-1.39.95-1.7,1.08l-.54-.8Z"/><path class="cls-7" d="m51.06,66.47h-.34v-1.04h.34v1.04Zm-2.05-1.78v1.78h-.38v.82h4.34v-.82h-.21v-1.78h-3.76Zm1.09,1.78h-.35v-1.04h.35v1.04Zm1.91,0h-.34v-1.04h.34v1.04Zm-4.19.96c.51-.68.85-1.47,1.07-2.06l-.69-.52c-.16.4-.44,1.1-.96,1.76l.58.82Zm4.83-5.47h-3.52v2.45h3.52v-2.45Zm-.85.96h-1.82v-.29h1.82v.29Zm0,.83h-1.82v-.3h1.82v.3Zm-2.82-1.39c-.29-.24-.75-.47-1.08-.6l-.48.69c.31.14.74.41,1.03.67l.53-.76Zm-.22,1.53c-.3-.23-.69-.46-1.04-.6l-.47.72c.5.25.74.43.99.64l.52-.76Z"/><path class="cls-7" d="m57.23,62.48s0,.07,0,.09c0,.07.3,1.06.34,1.18.33-.3.81-.77,1.24-1.31l.79.6c-.43.52-1.3,1.27-1.63,1.51.44.65,1.04,1.15,1.68,1.6l-.53.91c-.84-.56-1.62-1.49-1.91-2.26v2.04c0,.43-.25.6-.57.6h-1.2l-.19-.92h.87c.08,0,.17-.05.17-.16v-4.59h.92v.71Zm-3.26.56h2.12v.9c-.26,1.82-1.06,2.6-1.73,3.05l-.52-.87c.19-.13.62-.41.98-.99.31-.52.38-.98.41-1.19h-1.26v-.9Z"/><path class="cls-7" d="m64.85,65.5v.89h-1.48v-.89h1.48Zm1.43-1.17c-.87-.42-1.35-.87-1.69-1.35h-.91c-.41.57-1.02,1.07-1.89,1.42l.47.82c.12-.06.15-.08.22-.11v2.33h.89v-.25h1.48v.25h.89v-2.33c.07.05.09.06.17.11l.37-.9Zm-3.13.36c.37-.29.73-.62.97-1.03.14.22.34.52.99,1.03h-1.97Zm-2.52-2.26c.38.16.88.52,1.03.66l.54-.75c-.35-.28-.7-.48-1.08-.62l-.49.72Zm-.22,1.55c.37.17.78.5.99.69l.52-.74c-.39-.34-.81-.55-1.02-.65l-.49.7Zm1.08.86c-.23.54-.7,1.39-1.08,1.83l.64.73c.11-.14.32-.4.62-.98.27-.52.41-.85.47-1.04l-.66-.54Zm4.78-2.1c-.51-.29-.9-.74-1.13-1.01l-.71.39c.33.48.78.98,1.35,1.35l.49-.72Zm-3.16-.99c-.24.39-.69.77-1.19,1.03l.54.69c.6-.34,1.12-.91,1.39-1.37l-.73-.35Z"/><path class="cls-7" d="m70.35,64.96c.59-.03.66-.03,1.01-.04.14.18.2.25.29.42h-1.3v-.37Zm2.05-.13c-.15-.2-.33-.42-.85-.91h.36v-.32h.67v-1.46h-2.23v-.37h-.9v.37h-2.21v1.46h.65v.32h.59c-.06.16-.1.24-.18.41h-.64c-.05,0-.09,0-.22-.01l.07.73h.36c.24,0,1.35-.05,1.57-.05v.34h-1.93v.75h1.93v.39h-2.37v.8h5.65v-.8h-2.4v-.39h1.95v-.75h-.63l.74-.51Zm-1.93-.78c.17.14.2.16.29.25-.49.01-.99.01-1.5.01.14-.23.15-.29.2-.4h1.23l-.22.14Zm-2.33-.86v-.28h3.55v.28h-3.55Z"/><path class="cls-7" d="m74.95,62.83v1.11h-.4v-1.11h.4Zm.85.58v.69h.58c0,.12,0,.15,0,.26h-.64v.67h.55c-.12.49-.34.95-.66,1.35v-4.35h-1.84v5.08h.76v-.43h.78c-.12.11-.18.15-.32.25l.67.56c.18-.17.36-.33.61-.65l.27.64c.39-.1.76-.2,1.21-.43.31.17.64.31,1.22.47l.45-.84c-.33-.02-.57-.05-.91-.14.24-.25.38-.43.53-.71v-.55h-2.01c.03-.1.04-.13.06-.24h2.22v-.67h-2.13c0-.12,0-.15,0-.26h2.04v-.69h-.29c.16-.31.23-.48.3-.67l-.78-.16c.29-.04.47-.07.8-.14l-.39-.7c-1.15.23-2.12.29-3.2.31l.2.77c.24,0,.28,0,.43-.02l-.46.08c.12.24.2.48.21.53h-.28Zm-.85,1.27v1.17h-.4v-1.17h.4Zm1.49-1.27l.42-.09c-.07-.23-.17-.45-.21-.54.37-.02.88-.07,1.78-.19-.1.34-.19.58-.32.82h-.84l.67-.11c-.03-.21-.13-.51-.16-.61l-.76.13c.11.23.16.45.2.59h-.79Zm1.79,2.42c-.1.14-.18.24-.42.4-.19-.14-.29-.23-.43-.4h.85Zm-1.48.28c.17.23.26.33.36.42-.26.09-.45.13-.71.17.13-.19.22-.32.35-.59Z"/><path class="cls-7" d="m83.11,64.61h-1.53v-.27h1.53v.27Zm.34.91c.02-.1.02-.12.03-.24h2.45v-.67h-1.92v-.27h1.55v-1.45h-4.85v2.1c0,.37-.06.74-.14,1.1-.1.4-.27.71-.37.9l.79.5c.09-.13.2-.3.33-.68l.43.69c.4-.18,1.15-.57,1.5-1.36h1.4c-.01.46-.05.55-.28.55h-.77l.22.77h1.04c.18,0,.47-.12.59-.48.08-.27.14-1.08.15-1.46h-2.15Zm-.84-.24c-.11.57-.37,1.06-1.24,1.4.22-.71.22-1.16.22-1.4h1.03Zm2.06-1.5h-3.09v-.31h3.09v.31Zm-4.4-1.82v.74h5.67v-.74h-5.67Z"/><path class="cls-7" d="m89.98,64.61h1.01c-.4.38-.71.76-.93,1.1-.27.42-.33.62-.36.76v-.65h-.98v-.29h.86v-1.62l.35.38.06-.06v.37Zm.36-.83c.1-.14.17-.28.31-.54h1.87v-.88h-1.53c.07-.22.09-.34.13-.52l-.89-.08c-.1.59-.32,1.14-.67,1.61v-.19h-.86v-.25h.98v-.76h-.98v-.39h-.84v.39h-.98v.76h.98v.25h-.86v2.36h.86v.29h-1.04v.78h1.04v.85h.84v-.85h.96c-.06.71.42.78.86.78h1.12c.11,0,.48-.03.66-.26.17-.23.22-.58.25-1.25l-.84-.22c0,.18-.05.59-.08.67-.02.07-.07.18-.21.18h-.46c-.09,0-.22-.02-.22-.15,0-.27.66-1.1,1.5-1.77v-.83h-1.91Zm-1.54,0v.29h-1v-.29h1Zm0,.82v.3h-1v-.3h1Z"/><path class="cls-7" d="m95.08,65.6c-.12-.14-.17-.22-.28-.39.05-.58.05-1.25.05-1.35.13-.1.24-.2.42-.36v1.28h1.34v.25h-1.54v.58Zm1.54,1.83h.83v-1.14c.42.49.83.77,1.3,1.04l.46-.79c-.39-.15-.79-.33-1.33-.77h1.21v-.75h-1.64v-.25h1.45v-1.34h-1.74v1.16h-.2v-1.16h-1.61c.07-.07.1-.11.18-.2l-.34-.67c-.08.11-.13.19-.33.37v-1.19h-.76v2.19c0,1.21-.1,2.01-.75,2.75l.61.77c.17-.2.44-.52.66-1.21.16.24.22.32.31.43l.04-.06.38.72c.22-.13.77-.46,1.28-1.01v1.09Zm-.31-3.47v.29h-.4v-.29h.4Zm-.09,1.82c-.27.23-.69.54-1.18.72l.35-.59c-.08-.07-.09-.08-.15-.14h.98Zm2.04-1.82v.29h-.46v-.29h.46Zm-2.69-.72h3.07v-1.33h-3.07v1.33Zm2.25-.78v.31h-1.44v-.31h1.44Zm-4.34.46c.02.56,0,1.13-.14,1.68l.48.29c.07-.23.14-.52.17-1.55,0-.16,0-.26,0-.36l-.5-.05Z"/><path class="cls-7" d="m102.21,63.76c.31-.31.61-.72.89-1.09.01.55.05.95.08,1.26-.09-.35-.12-.45-.19-.61l-.45.1c.03.07.05.11.1.32l-.43.02Zm1.18,2.14c-.11-.07-.3-.19-.8-.3,0-.04,0-.17.02-.26h.75c.11.51.25.92.28,1.03-.46.27-.8.34-1,.39l.32.7c.21-.07.53-.17,1.03-.47.3.38.55.48.84.48.54,0,.79-.45.93-.75l-.39-.72c-.06.12-.34.65-.54.65-.03,0-.13-.02-.22-.14.47-.41.64-.73.74-.9l-.63-.28h.96v-.76h-.52c-.04-.1-.12-.27-.21-.45.13-.02.2-.02.28-.04,0,.03.03.14.04.2l.48-.14c-.08-.34-.17-.7-.29-.98l-.45.12c.04.1.06.15.1.29-.25.02-.37.04-.48.04.33-.33.58-.68.92-1.19l-.51-.2c-.09.15-.17.26-.33.49-.04-.05-.07-.08-.14-.18.12-.14.3-.43.45-.67l-.57-.14c-.04.08-.09.2-.25.43-.03-.03-.04-.04-.09-.09l-.23.35c0-.3,0-.5,0-.66h-.8c0,.24,0,.42,0,.65l-.37-.17c-.07.11-.13.2-.3.46-.08-.1-.11-.12-.15-.16.07-.09.28-.37.43-.64l-.57-.14c-.05.09-.09.19-.25.43-.02-.01-.09-.07-.1-.08l-.34.55c.07.06.1.08.15.12h-.28v-1h-.77v1h-.51v.82h.48c-.04.21-.23.96-.56,1.48l.26,1.28c.09-.16.22-.4.34-.83v1.92h.77v-2.24c.11.23.14.28.22.39l.14-.61v.35h.15c-.03.9-.12,1.21-.37,1.59l.64.54c.19-.26.38-.58.46-1.2.33.12.48.22.59.32l.25-.69Zm.58-2.25c-.06-.52-.07-.77-.07-.91.09.09.31.3.44.47-.08.11-.16.22-.36.44h-.01Zm-2.37.68c.21-.01,1.06-.1,1.14-.1,0,.04.01.07.03.2l.44-.1c0,.07,0,.1.03.25h-1.56c-.17-.18-.3-.39-.37-.51v-.47h.34v-.77c.1.1.21.21.38.39-.11.15-.28.36-.42.54h-.09l.02.07.06.5Zm2.47.25c-.02-.12-.04-.25-.05-.36.07,0,.14-.01.31-.03.03.06.14.26.2.39h-.47Zm.64.76c-.16.24-.22.31-.41.51-.05-.16-.08-.34-.12-.51h.52Z"/><path class="cls-7" d="m7.38,62.68c.15.06.35.14.35.35,0,.14-.1.28-.24.28-.07,0-.13-.02-.22-.06-.93-.3-1.03-.32-1.76-.46-.22-.05-.24-.21-.24-.27,0-.06,0-.15.1-.22.07-.05.11-.06.21-.06.16,0,1.36.28,1.81.44Zm-.24,1.2c.31.11.43.17.43.36,0,.15-.1.29-.25.29-.07,0-.13-.03-.25-.07-.63-.24-1.21-.34-1.6-.41-.08-.02-.28-.05-.28-.28,0-.09.04-.29.3-.29.05,0,.78.1,1.66.4Zm.18,1.34c.43.17.52.23.52.42,0,.15-.1.31-.27.31-.08,0-.16-.03-.24-.08-.81-.37-1.84-.51-2.13-.55-.08,0-.28-.03-.28-.28,0-.17.11-.29.28-.29s1.27.16,2.11.48Z"/><path class="cls-7" d="m9.18,63.09c-.24,0-.3,0-.38-.08-.06-.06-.08-.13-.08-.2,0-.13.08-.21.13-.24.06-.04.14-.04.33-.04h1.7c.14,0,.28.03.38.09.19.11.19.31.19.38,0,.1-.05.61-.53,1.29.24.2.43.34.77.72.38.41.42.52.42.63,0,.17-.16.3-.31.3-.12,0-.18-.07-.25-.15-.29-.39-.62-.74-1-1.05-.76.78-1.64,1.19-1.86,1.19-.14,0-.29-.12-.29-.32s.12-.24.24-.29c.35-.13.99-.44,1.49-.98.56-.6.66-1.12.66-1.16,0-.08-.03-.08-.13-.08h-1.47Z"/><path class="cls-7" d="m13.4,65.51c0,.24,0,.3-.09.38-.04.03-.1.08-.22.08-.15,0-.2-.04-.24-.08-.08-.07-.08-.15-.08-.38v-2.81c0-.24,0-.3.08-.38.04-.05.1-.08.23-.08.14,0,.19.03.23.08.09.08.09.14.09.38v.71c.4.08.99.28,1.38.46.21.1.36.17.36.35s-.11.32-.29.32c-.05,0-.08-.02-.42-.16-.34-.15-.69-.28-1.04-.36v1.5Z"/><path class="cls-7" d="m18.07,62.77c0-.23,0-.29.09-.37.03-.03.09-.08.2-.08.05,0,.17,0,.25.13.04.06.04.14.04.33v.4h.37c.23,0,.29,0,.38.07.03.04.07.11.07.21,0,.11-.05.19-.12.24-.06.04-.14.04-.33.04h-.37v.22c0,.55-.02,1.2-.77,1.68-.41.26-.83.31-.95.31-.19,0-.3-.13-.3-.33s.16-.25.24-.26c.54-.13.67-.17.88-.37.22-.22.32-.53.32-1.02v-.23h-1.06v.38c0,.23,0,.3-.08.37-.03.04-.09.08-.2.08-.08,0-.17-.02-.24-.12-.04-.06-.04-.15-.04-.33v-.38h-.4c-.23,0-.3,0-.38-.08-.03-.04-.08-.1-.08-.2,0-.11.05-.19.13-.24.06-.04.14-.04.33-.04h.4v-.4c0-.23,0-.29.08-.37.03-.03.09-.08.2-.08.08,0,.18.03.24.13.04.06.04.14.04.33v.4h1.06v-.4Z"/><path class="cls-7" d="m22.87,62.91c.55,0,.6.36.6.79,0,.84-.26,1.38-.69,1.74-.43.37-.97.5-1.39.5-.1,0-.38,0-.38-.3,0-.25.17-.31.28-.31.52,0,.84-.12,1.03-.29.38-.32.54-.81.54-1.3,0-.26-.03-.26-.19-.26h-1.93c-.13,0-.13.01-.13.16v.38c0,.24,0,.3-.08.38-.03.03-.09.08-.2.08-.05,0-.17,0-.25-.14-.04-.06-.04-.14-.04-.33v-.64c0-.15.07-.29.19-.37.1-.08.2-.1.36-.1h.85v-.24c0-.24,0-.3.09-.38.03-.03.09-.08.21-.08.15,0,.19.04.24.08.08.08.08.15.08.38v.24h.85Z"/><path class="cls-7" d="m25.72,62.71c0-.24,0-.29.08-.38.04-.04.09-.08.22-.08.15,0,.2.04.23.08.08.08.08.15.08.38v.53h1.06c.23,0,.3,0,.37.08.06.06.08.13.08.21,0,.14-.09.22-.12.24-.06.04-.15.04-.33.04h-1.06v.16c0,.35,0,1.14-.85,1.75-.16.11-.44.3-.62.3-.19,0-.3-.17-.3-.33,0-.16.06-.2.29-.31.74-.36.86-.8.86-1.39v-.18h-1.18c-.24,0-.3,0-.37-.08-.06-.06-.08-.13-.08-.2,0-.15.09-.23.13-.25.06-.04.14-.04.32-.04h1.18v-.53Z"/><path class="cls-7" d="m10.48,67.78c0,.18.01.24.03.76-.05-.2-.1-.33-.26-.33.03-.05.19-.29.23-.43Zm1.39,1.2c.06.08.13.09.14.09.09,0,.16-.09.16-.19,0-.08-.09-.4-.12-.5,0-.05-.05-.21-.19-.21-.02,0-.04,0-.04.01.08-.13.28-.42.28-.53,0-.09-.08-.2-.2-.2s-.16.08-.22.18c-.04.09-.06.12-.24.38-.05-.05-.06-.05-.09-.09.07-.11.28-.41.28-.51,0-.12-.1-.2-.2-.2-.1,0-.12.06-.16.11,0,.02-.16.29-.2.34-.02,0-.04-.01-.07-.01-.02,0-.04,0-.05.01-.01-.24-.01-.27-.02-.31-.04-.12-.17-.12-.22-.12-.1,0-.21.03-.23.15,0,.03-.01.21-.01.26-.02-.07-.1-.12-.16-.12-.04,0-.14.02-.19.11-.05.1-.12.21-.17.31-.02,0-.06-.04-.1-.09.01-.02.11-.17.13-.2.08-.14.11-.18.11-.24,0-.12-.09-.18-.18-.18-.11,0-.15.07-.17.1-.07.1-.14.2-.2.31-.02-.02-.07-.03-.13-.03-.14,0-.22.13-.22.22,0,.1.04.12.08.15-.05,0-.06,0-.2,0v-.4c0-.19,0-.35-.24-.35-.23,0-.23.18-.23.35v.4h-.08c-.2,0-.34,0-.34.25,0,.1.03.16.09.2.05.04.07.04.29.04-.09.37-.25.74-.42,1.08-.03.06-.05.11-.05.16,0,.15.16.22.23.22.14,0,.18-.1.29-.32v1.2c0,.18,0,.34.24.34.23,0,.23-.17.23-.34v-1.34c.06.1.11.17.23.17.07,0,.11-.04.14-.06v.38c-.03.1-.04.23-.05.3-.02.11-.1.41-.13.48-.03.1-.04.12-.04.16,0,.14.13.22.27.22.13,0,.17-.08.21-.15.02-.04.1-.27.16-.69.04.03.18.14.23.19.07.06.11.09.19.09.15,0,.23-.15.23-.23,0-.1-.02-.12-.27-.32-.19-.15-.22-.18-.3-.18-.02,0-.04,0-.05,0v-.09c0-.1.04-.1.09-.1h.64c.02.07.11.39.28.74-.04.03-.09.07-.17.12-.04.03-.35.18-.39.2-.04.02-.17.09-.17.24,0,.07.05.24.24.24s.57-.25.74-.37c.17.21.4.35.57.35.26,0,.45-.4.45-.66,0-.19-.2-.22-.23-.22-.14,0-.18.13-.19.17-.03.11-.04.14-.1.14-.05,0-.07-.04-.13-.13.11-.13.37-.42.37-.55,0-.16-.18-.24-.25-.24-.1,0-.14.05-.18.11-.12.17-.14.19-.2.26-.06-.14-.09-.22-.14-.39h.66c.17,0,.34,0,.34-.23s-.17-.23-.34-.23h-.07l-.06-.19h.2Zm-1.53.04s.1.06.14.06c.03,0,.05,0,.07-.02.02.09.02.11.02.14h-.76c-.16,0-.25.05-.29.12-.02-.02-.11-.14-.13-.17-.14-.2-.23-.35-.29-.45v-.22c.2,0,.34,0,.34-.26,0-.05-.01-.09-.03-.12.27.2.3.22.31.24-.05.07-.14.21-.23.32-.07,0-.25.02-.25.21,0,.07.03.21.22.21.02,0,.03,0,.14,0l.73-.05Zm.7.17c0-.06,0-.07-.02-.14l.24-.03.04.17h-.26Zm-.06-.56c0-.13,0-.31-.02-.49.07.06.18.16.24.22-.02.04-.09.14-.2.27h-.03Zm-.99,0c.06-.1.08-.13.14-.23,0,.02.04.14.07.21l-.21.02Zm1.56-.04s.17-.23.17-.23c0,.04,0,.06.05.21h-.21Z"/><path class="cls-7" d="m14.04,69.94h-.88v-.23h.88v.23Zm0,.43v.14c0,.08,0,.12-.12.12-.05,0-.27-.05-.32-.05-.17,0-.22.16-.22.26,0,.11.07.17.12.19.05.03.36.09.55.09.09,0,.49,0,.49-.38v-1.75c0-.31-.29-.41-.41-.41h-1.12c-.31,0-.36.26-.36.33v1.87c0,.21,0,.34.27.34.24,0,.24-.16.24-.34v-.42h.88Zm0-1.09h-.88v-.14c0-.09.07-.09.1-.09h.68c.08,0,.1.04.1.09v.14Zm1.22-1.15c.25-.03.62-.1.93-.2.07-.02.19-.06.19-.21,0-.03,0-.27-.23-.27-.02,0-.05,0-.1.02-.05.01-.28.08-.33.1-.06.02-.39.09-.46.11v-.07c0-.2,0-.34-.27-.34-.23,0-.23.15-.23.34v.98c0,.4.42.4.52.4h.69c.19,0,.29-.07.34-.13.11-.1.15-.38.15-.47,0-.13-.1-.21-.25-.21-.17,0-.18.08-.21.2-.03.15-.06.16-.17.16h-.47c-.09,0-.1-.05-.1-.11v-.29Zm.02,2.02c.25-.03.35-.05.82-.19.19-.06.31-.12.31-.27,0-.1-.06-.29-.22-.29-.04,0-.08.02-.13.03-.18.06-.4.14-.55.18-.03.02-.2.04-.23.05v-.18c0-.17,0-.22-.07-.28-.03-.02-.08-.07-.19-.07-.24,0-.25.2-.25.35v1.17c0,.07.02.24.13.34.12.09.29.1.37.1h.66c.06,0,.26-.02.38-.14.17-.16.19-.52.19-.56,0-.16-.1-.24-.26-.24-.2,0-.21.12-.23.22-.03.2-.04.25-.23.25h-.35c-.12,0-.14-.07-.14-.14v-.33Zm-2.44-2.18c-.16,0-.31,0-.31.25,0,.14.07.25.25.25.11,0,1.2-.1,1.37-.18.05.12.09.23.21.23.06,0,.18-.04.24-.09.03-.02.06-.08.06-.14,0-.11-.19-.51-.25-.64-.14-.28-.17-.36-.31-.36-.07,0-.28.06-.28.22,0,.06.01.09.06.17.01.03.07.15.08.17-.13.03-.44.08-.6.09.06-.15.18-.46.18-.56,0-.21-.24-.22-.28-.22-.15,0-.18.12-.21.19-.09.31-.1.35-.21.6Z"/><path class="cls-7" d="m17.79,70.8c0,.15,0,.34-.26.34s-.26-.2-.26-.34v-1.51c-.1.21-.16.29-.33.29-.13,0-.24-.07-.24-.22,0-.08.03-.18.16-.42.27-.47.48-.98.64-1.5.05-.15.15-.19.24-.19.24,0,.25.25.25.26,0,.18-.07.35-.22.69v2.6Zm1.86-3.23c0-.15,0-.34.26-.34s.26.19.26.34v.31h.14c.13,0,.2,0,.27.07.06.05.08.13.08.19,0,.1-.05.18-.13.21-.05.03-.1.03-.22.03h-.14v2.23c0,.39-.19.52-.59.52-.15,0-.53-.03-.68-.15-.08-.08-.1-.16-.1-.24,0-.14.12-.22.21-.22.04,0,.08,0,.12.02.13.03.31.08.4.08.13,0,.13-.01.13-.14v-2.1h-1.3c-.13,0-.34,0-.34-.25,0-.1.05-.18.12-.21.06-.04.11-.04.22-.04h1.3v-.31Zm-.68,1.64c.07.12.18.28.18.44,0,.07-.05.26-.24.26-.16,0-.22-.13-.25-.21-.12-.26-.14-.29-.29-.53-.03-.04-.06-.09-.06-.15,0-.07.03-.15.09-.19.03-.04.08-.05.15-.05.15,0,.2.07.42.43Z"/><path class="cls-7" d="m32.4,73.85c3.37.64,3.89.74,8.32,2.18l.16.06c.36.12.6.2.89.2.75,0,1.25-.72,1.25-1.4,0-1.05-1.08-1.46-1.73-1.7h0c-2.17-.8-7.8-2.1-8.58-2.1-.47,0-.7.03-1.02.28-.33.27-.51.65-.51,1.11,0,.27.09,1.15,1.22,1.37Z"/><path class="cls-7" d="m32.15,79.78h.03c1.57.27,4.49.75,7.56,1.97h.03c.56.22.86.34,1.22.34.81,0,1.24-.76,1.24-1.47,0-.99-.63-1.26-2.07-1.76h0c-4.2-1.44-7.65-1.89-7.85-1.89-1.44,0-1.52,1.19-1.52,1.44,0,1.09.95,1.28,1.35,1.36Z"/><path class="cls-7" d="m40.99,85.18h0c-4.06-1.55-9.21-2.27-10-2.27-.87,0-1.45.59-1.45,1.47,0,1.28,1.02,1.39,1.4,1.43.6.07,5.94.73,10.08,2.62.38.18.74.35,1.17.35.82,0,1.33-.81,1.33-1.55,0-.95-.54-1.28-2.52-2.04Z"/><path class="cls-7" d="m57.48,80.65c2.43-3.46,2.47-5.99,2.47-6.1,0-.32,0-1.32-.91-1.87-.56-.36-1.29-.43-1.81-.43h-8.06c-.92,0-1.3,0-1.6.22-.42.29-.64.7-.64,1.2,0,.4.14.74.41,1,.41.41.68.41,1.84.41h6.97c.49,0,.55.01.55.29,0,.34-.57,2.76-3.08,5.45-2.69,2.87-6.05,4.28-7.02,4.64-.5.19-1.18.44-1.18,1.43s.74,1.59,1.43,1.59c1.13,0,5.25-1.98,8.8-5.6,1.65,1.39,3.22,3.05,4.66,4.93.31.39.62.72,1.21.72.74,0,1.56-.58,1.56-1.43,0-.59-.29-1.18-1.99-3.03-1.58-1.72-2.43-2.44-3.6-3.39Z"/><path class="cls-7" d="m74.95,79.26c-1.94-.86-4.66-1.76-6.5-2.16v-3.57c0-1.09,0-1.45-.41-1.84-.23-.21-.47-.38-1.18-.38-.63,0-.93.22-1.09.39-.41.41-.41.71-.41,1.83v12.91c0,1.09,0,1.45.41,1.84.23.22.48.39,1.18.39.58,0,.89-.21,1.08-.39.42-.43.42-.73.42-1.84v-6.35c1.5.36,3.08.91,4.84,1.7l.31.14c1.33.57,1.44.62,1.7.62.81,0,1.42-.66,1.42-1.54,0-.95-.82-1.31-1.77-1.74Z"/><path class="cls-7" d="m22.24,67.5c0-.18.15-.26.27-.26.08,0,.17.04.23.13.04.06.16.35.19.41.27-.03.41-.05.64-.09.23-.04.28-.04.31-.04.14,0,.24.12.24.27,0,.07-.03.22-.21.27-.18.04-.6.1-.72.11.04.05.1.18.16.26.17-.03.32-.05.74-.14.02,0,.07-.02.12-.02.11,0,.23.12.23.27,0,.24-.13.29-.79.37.08.13.19.29.26.36.13.14.21.22.21.39,0,.27-.27.31-.35.31-.09,0-.25-.06-.29-.06-.34-.11-.7-.18-1.06-.18-.33,0-.44.04-.51.12-.04.05-.07.1-.07.16,0,.36.87.36,1.12.36.11,0,.32,0,.53-.03.03,0,.09,0,.13,0,.16,0,.25.13.25.26,0,.05,0,.2-.18.26-.09.04-.4.08-.75.08-.63,0-1.05-.1-1.26-.22-.42-.22-.47-.58-.47-.7,0-.39.38-.64.63-.71.24-.06.48-.06.72-.06.46,0,.63.05.77.1-.07-.07-.14-.14-.28-.36-.47.05-.94.07-1.41.07-.35,0-.43,0-.51-.07-.11-.08-.12-.18-.12-.24,0-.17.14-.27.28-.27.09,0,.32.02.41.03.09,0,.19,0,.38,0,.22,0,.46,0,.67-.02-.07-.11-.09-.18-.15-.29-.28.01-.64.02-.84.02-.16,0-.39,0-.46-.02-.11-.03-.2-.13-.2-.25,0-.08.03-.14.09-.21.05-.04.1-.06.21-.06.17,0,.43.01.58.01.18,0,.27,0,.36-.01-.1-.2-.11-.26-.11-.32Z"/><path class="cls-14" d="m15.06,114.42c-3.43,0-5.67-2.79-5.67-6.49,0-3.93,2.61-6.59,5.95-6.59,2.93,0,5.4,2.06,5.4,6.41,0,3.15-1.32,6.67-5.67,6.67Zm.69-31.01c-2.33.14-6.81.37-10.25,5.67-2.06,3.21-3.02,9.33-3.02,14s1.1,17.52,12.71,17.52c8.32,0,11.66-6.95,11.66-12.99,0-7.09-4.44-11.89-10.84-11.89-3.89,0-6.04,1.82-7,2.64.1-2.1.28-4.98,2.47-7.22,1.14-1.15,2.74-1.79,4.49-1.79,1.5,0,2.74.27,4.66,2.33,1.51,1.6,2.11,1.65,2.79,1.65,1.42,0,2.79-1.01,2.79-2.93,0-.78-.18-1.55-.83-2.47-2.42-3.39-6.4-4.07-9.65-4.53Z"/><path class="cls-14" d="m55.67,108.86c0,5.63-4.81,11.08-13.65,11.08-.32,0-3.31-.03-4.13-.5-.58-.32-.89-.95-.89-1.67,0-.52.25-2.02,1.93-2.02.09,0,.2,0,.64.06.89.12,1.79.17,2.65.17,2.57,0,4.97-.43,7.04-2.22,2.03-1.73,2.4-3.55,2.4-4.87,0-4.42-4.59-5.78-7.36-5.78-2.08,0-5.16.67-8.4,2.17-.37.17-2.13,1.04-2.48,1.19-.32.14-.69.2-.98.2-.96,0-1.85-.81-1.85-2.08,0-1.06.75-1.56,1.21-1.85,1.44-.9,7.42-3.43,12.38-3.43,6.4,0,11.48,3.49,11.48,9.55Z"/><path class="cls-14" d="m70.3,101.48c0,1.32.03,4.04-1.13,8.14-.52,1.79-1.5,4.79-2.97,4.79-1.27,0-2.74-1.68-2.74-4.53s1.53-7.36,6.84-8.4Zm3.67-.43c.78.11,2.45.37,4.44,1.75,2.14,1.48,2.83,4.22,2.83,6.04,0,3.4-2.23,6.86-6.04,7.38-.26.03-1.56.14-1.85.2-1.55.26-1.55,1.76-1.55,1.91,0,.52.23,1.09.54,1.41.52.52,1.27.52,1.53.52,4.01,0,11.2-2.96,11.2-11.48,0-3.54-1.21-6.63-4.27-8.97-2.94-2.25-5.92-2.42-7.5-2.42-7.64,0-13.59,5.25-13.59,12.61,0,4.31,2.45,8.43,6.38,8.43,2.83,0,4.59-2.2,5.74-4.68,2.43-5.19,2.22-10.35,2.14-12.69Z"/><path class="cls-14" d="m103.36,99.38c.03,1.18.06,1.58.23,5.1-.37-1.35-.69-2.24-1.79-2.22.23-.37,1.27-1.96,1.56-2.88Zm9.38,8.07c.43.55.86.58.98.58.55,0,1.1-.58,1.1-1.27,0-.55-.58-2.68-.78-3.37-.06-.29-.35-1.39-1.29-1.39-.12,0-.24.03-.32.06.58-.87,1.88-2.8,1.88-3.52,0-.67-.52-1.33-1.3-1.33s-1.13.52-1.47,1.19c-.32.6-.43.78-1.62,2.54-.37-.38-.41-.44-.58-.58.49-.72,1.87-2.8,1.87-3.43,0-.81-.66-1.33-1.35-1.33s-.87.4-1.07.78c-.09.11-1.15,1.96-1.38,2.3-.09-.03-.26-.09-.46-.09-.14,0-.26.03-.38.06-.06-1.62-.06-1.82-.14-2.05-.28-.86-1.12-.86-1.47-.86-.66,0-1.42.23-1.53.98-.03.25-.06,1.41-.06,1.84-.17-.47-.61-.81-1.07-.81-.29,0-.9.11-1.24.75-.38.72-.78,1.41-1.18,2.1-.15-.11-.38-.28-.69-.57.12-.17.72-1.18.87-1.41.58-.9.75-1.21.75-1.62,0-.78-.61-1.21-1.21-1.21-.72,0-1.01.46-1.16.7-.46.66-.92,1.35-1.3,2.08-.14-.11-.43-.29-.83-.29-.95,0-1.44.95-1.44,1.5,0,.63.26.83.52,1.04-.32-.06-.41-.06-1.33-.06v-2.74c0-1.3,0-2.31-1.62-2.31-1.5,0-1.5,1.16-1.5,2.31v2.74h-.58c-1.36,0-2.31,0-2.31,1.67,0,.67.2,1.04.66,1.33.29.2.46.2,1.87.2-.58,2.57-1.67,4.99-2.8,7.33-.23.46-.37.75-.37,1.09,0,1.01,1.06,1.47,1.58,1.47.9,0,1.22-.6,1.93-2.13v8.05c0,1.3,0,2.31,1.62,2.31,1.5,0,1.5-1.12,1.5-2.31v-9c.46.64.81,1.12,1.56,1.12.49,0,.77-.23.98-.4l-.12,2.57c-.03.66-.14,1.53-.2,1.93-.15.81-.67,2.77-.87,3.29-.2.64-.26.79-.26,1.07,0,.9.9,1.47,1.79,1.47s1.18-.55,1.41-1.01c.14-.29.66-1.79,1.1-4.65.26.2,1.15.92,1.55,1.27.44.37.75.61,1.25.61.98,0,1.56-1.01,1.56-1.59,0-.69-.11-.81-1.82-2.13-1.26-1.01-1.5-1.21-2.02-1.21-.14,0-.26.03-.34.06v-.64c0-.63.31-.63.6-.63h4.33c.14.49.69,2.66,1.84,4.99-.26.2-.57.46-1.09.78-.26.17-2.34,1.21-2.63,1.36-.29.14-1.13.55-1.13,1.61,0,.52.32,1.62,1.62,1.62s3.84-1.7,4.96-2.54c1.16,1.42,2.71,2.37,3.87,2.37,1.7,0,2.97-2.69,2.97-4.44,0-1.33-1.38-1.5-1.58-1.5-.95,0-1.21.92-1.27,1.18-.17.72-.23.89-.6.89-.35,0-.5-.23-.93-.83.81-.9,2.48-2.83,2.48-3.7,0-1.06-1.21-1.61-1.68-1.61-.69,0-.95.34-1.24.73-.81,1.12-.92,1.27-1.33,1.72-.43-.95-.6-1.44-.95-2.62h4.38c1.18,0,2.31,0,2.31-1.5s-1.13-1.5-2.31-1.5h-.4l-.43-1.33,1.33-.12Zm-10.33.23c.31.3.69.41.95.41.23,0,.37-.09.43-.15.08.61.08.7.14.96h-5.11c-1.04,0-1.65.26-1.99.78-.11-.17-.72-.95-.84-1.13-.98-1.35-1.59-2.37-1.96-3.05v-1.53c1.38,0,2.3,0,2.3-1.67,0-.38-.08-.64-.17-.81,1.79,1.36,1.99,1.5,2.11,1.59-.32.46-.98,1.44-1.53,2.16-.49.02-1.67.11-1.67,1.41,0,.43.2,1.44,1.47,1.44.18,0,.23,0,.92-.06l4.94-.35Zm4.76,1.22c-.06-.41-.09-.58-.14-1.01l1.62-.14.28,1.16h-1.75Zm-.43-3.84c-.06-.87-.09-2.02-.11-3.31.46.42,1.18,1.12,1.62,1.56-.15.23-.64.89-1.33,1.75h-.17Zm-6.69-.05c.4-.6.55-.86.95-1.5.03.2.29.93.44,1.39l-1.39.11Zm10.5-.23c.11-.14,1.1-1.53,1.1-1.55.03.28.05.4.34,1.44l-1.44.12Z"/><path class="cls-14" d="m127.34,113.88h-5.95v-1.53h5.95v1.53Zm0,2.86v.98c0,.52-.06.84-.81.84-.31,0-1.81-.32-2.13-.32-1.18,0-1.47,1.13-1.47,1.73,0,.72.44,1.13.81,1.3.35.17,2.43.61,3.7.61.55,0,3.32,0,3.32-2.54v-11.77c0-2.11-1.91-2.8-2.75-2.8h-7.56c-2.11,0-2.45,1.73-2.45,2.2v12.58c0,1.44,0,2.3,1.81,2.3,1.58,0,1.58-1.06,1.58-2.3v-2.8h5.95Zm0-7.31h-5.95v-.89c0-.63.5-.63.7-.63h4.56c.55,0,.69.29.69.63v.89Zm8.19-7.73c1.7-.27,4.16-.72,6.29-1.38.44-.12,1.27-.38,1.27-1.41,0-.21,0-1.79-1.59-1.79-.12,0-.29,0-.64.12-.32.09-1.9.58-2.25.66-.43.14-2.6.64-3.09.75v-.52c0-1.3,0-2.31-1.79-2.31-1.56,0-1.56,1.07-1.56,2.31v6.64c0,2.71,2.83,2.71,3.49,2.71h4.64c1.31,0,1.91-.49,2.31-.86.73-.69,1.01-2.65,1.01-3.23,0-.87-.69-1.42-1.67-1.42-1.1,0-1.24.55-1.41,1.36-.23.98-.46,1.1-1.18,1.1h-3.15c-.58,0-.69-.35-.69-.76v-1.96Zm.09,13.62c1.7-.26,2.39-.38,5.51-1.33,1.3-.41,2.11-.81,2.11-1.79,0-.67-.38-1.9-1.5-1.9-.26,0-.49.09-.84.2-1.21.41-2.68.92-3.69,1.21-.23.06-1.33.29-1.59.35v-1.22c0-1.12,0-1.47-.46-1.87-.17-.15-.52-.44-1.27-.44-1.62,0-1.7,1.3-1.7,2.31v7.85c0,.5.14,1.65.89,2.29.78.63,1.91.69,2.45.69h4.42c.4,0,1.79-.17,2.6-.95,1.16-1.1,1.21-3.52,1.21-3.81,0-1.04-.64-1.62-1.7-1.62-1.33,0-1.44.9-1.53,1.48-.21,1.32-.26,1.67-1.62,1.67h-2.34c-.84,0-.95-.5-.95-.93v-2.19Zm-16.39-14.68c-1.1.03-2.08.06-2.08,1.7,0,.96.46,1.62,1.64,1.62.75,0,8.08-.61,9.2-1.18.35.89.61,1.59,1.39,1.59.4,0,1.21-.23,1.61-.58.23-.17.46-.55.46-.99,0-.69-1.3-3.37-1.74-4.29-.89-1.88-1.15-2.43-2.07-2.43-.43,0-1.88.44-1.88,1.53,0,.4.12.57.44,1.15.08.18.43,1.01.52,1.18-.92.2-2.97.46-4.01.58.37-.95,1.21-3.09,1.21-3.72,0-1.36-1.61-1.47-1.91-1.47-1.01,0-1.24.78-1.38,1.24-.64,2.11-.69,2.37-1.41,4.07Z"/><path class="cls-5" d="m31.35,65.81c0-5.37-6.68-9.72-14.92-9.72s-14.91,4.36-14.91,9.72,6.68,9.74,14.91,9.74c.91,0,1.79-.05,2.65-.16l4.66,2.06-1.36-2.72c5.27-1.49,8.96-4.92,8.96-8.92Z"/><path class="cls-61" d="m1.19,65.81c0,5.54,6.84,10.06,15.23,10.06h0c.85,0,1.73-.06,2.6-.15.14.07,5.41,2.39,5.41,2.39,0,0-1.33-2.66-1.59-3.18,5.37-1.64,8.82-5.19,8.82-9.12,0-5.54-6.83-10.05-15.23-10.05s-15.23,4.52-15.23,10.05Zm.64,0c0-5.19,6.54-9.4,14.59-9.4s14.59,4.22,14.59,9.4c0,3.73-3.43,7.11-8.72,8.62l-.37.1s.74,1.46,1.13,2.26c-1.11-.49-3.93-1.74-3.93-1.74h-.08c-.88.11-1.76.17-2.61.17-8.05,0-14.59-4.23-14.59-9.42Z"/><path class="cls-61" d="m92.21,74.68h-3.87v-2.06s.02-1.53-1.58-1.53c0,0-1.56.01-1.56,1.54v2.09h-5.07s-1.26.06-1.26,1.59c0,0-.05,1.35,1.28,1.35h4.77s.26,3.92-5.11,7.64c0,0-1.47.77-.58,2.24,0,0,.83,1.08,1.99.46,0,0,6.03-3.14,6.84-10.34h2.86s.41-.06.41.49c0,0-.02,3.87-.57,5.89,0,0-.2,1.14-1.92.96,0,0-1.61-.15-1.57,1.58,0,0,.04,1.33,1.61,1.43,0,0,4.2.55,4.89-3.31,0,0,.9-5.21.61-8.33,0,0-.14-1.69-2.16-1.69Z"/><path class="cls-61" d="m109.91,72.06h-10.34s-2.46-.06-2.46,2.33v3.89s-.08,1.67,1.68,1.67c0,0,1.59.05,1.59-1.67v-3.15s-.02-.29.25-.31h7.83s.54-.04.53.55c0,0-.39,7.22-6.28,9.91,0,0-1.47.62-.74,2.19,0,0,.89,1.19,2.48.41,0,0,6.32-2.52,7.81-12.72,0,0,.54-3.09-2.34-3.09Z"/><path class="cls-61" d="m118.64,78.21l-.84-1.53s-.64-1.57-1.95-.8c0,0-1.28.61-.33,2.15l.88,1.5s.6,1.08,1.8.37c0,0,.94-.51.45-1.68Z"/><path class="cls-61" d="m120.2,78.58s.61,1.08,1.8.37c0,0,.94-.5.45-1.68l-.84-1.53s-.65-1.56-1.96-.81c0,0-1.28.62-.33,2.16l.88,1.49Z"/><path class="cls-61" d="m126.85,75.22s-1.48-.3-1.81,1.46c0,0-1.05,6.29-6.71,8.46,0,0-1.29.57-.69,1.86,0,0,.53.95,1.9.44,0,0,6.6-2.25,8.36-10.58,0,0,.27-1.25-1.04-1.64Z"/><path class="cls-61" d="m142.71,73.51h-4.96s1.29-1.67-.33-2.38c0,0-1.49-.68-2.23.82,0,0-2.27,4.34-4.94,6.61,0,0-1.23,1.03-.17,2.11,0,0,.97.91,2.15-.02,0,0,2.76-2.64,3.82-4.29h4.37s.47.12.35.53c0,0-1.32,4.93-7.75,8.79,0,0-1.32.7-.59,2.05,0,0,.62,1.15,2.15.47,0,0,7.25-3.02,9.92-12.62,0,0,.5-2.03-1.79-2.05Z"/><path class="cls-61" d="m39.46,63v.92c0,.3-.06,1.83-.17,2.34-.21.92-.83.94-1.16.94-.37,0-.75-.04-1.11-.09l-.05-.95c.24.04.59.1.91.1.39,0,.43-.1.5-.42.02-.11.12-1.48.12-1.62v-.31h-1.3c-.06.31-.18.97-.56,1.68-.57,1.03-1.3,1.48-1.58,1.66l-.68-.69c1.22-.82,1.6-1.41,1.81-2.64h-1.51v-.9h1.62c.02-.44.02-.7.04-1.02h1.02c-.03.44-.05.65-.07,1.02h2.16Zm-.91-.18c-.07-.47-.14-.71-.22-.96l.52-.07c.1.23.22.73.25.94l-.56.1Zm.86-.09c-.04-.26-.15-.67-.25-.92l.54-.07c.13.36.19.61.24.89l-.53.1Z"/><path class="cls-61" d="m40.88,66.43c.34-.14,1.18-.48,2.08-1.42.76-.81,1.05-1.53,1.18-1.86h-2.91v-.91h4.17c-.07.42-.24,1.34-1.08,2.56.7.5,1.36,1.06,1.97,1.67l-.81.8c-.56-.67-1.32-1.4-1.73-1.76-.09.11-.31.35-.64.64-.8.71-1.39.95-1.7,1.08l-.54-.8Z"/><path class="cls-61" d="m51.06,66.47h-.34v-1.04h.34v1.04Zm-2.05-1.78v1.78h-.38v.82h4.34v-.82h-.21v-1.78h-3.76Zm1.09,1.78h-.35v-1.04h.35v1.04Zm1.91,0h-.34v-1.04h.34v1.04Zm-4.19.96c.51-.68.85-1.47,1.07-2.06l-.69-.52c-.16.4-.44,1.1-.96,1.76l.58.82Zm4.83-5.47h-3.52v2.45h3.52v-2.45Zm-.85.96h-1.82v-.29h1.82v.29Zm0,.83h-1.82v-.3h1.82v.3Zm-2.82-1.39c-.29-.24-.75-.47-1.08-.6l-.48.69c.31.14.74.41,1.03.67l.53-.76Zm-.22,1.53c-.3-.23-.69-.46-1.04-.6l-.47.72c.5.25.74.43.99.64l.52-.76Z"/><path class="cls-61" d="m57.23,62.48s0,.07,0,.09c0,.07.3,1.06.34,1.18.33-.3.81-.77,1.24-1.31l.79.6c-.43.52-1.3,1.27-1.63,1.51.44.65,1.04,1.15,1.68,1.6l-.53.91c-.84-.56-1.62-1.49-1.91-2.26v2.04c0,.43-.25.6-.57.6h-1.2l-.19-.92h.87c.08,0,.17-.05.17-.16v-4.59h.92v.71Zm-3.26.56h2.12v.9c-.26,1.82-1.06,2.6-1.73,3.05l-.52-.87c.19-.13.62-.41.98-.99.31-.52.38-.98.41-1.19h-1.26v-.9Z"/><path class="cls-61" d="m64.85,65.5v.89h-1.48v-.89h1.48Zm1.43-1.17c-.87-.42-1.35-.87-1.69-1.35h-.91c-.41.57-1.02,1.07-1.89,1.42l.47.82c.12-.06.15-.08.22-.11v2.33h.89v-.25h1.48v.25h.89v-2.33c.07.05.09.06.17.11l.37-.9Zm-3.13.36c.37-.29.73-.62.97-1.03.14.22.34.52.99,1.03h-1.97Zm-2.52-2.26c.38.16.88.52,1.03.66l.54-.75c-.35-.28-.7-.48-1.08-.62l-.49.72Zm-.22,1.55c.37.17.78.5.99.69l.52-.74c-.39-.34-.81-.55-1.02-.65l-.49.7Zm1.08.86c-.23.54-.7,1.39-1.08,1.83l.64.73c.11-.14.32-.4.62-.98.27-.52.41-.85.47-1.04l-.66-.54Zm4.78-2.1c-.51-.29-.9-.74-1.13-1.01l-.71.39c.33.48.78.98,1.35,1.35l.49-.72Zm-3.16-.99c-.24.39-.69.77-1.19,1.03l.54.69c.6-.34,1.12-.91,1.39-1.37l-.73-.35Z"/><path class="cls-61" d="m70.35,64.96c.59-.03.66-.03,1.01-.04.14.18.2.25.29.42h-1.3v-.37Zm2.05-.13c-.15-.2-.33-.42-.85-.91h.36v-.32h.67v-1.46h-2.23v-.37h-.9v.37h-2.21v1.46h.65v.32h.59c-.06.16-.1.24-.18.41h-.64c-.05,0-.09,0-.22-.01l.07.73h.36c.24,0,1.35-.05,1.57-.05v.34h-1.93v.75h1.93v.39h-2.37v.8h5.65v-.8h-2.4v-.39h1.95v-.75h-.63l.74-.51Zm-1.93-.78c.17.14.2.16.29.25-.49.01-.99.01-1.5.01.14-.23.15-.29.2-.4h1.23l-.22.14Zm-2.33-.86v-.28h3.55v.28h-3.55Z"/><path class="cls-61" d="m74.95,62.83v1.11h-.4v-1.11h.4Zm.85.58v.69h.58c0,.12,0,.15,0,.26h-.64v.67h.55c-.12.49-.34.95-.66,1.35v-4.35h-1.84v5.08h.76v-.43h.78c-.12.11-.18.15-.32.25l.67.56c.18-.17.36-.33.61-.65l.27.64c.39-.1.76-.2,1.21-.43.31.17.64.31,1.22.47l.45-.84c-.33-.02-.57-.05-.91-.14.24-.25.38-.43.53-.71v-.55h-2.01c.03-.1.04-.13.06-.24h2.22v-.67h-2.13c0-.12,0-.15,0-.26h2.04v-.69h-.29c.16-.31.23-.48.3-.67l-.78-.16c.29-.04.47-.07.8-.14l-.39-.7c-1.15.23-2.12.29-3.2.31l.2.77c.24,0,.28,0,.43-.02l-.46.08c.12.24.2.48.21.53h-.28Zm-.85,1.27v1.17h-.4v-1.17h.4Zm1.49-1.27l.42-.09c-.07-.23-.17-.45-.21-.54.37-.02.88-.07,1.78-.19-.1.34-.19.58-.32.82h-.84l.67-.11c-.03-.21-.13-.51-.16-.61l-.76.13c.11.23.16.45.2.59h-.79Zm1.79,2.42c-.1.14-.18.24-.42.4-.19-.14-.29-.23-.43-.4h.85Zm-1.48.28c.17.23.26.33.36.42-.26.09-.45.13-.71.17.13-.19.22-.32.35-.59Z"/><path class="cls-61" d="m83.11,64.61h-1.53v-.27h1.53v.27Zm.34.91c.02-.1.02-.12.03-.24h2.45v-.67h-1.92v-.27h1.55v-1.45h-4.85v2.1c0,.37-.06.74-.14,1.1-.1.4-.27.71-.37.9l.79.5c.09-.13.2-.3.33-.68l.43.69c.4-.18,1.15-.57,1.5-1.36h1.4c-.01.46-.05.55-.28.55h-.77l.22.77h1.04c.18,0,.47-.12.59-.48.08-.27.14-1.08.15-1.46h-2.15Zm-.84-.24c-.11.57-.37,1.06-1.24,1.4.22-.71.22-1.16.22-1.4h1.03Zm2.06-1.5h-3.09v-.31h3.09v.31Zm-4.4-1.82v.74h5.67v-.74h-5.67Z"/><path class="cls-61" d="m89.98,64.61h1.01c-.4.38-.71.76-.93,1.1-.27.42-.33.62-.36.76v-.65h-.98v-.29h.86v-1.62l.35.38.06-.06v.37Zm.36-.83c.1-.14.17-.28.31-.54h1.87v-.88h-1.53c.07-.22.09-.34.13-.52l-.89-.08c-.1.59-.32,1.14-.67,1.61v-.19h-.86v-.25h.98v-.76h-.98v-.39h-.84v.39h-.98v.76h.98v.25h-.86v2.36h.86v.29h-1.04v.78h1.04v.85h.84v-.85h.96c-.06.71.42.78.86.78h1.12c.11,0,.48-.03.66-.26.17-.23.22-.58.25-1.25l-.84-.22c0,.18-.05.59-.08.67-.02.07-.07.18-.21.18h-.46c-.09,0-.22-.02-.22-.15,0-.27.66-1.1,1.5-1.77v-.83h-1.91Zm-1.54,0v.29h-1v-.29h1Zm0,.82v.3h-1v-.3h1Z"/><path class="cls-61" d="m95.08,65.6c-.12-.14-.17-.22-.28-.39.05-.58.05-1.25.05-1.35.13-.1.24-.2.42-.36v1.28h1.34v.25h-1.54v.58Zm1.54,1.83h.83v-1.14c.42.49.83.77,1.3,1.04l.46-.79c-.39-.15-.79-.33-1.33-.77h1.21v-.75h-1.64v-.25h1.45v-1.34h-1.74v1.16h-.2v-1.16h-1.61c.07-.07.1-.11.18-.2l-.34-.67c-.08.11-.13.19-.33.37v-1.19h-.76v2.19c0,1.21-.1,2.01-.75,2.75l.61.77c.17-.2.44-.52.66-1.21.16.24.22.32.31.43l.04-.06.38.72c.22-.13.77-.46,1.28-1.01v1.09Zm-.31-3.47v.29h-.4v-.29h.4Zm-.09,1.82c-.27.23-.69.54-1.18.72l.35-.59c-.08-.07-.09-.08-.15-.14h.98Zm2.04-1.82v.29h-.46v-.29h.46Zm-2.69-.72h3.07v-1.33h-3.07v1.33Zm2.25-.78v.31h-1.44v-.31h1.44Zm-4.34.46c.02.56,0,1.13-.14,1.68l.48.29c.07-.23.14-.52.17-1.55,0-.16,0-.26,0-.36l-.5-.05Z"/><path class="cls-61" d="m102.21,63.76c.31-.31.61-.72.89-1.09.01.55.05.95.08,1.26-.09-.35-.12-.45-.19-.61l-.45.1c.03.07.05.11.1.32l-.43.02Zm1.18,2.14c-.11-.07-.3-.19-.8-.3,0-.04,0-.17.02-.26h.75c.11.51.25.92.28,1.03-.46.27-.8.34-1,.39l.32.7c.21-.07.53-.17,1.03-.47.3.38.55.48.84.48.54,0,.79-.45.93-.75l-.39-.72c-.06.12-.34.65-.54.65-.03,0-.13-.02-.22-.14.47-.41.64-.73.74-.9l-.63-.28h.96v-.76h-.52c-.04-.1-.12-.27-.21-.45.13-.02.2-.02.28-.04,0,.03.03.14.04.2l.48-.14c-.08-.34-.17-.7-.29-.98l-.45.12c.04.1.06.15.1.29-.25.02-.37.04-.48.04.33-.33.58-.68.92-1.19l-.51-.2c-.09.15-.17.26-.33.49-.04-.05-.07-.08-.14-.18.12-.14.3-.43.45-.67l-.57-.14c-.04.08-.09.2-.25.43-.03-.03-.04-.04-.09-.09l-.23.35c0-.3,0-.5,0-.66h-.8c0,.24,0,.42,0,.65l-.37-.17c-.07.11-.13.2-.3.46-.08-.1-.11-.12-.15-.16.07-.09.28-.37.43-.64l-.57-.14c-.05.09-.09.19-.25.43-.02-.01-.09-.07-.1-.08l-.34.55c.07.06.1.08.15.12h-.28v-1h-.77v1h-.51v.82h.48c-.04.21-.23.96-.56,1.48l.26,1.28c.09-.16.22-.4.34-.83v1.92h.77v-2.24c.11.23.14.28.22.39l.14-.61v.35h.15c-.03.9-.12,1.21-.37,1.59l.64.54c.19-.26.38-.58.46-1.2.33.12.48.22.59.32l.25-.69Zm.58-2.25c-.06-.52-.07-.77-.07-.91.09.09.31.3.44.47-.08.11-.16.22-.36.44h-.01Zm-2.37.68c.21-.01,1.06-.1,1.14-.1,0,.04.01.07.03.2l.44-.1c0,.07,0,.1.03.25h-1.56c-.17-.18-.3-.39-.37-.51v-.47h.34v-.77c.1.1.21.21.38.39-.11.15-.28.36-.42.54h-.09l.02.07.06.5Zm2.47.25c-.02-.12-.04-.25-.05-.36.07,0,.14-.01.31-.03.03.06.14.26.2.39h-.47Zm.64.76c-.16.24-.22.31-.41.51-.05-.16-.08-.34-.12-.51h.52Z"/><path class="cls-61" d="m7.38,62.68c.15.06.35.14.35.35,0,.14-.1.28-.24.28-.07,0-.13-.02-.22-.06-.93-.3-1.03-.32-1.76-.46-.22-.05-.24-.21-.24-.27,0-.06,0-.15.1-.22.07-.05.11-.06.21-.06.16,0,1.36.28,1.81.44Zm-.24,1.2c.31.11.43.17.43.36,0,.15-.1.29-.25.29-.07,0-.13-.03-.25-.07-.63-.24-1.21-.34-1.6-.41-.08-.02-.28-.05-.28-.28,0-.09.04-.29.3-.29.05,0,.78.1,1.66.4Zm.18,1.34c.43.17.52.23.52.42,0,.15-.1.31-.27.31-.08,0-.16-.03-.24-.08-.81-.37-1.84-.51-2.13-.55-.08,0-.28-.03-.28-.28,0-.17.11-.29.28-.29s1.27.16,2.11.48Z"/><path class="cls-61" d="m9.18,63.09c-.24,0-.3,0-.38-.08-.06-.06-.08-.13-.08-.2,0-.13.08-.21.13-.24.06-.04.14-.04.33-.04h1.7c.14,0,.28.03.38.09.19.11.19.31.19.38,0,.1-.05.61-.53,1.29.24.2.43.34.77.72.38.41.42.52.42.63,0,.17-.16.3-.31.3-.12,0-.18-.07-.25-.15-.29-.39-.62-.74-1-1.05-.76.78-1.64,1.19-1.86,1.19-.14,0-.29-.12-.29-.32s.12-.24.24-.29c.35-.13.99-.44,1.49-.98.56-.6.66-1.12.66-1.16,0-.08-.03-.08-.13-.08h-1.47Z"/><path class="cls-61" d="m13.4,65.51c0,.24,0,.3-.09.38-.04.03-.1.08-.22.08-.15,0-.2-.04-.24-.08-.08-.07-.08-.15-.08-.38v-2.81c0-.24,0-.3.08-.38.04-.05.1-.08.23-.08.14,0,.19.03.23.08.09.08.09.14.09.38v.71c.4.08.99.28,1.38.46.21.1.36.17.36.35s-.11.32-.29.32c-.05,0-.08-.02-.42-.16-.34-.15-.69-.28-1.04-.36v1.5Z"/><path class="cls-61" d="m18.07,62.77c0-.23,0-.29.09-.37.03-.03.09-.08.2-.08.05,0,.17,0,.25.13.04.06.04.14.04.33v.4h.37c.23,0,.29,0,.38.07.03.04.07.11.07.21,0,.11-.05.19-.12.24-.06.04-.14.04-.33.04h-.37v.22c0,.55-.02,1.2-.77,1.68-.41.26-.83.31-.95.31-.19,0-.3-.13-.3-.33s.16-.25.24-.26c.54-.13.67-.17.88-.37.22-.22.32-.53.32-1.02v-.23h-1.06v.38c0,.23,0,.3-.08.37-.03.04-.09.08-.2.08-.08,0-.17-.02-.24-.12-.04-.06-.04-.15-.04-.33v-.38h-.4c-.23,0-.3,0-.38-.08-.03-.04-.08-.1-.08-.2,0-.11.05-.19.13-.24.06-.04.14-.04.33-.04h.4v-.4c0-.23,0-.29.08-.37.03-.03.09-.08.2-.08.08,0,.18.03.24.13.04.06.04.14.04.33v.4h1.06v-.4Z"/><path class="cls-61" d="m22.87,62.91c.55,0,.6.36.6.79,0,.84-.26,1.38-.69,1.74-.43.37-.97.5-1.39.5-.1,0-.38,0-.38-.3,0-.25.17-.31.28-.31.52,0,.84-.12,1.03-.29.38-.32.54-.81.54-1.3,0-.26-.03-.26-.19-.26h-1.93c-.13,0-.13.01-.13.16v.38c0,.24,0,.3-.08.38-.03.03-.09.08-.2.08-.05,0-.17,0-.25-.14-.04-.06-.04-.14-.04-.33v-.64c0-.15.07-.29.19-.37.1-.08.2-.1.36-.1h.85v-.24c0-.24,0-.3.09-.38.03-.03.09-.08.21-.08.15,0,.19.04.24.08.08.08.08.15.08.38v.24h.85Z"/><path class="cls-61" d="m25.72,62.71c0-.24,0-.29.08-.38.04-.04.09-.08.22-.08.15,0,.2.04.23.08.08.08.08.15.08.38v.53h1.06c.23,0,.3,0,.37.08.06.06.08.13.08.21,0,.14-.09.22-.12.24-.06.04-.15.04-.33.04h-1.06v.16c0,.35,0,1.14-.85,1.75-.16.11-.44.3-.62.3-.19,0-.3-.17-.3-.33,0-.16.06-.2.29-.31.74-.36.86-.8.86-1.39v-.18h-1.18c-.24,0-.3,0-.37-.08-.06-.06-.08-.13-.08-.2,0-.15.09-.23.13-.25.06-.04.14-.04.32-.04h1.18v-.53Z"/><path class="cls-61" d="m10.48,67.78c0,.18.01.24.03.76-.05-.2-.1-.33-.26-.33.03-.05.19-.29.23-.43Zm1.39,1.2c.06.08.13.09.14.09.09,0,.16-.09.16-.19,0-.08-.09-.4-.12-.5,0-.05-.05-.21-.19-.21-.02,0-.04,0-.04.01.08-.13.28-.42.28-.53,0-.09-.08-.2-.2-.2s-.16.08-.22.18c-.04.09-.06.12-.24.38-.05-.05-.06-.05-.09-.09.07-.11.28-.41.28-.51,0-.12-.1-.2-.2-.2-.1,0-.12.06-.16.11,0,.02-.16.29-.2.34-.02,0-.04-.01-.07-.01-.02,0-.04,0-.05.01-.01-.24-.01-.27-.02-.31-.04-.12-.17-.12-.22-.12-.1,0-.21.03-.23.15,0,.03-.01.21-.01.26-.02-.07-.1-.12-.16-.12-.04,0-.14.02-.19.11-.05.1-.12.21-.17.31-.02,0-.06-.04-.1-.09.01-.02.11-.17.13-.2.08-.14.11-.18.11-.24,0-.12-.09-.18-.18-.18-.11,0-.15.07-.17.1-.07.1-.14.2-.2.31-.02-.02-.07-.03-.13-.03-.14,0-.22.13-.22.22,0,.1.04.12.08.15-.05,0-.06,0-.2,0v-.4c0-.19,0-.35-.24-.35-.23,0-.23.18-.23.35v.4h-.08c-.2,0-.34,0-.34.25,0,.1.03.16.09.2.05.04.07.04.29.04-.09.37-.25.74-.42,1.08-.03.06-.05.11-.05.16,0,.15.16.22.23.22.14,0,.18-.1.29-.32v1.2c0,.18,0,.34.24.34.23,0,.23-.17.23-.34v-1.34c.06.1.11.17.23.17.07,0,.11-.04.14-.06v.38c-.03.1-.04.23-.05.3-.02.11-.1.41-.13.48-.03.1-.04.12-.04.16,0,.14.13.22.27.22.13,0,.17-.08.21-.15.02-.04.1-.27.16-.69.04.03.18.14.23.19.07.06.11.09.19.09.15,0,.23-.15.23-.23,0-.1-.02-.12-.27-.32-.19-.15-.22-.18-.3-.18-.02,0-.04,0-.05,0v-.09c0-.1.04-.1.09-.1h.64c.02.07.11.39.28.74-.04.03-.09.07-.17.12-.04.03-.35.18-.39.2-.04.02-.17.09-.17.24,0,.07.05.24.24.24s.57-.25.74-.37c.17.21.4.35.57.35.26,0,.45-.4.45-.66,0-.19-.2-.22-.23-.22-.14,0-.18.13-.19.17-.03.11-.04.14-.1.14-.05,0-.07-.04-.13-.13.11-.13.37-.42.37-.55,0-.16-.18-.24-.25-.24-.1,0-.14.05-.18.11-.12.17-.14.19-.2.26-.06-.14-.09-.22-.14-.39h.66c.17,0,.34,0,.34-.23s-.17-.23-.34-.23h-.07l-.06-.19h.2Zm-1.53.04s.1.06.14.06c.03,0,.05,0,.07-.02.02.09.02.11.02.14h-.76c-.16,0-.25.05-.29.12-.02-.02-.11-.14-.13-.17-.14-.2-.23-.35-.29-.45v-.22c.2,0,.34,0,.34-.26,0-.05-.01-.09-.03-.12.27.2.3.22.31.24-.05.07-.14.21-.23.32-.07,0-.25.02-.25.21,0,.07.03.21.22.21.02,0,.03,0,.14,0l.73-.05Zm.7.17c0-.06,0-.07-.02-.14l.24-.03.04.17h-.26Zm-.06-.56c0-.13,0-.31-.02-.49.07.06.18.16.24.22-.02.04-.09.14-.2.27h-.03Zm-.99,0c.06-.1.08-.13.14-.23,0,.02.04.14.07.21l-.21.02Zm1.56-.04s.17-.23.17-.23c0,.04,0,.06.05.21h-.21Z"/><path class="cls-61" d="m14.04,69.94h-.88v-.23h.88v.23Zm0,.43v.14c0,.08,0,.12-.12.12-.05,0-.27-.05-.32-.05-.17,0-.22.16-.22.26,0,.11.07.17.12.19.05.03.36.09.55.09.09,0,.49,0,.49-.38v-1.75c0-.31-.29-.41-.41-.41h-1.12c-.31,0-.36.26-.36.33v1.87c0,.21,0,.34.27.34.24,0,.24-.16.24-.34v-.42h.88Zm0-1.09h-.88v-.14c0-.09.07-.09.1-.09h.68c.08,0,.1.04.1.09v.14Zm1.22-1.15c.25-.03.62-.1.93-.2.07-.02.19-.06.19-.21,0-.03,0-.27-.23-.27-.02,0-.05,0-.1.02-.05.01-.28.08-.33.1-.06.02-.39.09-.46.11v-.07c0-.2,0-.34-.27-.34-.23,0-.23.15-.23.34v.98c0,.4.42.4.52.4h.69c.19,0,.29-.07.34-.13.11-.1.15-.38.15-.47,0-.13-.1-.21-.25-.21-.17,0-.18.08-.21.2-.03.15-.06.16-.17.16h-.47c-.09,0-.1-.05-.1-.11v-.29Zm.02,2.02c.25-.03.35-.05.82-.19.19-.06.31-.12.31-.27,0-.1-.06-.29-.22-.29-.04,0-.08.02-.13.03-.18.06-.4.14-.55.18-.03.02-.2.04-.23.05v-.18c0-.17,0-.22-.07-.28-.03-.02-.08-.07-.19-.07-.24,0-.25.2-.25.35v1.17c0,.07.02.24.13.34.12.09.29.1.37.1h.66c.06,0,.26-.02.38-.14.17-.16.19-.52.19-.56,0-.16-.1-.24-.26-.24-.2,0-.21.12-.23.22-.03.2-.04.25-.23.25h-.35c-.12,0-.14-.07-.14-.14v-.33Zm-2.44-2.18c-.16,0-.31,0-.31.25,0,.14.07.25.25.25.11,0,1.2-.1,1.37-.18.05.12.09.23.21.23.06,0,.18-.04.24-.09.03-.02.06-.08.06-.14,0-.11-.19-.51-.25-.64-.14-.28-.17-.36-.31-.36-.07,0-.28.06-.28.22,0,.06.01.09.06.17.01.03.07.15.08.17-.13.03-.44.08-.6.09.06-.15.18-.46.18-.56,0-.21-.24-.22-.28-.22-.15,0-.18.12-.21.19-.09.31-.1.35-.21.6Z"/><path class="cls-61" d="m17.79,70.8c0,.15,0,.34-.26.34s-.26-.2-.26-.34v-1.51c-.1.21-.16.29-.33.29-.13,0-.24-.07-.24-.22,0-.08.03-.18.16-.42.27-.47.48-.98.64-1.5.05-.15.15-.19.24-.19.24,0,.25.25.25.26,0,.18-.07.35-.22.69v2.6Zm1.86-3.23c0-.15,0-.34.26-.34s.26.19.26.34v.31h.14c.13,0,.2,0,.27.07.06.05.08.13.08.19,0,.1-.05.18-.13.21-.05.03-.1.03-.22.03h-.14v2.23c0,.39-.19.52-.59.52-.15,0-.53-.03-.68-.15-.08-.08-.1-.16-.1-.24,0-.14.12-.22.21-.22.04,0,.08,0,.12.02.13.03.31.08.4.08.13,0,.13-.01.13-.14v-2.1h-1.3c-.13,0-.34,0-.34-.25,0-.1.05-.18.12-.21.06-.04.11-.04.22-.04h1.3v-.31Zm-.68,1.64c.07.12.18.28.18.44,0,.07-.05.26-.24.26-.16,0-.22-.13-.25-.21-.12-.26-.14-.29-.29-.53-.03-.04-.06-.09-.06-.15,0-.07.03-.15.09-.19.03-.04.08-.05.15-.05.15,0,.2.07.42.43Z"/><path class="cls-61" d="m32.4,73.85c3.37.64,3.89.74,8.32,2.18l.16.06c.36.12.6.2.89.2.75,0,1.25-.72,1.25-1.4,0-1.05-1.08-1.46-1.73-1.7h0c-2.17-.8-7.8-2.1-8.58-2.1-.47,0-.7.03-1.02.28-.33.27-.51.65-.51,1.11,0,.27.09,1.15,1.22,1.37Z"/><path class="cls-61" d="m32.15,79.78h.03c1.57.27,4.49.75,7.56,1.97h.03c.56.22.86.34,1.22.34.81,0,1.24-.76,1.24-1.47,0-.99-.63-1.26-2.07-1.76h0c-4.2-1.44-7.65-1.89-7.85-1.89-1.44,0-1.52,1.19-1.52,1.44,0,1.09.95,1.28,1.35,1.36Z"/><path class="cls-61" d="m40.99,85.18h0c-4.06-1.55-9.21-2.27-10-2.27-.87,0-1.45.59-1.45,1.47,0,1.28,1.02,1.39,1.4,1.43.6.07,5.94.73,10.08,2.62.38.18.74.35,1.17.35.82,0,1.33-.81,1.33-1.55,0-.95-.54-1.28-2.52-2.04Z"/><path class="cls-61" d="m57.48,80.65c2.43-3.46,2.47-5.99,2.47-6.1,0-.32,0-1.32-.91-1.87-.56-.36-1.29-.43-1.81-.43h-8.06c-.92,0-1.3,0-1.6.22-.42.29-.64.7-.64,1.2,0,.4.14.74.41,1,.41.41.68.41,1.84.41h6.97c.49,0,.55.01.55.29,0,.34-.57,2.76-3.08,5.45-2.69,2.87-6.05,4.28-7.02,4.64-.5.19-1.18.44-1.18,1.43s.74,1.59,1.43,1.59c1.13,0,5.25-1.98,8.8-5.6,1.65,1.39,3.22,3.05,4.66,4.93.31.39.62.72,1.21.72.74,0,1.56-.58,1.56-1.43,0-.59-.29-1.18-1.99-3.03-1.58-1.72-2.43-2.44-3.6-3.39Z"/><path class="cls-61" d="m74.95,79.26c-1.94-.86-4.66-1.76-6.5-2.16v-3.57c0-1.09,0-1.45-.41-1.84-.23-.21-.47-.38-1.18-.38-.63,0-.93.22-1.09.39-.41.41-.41.71-.41,1.83v12.91c0,1.09,0,1.45.41,1.84.23.22.48.39,1.18.39.58,0,.89-.21,1.08-.39.42-.43.42-.73.42-1.84v-6.35c1.5.36,3.08.91,4.84,1.7l.31.14c1.33.57,1.44.62,1.7.62.81,0,1.42-.66,1.42-1.54,0-.95-.82-1.31-1.77-1.74Z"/><path class="cls-61" d="m22.24,67.5c0-.18.15-.26.27-.26.08,0,.17.04.23.13.04.06.16.35.19.41.27-.03.41-.05.64-.09.23-.04.28-.04.31-.04.14,0,.24.12.24.27,0,.07-.03.22-.21.27-.18.04-.6.1-.72.11.04.05.1.18.16.26.17-.03.32-.05.74-.14.02,0,.07-.02.12-.02.11,0,.23.12.23.27,0,.24-.13.29-.79.37.08.13.19.29.26.36.13.14.21.22.21.39,0,.27-.27.31-.35.31-.09,0-.25-.06-.29-.06-.34-.11-.7-.18-1.06-.18-.33,0-.44.04-.51.12-.04.05-.07.1-.07.16,0,.36.87.36,1.12.36.11,0,.32,0,.53-.03.03,0,.09,0,.13,0,.16,0,.25.13.25.26,0,.05,0,.2-.18.26-.09.04-.4.08-.75.08-.63,0-1.05-.1-1.26-.22-.42-.22-.47-.58-.47-.7,0-.39.38-.64.63-.71.24-.06.48-.06.72-.06.46,0,.63.05.77.1-.07-.07-.14-.14-.28-.36-.47.05-.94.07-1.41.07-.35,0-.43,0-.51-.07-.11-.08-.12-.18-.12-.24,0-.17.14-.27.28-.27.09,0,.32.02.41.03.09,0,.19,0,.38,0,.22,0,.46,0,.67-.02-.07-.11-.09-.18-.15-.29-.28.01-.64.02-.84.02-.16,0-.39,0-.46-.02-.11-.03-.2-.13-.2-.25,0-.08.03-.14.09-.21.05-.04.1-.06.21-.06.17,0,.43.01.58.01.18,0,.27,0,.36-.01-.1-.2-.11-.26-.11-.32Z"/><path class="cls-39" d="m263.17,86.56c3.35,9.52-6.29,21.61-21.54,26.98-15.25,5.37-30.34,1.99-33.7-7.54-3.36-9.54,6.29-21.61,21.54-26.98,15.25-5.37,30.34-2,33.7,7.54Z"/><path class="cls-20" d="m228.71,93.21v-.03c.27-.17.56-.4,1.13-.99h2.9c-.09.1-.65.74-.91,1.02h-3.13Zm.84-2.86c-.7,1.16-1.78,1.91-2.41,2.32l.62.54h-.05v4.9h1.33v-3.78h1.07c-.05,1.24-.42,1.7-1.02,2.15l.77.87c.83-.57,1.31-1.21,1.38-3.02h.8v1.95c0,.28.02.82.8.82h1.57v1.01h1.32v-4.9h-2.12l.86-.92v-1.17h-3.76c.22-.32.31-.47.39-.68l-1.56-.08Zm6.95,11.79c-1.63-.37-3.06-1.04-3.73-2.34h3.58v-1.36h-4.15c.05-.28.09-.53.15-.97h-1.44c0,.33-.01.58-.07.97h-3.61v1.36h3.15c-.85,1.5-2.82,2.16-3.52,2.41l.77,1.23c.82-.28,2.86-.96,3.98-3.28.77,1.67,2.37,2.68,4.21,3.28l.68-1.3Zm-2.08-7.81v1.59h-.86c-.28,0-.37-.07-.37-.28v-1.31h1.23Zm-11.21,4.83c.85-.27,1.17-.38,1.6-.51v3.01c0,.18,0,.29-.26.29h-1.31l.14,1.49h1.74c.67,0,1.13-.25,1.13-1.16v-4.15c.55-.23.82-.34,1.15-.48l-.08-1.35c-.11.04-.85.29-1.06.38v-2.61h.98v-1.32h-.98v-2.39h-1.44v2.39h-1.67v1.32h1.67v3.09c-.84.28-1.29.38-1.77.49l.16,1.51Z"/><path class="cls-20" d="m244.42,103.04c-.42-.43-1.2-1.22-2.52-2.24-1.95,1.73-3.38,2.35-3.98,2.59l-.95-1.32c2.11-.68,3.11-1.52,3.79-2.11-1.13-.8-1.95-1.24-2.47-1.52l.82-1.09c.47.25,1.31.67,2.67,1.62.68-.76,1.08-1.36,1.44-1.89l1.27.67c-.22.37-.59.97-1.58,2.04,1.3.96,2.08,1.65,2.52,2.03l-1.02,1.21Zm-4.64-10.42c-.43.54-.89,1.04-1.75,1.85l-1.06-1.04c.89-.7,1.88-1.63,2.68-3.27l1.53.36c-.26.43-.32.56-.49.8h9.6v1.3h-10.51Zm-2.48,2.85h10.6c-.04.46-.08.99-.08,1.97,0,2.52.38,4.2.78,4.2.31,0,.47-.92.64-2.11l1.27.6c-.51,2.83-1.17,3.11-1.98,3.11-.66,0-1.04-.33-1.23-.6-.62-.85-1-2.8-1-4.55,0-.61,0-1.02.02-1.31h-9.02v-1.31Zm11.98-2.04v1.27h-9.7v-1.27h9.7Z"/><path class="cls-39" d="m228.71,93.21v-.03c.27-.17.56-.4,1.13-.99h2.9c-.09.1-.65.74-.91,1.02h-3.13Zm.84-2.86c-.7,1.16-1.78,1.91-2.41,2.32l.62.54h-.05v4.9h1.33v-3.78h1.07c-.05,1.24-.42,1.7-1.02,2.15l.77.87c.83-.57,1.31-1.21,1.38-3.02h.8v1.95c0,.28.02.82.8.82h1.57v1.01h1.32v-4.9h-2.12l.86-.92v-1.17h-3.76c.22-.32.31-.47.39-.68l-1.56-.08Zm6.95,11.79c-1.63-.37-3.06-1.04-3.73-2.34h3.58v-1.36h-4.15c.05-.28.09-.53.15-.97h-1.44c0,.33-.01.58-.07.97h-3.61v1.36h3.15c-.85,1.5-2.82,2.16-3.52,2.41l.77,1.23c.82-.28,2.86-.96,3.98-3.28.77,1.67,2.37,2.68,4.21,3.28l.68-1.3Zm-2.08-7.81v1.59h-.86c-.28,0-.37-.07-.37-.28v-1.31h1.23Zm-11.21,4.83c.85-.27,1.17-.38,1.6-.51v3.01c0,.18,0,.29-.26.29h-1.31l.14,1.49h1.74c.67,0,1.13-.25,1.13-1.16v-4.15c.55-.23.82-.34,1.15-.48l-.08-1.35c-.11.04-.85.29-1.06.38v-2.61h.98v-1.32h-.98v-2.39h-1.44v2.39h-1.67v1.32h1.67v3.09c-.84.28-1.29.38-1.77.49l.16,1.51Z"/><path class="cls-39" d="m244.42,103.04c-.42-.43-1.2-1.22-2.52-2.24-1.95,1.73-3.38,2.35-3.98,2.59l-.95-1.32c2.11-.68,3.11-1.52,3.79-2.11-1.13-.8-1.95-1.24-2.47-1.52l.82-1.09c.47.25,1.31.67,2.67,1.62.68-.76,1.08-1.36,1.44-1.89l1.27.67c-.22.37-.59.97-1.58,2.04,1.3.96,2.08,1.65,2.52,2.03l-1.02,1.21Zm-4.64-10.42c-.43.54-.89,1.04-1.75,1.85l-1.06-1.04c.89-.7,1.88-1.63,2.68-3.27l1.53.36c-.26.43-.32.56-.49.8h9.6v1.3h-10.51Zm-2.48,2.85h10.6c-.04.46-.08.99-.08,1.97,0,2.52.38,4.2.78,4.2.31,0,.47-.92.64-2.11l1.27.6c-.51,2.83-1.17,3.11-1.98,3.11-.66,0-1.04-.33-1.23-.6-.62-.85-1-2.8-1-4.55,0-.61,0-1.02.02-1.31h-9.02v-1.31Zm11.98-2.04v1.27h-9.7v-1.27h9.7Z"/><path class="cls-29" d="m184.36,21.26c4.41,12.53-8.27,28.42-28.32,35.48-20.06,7.06-39.89,2.63-44.3-9.91-4.42-12.54,8.27-28.43,28.32-35.48,20.05-7.06,39.89-2.63,44.3,9.91Z"/><path class="cls-18" d="m141.81,22.16c-1.36-.4-4.43-1.35-9.7-1.6l.35-1.47c3.27.09,6.53.53,9.69,1.4l-.33,1.68Zm-1.11,4.2c-3.11-1.08-5.63-1.45-8.62-1.64l.41-1.53c4.08.3,6.2.68,8.72,1.53l-.51,1.64Zm1.71,5.17c-4.25-1.62-7.95-1.99-11.2-2.04l.35-1.58c4.53.06,7.71.78,11.26,1.85l-.42,1.77Z"/><path class="cls-18" d="m144.32,29.85c3.2-1.17,6.77-4.37,8.36-8.68h-7.54v-1.58h9.74c-.19.81-.72,3.2-2.78,6.01.85.68,2.97,2.4,4.9,4.3l-1.36,1.37c-.59-.69-1.65-1.92-4.52-4.43-1.01,1.16-3.03,3.25-5.79,4.38l-1-1.36Z"/><path class="cls-18" d="m160.97,18.78v3.71c2.54.72,4.96,1.82,7.24,3.14l-.78,1.66c-.55-.32-1.5-.9-3.02-1.68-2.06-1.05-2.92-1.27-3.44-1.4v7.36h-1.73v-12.79h1.73Z"/><path class="cls-18" d="m138.36,38.08h1.66v2.81h2.49v1.51h-2.49v1.19c0,5.61-4.04,6.55-6.7,7.03l-.68-1.51c3.7-.55,5.72-1.56,5.72-5.5v-1.2h-4.64v3.77h-1.66v-3.77h-2.45v-1.51h2.45v-2.73h1.66v2.73h4.64v-2.81Z"/><path class="cls-18" d="m150.46,38.05v2.2h4.79l-.03,1.31c-.16,7.05-4.68,8.55-9.17,9.03l-.49-1.58c4.74-.36,7.98-1.93,7.98-7.18v-.1h-7.82v3.47h-1.56v-4.95h4.68v-2.2h1.62Z"/><path class="cls-18" d="m162.6,41.29v-3.04h1.69v3.04h5.24v1.55h-5.3v.25c0,3.89-2.07,6.36-5.66,7.56l-.88-1.3c2.85-.92,4.85-2.65,4.87-5.89v-.62s-5.49,0-5.49,0v-1.55h5.52Z"/><path class="cls-29" d="m141.81,22.16c-1.36-.4-4.43-1.35-9.7-1.6l.35-1.47c3.27.09,6.53.53,9.69,1.4l-.33,1.68Zm-1.11,4.2c-3.11-1.08-5.63-1.45-8.62-1.64l.41-1.53c4.08.3,6.2.68,8.72,1.53l-.51,1.64Zm1.71,5.17c-4.25-1.62-7.95-1.99-11.2-2.04l.35-1.58c4.53.06,7.71.78,11.26,1.85l-.42,1.77Z"/><path class="cls-29" d="m144.32,29.85c3.2-1.17,6.77-4.37,8.36-8.68h-7.54v-1.58h9.74c-.19.81-.72,3.2-2.78,6.01.85.68,2.97,2.4,4.9,4.3l-1.36,1.37c-.59-.69-1.65-1.92-4.52-4.43-1.01,1.16-3.03,3.25-5.79,4.38l-1-1.36Z"/><path class="cls-29" d="m160.97,18.78v3.71c2.54.72,4.96,1.82,7.24,3.14l-.78,1.66c-.55-.32-1.5-.9-3.02-1.68-2.06-1.05-2.92-1.27-3.44-1.4v7.36h-1.73v-12.79h1.73Z"/><path class="cls-29" d="m138.36,38.08h1.66v2.81h2.49v1.51h-2.49v1.19c0,5.61-4.04,6.55-6.7,7.03l-.68-1.51c3.7-.55,5.72-1.56,5.72-5.5v-1.2h-4.64v3.77h-1.66v-3.77h-2.45v-1.51h2.45v-2.73h1.66v2.73h4.64v-2.81Z"/><path class="cls-29" d="m150.46,38.05v2.2h4.79l-.03,1.31c-.16,7.05-4.68,8.55-9.17,9.03l-.49-1.58c4.74-.36,7.98-1.93,7.98-7.18v-.1h-7.82v3.47h-1.56v-4.95h4.68v-2.2h1.62Z"/><path class="cls-29" d="m162.6,41.29v-3.04h1.69v3.04h5.24v1.55h-5.3v.25c0,3.89-2.07,6.36-5.66,7.56l-.88-1.3c2.85-.92,4.85-2.65,4.87-5.89v-.62s-5.49,0-5.49,0v-1.55h5.52Z"/><path class="cls-34" d="m303.51,36.28c3.35,9.53-6.29,21.62-21.54,26.99-15.25,5.37-30.34,1.99-33.69-7.53-3.36-9.54,6.28-21.62,21.53-26.99,15.25-5.37,30.34-2,33.7,7.53Z"/><path class="cls-21" d="m266.93,44.91v.92h-3.13v-.92h3.13Zm2.23,1.31v.81h3c-1.46,1.38-2.58,2.92-3.05,3.7-.15.25-.42.81-.42,1.4,0,1.43,1.21,1.43,2.31,1.43h1.82c1.53,0,1.9-.21,2.15-1.24.1-.42.21-1.2.26-2l-1.47-.28c-.01.46-.17,1.58-.22,1.71-.16.45-.52.46-.75.46h-1.79c-.23,0-.76,0-.76-.43,0-.46,2.08-3.25,4.08-4.81v-1.31h-4.74c.22-.32.57-.84,1.04-1.93h4.51v-1.43h-3.94c.22-.63.32-1.05.4-1.38l-1.37-.23c-.41,1.51-.91,3.04-2,4.58h-.03v-1.47h-2.18v-.9h2.54v-1.28h-2.54v-.93h-1.32v.93h-2.59v1.28h2.59v.9h-2.19v5.19h2.19v1.04h-2.72v1.27h2.72v2.48h1.32v-2.48h2.54v-1.27h-2.54v-1.04h2.18v-3.29l.94.53Zm-2.23.62v1.02h-3.13v-1.02h3.13Z"/><path class="cls-21" d="m282.86,45.54v1.03h-1.45v-1.03h1.45Zm.74,2.76h-3.79v1.21h3.27c-1.05,1.14-2.35,2.05-3.82,2.57l.82,1.25c.63-.35,2.05-1.13,3.51-2.77v3.13h1.34v-3.21h.02c1.26,1.7,2.85,2.5,3.49,2.82l.81-1.27c-.71-.25-2.3-.81-3.75-2.52h3.45v-1.21h-4.03v-.79h3.51v-2.89h-3.79v2.54h-.71v-2.54h-3.67v2.89h3.31v.79Zm3.74-2.76v1.03h-1.56v-1.03h1.56Zm-6.37-1.56h6.85v-2.87h-6.85v2.87Zm5.56-1.87v.94h-4.32v-.94h4.32Zm-6.23,8.43c-.44-.34-1-.77-1.56-1.59.08-.83.17-2.05.17-3.44v-.13c.19-.18,1.11-1,1.84-2.01l-.93-.96c-.21.36-.35.58-.91,1.22v-2.98h-1.34v4.8c0,2.77,0,5.24-1.65,7.1l.91,1.25c.4-.49,1.14-1.35,1.63-3.18.68.71.76.78,1.1,1.09l.74-1.17Zm-4.14-7.2c.04.33.04.5.04.87,0,.18-.04,2.22-.32,3.15l1.07.41c.16-.92.31-1.98.25-4.37l-1.04-.06Z"/><path class="cls-68" d="m266.93,44.91v.92h-3.13v-.92h3.13Zm2.23,1.31v.81h3c-1.46,1.38-2.58,2.92-3.05,3.7-.15.25-.42.81-.42,1.4,0,1.43,1.21,1.43,2.31,1.43h1.82c1.53,0,1.9-.21,2.15-1.24.1-.42.21-1.2.26-2l-1.47-.28c-.01.46-.17,1.58-.22,1.71-.16.45-.52.46-.75.46h-1.79c-.23,0-.76,0-.76-.43,0-.46,2.08-3.25,4.08-4.81v-1.31h-4.74c.22-.32.57-.84,1.04-1.93h4.51v-1.43h-3.94c.22-.63.32-1.05.4-1.38l-1.37-.23c-.41,1.51-.91,3.04-2,4.58h-.03v-1.47h-2.18v-.9h2.54v-1.28h-2.54v-.93h-1.32v.93h-2.59v1.28h2.59v.9h-2.19v5.19h2.19v1.04h-2.72v1.27h2.72v2.48h1.32v-2.48h2.54v-1.27h-2.54v-1.04h2.18v-3.29l.94.53Zm-2.23.62v1.02h-3.13v-1.02h3.13Z"/><path class="cls-68" d="m282.86,45.54v1.03h-1.45v-1.03h1.45Zm.74,2.76h-3.79v1.21h3.27c-1.05,1.14-2.35,2.05-3.82,2.57l.82,1.25c.63-.35,2.05-1.13,3.51-2.77v3.13h1.34v-3.21h.02c1.26,1.7,2.85,2.5,3.49,2.82l.81-1.27c-.71-.25-2.3-.81-3.75-2.52h3.45v-1.21h-4.03v-.79h3.51v-2.89h-3.79v2.54h-.71v-2.54h-3.67v2.89h3.31v.79Zm3.74-2.76v1.03h-1.56v-1.03h1.56Zm-6.37-1.56h6.85v-2.87h-6.85v2.87Zm5.56-1.87v.94h-4.32v-.94h4.32Zm-6.23,8.43c-.44-.34-1-.77-1.56-1.59.08-.83.17-2.05.17-3.44v-.13c.19-.18,1.11-1,1.84-2.01l-.93-.96c-.21.36-.35.58-.91,1.22v-2.98h-1.34v4.8c0,2.77,0,5.24-1.65,7.1l.91,1.25c.4-.49,1.14-1.35,1.63-3.18.68.71.76.78,1.1,1.09l.74-1.17Zm-4.14-7.2c.04.33.04.5.04.87,0,.18-.04,2.22-.32,3.15l1.07.41c.16-.92.31-1.98.25-4.37l-1.04-.06Z"/><path class="cls-67" d="m130.31,147.27c3.36,9.53-6.29,21.61-21.54,26.98-15.25,5.38-30.33,2-33.69-7.53-3.35-9.53,6.29-21.61,21.54-26.98,15.25-5.38,30.33-2.01,33.69,7.53Z"/><path class="cls-6" d="m81.89,150.16c-.7.11-1.27.28-1.54.89-.12.29-.2.94-.2,1.21v.3h7.32v1.51h-8.98v-1.21c0-1.73.14-3.74,2.81-4.14l2.73-.42c1.23-.2,1.83-.51,1.83-1.88s-.66-1.93-2.7-1.93c-2.33,0-2.83.55-2.85,2.28h-1.64c.03-2.37.71-3.79,4.39-3.79,2.1,0,4.45.26,4.45,3.45,0,1.39-.42,2.13-1.21,2.65-.26.17-.86.54-1.77.68l-2.65.41Z"/><path class="cls-6" d="m95.15,150.18h-4.78l4.78-5.66v5.66Zm-.63-7.09l-5.81,6.77v1.82h6.44v2.39h1.65v-2.39h1.83v-1.51h-1.83v-7.09h-2.28Z"/><path class="cls-6" d="m102.79,144.2v3.14h-1.69v-3.14h1.69Zm-3.03,10.26h1.34v-1.08h3.01v-10.6h-4.35v11.68Zm3.03-5.81v3.38h-1.69v-3.38h1.69Zm5.02-5.23h-2.77v1.34h2.77v1.61h-3.26v1.36h5.11v1.38h-5.01v1.34h5.01v3.19c0,.21-.18.22-.29.22h-2.09l.28,1.42h2.24c1.3,0,1.3-1.02,1.3-1.42v-3.42h1.31v-1.34h-1.31v-1.38h1.42v-1.36h-3.31v-1.61h2.88v-1.34h-2.88v-1.19h-1.41v1.19Zm-3,8.07c.84.87,1.02,1.15,1.8,2.36l1.21-.92c-.56-.89-.96-1.4-1.89-2.25l-1.13.81Z"/><path class="cls-6" d="m121.81,151.78v1.01h-3.84v-1.01h3.84Zm1.33-3.02h-6.47v5.16h6l.22,1.4h2.14c.93,0,.93-.92.93-1.31v-11.2h-5.52v5.09h4.13v5.69c0,.28-.15.33-.32.33h-1.1v-5.16Zm-1.33,1.13v.95h-3.84v-.95h3.84Zm2.75-5.94v.92h-2.78v-.92h2.78Zm0,1.87v.92h-2.78v-.92h2.78Zm-10.67,9.5h1.38v-7.42h3.92v-5.09h-5.3v12.51Zm3.94-11.37v.92h-2.56v-.92h2.56Zm0,1.87v.92h-2.56v-.92h2.56Z"/><path class="cls-6" d="m94.31,161.01v-.02c.26-.17.56-.4,1.14-.99h2.89c-.08.09-.64.74-.9,1.02h-3.13Zm.84-2.86c-.7,1.17-1.79,1.91-2.41,2.31l.62.55h-.04v4.9h1.33v-3.78h1.07c-.05,1.24-.42,1.7-1.01,2.15l.77.88c.82-.58,1.31-1.22,1.38-3.03h.8v1.95c0,.28,0,.82.79.82h1.58v1.01h1.32v-4.9h-2.13l.87-.93v-1.17h-3.76c.23-.32.31-.47.39-.68l-1.56-.09Zm6.94,11.79c-1.63-.37-3.05-1.06-3.72-2.35h3.57v-1.35h-4.16c.06-.28.11-.53.16-.98h-1.44c0,.34-.01.59-.07.98h-3.61v1.35h3.16c-.85,1.51-2.82,2.16-3.52,2.42l.77,1.23c.81-.28,2.86-.96,3.97-3.28.77,1.67,2.37,2.68,4.21,3.28l.68-1.29Zm-2.07-7.82v1.59h-.87c-.28,0-.37-.07-.37-.27v-1.31h1.23Zm-11.21,4.82c.85-.26,1.17-.37,1.6-.51v3.01c0,.18,0,.29-.26.29h-1.31l.14,1.5h1.74c.67,0,1.13-.25,1.13-1.16v-4.15c.56-.22.82-.33,1.14-.47l-.08-1.36c-.11.04-.85.3-1.06.37v-2.61h.98v-1.31h-.98v-2.39h-1.44v2.39h-1.67v1.31h1.67v3.1c-.84.28-1.29.38-1.77.49l.17,1.5Z"/><path class="cls-6" d="m110.01,170.84c-.42-.43-1.2-1.23-2.52-2.24-1.95,1.73-3.38,2.34-3.97,2.59l-.95-1.33c2.11-.68,3.11-1.52,3.8-2.11-1.13-.8-1.96-1.24-2.47-1.52l.82-1.09c.47.25,1.31.67,2.66,1.62.69-.75,1.09-1.35,1.44-1.88l1.27.68c-.22.36-.58.98-1.57,2.03,1.3.96,2.08,1.65,2.52,2.04l-1.01,1.21Zm-4.65-10.43c-.43.54-.89,1.04-1.74,1.86l-1.06-1.05c.89-.69,1.88-1.63,2.68-3.27l1.52.37c-.25.43-.32.55-.49.79h9.6v1.29h-10.51Zm-2.48,2.87h10.6c-.04.46-.08.99-.08,1.96,0,2.52.38,4.2.78,4.2.31,0,.46-.92.64-2.11l1.27.6c-.51,2.83-1.17,3.11-1.98,3.11-.65,0-1.04-.33-1.23-.6-.61-.84-1-2.8-1-4.55,0-.61.01-1.01.03-1.31h-9.03v-1.3Zm11.98-2.06v1.27h-9.71v-1.27h9.71Z"/><path class="cls-15" d="m81.89,150.16c-.7.11-1.27.28-1.54.89-.12.29-.2.94-.2,1.21v.3h7.32v1.51h-8.98v-1.21c0-1.73.14-3.74,2.81-4.14l2.73-.42c1.23-.2,1.83-.51,1.83-1.88s-.66-1.93-2.7-1.93c-2.33,0-2.83.55-2.85,2.28h-1.64c.03-2.37.71-3.79,4.39-3.79,2.1,0,4.45.26,4.45,3.45,0,1.39-.42,2.13-1.21,2.65-.26.17-.86.54-1.77.68l-2.65.41Z"/><path class="cls-15" d="m95.15,150.18h-4.78l4.78-5.66v5.66Zm-.63-7.09l-5.81,6.77v1.82h6.44v2.39h1.65v-2.39h1.83v-1.51h-1.83v-7.09h-2.28Z"/><path class="cls-15" d="m102.79,144.2v3.14h-1.69v-3.14h1.69Zm-3.03,10.26h1.34v-1.08h3.01v-10.6h-4.35v11.68Zm3.03-5.81v3.38h-1.69v-3.38h1.69Zm5.02-5.23h-2.77v1.34h2.77v1.61h-3.26v1.36h5.11v1.38h-5.01v1.34h5.01v3.19c0,.21-.18.22-.29.22h-2.09l.28,1.42h2.24c1.3,0,1.3-1.02,1.3-1.42v-3.42h1.31v-1.34h-1.31v-1.38h1.42v-1.36h-3.31v-1.61h2.88v-1.34h-2.88v-1.19h-1.41v1.19Zm-3,8.07c.84.87,1.02,1.15,1.8,2.36l1.21-.92c-.56-.89-.96-1.4-1.89-2.25l-1.13.81Z"/><path class="cls-15" d="m121.81,151.78v1.01h-3.84v-1.01h3.84Zm1.33-3.02h-6.47v5.16h6l.22,1.4h2.14c.93,0,.93-.92.93-1.31v-11.2h-5.52v5.09h4.13v5.69c0,.28-.15.33-.32.33h-1.1v-5.16Zm-1.33,1.13v.95h-3.84v-.95h3.84Zm2.75-5.94v.92h-2.78v-.92h2.78Zm0,1.87v.92h-2.78v-.92h2.78Zm-10.67,9.5h1.38v-7.42h3.92v-5.09h-5.3v12.51Zm3.94-11.37v.92h-2.56v-.92h2.56Zm0,1.87v.92h-2.56v-.92h2.56Z"/><path class="cls-15" d="m94.31,161.01v-.02c.26-.17.56-.4,1.14-.99h2.89c-.08.09-.64.74-.9,1.02h-3.13Zm.84-2.86c-.7,1.17-1.79,1.91-2.41,2.31l.62.55h-.04v4.9h1.33v-3.78h1.07c-.05,1.24-.42,1.7-1.01,2.15l.77.88c.82-.58,1.31-1.22,1.38-3.03h.8v1.95c0,.28,0,.82.79.82h1.58v1.01h1.32v-4.9h-2.13l.87-.93v-1.17h-3.76c.23-.32.31-.47.39-.68l-1.56-.09Zm6.94,11.79c-1.63-.37-3.05-1.06-3.72-2.35h3.57v-1.35h-4.16c.06-.28.11-.53.16-.98h-1.44c0,.34-.01.59-.07.98h-3.61v1.35h3.16c-.85,1.51-2.82,2.16-3.52,2.42l.77,1.23c.81-.28,2.86-.96,3.97-3.28.77,1.67,2.37,2.68,4.21,3.28l.68-1.29Zm-2.07-7.82v1.59h-.87c-.28,0-.37-.07-.37-.27v-1.31h1.23Zm-11.21,4.82c.85-.26,1.17-.37,1.6-.51v3.01c0,.18,0,.29-.26.29h-1.31l.14,1.5h1.74c.67,0,1.13-.25,1.13-1.16v-4.15c.56-.22.82-.33,1.14-.47l-.08-1.36c-.11.04-.85.3-1.06.37v-2.61h.98v-1.31h-.98v-2.39h-1.44v2.39h-1.67v1.31h1.67v3.1c-.84.28-1.29.38-1.77.49l.17,1.5Z"/><path class="cls-15" d="m110.01,170.84c-.42-.43-1.2-1.23-2.52-2.24-1.95,1.73-3.38,2.34-3.97,2.59l-.95-1.33c2.11-.68,3.11-1.52,3.8-2.11-1.13-.8-1.96-1.24-2.47-1.52l.82-1.09c.47.25,1.31.67,2.66,1.62.69-.75,1.09-1.35,1.44-1.88l1.27.68c-.22.36-.58.98-1.57,2.03,1.3.96,2.08,1.65,2.52,2.04l-1.01,1.21Zm-4.65-10.43c-.43.54-.89,1.04-1.74,1.86l-1.06-1.05c.89-.69,1.88-1.63,2.68-3.27l1.52.37c-.25.43-.32.55-.49.79h9.6v1.29h-10.51Zm-2.48,2.87h10.6c-.04.46-.08.99-.08,1.96,0,2.52.38,4.2.78,4.2.31,0,.46-.92.64-2.11l1.27.6c-.51,2.83-1.17,3.11-1.98,3.11-.65,0-1.04-.33-1.23-.6-.61-.84-1-2.8-1-4.55,0-.61.01-1.01.03-1.31h-9.03v-1.3Zm11.98-2.06v1.27h-9.71v-1.27h9.71Z"/><path class="cls-35" d="m255.37,10.09c3.36,9.53-6.29,21.61-21.54,26.98-15.25,5.37-30.33,2.01-33.69-7.53-3.36-9.54,6.28-21.61,21.54-26.99,15.25-5.37,30.33-2,33.7,7.54Z"/><path class="cls-19" d="m216.66,15.39v3.17h-1.36v-3.17h1.36Zm10.18,5.35v-1.21h-5.18c.01-.2.02-.35.04-.85h4.87v-1.19h-.95c.43-.69.74-1.28,1.02-1.91l-1.31-.52c-.5,1.23-.79,1.79-1.23,2.43h-4.79v-.03l1.42-.34c-.1-.32-.43-1.21-.57-1.52l-1.37.32c.33.86.41,1.1.52,1.56h-.68v1.19h1.72c0,.4-.02.57-.03.85h-2.04v1.21h1.84c-.38,1.69-1.17,2.88-2.18,3.85v-10.56h-3.93v11.65h1.3v-1.09h2.62c-.54.5-.86.72-1.19.94l1,1.01c2.15-1.78,2.77-3.05,3.13-3.82h3.53c-.3.42-.52.72-1.34,1.27-.65-.4-.95-.74-1.23-1.06l-1.14.58c.25.35.47.64,1.06,1.13-.99.37-1.7.5-2.24.58l.47,1.31c.73-.2,1.74-.48,3.01-1.09,1.48.76,2.68,1.04,3.42,1.21l.68-1.42c-.71-.08-1.64-.19-2.76-.63.96-.77,1.45-1.56,1.73-2.01v-.99h-4.77c.11-.39.17-.65.21-.87h5.36Zm-10.18-.88v3.37h-1.36v-3.37h1.36Zm9.38-6.45c-1.06.29-2.9.77-7.77.77l.2,1.36c2.22-.01,6.05-.3,8.11-.86l-.53-1.27Zm-4.45,2.37c.24.65.3.88.4,1.62l1.42-.27c-.14-.66-.21-.92-.45-1.63l-1.37.28Z"/><path class="cls-19" d="m238.35,17.04v1.11h-7.92v-1.11h7.92Zm0,6.12c-.08,1.87-.21,1.94-.85,1.94h-1.84l.41,1.43h2.01c.18,0,1.03,0,1.41-.98.24-.64.36-2.75.37-3.52h-5.24c.06-.31.08-.5.12-.79h6.04v-1.12h-4.81v-.9h3.83v-3.27h-10.85v4.65c0,2.33-.6,3.75-1.37,5.04l1.37.89c1.03-1.58,1.41-3.64,1.46-5.28h2.87c-.16,1.69-.98,3.12-3.44,4.07l.77,1.28c2.25-1.02,3.11-2.1,3.67-3.43h4.06Zm-3.82-3.93v.9h-4.1v-.9h4.1Zm-6.94-3.97h13.19v-1.31h-13.19v1.31Z"/><path class="cls-55" d="m216.66,15.39v3.17h-1.36v-3.17h1.36Zm10.18,5.35v-1.21h-5.18c.01-.2.02-.35.04-.85h4.87v-1.19h-.95c.43-.69.74-1.28,1.02-1.91l-1.31-.52c-.5,1.23-.79,1.79-1.23,2.43h-4.79v-.03l1.42-.34c-.1-.32-.43-1.21-.57-1.52l-1.37.32c.33.86.41,1.1.52,1.56h-.68v1.19h1.72c0,.4-.02.57-.03.85h-2.04v1.21h1.84c-.38,1.69-1.17,2.88-2.18,3.85v-10.56h-3.93v11.65h1.3v-1.09h2.62c-.54.5-.86.72-1.19.94l1,1.01c2.15-1.78,2.77-3.05,3.13-3.82h3.53c-.3.42-.52.72-1.34,1.27-.65-.4-.95-.74-1.23-1.06l-1.14.58c.25.35.47.64,1.06,1.13-.99.37-1.7.5-2.24.58l.47,1.31c.73-.2,1.74-.48,3.01-1.09,1.48.76,2.68,1.04,3.42,1.21l.68-1.42c-.71-.08-1.64-.19-2.76-.63.96-.77,1.45-1.56,1.73-2.01v-.99h-4.77c.11-.39.17-.65.21-.87h5.36Zm-10.18-.88v3.37h-1.36v-3.37h1.36Zm9.38-6.45c-1.06.29-2.9.77-7.77.77l.2,1.36c2.22-.01,6.05-.3,8.11-.86l-.53-1.27Zm-4.45,2.37c.24.65.3.88.4,1.62l1.42-.27c-.14-.66-.21-.92-.45-1.63l-1.37.28Z"/><path class="cls-55" d="m238.35,17.04v1.11h-7.92v-1.11h7.92Zm0,6.12c-.08,1.87-.21,1.94-.85,1.94h-1.84l.41,1.43h2.01c.18,0,1.03,0,1.41-.98.24-.64.36-2.75.37-3.52h-5.24c.06-.31.08-.5.12-.79h6.04v-1.12h-4.81v-.9h3.83v-3.27h-10.85v4.65c0,2.33-.6,3.75-1.37,5.04l1.37.89c1.03-1.58,1.41-3.64,1.46-5.28h2.87c-.16,1.69-.98,3.12-3.44,4.07l.77,1.28c2.25-1.02,3.11-2.1,3.67-3.43h4.06Zm-3.82-3.93v.9h-4.1v-.9h4.1Zm-6.94-3.97h13.19v-1.31h-13.19v1.31Z"/><path class="cls-41" d="m199,122.43c3.36,9.52-6.29,21.61-21.54,26.98-15.25,5.37-30.35,1.99-33.7-7.54-3.36-9.53,6.28-21.61,21.54-26.98,15.25-5.37,30.34-2,33.7,7.54Z"/><path class="cls-20" d="m168.22,130.06v1.87h-5.07v-1.87h5.07Zm-6.44,3.1h3.14v3.17c0,.41-.2.41-.61.41h-1.41l.29,1.39h2.17c.57,0,.98-.32.98-1.12v-3.85h3.3v-4.32h-7.87v4.32Zm-1.02-5.37h9.64v-1.3h-4.06v-1.44h-1.42v1.44h-4.1l.13-.19c-.52-.31-1.47-.88-2.43-1.24l-.7,1.17c.96.41,1.81.95,2.35,1.31l.57-.96h.02v1.22Zm-3.5,2.29c.65.3,1.56.75,2.39,1.32l.75-1.32c-.45-.28-1.38-.85-2.44-1.28l-.7,1.28Zm2.59,2.18c-1,2.54-1.95,3.84-2.57,4.63l1.19,1.31c.91-1.36,2.01-3.5,2.66-5.08l-1.28-.86Zm2.67,1.56c-.66,1.2-1.29,1.9-2.46,2.76l1.08.95c1.16-.82,2.26-2.34,2.72-3.17l-1.34-.55Zm8.03,2.91c-.88-.97-1.49-2.13-1.83-2.97l-1.28.43c.3.94.76,2.07,1.99,3.47l1.12-.93Z"/><path class="cls-20" d="m176.92,130.93v1.92h-1.14v-1.92h1.14Zm4.71,6.41c-.24-.84-.76-2.1-1.29-2.84l-1.26.41c.19.33.29.53.49.92-.22,0-.59.04-1.34.07v-1.89h2.42v-4.21h-2.42v-.92c1.5-.06,2.33-.19,2.76-.25l-.42-1.22c-1.04.21-2.56.43-6.37.41l.12,1.12c.42,0,1.73-.02,2.6-.03v.9h-2.4v4.21h2.4v1.91h-3.12l.17,1.43c2.04-.05,4.22-.12,6.09-.39.15.42.22.67.28.88l1.29-.49Zm-2.27-6.41v1.92h-1.13v-1.92h1.13Zm-6.97.88c0,.34-.1,1.63-.33,2.83-.24,1.22-.66,1.9-.91,2.3l1.14,1.19c.34-.51.87-1.34,1.12-2.83.05-.37.38-2.34.38-3.54v-4.94h7.7c.01.74-.02,3.9-.02,4.56,0,2.04.25,5.28.77,6.2.17.31.4.56.71.56,1.14,0,1.52-2.27,1.66-3.13l-.98-.68c-.06.29-.2,1.14-.27,1.38,0,.06-.04.2-.15.2s-.12-.09-.15-.32c-.17-1.39-.21-3.06-.21-4.46,0-2.32.14-4.49.21-5.59h-10.67v6.27Z"/><path class="cls-30" d="m168.22,130.06v1.87h-5.07v-1.87h5.07Zm-6.44,3.1h3.14v3.17c0,.41-.2.41-.61.41h-1.41l.29,1.39h2.17c.57,0,.98-.32.98-1.12v-3.85h3.3v-4.32h-7.87v4.32Zm-1.02-5.37h9.64v-1.3h-4.06v-1.44h-1.42v1.44h-4.1l.13-.19c-.52-.31-1.47-.88-2.43-1.24l-.7,1.17c.96.41,1.81.95,2.35,1.31l.57-.96h.02v1.22Zm-3.5,2.29c.65.3,1.56.75,2.39,1.32l.75-1.32c-.45-.28-1.38-.85-2.44-1.28l-.7,1.28Zm2.59,2.18c-1,2.54-1.95,3.84-2.57,4.63l1.19,1.31c.91-1.36,2.01-3.5,2.66-5.08l-1.28-.86Zm2.67,1.56c-.66,1.2-1.29,1.9-2.46,2.76l1.08.95c1.16-.82,2.26-2.34,2.72-3.17l-1.34-.55Zm8.03,2.91c-.88-.97-1.49-2.13-1.83-2.97l-1.28.43c.3.94.76,2.07,1.99,3.47l1.12-.93Z"/><path class="cls-30" d="m176.92,130.93v1.92h-1.14v-1.92h1.14Zm4.71,6.41c-.24-.84-.76-2.1-1.29-2.84l-1.26.41c.19.33.29.53.49.92-.22,0-.59.04-1.34.07v-1.89h2.42v-4.21h-2.42v-.92c1.5-.06,2.33-.19,2.76-.25l-.42-1.22c-1.04.21-2.56.43-6.37.41l.12,1.12c.42,0,1.73-.02,2.6-.03v.9h-2.4v4.21h2.4v1.91h-3.12l.17,1.43c2.04-.05,4.22-.12,6.09-.39.15.42.22.67.28.88l1.29-.49Zm-2.27-6.41v1.92h-1.13v-1.92h1.13Zm-6.97.88c0,.34-.1,1.63-.33,2.83-.24,1.22-.66,1.9-.91,2.3l1.14,1.19c.34-.51.87-1.34,1.12-2.83.05-.37.38-2.34.38-3.54v-4.94h7.7c.01.74-.02,3.9-.02,4.56,0,2.04.25,5.28.77,6.2.17.31.4.56.71.56,1.14,0,1.52-2.27,1.66-3.13l-.98-.68c-.06.29-.2,1.14-.27,1.38,0,.06-.04.2-.15.2s-.12-.09-.15-.32c-.17-1.39-.21-3.06-.21-4.46,0-2.32.14-4.49.21-5.59h-10.67v6.27Z"/></svg>