<?xml version="1.0" encoding="UTF-8"?><svg id="_レイヤー_1" xmlns="http://www.w3.org/2000/svg" xmlns:xlink="http://www.w3.org/1999/xlink" viewBox="0 0 679.59 221.16"><defs><style>.cls-1{fill:#fff;}.cls-2{stroke:#fff;}.cls-2,.cls-3,.cls-4,.cls-5,.cls-6{stroke-width:.35px;}.cls-2,.cls-5{fill:#877437;}.cls-3,.cls-4,.cls-5{stroke:#231815;}.cls-3,.cls-6{fill:none;}.cls-4{fill:#eeebd9;opacity:.1;}.cls-7{fill:url(#linear-gradient);}.cls-8{fill:#231815;}.cls-6{stroke:#000;}</style><linearGradient id="linear-gradient" x1="-5325.7" y1="-1956.3" x2="-5325.7" y2="-2054.81" gradientTransform="translate(4835.86 1832.61) scale(.84)" gradientUnits="userSpaceOnUse"><stop offset="0" stop-color="#fff"/><stop offset="1" stop-color="#25366e"/></linearGradient></defs><polygon class="cls-4" points="98.16 .18 .18 .18 .18 71.29 98.16 71.29 226.29 71.29 226.29 .18 98.16 .18"/><rect class="cls-4" x="516.98" y=".18" width="162.43" height="71.12"/><rect class="cls-5" x=".18" y="71.29" width="97.98" height="37.4"/><rect class="cls-2" x="98.16" y="71.29" width="128.13" height="37.4"/><rect class="cls-2" x="226.29" y="71.29" width="110.79" height="37.4"/><rect class="cls-5" x="406.19" y="71.29" width="110.78" height="37.4"/><rect class="cls-2" x="516.98" y="71.29" width="162.43" height="37.4"/><rect class="cls-6" x=".18" y="108.7" width="97.98" height="37.41"/><rect class="cls-6" x="98.16" y="108.7" width="128.13" height="37.41"/><rect class="cls-6" x="226.29" y="108.7" width="110.79" height="37.41"/><rect class="cls-6" x="406.19" y="108.69" width="110.78" height="37.41"/><rect class="cls-6" x=".18" y="146.1" width="97.98" height="37.42"/><rect class="cls-6" x="98.16" y="146.1" width="128.13" height="37.42"/><rect class="cls-6" x="226.29" y="146.1" width="110.79" height="37.42"/><rect class="cls-6" x="406.19" y="146.1" width="110.78" height="37.41"/><polygon class="cls-6" points="516.98 108.69 516.98 158.31 516.98 183.53 679.41 183.53 679.41 158.31 679.41 108.69 516.98 108.69"/><rect class="cls-6" x=".18" y="183.52" width="97.98" height="37.4"/><rect class="cls-6" x="98.16" y="183.52" width="128.13" height="37.4"/><rect class="cls-6" x="226.29" y="183.52" width="110.79" height="37.4"/><rect class="cls-6" x="406.19" y="183.58" width="110.78" height="37.41"/><rect class="cls-6" x="516.98" y="183.53" width="162.43" height="37.41"/><polyline class="cls-6" points="337.08 36.18 337.08 103.18 337.08 142.42 337.08 181.67 337.08 220.9 406.19 220.9 406.19 181.67 406.19 142.42 406.19 103.18 406.19 36.18"/><polygon class="cls-7" points="371.67 194.12 387 175.41 377.72 175.41 377.72 162.21 377.72 145.89 377.72 132.69 387 132.69 371.67 113.99 356.71 132.69 365.27 132.69 365.27 145.89 365.27 162.21 365.27 175.41 356.71 175.41 371.67 194.12"/><polyline class="cls-6" points="679.41 220.68 679.41 .18 .18 .18 .18 220.68"/><path class="cls-8" d="m29.08,41.8c.1,1.49.91,2.57,2.41,2.57,1.83,0,2.38-1.66,2.38-3.09v-12.97h1.84v13.15c0,3.29-1.94,4.64-4.22,4.64-2.46,0-4.24-1.52-4.28-4.3h1.87Z"/><path class="cls-8" d="m40.45,28.31h1.86v17.42h-1.86v-17.42Z"/><path class="cls-8" d="m47.98,40.32c.16,3.23,2.08,3.97,3.97,3.97,1.35,0,3.26-.91,3.26-3.26,0-2.57-1.94-3.22-4.9-4.1-1.84-.51-3.67-1.76-3.67-4.27,0-2.88,2.13-4.75,4.99-4.75s5.09,2,5.13,4.91h-1.84c-.23-2.42-1.75-3.22-3.42-3.22-1.41,0-3.09.85-3.09,2.86,0,1.48.85,2.24,2.64,2.75.56.17,1.17.43,1.73.61,2.22.68,4.34,2.01,4.34,5.25s-2.54,4.97-5.21,4.97c-2.8,0-5.59-1.22-5.88-5.75l1.95.03Z"/><path class="cls-8" d="m64.56,34.01c1.25,0,2.26,1.16,2.26,2.58s-1.01,2.56-2.26,2.56-2.27-1.15-2.27-2.56,1.01-2.58,2.27-2.58Z"/><path class="cls-8" d="m73.29,41.8c.1,1.49.9,2.57,2.42,2.57,1.82,0,2.37-1.66,2.37-3.09v-12.97h1.84v13.15c0,3.29-1.95,4.64-4.21,4.64-2.47,0-4.25-1.52-4.29-4.3h1.87Z"/><path class="cls-8" d="m88.49,28.09h1.98l6.03,17.64h-1.98l-1.84-5.65h-6.41l-1.85,5.65h-1.98l6.06-17.64Zm3.73,10.35l-2.14-6.59c-.12-.44-.43-1.43-.62-2.1-.16.72-.46,1.56-.63,2.1l-2.12,6.59h5.51Z"/><path class="cls-8" d="m100.39,40.32c.14,3.23,2.08,3.97,3.96,3.97,1.36,0,3.27-.91,3.27-3.26,0-2.57-1.95-3.22-4.9-4.1-1.85-.51-3.66-1.76-3.66-4.27,0-2.88,2.12-4.75,4.98-4.75s5.09,2,5.14,4.91h-1.85c-.21-2.42-1.75-3.22-3.42-3.22-1.39,0-3.09.85-3.09,2.86,0,1.48.85,2.24,2.64,2.75.56.17,1.17.43,1.73.61,2.21.68,4.35,2.01,4.35,5.25s-2.55,4.97-5.21,4.97c-2.81,0-5.6-1.22-5.88-5.75l1.95.03Z"/><path class="cls-8" d="m112.13,41.2c3.05-.86,6.53-2.78,8.31-4.58l-7.55.03v-1.41h8.2v-2.12h-6.48v-1.37h6.48v-2h-7.37v-1.41h7.37v-.74s0-1.11-.04-1.81c0,0,2.11,0,2.11.46,0,.16-.22.36-.67.45,0,.26,0,.97,0,.97v.66h7.48v1.41h-7.48v2h6.6v1.37h-6.6v2.12h8.33v1.41l-7.87-.03c.29,1.05.86,2.83,2.08,4.51.89-.65,2.67-2.06,3.94-3.66.08.06,1.38,1.21,1.38,1.55,0,.11-.07.24-.3.24-.12,0-.27-.05-.49-.14-.98,1-2.74,2.41-3.7,3.02,1.35,1.5,3.28,2.77,6.02,3.25l-1.6,1.44c-5.65-1.68-7.78-7.31-8.44-9.81-.6.7-1.34,1.39-2.21,2.04v5c1.86-.45,3.52-.91,4.34-1.19l-.02,1.57c-1.37.43-5.84,1.68-9.16,2.35,0,.39-.13.71-.3.71-.28,0-.68-1.19-.99-2.13,1.43-.24,3.13-.59,4.81-.98v-4.4c-1.46.96-3.14,1.82-4.77,2.46l-1.41-1.24Z"/><path class="cls-8" d="m134.39,44.47c3.13-3.02,4.09-7.42,4.18-7.79.15.02,1.13.28,1.57.41.24.07.38.2.38.34,0,.16-.22.34-.7.38-.57,1.64-1.48,4.68-3.71,7.32l-1.72-.65Zm5.01.5c.52.11,1.35.27,2.11.27.94,0,1.77-.27,1.77-1.28v-9.52h-8.14v-1.57h17.66v1.57h-8.06v6.98c0,1.2.06,2.12.06,2.77,0,2.25-1.54,2.74-3.47,2.74-.26,0-.51,0-.79-.04l-1.13-1.93Zm-2.13-17.49h13.31v1.62h-13.31v-1.62Zm14.42,17.55c-1.92-2.22-4.01-7.17-4.33-7.91l1.47-.5c.25.64,1.91,5.23,4.61,7.53l-1.75.88Z"/><path class="cls-8" d="m156.69,29.89h8.18v1.43l-8.18.03v-1.46Zm.85,9.44h6.49v7.58h-1.32v-1.18h-3.87v1.33h-1.3v-7.73Zm.07-12.51h6.38v1.41h-6.38v-1.41Zm0,6.25h6.33v1.38h-6.33v-1.38Zm.02,3.04h6.31v1.37h-6.31v-1.37Zm5.08,8.23v-3.65h-3.87v3.65h3.87Zm3.35-10.7h6.41l-.02-5.06h-6.68v-1.51h8.05v9.39h-1.35v-1.3h-4.98v8.69c.03,1.27.83,1.36,2.8,1.36,3.14,0,3.44-.4,3.65-4.25l1.46,1.5c-.38,3.94-1.73,4.33-4.98,4.33-.93,0-1.79-.05-2.3-.09-1.14-.17-2.05-.95-2.05-2.48v-10.57Z"/><path class="cls-8" d="m185.81,45.01c.79.14,1.97.38,3.1.38,2.09,0,3.4-.62,3.65-4.57h-7.58c-.17.58-.36,1.14-.55,1.61l-1.53-.12c.73-1.84,1.31-3.86,1.73-5.57h-5.87v-1.54h18.57v1.54h-11.21c-.2.75-.43,1.66-.71,2.6l8.72-.02c-.33,5.74-1.31,7.71-5.4,7.71-.61,0-1.23-.06-1.82-.1l-1.11-1.93Zm-3.81-18.28l11.99.03v6.98h-1.41v-.79h-9.15v.91h-1.42v-7.13Zm10.58,4.8v-3.4h-9.15v3.4h9.15Z"/><path class="cls-1" d="m10.38,83.08c2.02-1.7,3.71-4.57,3.99-5.7.02,0,1.58.41,1.58.76,0,.17-.22.37-.67.37h-.07c-.07.21-.21.45-.36.77h5.07v1.26h-3.45c.32.57.79,1.49,1.04,2.26l-1.25.45c-.28-1.08-.84-2.29-1.05-2.71h-1.05c-.62,1.08-1.4,2.26-2.21,3.09l-1.57-.55Zm.98,4.82h7.83v-2.14h-6.44v-1.38h6.44v-.07c0-.98-.05-1.39-.05-1.47,1.87,0,2.01.27,2.01.41,0,.17-.2.38-.58.43-.03.24-.04.5-.04.69h6.91v1.38h-6.91v2.14h8.18v1.36H11.35v-1.36Zm.3,3.65h11.54v-.12c0-.15,0-.92-.07-1.6.15,0,1.12.12,1.54.16.35.06.5.17.5.34,0,.18-.22.34-.6.41-.02.31-.06.63-.06.82h4.11v1.42h-4.11v1.01c0,.95.04,2.03.04,2.2,0,2.23-1.66,2.61-3.48,2.61-.29,0-.58,0-.84-.01l-1.07-1.79c.87.14,1.63.23,2.29.23,1.09,0,1.76-.27,1.76-1.19v-3.06h-11.55v-1.42Zm3.76,1.92c.2.13,2.21,1.28,3.61,2.68l-.89,1.35c-1.35-1.59-3.28-2.77-3.55-2.97l.83-1.06Zm3.67-11.3c1.53-1.59,2.5-3.87,2.72-4.87.1,0,1.65.43,1.65.77,0,.14-.17.27-.63.29-.09.29-.21.58-.36.91h6.54v1.28h-4.24c.3.55.77,1.44,1.04,2.21l-1.24.49c-.28-1.13-.9-2.31-1.11-2.7h-1.62c-.39.72-.84,1.44-1.29,2.05l-1.46-.43Z"/><path class="cls-1" d="m31.47,97.64c1.3-2.59,1.72-5.98,1.79-6.78.21.07.89.19,1.46.39.21.06.3.16.3.28,0,.19-.22.37-.58.37h-.04c-.1.62-.66,3.93-1.53,6.05l-1.41-.31Zm4.08-8.78c-.84.14-1.76.29-2.69.4-.06.45-.17.7-.3.7-.35,0-.72-2.11-.72-2.11.44,0,.92-.02,1.41-.06.51-.71,1.02-1.5,1.5-2.27-.56-.8-1.54-2.06-2.7-3.04l.69-1.08c.23.19.44.42.65.63.92-1.42,1.97-4.14,2.15-4.58.11.04,1.67.86,1.67,1.26,0,.11-.16.2-.38.2-.11,0-.23-.03-.36-.08-.3.62-1.41,2.81-2.22,4.09.48.52.89,1.03,1.18,1.43,1.16-1.93,2.06-3.75,2.35-4.57.24.17,1.04.69,1.36.96.15.12.24.27.24.38s-.15.25-.37.25c-.09,0-.2-.03-.3-.06-.3.46-2.27,3.86-3.97,6.33,1.47-.16,2.82-.38,3.65-.54-.28-.9-.59-1.73-.92-2.37l1.02-.52c.28.6,1.37,3.2,1.79,5.34l-1.19.67c-.08-.58-.23-1.26-.4-1.95-.5.11-1.13.24-1.87.35l.05,10.38h-1.41l.05-10.15Zm1.64,9.16c4.51-3.35,5.1-11.63,5.1-15.95,0-.89-.01-1.64-.03-2.11h-2.29v-1.35h6.73c.11,0,.22-.17.35-.17.03,0,.04.03.07.03.84.65.99.75.99.91,0,.15-.11.26-.38.33-.04.22-.27,1.77-.55,3.42h1.77c.09,0,.2-.15.35-.15.05,0,1.04.65,1.04.98,0,.12-.12.25-.37.33-.34,2.72-1.02,6.16-2.75,9.14,1.06,1.55,2.44,2.95,4.17,4.07l-1.57,1.15c-1.39-1.15-2.54-2.45-3.45-3.87-1.19,1.64-2.76,3.08-4.83,4.11l-1.51-1.03c2.5-.91,4.29-2.54,5.55-4.39-1.16-2.18-1.88-4.58-2.32-6.84-.43,4.24-1.55,9.3-4.43,11.95l-1.63-.57Zm1.43-3.29c-.21-1.9-.88-3.32-1.02-3.77l1.07-.43c.15.45.9,2.04,1.14,3.56l-1.18.65Zm6.64-8.91c.64-2.37,1.09-5.88,1.09-5.88l-2.83.03c.1,3.65.7,8.28,2.86,12.17,1.4-2.62,1.93-5.53,2.17-7.65h-1.62c-.1.5-.19,1.01-.27,1.44l-1.41-.11Z"/><path class="cls-1" d="m54.49,92.36c.1,2.54,1.56,3.6,3.31,3.6,1.07,0,3.49-.36,3.49-3.67,0-2.68-2.08-3.4-3.38-3.4h-.06l-1.39.02v-1.79l1.42.05h.08c1.46,0,2.86-1.23,2.86-3.11,0-2.7-2.35-2.79-2.9-2.79-2.77,0-2.92,2.58-2.95,3.08h-1.76c.03-2.51,1.86-4.76,4.73-4.76s4.55,1.86,4.55,4.39c0,1.76-.94,3.54-2.74,3.95,2.04.36,3.27,2.19,3.27,4.6,0,3.52-2.46,5.21-5.24,5.21s-4.98-1.89-5.1-5.35h1.82Z"/><path class="cls-1" d="m119.67,80.63h-8.09v4.94h6.95v2.53h-6.95v8.32h-2.63v-18.34h10.72v2.55Z"/><path class="cls-1" d="m135.52,89.49l2.29,8.74-6.3-5.33-6.3,5.33,2.29-8.74-6.51-5.3h8.06l2.46-8.64,2.47,8.64h8.05l-6.51,5.3Zm-2.42-3.92l-1.64-5.76-1.59,5.76h-5.37l4.28,3.41-1.54,5.86,4.26-3.57,4.23,3.57-1.52-5.86,4.25-3.41h-5.36Z"/><path class="cls-1" d="m157.59,89.49l2.28,8.74-6.29-5.33-6.3,5.33,2.3-8.74-6.51-5.3h8.05l2.46-8.64,2.46,8.64h8.06l-6.51,5.3Zm-2.42-3.92l-1.63-5.76-1.59,5.76h-5.37l4.28,3.41-1.55,5.86,4.27-3.57,4.23,3.57-1.52-5.86,4.26-3.41h-5.37Z"/><path class="cls-1" d="m179.67,89.49l2.29,8.74-6.3-5.33-6.3,5.33,2.29-8.74-6.51-5.3h8.06l2.46-8.64,2.46,8.64h8.06l-6.5,5.3Zm-2.42-3.92l-1.63-5.76-1.59,5.76h-5.37l4.29,3.41-1.55,5.86,4.26-3.57,4.22,3.57-1.5-5.86,4.24-3.41h-5.37Z"/><path class="cls-1" d="m201.74,89.49l2.29,8.74-6.29-5.33-6.3,5.33,2.28-8.74-6.5-5.3h8.06l2.47-8.64,2.45,8.64h8.07l-6.52,5.3Zm-2.42-3.92l-1.63-5.76-1.59,5.76h-5.37l4.28,3.41-1.54,5.86,4.27-3.57,4.21,3.57-1.5-5.86,4.24-3.41h-5.36Z"/><path class="cls-8" d="m109.13,118.61h9.65v1.8h-7.82v5.42h6.74v1.76h-6.74v8.45h-1.83v-17.43Z"/><path class="cls-8" d="m126.55,129.47l-6.47-5.3h8.06l2.46-8.64,2.46,8.64h8.06l-6.47,5.3,2.25,8.73-6.3-5.35-6.3,5.35,2.25-8.73Zm4.05,2.16l4.71,3.94-1.67-6.52,4.8-3.85h-6.03l-1.82-6.43-1.8,6.43h-6.02l4.81,3.85-1.69,6.52,4.73-3.94Z"/><path class="cls-8" d="m148.61,129.47l-6.46-5.3h8.06l2.46-8.64,2.46,8.64h8.06l-6.47,5.3,2.27,8.73-6.31-5.35-6.3,5.35,2.24-8.73Zm4.05,2.16l4.7,3.94-1.67-6.52,4.79-3.85h-6.02l-1.83-6.43-1.8,6.43h-6.02l4.81,3.85-1.69,6.52,4.73-3.94Z"/><path class="cls-8" d="m170.69,129.47l-6.47-5.3h8.06l2.46-8.64,2.46,8.64h8.05l-6.45,5.3,2.24,8.73-6.29-5.35-6.3,5.35,2.25-8.73Zm4.05,2.16l4.71,3.94-1.67-6.52,4.78-3.85h-6.02l-1.82-6.43-1.8,6.43h-6.01l4.81,3.85-1.7,6.52,4.73-3.94Z"/><path class="cls-8" d="m109.13,156.11h9.65v1.78h-7.82v5.44h6.74v1.75h-6.74v8.44h-1.83v-17.42Z"/><path class="cls-8" d="m126.55,166.97l-6.47-5.3h8.06l2.46-8.64,2.46,8.64h8.06l-6.47,5.3,2.25,8.73-6.3-5.33-6.3,5.33,2.25-8.73Zm4.05,2.16l4.71,3.96-1.67-6.53,4.8-3.86h-6.03l-1.82-6.41-1.8,6.41h-6.02l4.81,3.86-1.69,6.53,4.73-3.96Z"/><path class="cls-8" d="m148.61,166.97l-6.46-5.3h8.06l2.46-8.64,2.46,8.64h8.06l-6.47,5.3,2.27,8.73-6.31-5.33-6.3,5.33,2.24-8.73Zm4.05,2.16l4.7,3.96-1.67-6.53,4.79-3.86h-6.02l-1.83-6.41-1.8,6.41h-6.02l4.81,3.86-1.69,6.53,4.73-3.96Z"/><path class="cls-8" d="m109.13,192.01h9.65v1.78h-7.82v5.44h6.74v1.77h-6.74v8.44h-1.83v-17.43Z"/><path class="cls-8" d="m126.55,202.86l-6.47-5.3h8.06l2.46-8.63,2.46,8.63h8.06l-6.47,5.3,2.25,8.74-6.3-5.35-6.3,5.35,2.25-8.74Zm4.05,2.17l4.71,3.94-1.67-6.53,4.8-3.85h-6.03l-1.82-6.43-1.8,6.43h-6.02l4.81,3.85-1.69,6.53,4.73-3.94Z"/><path class="cls-1" d="m250.63,86.97c0,6.28-2.23,9.52-5.85,9.52s-5.88-3.24-5.88-9.52,2.23-9.58,5.88-9.58,5.85,3.32,5.85,9.58Zm-9.07,0c0,4.88,1.31,7.08,3.22,7.08s3.2-2.2,3.2-7.08-1.36-7.22-3.2-7.22-3.22,2.21-3.22,7.22Z"/><path class="cls-1" d="m255.65,96.11h-2.91v-3.25h2.91v3.25Z"/><path class="cls-1" d="m258.12,82.83v-.05c0-3.29,2.35-5.41,5.4-5.41s5.13,1.79,5.13,4.81c0,1.73-.81,3.58-2.53,4.07,2.04.48,3.1,2.33,3.1,4.69,0,3.71-2.77,5.49-5.84,5.49-4.69,0-5.72-3.82-5.75-6h2.66c.06,2.58,1.44,3.52,3.13,3.52,2.16.04,3.31-1.39,3.31-3.25,0-2.21-1.68-3.08-3.16-3.08h-.12l-1.66.04v-2.58l1.7.05h.12c1.48,0,2.63-1.12,2.63-2.75,0-1.8-1.29-2.55-2.74-2.55s-2.81.93-2.84,3.01h-2.54Z"/><path class="cls-1" d="m288.24,96.11h-2.43v-7.95c0-1.41-.15-2.99-2.19-2.99-1.38,0-2.23,1.29-2.47,2.49v8.45h-2.44v-7.95c0-1.36-.16-2.99-2.18-2.99-1.43,0-2.38,1.5-2.55,2.83v8.11h-2.43v-12.85h2.41l-.02,1.37c.55-.93,1.72-1.72,3.09-1.72,1.69,0,2.66.71,3.47,1.99,1.09-1.71,2.56-1.99,3.52-1.99,3.07,0,4.22,2.3,4.22,4.85v8.34Z"/><path class="cls-1" d="m301.35,84.38c-.16,0-.33-.03-.48-.03-.9,0-1.61.16-1.8.5.54.67.9,1.71.9,2.74,0,2.4-1.62,4.41-4.38,4.41-.66,0-1.13-.08-1.57-.19-.48,0-1.25.45-1.25.85,0,.47.23.74.85.85.51.12,1.28.14,2.6.26,2.86.27,5.04.98,5.04,3.71,0,2.57-2.33,4.25-5.88,4.25-2.82,0-5.41-1.22-5.41-3.58,0-1.4.72-2.28,2.15-3.09-.8-.31-1.58-.9-1.58-2.01,0-.92.39-1.71,1.46-2.31-.89-.61-1.39-1.81-1.39-3.28,0-2.3,1.53-4.49,4.69-4.49.8,0,1.67.19,2.25.53.46-.83,1.54-1.34,3.37-1.34l.44,2.2Zm-6.34,11.37h-.41c-1.17,0-2.27.92-2.27,2.06,0,1.03.95,1.83,3.05,1.83,2.23,0,3.56-.97,3.56-2.14,0-1.36-1.62-1.75-3.93-1.75Zm.33-10.75c-1.54,0-2.49.99-2.49,2.58s1.02,2.45,2.54,2.45c1.41,0,2.38-1.03,2.38-2.52s-.99-2.51-2.43-2.51Z"/><path class="cls-1" d="m303.77,96.11h-2.23l7.38-18.34h2.23l-7.38,18.34Z"/><path class="cls-1" d="m326.47,91.82c-.86,3.06-2.36,4.63-4.12,4.63s-2.61-1.3-3.21-2.7c-.76.74-1.97,1.52-2.7,1.85l-.97-2.14c.91-.34,2.57-1.38,3.05-1.88-.28-.85-.39-2.09-.39-3.34,0-7.54,2.98-10.83,4.98-10.83s2.53,2.24,2.53,4.05c0,3.45-1.68,8.03-4.74,11.11.17.84.76,1.61,1.42,1.61,1.13,0,1.75-1.42,2.27-3.39l1.87,1.02Zm-2.96-10.81c0-.37,0-1.41-.54-1.41-1.22,0-2.81,4.26-2.81,8.26,0,.81.06,1.66.18,2.3,1.9-2.08,3.17-6.32,3.17-9.15Z"/><path class="cls-8" d="m238.95,127.35c0-6.13,2.1-9.12,5.26-9.12s5.21,2.99,5.21,9.12-2.07,9.05-5.21,9.05-5.26-2.88-5.26-9.05Zm8.66,0c0-4.88-1.38-7.54-3.4-7.54s-3.43,2.62-3.43,7.54,1.32,7.36,3.43,7.36,3.4-2.58,3.4-7.36Z"/><path class="cls-8" d="m251.71,133.58h2.2v2.46h-2.2v-2.46Z"/><path class="cls-8" d="m258.35,131.55c.13,2.26,1.46,3.08,2.97,3.08,2.34,0,3.5-2.13,3.5-4.36s-.9-4.29-3.26-4.29c-1.07,0-2.4.61-2.99,2.09h-1.77l1-9.46h7.8v1.71h-6.42l-.61,5.51c1.12-1.34,2.7-1.39,3.22-1.39,3.18,0,4.78,2.53,4.78,5.78,0,3.78-2.14,6.17-5.19,6.17-2.75,0-4.66-1.68-4.89-4.83h1.86Z"/><path class="cls-8" d="m268.89,123.86h1.7c0,.27-.02,1.35-.02,1.7.57-1.27,1.81-2.05,3.25-2.08,1.8,0,2.75.88,3.38,2.33.99-2,2.67-2.33,3.54-2.33,2.74,0,3.77,2.07,3.77,4.5v8.06h-1.72v-7.56c0-1.5-.15-3.4-2.41-3.4-1.53,0-2.78,1.66-2.78,2.94v8.01h-1.7v-7.56c0-1.45-.2-3.4-2.44-3.4-1.58,0-2.86,1.83-2.86,3.3v7.65h-1.7v-12.18Z"/><path class="cls-8" d="m296.78,124.4h-.15c-1.1,0-1.84.25-2.01.74.58.72.89,1.66.89,2.74,0,2.31-1.46,4.23-3.91,4.23-.61,0-1.07-.06-1.5-.22-.5,0-1.48.57-1.48,1.13,0,.82.5.93,2.8,1.2,2.93.39,5.38.72,5.38,3.48,0,2.25-1.98,3.92-5.38,3.92-2.8,0-4.89-1.14-4.92-3.26,0-1.33.77-2.35,2.31-3.09-.89-.27-1.71-.82-1.71-1.9,0-.94.52-1.67,1.53-2.25-.89-.5-1.48-1.71-1.48-3.24,0-2.22,1.35-4.29,4.22-4.29.8,0,1.61.22,2.2.6.38-.77,1.25-1.38,2.84-1.4l.39,1.6Zm-5.37,15.7c2.16,0,3.78-.89,3.78-2.36s-1.62-2-4.29-2c-1.65,0-2.75,1.25-2.75,2.34,0,1.42,1.36,2.02,3.27,2.02Zm.01-9.39c1.5,0,2.53-1.18,2.53-2.87s-1.03-2.83-2.6-2.83c-1.66,0-2.68,1.12-2.68,2.91s1.15,2.8,2.75,2.8Z"/><path class="cls-8" d="m304.06,118.61h1.5l-6.98,17.43h-1.52l7-17.43Z"/><path class="cls-8" d="m310.46,134.04c.98-.41,2.49-1.41,3.05-1.95-.27-.95-.38-2.3-.38-3.64,0-7.6,3.12-10.22,4.52-10.22,1.88,0,2.1,2.23,2.1,3.58,0,4.14-2.01,8.31-4.58,10.95.26,1.04.87,2.02,1.69,2.02,1.19,0,1.94-1.37,2.48-3.27l1.3.77c-.9,2.74-2.28,4.14-3.76,4.14-1.6,0-2.4-1.25-3-2.74-.96.88-2.16,1.59-2.79,1.92l-.65-1.56Zm7.77-12.65c0-.51,0-1.6-.67-1.6-1.31,0-2.98,4.09-2.98,8.61,0,.96.07,1.95.2,2.67,2.12-2.17,3.45-6.67,3.45-9.68Z"/><path class="cls-8" d="m243.7,159.82h-2.88v-1.28c2.42-.19,3.23-1.73,3.46-2.59h1.25v17.58h-1.82v-13.71Z"/><path class="cls-8" d="m251.71,171.09h2.2v2.44h-2.2v-2.44Z"/><path class="cls-8" d="m258.35,169.04c.13,2.29,1.46,3.1,2.97,3.1,2.34,0,3.5-2.13,3.5-4.36s-.9-4.29-3.26-4.29c-1.07,0-2.4.61-2.99,2.09h-1.77l1-9.46h7.8v1.71h-6.42l-.61,5.51c1.12-1.34,2.7-1.39,3.22-1.39,3.18,0,4.78,2.52,4.78,5.77,0,3.77-2.14,6.16-5.19,6.16-2.75,0-4.66-1.68-4.89-4.84h1.86Z"/><path class="cls-8" d="m268.89,161.37h1.7c0,.26-.02,1.33-.02,1.7.57-1.28,1.81-2.06,3.25-2.1,1.8,0,2.75.9,3.38,2.33.99-1.99,2.67-2.33,3.54-2.33,2.74,0,3.77,2.08,3.77,4.51v8.05h-1.72v-7.55c0-1.5-.15-3.4-2.41-3.4-1.53,0-2.78,1.66-2.78,2.94v8h-1.7v-7.55c0-1.46-.2-3.4-2.44-3.4-1.58,0-2.86,1.83-2.86,3.29v7.65h-1.7v-12.16Z"/><path class="cls-8" d="m296.78,161.89h-.15c-1.1,0-1.84.27-2.01.74.58.72.89,1.67.89,2.74,0,2.33-1.46,4.23-3.91,4.23-.61,0-1.07-.07-1.5-.2-.5,0-1.48.58-1.48,1.13,0,.82.5.93,2.8,1.2,2.93.38,5.38.72,5.38,3.48,0,2.25-1.98,3.91-5.38,3.91-2.8,0-4.89-1.13-4.92-3.25,0-1.31.77-2.34,2.31-3.09-.89-.26-1.71-.82-1.71-1.91,0-.93.52-1.65,1.53-2.23-.89-.5-1.48-1.71-1.48-3.26,0-2.21,1.35-4.27,4.22-4.27.8,0,1.61.21,2.2.6.38-.77,1.25-1.38,2.84-1.4l.39,1.59Zm-5.37,15.72c2.16,0,3.78-.89,3.78-2.37s-1.62-1.99-4.29-1.99c-1.65,0-2.75,1.25-2.75,2.34,0,1.41,1.36,2.02,3.27,2.02Zm.01-9.39c1.5,0,2.53-1.18,2.53-2.86s-1.03-2.83-2.6-2.83c-1.66,0-2.68,1.13-2.68,2.91s1.15,2.78,2.75,2.78Z"/><path class="cls-8" d="m304.06,156.11h1.5l-6.98,17.42h-1.52l7-17.42Z"/><path class="cls-8" d="m310.46,171.55c.98-.42,2.49-1.4,3.05-1.96-.27-.93-.38-2.29-.38-3.64,0-7.6,3.12-10.23,4.52-10.23,1.88,0,2.1,2.25,2.1,3.6,0,4.14-2.01,8.29-4.58,10.95.26,1.03.87,2.01,1.69,2.01,1.19,0,1.94-1.37,2.48-3.26l1.3.76c-.9,2.75-2.28,4.14-3.76,4.14-1.6,0-2.4-1.25-3-2.74-.96.9-2.16,1.59-2.79,1.93l-.65-1.57Zm7.77-12.65c0-.5,0-1.62-.67-1.62-1.31,0-2.98,4.09-2.98,8.63,0,.96.07,1.96.2,2.68,2.12-2.18,3.45-6.69,3.45-9.69Z"/><path class="cls-8" d="m241.09,203.98c.13,2.28,1.47,3.11,2.97,3.11,2.33,0,3.5-2.15,3.5-4.38s-.89-4.29-3.26-4.29c-1.06,0-2.4.6-2.99,2.09h-1.77l1.01-9.46h7.8v1.71h-6.41l-.62,5.51c1.13-1.35,2.71-1.4,3.22-1.4,3.18,0,4.79,2.53,4.79,5.78,0,3.78-2.14,6.16-5.2,6.16-2.75,0-4.67-1.68-4.9-4.83h1.87Z"/><path class="cls-8" d="m251.71,206.03h2.2v2.45h-2.2v-2.45Z"/><path class="cls-8" d="m256.21,199.78c0-6.13,2.1-9.11,5.26-9.11s5.22,2.98,5.22,9.11-2.09,9.06-5.22,9.06-5.26-2.9-5.26-9.06Zm8.65,0c0-4.88-1.38-7.52-3.39-7.52s-3.44,2.61-3.44,7.52,1.33,7.37,3.44,7.37,3.39-2.57,3.39-7.37Z"/><path class="cls-8" d="m268.89,196.3h1.7c0,.27-.02,1.35-.02,1.71.57-1.28,1.81-2.07,3.25-2.09,1.8,0,2.75.89,3.38,2.33.99-2,2.67-2.33,3.54-2.33,2.74,0,3.77,2.06,3.77,4.49v8.07h-1.72v-7.56c0-1.5-.15-3.4-2.41-3.4-1.53,0-2.78,1.66-2.78,2.93v8.02h-1.7v-7.56c0-1.45-.2-3.4-2.44-3.4-1.58,0-2.86,1.84-2.86,3.3v7.65h-1.7v-12.18Z"/><path class="cls-8" d="m296.78,196.84h-.15c-1.1,0-1.84.27-2.01.74.58.72.89,1.66.89,2.74,0,2.31-1.46,4.24-3.91,4.24-.61,0-1.07-.07-1.5-.22-.5,0-1.48.58-1.48,1.14,0,.8.5.93,2.8,1.19,2.93.38,5.38.73,5.38,3.49,0,2.23-1.98,3.9-5.38,3.9-2.8,0-4.89-1.13-4.92-3.25,0-1.31.77-2.35,2.31-3.1-.89-.26-1.71-.82-1.71-1.89,0-.94.52-1.66,1.53-2.23-.89-.52-1.48-1.72-1.48-3.26,0-2.21,1.35-4.28,4.22-4.28.8,0,1.61.21,2.2.6.38-.77,1.25-1.37,2.84-1.39l.39,1.59Zm-5.37,15.71c2.16,0,3.78-.89,3.78-2.35s-1.62-1.99-4.29-1.99c-1.65,0-2.75,1.25-2.75,2.33,0,1.42,1.36,2.02,3.27,2.02Zm.01-9.38c1.5,0,2.53-1.19,2.53-2.87s-1.03-2.84-2.6-2.84c-1.66,0-2.68,1.12-2.68,2.9s1.15,2.8,2.75,2.8Z"/><path class="cls-8" d="m304.06,191.05h1.5l-6.98,17.43h-1.52l7-17.43Z"/><path class="cls-8" d="m310.46,206.48c.98-.41,2.49-1.38,3.05-1.95-.27-.93-.38-2.28-.38-3.64,0-7.59,3.12-10.22,4.52-10.22,1.88,0,2.1,2.22,2.1,3.58,0,4.14-2.01,8.3-4.58,10.95.26,1.05.87,2.01,1.69,2.01,1.19,0,1.94-1.36,2.48-3.26l1.3.77c-.9,2.74-2.28,4.14-3.76,4.14-1.6,0-2.4-1.25-3-2.74-.96.89-2.16,1.58-2.79,1.93l-.65-1.57Zm7.77-12.63c0-.51,0-1.61-.67-1.61-1.31,0-2.98,4.09-2.98,8.62,0,.96.07,1.96.2,2.67,2.12-2.15,3.45-6.69,3.45-9.68Z"/><path class="cls-1" d="m429.74,88.26c0,6.29-2.22,9.54-5.85,9.54s-5.87-3.25-5.87-9.54,2.23-9.57,5.87-9.57,5.85,3.31,5.85,9.57Zm-9.07,0c0,4.89,1.32,7.07,3.22,7.07s3.2-2.18,3.2-7.07-1.36-7.22-3.2-7.22-3.22,2.21-3.22,7.22Z"/><path class="cls-1" d="m434.77,97.4h-2.91v-3.25h2.91v3.25Z"/><path class="cls-1" d="m446.77,90.96h2.24v2.44h-2.24v4h-2.42v-4h-7.78v-2.1l7.54-12.37h2.66v12.04Zm-7.48.07l5.06-.07.05-3.27c0-.72.12-4.84.21-5.9-.2.58-.81,1.69-1.11,2.2l-4.2,7.05Z"/><path class="cls-1" d="m467.36,97.4h-2.45v-7.93c0-1.42-.14-3.01-2.18-3.01-1.38,0-2.23,1.29-2.48,2.51v8.43h-2.44v-7.93c0-1.37-.15-3.01-2.19-3.01-1.42,0-2.37,1.52-2.54,2.85v8.09h-2.44v-12.84h2.41l-.02,1.36c.55-.95,1.71-1.7,3.08-1.7,1.71,0,2.68.69,3.46,1.97,1.12-1.7,2.58-1.97,3.55-1.97,3.07,0,4.22,2.29,4.22,4.84v8.33Z"/><path class="cls-1" d="m480.48,85.66c-.17,0-.35-.01-.5-.01-.88,0-1.6.17-1.79.5.54.67.91,1.71.91,2.76,0,2.4-1.63,4.4-4.4,4.4-.65,0-1.1-.08-1.54-.2-.5,0-1.26.46-1.26.87,0,.45.23.72.84.84.51.12,1.28.14,2.58.25,2.87.26,5.04.97,5.04,3.72,0,2.58-2.33,4.25-5.87,4.25-2.81,0-5.39-1.23-5.39-3.58,0-1.41.72-2.29,2.14-3.08-.8-.35-1.57-.91-1.57-2.03,0-.92.38-1.71,1.45-2.32-.89-.6-1.4-1.8-1.4-3.26,0-2.31,1.53-4.51,4.69-4.51.8,0,1.68.19,2.25.55.47-.83,1.56-1.34,3.37-1.34l.45,2.18Zm-6.35,11.4h-.42c-1.16,0-2.27.91-2.27,2.03,0,1.05.95,1.83,3.04,1.83,2.23,0,3.58-.95,3.58-2.13,0-1.35-1.61-1.73-3.93-1.73Zm.31-10.77c-1.53,0-2.47.99-2.47,2.58s1.01,2.45,2.54,2.45c1.39,0,2.37-1.03,2.37-2.52s-1-2.51-2.44-2.51Z"/><path class="cls-1" d="m482.88,97.4h-2.23l7.37-18.32h2.23l-7.38,18.32Z"/><path class="cls-1" d="m505.58,93.13c-.85,3.06-2.36,4.61-4.12,4.61s-2.6-1.29-3.19-2.69c-.78.75-1.98,1.51-2.7,1.85l-.97-2.14c.92-.34,2.56-1.4,3.04-1.86-.27-.89-.37-2.12-.37-3.36,0-7.54,2.96-10.82,4.98-10.82s2.51,2.23,2.51,4.02c0,3.48-1.67,8.05-4.75,11.13.17.85.77,1.61,1.42,1.61,1.12,0,1.76-1.42,2.28-3.39l1.86,1.04Zm-2.95-10.84c0-.36,0-1.39-.53-1.39-1.24,0-2.83,4.25-2.83,8.25,0,.81.07,1.65.17,2.31,1.91-2.09,3.18-6.32,3.18-9.17Z"/><path class="cls-1" d="m538.46,82.46h-3.85v2.1h4.47v2.01h-4.47v2h3.92v4.07c0,.08.02,1.53.02,1.53v.05c0,1.96-.98,2.53-2.45,2.53h-.29c-.08,0-.1-.04-.12-.11-.1-.63-.92-2.23-.92-2.23.52.12.92.2,1.2.2.62,0,.77-.27.77-.75v-3.41h-2.12v8.3h-1.89v-8.3h-1.96v6.41h-1.85v-8.3h3.8v-2h-4.41v-2.01h4.41v-2.1h-2.1c-.21.6-.47,1.18-.74,1.68-.02.08-.06.12-.1.12-.03,0-.06,0-.08-.02-.57-.25-1.9-.35-1.9-.35,1.23-1.74,1.99-4.32,2.17-6.15,0,0,1.49.3,1.78.36.25.06.44.2.44.34,0,.12-.14.25-.53.28-.06.33-.2.99-.4,1.77h1.46v-1.49s0-1.13-.07-1.81c0,0,1.74.12,2.26.17.21.03.35.14.35.26,0,.18-.2.39-.62.48-.02.34-.03,1.07-.03,1.07v1.31h3.85v1.98Zm3.5,11.09h-1.93v-12.97s0-1.3-.06-2.07c.06,0,1.76.06,2.31.17.2.03.33.14.33.27,0,.13-.18.33-.61.46-.02.48-.04,1.39-.04,1.39v12.75Zm4.08-.58c0,1.16.04,2.06.04,2.23v.1c0,2.61-1.62,3.19-3.8,3.19h-.55c-.08,0-.18-.02-.2-.12-.2-.7-1.52-2.38-1.52-2.38.89.12,1.67.22,2.3.22,1.1,0,1.71-.29,1.71-1.23v-15.76s-.01-1.29-.06-1.89c0,0,1.71.13,2.3.22.25.02.4.13.4.27s-.19.31-.57.38c-.01.38-.04,1.16-.04,1.16v13.62Z"/><path class="cls-1" d="m550.66,79.89v19.01h-1.92v-20.91h4.87s.14-.15.26-.15c.15,0,1.47.9,1.47,1.19,0,.12-.1.23-.36.34-.49,2.24-1.15,4.53-1.53,5.67,1.47,2,1.47,4.05,1.47,4.41,0,2.44-.71,4.28-3.05,4.28h-.04c-.11,0-.15,0-.17-.11-.12-.64-.87-2.3-.87-2.3.38.1.7.15.98.15.88,0,1.23-.57,1.23-1.92,0-2.41-1.19-3.89-1.51-4.26.4-1.21,1.01-3.32,1.39-5.4h-2.22Zm14.42,8.69h-1.91v-.49h-1.66c.06.74.21,1.9.63,3.14.77-.43,2.27-1.34,3.44-2.42,0,0,1.07,1.47,1.3,1.99.04.13.06.23.06.3,0,.13-.05.19-.14.19-.11,0-.29-.1-.49-.26-.88.63-2.59,1.59-3.37,2.04.89,1.61,2.33,3.16,4.67,3.89,0,0-1.62,1.05-2.08,1.62-.02.05-.06.07-.09.07-.05,0-2.69-1.26-4.34-4.92,0,1.32,0,1.49.05,1.73v.06s-.02.1-.08.14c-.96.46-3.27,1.54-6.5,2.57v.14c0,.37-.07.63-.22.63-.12,0-.53-.45-1.31-2.78,1.02-.24,2.06-.53,3.03-.84v-17.26h9.03v10.45Zm-7.11-8.45v2h5.2v-2h-5.2Zm0,3.9v2.17h5.2v-2.17h-5.2Zm0,4.07v6.63c1.44-.54,2.58-1.02,3.02-1.24-.92-2.11-1.23-4.23-1.34-5.38h-1.68Z"/><path class="cls-1" d="m577.94,81.72c-.95.31-2.07.64-3.12.91-1.22,3.76-3.28,8.23-4.61,11.09l-2.36-.56c1.19-2.12,3.46-6.44,4.67-9.96l-.39.06c-.57.14-1.13.2-1.65.2-.66,0-1.28-.13-1.94-.36l-.36-2.19c0-.06-.02-.1-.02-.12,0-.1.05-.13.08-.13.04,0,.1,0,.16.02.97.36,1.69.55,2.5.55.72,0,1.44-.15,2.13-.31.15-.57.46-1.94.5-3.45.48.08,1.92.23,2.34.3.33.04.46.19.46.31,0,.17-.24.36-.59.41-.09.45-.23,1.14-.38,1.78.86-.3,1.73-.6,2.48-.91l.11,2.34Zm5.17,15.01s-.06.05-.07.05c-.02,0-.07-.03-.09-.05-.74-.86-1.85-1.75-2.76-2.38-.38,1.99-2.16,3.2-4.05,3.2-2.13,0-3.94-1.54-3.94-3.29s1.64-3.09,4.12-3.09c.66,0,1.31.08,1.91.22-.05-1.05-.11-2.19-.11-3.27,0-.78.02-1.52.12-2.1,0,0,1.66.14,2.17.24.29.08.43.2.43.31,0,.16-.22.34-.58.41-.16.7-.19,1.45-.19,2.19,0,.96.08,1.93.12,2.76,1.4.63,3.52,2.01,4.58,3.12l-1.66,1.68Zm-6.92-3.6c-1.26,0-2.02.52-2.02,1.1,0,.61.85,1.18,1.91,1.18s2.04-.65,2.2-1.85c-.63-.26-1.38-.43-2.08-.43Zm7.72-7.65c-.02.06-.05.12-.09.12-.03,0-.05,0-.08-.05-.93-.91-2.57-1.37-4.51-1.37-.3,0-.62,0-.94.03-.17,0-.21,0-.21-.1v-.07s.32-1.85.32-1.96c.39-.02.79-.04,1.21-.04,1.9,0,3.97.31,4.94,1.32l-.63,2.13Z"/><path class="cls-1" d="m589.2,91.03c0,1.99.14,4.17,2.81,4.17,3.54,0,6.6-4.12,7.56-5.74,0,0,.52,2.3.86,3.01.02.05.05.09.05.15,0,.02-.03.08-.07.1-1.18,1.62-4.56,5.04-8.48,5.04-4.92,0-4.94-4.64-4.94-6.81,0-3.15.39-6.65.39-10.21,0-.62-.02-1.26-.05-1.9.63.04,2.18.18,2.77.3.28.03.42.19.42.35,0,.2-.28.41-.68.51-.15,3.84-.63,8.17-.63,11.04Z"/><path class="cls-1" d="m603.57,97.61c-.85-1.8-1.11-3.91-1.11-5.84,0-.29.03-.6.03-.88.18-5.1,1.26-8.96,1.37-11.84,0-.12.03-.16.09-.16.02,0,.04,0,.08.02.1.02,1.74.47,2.33.71.22.08.35.22.35.35,0,.15-.16.28-.6.31-.38,2.01-1.58,6.42-1.73,9.55-.02.06-.07.45-.07.84,0,.45.07.67.13.67.13,0,1.67-4.53,1.67-4.53,0,0,.44,1.48.81,2.22-.47,1.47-1.15,3.29-1.42,4.86-.07.37-.17,1.01-.17,1.81,0,.38.02.82.08,1.25,0,.1-.03.19-.11.22l-1.73.44Zm7.25-6.47c-.68.84-.69,1.02-.69,1.18,0,.82,1.43,1.54,3.74,1.52,1.27,0,2.82-.34,4.37-.99,0,0-.3,1.93-.3,2.7,0,.01-.02.04-.04.04-1.25.43-3.37.61-4.11.61-3.51,0-5.76-1.64-5.76-3.56,0-.97.63-1.72.98-2.13l1.81.62Zm6.42-7.31c0,.1-.06.12-.08.15-1.23.24-2.89.4-4.5.4-1.41,0-2.8-.13-3.79-.49l.08-2.16c0-.09.04-.12.08-.12h.05c.91.27,2.01.41,3.19.41,1.59,0,3.33-.22,4.97-.58v2.37Z"/><path class="cls-1" d="m638.47,81.59h-5.92v1.75h4.72v7.68h-1.86v-.9h-3c-.16,1.67-.53,3.02-1.06,4.13,1.59,1.03,3.63,1.57,6.03,1.57.59,0,1.19-.02,1.83-.09,0,0-1.35,1.65-1.63,2.46-.02.08-.11.08-.17.08-2.75-.08-5.19-.92-7.14-2.34-1.55,1.83-4.41,2.77-4.6,2.77-.04,0-.09-.03-.11-.07-.26-.43-1.23-1.28-1.69-1.64v1.86h-2.05l.07-8.19.06-3.81c-.33.76-.72,1.47-1.14,2.17-.05.05-.07.1-.11.1,0,0-.02-.03-.03-.05-.34-.46-1.79-1.36-1.79-1.36,2.27-2.67,3.95-8.06,4.37-10.78.11.03,2.62.59,2.62,1.04,0,.19-.23.33-.56.33-.06,0-.12,0-.18-.01-.28,1-.79,2.63-1.45,4.46.17,0,.29,0,.38.03.37.08.53.19.53.31,0,.16-.25.36-.62.49-.02.42-.04,1.49-.04,1.49l-.05,11.68c2.35-.4,3.89-1.11,4.91-2.16-.76-.83-1.42-1.72-1.95-2.77l1.57-1.06c.37.82.85,1.58,1.45,2.19.35-.81.53-1.75.64-2.84h-2.73v.77h-1.84v-7.56h4.66v-1.75h-5.39v-2.05h5.36v-.09c0-.82-.02-1.69-.06-2.31,2.62,0,2.69.35,2.69.43,0,.17-.24.33-.6.42-.03.45-.03.9-.03,1.45v.11h5.92v2.05Zm-10.71,3.65v2.97h2.84v-2.97h-2.84Zm4.77,0v2.97h2.89v-2.97h-2.89Z"/><path class="cls-1" d="m641.97,84.24c-.03-.08-.05-.11-.05-.14,0-.07.05-.1.11-.1h.05c.53.13,1.13.17,1.72.17,2.61,0,6.93-1.26,7.18-1.44.14-.1.22-.19.33-.19.21,0,1.98,1.29,1.98,1.59,0,.14-.12.26-.51.37-.97.85-2.1,2.27-2.96,3.23-.9,1.01-1.62,1.96-2.74,3.14.14-.06.27-.08.39-.08.1,0,.2.02.3.02,1,.23,1.31,1.23,1.63,2.17.53,1.61.76,2.02,2.24,2.02,1.36,0,2.84-.36,4.08-.69,0,0-.63,1.94-.73,2.66,0,.11-.07.15-.15.17-.82.16-2.06.33-3.21.33-2.72,0-3.37-.88-4.03-3.29-.34-1.2-.59-1.8-1.09-1.8-.42,0-.81.35-1.18.72-1,.98-2.48,3.09-3.53,4.41,0,0-1.51-.86-2.25-1.3-.06-.03-.06-.05-.06-.1,0-.03,0-.05,0-.07,1.76-1.95,4.01-4.02,4.66-4.69,1.12-1.18,3.65-4.28,5.07-6.13-3.01,1.02-4.6,1.46-6.19,1.46l-1.07-2.43Zm3.03-5.87c1.48.43,2.96.65,4.65.65.8,0,1.62-.05,2.52-.14,0,0-.9,1.73-1.13,2.43-.02.07-.09.11-.15.11h-.27c-2.19,0-4.63-.27-6.56-1.03l.94-2.03Z"/><path class="cls-1" d="m658.41,80.24s-.02-.08-.02-.1c0-.04.05-.09.11-.09h.04c.46.06.98.11,1.48.11,1.87,0,4.04-.46,5.88-1.17.23-.09.31-.26.44-.26.14,0,1.95,1.41,1.95,1.77,0,.16-.16.24-.46.35-1.78,1.88-3.96,4.13-5.62,5.85-.07.07-.11.11-.11.11,0,.03.02.03.02.03.05,0,.11-.05.15-.05,1.06-.48,2.2-.74,3.28-.74,2.85,0,5.34,1.8,5.34,4.84,0,3.7-3.4,6.73-7.37,6.73-2.75,0-5.05-1.3-5.05-3.46,0-1.66,1.38-2.62,2.98-2.62,2.24,0,3.69,1.6,3.69,3.44v.09c2.42-.74,3.39-2.7,3.39-4.03,0-2.97-2.9-2.99-3.41-2.99-2.14,0-4.96.82-7.34,4.18-.04.06-.09.09-.11.09-.03,0-.07,0-.1-.03l-1.88-1.25s-.06-.07-.06-.1c0-.05.01-.1.03-.13,1.44-1.47,2.69-2.56,3.57-3.41.13-.12.23-.22.29-.32,2.57-2.77,5.01-5.51,5.01-5.7t-.02-.03s-.08.03-.17.06c-1.63.66-3.28,1.15-4.85,1.15h-.32l-.77-2.31Zm4.71,14.79c0-.22-.02-1.84-1.82-1.84-1.02,0-1.03.68-1.03.83,0,.98,1.47,1.41,2.69,1.41h.14c.02-.13.02-.27.02-.4Z"/><path class="cls-8" d="m531.34,135.44l.09-5.49c-.5,1.18-1.02,2.36-1.73,3.42l-1.5-.56c2.31-2.82,4.04-8.35,4.49-10.88.09.02,1.98.47,1.98.86,0,.22-.28.38-.6.38-.03,0-.1-.03-.17-.03-.34,1.14-.83,2.7-1.53,4.59.25,0,.46,0,.55.02.33.05.48.17.48.33,0,.18-.24.38-.63.49-.02.43-.03,1.48-.03,1.48l-.1,13.47h-1.39l.09-8.09Zm1.64,6.53c2.56-.56,4.23-1.44,5.27-2.73-.67-.75-1.31-1.7-1.89-2.81l1.11-.82c.41.96.95,1.78,1.52,2.46.47-.97.72-2.1.86-3.4h-3.35l.02,1.16h-1.32v-7.56h4.74v-2.19h-5.73v-1.45h5.7v-.28c0-.86-.02-1.64-.06-2.21,1.84.08,2.07.21,2.07.45,0,.15-.2.3-.58.4-.04.4-.04.86-.04,1.39v.26h6.12v1.45h-6.14v2.19h4.86v7.48h-1.31v-1.08h-3.67c-.18,1.81-.58,3.23-1.17,4.36,1.79,1.47,4.06,2.05,6.41,2.05.58,0,1.17-.02,1.76-.09l-1.33,1.82c-2.52,0-5.25-.52-7.6-2.6-1.13,1.42-2.72,2.31-4.75,3.02l-1.5-1.25Zm6.95-8.67c.02-.4.02-.79.02-1.22l-.02-2.44h-3.44v3.66h3.44Zm4.89,0v-3.66h-3.55v2.67c0,.34,0,.68,0,.99h3.55Z"/><path class="cls-8" d="m550.57,142.66c2.78-3.06,2.82-8.8,2.82-12.38,0-2.43-.11-6.69-.11-6.96h14.69v14.06c0,1.36.05,2.43.05,2.88v.06c0,2.44-1.87,2.8-3.65,2.8-.37,0-.74,0-1.07-.02l-1.04-1.94c.89.18,1.69.27,2.32.27,1.25,0,1.99-.35,1.99-1.34v-4.37h-5.44v7.17h-1.4v-7.17h-5.18c-.27,2.64-.91,5.34-2.37,7.55l-1.61-.6Zm9.16-8.38v-4.13h-4.94l-.02.69c0,1.09-.01,2.24-.08,3.44h5.05Zm0-5.53v-4.02h-5s.03,1.75.03,4.02h4.97Zm6.84,0v-4.02h-5.44v4.02h5.44Zm0,5.53v-4.13h-5.44v4.13h5.44Z"/><path class="cls-8" d="m574.27,128.08h5.89c.42-1.07.85-2.59,1.06-3.42h-8.2v-1.54h18.64v1.54h-8.82c-.26.83-.74,2.38-1.22,3.42h8.84v15.31h-1.41v-1.48h-13.36v1.65h-1.43v-15.47Zm4.59,12.32v-10.88h-3.16v10.88h3.16Zm5.49-8.25v-2.63h-4.12v2.63h4.12Zm0,4v-2.58h-4.12v2.58h4.12Zm0,4.25v-2.83h-4.12v2.83h4.12Zm4.7,0v-10.88h-3.33v10.88h3.33Z"/><path class="cls-8" d="m598.18,139.33c0-1.68.09-5.35.14-7.38-.29,1.28-1.04,3.86-2.43,6.3l-1.44-.6c2.24-2.75,3.41-7.39,3.58-8.11h-2.59v-1.42h2.78v-3.62c-1.09.32-1.87.47-1.97.49l-1-1.23c.32-.05,3.48-.34,5.22-1.67.04.04,1.25,1.09,1.25,1.46,0,.1-.08.17-.21.17-.13,0-.32-.06-.54-.19-.52.24-1.01.44-1.47.57v4.03h2.01v1.42h-1.91c.28.84,1.1,3.01,2.63,5.08l-1.29.53c-.79-1.62-1.32-3.35-1.51-3.91l-.07-.22c.04,1.52.15,5.82.15,8.36v4.2h-1.33v-4.26Zm1.97,3.21c3.28-.73,5.43-2.65,5.58-2.8,1.1.63,1.45.85,1.45,1.05,0,.11-.18.2-.41.2-.12,0-.27-.01-.43-.07-.19.17-2.39,1.96-4.83,2.67l-1.36-1.05Zm1.78-13.86h5v-1.4h-4.3v-1.16h4.3v-1.24h-4.67v-1.22l4.67.04v-.15c0-.12,0-1.04-.05-1.61,1.34,0,1.96.19,1.96.43,0,.14-.18.31-.6.39-.02.3-.03.82-.03.82v.08h5.25v1.22h-5.25v1.24h4.74v1.16h-4.74v1.4h5.68v1.18h-11.96v-1.18Zm1.17,2.39h9.08v8.87h-1.23v-.79h-6.64v.77h-1.21v-8.85Zm7.85,2.33v-1.21h-6.64v1.21h6.64Zm0,2.31v-1.25h-6.64v1.25h6.64Zm0,2.36v-1.33h-6.64v1.33h6.64Zm-1.4,1.59c.16.15,2.21,1.81,4.98,2.63l-1.37,1.07c-2.47-1.07-4.42-2.77-4.63-2.93l1.02-.77Z"/><path class="cls-8" d="m617.38,141.46c2.07-3.96,3.92-7.81,5.11-11.08-2.08.55-2.88.71-3.84.71-.16,0-.27-.02-.4-.02l-.5-1.63s0-.05,0-.07c0-.1.08-.12.14-.12.49.07,1.01.12,1.57.12s1.17-.05,1.78-.14l1.79-.33c.5-1.59,1.01-3.52,1.07-5.2.17.02,1.38.27,1.85.4.26.08.36.2.36.34,0,.19-.26.39-.69.39-.15.7-.58,2.36-1.03,3.8l.65-.12c.23-.04.48-.07.7-.07,2.27,0,2.67,2.25,2.67,4.57,0,1.67-.23,3.7-.67,5.15-.68,2.15-2.28,3.32-3.89,3.32-.78,0-1.57-.27-2.24-.82l-.2-2.27c.68.81,1.62,1.29,2.51,1.29.99,0,1.92-.6,2.39-2.04.38-1.23.65-3.27.65-4.89,0-1.93-.33-2.91-1.55-2.91-.26,0-.94.12-1.52.22-1.28,3.52-2.86,7.1-5,11.72l-1.71-.31Zm13.59-13.1c2.65,1.82,4.6,4.26,4.75,6.38l-1.33.84s-.08.06-.11.06c-.06,0-.08-.06-.08-.17-.19-2.08-1.61-4.54-4.48-6.2-.05-.05-.06-.1-.06-.13,0-.04.01-.09.05-.09l1.26-.7Zm.51-3.52c.45.22,1.95,1.04,2.87,2.13l-.87,1.13c-.51-.75-1.49-1.61-2.81-2.31l.81-.95Zm1.64-1.78c.27.15,1.89.94,2.82,1.95l-.83,1.17c-.65-.84-1.66-1.56-2.77-2.14l.78-.99Z"/><path class="cls-8" d="m530.04,159.56h3.89v-2.41h-4.58v-1.47h4.58v-2.64h-2.49c-.27.77-.59,1.53-.96,2.16l-1.47-.32c1.2-1.76,1.98-4.33,2.18-6.15,1.31.25,1.76.34,1.76.6,0,.14-.17.25-.56.27-.06.46-.25,1.18-.48,2.03h2.02v-1.67c0-.14,0-1.27-.05-1.81.06,0,1.23.13,1.65.17.25.03.38.15.38.29,0,.17-.2.38-.61.45-.02.33-.05,1.06-.05,1.06v1.5h4.07v1.41h-4.07v2.64h4.69v1.47h-4.69v2.41h3.97v3.66c0,.58.05,1.75.05,1.88v.1c0,1.85-1.24,2.21-2.6,2.21h-.26l-.81-1.77c.52.09.96.16,1.33.16.66,0,1.02-.25,1.02-.88v-3.95h-2.7v8.43h-1.33v-8.43h-2.55v6.62h-1.33v-8.02Zm11.15-8.13c0-.06,0-1.26-.04-1.96,1.67,0,2.04.18,2.04.42,0,.17-.22.36-.6.44-.02.53-.04,1.31-.04,1.31v12.74h-1.36v-12.94Zm.13,15.77c.79.11,1.52.2,2.13.2,1.07,0,1.76-.26,1.76-1.27v-15.91s0-1.25-.03-1.85c.12.02,1.14.11,1.63.17.29.01.41.14.41.28s-.19.31-.56.39c-.02.38-.03,1.18-.03,1.18v13.62c0,1.18.03,2.09.03,2.26v.08c0,2.31-1.69,2.69-3.62,2.69h-.57l-1.14-1.83Z"/><path class="cls-8" d="m552.01,149.01h4.82s.15-.14.25-.14c.09,0,.75.64.89.79.08.07.13.15.13.24,0,.12-.11.24-.36.31-.71,2.62-1.45,4.72-1.74,5.49.62.65,1.65,2.48,1.65,4.52,0,3.47-1.68,3.96-2.99,3.96h-.14l-.87-1.78c.3.05.67.12,1.01.12.64,0,1.63-.2,1.63-2.26,0-2.54-1.51-4.14-1.69-4.35.48-1.28,1.12-3.12,1.66-5.58h-2.87v19.26h-1.38v-20.59Zm7.25.14h8.47v10.12h-1.32v-.64h-2.34c.07.8.27,2.22.82,3.76.63-.35,2.45-1.4,3.74-2.63.06.07,1.07,1.34,1.07,1.82,0,.11-.07.18-.18.18s-.32-.07-.53-.26c-.95.67-2.86,1.8-3.53,2.19.93,1.83,2.45,3.59,4.99,4.33l-1.62,1.23c-4.81-2.38-5.83-8.64-6.04-10.63h-2.18v7.35c1.61-.61,2.9-1.21,3.4-1.47l.06,1.57c-1.01.51-3.58,1.69-6.66,2.74v.19c0,.31-.08.58-.23.58-.3,0-1.03-2-1.07-2.14,1.04-.26,2.14-.6,3.16-.97v-17.33Zm7.15,4v-2.61h-5.81v2.61h5.81Zm0,4.14v-2.77h-5.81v2.77h5.81Z"/><path class="cls-8" d="m573.98,152.71c0-.07.02-.14.08-.14.02,0,.04,0,.06.02,1.23.87,2.23,1.28,3.5,1.28.82,0,1.69-.17,2.72-.45-.99-1.39-1.9-2.73-2.34-3.77,1.45-.41,1.81-.43,1.87-.43.18,0,.29.09.29.22,0,.14-.13.3-.41.47.33.87,1.03,1.95,1.87,3.19l.56-.17c1.58-.48,2.44-1.01,3.03-1.45l.98,1.35v.03c0,.17-1.9.96-3.37,1.44l-.26.06c1.85,2.56,3.97,5.37,4.29,7.41l-1.4.77c-.94-.84-3.16-1.53-5.25-1.53-.68,0-4.3.06-4.3,2.34,0,1.91,2.22,2.85,4.94,2.88,1.16,0,2.72-.31,3.97-.64l-.45,2.03c-.99.21-2.35.34-3.38.34-2.97,0-6.5-1.38-6.5-4.4,0-2.48,2.04-3.95,6.18-3.95h.22c1.02,0,2.73.2,3.71.38-.35-1.22-1.78-3.22-3.27-5.25-2.53.65-3.2.7-3.94.7-1.21,0-2.5-.28-3.44-1.08l.05-1.66Z"/><path class="cls-8" d="m590.78,166.08c-.07-.03-.09-.04-.09-.1,0-.04.02-.08.04-.1.88-1.47,2.1-3.32,2.98-4.81.76-1.28,1.65-3.13,2.33-4.69l.04-.76c-.87.63-2.32,1.57-3.56,1.85l-.99-1.49s-.05-.1-.05-.11c0-.07.05-.09.08-.09,1.66-.04,3.63-1.05,4.63-1.6.12-1.68.21-3.3.21-4.33v-.5c1.76,0,2.06.22,2.06.41,0,.15-.18.29-.53.36-.17,1.86-.43,4.26-.61,6.72,2.96-3.64,4.85-4.55,6.08-4.55,1.4,0,1.95,1.23,1.95,3.17,0,.68-.07,1.45-.19,2.29-.25,1.59-.58,3.23-.58,4.85,0,1.05.24,1.86,1.14,1.86,1.15,0,2.83-1.39,3.49-2.13l.08,2.17c-1.01.97-2.45,1.71-3.66,1.71-1.38,0-2.51-.9-2.51-3.27v-.08c0-1.69.32-3.2.54-4.66.16-1.23.26-2.12.26-2.81,0-1.25-.3-1.61-.85-1.61-.41,0-1.96.17-5.92,5.23l-.02.34c-.08,1.29-.14,2.77-.14,4.31,0,1.38.04,2.83.14,4.29l-1.61.11v-.79c0-2.44.09-5.17.26-7.21l.02-.22c-1.1,2.23-2.27,4.62-3.36,6.7l-1.62-.44Z"/><path class="cls-8" d="m612.22,161.91c-.06-.03-.08-.07-.08-.1,0-.04.02-.09.06-.11,1.29-1.37,2.41-2.38,3.02-3.04,1.75-1.78,6.08-6.78,6.08-6.99,0-.04-.02-.04-.07-.04-.04,0-.1,0-.19.04-1.72.8-3.6,1.34-5.19,1.34-.14,0-.29-.02-.44-.02l-.55-1.53c-.03-.06-.03-.1-.03-.15,0-.04.03-.06.09-.06h.06c.47.06.94.09,1.42.09,1.79,0,3.61-.44,5.41-1.11.2-.07.28-.24.42-.24.29,0,1.54,1.16,1.54,1.31s-.27.21-.48.41c-1.5,1.44-6.04,6.43-5.97,6.43,0,0,.12-.06.15-.07,1.75-.9,3.38-.97,3.94-.97,2.73,0,4.92,1.71,4.92,4.4,0,3.55-3.21,6.41-7.03,6.41-2.6,0-4.69-1.32-4.69-3.08,0-1.57,1.39-2.31,2.71-2.31,2.04,0,3.3,1.5,3.3,3.32,0,.13-.02.24-.02.36,3.11-.8,4.09-3.24,4.09-4.52,0-2.54-1.73-3.25-3.54-3.25-4.24,0-6.48,2.91-7.56,4.35l-1.36-.84Zm6.95,3.9c0-.72-.26-2.07-2.03-2.07-.91,0-1.23.5-1.23.98,0,.9,1.29,1.62,2.96,1.62h.24c.01-.2.05-.36.05-.53Z"/><path class="cls-8" d="m418.06,126.38c0-6.13,2.1-9.12,5.26-9.12s5.23,2.99,5.23,9.12-2.09,9.05-5.23,9.05-5.26-2.88-5.26-9.05Zm8.65,0c0-4.88-1.39-7.54-3.4-7.54s-3.43,2.62-3.43,7.54,1.33,7.36,3.43,7.36,3.4-2.58,3.4-7.36Z"/><path class="cls-8" d="m430.82,132.61h2.2v2.46h-2.2v-2.46Z"/><path class="cls-8" d="m438.03,135.07c.58-4.73,2.93-10.9,5.62-15.7l-7.76.08v-1.8h9.7v1.52c-3.09,5.34-5.43,11.6-5.61,15.91h-1.96Z"/><path class="cls-8" d="m448.01,122.89h1.7c0,.27-.02,1.35-.02,1.7.57-1.27,1.81-2.05,3.25-2.08,1.8,0,2.76.88,3.37,2.33.99-2,2.67-2.33,3.54-2.33,2.73,0,3.78,2.07,3.78,4.5v8.06h-1.73v-7.56c0-1.5-.14-3.4-2.41-3.4-1.53,0-2.77,1.66-2.77,2.94v8.01h-1.7v-7.56c0-1.45-.19-3.4-2.44-3.4-1.59,0-2.86,1.83-2.86,3.3v7.65h-1.7v-12.18Z"/><path class="cls-8" d="m475.9,123.44h-.15c-1.11,0-1.85.25-2.02.74.58.72.89,1.66.89,2.74,0,2.31-1.47,4.23-3.91,4.23-.61,0-1.07-.06-1.5-.22-.51,0-1.48.57-1.48,1.13,0,.82.51.93,2.8,1.2,2.93.39,5.38.72,5.38,3.48,0,2.25-1.98,3.92-5.38,3.92-2.8,0-4.9-1.14-4.92-3.26,0-1.33.77-2.35,2.31-3.1-.89-.27-1.72-.82-1.72-1.9,0-.94.54-1.67,1.53-2.25-.9-.5-1.48-1.71-1.48-3.24,0-2.22,1.36-4.29,4.23-4.29.8,0,1.6.22,2.19.6.39-.77,1.26-1.38,2.84-1.4l.39,1.6Zm-5.37,15.7c2.17,0,3.78-.89,3.78-2.36s-1.61-2-4.29-2c-1.64,0-2.75,1.25-2.75,2.34,0,1.42,1.35,2.02,3.27,2.02Zm.02-9.39c1.47,0,2.51-1.18,2.51-2.87s-1.04-2.83-2.59-2.83c-1.67,0-2.68,1.12-2.68,2.91s1.14,2.8,2.76,2.8Z"/><path class="cls-8" d="m483.17,117.64h1.5l-6.99,17.43h-1.51l7-17.43Z"/><path class="cls-8" d="m489.57,133.08c.99-.41,2.5-1.41,3.05-1.95-.27-.95-.38-2.3-.38-3.64,0-7.6,3.12-10.22,4.54-10.22,1.86,0,2.1,2.23,2.1,3.58,0,4.14-2.02,8.31-4.58,10.95.25,1.04.87,2.02,1.69,2.02,1.19,0,1.94-1.37,2.48-3.27l1.3.77c-.89,2.74-2.28,4.14-3.75,4.14-1.62,0-2.4-1.25-2.99-2.74-.97.88-2.16,1.59-2.8,1.92l-.66-1.56Zm7.78-12.65c0-.51,0-1.6-.68-1.6-1.31,0-2.97,4.09-2.97,8.61,0,.96.06,1.95.18,2.67,2.13-2.17,3.47-6.67,3.47-9.68Z"/><path class="cls-8" d="m418.41,170.89c.23-.47.71-1.26,1.39-2.17,1.35-1.8,3.3-3.64,4.86-5.49,1.06-1.24,1.62-2.49,1.62-3.87,0-1.87-1.13-3.03-2.85-3.03-1.95,0-3.14,1.8-3.19,4.16h-1.8c.23-3.3,1.82-5.92,5.08-5.92s4.58,2.62,4.58,4.65-.61,3.56-2.22,5.3c-1.47,1.58-3.32,3.36-4.45,4.76-.32.41-.7.93-.89,1.26l7.59-.11v1.9h-9.71v-1.43Z"/><path class="cls-8" d="m430.82,169.88h2.2v2.44h-2.2v-2.44Z"/><path class="cls-8" d="m440.06,158.61h-2.88v-1.28c2.42-.19,3.22-1.73,3.46-2.59h1.25v17.58h-1.83v-13.71Z"/><path class="cls-8" d="m448.01,160.16h1.7c0,.26-.02,1.33-.02,1.7.57-1.28,1.81-2.06,3.25-2.1,1.8,0,2.76.9,3.37,2.33.99-1.99,2.67-2.33,3.54-2.33,2.73,0,3.78,2.08,3.78,4.51v8.05h-1.73v-7.55c0-1.5-.14-3.4-2.41-3.4-1.53,0-2.77,1.66-2.77,2.94v8h-1.7v-7.55c0-1.46-.19-3.4-2.44-3.4-1.59,0-2.86,1.83-2.86,3.29v7.65h-1.7v-12.16Z"/><path class="cls-8" d="m475.9,160.68h-.15c-1.11,0-1.85.27-2.02.74.58.72.89,1.67.89,2.74,0,2.33-1.47,4.23-3.91,4.23-.61,0-1.07-.07-1.5-.2-.51,0-1.48.58-1.48,1.13,0,.82.51.93,2.8,1.2,2.93.38,5.38.72,5.38,3.48,0,2.25-1.98,3.91-5.38,3.91-2.8,0-4.9-1.13-4.92-3.25,0-1.31.77-2.34,2.31-3.09-.89-.26-1.72-.82-1.72-1.91,0-.93.54-1.65,1.53-2.23-.9-.5-1.48-1.71-1.48-3.26,0-2.21,1.36-4.27,4.23-4.27.8,0,1.6.21,2.19.6.39-.77,1.26-1.38,2.84-1.4l.39,1.59Zm-5.37,15.72c2.17,0,3.78-.89,3.78-2.37s-1.61-2-4.29-2c-1.64,0-2.75,1.25-2.75,2.34,0,1.41,1.35,2.02,3.27,2.02Zm.02-9.39c1.47,0,2.51-1.18,2.51-2.86s-1.04-2.83-2.59-2.83c-1.67,0-2.68,1.13-2.68,2.91s1.14,2.78,2.76,2.78Z"/><path class="cls-8" d="m483.17,154.91h1.5l-6.99,17.42h-1.51l7-17.42Z"/><path class="cls-8" d="m489.57,170.34c.99-.42,2.5-1.4,3.05-1.96-.27-.93-.38-2.29-.38-3.64,0-7.6,3.12-10.23,4.54-10.23,1.86,0,2.1,2.25,2.1,3.6,0,4.14-2.02,8.29-4.58,10.95.25,1.03.87,2.01,1.69,2.01,1.19,0,1.94-1.37,2.48-3.26l1.3.76c-.89,2.75-2.28,4.14-3.75,4.14-1.62,0-2.4-1.25-2.99-2.74-.97.9-2.16,1.59-2.8,1.93l-.66-1.57Zm7.78-12.65c0-.5,0-1.62-.68-1.62-1.31,0-2.97,4.09-2.97,8.63,0,.96.06,1.96.18,2.68,2.13-2.18,3.47-6.69,3.47-9.69Z"/><path class="cls-8" d="m420.78,208.94c.57-4.72,2.93-10.9,5.62-15.69l-7.76.08v-1.81h9.7v1.52c-3.09,5.34-5.43,11.6-5.61,15.91h-1.95Z"/><path class="cls-8" d="m430.82,206.49h2.2v2.45h-2.2v-2.45Z"/><path class="cls-8" d="m435.32,200.24c0-6.13,2.09-9.11,5.26-9.11s5.22,2.98,5.22,9.11-2.09,9.06-5.22,9.06-5.26-2.9-5.26-9.06Zm8.65,0c0-4.88-1.38-7.52-3.39-7.52-2.11,0-3.44,2.61-3.44,7.52s1.33,7.37,3.44,7.37,3.39-2.57,3.39-7.37Z"/><path class="cls-8" d="m448.01,196.76h1.7c0,.27-.02,1.35-.02,1.71.57-1.28,1.81-2.07,3.25-2.09,1.8,0,2.76.89,3.37,2.33.99-2,2.67-2.33,3.54-2.33,2.73,0,3.78,2.06,3.78,4.49v8.07h-1.73v-7.56c0-1.5-.14-3.4-2.41-3.4-1.53,0-2.77,1.66-2.77,2.93v8.02h-1.7v-7.56c0-1.45-.19-3.4-2.44-3.4-1.59,0-2.86,1.84-2.86,3.3v7.65h-1.7v-12.18Z"/><path class="cls-8" d="m475.9,197.3h-.15c-1.11,0-1.85.27-2.02.74.58.72.89,1.66.89,2.74,0,2.31-1.47,4.24-3.91,4.24-.61,0-1.07-.07-1.5-.22-.51,0-1.48.58-1.48,1.14,0,.8.51.93,2.8,1.19,2.93.38,5.38.73,5.38,3.49,0,2.23-1.98,3.9-5.38,3.9-2.8,0-4.9-1.13-4.92-3.25,0-1.31.77-2.35,2.31-3.1-.89-.26-1.72-.82-1.72-1.89,0-.94.54-1.66,1.53-2.23-.9-.52-1.48-1.72-1.48-3.26,0-2.21,1.36-4.28,4.23-4.28.8,0,1.6.21,2.19.59.39-.77,1.26-1.37,2.84-1.39l.39,1.59Zm-5.37,15.71c2.17,0,3.78-.89,3.78-2.35s-1.61-1.99-4.29-1.99c-1.64,0-2.75,1.25-2.75,2.33,0,1.42,1.35,2.02,3.27,2.02Zm.02-9.38c1.47,0,2.51-1.19,2.51-2.87s-1.04-2.84-2.59-2.84c-1.67,0-2.68,1.12-2.68,2.9s1.14,2.8,2.76,2.8Z"/><path class="cls-8" d="m483.17,191.51h1.5l-6.99,17.43h-1.51l7-17.43Z"/><path class="cls-8" d="m489.57,206.94c.99-.41,2.5-1.38,3.05-1.95-.27-.93-.38-2.28-.38-3.64,0-7.59,3.12-10.22,4.54-10.22,1.86,0,2.1,2.22,2.1,3.58,0,4.14-2.02,8.3-4.58,10.95.25,1.05.87,2.01,1.69,2.01,1.19,0,1.94-1.36,2.48-3.26l1.3.77c-.89,2.74-2.28,4.14-3.75,4.14-1.62,0-2.4-1.25-2.99-2.74-.97.89-2.16,1.58-2.8,1.93l-.66-1.57Zm7.78-12.63c0-.51,0-1.61-.68-1.61-1.31,0-2.97,4.09-2.97,8.62,0,.96.06,1.96.18,2.67,2.13-2.15,3.47-6.69,3.47-9.68Z"/><path class="cls-8" d="m530.49,204.88l.09-5.49c-.5,1.17-1.02,2.36-1.73,3.42l-1.5-.56c2.31-2.82,4.04-8.34,4.49-10.88.09.03,1.98.45,1.98.86,0,.22-.28.38-.6.38-.03,0-.1-.01-.17-.01-.34,1.13-.83,2.69-1.53,4.57.25,0,.46,0,.56.03.33.04.48.16.48.31,0,.18-.24.38-.63.51-.02.43-.03,1.46-.03,1.46l-.1,13.48h-1.39l.09-8.08Zm1.64,6.52c2.56-.55,4.23-1.45,5.27-2.72-.67-.77-1.31-1.71-1.89-2.83l1.11-.82c.41.97.95,1.79,1.52,2.46.47-.97.72-2.1.86-3.39h-3.35l.02,1.16h-1.32v-7.58h4.74v-2.19h-5.73v-1.44h5.7v-.29c0-.86-.02-1.63-.06-2.22,1.84.07,2.07.23,2.07.45,0,.16-.2.3-.58.4-.04.41-.04.87-.04,1.39v.27h6.12v1.44h-6.14v2.19h4.86v7.49h-1.31v-1.07h-3.67c-.18,1.79-.58,3.22-1.17,4.34,1.79,1.48,4.06,2.06,6.41,2.06.58,0,1.17-.03,1.76-.1l-1.33,1.82c-2.52,0-5.25-.53-7.6-2.59-1.13,1.41-2.72,2.31-4.75,3.01l-1.5-1.25Zm6.95-8.66c.02-.39.02-.79.02-1.23l-.02-2.43h-3.44v3.66h3.44Zm4.89,0v-3.66h-3.55v2.67c0,.34,0,.69,0,.99h3.55Z"/><path class="cls-8" d="m548.45,212.1c2.78-3.06,2.81-8.82,2.81-12.37,0-2.43-.1-6.69-.1-6.98h14.7v14.05c0,1.37.04,2.44.04,2.88v.08c0,2.42-1.88,2.79-3.64,2.79-.39,0-.75,0-1.08-.03l-1.04-1.91c.88.16,1.69.26,2.33.26,1.25,0,1.99-.36,1.99-1.35v-4.39h-5.45v7.18h-1.4v-7.18h-5.18c-.27,2.65-.91,5.35-2.36,7.56l-1.62-.6Zm9.16-8.38v-4.13h-4.94l-.02.7c0,1.09-.02,2.23-.08,3.43h5.04Zm0-5.52v-4.03h-5.01s.04,1.77.04,4.03h4.96Zm6.85,0v-4.03h-5.45v4.03h5.45Zm0,5.52v-4.13h-5.45v4.13h5.45Z"/><path class="cls-8" d="m569.21,211.28c3.71-1.4,5.48-3.7,5.73-4.07,1.2.92,1.44,1.11,1.44,1.33,0,.15-.12.23-.32.23-.12,0-.27-.06-.44-.13-1.36,1.4-2.91,2.67-4.88,3.63l-1.52-.99Zm.01-11.19c2.35-1.45,4.02-4,4.61-5.03-1.4.03-3.52.06-3.75.06v-1.31h3.92v-.71s-.06-1.33-.09-1.49c.14.03,1.3.1,1.72.13.25.06.37.15.37.28,0,.16-.22.38-.7.45l-.06.97v.38h2.95v1.31c-.21,0-1.66-.03-2.81-.06.57.7,1.72,2,3.07,2.81l-1.18.85c-.88-.76-1.63-1.71-2.11-2.41.04.85.11,2.22.11,2.92v1.71h-1.29v-1.69c0-.64.06-1.72.12-2.54-.68,1.17-1.85,2.81-3.48,4.08l-1.4-.69Zm1.34,5.08h16.91v1.28h-7.52v1.87c0,.51.05,1.5.05,1.66,0,2.24-1.67,2.67-3.37,2.67-.27,0-.54,0-.82-.03,0,0-1-1.59-1.07-1.69.87.13,1.57.2,2.12.2,1.23,0,1.79-.34,1.79-1.29v-3.41h-8.09v-1.28Zm1.82-3.37h13.26v1.31h-13.26v-1.31Zm5-2.13c2.23-1.25,3.91-3.62,4.54-4.6-1.16.03-2.65.06-2.84.06v-1.31h3.01v-.57s-.08-1.43-.08-1.61c.14,0,1.24.07,1.68.11.25.06.35.15.35.3,0,.16-.2.36-.63.43l-.06.95v.4h4.59v1.31c-.27,0-2.88-.03-4.47-.06.75.98,2.5,3.06,5.04,4.46l-1.37.96c-1.76-1.33-3.11-3.03-3.89-4.11.05.84.12,2.16.12,2.86v1.71h-1.3v-1.69c0-.72.08-1.91.12-2.76-.72,1.11-1.92,2.7-3.49,3.88l-1.32-.69Zm5.2,7.75c.67.6,3.07,2.63,5.71,3.44l-1.42,1.2c-2.33-1.03-4.61-3.18-5.22-3.73l.93-.91Z"/><path class="cls-8" d="m590.47,210.1h3.44v-11.24c0-.2,0-1.34-.07-2.25.15.02,1.02.05,1.79.17.38.05.56.19.56.37,0,.19-.28.4-.69.5-.04.71-.04,1.51-.04,1.51v10.93h4.15l.03-15.65c0-.18-.03-1.36-.07-2.35,1.38,0,2.34.09,2.34.49,0,.2-.26.4-.67.5-.04.69-.07,1.59-.07,1.59v5.15h6.57v1.68h-6.57v8.6h7.95v1.64h-18.64v-1.64Z"/><path class="cls-8" d="m343.53,96.21c2.7-2.75,4.08-6.31,4.47-8.33.13.02,2.05.56,2.05.98,0,.22-.41.39-.77.39-1,2.74-2.25,5.36-3.99,7.56l-1.76-.61Zm.03,8.06c7.9-.05,12.74-3.63,13.74-10.34.11.01,2.16.74,2.16,1.18,0,.21-.27.36-.64.36-.06,0-.14-.03-.2-.03-1.56,5.57-5.37,9.91-13.51,10.51l-1.54-1.67Zm4.89-7.26c.47.08,1.31.27,2.11.27.84,0,1.61-.25,1.61-1.16l.02-9.5s0-.91-.07-1.9c.14.03,1.05.06,1.84.17.33.08.46.2.46.35,0,.22-.28.45-.69.52-.06.51-.06,1.13-.06,1.13v7.11c0,1.18.05,2.09.05,2.27,0,2.34-1.7,2.71-3.37,2.71-.29,0-.58,0-.86-.03l-1.04-1.94Zm8.93-9.27c1.01,1.81,3.17,5.1,5.67,6.8-.03.04-1.75,1.07-1.75,1.07-1.59-1.3-4.15-5.27-5.16-7.19l1.23-.68Z"/><path class="cls-8" d="m364.82,100.27c1.48-2.66,3.45-6.53,4.72-10.22-.91.23-1.75.39-2.56.39-.64,0-1.19-.1-1.74-.36l-.28-1.64s-.02-.05-.02-.07c0-.06.04-.1.09-.1,0,0,.02,0,.04.02.85.44,1.6.66,2.44.66.57,0,1.32-.1,2.38-.4.31-1.29.39-2.18.42-3.31,1.67.14,2.14.26,2.14.51,0,.17-.21.33-.61.41-.08.53-.21,1.27-.38,1.96.94-.29,1.86-.63,2.59-.94l.09,1.61c-.87.29-1.95.58-3.02.88-1.31,3.86-3.39,8.26-4.62,10.98l-1.67-.37Zm14.76,3.53c-.83-.97-2.25-2.1-3.31-2.73-.13,2.12-1.85,3.42-3.74,3.42-2.01,0-3.67-1.37-3.67-2.92,0-1.14.96-2.7,3.81-2.7.78,0,1.57.13,2.23.29-.02-1.45-.12-2.97-.12-4.19,0-.58.03-1.11.09-1.52,0,0,1.01.06,1.49.16.3.06.42.18.42.32,0,.15-.16.3-.52.4-.11.54-.15,1.18-.15,1.8,0,1.06.09,2.22.12,3.39,1.33.58,3.58,2.05,4.56,3.08l-1.23,1.19Zm-6.92-3.59c-1.48,0-2.46.64-2.46,1.34,0,.89,1.31,1.48,2.32,1.48,1.27,0,2.35-.84,2.43-2.36-.64-.3-1.49-.46-2.3-.46Zm2.35-10.49c.3-.01.64-.01.97-.01,1.82,0,3.93.28,4.71,1.18l-.46,1.46s-.04.12-.08.12c-.02,0-.04-.01-.09-.05-.69-.79-2.22-1.28-4.13-1.28-.32,0-.63.02-.97.05-.14,0-.14-.07-.14-.07v-.05l.2-1.35Z"/><path class="cls-8" d="m391.83,99.6c-1.31,2.84-2.44,3.61-3.39,3.61-.42,0-.83-.17-1.18-.35-3.31-1.82-3.34-6.27-3.34-9.59,0-1.09,0-2.29-.06-3.28v-.04c0-.07.04-.1.09-.1h.07s1.26.13,1.73.24c.19,0,.33.14.33.25,0,.15-.17.32-.54.39-.04,1.39-.11,4.13-.11,4.6,0,2.82.55,4.88,2.4,5.84.18.1.36.14.53.14.79,0,1.42-1.16,2.44-4.02l1.01,2.28Zm6.74.83s-.06,0-.11,0c-.05,0-.07,0-.07-.08v-.41c0-3.3-1.67-7.32-4.06-9.88l1.41-.51c2.3,2.28,4.37,6.84,4.37,9.89v.22l-1.55.75Z"/><path class="cls-8" d="m10.38,121.73c2.02-1.7,3.71-4.57,3.99-5.7.02,0,1.58.41,1.58.78,0,.17-.22.35-.67.35h-.07c-.07.23-.21.47-.36.77h5.07v1.25h-3.45c.32.58.79,1.49,1.04,2.27l-1.25.46c-.28-1.09-.84-2.3-1.05-2.73h-1.05c-.62,1.08-1.4,2.27-2.21,3.11l-1.57-.56Zm.98,4.81h7.83v-2.14h-6.44v-1.37h6.44v-.07c0-1-.05-1.41-.05-1.48,1.87,0,2.01.28,2.01.42,0,.17-.2.38-.58.43-.03.24-.04.5-.04.7h6.91v1.37h-6.91v2.14h8.18v1.37H11.35v-1.37Zm.3,3.66h11.54v-.12c0-.16,0-.93-.07-1.61.15,0,1.12.12,1.54.16.35.06.5.16.5.34s-.22.34-.6.42c-.02.31-.06.63-.06.82h4.11v1.43h-4.11v1c0,.94.04,2.02.04,2.2,0,2.24-1.66,2.62-3.48,2.62-.29,0-.58,0-.84,0l-1.07-1.8c.87.15,1.63.24,2.29.24,1.09,0,1.76-.28,1.76-1.19v-3.06h-11.55v-1.43Zm3.76,1.92c.2.12,2.21,1.28,3.61,2.67l-.89,1.35c-1.35-1.59-3.28-2.77-3.55-2.95l.83-1.07Zm3.67-11.31c1.53-1.59,2.5-3.88,2.72-4.86.1,0,1.65.44,1.65.77,0,.16-.17.27-.63.29-.09.3-.21.58-.36.91h6.54v1.28h-4.24c.3.55.77,1.45,1.04,2.22l-1.24.48c-.28-1.13-.9-2.31-1.11-2.7h-1.62c-.39.73-.84,1.45-1.29,2.05l-1.46-.43Z"/><path class="cls-8" d="m31.47,136.29c1.3-2.58,1.72-5.99,1.79-6.78.21.08.89.19,1.46.38.21.07.3.16.3.3,0,.2-.22.36-.58.36h-.04c-.1.63-.66,3.95-1.53,6.07l-1.41-.32Zm4.08-8.77c-.84.14-1.76.29-2.69.4-.06.43-.17.7-.3.7-.35,0-.72-2.12-.72-2.12.44,0,.92-.03,1.41-.07.51-.7,1.02-1.49,1.5-2.26-.56-.8-1.54-2.05-2.7-3.03l.69-1.08c.23.17.44.4.65.62.92-1.41,1.97-4.13,2.15-4.57.11.04,1.67.87,1.67,1.25,0,.11-.16.2-.38.2-.11,0-.23,0-.36-.06-.3.63-1.41,2.82-2.22,4.09.48.53.89,1.04,1.18,1.42,1.16-1.93,2.06-3.75,2.35-4.58.24.17,1.04.72,1.36.97.15.13.24.27.24.4,0,.11-.15.24-.37.24-.09,0-.2-.03-.3-.06-.3.46-2.27,3.86-3.97,6.33,1.47-.17,2.82-.38,3.65-.54-.28-.89-.59-1.73-.92-2.36l1.02-.52c.28.59,1.37,3.19,1.79,5.34l-1.19.66c-.08-.57-.23-1.24-.4-1.94-.5.12-1.13.24-1.87.36l.05,10.38h-1.41l.05-10.15Zm1.64,9.14c4.51-3.35,5.1-11.61,5.1-15.94,0-.89-.01-1.64-.03-2.12h-2.29v-1.34h6.73c.11,0,.22-.17.35-.17.03,0,.04.03.07.03.84.64.99.73.99.91,0,.14-.11.26-.38.33-.04.23-.27,1.77-.55,3.43h1.77c.09,0,.2-.15.35-.15.05,0,1.04.66,1.04,1,0,.1-.12.24-.37.3-.34,2.72-1.02,6.16-2.75,9.17,1.06,1.54,2.44,2.94,4.17,4.04l-1.57,1.15c-1.39-1.15-2.54-2.45-3.45-3.87-1.19,1.62-2.76,3.08-4.83,4.11l-1.51-1.03c2.5-.92,4.29-2.53,5.55-4.39-1.16-2.19-1.88-4.56-2.32-6.85-.43,4.26-1.55,9.31-4.43,11.96l-1.63-.57Zm1.43-3.28c-.21-1.9-.88-3.33-1.02-3.78l1.07-.43c.15.46.9,2.04,1.14,3.57l-1.18.64Zm6.64-8.9c.64-2.39,1.09-5.89,1.09-5.89h-2.83c.1,3.67.7,8.29,2.86,12.2,1.4-2.64,1.93-5.54,2.17-7.65h-1.62c-.1.49-.19.99-.27,1.44l-1.41-.1Z"/><path class="cls-8" d="m53.17,134.59c.23-.46.72-1.24,1.4-2.16,1.33-1.81,3.28-3.64,4.86-5.49,1.06-1.25,1.61-2.48,1.61-3.88,0-1.84-1.12-3.03-2.84-3.03-1.95,0-3.13,1.81-3.2,4.16h-1.8c.24-3.31,1.83-5.92,5.09-5.92s4.59,2.62,4.59,4.65-.62,3.56-2.23,5.3c-1.46,1.57-3.34,3.36-4.45,4.75-.32.41-.71.93-.9,1.25l7.59-.1v1.91h-9.71v-1.45Z"/><path class="cls-8" d="m10.38,159.25c2.02-1.7,3.71-4.57,3.99-5.71.02,0,1.58.41,1.58.77,0,.17-.22.36-.67.36h-.07c-.07.2-.21.46-.36.77h5.07v1.25h-3.45c.32.58.79,1.48,1.04,2.27l-1.25.45c-.28-1.09-.84-2.28-1.05-2.71h-1.05c-.62,1.09-1.4,2.27-2.21,3.1l-1.57-.54Zm.98,4.81h7.83v-2.14h-6.44v-1.38h6.44v-.07c0-1-.05-1.4-.05-1.47,1.87,0,2.01.27,2.01.41,0,.18-.2.38-.58.44-.03.24-.04.5-.04.69h6.91v1.38h-6.91v2.14h8.18v1.38H11.35v-1.38Zm.3,3.66h11.54v-.11c0-.17,0-.95-.07-1.62.15,0,1.12.12,1.54.18.35.04.5.15.5.32s-.22.34-.6.42c-.02.31-.06.63-.06.82h4.11v1.41h-4.11v1.02c0,.95.04,2.02.04,2.19,0,2.25-1.66,2.63-3.48,2.63-.29,0-.58,0-.84-.02l-1.07-1.8c.87.14,1.63.23,2.29.23,1.09,0,1.76-.27,1.76-1.19v-3.07h-11.55v-1.41Zm3.76,1.92c.2.13,2.21,1.27,3.61,2.67l-.89,1.35c-1.35-1.58-3.28-2.77-3.55-2.97l.83-1.05Zm3.67-11.32c1.53-1.59,2.5-3.87,2.72-4.87.1,0,1.65.45,1.65.77,0,.15-.17.27-.63.3-.09.29-.21.59-.36.92h6.54v1.28h-4.24c.3.55.77,1.43,1.04,2.21l-1.24.47c-.28-1.13-.9-2.3-1.11-2.69h-1.62c-.39.72-.84,1.43-1.29,2.04l-1.46-.44Z"/><path class="cls-8" d="m31.47,173.8c1.3-2.6,1.72-6,1.79-6.78.21.06.89.19,1.46.38.21.07.3.16.3.29,0,.18-.22.36-.58.36h-.04c-.1.63-.66,3.94-1.53,6.06l-1.41-.32Zm4.08-8.77c-.84.13-1.76.28-2.69.4-.06.44-.17.69-.3.69-.35,0-.72-2.12-.72-2.12.44,0,.92-.03,1.41-.07.51-.7,1.02-1.49,1.5-2.26-.56-.8-1.54-2.05-2.7-3.03l.69-1.09c.23.19.44.42.65.63.92-1.41,1.97-4.13,2.15-4.56.11.04,1.67.86,1.67,1.25,0,.11-.16.21-.38.21-.11,0-.23-.03-.36-.07-.3.62-1.41,2.81-2.22,4.09.48.53.89,1.03,1.18,1.43,1.16-1.93,2.06-3.75,2.35-4.58.24.17,1.04.69,1.36.96.15.13.24.27.24.38,0,.13-.15.26-.37.26-.09,0-.2-.04-.3-.06-.3.45-2.27,3.84-3.97,6.32,1.47-.16,2.82-.38,3.65-.54-.28-.88-.59-1.73-.92-2.36l1.02-.53c.28.59,1.37,3.2,1.79,5.35l-1.19.66c-.08-.56-.23-1.25-.4-1.94-.5.12-1.13.24-1.87.36l.05,10.38h-1.41l.05-10.15Zm1.64,9.14c4.51-3.35,5.1-11.61,5.1-15.94,0-.88-.01-1.64-.03-2.12h-2.29v-1.34h6.73c.11,0,.22-.17.35-.17.03,0,.04.02.07.02.84.66.99.75.99.92,0,.14-.11.26-.38.33-.04.22-.27,1.75-.55,3.42h1.77c.09,0,.2-.15.35-.15.05,0,1.04.65,1.04.98,0,.13-.12.25-.37.33-.34,2.71-1.02,6.15-2.75,9.15,1.06,1.56,2.44,2.95,4.17,4.05l-1.57,1.15c-1.39-1.15-2.54-2.44-3.45-3.86-1.19,1.63-2.76,3.08-4.83,4.1l-1.51-1.02c2.5-.91,4.29-2.54,5.55-4.39-1.16-2.19-1.88-4.58-2.32-6.85-.43,4.25-1.55,9.31-4.43,11.95l-1.63-.58Zm1.43-3.28c-.21-1.9-.88-3.33-1.02-3.78l1.07-.43c.15.45.9,2.04,1.14,3.55l-1.18.65Zm6.64-8.89c.64-2.39,1.09-5.91,1.09-5.91l-2.83.03c.1,3.66.7,8.28,2.86,12.18,1.4-2.63,1.93-5.52,2.17-7.65h-1.62c-.1.49-.19,1.02-.27,1.45l-1.41-.09Z"/><path class="cls-8" d="m57.58,159.82h-2.88v-1.28c2.42-.19,3.22-1.73,3.46-2.59h1.25v17.58h-1.83v-13.71Z"/><path class="cls-8" d="m10.38,195.14c2.02-1.72,3.71-4.57,3.99-5.7.02,0,1.58.41,1.58.77,0,.16-.22.36-.67.36h-.07c-.07.22-.21.45-.36.78h5.07v1.24h-3.45c.32.59.79,1.5,1.04,2.26l-1.25.46c-.28-1.08-.84-2.29-1.05-2.72h-1.05c-.62,1.09-1.4,2.26-2.21,3.1l-1.57-.55Zm.98,4.81h7.83v-2.14h-6.44v-1.38h6.44v-.07c0-.99-.05-1.4-.05-1.47,1.87,0,2.01.28,2.01.41,0,.17-.2.38-.58.45-.03.24-.04.5-.04.69h6.91v1.38h-6.91v2.14h8.18v1.37H11.35v-1.37Zm.3,3.66h11.54v-.11c0-.18,0-.95-.07-1.62.15,0,1.12.11,1.54.17.35.05.5.17.5.34s-.22.33-.6.41c-.02.32-.06.62-.06.82h4.11v1.43h-4.11v1.01c0,.93.04,2.02.04,2.19,0,2.24-1.66,2.61-3.48,2.61-.29,0-.58,0-.84-.02l-1.07-1.77c.87.14,1.63.24,2.29.24,1.09,0,1.76-.29,1.76-1.21v-3.05h-11.55v-1.43Zm3.76,1.93c.2.12,2.21,1.27,3.61,2.67l-.89,1.35c-1.35-1.6-3.28-2.78-3.55-2.98l.83-1.05Zm3.67-11.32c1.53-1.6,2.5-3.88,2.72-4.87.1,0,1.65.44,1.65.79,0,.14-.17.25-.63.27-.09.3-.21.58-.36.93h6.54v1.27h-4.24c.3.56.77,1.44,1.04,2.22l-1.24.47c-.28-1.13-.9-2.31-1.11-2.69h-1.62c-.39.73-.84,1.44-1.29,2.05l-1.46-.44Z"/><path class="cls-8" d="m31.47,209.7c1.3-2.6,1.72-5.99,1.79-6.78.21.08.89.2,1.46.39.21.07.3.18.3.29,0,.19-.22.35-.58.35h-.04c-.1.63-.66,3.95-1.53,6.07l-1.41-.32Zm4.08-8.79c-.84.17-1.76.3-2.69.42-.06.42-.17.7-.3.7-.35,0-.72-2.11-.72-2.11.44,0,.92-.03,1.41-.08.51-.69,1.02-1.49,1.5-2.26-.56-.79-1.54-2.05-2.7-3.03l.69-1.09c.23.19.44.4.65.63.92-1.42,1.97-4.14,2.15-4.57.11.06,1.67.86,1.67,1.24,0,.13-.16.23-.38.23-.11,0-.23-.03-.36-.06-.3.62-1.41,2.81-2.22,4.08.48.52.89,1.03,1.18,1.42,1.16-1.93,2.06-3.76,2.35-4.58.24.17,1.04.71,1.36.98.15.11.24.27.24.38,0,.13-.15.23-.37.23-.09,0-.2-.01-.3-.03-.3.45-2.27,3.85-3.97,6.33,1.47-.19,2.82-.4,3.65-.56-.28-.89-.59-1.73-.92-2.36l1.02-.53c.28.61,1.37,3.2,1.79,5.35l-1.19.67c-.08-.58-.23-1.26-.4-1.96-.5.13-1.13.26-1.87.37l.05,10.38h-1.41l.05-10.17Zm1.64,9.16c4.51-3.35,5.1-11.6,5.1-15.94,0-.88-.01-1.63-.03-2.12h-2.29v-1.34h6.73c.11,0,.22-.17.35-.17.03,0,.04.02.07.02.84.65.99.74.99.91,0,.15-.11.26-.38.33-.04.22-.27,1.76-.55,3.42h1.77c.09,0,.2-.14.35-.14.05,0,1.04.64,1.04.98,0,.13-.12.24-.37.32-.34,2.72-1.02,6.16-2.75,9.17,1.06,1.54,2.44,2.93,4.17,4.05l-1.57,1.15c-1.39-1.15-2.54-2.47-3.45-3.88-1.19,1.64-2.76,3.08-4.83,4.12l-1.51-1.04c2.5-.9,4.29-2.52,5.55-4.37-1.16-2.21-1.88-4.58-2.32-6.87-.43,4.26-1.55,9.31-4.43,11.97l-1.63-.58Zm1.43-3.27c-.21-1.9-.88-3.32-1.02-3.78l1.07-.44c.15.46.9,2.04,1.14,3.57l-1.18.65Zm6.64-8.91c.64-2.38,1.09-5.89,1.09-5.89h-2.83c.1,3.66.7,8.3,2.86,12.19,1.4-2.61,1.93-5.53,2.17-7.65h-1.62c-.1.5-.19,1.01-.27,1.43l-1.41-.09Z"/><path class="cls-8" d="m53.51,205.2c1.48-2.65,3.46-6.52,4.73-10.2-.91.22-1.76.38-2.57.38-.64,0-1.18-.09-1.74-.36l-.27-1.63s-.02-.05-.02-.07c0-.06.04-.1.09-.1,0,0,.02,0,.04.03.85.43,1.59.65,2.44.65.58,0,1.32-.1,2.38-.39.31-1.3.4-2.18.42-3.32,1.68.14,2.15.26,2.15.5,0,.17-.22.34-.62.42-.08.53-.21,1.27-.38,1.94.94-.28,1.87-.62,2.59-.93l.08,1.61c-.87.29-1.94.6-3.01.89-1.31,3.86-3.4,8.26-4.62,10.98l-1.67-.38Zm14.76,3.55c-.83-.97-2.25-2.09-3.31-2.74-.13,2.13-1.85,3.43-3.74,3.43-2.02,0-3.67-1.36-3.67-2.91,0-1.13.95-2.7,3.81-2.7.79,0,1.57.12,2.23.3-.02-1.46-.12-2.96-.12-4.2,0-.57.02-1.11.08-1.51,0,0,1.02.05,1.5.14.3.06.43.19.43.33s-.17.28-.52.38c-.11.55-.16,1.18-.16,1.81,0,1.06.1,2.21.12,3.4,1.34.58,3.59,2.05,4.57,3.09l-1.23,1.18Zm-6.91-3.6c-1.49,0-2.47.63-2.47,1.35,0,.89,1.32,1.47,2.32,1.47,1.28,0,2.35-.85,2.44-2.36-.65-.29-1.48-.46-2.29-.46Zm2.36-10.49c.29-.03.63-.03.96-.03,1.81,0,3.93.28,4.71,1.2l-.45,1.45c-.03.06-.05.14-.1.14,0,0-.05-.04-.09-.06-.69-.79-2.22-1.27-4.14-1.27-.31,0-.63,0-.96.04-.15,0-.15-.06-.15-.06v-.05l.22-1.34Z"/><path class="cls-8" d="m86.18,204.86c-1.57,2.2-4.93,4.94-7.9,4.94-4.4,0-4.63-3.81-4.63-6.59,0-2.99.4-6.66.4-9.95,0-.52-.03-1.06-.04-1.56.44,0,1.53.09,2.04.22.23.06.38.18.38.34,0,.19-.21.41-.68.51-.17,3.57-.61,7.86-.61,10.65,0,2.92.6,4.64,3.15,4.64,3.11,0,5.9-3.28,7.24-5.32l.66,2.14Z"/><path class="cls-8" d="m306.31,27.57c3.33-3.86,3.27-11.74,3.29-15.71h-2.56v-1.47h3.4v-1.64s0-1.1-.06-1.92c.15,0,1.23.07,1.7.14.26.05.36.17.36.28,0,.2-.23.41-.63.49-.04.58-.04,1.32-.04,1.32v1.33h3.95v1.47h-4.77c-.02.81-.02,1.76-.07,2.76h3.89c0,.51,0,1.25,0,2.09,2.31-3.61,3.07-9.53,3.13-9.96.09.03.87.17,1.53.36.27.08.38.2.38.32,0,.19-.28.37-.71.39-.12.67-.37,1.73-.68,2.95h7.07v1.44h-2.06c-.32,3.88-1.11,6.96-2.35,9.46,1.33,2.12,3.03,3.73,5.13,4.87l-1.61,1.19c-1.47-1-2.99-2.54-4.28-4.66-1.31,2.1-3,3.71-5.05,4.94l-1.53-1.07c2.48-1.2,4.4-3.04,5.74-5.39-.99-2.03-1.76-4.5-2.12-7.44-.42,1.22-.89,2.38-1.39,3.27l-1.2-.32c-.04,2.58-.21,5.95-.44,7.35-.36,1.92-1.41,2.74-3.04,2.74-.23,0-.48-.02-.74-.04l-.78-1.89c.5.12,1.01.22,1.5.22.8,0,1.46-.31,1.7-1.45.36-1.66.44-5.86.44-7.93h-2.54c-.2,4.04-.76,8.88-2.84,11.86l-1.7-.36Zm11.97-15.36c.26,3.06.92,5.71,1.94,7.9,1.01-2.29,1.61-4.94,1.82-7.9h-3.76Z"/><path class="cls-8" d="m328.78,13.35h2.53v-2.51h-2.14v-1.23h2.14v-1.05s-.03-.91-.06-1.72c1.89,0,1.92.26,1.92.41,0,.17-.18.34-.59.41,0,.44,0,1.07,0,1.07v.88h2.56v-1.05s0-.91-.04-1.72c1.88,0,1.92.26,1.92.41,0,.17-.19.34-.59.41-.04.44-.04,1.07-.04,1.07v.88h2.08v1.23h-2.08v2.51h2.22v1.22h-9.82v-1.22Zm1.59,2.8h6.92l.02,6.73c0,1.11.02,1.64.02,2.05v.15c0,1.81-1.21,2.37-2.65,2.37-.17,0-.36,0-.53-.03l-.89-1.59c.44.03,1,.12,1.52.12.7,0,1.31-.19,1.31-1.08v-1.65h-4.46v4.9h-1.26v-11.98Zm5.71,2.88v-1.64h-4.46v1.64h4.46Zm0,2.97v-1.76h-4.46v1.76h4.46Zm-.95-8.66v-2.51h-2.56v2.51h2.56Zm1.56,13.81c2.49-1.18,4.31-3.01,5.56-5.32-.94-2.04-1.61-4.5-1.89-7.45-.36,1.03-.74,2.02-1.12,2.79l-1.36-.43c2.18-3.47,3.08-9.53,3.12-9.96.04,0,1.86.36,1.86.74,0,.2-.27.36-.7.36-.13.6-.38,1.68-.7,2.91h5.88v1.42h-1.42c-.22,3.84-.89,7.05-2.14,9.69,1.14,2.01,2.66,3.56,4.49,4.66l-1.54,1.06c-1.3-.94-2.62-2.39-3.72-4.28-1.19,1.98-2.8,3.56-4.86,4.82l-1.46-1Zm4.62-14.95c.1,3.13.68,5.83,1.66,8.11.96-2.35,1.46-5.08,1.6-8.11h-3.26Z"/><path class="cls-8" d="m351.23,26.4h8.36v-1.32h-6.78v-1.1h6.78v-1.43h-4.24v.67h-1.23v-6.5h12.45v6.43h-1.28v-.6h-4.45v1.43h6.92v1.1h-6.92v1.32h8.42v1.17h-18.03v-1.17Zm.1-11.96h17.83v1.13h-17.83v-1.13Zm2.69-6.85h12.57v6.12h-1.27v-.51h-10.05v.58h-1.25v-6.18Zm11.27,2.23v-1.2h-10.02v1.2h10.02Zm.03,2.3l-.03-1.26h-10.02v1.26h10.05Zm-5.73,6.93v-1.33h-4.24v1.33h4.24Zm0,2.42v-1.37h-4.24v1.37h4.24Zm5.69-2.42l-.02-1.33h-4.43v1.33h4.45Zm0,2.42v-1.37h-4.45v1.37h4.45Z"/><path class="cls-8" d="m375.16,26.05h6.48v-2.31h-4.11v-1.07c-.92,1.01-2.11,2.03-3.67,2.74l-1.57-.97c3.77-1.45,5.39-3.95,6.02-5.27l-5.32.05v-1.4h5.02v-7.49h-4.22v-1.33h4.22v-.65c0-.12-.03-1.02-.07-1.5,1.85,0,1.97.31,1.97.47,0,.17-.18.35-.57.44-.05.36-.07.91-.07.91v.34h6.24v-.65c0-.12-.03-1.02-.07-1.5,1.84,0,1.97.31,1.97.47,0,.17-.2.35-.58.44-.04.36-.07.91-.07.91v.34h4.24v1.33h-4.24v7.49h4.82v1.4l-5.35-.05c.67,1.23,2.49,3.82,6.16,4.97l-1.54,1.18c-1.57-.69-2.79-1.69-3.71-2.7v1.11h-4.27v2.31h6.71v1.38h-14.46v-1.38Zm6.48-3.63v-.94c0-.11-.02-.99-.07-1.53,1.61.12,2,.26,2,.5,0,.21-.23.39-.6.47-.04.26-.06.9-.06.9v.6h4.08c-1.19-1.35-1.84-2.67-2.1-3.24h-5.15c-.29.68-.92,1.95-2.02,3.24h3.92Zm3.89-10.43v-1.65h-6.24v1.65h6.24Zm0,2.88v-1.59h-6.24v1.59h6.24Zm0,2.95v-1.67h-6.24v1.67h6.24Z"/><path class="cls-8" d="m395.77,10.8c.17.07,2.08.89,3.28,1.93l-.83,1.33c-1.14-1.21-3.02-2-3.22-2.1l.77-1.16Zm-.75,11.89h8.48v-.31c0-.18,0-.83-.04-1.64,1.99,0,2.09.33,2.09.44,0,.19-.23.38-.63.48-.05.41-.05.82-.05.82v.21h8.84v1.43h-8.84v4.27h-1.38v-4.27h-8.48v-1.43Zm5.21-6.42c-.78,1.06-1.77,2.4-3.2,3.89.06.19.08.33.08.45,0,.17-.04.27-.16.27-.07,0-.17-.04-.3-.14-.51-.4-1.21-1.14-1.3-1.22,1.74-1.31,3.63-3.85,4.37-4.96l.51,1.71Zm-2.88-9.34c.14.1,1.93,1.13,3.12,2.33l-.97,1.21c-1.13-1.37-2.84-2.41-3.03-2.54l.89-1Zm4.67,7.87v-2.63c-.48.75-.98,1.48-1.46,2.03l-1.37-.57c2.68-2.56,4.23-6.6,4.33-6.94.12.03,1.21.34,1.43.42.19.06.3.19.3.29,0,.17-.24.33-.7.33-.16.39-.46,1.01-.86,1.73h2.88c.62-1.08,1.11-2.45,1.15-2.62.1.02,1,.22,1.36.28.18.03.31.14.31.28,0,.17-.19.33-.66.38-.19.48-.6,1.18-.88,1.68h5.11v1.21h-5.05v1.73h4.49v1.2h-4.49v1.81h4.49v1.18h-4.49v2.07h5.37v1.24h-10.05v.62h-1.25l.05-5.72Zm4.65-2.4v-1.73h-3.46v1.73h3.46Zm0,3.01v-1.81h-3.46v1.81h3.46Zm0,3.25v-2.07h-3.46v2.07h3.46Z"/><path class="cls-8" d="m419.67,20.01l.11-5.31c-.51,1.1-1.02,2.19-1.72,3.24l-1.51-.57c2.42-2.97,4.12-7.8,4.64-10.58.21.05,1.9.48,1.9.89,0,.14-.23.3-.52.3-.07,0-.14,0-.21-.04-.31,1.09-.82,2.7-1.55,4.48.21,0,.36.03.42.03.34.04.48.16.48.3,0,.19-.23.38-.62.5-.01.17-.03.92-.03.92l-.06,14.11h-1.44l.1-8.29Zm3.5-5.14c0-.15-.02-1.45-.04-1.97.05.02,1.19.02,1.65.15.25.04.37.16.37.31,0,.16-.21.36-.61.43-.02.34-.04,1.2-.04,1.2v10.54h11.35v1.37h-11.35v1.41h-1.34v-13.44Zm3.24-2.33h1.97c.08-.67.17-1.39.23-2.14h-5.28v-1.3h5.41c.07-.86.13-1.69.17-2.38.15.02,1.21.07,1.61.13.26.05.36.17.36.3,0,.17-.23.35-.69.41-.04.48-.08,1.01-.14,1.53h5.76v1.3h-5.89c-.07.75-.15,1.49-.24,2.14h4.24v11.69h-1.24v-1.14h-5.05v1.27h-1.25l.02-11.83Zm6.27,2.97v-1.7h-5.05v1.7h5.05Zm0,3.15v-1.86h-5.05v1.86h5.05Zm0,3.18v-1.89h-5.05v1.89h5.05Z"/><path class="cls-8" d="m249.49,54.9h8.44v-8.09h-7.36v-1.56h16.17v1.56h-7.31v.07l-.02,8.02h8.42v1.58h-8.42v8.83h-1.48v-8.83h-8.44v-1.58Zm4.79-1.21c-.59-2.35-1.87-4.79-2.1-5.2l1.28-.56c.26.41,1.53,2.83,2.25,5.07l-1.42.69Zm7.13-.18c1.09-2.24,1.76-4.43,1.99-5.76.13.05.95.29,1.53.58.31.13.48.31.48.48s-.2.31-.71.34c0,0-1.07,2.92-1.87,4.74l-1.42-.37Z"/><path class="cls-8" d="m274.22,51.55h-2.5v-1.46h2.5v-3.87c0-.63-.02-1.46-.06-1.95,1.69,0,2.12.22,2.12.47,0,.16-.2.35-.63.44-.05.42-.05,1-.05,1.31v3.6h1.91v1.25c1.89-2.73,2.65-6.66,2.78-7.39,1.79.35,1.85.45,1.85.65,0,.15-.15.3-.62.34-.17.68-.43,1.62-.76,2.67h8.46v.68c0,1.11.02,2.53.02,4.05,0,8.23-.75,12.6-5.3,12.6-.38,0-.76-.05-1.19-.1l-1.17-1.94c.87.2,1.65.35,2.37.35,3.78,0,3.87-4.44,3.87-13.3v-1h-7.54c-.56,1.4-1.26,2.87-2.11,4.03l-1.52-.56c.25-.28.5-.58.74-.88h-1.79v6.52c1.09-.58,2.02-1.13,2.57-1.55l.07,1.62c-1.34.89-3.14,1.87-5.64,3.01.02.13.04.24.04.34,0,.28-.11.45-.23.45-.33,0-1.17-1.92-1.19-2.02.97-.31,2.02-.71,3.01-1.17v-7.19Zm11.57,6.3c-1.19.6-4.06,1.83-6.38,2.62.03.12.05.24.05.35,0,.26-.11.43-.24.43-.09,0-.21-.11-.32-.31-.41-.7-.78-1.73-.82-1.8,2.35-.5,6.48-2.17,7.69-2.84l.02,1.54Zm-6.68-5.31l6.19-.03v1.45l-6.19.02v-1.44Z"/><path class="cls-8" d="m296.03,57.04l.11-5.32c-.51,1.1-1.01,2.19-1.72,3.24l-1.5-.58c2.41-2.97,4.11-7.8,4.64-10.57.21.05,1.88.49,1.88.89,0,.15-.21.29-.5.29-.07,0-.16,0-.21-.02-.31,1.08-.83,2.69-1.55,4.47.21,0,.35.04.42.04.33.03.48.15.48.29,0,.2-.22.4-.61.52-.03.17-.06.91-.06.91l-.06,14.1h-1.45l.11-8.27Zm3.5-5.15c0-.15-.02-1.45-.04-1.97.05.02,1.18.02,1.65.14.25.04.38.17.38.31,0,.18-.21.37-.61.44-.03.35-.05,1.21-.05,1.21v10.53h11.37v1.37h-11.37v1.39h-1.33v-13.42Zm3.23-2.34h1.99c.07-.68.16-1.39.21-2.15h-5.27v-1.29h5.42c.06-.87.12-1.69.16-2.4.15.04,1.21.08,1.61.15.26.05.36.19.36.29,0,.17-.23.35-.7.41-.03.48-.09,1.01-.15,1.54h5.76v1.29h-5.89c-.06.75-.15,1.5-.23,2.15h4.24v11.71h-1.22v-1.14h-5.05v1.28h-1.25v-11.85Zm6.29,2.99v-1.71h-5.05v1.71h5.05Zm0,3.15v-1.88h-5.05v1.88h5.05Zm0,3.18v-1.9h-5.05v1.9h5.05Z"/><path class="cls-8" d="m430.95,53.74h-2.48v-1.31h18.6v1.31h-9.8v10.37c1.94-.63,3.33-1.57,4.34-2.63-1.28-1.66-1.91-3.48-2.23-4.77h-1.17v-1.25h6.47c.11,0,.17-.17.25-.17.21,0,1.14.89,1.14,1.02,0,.14-.2.24-.46.26-.29,1.22-1,3.12-2.27,4.89,1,.91,2.4,1.66,4.3,2.09l-1.46,1.34c-1.55-.57-2.75-1.44-3.69-2.41-1,1.12-2.28,2.08-3.84,2.71l-1.39-1.05v1.05h-1.24v-3.29c-1.57.55-3.75,1.2-6.49,1.76v.13c0,.44-.11.65-.26.65-.19,0-.19-.02-.91-2.07.89-.11,1.76-.26,2.59-.44v-8.19Zm.72-9.11h12.2v6.94h-1.31v-.63h-9.59v.72h-1.29v-7.03Zm4.35,10.78v-1.68h-3.84v1.68h3.84Zm0,2.82v-1.69h-3.84v1.69h3.84Zm-3.84,3.43c1.7-.38,3.07-.79,3.84-1.05v-1.23h-3.84v2.28Zm10.38-14.46v-1.39h-9.59v1.39h9.59Zm0,2.55v-1.37h-9.59v1.37h9.59Zm-1.9,6.95c.28,1.12.75,2.53,1.76,3.8.97-1.32,1.45-2.72,1.75-3.8h-3.51Z"/><path class="cls-8" d="m450.11,63.9c5.77-2.85,8.08-8.14,8.72-12.56h-7.71v-1.59h7.86c.01-.37.04-.7.04-1.01,0-1.84,0-3.62-.11-4.58.59,0,1.31.1,1.73.12.45.03.67.19.67.36,0,.22-.26.43-.7.53-.1,4.02-.1,4.12-.15,4.58h8.14v1.59h-7.85c1.05,5.09,4.02,9.74,8.79,12.09l-1.83,1.26c-3.98-2.48-6.61-6.85-7.82-11.24-1.17,4.86-3.88,9.01-7.95,11.53l-1.83-1.07Z"/><path class="cls-8" d="m475.09,57.04l.11-5.32c-.51,1.1-1.01,2.19-1.71,3.24l-1.51-.58c2.42-2.97,4.11-7.8,4.64-10.57.21.05,1.89.49,1.89.89,0,.15-.21.29-.51.29-.07,0-.15,0-.22-.02-.29,1.08-.83,2.69-1.54,4.47.21,0,.35.04.42.04.35.03.5.15.5.29,0,.2-.24.4-.62.52-.02.17-.03.91-.03.91l-.07,14.1h-1.45l.11-8.27Zm3.51-5.15c0-.15-.03-1.45-.04-1.97.06.02,1.18.02,1.64.14.26.04.39.17.39.31,0,.18-.21.37-.62.44-.01.35-.04,1.21-.04,1.21v10.53h11.37v1.37h-11.37v1.39h-1.33v-13.42Zm3.24-2.34h1.97c.09-.68.18-1.39.24-2.15h-5.29v-1.29h5.41c.07-.87.14-1.69.18-2.4.14.04,1.2.08,1.61.15.24.05.36.19.36.29,0,.17-.23.35-.7.41-.04.48-.09,1.01-.15,1.54h5.76v1.29h-5.9c-.06.75-.15,1.5-.23,2.15h4.24v11.71h-1.23v-1.14h-5.05v1.28h-1.25l.03-11.85Zm6.28,2.99v-1.71h-5.05v1.71h5.05Zm0,3.15v-1.88h-5.05v1.88h5.05Zm0,3.18v-1.9h-5.05v1.9h5.05Z"/><path class="cls-8" d="m546.61,16.24h6.85v-.63c0-1.37-.02-2.74-.04-3.25,1.71.13,2.15.17,2.15.49,0,.21-.3.45-.72.5-.02.42-.03,1.42-.03,2.22,0,.21-.03.44-.05.67h7.21l.02,10.95c0,.78.04,2.73.04,3.08v.07c0,2.75-2.24,3.14-4.18,3.14-.42,0-.8,0-1.16-.03l-1.01-1.97c.78.15,1.72.28,2.56.28,1.25,0,2.29-.33,2.29-1.61l-.02-4.12-1.28.99c-2.58-1.73-4.18-4.5-5-7.32-.63,2.75-1.99,5.74-5.01,7.52l-1.16-.9-.02,7.47h-1.47l.02-17.55Zm1.47,9.75c3.6-1.78,4.89-5.38,5.26-8.3h-5.26v8.3Zm12.45-8.3h-5.59c.71,3.43,2.47,6.3,5.59,8.04v-8.04Z"/><path class="cls-8" d="m566.58,28.89c3.44-.74,6.53-2.43,8.28-3.89l-7.52.09v-1.41h8.24v-.29c0-.42-.03-1.08-.06-1.68,1.27,0,1.96.12,1.96.4,0,.15-.18.32-.52.39-.04.41-.06.93-.06,1.18h8.5v1.41l-8.04-.09c.16.61.6,1.83,1.54,3.08.91-.47,3-1.55,4.24-2.53.24.17,1.07,1.42,1.07,1.62,0,.17-.08.22-.2.22-.13,0-.33-.06-.56-.26-.9.58-2.71,1.48-3.67,1.94,1.34,1.35,3.4,2.56,6.54,2.97l-1.56,1.45c-6.11-1.5-8.01-6.55-8.5-8.15-.59.59-1.3,1.2-2.18,1.8v3.85c2.06-.42,3.72-.87,4.24-1.06v1.43c-.73.24-4.87,1.37-8.88,2.09v.07c0,.41-.11.65-.26.65-.18,0-.32-.19-1.06-2.12,1.55-.2,3.18-.48,4.68-.79v-3.29c-1.46.84-3.14,1.61-4.85,2.14l-1.37-1.21Zm5.04-9.86c-.96.47-2.09,1-3.3,1.47.02.08.02.18.02.28,0,.26-.06.42-.19.42-.33,0-1.08-1.7-1.12-1.81,1.47-.34,3.52-1.29,4.59-1.8v-3.79c0-.11,0-.92-.05-1.52.05,0,1.22.07,1.69.14.26.04.38.16.38.3,0,.16-.21.33-.62.38-.03.39-.06.97-.06.97v8.1h-1.34v-3.13Zm-2.93-5.64c.14.2,1.29,1.26,2.16,2.7l-1.21.76c-.81-1.59-1.93-2.6-2.08-2.76l1.13-.71Zm5.64,6.26h4.28v-3.06h-4.68v-1.32h4.68v-1.5c0-.15,0-.78-.06-1.42.06,0,1.25.07,1.72.11.25.06.39.17.39.3,0,.18-.22.37-.62.42-.04.36-.04.98-.04.98v1.11h5.46v1.32h-5.46v3.06h4.93v1.32h-10.6v-1.32Z"/><path class="cls-8" d="m591.82,24.65l.11-4.08c-.62,1.14-1.28,2.18-2.04,3.15l-1.53-.63c1.61-1.66,4.41-6.16,5.39-10.4.23.06,1.27.28,1.63.42.21.1.32.23.32.34,0,.17-.23.34-.65.34h-.07c-.36,1.03-.95,2.65-1.77,4.4h.25c.35.05.5.2.5.33,0,.18-.26.39-.65.52-.04.43-.04,1.47-.04,1.47l-.09,13.31h-1.46l.1-9.16Zm3.21,6.42h5.11v-9.43h-5.54v-1.54h5.54v-5.06s0-1.18-.07-2.15c.16.03,1.41.06,1.84.15.23.06.37.14.37.26,0,.19-.22.39-.64.48-.04.55-.04,1.39-.04,1.39v4.92h6.23v1.54h-6.23v9.43h5.7v1.56h-12.27v-1.56Z"/><path class="cls-8" d="m611.25,30.91h8.07v-15.82c0-.2,0-1.09-.04-1.83.96,0,2.31,0,2.31.48,0,.19-.23.39-.65.47-.05.58-.05,1.09-.05,1.09v4.93h7.46v1.69h-7.46v8.98h8.71v1.65h-18.36v-1.65Z"/><path class="cls-8" d="m635.69,31.3c-.7-1.24-1.12-3.75-1.12-6.13v-.63c.18-4.64.97-7.99,1.1-10.38.02-.11.04-.14.08-.14.02,0,.07.03.12.03l1.54.53c.23.09.38.22.38.35,0,.15-.19.27-.62.29-.25,1.66-1.1,5.15-1.27,8.43-.02.52-.08,1.2-.08,1.85,0,.36.02,1.28.17,1.28.07,0,.15-.34.25-.65.32-1.04,1.15-3.73,1.32-4.26.03.09.43.94.63,1.49-.14.53-.63,2.12-.86,3.06-.2.83-.5,1.89-.5,3.27,0,.36.03.78.07,1.18,0,.1,0,.17-.11.2l-1.1.23Zm3.58-13.06s-.02-.06-.02-.1c0-.04.02-.07.08-.07h.02c.96.33,2,.5,3.07.5.3,0,1.05,0,2.63-.23-.05-1.66-.15-3.3-.23-4.38,1.38,0,2.27,0,2.27.33,0,.17-.18.32-.57.41-.02.44-.05,1.04-.05,1.73,0,.5.03,1.07.03,1.64,1.03-.22,2.07-.47,3.13-.81l.06,1.63c-1.04.23-2.12.47-3.17.66.03.93.03,1.87.03,2.83,0,4.7-.36,7.69-5.11,10.51-.7-.54-1.65-1.11-1.77-1.19,4.81-2.06,5.46-4.61,5.46-9,0-.88,0-1.87-.03-2.92-1.7.27-2.78.32-3.14.32-.88,0-1.64-.12-2.35-.32l-.35-1.56Zm8.76-5.37c.24.24,1.34,1.55,1.91,2.81l-1.08.78c-.4-1.09-1.24-2.29-1.8-2.93l.97-.65Zm2-1.03c.23.21,1.38,1.46,1.99,2.74l-1.05.84c-.39-.89-1.21-2.16-1.91-2.89l.97-.69Z"/><path class="cls-8" d="m573.69,56.44c3.78-.35,8.48-2.48,8.48-7.53,0-3.06-2.17-5.77-5.57-6.02.02.29.03.6.03.91,0,4.24-2.57,8.65-3.76,10.33-.74,1.06-1.52,1.59-2.26,1.59-1.27,0-3.07-2.01-3.07-5,0-4.43,3.96-9.25,8.74-9.25,4.38,0,7.48,3.39,7.48,7.47,0,5.33-4.32,8.27-8.3,9.06l-1.77-1.57Zm-4.75-5.78c0,1.81.98,3.27,1.62,3.27,1.27,0,4.56-5.82,4.56-9.96,0-.31-.03-.65-.05-.97-3.2.68-6.13,4.36-6.13,7.66Z"/><path class="cls-8" d="m589.05,49.89h3.88v-2.41h-4.58v-1.47h4.58v-2.65h-2.48c-.28.78-.6,1.54-.96,2.17l-1.49-.34c1.21-1.76,1.99-4.31,2.19-6.14,1.32.24,1.76.33,1.76.6,0,.15-.17.24-.55.27-.07.46-.25,1.18-.49,2.02h2.01v-1.66c0-.15,0-1.29-.05-1.82.07,0,1.24.12,1.67.17.25.02.37.15.37.3,0,.16-.21.38-.61.45-.02.31-.04,1.06-.04,1.06v1.5h4.07v1.42h-4.07v2.65h4.68v1.47h-4.68v2.41h3.96v3.66c0,.58.05,1.76.05,1.87v.11c0,1.85-1.23,2.2-2.59,2.2h-.27l-.81-1.77c.53.09.97.17,1.33.17.65,0,1.02-.24,1.02-.89v-3.94h-2.69v8.44h-1.33v-8.44h-2.55v6.61h-1.33v-8.01Zm11.14-8.14s0-1.26-.03-1.95c1.67,0,2.03.17,2.03.41,0,.17-.2.35-.59.44-.02.53-.04,1.32-.04,1.32v12.73h-1.37v-12.95Zm.13,15.79c.79.1,1.53.19,2.14.19,1.06,0,1.76-.26,1.76-1.27v-15.89s0-1.26-.04-1.88c.12.03,1.14.13,1.63.19.29.02.4.13.4.28s-.18.31-.54.39c-.02.38-.05,1.18-.05,1.18v13.61c0,1.19.05,2.11.05,2.26v.07c0,2.31-1.7,2.7-3.63,2.7h-.57l-1.15-1.83Z"/><path class="cls-8" d="m611.01,39.34h4.81c.05,0,.15-.13.26-.13.09,0,.75.65.89.79.08.07.13.14.13.25s-.11.24-.36.32c-.71,2.61-1.44,4.71-1.74,5.47.61.65,1.66,2.49,1.66,4.54,0,3.46-1.67,3.93-2.99,3.93h-.15l-.87-1.78c.3.05.68.12,1.02.12.63,0,1.63-.2,1.63-2.26,0-2.53-1.5-4.13-1.69-4.34.48-1.3,1.12-3.13,1.65-5.59h-2.87v19.27h-1.38v-20.59Zm7.25.15h8.45v10.11h-1.3v-.62h-2.33c.07.8.28,2.21.82,3.75.63-.32,2.45-1.39,3.74-2.62.06.07,1.06,1.35,1.06,1.8,0,.12-.05.19-.18.19s-.31-.07-.53-.27c-.96.69-2.86,1.82-3.54,2.2.92,1.82,2.46,3.59,4.98,4.33l-1.61,1.23c-4.82-2.38-5.83-8.63-6.04-10.61h-2.18v7.33c1.61-.6,2.9-1.19,3.4-1.46l.06,1.57c-1.02.5-3.59,1.7-6.66,2.74v.2c0,.3-.08.58-.23.58-.3,0-1.03-2-1.07-2.14,1.04-.27,2.14-.61,3.16-.97v-17.33Zm7.15,4v-2.6h-5.81v2.6h5.81Zm0,4.14v-2.76h-5.81v2.76h5.81Z"/><polygon class="cls-3" points="98.16 .18 .18 .18 .18 71.29 98.16 71.29 226.29 71.29 226.29 .18 98.16 .18"/><rect class="cls-3" x="516.98" y=".18" width="162.43" height="71.12"/><rect class="cls-3" x="226.46" y=".18" width="290.52" height="35.92"/><line class="cls-3" x1="516.98" y1="71.34" x2="226.46" y2="71.34"/></svg>