<?xml version="1.0" encoding="UTF-8"?><svg id="_レイヤー_1" xmlns="http://www.w3.org/2000/svg" viewBox="0 0 559.2 46.44"><defs><style>.cls-1{fill:#fff;}.cls-2{fill:#877437;}.cls-3{fill:#231815;}</style></defs><path class="cls-3" d="m334.56,16.66h-7.94v-.54c1.16-2.48,2.72-4.14,4.52-5.98,1.26-1.28,2.72-2.88,2.72-5.08,0-1.04-.36-2.76-2.64-2.76-1.74,0-2.58.94-2.58,1.58,0,.2.1.46.18.6.24.54.24.76.24.92,0,.7-.44,1.02-.98,1.02-.7,0-.92-.5-.92-1.12,0-1.82,1.7-3.6,4.34-3.6,2.38,0,3.9,1.44,3.9,3.7,0,1.34-.48,2.14-1.48,3.28-.48.56-2.94,2.7-3.42,3.16-.26.26-1.74,1.76-2.68,3.48h4c2.36,0,2.98-1.72,3.34-2.7l.38.1-.98,3.94Z"/><path class="cls-3" d="m343.32,12.5v2.1c0,.92.62,1.42,1.4,1.42h.32v.64h-4.7v-.64c.42,0,1.72,0,1.72-1.46v-2.06h-5.6v-.7l6.3-10.1h.56v10.16h2.38v.64h-2.38Zm-1.26-8.42l-4.84,7.78h4.84v-7.78Z"/><path class="cls-3" d="m352.82,2.94c-.02.4-.04.98-.04,1.86,0,2.2.08,5.02.16,7.24,0,.24.06,1.38.06,1.6,0,.18,0,.38-.22.58-.14.12-.34.18-.48.18-.48,0-.48-.16-.46-1.34h-2.84c0,.32.04,1.66.04,1.94,0,.48-.64.62-.78.62-.34,0-.38-.3-.38-.48,0-.12.02-.74.02-1.1.08-2.7.1-5.38.1-8.06,0-2.88-.04-3.26-.2-4.66l1.44.72h2.36l.54-.5c.14-.12.24-.22.34-.22.12,0,.26.12.4.26l.44.44c.08.08.18.2.18.32,0,.16-.42.44-.68.6Zm-.96-.42h-2.88v4.68h2.88V2.52Zm0,5.16h-2.88v4.9h2.88v-4.9Zm13-.38h-8.6c-.64,0-1.76.08-2.58.24l-.48-.86c1.12.08,2.22.14,3.34.14h1.68v-3.06h-.86c-.62,0-1.76.08-2.58.24l-.46-.86c1.1.08,2.22.14,3.32.14h.58c0-1.86-.06-2.28-.34-3.28l1.78.54c.18.06.3.1.3.3,0,.04,0,.14-.14.24-.26.18-.28.22-.44.34-.02.28-.04.8-.04,1.86h2.46l.54-.7c.06-.08.2-.24.3-.24.14,0,.28.1.38.2l.78.7c.1.1.2.18.2.3,0,.2-.18.22-.3.22h-4.36c-.02,1.04-.02,2.18-.02,3.06h3.54l.64-.8c.14-.18.22-.24.3-.24.12,0,.26.12.34.2l.84.82c.14.14.18.22.18.3,0,.2-.22.2-.3.2Zm-.02,3.96h-3.4c.02,1.38.06,3.28.06,4.7,0,.68-.06,1.1-.72,1.54-.68.46-1.32.6-1.58.66-.12-.4-.3-.92-1.88-1.7v-.16c.92.1,1.76.14,1.94.14.3,0,.94-.02,1.1-.24.1-.14.1-1.2.1-1.5,0-.68-.02-1.84-.06-3.44h-3.9c-.64,0-1.76.06-2.58.22l-.46-.86c1.1.1,2.2.16,3.32.16h3.6c-.06-2.08-.06-2.32-.2-2.82l1.52.38c.2.06.28.1.28.22,0,.2-.4.52-.54.64-.02.24-.02.38-.02,1.58h1.52l.52-.76c.08-.1.18-.24.32-.24.12,0,.26.12.34.2l.84.76c.08.08.18.16.18.3,0,.18-.16.22-.3.22Zm-7.58,3.68c-.5,0-.56-.26-.72-1.1-.06-.34-.18-.7-.22-.84-.26-.72-.42-.84-.54-.98l.06-.14c1.04.42,2.12,1.5,2.12,2.3,0,.6-.46.76-.7.76Z"/><path class="cls-3" d="m374.56,2.24v2.24c0,.2.1,1.9.1,2.08,0,.78-.72.82-.8.82-.46,0-.4-.4-.38-.58h-3.68c0,1.14,0,6.76.02,8.02,0,.26.06,1.48.06,1.76,0,.3,0,1.34-.88,1.34-.52,0-.52-.36-.52-.52,0-.02.06-.66.06-.68.14-1.56.18-5.96.18-9.16,0-.7,0-5.3-.02-5.62-.06-.74-.12-1.04-.2-1.42l1.58.76h3.26l.34-.42c.12-.12.16-.2.24-.2.04,0,.18.1.24.14l.9.58c.1.08.16.12.16.22,0,.14-.1.22-.66.64Zm-1.06-.48h-3.7v1.98h3.7v-1.98Zm0,2.46h-3.7v2.1h3.7v-2.1Zm5.36,5.34c-.02.76-.04,2.42.04,3.84,0,.18.1,1.04.1,1.22,0,.86-.74.92-.78.92-.54,0-.46-.72-.44-.98h-4.16c.12,1.26-.7,1.28-.8,1.28-.32,0-.4-.18-.4-.42,0-.18.08-.96.08-1.12.06-.9.08-3.42.08-4.4,0-.82-.02-1.16-.16-1.9l1.3.68h4l.28-.34c.24-.24.26-.28.36-.28.12,0,.24.12.28.14l.7.58c.14.12.18.16.18.24,0,.18-.36.38-.66.54Zm-1.06-.4h-4.2v2.14h4.2v-2.14Zm0,2.62h-4.2v2.3h4.2v-2.3Zm5.5-9.48c0,2.44,0,4.96.02,7.3,0,.84.06,4.56.06,5.3,0,1.74,0,2.18-.8,2.72-.16.08-.78.46-1.32.52-.06-.38-.14-.66-.48-.94-.3-.24-.78-.58-1.6-.84v-.16c.38,0,2.04.1,2.38.1.42,0,.7-.02.7-.54,0-1.14-.02-3.28-.02-4.24,0-.74.02-4.34.02-4.72h-4.14c.02.24.02.38-.08.48-.14.2-.48.3-.6.3-.34,0-.34-.34-.34-.42,0-.04.02-.38.02-.44.02-.34.02-1.58.02-1.98,0-2.92,0-3.32-.14-4.18l1.32.72h3.76l.44-.52c.16-.18.2-.24.3-.24.14,0,.22.08.3.16l.86.72c.08.08.14.14.14.28,0,.16-.1.26-.82.62Zm-1.04-.54h-4.14v1.98h4.14v-1.98Zm0,2.46h-4.14v2.1h4.14v-2.1Z"/><path class="cls-3" d="m395.46,12.82c0,2.28-1.98,4.22-4.76,4.22-2.46,0-4-1.54-4-2.92,0-.64.32-1.18.98-1.18s.96.58.96,1.08c0,.22-.18.8-.18.96,0,.5.72,1.38,2.14,1.38,1.78,0,3.22-1.42,3.22-3.62,0-2.06-1.22-3.54-3.24-3.54-.1,0-.64.06-.76.06s-.54,0-.54-.42c0-.3.24-.36.52-.36.1,0,.64.06.76.06,1.12,0,2.96-.94,2.96-3.24,0-1.94-1.34-2.92-2.66-2.92-1.2,0-1.88.76-1.88,1.36,0,.1.06.6.06.72,0,.46-.22,1.18-.94,1.18-.58,0-.82-.54-.82-1.06,0-1.48,1.72-2.88,3.76-2.88,2.24,0,4.06,1.42,4.06,3.42,0,1.44-1.14,3.14-3.5,3.7,2.98.4,3.86,2.62,3.86,4Z"/><path class="cls-3" d="m401.28,17.04c-2.36,0-4.62-2.54-4.62-6.94,0-3.76,1.94-8.4,5.66-8.4,1.46,0,2.38.76,2.38,1.74,0,.82-.56.94-.92.94-1,0-1.04-.92-1.04-1.04-.02-.52-.04-1.04-.82-1.04-.66,0-1.28.36-1.64.76-1.74,1.88-1.88,4.7-1.98,6.9.94-1.32,1.8-2.58,3.62-2.58,2.16,0,3.58,2,3.58,4.5,0,3-1.98,5.16-4.22,5.16Zm.3-8.76c-2.06,0-2.98,2.36-3.28,3.16.18,1.7.38,2.64.92,3.58.68,1.18,1.24,1.34,2.02,1.34,2.2,0,2.72-2.8,2.72-4.5,0-1.08-.2-3.58-2.38-3.58Z"/><path class="cls-3" d="m410.5,17.04c-2.38,0-3.76-1.74-3.76-3,0-.62.4-1.16,1.02-1.16.48,0,.88.42.88,1.1,0,.26-.14.82-.14.96,0,.7.74,1.42,2.08,1.42,2.54,0,3.3-2.58,3.3-4.38,0-1.68-.5-3.82-2.98-3.82-1.4,0-2.24.78-3.22,1.76l-.3-.22.38-7.64h6.9l-.36,1.3h-5.96l-.26,5.46c.44-.44.78-.76,1.54-1.1.64-.28,1.22-.4,1.72-.4,1.54,0,4.08,1.26,4.08,4.48s-2.34,5.24-4.92,5.24Z"/><path class="cls-3" d="m428.6,3.28c-.08,2.4-.02,9.42.06,12.08,0,.22.08,1.14.08,1.34,0,.72-.6.84-.84.84-.46,0-.46-.34-.46-.5,0-.06.04-.78.04-.88h-7.94c.02.54.02.74-.04.9-.04.1-.3.52-.78.52-.4,0-.5-.28-.5-.52,0-.2.08-1.04.1-1.22.12-1.72.16-6.74.16-8.1,0-5.3-.08-5.72-.34-6.56l1.7.92h7.3l.58-.52s.22-.22.38-.22c.08,0,.14.04.32.18l.76.66c.18.14.24.26.24.38,0,.22-.4.44-.82.7Zm-1.1-.7h-7.96v6.08h7.96V2.58Zm0,6.56h-7.96v6.54h7.96v-6.54Z"/><path class="cls-3" d="m432.9,12.74c.94.18,2.54.5,3.76,1.54,1.16,1.02,1.16,2.08,1.16,2.26,0,.64-.5,1.04-.92,1.04-.32,0-.54-.26-.94-1.06-.98-2-1.42-2.86-3.1-3.58l.04-.2Z"/><path class="cls-3" d="m444.64,16.4c3.46-1.54,7.68-5.92,8.94-12.12-1.78.06-7.76.9-8.64,1.14-.38.1-.44.14-.74.34-.02.02-.12.08-.22.08-.46,0-1.46-1.16-1.46-2.1,0-.2.08-.34.12-.44.64.98,1.28,1.1,1.8,1.1.16,0,8.06-.72,8.54-.8.5-.1.68-.2.88-.4.14-.12.18-.14.26-.14.22,0,1.58,1.18,1.58,1.46,0,.1-.06.16-.48.36-.48.22-.58.36-.78.96-.12.4-1.12,3.64-3.46,6.62-1.58,2.04-3.8,3.5-6.32,4.1l-.02-.16Z"/><path class="cls-3" d="m459.98,9.12v.64c0,.28,0,1.3-.56,1.3s-.7-1.12-.7-1.6c0-.2.02-.3.12-1.04.04-.26.08-.56.08-1.9,0-.62,0-2.24-.16-2.68-.14-.34-.26-.38-1.34-.7.44-.34.72-.46,1.08-.46.34,0,1.82.28,1.82.86,0,.12-.2.7-.2.82-.1.68-.14,2.68-.14,4.26v.5Zm1.48,8.28c3.94-2.98,4.7-5.58,4.7-11.92,0-.54-.02-2.52-.24-2.86-.24-.4-1.16-.5-1.5-.54.26-.26.62-.6,1.2-.6.62,0,1.64.36,1.88.6.14.12.14.26.14.34,0,.16-.2.8-.24.94-.06.32-.06.76-.08,1.22-.12,4.9-.16,5.62-.62,7.4-.22.82-1.22,4.2-5.18,5.56l-.06-.14Z"/><path class="cls-3" d="m472.3,8.52c.28.08.48.08,2.24.08.36,0,6.98-.04,8.38-.2.38-.04.4-.04.64-.14.12-.04.24-.06.38-.06.1,0,1.86.2,1.86.78,0,.48-.52.48-1.06.48-.3,0-2.18-.12-2.6-.12-1.2,0-6.86.1-7.84.2-.24.02-.82.08-1.38.28-.38.14-.48.18-.62.18s-.26,0-.74-.58c-.14-.16-.58-.68-.58-1.44,0-.28.02-.52.16-.78.26.72.7,1.2,1.16,1.32Z"/><path class="cls-3" d="m487.76,17.1c3.1-1.76,5.68-3.92,7.42-6.64,1.02-1.58,2.32-3.88,2.92-5.68-.66.12-2.92.4-3.74.4-.22,0-.76,0-1.18-.14-.24.34-1.24,1.86-1.46,2.16-.1.12-.2.24-.28.36.86.2,1.7.5,2.48.92.7.38,1.28.84,1.28,1.64,0,.56-.3.68-.44.68-.26,0-.44-.24-.76-.66-.66-.88-1.18-1.3-2.78-2.32-1.4,1.6-2.72,2.3-3.32,2.62l-.06-.1c2.72-2.62,5.04-6.76,5.04-7.46,0-.54-.62-.88-1.14-1.18.3-.06.48-.08.7-.08,1.14,0,2.18,1.08,2.18,1.36,0,.18-.06.26-.36.54-.14.14-.46.6-.68.92.26.06.94.06,1.02.06,1.64,0,3.18-.34,3.66-.7.32-.24.36-.28.44-.28.14,0,1.36,1.12,1.4,1.28v.08c0,.22-.12.26-.54.42-.3.1-.4.2-.72.8-1.94,3.64-2.16,4.04-2.68,4.78-2.98,4.28-6.04,5.6-8.32,6.4l-.08-.18Zm11.84-15.32c1.14.46,1.8.92,1.8,1.68,0,.38-.2.6-.4.6-.3,0-.36-.1-.96-.92-.6-.84-1.14-1.18-1.98-1.64.42,0,.84,0,1.54.28Zm2.72-.54c.44.18,1.28.54,1.28,1.5,0,.28-.1.58-.34.58-.28,0-.36-.08-.94-.82-.72-.94-1.36-1.3-2.04-1.66.44-.02.96-.02,2.04.4Z"/><path class="cls-3" d="m503.9,11.86c4.74-3.38,8.56-7.04,10.18-9.22.3-.42.32-.64.32-.76,0-.14,0-.36-.3-.56-.12-.08-.64-.4-.74-.46.2-.06.44-.14.72-.14.84,0,1.56.56,1.96.98.24.24.36.38.36.66,0,.22-.12.26-.4.38-.32.12-.38.18-.96.76-2.16,2.16-2.4,2.4-3.18,3.12.4.18,1,.46,1,.78,0,.1-.2.52-.22.6-.1.26-.1.62-.1,1.16v6.86c0,.84,0,1.16-.42,1.16-.66,0-1.02-1.14-1.02-1.36,0-.14.2-.76.24-.88.16-.72.28-2.86.28-3.66,0-.46-.14-3.5-.16-3.68-.04-.2-.08-.26-.24-.42-2.2,1.9-4.58,3.6-7.24,4.78l-.08-.1Z"/><path class="cls-3" d="m529.44,9.7c.82-1.38,1.16-2.06,2.56-4.94-.44.1-.66.16-1.28.34-1.36.42-2.96.9-4.8,1.48.28,1.2,1.34,5.32,1.92,7.12.6,1.88.78,2.42.78,3.02,0,.44-.36.52-.46.52-.08,0-1.1-.14-1.26-1.66-.02-.16-.1-.9-.12-1.04-.18-1.3-.36-2.02-1.76-7.68-.6.2-3,.96-3.36,1.1-.24.1-.32.16-.98.62-.12.1-.2.14-.3.14-.44,0-1.76-1.04-1.76-2.02,0-.2.02-.36.08-.62.74.8.96,1.04,1.42,1.04.3,0,.46-.04,2-.44.4-.1,1.62-.42,2.66-.68-.2-.72-.94-3.26-1.24-3.54-.38-.34-1.4-.34-1.72-.34.68-.52,1.06-.8,1.8-.8.44,0,.96.18,1.28.34.3.16.34.3.34.62,0,.14-.02.7,0,.82,0,.34.18,1.28.5,2.66.82-.22,5.24-1.36,5.58-1.48.26-.1.54-.32.82-.56.22-.2.3-.28.46-.28.3,0,1.68,1.34,1.76,1.52.02.06.04.1.04.16,0,.24-.26.3-.74.4-.56.12-.7.24-1.14.84-.9,1.24-1.84,2.42-2.96,3.42l-.12-.08Z"/><path class="cls-3" d="m536.26,16.06c1.22-1.04,2.14-2.38,2.8-3.82,1-2.22,1.04-4.1,1.04-5.74s0-1.84-1.42-2.16c.2-.2.52-.5,1-.5.62,0,1.74.52,1.74.96,0,.12-.14.64-.16.76-.02.3-.04,1.64-.06,1.9-.12,1.94-.4,4.26-2.06,6.46-.6.8-1.52,1.76-2.78,2.28l-.1-.14Zm16.28-9.28c-1.06,2.78-3.3,4.94-5.58,6.76-.22.18-1.3.9-1.46,1.1-.5.66-.56.74-.76.74-.38,0-1.14-1.44-1.14-1.64,0-.12.18-.68.2-.78.14-.72.16-1.8.16-4.48,0-.84,0-3.9-.1-4.58-.06-.44-.16-.7-1.34-1.18.2-.12.54-.36.94-.36.52,0,1.36.5,1.74.84.1.08.2.22.2.4,0,.12-.16.6-.18.7-.08.28-.18.86-.22,1.48-.06,1.32-.1,5.7-.1,7.16,0,.3,0,.34.06.34.24,0,3.92-1.8,7.44-6.62l.14.12Z"/><path class="cls-3" d="m559.2,9.06c0,.78-.64,1.38-1.38,1.38s-1.38-.62-1.38-1.38.6-1.38,1.38-1.38,1.38.62,1.38,1.38Z"/><path class="cls-3" d="m344.62,25.17c-.12.04-.82.1-.98.12-1.22.96-1.36,1.08-1.84,1.36l-.12-.14c.12-.2.64-1.16.88-1.94h-6.1c0,.56.06,3.3.06,3.92,0,.18,0,.34-.2.52-.16.16-.42.24-.64.24-.36,0-.38-.24-.38-.48,0-.6.06-3.54.06-4.2h-5.8c-.1,1.32-.7,2.58-1.58,2.58-.3,0-.64-.28-.64-.7,0-.34.16-.48.76-.98.9-.72,1.08-1.64,1.16-2.12h.14c.08.18.12.32.16.74h5.8c0-.24.02-1.38.02-1.64h-3.64c-.4,0-1.62.04-2.58.24l-.46-.86c1.04.08,2.28.14,3.32.14h9.04l.62-.7c.12-.12.22-.24.34-.24.1,0,.24.1.36.2l.84.7c.08.06.2.16.2.3,0,.22-.22.22-.3.22h-6.68l.02,1.64h5.98l.58-.54c.12-.12.22-.2.32-.2s.2.08.32.2l1.08,1c.1.1.12.2.12.32,0,.1-.06.22-.24.3Zm-.28,12.92c-1.1.42-3.48.42-5.02.42-.58,0-2.78,0-3.22-.08-1.04-.16-1.08-.82-1.08-1.38,0-.28.02-1.46.04-1.7h-4.16s.04.74.04.76c0,.54-.38.78-.72.78s-.48-.14-.48-.4c0-.14.08-.76.08-.88.04-1.3.04-2.26.04-2.94,0-.54,0-2.3-.04-2.72-.04-.34-.1-.56-.18-.78l1.66.76h8.86l.26-.38c.1-.16.16-.28.32-.28.14,0,.3.12.38.18l.6.46c.16.12.3.24.3.34,0,.14-.18.26-.7.54.02.54.02,2.92.04,3.4.02.18.08,1.02.08,1.18,0,.58-.54.72-.74.72-.44,0-.44-.26-.42-.74h-4.22c0,.26-.02,1.5,0,1.62.02.18.1.26.26.32.1.04.9.22,2.66.22.94,0,3.7-.12,4.1-.34.28-.14.44-.5.52-.78.3-.94.48-1.76.62-2.48l.2.02c0,.64.08,2.5.54,2.9.22.2.26.24.26.34,0,.32-.38.72-.88.92Zm-10.2-9.66h-2.56c-.32,0-.78.04-1.1.1l-.2-.66c.36.04,1.12.08,1.42.08h1.5l.26-.42c.08-.14.18-.3.36-.3.16,0,.24.16.3.28l.2.38c.06.12.12.22.12.34,0,.16-.12.2-.3.2Zm-.22-1.9h-2.3c-.32,0-.78.02-1.1.1l-.2-.66c.36.02,1.12.08,1.42.08h1.3l.26-.4c.08-.14.18-.3.36-.3.16,0,.24.14.3.26l.16.36c.04.1.1.28.1.34,0,.16-.14.22-.3.22Zm1.14,3.88h-4.16v1.98h4.16v-1.98Zm0,3.54v-1.08h-4.16v2h4.16v-.92Zm5.24-3.54h-4.24v1.98h4.24v-1.98Zm0,2.46h-4.24v2h4.24v-2Zm0-6.38h-1.76c-.34,0-.78.04-1.1.1l-.2-.66c.36.02,1.12.08,1.42.08h.86l.18-.38c.06-.14.16-.26.3-.26.1,0,.22.08.3.24l.2.38c.04.08.1.2.1.28,0,.18-.14.22-.3.22Zm.78,1.92h-2.38c-.32,0-.78.04-1.1.1l-.2-.66c.36.02,1.12.08,1.42.08h1.38l.2-.34c.1-.16.16-.28.32-.28s.26.16.34.3l.2.3c.08.1.14.22.14.3,0,.16-.12.2-.32.2Z"/><path class="cls-3" d="m354.78,24.93h-4.82c-.7,0-1.82.08-2.58.24l-.46-.86c1.5.12,2.94.14,3.32.14h2.86l.42-.62c.06-.1.2-.26.3-.26.12,0,.28.14.36.22l.7.62c.1.08.2.18.2.3,0,.2-.16.22-.3.22Zm-1.14,4.94h-4.5c-.32,0-.78.04-1.1.12l-.2-.66c.36.02,1.12.06,1.42.06h2.96l.38-.5c.06-.08.18-.26.32-.26.06,0,.24.08.34.2l.5.52c.14.16.18.22.18.3,0,.16-.1.22-.3.22Zm-.02-2.42h-4.4c-.34,0-.8.04-1.1.1l-.22-.64c.36.02,1.14.06,1.44.06h2.8l.4-.44c.1-.12.2-.26.32-.26.06,0,.2.06.36.2l.5.46c.12.12.2.18.2.3,0,.16-.12.22-.3.22Zm.24,5.48c-.14.1-.24.16-.32.22,0,.44,0,.92.02,2.2.02.62.08,1.6.08,2.2,0,.5-.4.9-.72.9-.42,0-.42-.28-.4-1.26h-3.26v1.1c-.08.32-.48.6-.82.6-.26,0-.36-.18-.36-.4,0-.06,0-.12.02-.16.08-1.14.1-3,.1-4.02,0-1.94-.06-2.32-.18-2.9l1.36.82h2.9l.36-.42c.04-.06.18-.16.26-.16.06,0,.08.02.24.14l.76.56c.2.16.24.18.24.28s-.08.14-.28.3Zm-.24-10.42h-4.18c-.32,0-.78.04-1.1.12l-.2-.66c.36.02,1.12.06,1.42.06h2.58l.38-.48c.06-.1.2-.26.32-.26.1,0,.28.14.36.2l.54.52c.14.12.18.2.18.28,0,.16-.1.22-.3.22Zm-1.1,10.2h-3.28v4h3.28v-4Zm12.54-5.14h-5.3v3.6h2.02l.4-.52c.14-.18.22-.2.28-.2.1,0,.14.04.32.18l.78.64c.16.12.24.2.24.3,0,.2-.36.46-.72.64-.02.56.04,2.34.06,2.98,0,.5.08,2.64.08,3.08,0,.54-.6.66-.78.66-.16,0-.4-.04-.42-.28-.02-.14,0-1.02,0-1.22h-5.48c0,.32,0,.86-.02.94-.06.26-.42.58-.74.58-.44,0-.44-.26-.44-.42,0-.48.06-1.22.08-1.7.02-.66.08-2.2.08-3.6,0-1.66-.04-1.92-.2-2.8l1.4.74h1.98v-3.6h-1.26c-.72,0-1.82.08-2.58.24l-.48-.86c1.5.12,2.96.14,3.34.14h.98v-3.96c-1.32.24-2.48.36-3.48.46l-.02-.16c2.66-.74,3.48-.96,5.92-2.02.34-.14.66-.32.78-.6l1.48,1.04c.12.06.16.1.16.22,0,.16-.14.24-.28.24-.08,0-.66-.08-.76-.1-1.3.38-1.98.56-2.72.7v4.18h3.06l.74-.82q.22-.24.32-.24c.12,0,.34.18.36.2l.92.82c.1.1.2.18.2.32,0,.18-.18.2-.3.2Zm-3.02,4.08h-5.5v5.3h5.5v-5.3Z"/><path class="cls-3" d="m381.72,29.37l.92-1.08c.14-.18.24-.26.34-.26s.16.06.34.24l1.18,1.18c.1.1.2.18.2.32,0,.18-.18.2-.3.2h-14.14c-.7,0-1.8.08-2.56.22l-.48-.98c1.48.1,2.68.16,3.32.16h11.18Z"/><path class="cls-3" d="m403.56,34.95c-1.44-1.1-3.1-2.4-4.64-4.82-.96-1.48-1.78-3.06-2.26-4.76h-.16c-.06,2.74-.06,3.04-.06,4,0,.5,0,1.98.06,4h1.58l.64-.72c.2-.24.24-.24.34-.24.06,0,.14.02.34.2l.76.68c.1.1.2.22.2.34,0,.18-.16.22-.3.22h-3.56c.02.66.16,4.08.16,4.2,0,.26-.02.5-.34.74-.3.22-.54.22-.64.22-.36,0-.48-.16-.48-.46,0-.02,0-.12.02-.26.16-2.28.18-3.88.2-4.44h-.94c-.7,0-1.82.08-2.56.22l-.48-.86c1.5.12,2.96.16,3.32.16h.68c0-.94.1-6.38.1-6.86-2.62,5.02-5.92,7.52-8.56,8.64l-.08-.14c3.86-2.7,6.58-6.62,7.9-9.64h-4.28c-.7,0-1.82.08-2.58.24l-.46-.86c1.5.12,2.94.14,3.32.14h4.72c-.1-2.78-.12-3.12-.4-3.96l1.94.58c.18.06.28.1.28.24s-.08.18-.78.64c-.02.5-.02.86-.04,2.5h5.16l.9-1.06c.16-.2.22-.26.32-.26s.3.16.38.22l1.26,1.08c.1.08.18.16.18.3,0,.18-.16.2-.3.2h-7.5c1.72,3.96,5.34,7.58,8.78,8.42v.18c-1.08.08-1.7.5-2.14.98Z"/><path class="cls-3" d="m408.94,25.65c.56,0,1.1-.14,3.3-.74,2.98-.8,8.94-2.06,9.2-2.06.32,0,1.42.36,1.42.94,0,.48-.5.52-.76.52-.18,0-1.04-.06-1.2-.06-2.26,0-3.34.54-4.48,1.54-2.04,1.78-2.68,3.92-2.68,5.38,0,3.5,3.54,4.48,5.08,4.76.54.1.84.14,1.12.5.14.18.22.38.22.54,0,.32-.28.38-.5.38-2.06,0-6.74-1.52-6.74-5.98,0-3.44,2.56-5.48,4.66-7.14-1.2.34-2.68.7-4.02,1.02-2.54.62-3.24,1.04-4.24,1.62-.12.08-.34.2-.58.2-.32,0-1.32-.52-1.32-1.74,0-.3.06-.46.14-.66.62.84.72.98,1.38.98Zm11.36,1.34c1.34.84,1.5,1.34,1.5,1.8,0,.2-.04.62-.42.62-.22,0-.34-.2-.48-.44-.66-1.22-1.92-2.28-2.46-2.64.66.06,1.3.32,1.86.66Zm3.82.96c0,.48-.26.54-.36.54-.22,0-.36-.22-.56-.5-.68-.98-1.64-1.68-2.6-2.38,1.32.2,3.52,1.04,3.52,2.34Z"/><path class="cls-3" d="m434,25.97h-3.06l1.56.94c.18.12.28.22.28.36,0,.22-.18.28-.96.38-.54,1.72-.92,2.8-1.4,3.88,2.1,2.42,2.42,3.82,2.42,4.18,0,.64-.42.82-.68.82-.44,0-.64-.32-.86-1.08-.08-.28-.52-1.64-1.36-2.9-.96,1.98-2.3,4.38-5.12,6.14l-.06-.14c.74-.8,2.86-3.1,4.52-6.9-.8-.98-1.68-2.02-3.16-3.08l.1-.16c1.82.96,2.86,1.8,3.42,2.32.54-1.48,1.08-3.24,1.18-4.76h-2.76c-.7,0-1.8.08-2.56.24l-.48-.86c1.5.12,2.96.14,3.32.14h.56c0-3.16,0-3.22-.38-4.44l1.84.54c.1.04.32.12.32.32,0,.08-.02.14-.1.2-.1.06-.42.28-.6.4v2.98h1.94l.7-.76c.2-.22.22-.24.3-.24.1,0,.32.14.38.2l.8.76c.14.12.2.18.2.32,0,.18-.16.2-.3.2Zm9.02.92h-3.34v5.36c0,.52.08,2.82.08,3.3,0,1.32,0,1.88-.64,2.56-.72.76-1.58.84-1.98.88-.08-.4-.16-.62-.48-.94-.44-.44-.84-.62-1.18-.76v-.1c.58.04.86.06,1.38.06,1.52,0,1.62-.14,1.7-.54.06-.3.04-8.96.02-9.82h-1.86c-.7,0-1.8.08-2.56.22l-.48-.86c1.5.12,2.96.16,3.32.16h1.58c-.06-3.74-.06-4.16-.08-4.4-.02-.7-.1-.9-.28-1.24l1.7.54c.36.12.42.2.42.3,0,.22-.34.44-.66.66v4.14h1l.76-.8c.22-.22.24-.24.32-.24.1,0,.34.2.36.2l1,.8c.08.06.2.16.2.3,0,.18-.18.22-.3.22Zm-7.4,6.24c-.66,0-.74-.78-.76-1.22-.04-.46-.16-1.76-.84-2.9l.14-.12c.6.36,1.26,1.22,1.64,1.72.26.34.64.86.64,1.54,0,.56-.38.98-.82.98Z"/><path class="cls-3" d="m461.78,24.47h-14.08c.02,1.98.02,3.18.02,4.12,0,5.44-.26,7.5-2.8,10.02l-.12-.16c1.22-1.8,1.86-3.76,1.86-8.94,0-1.66-.04-4.64-.34-6.16l1.58.64h5.62c-.02-1.78-.04-2.32-.3-3.06l1.68.42c.14.02.34.08.34.3s-.18.3-.62.48c.02.3,0,1.6,0,1.86h4.96l.7-1.04c.06-.1.2-.26.3-.26.14,0,.32.18.4.28l.92.96c.12.14.18.2.18.34,0,.16-.16.2-.3.2Zm-12.74,12.48c-.26,0-.72-.14-.72-.62,0-.34.16-.56.56-1.16.38-.58.9-1.44.94-3.86h.12c.14.38.44,1.14.44,2.78,0,.58,0,2.86-1.34,2.86Zm9.8,1.18c-.68.24-2.74.24-3.58.24-2.66,0-2.88,0-2.88-2.16,0-.66.02-3.54.02-4.14,0-.2-.02-2.54-.08-3.24-.04-.32-.08-.48-.14-.74l1.86.6c.1.04.26.1.26.26,0,.36-.6.56-.84.66,0,.9-.02,4.88,0,5.68.02,1.98.12,2.06,1.48,2.08.42,0,.82.02,1.24.02,1.4,0,1.74-.12,1.96-.58.16-.32.44-1.12.72-2.42l.16.02c0,.06.18,2.02.46,2.36.04.04.26.16.3.2.06.06.08.16.08.22,0,.16-.16.64-1.02.94Zm-1.92-8.28c-.42,0-.52-.16-.92-.92-.84-1.62-1.18-2.02-2.04-3l.08-.08c2.08.9,3.58,2.34,3.58,3.3,0,.24-.14.7-.7.7Zm5.16,5.52c-.58,0-.66-.4-.88-1.32-.16-.72-.54-2.46-1.86-4.32l.1-.1c2.42,1.7,3.44,3.92,3.44,4.74,0,.56-.28,1-.8,1Z"/><path class="cls-3" d="m478.36,33.55c-1.44,2.72-4.84,4.58-8,4.58-.54,0-2.26-.12-2.96-.92-.66-.76-.82-2.02-.82-4.04,0-.3.1-4.26.12-4.88.02-.62.12-3.32.12-3.88,0-1.68-.58-1.88-1.4-2.2.14-.16.34-.32.88-.32.84,0,1.96.96,1.96,1.48,0,.18-.1.74-.16,1.1-.46,2.46-.72,6.48-.72,9,0,.78,0,2.54.4,3.08.44.58,1.2.72,1.94.72,2.5,0,6.84-2.08,8.58-3.8l.06.08Z"/><path class="cls-3" d="m486.3,22.99c0-.84-.16-.92-1.48-1.54.18-.12.4-.3,1-.3,1.04,0,1.88.72,1.88,1.2,0,.04-.1.46-.2.88s-.16.88-.24,1.48c1.38-.3,1.98-.52,3.12-.92.14-.04.34-.12.5-.12.36,0,1.08.36,1.08.64,0,.24-.26.36-.36.4-.62.26-2.36.72-4.44,1-.06.84-.08,2.08-.06,3.2,1.3-.32,1.76-.48,2.64-.82.1-.04.26-.1.36-.1.36,0,1.04.24,1.04.58,0,.28-.24.42-.44.5-.36.12-2.18.5-3.58.76.04.82.22,3.58.28,4.58,2.28.54,4.26,1.5,4.26,2.48,0,.36-.24.56-.44.56-.16,0-.24-.06-.92-.52-.2-.14-1.5-.94-2.82-1.32-.02,1.16-.5,1.62-.78,1.84-.9.66-2.16.68-2.44.68-2.04,0-3.38-1-3.38-1.98,0-.62.42-1.04,1-1.38,1.12-.62,3.04-.62,3.42-.62.46,0,.76.02,1.06.04-.02-.66-.18-3.6-.2-4.2-1.02.14-2.02.24-3.02.24-1.2,0-1.94-.22-1.94-.92,0-.34.36-.84.98-.98-.14.16-.32.38-.32.62,0,.38.42.44,1.44.44.78,0,1.72-.08,2.84-.28,0-1.1.02-1.68.08-3.28-.8.08-3.46.36-4.04.36-.52,0-2.1-.14-2.64-1.34.34.14,1.18.5,2.58.5.4,0,2.04-.1,4.12-.44,0-.3.06-1.64.06-1.92Zm-2.1,12.06c-1.32,0-2.64.34-2.64,1.14,0,.58.88,1.04,2.4,1.04.84,0,2.62-.24,2.4-1.98-.34-.08-.9-.2-2.16-.2Z"/><path class="cls-3" d="m499.06,39.08c3.4-2.26,3.8-4.3,4-5.6-.38.22-.72.42-1.18.42-.94,0-2.36-1.36-2.36-3.1,0-1.36,1.06-2.56,2.38-2.56.48,0,.84.16,1.2.32,0-.32-.02-.44-.02-.58v-1.82c-2.18.18-4.24.44-6.76,1.44-.12.04-.66.3-.78.3-.38,0-1.56-1-1.56-1.88,0-.1,0-.2.06-.44.58.76.98.96,1.48.96.3,0,1-.14,1.1-.16.92-.16,4.54-.72,6.46-.88-.02-.56-.06-2.7-.28-3.08-.26-.5-.74-.72-1.32-.98.22-.12.54-.32.94-.32s1.06.32,1.48.6c.28.2.32.38.32.54,0,.08-.1.54-.12.6-.12.54-.18,1.98-.2,2.58.76-.06,4.14-.18,4.82-.24.14-.02.84-.08.9-.08.78,0,1.42.56,1.42.88,0,.24-.26.38-.48.38-.1,0-.26-.02-.34-.06-1.34-.3-2.94-.32-3.7-.32-.88,0-1.78.04-2.66.1-.04.88-.04,1.6-.04,1.94,0,.4,0,.7.02,1.22.22.4.64,1.2.64,2.68,0,.82-.12,3.72-2.78,5.84-1.08.84-2,1.2-2.58,1.42l-.06-.12Zm1.1-8.34c0,1.18.98,2.18,1.82,2.18,1.1,0,1.1-1.48,1.1-1.7,0-1.6-.56-2.2-1.54-2.2-.48,0-1.38.62-1.38,1.72Z"/><path class="cls-3" d="m513.54,35.51c0-1.62,1.3-2.92,2.9-2.92s2.92,1.3,2.92,2.92-1.34,2.9-2.92,2.9-2.9-1.32-2.9-2.9Zm5.26,0c0-1.3-1.06-2.36-2.36-2.36s-2.36,1.08-2.36,2.36,1.02,2.36,2.36,2.36,2.36-1.04,2.36-2.36Z"/><rect class="cls-1" x=".52" y="2.64" width="295.4" height="43.29" rx="3.61" ry="3.61"/><path class="cls-2" d="m292.31,3.16c1.7,0,3.09,1.39,3.09,3.09v36.07c0,1.7-1.39,3.09-3.09,3.09H4.13c-1.7,0-3.09-1.39-3.09-3.09V6.25c0-1.7,1.39-3.09,3.09-3.09h288.18m0-1.04H4.13C1.86,2.11,0,3.97,0,6.25v36.07c0,2.27,1.86,4.13,4.13,4.13h288.18c2.27,0,4.13-1.86,4.13-4.13V6.25c0-2.27-1.86-4.13-4.13-4.13h0Z"/><path class="cls-2" d="m59.08,20.96c-.39,0-7.5.87-9.32,1.15-1.18.17-1.18.31-1.18,2.02,0,.67.31,3.7.31,4.31,0,.36,0,2.07-.73,2.07-.64,0-1.6-1.54-1.6-2.55,0-.31.03-.42.2-1.26.08-.42.08-1.04.08-1.26,0-1.57-.28-3.36-.9-4.45-.06-.11-.5-.67-.5-.81,0-.2.56-.42,1.01-.42.42,0,.62.11,1.46.62.2.14.42.28,1.48.28.84,0,9.02-1.04,9.74-1.34.17-.06.76-.56.9-.56.36,0,2.74,1.85,2.74,2.44,0,.25-.73,1.12-.84,1.34-.31.67-1.57,3.81-1.85,4.45-.95,2.13-3.14,6.61-7.36,9.3-.42.25-1.09.64-1.26.64-.11,0-.17-.08-.17-.17,0-.11.53-.64.84-.95,1.46-1.48,4.31-4.54,6.05-9.21.78-2.07,1.4-4.65,1.4-5.07,0-.31,0-.56-.5-.56Z"/><path class="cls-2" d="m72.94,32.18c-.73.53-2.16,1.6-2.74,2.3-.53.64-.59.7-1.01.7-1.51,0-3.58-1.79-3.58-2.91,0-.2.03-1.48.28-1.48.11,0,.73.48.84.53.36.22,1.29.64,1.9.64,1.37,0,8.79-4.96,13.44-9.55.45-.45,1.23-1.23,1.29-1.23s.14.08.14.14c0,.25-3.28,5.49-10.55,10.86Zm-2.3-9.21c-.76,0-1.04-.45-1.96-1.85-.95-1.43-1.76-1.85-2.55-2.3-.11-.06-.25-.14-.25-.25s.22-.25.62-.25c3,0,5.35,1.6,5.35,3.25,0,.84-.48,1.4-1.2,1.4Z"/><path class="cls-2" d="m97.49,21.07c-.2,0-6.08,1.37-6.22,1.43-.2.06-1.06.53-1.26.53-.42,0-1.74-.84-1.9-1.01-.2-.2-.67-1.43-.67-1.62,0-.14.03-.22.17-.22.03,0,.64.17.73.2.87.25,1.2.28,1.48.28.95,0,6.22-.45,7.67-1.04.25-.11,1.29-.87,1.54-.87.67,0,2.38,1.43,2.38,2.13,0,.25-1.04,1.01-1.2,1.2-.56.67-2.77,3.95-3.22,4.59-.11.14-.22.34-.22.56,0,.25.06.31,1.23.95,1.26.73,6.27,3.56,6.27,6.1,0,.64-.5,1.23-1.15,1.23s-.76-.2-1.74-1.93c-1.93-3.39-4.4-5.52-5.01-5.52-.28,0-.36.08-.98.78-.98,1.04-3.84,4.17-7.48,5.99-.76.36-1.51.64-1.74.64-.06,0-.2,0-.2-.17,0-.11,1.12-.92,1.29-1.04,7.31-5.29,10.64-12.54,10.56-12.99-.06-.22-.28-.22-.34-.22Z"/><path class="cls-2" d="m110.34,16.11c1.01,0,3.02.9,3.02,1.79,0,.2-.28,1.01-.34,1.18-.14.7-.25,3.19-.25,3.89,0,.62.11.7.92.9,1.71.39,6.05,2.44,6.05,4.54,0,.92-.87.98-1.01.98-.7,0-.78-.11-2.66-2.55-.78-1.04-2.1-2.35-2.97-2.35-.28,0-.39,0-.39,2.07,0,2.97.03,4.45.14,6.97.03.31.06,1.01.06,1.43,0,.7,0,2.55-.81,2.55s-1.57-1.9-1.57-2.63c0-.11.11-.7.11-.81.2-2.32.25-3.05.25-6.5,0-8.01,0-8.9-.34-9.8-.22-.59-.5-.87-.95-1.29l-.06-.11c.03-.25.76-.25.79-.25Z"/><path class="cls-2" d="m128.63,29.08c0,.78-.64,1.06-.95,1.06-.62,0-.81-.64-1.01-1.26-.25-.78-.87-1.88-1.62-2.83-.14-.2-.2-.28-.2-.36,0-.17.17-.25.36-.25.67,0,3.42,1.4,3.42,3.64Zm8.65-5.77s-.06-.17-.06-.25c0-.14.11-.2.2-.2.22,0,1.06.59,1.26.7.45.22,1.57.9,1.57,1.71,0,.22-.11.25-.59.53-.22.14-1.2,2.04-1.43,2.41-4.28,7.11-11.17,9.88-11.4,9.88-.08,0-.17-.08-.17-.17,0-.14,1.32-.98,1.57-1.18,5.96-4.56,9.24-9.83,9.24-12.24,0-.56-.06-.87-.2-1.2Zm-4.37,2.72c0,.81-.45,1.43-.95,1.43-.62,0-.76-.7-.84-1.18-.2-.9-.28-1.15-1.04-2.66-.06-.11-.31-.5-.31-.62,0-.08.14-.17.28-.14,1.32.2,2.86,1.6,2.86,3.16Z"/><path class="cls-2" d="m144.81,19.95c.5.25,1.62.59,2.32.59,1.15,0,9.35-.78,10.56-1.32.87-.39.98-.45,1.18-.45.62,0,1.06.39,1.93,1.15,1.26,1.12,1.43,1.43,1.43,1.82,0,.36-.14.5-.64,1.01-.45.42-.56.64-1.09,1.76-4.4,9.13-14.17,13.05-14.45,13.05-.14,0-.2-.11-.2-.17,0-.11.08-.17.36-.36,4.87-3.42,8.82-7.11,11.06-11.09,1.37-2.41,1.9-4.45,1.9-4.73,0-.48-.48-.5-.62-.5-.28,0-8.37,1.34-10.08,2.02-.22.08-1.18.62-1.4.62-.64,0-2.88-1.4-2.88-2.94,0-.53.08-.62.25-.62.06,0,.31.17.36.17Zm22.54-1.88c0,1.48-1.23,2.72-2.69,2.72-1.29,0-2.72-1.06-2.72-2.72,0-1.4,1.09-2.66,2.74-2.66,2.02,0,2.66,1.71,2.66,2.66Zm-4.48.08c0,1.18,1.06,1.68,1.82,1.68,1.2,0,1.74-1.04,1.74-1.71,0-1.06-1.04-1.76-1.79-1.76-.64,0-1.76.53-1.76,1.79Z"/><path class="cls-2" d="m169.09,23.5c.42.06,2.04.25,2.41.25.56,0,3-.17,3.5-.17.53-.03.84-.11.84-.78,0-.84-.17-2.41-.62-3.11-.08-.11-.53-.59-.53-.7,0-.2.84-.28.98-.28.64,0,2.52,1.32,2.52,1.88,0,.2-.48,1.01-.5,1.18-.14.31-.11.73-.11,1.01,0,.42.28.59.67.59.73,0,2.49-.11,3.19-.17.62-.06.62-.53.62-.81,0-.95,0-3.86-.2-4.56-.08-.25-.87-1.37-.87-1.43,0-.11.31-.28.64-.28.56,0,1.4.42,2.24.84.28.14.7.34.7.67,0,.2-.42.87-.48,1.01-.28.64-.28,2.38-.28,3.14,0,.9,0,1.18.67,1.18.14,0,1.23-.08,1.9-.31.92-.34,1.01-.36,1.4-.36,1.4,0,3.86.48,3.86,1.85,0,.59-.5.81-.9.81-.34,0-1.85-.34-2.16-.39-.95-.14-3.75-.2-3.81-.2-.84,0-.84.2-.92,1.82-.11,2.66-.42,5.88-2.97,9.02-1.26,1.54-2.69,2.52-2.91,2.52-.08,0-.17-.06-.17-.17,0-.03,1.4-1.82,1.62-2.18,2.21-3.28,2.72-6.41,2.72-10.02,0-.9-.45-.9-.84-.9-1.04,0-3.05.14-3.33.28-.36.2-.36.31-.36,1.51,0,.62.17,3.33.17,3.86,0,1.34-.14,1.85-.53,1.85-.67,0-1.48-1.76-1.48-2.24,0-.28.25-2.97.25-3.25,0-1.34-.17-1.51-.64-1.51-.34,0-1.99.25-3.58.67-.17.06-.81.31-.98.31-.34,0-2.77-1.23-2.77-2.32,0-.17.11-.25.2-.25.14,0,.73.14.84.17Z"/><path class="cls-2" d="m214.31,25.38c.17,0,.48-.03.62-.03,1.71,0,1.96,1.04,1.96,1.23,0,.78-1.15.87-2.32.87-.64,0-3.44-.06-4-.06-3.86,0-10.28.36-10.95.5-.34.06-1.85.5-2.18.5-1.2,0-2.49-1.74-2.49-2.69,0-.17.08-.34.22-.34s.81.31.95.34c.48.14,1.62.25,3.42.25.92,0,10.7-.36,14.78-.59Z"/><path class="cls-2" d="m223.49,18.63c.2.14.48.48.48.73s-.45,1.34-.48,1.6c-.11.98-.17,3.47-.17,4.65,0,.17.06.5.53.5.56,0,6.66-2.97,6.66-4.48,0-.17-.2-.95-.2-1.04,0-.11.2-.11.39-.11,1.9,0,2.88,1.65,2.88,2.35,0,.64-.42.73-1.23.9-.64.14-3.16,1.4-3.7,1.62-.78.34-4.93,1.82-5.07,1.9-.34.22-.34.36-.34,1.43,0,3.67.53,4.42,4.2,4.42,1.18,0,2.3-.11,4.09-.5.36-.08,1.6-.34,1.93-.34.59,0,1.12.45,1.12.98,0,2.1-5.38,2.1-7.11,2.1-5.8,0-5.94-2.49-5.94-6.47,0-1.01.08-5.4.08-6.33,0-2.3-.42-3.33-.73-3.92-.42-.78-.48-.87-.48-.92,0-.17.39-.25.64-.25.81,0,1.2.2,2.41,1.18Zm14.14,1.65c0,.34-.31,1.06-.84,1.06-.42,0-.67-.25-1.43-1.32-.31-.42-.53-.76-1.85-1.82-.11-.08-.39-.31-.39-.42,0-.14.25-.22.5-.22,2.16,0,4,1.54,4,2.72Zm2.35-2.83c0,.36-.22.84-.7.84-.59,0-.92-.36-1.48-1.01-.48-.53-1.71-1.23-2.49-1.48-.28-.08-.36-.22-.36-.31,0-.22.7-.36,1.04-.36,3.44,0,4,1.82,4,2.32Z"/><path class="cls-2" d="m249.22,21.07c-.2,0-6.08,1.37-6.21,1.43-.2.06-1.06.53-1.26.53-.42,0-1.74-.84-1.9-1.01-.2-.2-.67-1.43-.67-1.62,0-.14.03-.22.17-.22.03,0,.64.17.73.2.87.25,1.2.28,1.48.28.95,0,6.22-.45,7.67-1.04.25-.11,1.29-.87,1.54-.87.67,0,2.38,1.43,2.38,2.13,0,.25-1.04,1.01-1.2,1.2-.56.67-2.77,3.95-3.22,4.59-.11.14-.22.34-.22.56,0,.25.06.31,1.23.95,1.26.73,6.27,3.56,6.27,6.1,0,.64-.5,1.23-1.15,1.23s-.76-.2-1.74-1.93c-1.93-3.39-4.4-5.52-5.01-5.52-.28,0-.36.08-.98.78-.98,1.04-3.84,4.17-7.48,5.99-.76.36-1.51.64-1.74.64-.06,0-.2,0-.2-.17,0-.11,1.12-.92,1.29-1.04,7.31-5.29,10.64-12.54,10.56-12.99-.06-.22-.28-.22-.34-.22Z"/></svg>