<?xml version="1.0" encoding="UTF-8"?><svg id="_レイヤー_1" xmlns="http://www.w3.org/2000/svg" viewBox="0 0 308.2 126.59"><defs><style>.cls-1{fill:#99ba98;}.cls-2{fill:#eeefeb;}.cls-3{fill:none;stroke:#99ba98;stroke-miterlimit:10;stroke-width:.99px;}</style></defs><rect class="cls-2" x=".5" y=".5" width="307.21" height="125.6" rx="4.97" ry="4.97"/><rect class="cls-3" x=".5" y=".5" width="307.21" height="125.6" rx="4.97" ry="4.97"/><path class="cls-1" d="m20.92,13.31c.09.06.1.13.1.19,0,.15-.01.17-.58.38-.3.46-1.08,1.7-2.5,3.2.74-.02,1.25-.03,1.77-.09-.24-.51-.3-.62-.5-.86l.08-.09c1.56.75,1.75,1.47,1.75,1.82,0,.18-.09.63-.55.63-.42,0-.5-.39-.54-.6-.09-.43-.1-.5-.15-.64-.15.04-.78.21-.9.24,0,.93.03,4.96.03,5.79,0,.15,0,.75-.67.75-.26,0-.38-.1-.38-.38,0-.19.09-2.52.09-2.88,0-.48.03-2.64.03-3.07-.29.07-1.53.34-1.77.4-.11.15-.2.29-.36.29-.12,0-.14-.1-.17-.18l-.39-1.29c.41.12.67.2,2.24.17.58-.86,1.95-3.29,2.01-4.53l1.37.77Zm-5.51,9.93c.53-1.29.98-2.64.98-4.05,0-.3-.03-.46-.06-.61l1.3.42c.07.03.18.08.18.17,0,.1-.04.13-.42.36-.64,2.21-1.47,3.24-1.92,3.75l-.06-.03Zm.33-10.08c1.2.27,1.38.34,1.68.51.41-.93.78-1.83.83-2.97l1.36.66c.08.03.14.09.14.18,0,.2-.24.25-.54.32-.29.4-1.06,1.47-1.54,1.98.17.15.53.44.53.98,0,.39-.24.63-.55.63-.35,0-.38-.09-.75-.86-.35-.72-.87-1.09-1.19-1.32l.04-.11Zm3.51,5.49c1.25.58,1.62,1.08,1.62,1.56,0,.36-.23.69-.56.69-.43,0-.5-.33-.6-.96-.07-.42-.28-.88-.55-1.23l.09-.06Zm2.06,1.72c.03.21.12.78.12,1.21,0,1.32-.59,1.84-1.08,1.84-.2,0-.5-.18-.5-.52,0-.2.06-.27.57-.89.51-.63.77-1.32.79-1.66h.09Zm2.24-8.46c.07.04.18.09.18.23,0,.21-.15.25-.51.38-.83,1.35-1.46,2.22-2.76,3.22l-.06-.06c1.15-1.89,1.62-2.79,1.88-3.88.07-.31.06-.33.06-.46l1.22.58Zm1.17,3.81c1.05.41,2.19.87,2.19,1.8,0,.36-.24.61-.53.61s-.34-.12-.88-1.14c-.48.17-1.59.48-3.33.9-.18.27-.25.39-.38.39-.04,0-.15-.04-.2-.18l-.4-1.31c.21.04.54.14,1.29.12.42-1,.78-2.07.9-3.07l1.25.45c.09.03.18.11.18.17,0,.14-.12.18-.46.32-.63.94-.74,1.06-1.56,2.13.44,0,2.03-.12,2.59-.17-.22-.38-.34-.55-.69-.96l.03-.06Zm-1.11,3.33c.08.02.18.09.18.21,0,.2-.19.32-.38.44,0,.54-.01,1.83-.01,2.46s.06.69.97.69c.77,0,1.11,0,1.39-1.83h.09c.15,1.37.38,1.5.59,1.63.15.09.18.11.18.2,0,.9-1.35.9-1.98.9-1.62,0-2.17,0-2.17-1.4,0-.03.03-1.26.03-1.5,0-1.3-.06-1.77-.11-2.08l1.22.29Zm1.23-7.33c-.06,0-.4,0-.75.06l-.2-.46c.32.01.44.03.96.04l.52-.45s.12-.1.18-.1c.04,0,.12.07.18.13l.48.43c.06.06.13.13.13.23,0,.17-.46.34-.81.48.77,1.88,2.61,2.88,3.83,3.03v.09c-.65.09-1.33.63-1.56.97-1.2-.73-2.33-2.64-2.62-4.45h-.35Zm-.88,6.78c.87.34,1.79.69,1.79,1.58,0,.39-.26.63-.54.63-.33,0-.38-.15-.57-.72-.17-.47-.39-1.02-.74-1.41l.06-.08Zm2.8,1.39c.95.53,2.08,1.21,2.08,2.25,0,.39-.18.78-.61.78s-.51-.3-.68-1.05c-.24-1.02-.67-1.63-.85-1.89l.06-.09Z"/><path class="cls-1" d="m42.72,17.24c-2.49-1.14-4.71-3.41-5.62-5.5-2.9,4.23-5.67,5.79-7.16,6.31l-.06-.09c1.71-1.14,3.73-3.22,5.05-5.04.46-.63,1.14-1.56,1.26-2.38l1.29.57c.12.06.21.13.21.22,0,.12-.03.23-.33.36,1.04,1.63,3.64,3.75,6.76,4.26v.13c-.78.24-1.23.86-1.41,1.16Zm-2,2.38c-.03.62-.03,1.39-.01,2.04,0,.27.08,1.48.08,1.74,0,.41-.57.58-.83.58-.19,0-.34-.07-.34-.3,0-.06.01-.18.03-.38h-5.38c.02.27.04.81-.87.81-.04,0-.35,0-.35-.33,0-.13.08-.77.08-.88.08-1.37.06-2.76.06-3.02,0-.88-.06-1.38-.09-1.69l1.34.71h5.11l.39-.48c.08-.1.17-.15.23-.15.08,0,.15.04.25.13l.63.51c.06.04.19.15.19.22,0,.15-.22.3-.51.48Zm-.66-2.68h-4.5c-.27,0-1.04,0-1.75.13l-.3-.6c.93.08,1.86.11,2.31.11h2.54l.49-.62c.08-.1.15-.18.24-.18.08,0,.17.08.27.15l.79.61c.08.06.15.13.15.23,0,.15-.13.17-.24.17Zm-.42,2.32h-5.4v3.69h5.4v-3.69Z"/><path class="cls-1" d="m48.42,22.04c-.3.18-.38.25-.69.58-.12.12-.18.13-.26.13-.38,0-1.05-1.3-1.05-1.44,0-.11.24-.57.27-.66.13-.46.13-3.06.13-3.83,0-.57,0-3.36-.12-3.69-.1-.27-.38-.39-1.23-.6.42-.27.72-.43,1.05-.43.45,0,1.71.43,1.71.83,0,.13-.22.71-.25.82-.14.71-.27,5.8-.24,7.19,1.88-.62,5.33-2.78,7.89-5.45l.11.09c-2.16,3.5-4.16,4.63-7.32,6.45Z"/><path class="cls-1" d="m60.37,15.01c-.25,0-.43-.18-.91-.66-1.05-1.06-1.89-1.45-2.46-1.71,1.8-.12,3.93.53,3.93,1.77,0,.33-.25.6-.55.6Zm1.3,5.14c-.31.24-1.72,1.26-1.98,1.52-.08.08-.41.45-.48.52-.06.06-.18.09-.26.09-.52,0-1.51-1.26-1.51-1.97,0-.27.09-.49.15-.66.34.67.78.99,1.09.99.5,0,2.82-1.72,3.46-2.22,2.42-1.84,3.57-3.13,4.79-4.53l.07.04c-.36,1.09-2.04,3.67-5.34,6.21Z"/><path class="cls-1" d="m77.02,14.62c-.3.12-.4.21-.9,1.18-2.31,4.49-4.63,6.54-7.93,7.47l-.04-.1c2.01-1.16,3.81-2.66,5.16-4.51-.15-.02-.32-.15-.58-.45-1.04-1.19-1.19-1.35-1.99-1.8-.81.88-1.64,1.53-2.51,1.95l-.04-.09c1.89-1.83,3.69-4.92,3.69-5.5,0-.5-.58-.72-.88-.84.2-.09.41-.18.75-.18.86,0,1.67.73,1.67,1.05,0,.17-.03.2-.38.5-.12.12-.3.41-.41.55.11,0,.26.02.54.02.73,0,2.25-.24,2.46-.35.11-.06.53-.36.63-.36.18,0,1.17.96,1.17,1.17,0,.15-.06.17-.39.3Zm-3.93-.04c-.12,0-.29,0-.78-.29-.78,1.16-1.37,1.84-1.44,1.93.84.11,2.76.48,2.85,1.83.39-.58,1.11-1.68,1.91-3.82-.41.04-2.19.34-2.54.34Z"/><path class="cls-1" d="m82.98,14.89c-.03.35-.15,1.89-.18,2.21-.39,3.22-2.32,4.93-3.6,5.46l-.08-.09c2.77-2.61,2.77-5.85,2.77-7.11s-.01-1.24-1.15-1.54c.24-.16.57-.39.99-.39.39,0,1.41.33,1.41.75,0,.12-.15.62-.17.72Zm3.65,6.2c-.51.36-.56.42-.94.84-.08.08-.21.22-.3.22-.29,0-.96-1.23-.96-1.42,0-.1.18-.55.2-.66.13-.63.13-2.58.13-2.98,0-.55-.01-3.33-.09-3.69-.06-.27-.36-.46-1.08-.7.19-.12.5-.32.84-.32.45,0,1.62.45,1.62.9,0,.13-.18.73-.21.85-.15.76-.23,4.96-.23,5.88,0,.06,0,.25.11.25.36,0,3.07-1.72,5.43-4.72l.12.09c-1.02,2.46-3.18,4.42-4.63,5.46Z"/><path class="cls-1" d="m102.81,11.66l.53-.45c.12-.1.18-.13.22-.13.08,0,.18.06.24.11l.75.54c.09.06.15.16.15.22,0,.17-.2.31-.63.57-.03.57-.03.63-.03,2.23,0,1.14.04,6.15.04,7.17,0,.9,0,1.75-1.75,2.12-.29-1.01-1.05-1.37-1.41-1.53l.03-.12c.48.06.96.11,1.44.11.6,0,.6-.12.6-1.19,0-.3,0-1.88.01-2.1h-3.57c0,.87.02,2.19.06,3.42.02.21.02.42.02.5,0,.31,0,.92-.84.92-.45,0-.47-.32-.47-.51,0-.12.01-.5.03-.63.12-1.81.13-3.17.13-3.69h-3.31c-.2,1.25-.68,3.13-3.06,4.78l-.12-.12c2.25-2.07,2.35-5.69,2.35-9.72,0-1.52,0-1.56-.24-3.2l1.49.71h7.33Zm-7.51,3.85c0,.87-.08,2.55-.18,3.33h3.27l.03-3.33h-3.12Zm0-3.49v3.13h3.12v-3.13h-3.12Zm7.71,6.82l.02-3.33h-3.55l-.03,3.33h3.57Zm.02-3.69v-3.13s-3.55,0-3.55,0v3.13h3.55Z"/><path class="cls-1" d="m112.56,18.83c.02.66.08,3.6.08,4.2,0,.24,0,.66-.69.66-.34,0-.46-.15-.4-.82h-2.61c.01.48.01,1.08-.69,1.08-.42,0-.42-.36-.42-.52,0-.15.03-.79.03-.93.03-.71.04-1.64.04-2.69,0-1.75-.04-1.95-.13-2.43l1.32.75h2.29l.36-.41c.09-.09.16-.17.24-.17s.18.08.3.17l.59.44c.1.07.16.13.16.24,0,.09-.18.24-.46.44Zm-1-.34h-2.62v4.02h2.62v-4.02Zm5.7-6.41c-.02.21-.03.44-.03.78,0,.43.09,2.42.09,2.82,0,.68-.69.68-.74.68-.36,0-.4-.24-.38-.69h-4.83c0,.27,0,.76-.69.76-.43,0-.43-.28-.43-.45,0-.29.03-.74.04-1.02.01-.34.06-1.35.06-2.22,0-.74-.01-1.18-.16-2.07l1.35.69h4.51l.34-.39c.11-.12.2-.18.29-.18s.17.04.33.17l.57.41c.09.06.16.15.16.24,0,.13-.19.28-.49.48Zm-1.04-.36h-4.84v3.58h4.84v-3.58Zm3.25,7.08v2.15c.01.09.09,2.28.09,2.35,0,.64-.48.67-.69.67-.45,0-.46-.29-.45-1.08h-2.8c0,.53,0,.78-.08.88-.14.2-.34.29-.6.29-.46,0-.46-.29-.46-.45,0-.63.12-3.42.12-3.99,0-1.5-.09-1.82-.21-2.24l1.38.74h2.47l.38-.41c.12-.12.18-.18.27-.18s.21.08.31.17l.56.42c.09.06.17.15.17.24,0,.12-.21.29-.45.43Zm-1.05-.31h-2.8v4.05h2.8v-4.05Z"/><path class="cls-1" d="m245.78,110.61c0,2-1.62,3.61-3.61,3.61s-3.61-1.62-3.61-3.61,1.62-3.61,3.61-3.61,3.61,1.62,3.61,3.61Zm23.13-3.61c-2,0-3.61,1.62-3.61,3.61s1.62,3.61,3.61,3.61,3.61-1.62,3.61-3.61-1.62-3.61-3.61-3.61Zm9.81-41.1v38.1c0,2.39-1.37,4.47-3.37,5.5-.53-3.08-3.21-5.43-6.44-5.43-3.47,0-6.31,2.71-6.52,6.12h-13.69c-.21-3.41-3.06-6.12-6.52-6.12-3.22,0-5.9,2.34-6.44,5.4-1.96-1.04-3.3-3.11-3.3-5.47v-38.1c0-3.41,2.79-6.19,6.19-6.19h33.89c3.41,0,6.19,2.79,6.19,6.19Zm-33.63,2.73c0-.6-.49-1.08-1.08-1.08h-2.09c-.6,0-1.08.49-1.08,1.08v28.05c0,.6.49,1.08,1.08,1.08h2.09c.6,0,1.08-.49,1.08-1.08v-28.05Zm12.61,0c0-.6-.49-1.08-1.08-1.08h-2.09c-.6,0-1.08.49-1.08,1.08v28.05c0,.6.49,1.08,1.08,1.08h2.09c.6,0,1.08-.49,1.08-1.08v-28.05Zm12.61,0c0-.6-.49-1.08-1.08-1.08h-2.09c-.6,0-1.08.49-1.08,1.08v28.05c0,.6.49,1.08,1.08,1.08h2.09c.6,0,1.08-.49,1.08-1.08v-28.05Zm-18.82-34.39h-5.95c-1.39,0-2.52,1.13-2.52,2.52v3.54c0,1.17.83,2.2,1.97,2.46l.31.07v12.28h6.07v-12.29h8.38v12.29h6.07v-12.28l.31-.07c1.14-.25,1.97-1.29,1.97-2.46v-3.54c0-1.39-1.13-2.52-2.52-2.52h-3.14"/><path class="cls-1" d="m148.81,82.69c1.61-11.32,4.13-21.88,7.5-31.38,1.98-5.59,4.02-10.14,5.85-13.73-.19,0-.39,0-.58,0-26.01,0-47.72,24.9-52.86,58.07l37.99,18.72c-.02-11.08.68-21.69,2.1-31.68Z"/><path class="cls-1" d="m166.9,37.93c-1.99,3.7-4.33,8.71-6.59,15.12-4.45,12.63-9.33,33.08-9.25,61.79l64.4-9.34c-1.87-35.58-22.5-64.12-48.56-67.57Zm10.74,27.39c2.31,8.79,4.94,22.33,5.07,38.9l-19.59,2.85c0-29.42,6.29-39.68,14.51-41.75Zm8.28,38.43c-.17-15.2-2.38-27.73-4.29-35.77-.26-1.08-.51-2.1-.76-3.07.2,0,.39,0,.59,0,10.02.17,17.34,15.2,16.96,37.03l-12.5,1.82Z"/><path class="cls-1" d="m68.86,45.1v24.29h24.6c0-9.53-10.58-24.29-24.6-24.29Z"/><path class="cls-1" d="m41.99,71.75c-.25-6.61-1.99-11.56-5.18-14.73-3.38-3.36-7.17-3.37-7.33-3.37l.02,3.41h-.02c.36,0,8.49.29,9.09,14.69h-.03v12.68c0,3.49,2.85,6.34,6.34,6.34h6.75l9.53,4.23-6.97,3.09c-.94-.55-2.02-.86-3.18-.86-3.49,0-6.33,2.84-6.33,6.33s2.84,6.33,6.33,6.33,6.33-2.84,6.33-6.33c0-.81-.16-1.59-.44-2.31l9.18-4.07,9.18,4.07c-.28.72-.44,1.49-.44,2.31,0,3.49,2.84,6.33,6.33,6.33s6.33-2.84,6.33-6.33-2.84-6.33-6.33-6.33c-1.16,0-2.25.31-3.18.86l-6.97-3.09,9.53-4.23h6.75c3.49,0,6.34-2.85,6.34-6.34v-12.68h-51.64Zm9.02,34.03c-1.22,0-2.21-.99-2.21-2.21s.99-2.21,2.21-2.21,2.21.99,2.21,2.21-.99,2.21-2.21,2.21Zm30.16-4.42c1.22,0,2.21.99,2.21,2.21s-.99,2.21-2.21,2.21-2.21-.99-2.21-2.21.99-2.21,2.21-2.21Zm-15.08-8.54l-4.6-2.04h9.2l-4.6,2.04Z"/></svg>