<?xml version="1.0" encoding="UTF-8"?><svg id="_レイヤー_1" xmlns="http://www.w3.org/2000/svg" viewBox="0 0 288.56 56.43"><defs><style>.cls-1{fill:#fff;}</style></defs><path class="cls-1" d="m11.81,10.27c-.97-.33-1.74-.86-2.22-1.25-.05.03-.06.04-.12.08,0,.42.05,2.3.05,2.69,0,.42-.43.52-.59.52-.34,0-.32-.18-.31-.53h-3.87c0,.21,0,.55-.59.55-.32,0-.32-.19-.32-.4,0-.46.04-2.47.04-2.89-.97.73-2.07,1.29-3.24,1.56l-.03-.08c1.48-.81,2.86-1.81,3.98-3.08h-1.98c-.32,0-.95.01-1.53.12l-.26-.51c.88.06,1.82.08,2,.08h2.04c.48-.57.66-.87.84-1.18h-1.62c.01.43-.31.55-.61.55-.23,0-.29-.09-.29-.29,0-.23.03-1.27.03-1.5,0-1.43-.07-1.68-.12-1.91l1.1.52h5.04l.22-.23c.12-.12.18-.18.23-.18s.13.06.18.09l.51.34c.08.05.13.16.13.22,0,.1-.04.14-.31.39,0,.33.05,1.75.05,2.04,0,.35-.43.46-.62.46-.27,0-.27-.16-.26-.49h-2.9l.31.16c.06.03.09.1.09.17,0,.13-.09.17-.43.29-.2.23-.3.36-.49.57h4.78l.56-.64c.09-.09.14-.17.2-.17.09,0,.18.09.25.14l.73.64c.08.08.13.12.13.21,0,.12-.12.13-.21.13h-3.97c1.46,1.35,3.06,1.66,4.29,1.79v.08c-.52.21-.81.75-.91.96Zm.3-8.24h-3.63c0,.1.01.56.01.65,0,.26-.3.38-.59.38q-.31,0-.3-1.03h-2.2c0,.2.01.73-.05.82-.1.13-.37.22-.56.22-.26,0-.26-.18-.26-.38v-.66h-1.65c-.13,0-.94,0-1.53.12l-.26-.52c.87.08,1.75.09,2,.09h1.44c-.01-.78-.04-.91-.17-1.33l1.14.29c.08.03.18.05.18.17,0,.1-.08.16-.29.29v.58h2.18c-.01-.81-.05-.95-.14-1.29l1.14.27c.09.03.2.04.2.16s-.1.19-.33.33v.53h2.08l.48-.58c.08-.09.13-.16.21-.16s.18.08.25.13l.69.58c.07.05.13.1.13.19,0,.12-.1.14-.2.14Zm-2.73,1.6h-5.29v.82h5.29v-.82Zm0,1.13h-5.29v.87h5.29v-.87Zm-1.24,2.68h-2.47c-.43.44-.69.7-1.01.97l.04.03h3.9l.17-.17c-.26-.27-.44-.52-.62-.83Zm.48,1.31h-3.87v1.18h3.87v-1.18Zm0,1.5h-3.87v1.22h3.87v-1.22Z"/><path class="cls-1" d="m17.2,11.53v-.08c1.08-.17,2.11-.55,3.05-1.07.92-.49,1.69-1.12,1.69-2.22,0-.35-.08-1.66-1.64-1.66s-3.21,1.04-4.25,2.61c-.07.1-.16.23-.33.23-.48,0-.69-.77-.69-1.04,0-.21.03-.29.17-.94.13-.6.23-2.17.23-2.73,0-1.18,0-1.86,2.25-2.21.08-.01.12-.03.12-.09s-.04-.09-.35-.3c-.36-.25-.82-.78-.81-1.29.56.46.66.49,1.87,1,.29.12,1.01.42,1.01,1.2,0,.29-.1.4-.27.4-.18,0-.3-.07-.6-.21-.23-.1-.78-.22-1.35-.22-.99,0-1.4.31-1.4.69,0,.13.03.21.29.86.06.18.09.36.09.46,0,.13-.16.65-.18.77-.06.27-.27,1.17-.27,1.77,0,.08.01.3.17.3.08,0,.88-.58,1.05-.69,1.3-.79,2.59-1.04,3.35-1.04,1.78,0,2.54,1.25,2.54,2.26,0,2.14-2.65,3.42-5.75,3.24Z"/><path class="cls-1" d="m29.14,11.66c-2.2,0-2.55-1.01-2.55-3.31,0-.66.16-4.89.16-5.58,0-1.01-.25-1.11-1.05-1.38.3-.33.81-.33.86-.33.64,0,1.42.62,1.42,1,0,.12-.13.62-.16.73-.44,2.24-.48,5.46-.48,5.93,0,1.47,0,2.2,1.43,2.2,1.53,0,4.59-1.33,5.76-2.43l.05.05c-1.03,1.92-3.3,3.12-5.43,3.12Z"/><path class="cls-1" d="m38.94,7.7c-.16.65-.46,1.9-.46,2.48,0,.14.06.77.06.9,0,.22-.03.48-.34.48-.53,0-1.38-1.2-1.38-3.83,0-.94.29-2.69.51-4.03.04-.25.08-.58.08-.87,0-.46-.06-.79-.44-1.26.06-.03.12-.05.23-.05.47,0,1.31.73,1.31,1.24,0,.12-.03.23-.17.61-.51,1.3-.91,2.67-.91,4.08,0,.9.22,1.9.43,1.9.08,0,.14-.16.17-.25.14-.44.69-1.95,1.16-2.95l.1.03c-.08.36-.26,1.12-.36,1.53Zm6.25,2.73c-.31,0-2.05-.01-3.18-.36-.78-.25-1.31-1-1.31-1.77,0-.3.07-.42.13-.55.3.99.53,1.74,2.99,1.74.26,0,1.52-.1,1.65-.1.46,0,1,.19,1,.56,0,.42-.46.48-1.27.48Zm-.1-6.88c-1.26.22-2.08.65-2.51.96l-.08-.08c.19-.18,1.14-1.05,1.18-1.09s.04-.06.04-.1c0-.14-.4-.14-.48-.14-.52,0-1.38.21-2.37.59.7-.94,2.01-1.27,3.22-1.27.81,0,1.73.23,1.73.69,0,.3-.27.38-.74.46Z"/><path class="cls-1" d="m50.89,1.48c-.56,1.17-.84,1.69-1.07,2.09l.47.2c.12.05.21.09.21.21,0,.16-.12.25-.38.43-.03.81-.03,3.08-.03,4.02,0,.51.08,2.74.08,3.2,0,.26,0,.77-.73.77-.36,0-.36-.33-.36-.46,0-.38.13-2.44.14-2.91.03-.51.12-3.28.09-4.56-.38.61-1.08,1.77-2.39,2.69l-.08-.05c1.53-1.96,2.82-5.27,2.98-5.82.1-.36.1-.65.09-.95l1.22.66c.17.09.22.16.22.22,0,.14-.18.2-.47.27Zm7.38,10.67c-2.03-.35-3.51-1.2-4.45-2.01-1.22,1.33-2.72,1.69-3.37,1.85l-.04-.12c1.42-.62,2.44-1.6,2.89-2.22-.23-.25-.69-.77-1.08-1.59l.09-.05c.3.35.64.74,1.25,1.22.39-.69.43-1.17.48-1.78h-1.74c0,.27,0,.64-.65.64-.25,0-.31-.1-.31-.39,0-.05,0-.08.03-.39.04-.38.04-1.24.04-1.66,0-1.56,0-1.74-.16-2.65l1.25.58h1.61v-1.6h-1.16c-.33,0-.95.01-1.53.12l-.26-.52c.88.08,1.81.09,2,.09h3.8l.57-.6c.07-.08.16-.17.2-.17.08,0,.16.06.25.14l.74.6c.07.05.13.1.13.19,0,.12-.1.14-.2.14h-3.65v1.6h1.61l.39-.38c.05-.05.14-.13.21-.13.05,0,.12.05.18.1l.56.42c.09.07.17.13.17.21,0,.12-.05.16-.46.44-.01.42.01,1.11.03,1.53,0,.29.07,1.56.07,1.82,0,.47-.52.53-.64.53-.35,0-.34-.16-.33-.68h-1.87c-.04.52-.14,1.35-.73,2.24,1.68,1.08,3.43,1.26,4.48,1.26.23,0,.38-.01.59-.03l.04.09c-.6.3-.85.74-1.03,1.14Zm-4.16-8.27h-1.81v1.44h1.81v-1.44Zm-1.81,1.75v1.5h1.75c.03-.36.04-1.27.05-1.5h-1.81Zm4.5,0h-1.82s.01.96-.04,1.5h1.86v-1.5Zm0-1.75h-1.81v1.44h1.81v-1.44Z"/><path class="cls-1" d="m65.09,4.39l.44-.6c.07-.09.14-.17.21-.17.08,0,.18.09.25.14l.66.58c.08.06.13.13.13.21,0,.13-.12.14-.2.14h-2.56c0,.26.01.56.01.82.56.23,2.12,1.11,2.12,2.03,0,.26-.14.66-.56.66-.22,0-.35-.08-.57-.7-.18-.51-.57-1.26-.99-1.69.01.81.04,4.36.05,5.07,0,.13.04.7.04.82,0,.4-.46.57-.74.57-.21,0-.32-.16-.32-.36s.08-1.14.09-1.33c.03-.78.05-2.28.07-4.36-.71,1.3-1.99,2.72-3.28,3.45l-.05-.07c1.29-1.36,2.59-3.58,3.13-4.91h-1.05c-.23,0-.88,0-1.52.12l-.26-.52c.96.08,1.81.09,2,.09h1.03v-2.05c-1.44.3-2.41.34-2.87.35v-.08c1.64-.4,3.07-.94,4.12-1.47.33-.17.55-.34.65-.53l.94.87c.05.04.1.1.1.17,0,.09-.08.16-.2.16-.08,0-.42-.04-.62-.07-.43.17-.79.29-1.31.42v2.24h1.07Zm3.43-2.25c.05.01.22.09.22.19,0,.09-.04.12-.4.46-.01.25-.01.51-.01.95,0,1.21.07,3.73.08,4.6,0,.17.01.39.01.49,0,.52-.51.66-.68.66-.23,0-.33-.12-.33-.33,0-.08.01-.2.01-.26.09-.9.08-3.47.08-4.51,0-1.72-.01-2-.21-2.68l1.22.42Zm2.81-.9c.09.03.2.07.2.2,0,.1-.05.14-.44.43-.03.88,0,4.41.03,5.42.03.99.06,2.81.06,2.98,0,.69,0,1.53-1.86,1.79-.05-.34-.12-.81-1.17-1.29v-.06c.3.03,1.16.08,1.47.08.64,0,.64-.18.64-.75,0-1.48-.05-6.7-.08-7.89-.01-.73-.1-1.04-.2-1.34l1.35.44Z"/><path class="cls-1" d="m82.5,2.89c-1.66,0-2.16,0-3.03.52-1.21.71-2.2,2.39-2.2,3.87,0,2.17,2.29,2.68,3.46,2.94.2.04.74.16.74.71,0,.34-.33.36-.49.36-1.34,0-4.34-.99-4.34-3.85,0-.56.1-1.68,1.07-2.91.36-.47.68-.74,1.79-1.62-1.38.18-4.16,1.14-4.6,1.39-.56.32-.62.35-.83.35-.33,0-.95-.39-.95-1.14,0-.34.09-.51.18-.66.25.39.44.69,1.01.69.26,0,.6-.06,1.91-.38,1.55-.38,4.04-.94,5.59-1.31.13-.03.31-.06.42-.06.2,0,1.04.25,1.04.69,0,.42-.4.42-.77.42Zm-.36,3.3c-.22,0-.26-.05-.57-.6-.26-.45-.6-.81-1.22-1.43.87.18,2.14.75,2.14,1.57,0,.22-.08.46-.35.46Zm1.52-.6c-.2,0-.23-.06-.61-.64-.31-.46-.9-.94-1.33-1.25.83.08,2.29.61,2.29,1.47,0,.36-.27.42-.35.42Z"/><path class="cls-1" d="m94.09,6.75c.09.05.16.1.16.18,0,.14-.13.22-.58.29-.23.6-.6,1.44-1.37,2.4,1.56.48,3.45,1.39,3.45,2.21,0,.1-.09.55-.49.55-.26,0-.46-.18-.7-.4-.58-.52-1.73-1.31-2.76-1.79-1.17,1.14-2.38,1.56-3.21,1.78-1.29.34-2.22.32-2.76.31v-.09c1.89-.33,3.71-1.05,5.1-2.37-.36-.14-1.04-.38-2.2-.58-.29.64-.36.83-.84.83-.33,0-.49-.17-.49-.36,0-.13.06-.25.14-.36.3-.44,1.13-2.22,1.48-2.99h-2.04c-.33,0-.95.01-1.52.13l-.26-.52c.88.08,1.81.08,2,.08h1.96c.26-.6.77-1.78.83-2.29.03-.17.01-.3.01-.39l1.17.51c.08.04.2.08.2.21,0,.14-.13.22-.47.27-.1.25-.51,1.13-.75,1.69h5.01l.57-.68c.07-.08.1-.16.2-.16.08,0,.13.04.25.13l.91.69s.13.1.13.2c0,.12-.1.13-.2.13h-3.59l.68.4Zm.58-4.39l.53-.44c.09-.07.16-.12.25-.12s.19.09.25.14l.78.87c.08.08.12.17.12.29,0,.21-.21.23-.35.23-.12,0-.25-.01-.48-.04-.25.12-1.3.69-1.52.78l-.04-.04c.22-.44.4-.9.55-1.37h-7.49c.03,1.08-.65,2-1.35,2-.33,0-.53-.25-.53-.55,0-.35.22-.51.47-.68.52-.36,1.13-1.03,1.18-1.75h.1c.09.44.1.49.12.66h3.38c-.01-.91-.01-1.3-.31-2.02l1.51.38c.07.01.19.07.19.18,0,.13-.1.21-.46.39,0,.17-.01.91-.01,1.07h3.12Zm-4.68,3.99c-.13.29-.92,2.11-1.2,2.72.7.01,1.55.08,2.55.3.42-.46,1.17-1.42,1.44-3.02h-2.79Z"/><path class="cls-1" d="m99.29,8.5c-.25.57-.77.81-1.08.81-.29,0-.57-.23-.57-.6,0-.25.04-.29.47-.7.33-.31,1.2-1.27,1.26-2.46l.09-.03c.19.47.19.87.19,1.07,0,.05,0,1.05-.36,1.91Zm6.79,3.13c-.53.23-1.44.23-2.25.23-1.79,0-2.34,0-2.48-.9-.05-.35-.05-1.69-.05-2.54v-4.13c0-.74-.06-.91-.18-1.25l1.38.43c.1.03.25.08.25.2,0,.14-.14.21-.48.35-.01.64-.04,4.78-.04,5.25,0,1.34,0,1.46.23,1.57.17.08.42.1,1.04.1,1.25,0,1.61-.05,1.82-.44.25-.47.48-1.57.52-1.81h.08c.05.27.2,1.43.3,1.65.1.2.16.25.39.43.06.05.08.09.08.18,0,.13-.1.46-.6.66Zm-1.74-8.49c-.44,0-.52-.3-.77-1-.31-.92-.69-1.34-.88-1.55l.05-.08c2.18.61,2.18,1.82,2.18,1.99,0,.22-.14.64-.58.64Zm4.48,5.84c-.44,0-.58-.38-.82-1.07-.14-.45-.69-1.65-1.62-2.48l.05-.09c1.31.48,2.99,1.72,2.99,2.94,0,.23-.14.7-.6.7Z"/><path class="cls-1" d="m117.35,3.17c-.21.1-1.22.39-2.69.74-.34.68-1.75,3.69-2.09,4.28-.3.51-.57.99-.83.99-.09,0-.36-.05-.36-.49,0-.36.18-.6.31-.78.94-1.24,1.77-2.95,2.16-3.8-.29.06-.68.17-1.17.17-.77,0-1.42-.4-1.31-1.18.31.44.74.52,1.26.52.47,0,1-.09,1.52-.21.3-.74.54-1.38.54-1.65,0-.14-.08-.46-.77-.64.2-.17.38-.26.64-.26.51,0,1.3.55,1.3.88q0,.13-.33.6c-.18.26-.29.44-.48.82.26-.09.7-.25.97-.38.57-.26.64-.3.79-.3.17,0,.74.18.74.43,0,.13-.1.21-.21.26Zm3.25,3.24c-.08,0-.22-.01-.46-.14-.44-.23-.6-.33-1.11-.33-1.37,0-1.56.74-1.56,1.35,0,.75.14,1.48.22,1.89,1.04.22,2.47.77,2.47,1.61,0,.19-.13.43-.36.43-.16,0-.68-.36-1-.6-.52-.36-.75-.46-1.01-.55-.01.27-.04.82-.49,1.24-.53.49-1.27.55-1.57.55-1.08,0-2.02-.58-2.02-1.39,0-.98,1.18-1.44,2.44-1.44.29,0,.48.03.68.04-.04-.46-.09-1.07-.09-1.37,0-1.43,1.38-1.99,2.28-2.16.1-.03.22-.05.22-.21,0-.17-.47-.65-1.78-.99.2-.06.44-.13.83-.13,1.61,0,2.65,1.21,2.65,1.82,0,.23-.13.38-.34.38Zm-4.69,3.24c-.49,0-1.7.1-1.7.81,0,.55.83.69,1.27.69s1.44-.12,1.4-1.37c-.25-.06-.46-.13-.97-.13Z"/><path class="cls-1" d="m125.62,11.82c-.42,0-.52-.34-.65-.77-.08-.27-.46-1.5-1.7-2.5l.04-.12c.91.3,1.44.51,2.07,1.03.22.19.88.82.88,1.6,0,.36-.23.75-.64.75Z"/><path class="cls-1" d="m141.61,6.97c-.6.16-1.07.62-1.23,1.22-2.55-.65-4.2-1.96-4.71-2.46-.25.22-1.29,1.12-2.67,1.87l.66.38h3.88l.3-.29c.09-.08.16-.14.22-.14.05,0,.13.05.23.13l.6.44c.06.04.13.12.13.17,0,.14-.17.26-.39.42-.01.55-.03.74-.01,1.14,0,.29.09,1.65.09,1.81,0,.21,0,.79-.64.79-.31,0-.36-.21-.36-.62h-4.16c-.01.22-.03.65-.68.65-.3,0-.34-.17-.34-.34,0-.01.01-.04.04-.38.05-.57.08-1.94.08-2.77,0-.36,0-.68-.04-1.18-.69.35-1.74.81-3.13,1.07l-.03-.09c2.08-.88,4.02-2.11,5.66-3.65-.39-.48-1.07-1.39-1.44-2.5-1.2,1.64-1.6,2.17-3.02,2.9l-.08-.09c1.51-1.42,2.95-4.04,3.19-4.78.08-.23.08-.42.06-.66l1.29.79c.06.04.14.13.14.21,0,.1-.06.21-.55.22-.14.19-.46.62-.69.94h3.17l.56-.48c.13-.12.22-.18.3-.18.07,0,.16.05.29.17l.69.58c.07.05.12.14.12.22,0,.26-.27.29-.84.34-.69.86-1.59,1.96-2.15,2.48.87.68,2.52,1.52,5.47,1.6v.08Zm-3.91,1.33h-4.13v3.22h4.13v-3.22Zm-3.9-5.82c.32.68.82,1.4,1.7,2.26.78-.82,1.13-1.37,1.72-2.26h-3.42Z"/><path class="cls-1" d="m146.81,1.5c-.08,0-.17-.01-.36-.08-.3.12-.57.21-1.07.31,0,.62-.01,1.61-.01,2.22h.22l.32-.43c.08-.1.13-.16.21-.16s.14.04.23.12l.53.44c.07.05.13.13.13.21s-.08.13-.2.13h-1.46c-.01.19-.01.26-.01.81.88.33,1.64.88,1.64,1.46,0,.29-.18.56-.47.56s-.43-.26-.62-.81c-.29-.81-.39-.94-.55-1.08,0,1.55-.03,4.03-.03,5.58,0,.39.01,1.07-.01,1.14-.08.31-.47.4-.65.4-.36,0-.36-.26-.36-.46,0-.1.18-3.5.18-3.61,0-.3.03-1.64.03-1.91-.61,1.12-1.7,2.44-2.44,2.94l-.07-.05c1.07-1.52,2.17-4,2.43-4.97h-.26c-.2,0-.91,0-1.53.12l-.26-.52c.77.06,1.56.09,2.16.09V1.9c-1.04.19-1.74.21-2.09.21v-.1c.62-.14,2.91-1.03,3.38-1.42.08-.08.22-.26.25-.35l.9.84c.07.07.12.14.12.23,0,.14-.13.18-.27.18Zm7.4,10.14h-6.55c-.32,0-.95,0-1.53.12l-.26-.52c.81.07,1.61.09,2,.09h1.96v-1.39h-1.08c-.32,0-.95.01-1.53.12l-.26-.52c.88.08,1.81.09,2,.09h.87v-1.42h-1.39c0,.16,0,.57-.56.57-.22,0-.35-.09-.35-.31,0-.12.03-.65.03-.75.01-.48.03-.97.03-1.46,0-1.68-.05-2.01-.13-2.42l1.08.57h1.3v-1.25h-1.33c-.33,0-.95.01-1.52.12l-.26-.52c.88.08,1.81.09,1.99.09h1.12v-1.17c-.46.07-1.81.22-2.55.16v-.08c.68-.1,2.18-.49,3.45-1.01.52-.22.68-.34.87-.56l.86.77c.08.06.12.14.12.22,0,.07-.1.16-.23.16-.16,0-.25-.01-.38-.05-.27.08-.44.13-1.3.29v1.29h1.91l.42-.52c.08-.1.14-.14.21-.14.09,0,.16.05.23.13l.55.51c.08.07.13.14.13.22,0,.09-.08.12-.19.12h-3.25v1.25h1.27l.31-.33c.09-.09.16-.14.22-.14.05,0,.13.04.23.12l.48.39c.09.08.14.13.14.22s-.21.27-.4.4c0,.47.05,2.5.05,2.91,0,.56-.47.58-.61.58-.33,0-.33-.18-.31-.36h-1.39v1.42h1.21l.42-.48c.09-.1.16-.14.21-.14.07,0,.16.07.23.13l.53.47c.06.05.13.14.13.21,0,.09-.09.13-.2.13h-2.53v1.39h1.99l.47-.58c.09-.12.14-.14.19-.14.07,0,.14.04.25.13l.71.56c.08.05.13.12.13.21,0,.12-.12.14-.2.14Zm-4.38-6.92h-1.39v1.4h1.39v-1.4Zm0,1.72h-1.39v1.46h1.39v-1.46Zm2.22-1.72h-1.39v1.4h1.39v-1.4Zm0,1.72h-1.39v1.46h1.39v-1.46Z"/><path class="cls-1" d="m165.83,5.24c-.1,0-1.33-.2-1.59-.22-.73-.08-1.16-.08-1.5-.08,0,2.81-.13,5.1-3.02,6.89l-.09-.09c2.15-2.17,2.18-4.11,2.24-6.77-.34.01-1.36.05-2.72.27,0,.4.05,2.18.05,2.55s0,.75-.36.75-.55-.69-.55-.91c0-.14.08-.74.08-.86,0-.22.01-1.2.01-1.39-.49.1-1.39.29-1.77.45-.26.12-.29.13-.35.13-.46,0-.99-.82-.99-1.31,0-.2.03-.36.1-.53.51.68.58.78,1.13.78.2,0,1.57-.17,1.87-.2,0-.44-.03-1.9-.2-2.24-.12-.23-.35-.31-.9-.47.29-.19.49-.31.79-.31.34,0,1.25.34,1.25.68,0,.08-.1.39-.12.46-.1.43-.09.91-.08,1.81.91-.09,1.98-.21,2.74-.26,0-1.92,0-2.14-.08-2.39-.12-.39-.85-.51-1.05-.55.32-.19.53-.32.82-.32.38,0,1.44.26,1.44.7,0,.09-.12.51-.13.6-.09.49-.12,1.26-.13,1.92.53-.01,1.33-.05,1.61-.1.09-.01.46-.16.53-.16.21,0,.68.16,1.08.44.14.1.19.18.19.36,0,.36-.22.36-.35.36Z"/><path class="cls-1" d="m177.24,6.81c-.12,0-.43-.03-.46-.03-.47-.04-.6-.05-1.47-.05-3.97,0-5.14.08-5.72.23-.04.01-.46.12-.49.12-.34,0-1.04-.83-1.04-1.43,0-.08.01-.33.16-.62.44.99.84.99,2.2.99.9,0,5.12-.01,5.72-.16.08-.01.46-.12.53-.12s1.38.14,1.38.65c0,.4-.65.42-.81.42Z"/><path class="cls-1" d="m187.75,10.44c-.98.17-2.64.18-3.02.18-3.48,0-3.55-.84-3.55-3.29,0-.53.05-2.91.05-3.39,0-1.08,0-1.37-1.07-1.77.38-.25.44-.3.62-.3.49,0,1.65.47,1.65.91,0,.1-.22.46-.25.53-.07.22-.19,2.78-.22,3.2,2.03-.65,4.45-2.39,4.45-2.73,0-.16-.39-.47-.55-.6.13-.03.2-.04.3-.04.86,0,1.66.86,1.66,1.25,0,.19-.06.21-.6.36-.16.05-.25.08-.4.16-3.08,1.48-3.41,1.65-4.88,1.89-.01.27-.01.55-.01.99,0,1.64,0,2.07,2.42,2.07,1.26,0,1.87-.2,2.35-.34.34-.1.43-.1.55-.1.31,0,1.12.07,1.12.55,0,.34-.44.44-.64.48Zm.47-7.46c-.17,0-.21-.05-.58-.48-.46-.52-1.09-.92-1.42-1.14,1.25.1,2.31.51,2.31,1.18,0,.21-.13.44-.31.44Zm1.34-.74c-.14,0-.21-.05-.81-.6-.54-.48-.83-.68-1.35-.91.16-.01.18-.03.29-.03.46,0,2.17.27,2.17,1.12,0,.2-.12.42-.3.42Z"/><path class="cls-1" d="m199.82,10.76c-.27,0-.42-.22-.53-.42-1.04-1.72-1.76-2.57-2.91-3.43-2.31,2.91-4.52,3.73-5.75,3.98v-.1c3-1.33,6.17-5.3,6.89-7.72-.49.06-2.65.47-3.35.74-.12.05-.6.31-.7.31-.2,0-.91-.64-.91-1.31,0-.26.05-.43.12-.56.49.78.71.79.97.79.36,0,3.19-.27,3.72-.58.09-.05.49-.36.6-.36.14,0,1.11.82,1.11,1.04,0,.14-.09.17-.51.33-.09.04-.1.07-.27.38-.57,1.11-.9,1.74-1.73,2.86,1.56.69,3.72,2.24,3.72,3.46,0,.35-.14.61-.46.61Z"/><path class="cls-1" d="m210.21,10.87c-1.86,0-2.33-1.27-2.48-1.72h.07c.26.31.78.96,2,.96.98,0,2.07-.49,2.07-1.79,0-1.48-1.44-1.66-1.9-1.66-1.2,0-2.33.46-3.34,1.09.03.39.14,2.15.14,2.51,0,.87-.48,1.43-.73,1.43-.14,0-.25-.14-.52-.53-.33-.44-.97-1-1.2-1.17-.48.66-.53.74-.69.74-.14,0-.99-.17-.99-1.09,0-.17.01-.29.04-.4.31.3.39.38.56.38.09,0,.13-.03.34-.18,1.39-1.04,1.64-1.24,2.37-1.72-.03-1.68-.03-1.87-.01-2.55-.35.12-.79.26-1.26.26s-1.12-.25-1.26-1.04c.38.25.55.35,1.07.35.46,0,.96-.16,1.47-.34,0-.23.03-.9.03-1.12.01-.34,0-1.17-.09-1.39-.09-.22-.16-.25-.79-.6.31-.22.66-.22.74-.22.42,0,1.3.34,1.3.77,0,.09-.2.68-.21.73-.14.42-.23,1.34-.26,1.55.52-.22.73-.35.88-.47.26-.2.34-.25.61-.25.32,0,.57.18.57.38,0,.27-.08.31-.85.62-.55.22-.92.38-1.27.51-.04.65-.05,1.12-.05,1.3,0,.26,0,.34.04,1.08,1.24-.74,2.61-1.17,3.73-1.17,1.21,0,2.57.65,2.57,2.25,0,1.44-1.16,2.51-2.69,2.51Zm-4.24-1.91c-.01-.31-.01-.53-.01-.73-.68.53-1.13,1.05-1.57,1.66.25.12,1.1.49,1.35.49s.25-.08.25-.81c0-.08-.01-.52-.01-.62Zm6.71-3.85c-.17,0-.22-.01-.66-.22-.08-.04-.18-.04-.26-.04-.27,0-.49.04-1.18.21v-.05c1.09-.75,1.09-.82,1.09-.97,0-.27-.48-.74-1.83-1.12.27-.12.53-.14.87-.14,1.56,0,2.33,1.1,2.33,1.91,0,.1,0,.43-.35.43Z"/><path class="cls-1" d="m225.75,11.77c-1.3-.66-2.16-1.68-2.72-2.6-1.17,1.51-2.42,2.07-3.03,2.3.01.47.01.94-.66.94-.4,0-.4-.25-.4-.49,0-.21.07-1.27.08-1.52,0-.25.01-1.56.01-1.86-.66.34-2.4,1.11-3.39,1.39-.1.32-.18.43-.31.43-.12,0-.18-.09-.23-.22l-.49-1.27c.38.06.43.08.58.08.29,0,.87-.09,1.03-.12V1.62c-.75.04-.98.08-1.2.12l-.26-.52c1.03.09,1.99.09,2,.09h3.43l.56-.61c.1-.12.16-.16.22-.16.08,0,.14.04.26.14l.65.6c.06.05.12.16.12.21,0,.1-.08.13-.2.13h-1.86c-.03,4.93-.04,5.47.07,9.69.86-.49,1.83-1.57,2.6-2.94-.81-1.77-1.2-3.69-1.22-5.63-.4.03-.51.05-.66.09l-.26-.52c1.01.08,1.98.08,1.99.08h1.79l.37-.42c.12-.13.16-.17.22-.17.08,0,.14.04.27.14l.6.46c.1.08.18.18.18.23,0,.09,0,.14-.12.22-.23.17-.42.29-.58.36-.51,3-1.42,4.82-1.69,5.25.62.83,1.62,1.77,3.41,2.34v.07c-.49.14-.83.4-1.14.88Zm-6.72-10.14h-1.92v2.08h1.92V1.62Zm0,2.39h-1.92v2.11h1.92v-2.11Zm0,2.42h-1.92v2.24c.68-.13,1.64-.3,1.92-.38v-1.86Zm3.21-3.73c-.12,0-.34.01-.6.03.21,1.66.57,3.37,1.34,4.91,1.07-2.28,1.22-4.26,1.26-4.94h-2Z"/><path class="cls-1" d="m232.43,11.25c-.43.39-1.25,1.01-1.85,1.14l-.03-.07c2.25-1.62,2.91-4.13,2.91-6.46,0-.86-.05-3.22-1.03-3.22-.52,0-.88.53-1,.7-.52.75-1.38,2.74-1.38,4.3,0,.14.09.81.09.94,0,.14-.05.36-.31.36-.77,0-1-1.52-1-2.69,0-.99.27-2.7.46-3.76.01-.06.05-.31.05-.49,0-.7-.48-1-.75-1.18.12-.03.34-.09.58-.09.6,0,1.14.48,1.14.94,0,.21-.08.38-.16.57-.4.94-.73,2.25-.73,3.48,0,.19,0,.94.13.94.08,0,.1-.06.12-.13.3-1.07,1.42-4.39,2.95-4.39,1.62,0,1.79,2.55,1.79,3.85,0,2.39-.55,3.94-2,5.26Z"/><path class="cls-1" d="m241.41,2.74c-.04.09-.14.36-1.09,2.81-.17.45-1.12,2.4-1.25,2.82-.01.07-.05.2-.05.34,0,.29.13.57.27.9.08.16.22.49.22.91,0,.6-.35.71-.61.71-.68,0-.68-.69-.68-1.29,0-.99,0-1.26-.26-1.56-.08-.09-.48-.33-.64-.42v-.07c.21,0,.82-.01,1.24-.55.6-.75,2.57-4.32,2.74-4.67l.1.05Zm-3.74-1.37c1.26.27,2.46,1.04,2.46,1.9,0,.38-.27.62-.56.62-.35,0-.44-.2-.75-.87-.17-.35-.58-1.11-1.17-1.59l.03-.07Zm11.58,9.74c-.79.23-1.08.31-1.42.95-1.05-.75-1.92-1.85-2.47-3.04-.57-1.22-.64-1.86-.95-4.69-.26,2.54-.43,4.26-2.02,5.92-1.26,1.3-2.73,1.74-3.48,1.95l-.04-.09c2.55-1.35,4.56-3.35,4.76-8.15h-.82c-.51.92-1.4,2.25-2.3,2.9l-.1-.08c1.1-1.39,2.69-5.13,2.65-6.41l1.29.61c.12.05.17.1.17.19,0,.14-.06.16-.58.33-.18.51-.46,1.2-.95,2.15h3.9l.44-.46c.05-.07.1-.09.17-.09.05,0,.12.03.18.09l.88.78c.07.07.1.12.1.2,0,.26-.4.3-.77.33-.17.16-1.54,1.21-1.91,1.48l-.08-.05c.27-.4.82-1.61.98-1.96h-2.24c.18,4.72,3.15,6.76,4.6,7.1v.06Z"/><path class="cls-1" d="m258.11,9.48c-.1,0-.14-.03-.55-.3-1-.68-2.7-.94-3.5-.94-.57,0-2.13.07-2.13,1.35,0,1.44,2.33,1.47,2.66,1.47.56,0,1.01-.05,1.16-.07.36-.05.42-.06.56-.06.35,0,.82.13.82.52,0,.34-.06.48-1.79.48s-2.95-.39-3.45-.88c-.21-.21-.53-.64-.53-1.27,0-1.92,2.34-1.92,3.08-1.92s1.96.13,2.7.3h.08s.1,0,.1-.09c0-.08-1.33-1.87-1.57-2.24-1.29.46-2.16.68-2.85.68-.17,0-1.34,0-1.72-.99.49.21.98.36,1.57.36.52,0,1.47-.14,2.61-.62-.47-.73-.57-.96-.84-1.53-.88.29-1.17.39-1.66.39-.43,0-1.26-.17-1.6-.83.26.1.61.26,1.17.26.75,0,1.43-.23,1.83-.38-.61-1.31-.66-1.43-.87-1.57-.26-.17-.56-.18-1.12-.16.18-.29.47-.66,1.17-.66.12,0,1.05.05,1.09.51.08.79.09.97.31,1.64.26-.13,1.34-.86,1.6-.86s.53.14.53.34c0,.26-.33.44-.46.51-.48.23-.96.42-1.44.61.27.62.55,1.07.86,1.5.27-.14.38-.21,1.35-.75.21-.12.34-.17.47-.17.12,0,.58.07.58.36,0,.17-.1.3-.3.4-.52.3-.83.42-1.68.75.3.39.81,1.03,1.65,1.94.52.56.55.73.55,1,0,.13-.05.94-.47.94Zm1.22-6.01c-.23,0-.43-.23-.62-.48-.58-.71-.97-.99-1.47-1.26.99,0,2.42.51,2.42,1.33,0,.22-.12.42-.33.42Zm1.09-.94c-.17,0-.27-.12-.61-.51-.2-.22-.82-.86-1.47-1.14.91-.06,2.42.39,2.42,1.22,0,.25-.14.43-.34.43Z"/><path class="cls-1" d="m14.15,25.48h-1.12c-1.44,0-2.55.76-2.55,2.48v20.7c0,4.61-2.95,7.78-7.02,7.78-1.87,0-3.46-.83-3.46-2.59,0-.83.5-2.09,2.05-2.09,1.08,0,1.58.32,2.09,1.91.22.68.65.94,1.33.94,1.62,0,2.16-1.37,2.16-3.53v-23.11c0-1.62-1.01-2.48-2.56-2.48h-1.48v-1.19h10.55v1.19Z"/><path class="cls-1" d="m40.66,30.91c-.5.36-.65.54-.79,1.15-.58,2.34-.86,4.14-2.02,10.87.68.14,1.69.68,1.69,1.48,0,.97-.94.97-1.94.97-.68,0-3.67-.14-4.28-.14-4.57,0-8.5.58-10.04,1.08-.32.11-1.62.61-1.91.61-1.12,0-2.99-2.59-2.99-4,0-.54.14-.86.25-1.19.43.5,1.91,2.3,3.85,2.3,1.22,0,2.74-.14,13.17-.97,1.12-7.45,1.69-11.37,1.69-12.78,0-.32-.14-.43-.5-.43-2.66,0-12.56,1.26-13.39,1.62-.25.11-1.4.58-1.62.58-1.19,0-3.2-2.38-3.2-4.17,0-.58.07-.9.18-1.22.94,1.4,2.27,2.56,4.1,2.56,1.69,0,12.96-.83,13.93-1.19.29-.14,1.51-.97,1.76-.97.4,0,2.95,2.16,2.95,2.88,0,.4-.18.5-.9.97Z"/><path class="cls-1" d="m56.08,31.06c-.61,0-1.04-.43-2.2-1.58-2.52-2.56-4.54-3.49-5.9-4.1,4.32-.29,9.43,1.26,9.43,4.25,0,.79-.61,1.44-1.33,1.44Zm3.13,12.35c-.76.58-4.14,3.02-4.75,3.64-.18.18-.97,1.08-1.15,1.26-.14.14-.43.22-.61.22-1.26,0-3.64-3.02-3.64-4.72,0-.65.22-1.19.36-1.58.83,1.62,1.87,2.38,2.63,2.38,1.19,0,6.77-4.14,8.32-5.33,5.8-4.43,8.57-7.52,11.48-10.87l.18.11c-.86,2.63-4.9,8.82-12.81,14.9Z"/><path class="cls-1" d="m86.34,36.64c-.5,0-.83-.25-1.73-.9-3.46-2.41-5.22-3.02-6.84-3.56.97-.14,1.8-.25,3.06-.25,4.36,0,6.48,1.66,6.48,3.42,0,.83-.4,1.3-.97,1.3Zm2.88-7.88c-.4,0-.79-.29-1.3-.76-3.49-3.17-5.51-3.78-6.55-4.1.79-.11,1.4-.18,2.27-.18,4.61,0,6.69,2.05,6.69,3.67,0,.54-.25,1.37-1.12,1.37Zm-.83,18.79c-1.37,1.01-1.51,1.15-2.45,2.09-.25.29-.61.54-.94.54-.76,0-3.49-1.98-3.49-4.86,0-.29.04-.5.11-.83.72.94,2.3,2.09,2.84,2.09,2.3,0,13.57-9.14,19.4-16.56l.22.14c-1.22,3.1-5.36,9.97-15.69,17.39Z"/><path class="cls-1" d="m131.3,47.9c-.32,0-1.87-.43-2.02-.47-2.27-.47-4.61-.54-6.3-.54-1.01,0-10.22.07-12.31,1.69-.14.11-.32.18-.47.18-.76,0-2.63-1.8-2.63-3.28,0-.47.07-.79.14-1.12.76,1.08,1.62,2.02,3.02,2.02.86,0,6.48-.61,7.74-.68.07-1.19.22-3.67.22-5.62,0-2.66-.14-2.99-.76-4-1.58.22-2.55.36-2.74.4-.22.04-1.04.18-1.19.18-.9,0-2.45-1.58-2.41-2.77,1.26.9,2.34,1.01,3.71,1.01,3.63,0,7.74-.58,8.1-.65.25-.07,1.33-.58,1.55-.58.18,0,2.34.32,2.34,1.26,0,.65-.76.76-1.15.76-2.59,0-2.88,0-5.58.22.36.36.58.58.58.83,0,.14-.25.94-.32,1.08-.07.14-.54,6.48-.61,7.77,1.15-.07,6.37-.22,7.42-.29.18,0,1.04-.25,1.19-.25.29,0,3.13.97,3.13,2.12,0,.22-.11.72-.65.72Z"/><path class="cls-1" d="m147.32,30.77c-.07.83-.36,4.54-.43,5.29-.94,7.74-5.58,11.84-8.64,13.1l-.18-.22c6.66-6.26,6.66-14.04,6.66-17.06s-.04-2.99-2.77-3.71c.58-.4,1.37-.94,2.38-.94.94,0,3.38.79,3.38,1.8,0,.29-.36,1.48-.4,1.73Zm8.75,14.87c-1.22.86-1.33,1.01-2.27,2.02-.18.18-.5.54-.72.54-.68,0-2.3-2.95-2.3-3.42,0-.25.43-1.33.47-1.58.32-1.51.32-6.19.32-7.16,0-1.33-.04-7.99-.21-8.86-.14-.65-.87-1.12-2.59-1.69.47-.29,1.19-.76,2.02-.76,1.08,0,3.89,1.08,3.89,2.16,0,.32-.43,1.76-.5,2.05-.36,1.83-.54,11.91-.54,14.11,0,.14,0,.61.25.61.86,0,7.38-4.14,13.03-11.34l.29.22c-2.45,5.9-7.63,10.62-11.12,13.1Z"/><path class="cls-1" d="m177.79,54.26c-2.81-2.25-4.27-5.49-4.27-8.71s1.46-6.46,4.27-8.71l.16.25c-3.35,3.55-3.42,7.15-3.42,8.46s.07,4.92,3.42,8.46l-.16.25Z"/><path class="cls-1" d="m195.88,52.5h-13.45c-.45,0-1.31.02-2.11.18l-.36-.72c1.12.09,2.21.11,2.75.11h4.83v-4.9h-2.38c-.32,0-1.26,0-2.12.16l-.36-.7c1.12.07,2.23.11,2.77.11h2.09c0-1.39,0-2.77-.02-4.18h-3.75c-.7,1.69-1.58,3.82-3.6,5.46l-.11-.05c1.75-2.79,3.24-7.33,3.24-8.95,0-.13-.02-.2-.04-.36l1.89.81c.14.07.25.16.25.31,0,.25-.36.36-.76.49-.29.79-.49,1.33-.72,1.87h3.58c0-.5,0-2.75-.02-3.21,0-.09-.04-.7-.34-1.53l2.05.56c.14.04.27.11.27.27,0,.11-.04.2-.22.34-.2.14-.25.22-.36.34-.02.27-.04.4-.04,1.31q0,1.15-.02,1.91h3.44l.65-.9c.09-.13.18-.22.29-.22.09,0,.18.05.34.18l1.13.88c.09.07.18.18.18.29s-.11.2-.27.2h-5.76c-.02,2.56-.04,2.84-.04,4.18h2.54l.72-.94c.13-.16.2-.22.27-.22.09,0,.18.05.32.18l1.19.94c.11.07.18.18.18.29,0,.09-.07.18-.27.18h-4.95c0,.77-.02,4.32-.02,4.86v.04h4.56l.86-.94c.14-.14.22-.22.31-.22s.18.05.34.2l1.1.92c.13.11.18.2.18.29,0,.14-.11.18-.27.18Z"/><path class="cls-1" d="m199.27,44.85c-.47,0-.52-.14-1.08-1.37-.23-.5-.5-.94-.9-1.3l.04-.07c2.3.38,2.66,1.42,2.66,1.98s-.45.76-.72.76Zm1.48,1.69c-.18.79-.56,2.02-.67,2.83-.02.11-.02.23-.02.34,0,.41.07.68.31,1.31.47,1.22.47,1.26.47,1.67,0,.86-.49,1.04-.83,1.04-.9,0-.95-1.13-.95-1.28,0-.18.07-.97.07-1.15,0-.79-.14-1.22-.38-1.55-.23-.31-.52-.58-.9-.67v-.14c.88-.07,1.15-.47,1.31-.85,1.01-2.39,1.76-4.88,2.54-7.35l.16.02c-.2.9-.94,4.95-1.12,5.76Zm.4-6.18c-.45,0-.5-.14-1.03-1.4-.32-.76-.67-1.17-.83-1.37l.07-.09c1.04.25,2.5.97,2.5,2.02,0,.29-.16.85-.72.85Zm12.41,2.95h-5.42v3.31h2.11l.43-.49c.13-.14.22-.22.31-.22.07,0,.16.07.32.18l.88.65c.09.07.16.14.16.27,0,.25-.47.5-.72.63.04,3.87.04,4.03.09,4.84.02.2.02.34.02.41,0,.49-.31.77-.88.77-.5,0-.5-.13-.49-1.17h-5.53c-.02.56-.02,1.13-.85,1.13-.41,0-.52-.23-.52-.45,0-.04.02-.14.02-.16.09-1.58.09-1.76.09-3.44,0-2.92,0-3.11-.16-3.76l1.57.79h1.89v-3.31h-2.25c-.32,0-1.24,0-2.11.16l-.36-.72c1.12.09,2.21.13,2.75.13h1.96v-3.17c-1.87.31-3.39.38-4.36.41v-.13c1.8-.27,5.13-1.37,6.99-2.25.25-.11.27-.13.74-.56l1.3,1.19c.09.07.13.18.13.27,0,.14-.09.23-.27.23-.16,0-.42-.04-.7-.11-.43.16-1.12.41-2.56.72v3.38h3.06l.78-.9c.12-.14.2-.22.29-.22s.18.07.32.18l1.06.9c.11.09.18.18.18.27,0,.14-.11.2-.27.2Zm-3.15,3.75h-5.56v5.02h5.56v-5.02Z"/><path class="cls-1" d="m230.42,43.98c-.14,0-1.84-.27-2.2-.31-1.01-.11-1.6-.11-2.07-.11,0,3.89-.18,7.06-4.18,9.54l-.13-.13c2.97-3.01,3.02-5.69,3.1-9.38-.47.02-1.89.07-3.76.38,0,.56.07,3.02.07,3.53s0,1.04-.5,1.04-.76-.95-.76-1.26c0-.2.11-1.03.11-1.19,0-.31.02-1.66.02-1.93-.68.14-1.93.4-2.45.63-.36.16-.4.18-.49.18-.63,0-1.37-1.13-1.37-1.82,0-.27.04-.5.14-.74.7.94.81,1.08,1.57,1.08.27,0,2.18-.23,2.59-.27,0-.61-.04-2.63-.27-3.1-.16-.32-.49-.43-1.24-.65.4-.27.68-.43,1.1-.43.47,0,1.73.47,1.73.94,0,.11-.14.54-.16.63-.14.59-.13,1.26-.11,2.5,1.26-.13,2.74-.29,3.8-.36,0-2.66,0-2.97-.11-3.31-.16-.54-1.17-.7-1.46-.76.45-.27.74-.45,1.13-.45.52,0,2,.36,2,.97,0,.13-.16.7-.18.83-.13.68-.16,1.75-.18,2.67.74-.02,1.84-.07,2.23-.14.13-.02.63-.22.74-.22.29,0,.94.22,1.49.61.2.14.27.25.27.5,0,.5-.31.5-.49.5Z"/><path class="cls-1" d="m234.13,50.16c-.11,0-.7,0-.7-.72,0-.56.23-.72,1.17-1.37.72-.5,1.35-.95,2.47-2.83-.16,2.21-1.71,4.92-2.94,4.92Zm12.46-6.25c-.27,0-1.48-.23-1.66-.25-.31-.04-1.4-.11-2.61-.11-.74,0-1.21.02-1.53.04-.04,1.66-.05,3.94.04,5.6,0,.14.07,1.31.07,1.33,0,.22-.05,2.12-.94,2.12-.34,0-.45-.23-.86-1.21-.13-.29-.43-.56-1.82-1.57l.02-.09c1.6.36,1.82.41,2.14.41.23,0,.25-.11.27-.45.07-1.21.09-1.71.05-6.07-.32.04-3.39.43-3.94.74-.36.2-.49.2-.58.2-.72,0-1.53-1.17-1.53-1.89,0-.23.04-.47.09-.74.27.43.63.85,1.08,1.1.13.07.29.13.76.13.04,0,3.57-.25,4.11-.29-.02-2.39-.04-2.67-.16-3.06-.18-.5-.77-.67-1.53-.86.27-.18.68-.47,1.15-.47.7,0,2.12.67,2.12,1.15,0,.09-.22.59-.27.7-.18.45-.23,1.89-.25,2.45.5-.02,3.57-.27,3.8-.32.11-.02.56-.16.63-.16.27,0,1.71.38,1.71,1.15,0,.11-.02.41-.36.41Zm-.38,5.94c-.32,0-.41-.14-1.28-1.48-1.28-1.93-2.12-2.61-2.67-3.04.94.11,1.84.61,3.01,1.49.41.31,1.55,1.15,1.55,2.14,0,.56-.36.88-.61.88Zm-.02-8.34c-.96,0-1.71-.76-1.71-1.69s.76-1.71,1.71-1.71,1.69.76,1.69,1.71-.76,1.69-1.69,1.69Zm0-2.75c-.58,0-1.04.47-1.04,1.04s.47,1.04,1.04,1.04,1.04-.47,1.04-1.04-.47-1.04-1.04-1.04Z"/><path class="cls-1" d="m262.7,46.16c-.16,0-.59-.04-.63-.04-.65-.05-.83-.07-2.04-.07-5.49,0-7.11.11-7.92.32-.05.02-.63.16-.68.16-.47,0-1.44-1.15-1.44-1.98,0-.11.02-.45.22-.86.61,1.37,1.17,1.37,3.04,1.37,1.24,0,7.09-.02,7.92-.22.11-.02.63-.16.74-.16s1.91.2,1.91.9c0,.56-.9.58-1.12.58Z"/><path class="cls-1" d="m275.28,47.58c-.27,0-.5-.23-.79-.54-1.66-1.84-2.59-2.48-3.84-2.95,0,.7-.04,3.83-.02,4.48,0,.47.11,2.54.11,2.95,0,.38,0,1.44-.7,1.44-.59,0-.85-1.04-.85-1.51,0-.27.02-.43.13-1.21.22-1.42.23-4.27.23-5.8,0-.77-.02-4.36-.16-4.93-.11-.4-.5-.58-1.44-.9.36-.22.79-.43,1.19-.43.27,0,2.04.38,2.04.95,0,.14-.22.76-.25.9-.2.68-.23,2.75-.25,3.64,1.84.29,3.66,1.08,4.65,1.94.32.29.54.74.54,1.21,0,.59-.36.76-.58.76Z"/><path class="cls-1" d="m281.3,54.26l-.16-.25c3.35-3.55,3.42-7.15,3.42-8.46s-.07-4.92-3.42-8.46l.16-.25c2.81,2.25,4.27,5.49,4.27,8.71s-1.46,6.46-4.27,8.71Z"/></svg>