<?xml version="1.0" encoding="UTF-8"?><svg id="_レイヤー_1" xmlns="http://www.w3.org/2000/svg" viewBox="0 0 519.89 44.33"><defs><style>.cls-1{fill:#fff;}.cls-2{fill:#877437;}.cls-3{fill:#231815;}</style></defs><path class="cls-3" d="m317.71,18.55h-7.15v-.49c1.04-2.23,2.45-3.73,4.07-5.38,1.13-1.15,2.45-2.59,2.45-4.57,0-.94-.32-2.48-2.38-2.48-1.57,0-2.32.85-2.32,1.42,0,.18.09.41.16.54.22.49.22.68.22.83,0,.63-.4.92-.88.92-.63,0-.83-.45-.83-1.01,0-1.64,1.53-3.24,3.91-3.24,2.14,0,3.51,1.3,3.51,3.33,0,1.21-.43,1.93-1.33,2.95-.43.5-2.65,2.43-3.08,2.85-.23.23-1.57,1.58-2.41,3.13h3.6c2.12,0,2.68-1.55,3.01-2.43l.34.09-.88,3.55Z"/><path class="cls-3" d="m325.6,14.8v1.89c0,.83.56,1.28,1.26,1.28h.29v.58h-4.23v-.58c.38,0,1.55,0,1.55-1.31v-1.85h-5.04v-.63l5.67-9.09h.5v9.15h2.14v.58h-2.14Zm-1.13-7.58l-4.36,7h4.36v-7Z"/><path class="cls-3" d="m334.15,6.2c-.02.36-.04.88-.04,1.67,0,1.98.07,4.52.14,6.52,0,.22.05,1.24.05,1.44,0,.16,0,.34-.2.52-.13.11-.31.16-.43.16-.43,0-.43-.14-.41-1.21h-2.56c0,.29.04,1.5.04,1.75,0,.43-.58.56-.7.56-.31,0-.34-.27-.34-.43,0-.11.02-.67.02-.99.07-2.43.09-4.84.09-7.26,0-2.59-.04-2.93-.18-4.2l1.3.65h2.12l.49-.45c.12-.11.22-.2.31-.2.11,0,.23.11.36.23l.4.4c.07.07.16.18.16.29,0,.14-.38.4-.61.54Zm-.86-.38h-2.59v4.21h2.59v-4.21Zm0,4.65h-2.59v4.41h2.59v-4.41Zm11.7-.34h-7.74c-.58,0-1.58.07-2.32.22l-.43-.77c1.01.07,2,.13,3.01.13h1.51v-2.75h-.77c-.56,0-1.58.07-2.32.22l-.42-.77c.99.07,2,.13,2.99.13h.52c0-1.67-.05-2.05-.31-2.95l1.6.49c.16.05.27.09.27.27,0,.04,0,.13-.12.22-.23.16-.25.2-.4.31-.02.25-.04.72-.04,1.67h2.21l.49-.63c.05-.07.18-.22.27-.22.13,0,.25.09.34.18l.7.63c.09.09.18.16.18.27,0,.18-.16.2-.27.2h-3.92c-.02.94-.02,1.96-.02,2.75h3.19l.58-.72c.13-.16.2-.22.27-.22.11,0,.23.11.31.18l.76.74c.13.13.16.2.16.27,0,.18-.2.18-.27.18Zm-.02,3.57h-3.06c.02,1.24.05,2.95.05,4.23,0,.61-.05.99-.65,1.39-.61.41-1.19.54-1.42.59-.11-.36-.27-.83-1.69-1.53v-.14c.83.09,1.58.13,1.75.13.27,0,.85-.02.99-.22.09-.13.09-1.08.09-1.35,0-.61-.02-1.66-.05-3.1h-3.51c-.58,0-1.58.05-2.32.2l-.41-.77c.99.09,1.98.14,2.99.14h3.24c-.05-1.87-.05-2.09-.18-2.54l1.37.34c.18.05.25.09.25.2,0,.18-.36.47-.49.58-.02.22-.02.34-.02,1.42h1.37l.47-.68c.07-.09.16-.22.29-.22.11,0,.23.11.31.18l.76.68c.07.07.16.14.16.27,0,.16-.14.2-.27.2Zm-6.82,3.31c-.45,0-.5-.23-.65-.99-.05-.31-.16-.63-.2-.76-.23-.65-.38-.76-.49-.88l.05-.13c.94.38,1.91,1.35,1.91,2.07,0,.54-.41.68-.63.68Z"/><path class="cls-3" d="m353.71,5.57v2.02c0,.18.09,1.71.09,1.87,0,.7-.65.74-.72.74-.41,0-.36-.36-.34-.52h-3.31c0,1.03,0,6.09.02,7.22,0,.23.05,1.33.05,1.58,0,.27,0,1.21-.79,1.21-.47,0-.47-.32-.47-.47,0-.02.05-.59.05-.61.13-1.4.16-5.37.16-8.25,0-.63,0-4.77-.02-5.06-.05-.67-.11-.94-.18-1.28l1.42.68h2.94l.31-.38c.11-.11.14-.18.22-.18.04,0,.16.09.22.13l.81.52c.09.07.14.11.14.2,0,.13-.09.2-.59.58Zm-.95-.43h-3.33v1.78h3.33v-1.78Zm0,2.21h-3.33v1.89h3.33v-1.89Zm4.82,4.81c-.02.68-.04,2.18.04,3.46,0,.16.09.94.09,1.1,0,.77-.67.83-.7.83-.49,0-.41-.65-.4-.88h-3.75c.11,1.13-.63,1.15-.72,1.15-.29,0-.36-.16-.36-.38,0-.16.07-.86.07-1.01.05-.81.07-3.08.07-3.96,0-.74-.02-1.04-.14-1.71l1.17.61h3.6l.25-.31c.22-.22.23-.25.32-.25.11,0,.22.11.25.13l.63.52c.13.11.16.14.16.22,0,.16-.32.34-.59.49Zm-.95-.36h-3.78v1.93h3.78v-1.93Zm0,2.36h-3.78v2.07h3.78v-2.07Zm4.95-8.53c0,2.2,0,4.46.02,6.57,0,.76.05,4.1.05,4.77,0,1.57,0,1.96-.72,2.45-.14.07-.7.41-1.19.47-.05-.34-.13-.59-.43-.85-.27-.22-.7-.52-1.44-.76v-.14c.34,0,1.84.09,2.14.09.38,0,.63-.02.63-.49,0-1.03-.02-2.95-.02-3.82,0-.67.02-3.91.02-4.25h-3.73c.02.22.02.34-.07.43-.12.18-.43.27-.54.27-.31,0-.31-.31-.31-.38,0-.04.02-.34.02-.4.02-.31.02-1.42.02-1.78,0-2.63,0-2.99-.13-3.76l1.19.65h3.38l.4-.47c.14-.16.18-.22.27-.22.13,0,.2.07.27.14l.77.65c.07.07.13.13.13.25,0,.14-.09.23-.74.56Zm-.94-.49h-3.73v1.78h3.73v-1.78Zm0,2.21h-3.73v1.89h3.73v-1.89Z"/><path class="cls-3" d="m372.52,15.09c0,2.05-1.78,3.8-4.29,3.8-2.21,0-3.6-1.39-3.6-2.63,0-.58.29-1.06.88-1.06s.86.52.86.97c0,.2-.16.72-.16.86,0,.45.65,1.24,1.93,1.24,1.6,0,2.9-1.28,2.9-3.26,0-1.85-1.1-3.19-2.92-3.19-.09,0-.58.05-.68.05s-.49,0-.49-.38c0-.27.22-.32.47-.32.09,0,.58.05.68.05,1.01,0,2.67-.85,2.67-2.92,0-1.75-1.21-2.63-2.39-2.63-1.08,0-1.69.68-1.69,1.22,0,.09.05.54.05.65,0,.41-.2,1.06-.85,1.06-.52,0-.74-.49-.74-.95,0-1.33,1.55-2.59,3.39-2.59,2.02,0,3.65,1.28,3.65,3.08,0,1.3-1.03,2.83-3.15,3.33,2.68.36,3.47,2.36,3.47,3.6Z"/><path class="cls-3" d="m377.76,18.89c-2.12,0-4.16-2.29-4.16-6.25,0-3.38,1.75-7.56,5.1-7.56,1.31,0,2.14.68,2.14,1.57,0,.74-.5.85-.83.85-.9,0-.94-.83-.94-.94-.02-.47-.04-.94-.74-.94-.59,0-1.15.32-1.48.68-1.57,1.69-1.69,4.23-1.78,6.21.85-1.19,1.62-2.32,3.26-2.32,1.94,0,3.22,1.8,3.22,4.05,0,2.7-1.78,4.65-3.8,4.65Zm.27-7.89c-1.86,0-2.68,2.12-2.95,2.84.16,1.53.34,2.38.83,3.22.61,1.06,1.12,1.21,1.82,1.21,1.98,0,2.45-2.52,2.45-4.05,0-.97-.18-3.22-2.14-3.22Z"/><path class="cls-3" d="m386.06,18.89c-2.14,0-3.38-1.57-3.38-2.7,0-.56.36-1.04.92-1.04.43,0,.79.38.79.99,0,.23-.13.74-.13.86,0,.63.67,1.28,1.87,1.28,2.29,0,2.97-2.32,2.97-3.94,0-1.51-.45-3.44-2.68-3.44-1.26,0-2.02.7-2.9,1.58l-.27-.2.34-6.88h6.21l-.32,1.17h-5.37l-.23,4.92c.4-.4.7-.68,1.39-.99.58-.25,1.1-.36,1.55-.36,1.39,0,3.67,1.13,3.67,4.03s-2.11,4.72-4.43,4.72Z"/><path class="cls-3" d="m402.35,6.5c-.07,2.16-.02,8.48.05,10.88,0,.2.07,1.03.07,1.21,0,.65-.54.76-.76.76-.41,0-.41-.31-.41-.45,0-.05.04-.7.04-.79h-7.15c.02.49.02.67-.04.81-.04.09-.27.47-.7.47-.36,0-.45-.25-.45-.47,0-.18.07-.94.09-1.1.11-1.55.14-6.07.14-7.29,0-4.77-.07-5.15-.31-5.91l1.53.83h6.57l.52-.47s.2-.2.34-.2c.07,0,.13.04.29.16l.68.59c.16.13.22.23.22.34,0,.2-.36.4-.74.63Zm-.99-.63h-7.17v5.47h7.17v-5.47Zm0,5.91h-7.17v5.89h7.17v-5.89Z"/><path class="cls-3" d="m406.22,15.02c.85.16,2.29.45,3.38,1.39,1.04.92,1.04,1.87,1.04,2.03,0,.58-.45.94-.83.94-.29,0-.49-.23-.85-.95-.88-1.8-1.28-2.58-2.79-3.22l.04-.18Z"/><path class="cls-3" d="m416.79,18.32c3.11-1.39,6.91-5.33,8.05-10.91-1.6.05-6.99.81-7.78,1.03-.34.09-.4.13-.67.31-.02.02-.11.07-.2.07-.41,0-1.31-1.04-1.31-1.89,0-.18.07-.31.11-.4.58.88,1.15.99,1.62.99.14,0,7.26-.65,7.69-.72.45-.09.61-.18.79-.36.13-.11.16-.13.23-.13.2,0,1.42,1.06,1.42,1.31,0,.09-.05.14-.43.32-.43.2-.52.32-.7.86-.11.36-1.01,3.28-3.12,5.96-1.42,1.84-3.42,3.15-5.69,3.69l-.02-.14Z"/><path class="cls-3" d="m430.59,11.76v.58c0,.25,0,1.17-.5,1.17s-.63-1.01-.63-1.44c0-.18.02-.27.11-.94.04-.23.07-.5.07-1.71,0-.56,0-2.02-.14-2.41-.13-.31-.23-.34-1.21-.63.4-.31.65-.41.97-.41.31,0,1.64.25,1.64.77,0,.11-.18.63-.18.74-.09.61-.12,2.41-.12,3.83v.45Zm1.33,7.45c3.55-2.68,4.23-5.02,4.23-10.73,0-.49-.02-2.27-.22-2.57-.22-.36-1.04-.45-1.35-.49.23-.23.56-.54,1.08-.54.56,0,1.48.32,1.69.54.13.11.13.23.13.31,0,.14-.18.72-.22.85-.05.29-.05.68-.07,1.1-.11,4.41-.14,5.06-.56,6.66-.2.74-1.1,3.78-4.66,5l-.05-.13Z"/><path class="cls-3" d="m441.68,11.22c.25.07.43.07,2.02.07.32,0,6.28-.04,7.54-.18.34-.04.36-.04.58-.13.11-.04.22-.05.34-.05.09,0,1.67.18,1.67.7,0,.43-.47.43-.95.43-.27,0-1.96-.11-2.34-.11-1.08,0-6.18.09-7.06.18-.21.02-.74.07-1.24.25-.34.13-.43.16-.56.16s-.23,0-.67-.52c-.12-.14-.52-.61-.52-1.3,0-.25.02-.47.14-.7.23.65.63,1.08,1.04,1.19Z"/><path class="cls-3" d="m455.59,18.95c2.79-1.58,5.11-3.53,6.68-5.98.92-1.42,2.09-3.49,2.63-5.11-.59.11-2.63.36-3.37.36-.2,0-.68,0-1.06-.13-.22.31-1.12,1.67-1.31,1.94-.09.11-.18.22-.25.32.77.18,1.53.45,2.23.83.63.34,1.15.76,1.15,1.48,0,.5-.27.61-.4.61-.23,0-.4-.22-.68-.59-.59-.79-1.06-1.17-2.5-2.09-1.26,1.44-2.45,2.07-2.99,2.36l-.05-.09c2.45-2.36,4.54-6.09,4.54-6.72,0-.49-.56-.79-1.03-1.06.27-.05.43-.07.63-.07,1.03,0,1.96.97,1.96,1.22,0,.16-.05.23-.32.49-.13.13-.41.54-.61.83.23.05.85.05.92.05,1.48,0,2.86-.31,3.29-.63.29-.22.32-.25.4-.25.13,0,1.22,1.01,1.26,1.15v.07c0,.2-.11.23-.49.38-.27.09-.36.18-.65.72-1.75,3.28-1.95,3.64-2.41,4.3-2.68,3.85-5.44,5.04-7.49,5.76l-.07-.16Zm10.66-13.79c1.03.42,1.62.83,1.62,1.51,0,.34-.18.54-.36.54-.27,0-.32-.09-.86-.83-.54-.76-1.03-1.06-1.78-1.48.38,0,.76,0,1.39.25Zm2.45-.49c.4.16,1.15.49,1.15,1.35,0,.25-.09.52-.31.52-.25,0-.32-.07-.85-.74-.65-.85-1.22-1.17-1.84-1.49.4-.02.86-.02,1.84.36Z"/><path class="cls-3" d="m470.12,14.23c4.27-3.04,7.71-6.34,9.17-8.3.27-.38.29-.58.29-.68,0-.13,0-.32-.27-.5-.11-.07-.58-.36-.67-.41.18-.05.4-.13.65-.13.76,0,1.4.5,1.76.88.22.22.32.34.32.59,0,.2-.11.23-.36.34-.29.11-.34.16-.87.68-1.94,1.94-2.16,2.16-2.86,2.81.36.16.9.41.9.7,0,.09-.18.47-.2.54-.09.23-.09.56-.09,1.04v6.18c0,.76,0,1.04-.38,1.04-.59,0-.92-1.03-.92-1.22,0-.13.18-.68.22-.79.14-.65.25-2.57.25-3.29,0-.41-.13-3.15-.14-3.31-.04-.18-.07-.23-.22-.38-1.98,1.71-4.12,3.24-6.52,4.3l-.07-.09Z"/><path class="cls-3" d="m493.11,12.28c.74-1.24,1.04-1.85,2.3-4.45-.4.09-.59.14-1.15.31-1.22.38-2.66.81-4.32,1.33.25,1.08,1.21,4.79,1.73,6.41.54,1.69.7,2.18.7,2.72,0,.4-.32.47-.41.47-.07,0-.99-.13-1.13-1.5-.02-.14-.09-.81-.11-.94-.16-1.17-.32-1.82-1.58-6.91-.54.18-2.7.86-3.03.99-.22.09-.29.14-.88.56-.11.09-.18.13-.27.13-.4,0-1.58-.94-1.58-1.82,0-.18.02-.32.07-.56.67.72.86.94,1.28.94.27,0,.41-.04,1.8-.4.36-.09,1.46-.38,2.39-.61-.18-.65-.85-2.93-1.12-3.19-.34-.31-1.26-.31-1.55-.31.61-.47.95-.72,1.62-.72.4,0,.86.16,1.15.31.27.14.31.27.31.56,0,.13-.02.63,0,.74,0,.31.16,1.15.45,2.4.74-.2,4.72-1.22,5.02-1.33.23-.09.49-.29.74-.5.2-.18.27-.25.42-.25.27,0,1.51,1.21,1.58,1.37.02.05.04.09.04.14,0,.22-.23.27-.67.36-.5.11-.63.22-1.03.76-.81,1.12-1.66,2.18-2.67,3.08l-.11-.07Z"/><path class="cls-3" d="m499.24,18.01c1.1-.94,1.93-2.14,2.52-3.44.9-2,.94-3.69.94-5.17s0-1.66-1.28-1.95c.18-.18.47-.45.9-.45.56,0,1.57.47,1.57.86,0,.11-.13.58-.14.68-.02.27-.04,1.48-.05,1.71-.11,1.75-.36,3.83-1.85,5.82-.54.72-1.37,1.58-2.5,2.05l-.09-.13Zm14.66-8.35c-.95,2.5-2.97,4.45-5.02,6.09-.2.16-1.17.81-1.31.99-.45.59-.5.67-.68.67-.34,0-1.03-1.3-1.03-1.48,0-.11.16-.61.18-.7.13-.65.14-1.62.14-4.03,0-.76,0-3.51-.09-4.12-.05-.4-.14-.63-1.21-1.06.18-.11.49-.32.85-.32.47,0,1.22.45,1.57.76.09.07.18.2.18.36,0,.11-.14.54-.16.63-.07.25-.16.77-.2,1.33-.05,1.19-.09,5.13-.09,6.45,0,.27,0,.31.05.31.22,0,3.53-1.62,6.7-5.96l.13.11Z"/><path class="cls-3" d="m519.89,11.71c0,.7-.58,1.24-1.24,1.24s-1.24-.56-1.24-1.24.54-1.24,1.24-1.24,1.24.56,1.24,1.24Z"/><path class="cls-3" d="m326.77,28.29c-.11.04-.74.09-.88.11-1.1.86-1.22.97-1.66,1.22l-.11-.13c.11-.18.58-1.04.79-1.75h-5.49c0,.5.05,2.97.05,3.53,0,.16,0,.31-.18.47-.14.14-.38.22-.58.22-.32,0-.34-.22-.34-.43,0-.54.05-3.19.05-3.78h-5.22c-.09,1.19-.63,2.32-1.42,2.32-.27,0-.58-.25-.58-.63,0-.31.14-.43.68-.88.81-.65.97-1.48,1.04-1.91h.13c.07.16.11.29.14.67h5.22c0-.22.02-1.24.02-1.48h-3.28c-.36,0-1.46.04-2.32.22l-.41-.77c.94.07,2.05.13,2.99.13h8.14l.56-.63c.11-.11.2-.22.31-.22.09,0,.22.09.32.18l.76.63c.07.05.18.14.18.27,0,.2-.2.2-.27.2h-6.01l.02,1.48h5.38l.52-.49c.11-.11.2-.18.29-.18s.18.07.29.18l.97.9c.09.09.11.18.11.29,0,.09-.05.2-.22.27Zm-.25,11.63c-.99.38-3.13.38-4.52.38-.52,0-2.5,0-2.9-.07-.94-.14-.97-.74-.97-1.24,0-.25.02-1.31.04-1.53h-3.75s.04.67.04.68c0,.49-.34.7-.65.7s-.43-.13-.43-.36c0-.13.07-.68.07-.79.04-1.17.04-2.03.04-2.65,0-.49,0-2.07-.04-2.45-.04-.31-.09-.5-.16-.7l1.49.68h7.98l.23-.34c.09-.14.14-.25.29-.25.13,0,.27.11.34.16l.54.41c.14.11.27.22.27.31,0,.13-.16.23-.63.49.02.49.02,2.63.04,3.06.02.16.07.92.07,1.06,0,.52-.49.65-.67.65-.4,0-.4-.23-.38-.67h-3.8c0,.23-.02,1.35,0,1.46.02.16.09.23.23.29.09.04.81.2,2.39.2.85,0,3.33-.11,3.69-.31.25-.13.4-.45.47-.7.27-.85.43-1.58.56-2.23l.18.02c0,.58.07,2.25.49,2.61.2.18.23.22.23.31,0,.29-.34.65-.79.83Zm-9.18-8.7h-2.3c-.29,0-.7.04-.99.09l-.18-.59c.32.04,1.01.07,1.28.07h1.35l.23-.38c.07-.13.16-.27.32-.27.14,0,.22.14.27.25l.18.34c.05.11.11.2.11.31,0,.14-.11.18-.27.18Zm-.2-1.71h-2.07c-.29,0-.7.02-.99.09l-.18-.59c.32.02,1.01.07,1.28.07h1.17l.23-.36c.07-.13.16-.27.32-.27.14,0,.22.13.27.23l.14.32c.04.09.09.25.09.31,0,.14-.13.2-.27.2Zm1.03,3.49h-3.75v1.78h3.75v-1.78Zm0,3.19v-.97h-3.75v1.8h3.75v-.83Zm4.72-3.19h-3.82v1.78h3.82v-1.78Zm0,2.21h-3.82v1.8h3.82v-1.8Zm0-5.74h-1.58c-.31,0-.7.04-.99.09l-.18-.59c.32.02,1.01.07,1.28.07h.77l.16-.34c.05-.13.14-.23.27-.23.09,0,.2.07.27.22l.18.34c.04.07.09.18.09.25,0,.16-.12.2-.27.2Zm.7,1.73h-2.14c-.29,0-.7.04-.99.09l-.18-.59c.32.02,1.01.07,1.28.07h1.24l.18-.31c.09-.14.14-.25.29-.25s.23.14.31.27l.18.27c.07.09.13.2.13.27,0,.14-.11.18-.29.18Z"/><path class="cls-3" d="m335.91,28.08h-4.34c-.63,0-1.64.07-2.32.22l-.41-.77c1.35.11,2.65.13,2.99.13h2.57l.38-.56c.05-.09.18-.23.27-.23.11,0,.25.13.32.2l.63.56c.09.07.18.16.18.27,0,.18-.14.2-.27.2Zm-1.03,4.45h-4.05c-.29,0-.7.04-.99.11l-.18-.59c.32.02,1.01.05,1.28.05h2.67l.34-.45c.05-.07.16-.23.29-.23.05,0,.22.07.31.18l.45.47c.13.14.16.2.16.27,0,.14-.09.2-.27.2Zm-.02-2.18h-3.96c-.31,0-.72.04-.99.09l-.2-.58c.32.02,1.03.05,1.3.05h2.52l.36-.4c.09-.11.18-.23.29-.23.05,0,.18.05.32.18l.45.42c.11.11.18.16.18.27,0,.14-.11.2-.27.2Zm.22,4.93c-.13.09-.22.14-.29.2,0,.4,0,.83.02,1.98.02.56.07,1.44.07,1.98,0,.45-.36.81-.65.81-.38,0-.38-.25-.36-1.13h-2.94v.99c-.07.29-.43.54-.74.54-.23,0-.32-.16-.32-.36,0-.05,0-.11.02-.14.07-1.03.09-2.7.09-3.62,0-1.75-.05-2.09-.16-2.61l1.22.74h2.61l.32-.38c.04-.05.16-.14.23-.14.05,0,.07.02.22.13l.68.5c.18.14.22.16.22.25s-.07.13-.25.27Zm-.22-9.38h-3.76c-.29,0-.7.04-.99.11l-.18-.59c.32.02,1.01.05,1.28.05h2.32l.34-.43c.05-.09.18-.23.29-.23.09,0,.25.13.32.18l.49.47c.13.11.16.18.16.25,0,.14-.09.2-.27.2Zm-.99,9.18h-2.95v3.6h2.95v-3.6Zm11.29-4.63h-4.77v3.24h1.82l.36-.47c.13-.16.2-.18.25-.18.09,0,.12.04.29.16l.7.58c.14.11.21.18.21.27,0,.18-.32.41-.65.58-.02.5.04,2.11.05,2.68,0,.45.07,2.38.07,2.77,0,.49-.54.59-.7.59-.14,0-.36-.04-.38-.25-.02-.13,0-.92,0-1.1h-4.93c0,.29,0,.77-.02.85-.05.23-.38.52-.67.52-.4,0-.4-.23-.4-.38,0-.43.05-1.1.07-1.53.02-.59.07-1.98.07-3.24,0-1.49-.04-1.73-.18-2.52l1.26.67h1.78v-3.24h-1.13c-.65,0-1.64.07-2.32.22l-.43-.77c1.35.11,2.67.13,3.01.13h.88v-3.57c-1.19.22-2.23.32-3.13.42l-.02-.14c2.39-.67,3.13-.86,5.33-1.82.31-.13.59-.29.7-.54l1.33.94c.11.05.14.09.14.2,0,.14-.12.22-.25.22-.07,0-.59-.07-.68-.09-1.17.34-1.78.5-2.45.63v3.76h2.75l.67-.74q.2-.22.29-.22c.11,0,.31.16.32.18l.83.74c.09.09.18.16.18.29,0,.16-.16.18-.27.18Zm-2.72,3.67h-4.95v4.77h4.95v-4.77Z"/><path class="cls-3" d="m360.16,32.07l.83-.97c.13-.16.22-.23.31-.23s.14.05.31.22l1.06,1.06c.09.09.18.16.18.29,0,.16-.16.18-.27.18h-12.73c-.63,0-1.62.07-2.3.2l-.43-.88c1.33.09,2.41.14,2.99.14h10.07Z"/><path class="cls-3" d="m379.82,37.1c-1.3-.99-2.79-2.16-4.18-4.34-.86-1.33-1.6-2.75-2.04-4.29h-.14c-.05,2.47-.05,2.74-.05,3.6,0,.45,0,1.78.05,3.6h1.42l.58-.65c.18-.22.22-.22.31-.22.05,0,.13.02.31.18l.68.61c.09.09.18.2.18.31,0,.16-.14.2-.27.2h-3.21c.02.59.14,3.67.14,3.78,0,.23-.02.45-.31.67-.27.2-.49.2-.58.2-.32,0-.43-.14-.43-.41,0-.02,0-.11.02-.23.14-2.05.16-3.49.18-4h-.85c-.63,0-1.64.07-2.3.2l-.43-.77c1.35.11,2.67.14,2.99.14h.61c0-.85.09-5.74.09-6.18-2.36,4.52-5.33,6.77-7.71,7.78l-.07-.13c3.48-2.43,5.92-5.96,7.11-8.68h-3.85c-.63,0-1.64.07-2.32.22l-.41-.77c1.35.11,2.65.13,2.99.13h4.25c-.09-2.5-.11-2.81-.36-3.57l1.75.52c.16.05.25.09.25.22s-.07.16-.7.58c-.02.45-.02.77-.04,2.25h4.64l.81-.95c.14-.18.2-.23.29-.23s.27.14.34.2l1.13.97c.09.07.16.14.16.27,0,.16-.14.18-.27.18h-6.75c1.55,3.57,4.81,6.82,7.9,7.58v.16c-.97.07-1.53.45-1.93.88Z"/><path class="cls-3" d="m384.65,28.72c.5,0,.99-.13,2.97-.67,2.68-.72,8.05-1.85,8.28-1.85.29,0,1.28.32,1.28.85,0,.43-.45.47-.68.47-.16,0-.94-.05-1.08-.05-2.04,0-3.01.49-4.03,1.39-1.84,1.6-2.41,3.53-2.41,4.84,0,3.15,3.19,4.03,4.57,4.29.49.09.76.13,1.01.45.13.16.2.34.2.49,0,.29-.25.34-.45.34-1.85,0-6.07-1.37-6.07-5.38,0-3.1,2.3-4.93,4.2-6.43-1.08.31-2.41.63-3.62.92-2.29.56-2.92.94-3.82,1.46-.11.07-.31.18-.52.18-.29,0-1.19-.47-1.19-1.57,0-.27.05-.41.13-.59.56.76.65.88,1.24.88Zm10.23,1.21c1.21.76,1.35,1.21,1.35,1.62,0,.18-.04.56-.38.56-.2,0-.31-.18-.43-.4-.59-1.1-1.73-2.05-2.21-2.38.59.05,1.17.29,1.67.59Zm3.44.86c0,.43-.23.49-.32.49-.2,0-.32-.2-.5-.45-.61-.88-1.48-1.51-2.34-2.14,1.19.18,3.17.94,3.17,2.11Z"/><path class="cls-3" d="m407.21,29.01h-2.75l1.4.85c.16.11.25.2.25.32,0,.2-.16.25-.86.34-.49,1.55-.83,2.52-1.26,3.49,1.89,2.18,2.18,3.44,2.18,3.76,0,.58-.38.74-.61.74-.4,0-.58-.29-.77-.97-.07-.25-.47-1.48-1.22-2.61-.86,1.78-2.07,3.94-4.61,5.53l-.05-.13c.67-.72,2.58-2.79,4.07-6.21-.72-.88-1.51-1.82-2.85-2.77l.09-.14c1.64.86,2.58,1.62,3.08,2.09.49-1.33.97-2.92,1.06-4.29h-2.49c-.63,0-1.62.07-2.3.22l-.43-.77c1.35.11,2.67.13,2.99.13h.5c0-2.84,0-2.9-.34-4l1.66.49c.09.04.29.11.29.29,0,.07-.02.13-.09.18-.09.05-.38.25-.54.36v2.68h1.75l.63-.68c.18-.2.2-.22.27-.22.09,0,.29.13.34.18l.72.68c.13.11.18.16.18.29,0,.16-.14.18-.27.18Zm8.12.83h-3.01v4.83c0,.47.07,2.54.07,2.97,0,1.19,0,1.69-.58,2.3-.65.68-1.42.76-1.78.79-.07-.36-.14-.56-.43-.85-.4-.4-.76-.56-1.06-.68v-.09c.52.04.77.05,1.24.05,1.37,0,1.46-.13,1.53-.49.05-.27.04-8.07.02-8.84h-1.67c-.63,0-1.62.07-2.3.2l-.43-.77c1.35.11,2.67.14,2.99.14h1.42c-.05-3.37-.05-3.75-.07-3.96-.02-.63-.09-.81-.25-1.12l1.53.49c.32.11.38.18.38.27,0,.2-.31.4-.59.59v3.73h.9l.68-.72c.2-.2.22-.22.29-.22.09,0,.31.18.32.18l.9.72c.07.05.18.14.18.27,0,.16-.16.2-.27.2Zm-6.66,5.62c-.59,0-.67-.7-.68-1.1-.04-.42-.14-1.58-.76-2.61l.12-.11c.54.32,1.13,1.1,1.48,1.55.23.31.58.77.58,1.39,0,.5-.34.88-.74.88Z"/><path class="cls-3" d="m432.21,27.66h-12.68c.02,1.78.02,2.86.02,3.71,0,4.9-.23,6.75-2.52,9.02l-.11-.14c1.1-1.62,1.67-3.39,1.67-8.05,0-1.49-.04-4.18-.31-5.55l1.42.58h5.06c-.02-1.6-.04-2.09-.27-2.75l1.51.38c.13.02.31.07.31.27s-.16.27-.56.43c.02.27,0,1.44,0,1.67h4.47l.63-.94c.05-.09.18-.23.27-.23.13,0,.29.16.36.25l.83.86c.11.13.16.18.16.31,0,.14-.14.18-.27.18Zm-11.47,11.24c-.23,0-.65-.13-.65-.56,0-.31.14-.5.5-1.04.34-.52.81-1.3.85-3.48h.11c.13.34.4,1.03.4,2.5,0,.52,0,2.58-1.21,2.58Zm8.82,1.06c-.61.22-2.47.22-3.22.22-2.39,0-2.59,0-2.59-1.94,0-.59.02-3.19.02-3.73,0-.18-.02-2.29-.07-2.92-.04-.29-.07-.43-.13-.67l1.67.54c.09.04.23.09.23.23,0,.32-.54.5-.76.59,0,.81-.02,4.39,0,5.11.02,1.78.11,1.85,1.33,1.87.38,0,.74.02,1.12.02,1.26,0,1.57-.11,1.77-.52.14-.29.4-1.01.65-2.18l.14.02c0,.05.16,1.82.41,2.12.04.04.23.14.27.18.05.05.07.14.07.2,0,.14-.14.58-.92.85Zm-1.73-7.46c-.38,0-.47-.14-.83-.83-.76-1.46-1.06-1.82-1.84-2.7l.07-.07c1.87.81,3.22,2.11,3.22,2.97,0,.22-.13.63-.63.63Zm4.65,4.97c-.52,0-.59-.36-.79-1.19-.14-.65-.49-2.21-1.67-3.89l.09-.09c2.18,1.53,3.1,3.53,3.1,4.27,0,.5-.25.9-.72.9Z"/><path class="cls-3" d="m447.14,35.84c-1.3,2.45-4.36,4.12-7.2,4.12-.49,0-2.03-.11-2.66-.83-.59-.68-.74-1.82-.74-3.64,0-.27.09-3.83.11-4.39.02-.56.11-2.99.11-3.49,0-1.51-.52-1.69-1.26-1.98.13-.14.31-.29.79-.29.76,0,1.76.86,1.76,1.33,0,.16-.09.67-.14.99-.41,2.21-.65,5.83-.65,8.1,0,.7,0,2.29.36,2.77.4.52,1.08.65,1.75.65,2.25,0,6.16-1.87,7.72-3.42l.05.07Z"/><path class="cls-3" d="m454.28,26.33c0-.76-.14-.83-1.33-1.39.16-.11.36-.27.9-.27.94,0,1.69.65,1.69,1.08,0,.04-.09.41-.18.79-.09.38-.14.79-.22,1.33,1.24-.27,1.78-.47,2.81-.83.13-.04.31-.11.45-.11.32,0,.97.32.97.58,0,.22-.23.32-.32.36-.56.23-2.12.65-4,.9-.05.76-.07,1.87-.05,2.88,1.17-.29,1.58-.43,2.38-.74.09-.04.23-.09.32-.09.32,0,.94.22.94.52,0,.25-.22.38-.4.45-.32.11-1.96.45-3.22.68.04.74.2,3.22.25,4.12,2.05.49,3.84,1.35,3.84,2.23,0,.32-.22.5-.4.5-.14,0-.22-.05-.83-.47-.18-.13-1.35-.85-2.54-1.19-.02,1.04-.45,1.46-.7,1.66-.81.59-1.95.61-2.2.61-1.84,0-3.04-.9-3.04-1.78,0-.56.38-.94.9-1.24,1.01-.56,2.74-.56,3.08-.56.41,0,.68.02.95.04-.02-.59-.16-3.24-.18-3.78-.92.13-1.82.22-2.72.22-1.08,0-1.75-.2-1.75-.83,0-.31.32-.76.88-.88-.12.14-.29.34-.29.56,0,.34.38.4,1.3.4.7,0,1.55-.07,2.56-.25,0-.99.02-1.51.07-2.95-.72.07-3.12.32-3.64.32-.47,0-1.89-.13-2.38-1.21.31.13,1.06.45,2.32.45.36,0,1.84-.09,3.71-.4,0-.27.05-1.48.05-1.73Zm-1.89,10.86c-1.19,0-2.38.31-2.38,1.03,0,.52.79.94,2.16.94.76,0,2.36-.22,2.16-1.78-.31-.07-.81-.18-1.95-.18Z"/><path class="cls-3" d="m465.76,40.81c3.06-2.03,3.42-3.87,3.6-5.04-.34.2-.65.38-1.06.38-.85,0-2.12-1.22-2.12-2.79,0-1.22.95-2.3,2.14-2.3.43,0,.76.14,1.08.29,0-.29-.02-.4-.02-.52v-1.64c-1.96.16-3.82.4-6.09,1.3-.11.04-.59.27-.7.27-.34,0-1.41-.9-1.41-1.69,0-.09,0-.18.05-.4.52.68.88.86,1.33.86.27,0,.9-.13.99-.14.83-.14,4.09-.65,5.82-.79-.02-.5-.05-2.43-.25-2.77-.23-.45-.67-.65-1.19-.88.2-.11.49-.29.85-.29s.95.29,1.33.54c.25.18.29.34.29.49,0,.07-.09.49-.11.54-.11.49-.16,1.78-.18,2.32.68-.05,3.73-.16,4.34-.22.13-.02.76-.07.81-.07.7,0,1.28.5,1.28.79,0,.22-.23.34-.43.34-.09,0-.23-.02-.31-.05-1.21-.27-2.65-.29-3.33-.29-.79,0-1.6.04-2.39.09-.04.79-.04,1.44-.04,1.75,0,.36,0,.63.02,1.1.2.36.58,1.08.58,2.41,0,.74-.11,3.35-2.5,5.26-.97.76-1.8,1.08-2.32,1.28l-.05-.11Zm.99-7.51c0,1.06.88,1.96,1.64,1.96.99,0,.99-1.33.99-1.53,0-1.44-.5-1.98-1.39-1.98-.43,0-1.24.56-1.24,1.55Z"/><path class="cls-3" d="m478.79,37.6c0-1.46,1.17-2.63,2.61-2.63s2.63,1.17,2.63,2.63-1.21,2.61-2.63,2.61-2.61-1.19-2.61-2.61Zm4.74,0c0-1.17-.96-2.12-2.12-2.12s-2.12.97-2.12,2.12.92,2.12,2.12,2.12,2.12-.94,2.12-2.12Z"/><rect class="cls-1" x=".52" y=".52" width="295.4" height="43.29" rx="3.61" ry="3.61"/><path class="cls-2" d="m292.31,1.04c1.7,0,3.09,1.39,3.09,3.09v36.07c0,1.7-1.39,3.09-3.09,3.09H4.13c-1.7,0-3.09-1.39-3.09-3.09V4.13c0-1.7,1.39-3.09,3.09-3.09h288.18m0-1.04H4.13C1.86,0,0,1.86,0,4.13v36.07c0,2.27,1.86,4.13,4.13,4.13h288.18c2.27,0,4.13-1.86,4.13-4.13V4.13c0-2.27-1.86-4.13-4.13-4.13h0Z"/><path class="cls-2" d="m46.3,16.52c-.45,0-8.58.99-10.66,1.31-1.34.19-1.34.35-1.34,2.3,0,.77.35,4.22.35,4.93,0,.42,0,2.37-.83,2.37-.74,0-1.82-1.76-1.82-2.91,0-.35.03-.48.22-1.44.1-.48.1-1.18.1-1.44,0-1.79-.32-3.84-1.02-5.09-.06-.13-.58-.77-.58-.93,0-.22.64-.48,1.15-.48.48,0,.7.13,1.66.7.22.16.48.32,1.7.32.96,0,10.3-1.18,11.13-1.54.19-.06.86-.64,1.02-.64.42,0,3.14,2.11,3.14,2.78,0,.29-.83,1.28-.96,1.54-.35.77-1.79,4.35-2.11,5.09-1.09,2.43-3.58,7.55-8.42,10.62-.48.29-1.25.74-1.44.74-.13,0-.19-.1-.19-.19,0-.13.61-.74.96-1.09,1.66-1.7,4.93-5.18,6.91-10.53.9-2.37,1.6-5.31,1.6-5.79,0-.35,0-.64-.58-.64Z"/><path class="cls-2" d="m62.14,29.35c-.83.61-2.46,1.82-3.14,2.62-.61.74-.67.8-1.15.8-1.73,0-4.1-2.05-4.1-3.33,0-.22.03-1.7.32-1.7.13,0,.83.54.96.61.42.26,1.47.74,2.18.74,1.57,0,10.05-5.66,15.36-10.91.51-.51,1.41-1.41,1.47-1.41s.16.1.16.16c0,.29-3.74,6.27-12.06,12.42Zm-2.62-10.53c-.86,0-1.18-.51-2.24-2.11-1.09-1.63-2.02-2.11-2.91-2.62-.13-.06-.29-.16-.29-.29s.26-.29.7-.29c3.42,0,6.11,1.82,6.11,3.71,0,.96-.54,1.6-1.38,1.6Z"/><path class="cls-2" d="m90.2,16.64c-.22,0-6.94,1.57-7.1,1.63-.22.06-1.21.61-1.44.61-.48,0-1.98-.96-2.18-1.15-.22-.22-.77-1.63-.77-1.86,0-.16.03-.26.19-.26.03,0,.74.19.83.22.99.29,1.38.32,1.7.32,1.09,0,7.1-.51,8.77-1.18.29-.13,1.47-.99,1.76-.99.77,0,2.72,1.63,2.72,2.43,0,.29-1.18,1.15-1.38,1.38-.64.77-3.17,4.51-3.68,5.25-.13.16-.26.38-.26.64,0,.29.06.35,1.41,1.09,1.44.83,7.17,4.06,7.17,6.98,0,.74-.58,1.41-1.31,1.41s-.86-.22-1.98-2.21c-2.21-3.87-5.02-6.3-5.73-6.3-.32,0-.42.1-1.12.9-1.12,1.18-4.38,4.77-8.54,6.85-.86.42-1.73.74-1.98.74-.06,0-.22,0-.22-.19,0-.13,1.28-1.06,1.47-1.18,8.35-6.05,12.16-14.33,12.06-14.85-.06-.26-.32-.26-.38-.26Z"/><path class="cls-2" d="m104.89,10.98c1.15,0,3.46,1.02,3.46,2.05,0,.22-.32,1.15-.38,1.34-.16.8-.29,3.65-.29,4.45,0,.7.13.8,1.06,1.02,1.95.45,6.91,2.78,6.91,5.18,0,1.06-.99,1.12-1.15,1.12-.8,0-.9-.13-3.04-2.91-.9-1.18-2.4-2.69-3.39-2.69-.32,0-.45,0-.45,2.37,0,3.39.03,5.09.16,7.97.03.35.06,1.15.06,1.63,0,.8,0,2.91-.93,2.91s-1.79-2.18-1.79-3.01c0-.13.13-.8.13-.93.22-2.66.29-3.49.29-7.42,0-9.15,0-10.17-.38-11.2-.26-.67-.58-.99-1.09-1.47l-.06-.13c.03-.29.86-.29.9-.29Z"/><path class="cls-2" d="m125.79,25.79c0,.9-.74,1.22-1.09,1.22-.7,0-.93-.74-1.15-1.44-.29-.9-.99-2.14-1.86-3.23-.16-.22-.22-.32-.22-.42,0-.19.19-.29.42-.29.77,0,3.9,1.6,3.9,4.16Zm9.89-6.59s-.06-.19-.06-.29c0-.16.13-.22.22-.22.26,0,1.21.67,1.44.8.51.26,1.79,1.02,1.79,1.95,0,.26-.13.29-.67.61-.26.16-1.38,2.34-1.63,2.75-4.9,8.13-12.77,11.29-13.02,11.29-.1,0-.19-.1-.19-.19,0-.16,1.5-1.12,1.79-1.34,6.82-5.22,10.56-11.23,10.56-13.98,0-.64-.06-.99-.22-1.38Zm-4.99,3.1c0,.93-.51,1.63-1.09,1.63-.7,0-.86-.8-.96-1.34-.22-1.02-.32-1.31-1.18-3.04-.06-.13-.35-.58-.35-.7,0-.1.16-.19.32-.16,1.5.22,3.26,1.82,3.26,3.62Z"/><path class="cls-2" d="m144.29,15.36c.58.29,1.86.67,2.66.67,1.31,0,10.69-.9,12.06-1.5.99-.45,1.12-.51,1.34-.51.7,0,1.22.45,2.21,1.31,1.44,1.28,1.63,1.63,1.63,2.08,0,.42-.16.58-.74,1.15-.51.48-.64.74-1.25,2.02-5.02,10.43-16.19,14.91-16.51,14.91-.16,0-.22-.13-.22-.19,0-.13.1-.19.42-.42,5.57-3.9,10.08-8.13,12.64-12.67,1.57-2.75,2.18-5.09,2.18-5.41,0-.54-.54-.58-.7-.58-.32,0-9.57,1.54-11.52,2.3-.26.1-1.34.7-1.6.7-.74,0-3.3-1.6-3.3-3.36,0-.61.1-.7.29-.7.06,0,.35.19.42.19Zm25.76-2.14c0,1.7-1.41,3.1-3.07,3.1-1.47,0-3.1-1.22-3.1-3.1,0-1.6,1.25-3.04,3.14-3.04,2.3,0,3.04,1.95,3.04,3.04Zm-5.12.1c0,1.34,1.21,1.92,2.08,1.92,1.38,0,1.98-1.18,1.98-1.95,0-1.22-1.18-2.02-2.05-2.02-.74,0-2.02.61-2.02,2.05Z"/><path class="cls-2" d="m172.03,19.43c.48.06,2.34.29,2.75.29.64,0,3.42-.19,4-.19.61-.03.96-.13.96-.9,0-.96-.19-2.75-.7-3.55-.1-.13-.61-.67-.61-.8,0-.22.96-.32,1.12-.32.74,0,2.88,1.5,2.88,2.14,0,.22-.54,1.15-.58,1.34-.16.35-.13.83-.13,1.15,0,.48.32.67.77.67.83,0,2.85-.13,3.65-.19.7-.06.7-.61.7-.93,0-1.09,0-4.42-.22-5.21-.1-.29-.99-1.57-.99-1.63,0-.13.35-.32.74-.32.64,0,1.6.48,2.56.96.32.16.8.38.8.77,0,.22-.48.99-.54,1.15-.32.74-.32,2.72-.32,3.58,0,1.02,0,1.34.77,1.34.16,0,1.41-.1,2.18-.35,1.06-.38,1.15-.42,1.6-.42,1.6,0,4.42.54,4.42,2.11,0,.67-.58.93-1.02.93-.38,0-2.11-.38-2.46-.45-1.09-.16-4.29-.22-4.35-.22-.96,0-.96.22-1.06,2.08-.13,3.04-.48,6.72-3.39,10.3-1.44,1.76-3.07,2.88-3.33,2.88-.1,0-.19-.06-.19-.19,0-.03,1.6-2.08,1.86-2.5,2.53-3.74,3.1-7.33,3.1-11.46,0-1.02-.51-1.02-.96-1.02-1.18,0-3.49.16-3.81.32-.42.22-.42.35-.42,1.73,0,.7.19,3.81.19,4.42,0,1.54-.16,2.11-.61,2.11-.77,0-1.7-2.02-1.7-2.56,0-.32.29-3.39.29-3.71,0-1.54-.19-1.73-.74-1.73-.38,0-2.27.29-4.1.77-.19.06-.93.35-1.12.35-.38,0-3.17-1.41-3.17-2.66,0-.19.13-.29.22-.29.16,0,.83.16.96.19Z"/><path class="cls-2" d="m223.71,21.57c.19,0,.54-.03.7-.03,1.95,0,2.24,1.18,2.24,1.41,0,.9-1.31.99-2.66.99-.74,0-3.94-.06-4.58-.06-4.42,0-11.74.42-12.51.58-.38.06-2.11.58-2.5.58-1.38,0-2.85-1.98-2.85-3.07,0-.19.1-.38.26-.38s.93.35,1.09.38c.54.16,1.86.29,3.9.29,1.06,0,12.22-.42,16.89-.67Z"/><path class="cls-2" d="m234.21,13.86c.22.16.54.54.54.83s-.51,1.54-.54,1.82c-.13,1.12-.19,3.97-.19,5.31,0,.19.06.58.61.58.64,0,7.62-3.39,7.62-5.12,0-.19-.22-1.09-.22-1.18,0-.13.22-.13.45-.13,2.18,0,3.3,1.89,3.3,2.69,0,.74-.48.83-1.41,1.02-.74.16-3.62,1.6-4.22,1.86-.9.38-5.63,2.08-5.79,2.18-.38.26-.38.42-.38,1.63,0,4.19.61,5.06,4.8,5.06,1.34,0,2.62-.13,4.67-.58.42-.1,1.82-.38,2.21-.38.67,0,1.28.51,1.28,1.12,0,2.4-6.14,2.4-8.13,2.4-6.62,0-6.78-2.85-6.78-7.39,0-1.15.1-6.18.1-7.23,0-2.62-.48-3.81-.83-4.48-.48-.9-.54-.99-.54-1.06,0-.19.45-.29.74-.29.93,0,1.38.22,2.75,1.34Zm16.16,1.89c0,.38-.35,1.22-.96,1.22-.48,0-.77-.29-1.63-1.5-.35-.48-.61-.86-2.11-2.08-.13-.1-.45-.35-.45-.48,0-.16.29-.26.58-.26,2.46,0,4.58,1.76,4.58,3.1Zm2.69-3.23c0,.42-.26.96-.8.96-.67,0-1.06-.42-1.7-1.15-.54-.61-1.95-1.41-2.85-1.7-.32-.1-.42-.26-.42-.35,0-.26.8-.42,1.18-.42,3.94,0,4.58,2.08,4.58,2.66Z"/><path class="cls-2" d="m263.61,16.64c-.22,0-6.94,1.57-7.1,1.63-.22.06-1.21.61-1.44.61-.48,0-1.98-.96-2.18-1.15-.22-.22-.77-1.63-.77-1.86,0-.16.03-.26.19-.26.03,0,.74.19.83.22.99.29,1.38.32,1.7.32,1.09,0,7.1-.51,8.77-1.18.29-.13,1.47-.99,1.76-.99.77,0,2.72,1.63,2.72,2.43,0,.29-1.18,1.15-1.38,1.38-.64.77-3.17,4.51-3.68,5.25-.13.16-.26.38-.26.64,0,.29.06.35,1.41,1.09,1.44.83,7.17,4.06,7.17,6.98,0,.74-.58,1.41-1.31,1.41s-.86-.22-1.98-2.21c-2.21-3.87-5.02-6.3-5.73-6.3-.32,0-.42.1-1.12.9-1.12,1.18-4.38,4.77-8.54,6.85-.86.42-1.73.74-1.98.74-.06,0-.22,0-.22-.19,0-.13,1.28-1.06,1.47-1.18,8.35-6.05,12.16-14.33,12.06-14.85-.06-.26-.32-.26-.38-.26Z"/></svg>