<?xml version="1.0" encoding="UTF-8"?><svg id="_レイヤー_1" xmlns="http://www.w3.org/2000/svg" viewBox="0 0 308.2 126.59"><defs><style>.cls-1{fill:none;stroke:#99ba98;stroke-miterlimit:10;stroke-width:.99px;}.cls-2{fill:#99ba98;}.cls-3{fill:#eeefeb;}</style></defs><rect class="cls-3" x=".5" y=".5" width="307.21" height="125.6" rx="4.97" ry="4.97"/><rect class="cls-1" x=".5" y=".5" width="307.21" height="125.6" rx="4.97" ry="4.97"/><path class="cls-2" d="m16.75,15.52c-.13.15-.88,1.56-1.07,1.85-.78,1.24-2.11,3.15-4.38,4.05l-.06-.11c3.24-2.89,4.26-5.97,4.26-6.38,0-.48-.71-.84-.96-.96.15-.09.27-.15.63-.15.92,0,1.91.85,1.91,1.25,0,.12-.09.19-.33.45Zm6.58,5.16c-.41,0-.51-.36-.58-.69-.52-2.29-1.8-4.33-3.5-5.97,1.92.78,3.18,2.31,3.96,3.53.54.83.75,1.49.75,2.23,0,.14,0,.9-.63.9Z"/><path class="cls-2" d="m35.6,15.7c-.28.15-.31.19-.49.84-.48,1.71-1.1,3.42-2.98,5.05-.59.51-1.86,1.51-3.29,1.86l-.04-.11c1.93-1.12,3.6-2.73,4.5-4.79.55-1.24,1-2.95,1-3.19,0-.12-.01-.15-.24-.15-1.2,0-3.03.11-4.24.21-.22.02-1.59.18-1.68.18-.04,0-.09-.02-.5-.17.03.25.12,2.71.12,2.92,0,.42-.13.58-.32.58-.28,0-.75-.39-.75-.98,0-2.7-.04-2.98-.93-3.49.17-.03.43-.08.71-.08.38,0,.48.06,1.03.38.2.12.39.15.66.15.11,0,1.96-.13,2.34-.17-.01-.33-.03-1.6-.12-1.8-.12-.24-.22-.33-1.23-.55.57-.43.95-.45,1.05-.45.4,0,1.53.36,1.53.74,0,.04-.17.58-.21.69-.08.17-.14,1.05-.12,1.32.38-.01,2.04-.1,2.38-.13.15-.02.38-.03.74-.3.13-.11.18-.14.25-.14.15,0,1.23,1.02,1.23,1.2,0,.12-.11.21-.41.36Z"/><path class="cls-2" d="m47.72,22.51c-.32,0-.48-.25-.61-.48-1.2-1.98-2.03-2.97-3.36-3.96-2.67,3.36-5.22,4.3-6.63,4.59v-.12c3.46-1.53,7.12-6.12,7.95-8.91-.57.08-3.06.54-3.87.86-.13.06-.69.36-.81.36-.22,0-1.05-.73-1.05-1.51,0-.3.06-.5.13-.64.57.9.82.91,1.12.91.42,0,3.67-.31,4.29-.67.11-.06.57-.42.69-.42.17,0,1.27.95,1.27,1.2,0,.17-.1.2-.58.38-.11.04-.12.08-.32.43-.66,1.28-1.04,2.01-2,3.3,1.8.79,4.29,2.58,4.29,3.99,0,.41-.17.71-.53.71Z"/><path class="cls-2" d="m20.57,33.37c-.35.15-.48.29-.81.93-1.44,2.81-3.01,4.68-5.31,6.11-.79.49-1.82,1.02-2.94,1.27l-.03-.1c3.27-1.82,6.3-5.13,7.68-8.62-.62.06-1.63.21-2.25.3-.11.02-.4.06-.48.06-.15,0-.42-.06-.76-.25-1.39,1.84-2.49,2.7-3.97,3.48l-.08-.12c2.46-2.25,3.92-4.95,3.92-5.43,0-.15-.03-.27-.83-.75.36-.12.69-.12.74-.12.6,0,1.69.69,1.69,1.08,0,.13-.06.21-.34.48-.15.14-.54.65-.74.89.68.07,2.55-.14,2.94-.27.13-.04.65-.45.79-.45.17,0,1.25.9,1.25,1.19,0,.1-.04.15-.46.34Z"/><path class="cls-2" d="m24.85,32.01c-.13.42-.13,1.75-.13,2.27,0,.27.01,1.5.01,1.75,0,.22,0,1.09-.48,1.09-.41,0-.69-.63-.69-1.23,0-.15.09-.82.11-.96.03-.24.04-.76.04-1.6q0-1.93-1.18-2.26c.28-.18.55-.35.87-.35.36,0,1.62.35,1.62.78,0,.06-.15.46-.16.51Zm5.28-.28c-.03.19-.09,2.8-.11,3.34-.1,2.76-.78,4.12-1.75,5.2-1.14,1.29-2.28,1.56-2.71,1.65l-.04-.11c3.34-2.14,3.52-5.43,3.52-8.86,0-2.29-.04-2.38-1.38-2.59.2-.18.51-.44,1.02-.44.54,0,1.7.35,1.7.75,0,.17-.22.9-.24,1.05Z"/><path class="cls-2" d="m43.42,36.19c-.14,0-.5-.03-.53-.03-.54-.04-.69-.06-1.7-.06-4.57,0-5.92.09-6.6.27-.04.01-.53.13-.57.13-.39,0-1.2-.96-1.2-1.65,0-.09.01-.38.18-.72.51,1.14.97,1.14,2.54,1.14,1.04,0,5.91-.02,6.6-.18.09-.01.53-.13.62-.13s1.59.17,1.59.75c0,.46-.75.48-.93.48Z"/><path class="cls-2" d="m57.58,38.91s-.78-.14-1.17-.2c-.5-.09-1.36-.17-2.26-.17-1.38,0-4.42.25-5.61.63-.62.2-.68.21-.81.21-.39,0-1.38-.73-1.38-1.75,0-.17.03-.25.06-.39.54.66.93.93,1.77.93.09,0,4.16-.34,4.93-.38.92-.04,2.23-.1,2.7-.25.5-.15.54-.17.63-.17.31,0,1.51.53,1.51,1.11,0,.22-.13.42-.38.42Zm-2.7-5.9c-.33.03-1.5.11-2.31.15-.87.04-1.72.09-2.68.32-.11.03-.18.03-.27.03-.38,0-1.31-.33-1.38-1.47.27.18.79.53,1.85.53.49,0,2.65-.11,3.73-.41.13-.03.75-.27.88-.27.29,0,1.2.22,1.2.69,0,.36-.27.39-1.02.43Z"/><path class="cls-2" d="m63.46,33.25c-.25,0-.43-.18-.91-.66-1.05-1.06-1.89-1.45-2.46-1.71,1.8-.12,3.93.53,3.93,1.77,0,.33-.25.6-.56.6Zm1.31,5.14c-.32.24-1.73,1.26-1.98,1.52-.08.08-.41.45-.48.52-.06.06-.18.09-.25.09-.52,0-1.51-1.26-1.51-1.97,0-.27.09-.49.15-.66.34.67.78.99,1.09.99.5,0,2.82-1.72,3.46-2.22,2.42-1.84,3.57-3.13,4.79-4.53l.08.04c-.36,1.09-2.04,3.67-5.34,6.21Z"/><path class="cls-2" d="m71.05,41.64c3.23-1.8,6.28-5.08,7.68-8.62-.6.06-1.62.23-2.25.3-.08.01-.41.06-.48.06-.26,0-.6-.17-.77-.25-.96,1.21-1.86,2.37-3.97,3.48l-.07-.12c2.46-2.25,3.91-4.93,3.91-5.43,0-.15-.03-.27-.82-.75.36-.12.69-.12.73-.12.6,0,1.7.69,1.7,1.08,0,.17-.06.21-.35.48-.21.2-.3.31-.73.88.66.08,2.55-.13,2.94-.27.13-.04.66-.45.79-.45s1.25.88,1.25,1.18c0,.12-.04.15-.46.35-.34.16-.48.28-.81.93-1.34,2.58-2.6,4-3.86,5.05-.62.51-2.37,1.88-4.39,2.33l-.03-.11Zm10.56-9.84c0,.21-.11.44-.39.44-.18,0-.29-.08-.48-.3-.54-.63-.9-1.08-1.74-1.65,1.37.12,2.61.71,2.61,1.51Zm1.44-.71c0,.39-.25.39-.36.39-.17,0-.2-.03-.84-.65-.12-.12-.72-.71-1.53-1.06,1.16.03,2.73.3,2.73,1.32Z"/><path class="cls-2" d="m176.89,112.44l-4.2-7.47c-.8-1.42-2.78-2.58-4.41-2.58h-7.36v-2.83c2.72-.68,4.51-1.81,4.51-3.09v-38.7c0-1.41-.97-2.56-2.17-2.56h-1.97v-21.01c0-1.41-1.15-2.56-2.56-2.56h-.56V13.37c0-1.74-1.41-3.16-3.16-3.16s-3.16,1.41-3.16,3.16v18.27h-.56c-1.41,0-2.56,1.15-2.56,2.56v21.01h-1.97c-1.19,0-2.17,1.15-2.17,2.56v38.7c0,1.28,1.79,2.41,4.51,3.09v2.83h-7.36c-1.63,0-3.61,1.16-4.41,2.58l-4.2,7.47c-.8,1.42-.12,2.58,1.51,2.58h40.73c1.63,0,2.31-1.16,1.51-2.58Zm-24.47-77.11h5.19v19.89h-5.19v-19.89Zm-4.14,23.56h13.48v7.38h-13.48v-7.38Zm0,11.06h13.48v16.55h-13.48v-16.55Zm0,25.47v-5.25h13.48v5.25c-1.05.5-3.46,1.13-6.74,1.13s-5.69-.63-6.74-1.13Zm-9.84,15.65l2.33-4.15c.16-.23.72-.55,1-.58h26.49c.28.03.83.36,1,.58l2.33,4.15h-33.15Z"/><circle class="cls-2" cx="155.02" cy="39.6" r="1.43" transform="translate(114.6 194.41) rotate(-89.7)"/><circle class="cls-2" cx="155.02" cy="46.13" r="1.43" transform="translate(108.11 200.92) rotate(-89.71)"/><path class="cls-2" d="m107.18,84.45h-5.75c-.76,0-1.37-.6-1.37-1.33v-48.33c-.01-.73.6-1.33,1.35-1.33h5.75c.76,0,1.37.6,1.37,1.33v48.33c.01.73-.6,1.33-1.35,1.33Zm-4.38-2.65h3.02s-.01-45.68-.01-45.68h-3.02s.01,45.68.01,45.68Z"/><path class="cls-2" d="m128.63,103.62c-.2-.75-.68-1.27-1.06-1.68-.16-.18-.33-.36-.4-.49-.34-.76-.41-1.63-1.14-2.35-.54-.54-1.2-.75-1.74-.92-.23-.07-.47-.15-.61-.23-.13-.07-.31-.24-.48-.41-.41-.39-.93-.87-1.68-1.07-.72-.19-1.4-.04-1.94.08-.52.13-.92.18-1.34-.04-.87-.49-2.61-.49-3.49,0-.38.21-.97.21-1.36,0-.87-.49-2.61-.49-3.49,0-.38.21-.97.21-1.36,0-.35-.2-.85-.31-1.37-.35v2.68c.11.03.21.06.3.11.87.49,2.61.49,3.49,0,.38-.21.97-.21,1.36,0,.87.49,2.61.49,3.49,0,.38-.21.97-.21,1.35,0,.36.16.86.38,1.74.38.46,0,.88-.09,1.24-.18.23-.05.57-.13.67-.1.11.03.38.28.56.45.27.25.57.53.96.76.39.23.79.35,1.15.46.22.07.58.18.65.26.08.08.19.44.26.66.11.36.24.76.46,1.15.22.39.5.69.76.96.16.18.41.45.44.56.02.11-.05.45-.1.68-.08.37-.17.78-.18,1.24,0,0,0,0,0,0,0,.46.09.88.18,1.24.05.23.13.57.1.68-.03.11-.28.38-.44.56-.25.27-.53.58-.75.96-.23.39-.35.79-.46,1.15-.07.22-.18.58-.26.66-.08.08-.44.19-.65.26-.35.11-.76.24-1.15.46-.39.22-.69.51-.96.76-.18.17-.45.42-.56.45-.11.02-.45-.05-.68-.11-.37-.08-.78-.18-1.24-.18-.87,0-1.36.22-1.71.39-.36.2-.87.2-1.23,0-.36-.16-.84-.39-1.72-.39-.87,0-1.36.22-1.71.39-.36.2-.87.2-1.23,0-.86-.5-2.57-.5-3.43,0-.36.2-.87.2-1.23,0-.88-.52-2.63-.48-3.5-.02-.4.22-1.11.22-1.51,0-.37-.16-.88-.37-1.78-.37-.9,0-1.41.21-1.78.37-.4.22-1.11.22-1.51,0-.37-.16-.88-.37-1.78-.37-.9,0-1.41.21-1.78.37-.4.22-1.11.22-1.51,0-.37-.16-.88-.37-1.78-.37-.46,0-.88.09-1.24.18-.23.05-.57.13-.68.1-.11-.03-.38-.28-.56-.45-.27-.25-.57-.53-.96-.76-.39-.23-.79-.35-1.14-.46-.22-.07-.58-.18-.65-.26-.08-.08-.19-.44-.26-.66-.11-.36-.24-.76-.46-1.15-.22-.39-.51-.69-.75-.96-.16-.18-.41-.45-.44-.56-.02-.11.05-.45.1-.68.08-.37.18-.78.18-1.24,0,0,0,0,0,0,0-.46-.09-.88-.18-1.24-.05-.23-.13-.57-.1-.68.03-.11.28-.38.44-.56.25-.27.53-.58.75-.96.23-.39.35-.79.46-1.15.07-.22.18-.58.26-.66.08-.08.44-.19.65-.26.35-.11.75-.24,1.15-.46.38-.22.69-.51.96-.76.18-.17.45-.42.56-.45.11-.02.45.05.68.1.37.08.78.18,1.24.18.89,0,1.39-.22,1.75-.38.38-.21,1.01-.21,1.39,0,.87.49,2.62.49,3.5,0,.38-.21,1.01-.21,1.39,0,.88.49,2.62.49,3.5,0,.06-.03.13-.05.19-.07v-2.72c-.48.05-.92.16-1.25.34-.38.21-1.01.21-1.39,0-.88-.49-2.62-.49-3.5,0-.38.21-1.01.21-1.39,0-.88-.49-2.62-.49-3.5,0-.42.22-.84.18-1.36.04-.54-.12-1.22-.27-1.94-.08-.75.2-1.26.68-1.68,1.07-.17.16-.36.33-.48.4-.13.08-.37.15-.61.23-.53.17-1.2.38-1.74.92s-.75,1.21-.91,1.74c-.07.23-.15.47-.23.61-.07.13-.24.31-.4.49-.38.42-.86.93-1.06,1.68-.16.62.17,1.21.02,1.69-.19.64-.17,1.19,0,1.83.36,1.31.12,2.5,1.04,3.38.16.18.33.36.4.49.08.13.15.38.23.61.17.54.37,1.2.91,1.75.54.54,1.2.75,1.74.92.23.07.47.15.61.23.13.07.31.24.48.41.41.39.93.86,1.68,1.07.72.19,1.4.04,1.94-.08.53-.14.99-.16,1.42.05.37.16.88.37,1.78.37.9,0,1.41-.21,1.78-.37.4-.22,1.11-.22,1.51,0,.37.16.88.37,1.78.37.9,0,1.41-.21,1.78-.37.4-.22,1.11-.22,1.51,0,.37.16.88.37,1.78.37.9,0,1.41-.21,1.78-.37.37-.19.98-.24,1.37-.02.86.5,2.57.5,3.43,0,.36-.2.87-.2,1.23,0,.86.5,2.57.5,3.43,0,.36-.2.87-.2,1.23,0,.36.16.84.39,1.72.39.87,0,1.36-.22,1.72-.39.41-.22.78-.15,1.28-.03.54.12,1.22.27,1.94.08.75-.2,1.26-.68,1.68-1.07.18-.16.36-.33.48-.4.75-.34,1.62-.41,2.35-1.14.54-.54.75-1.21.91-1.75.07-.23.15-.47.23-.61.07-.13.24-.31.4-.48.38-.42.86-.93,1.06-1.68.16-.62-.17-1.21-.02-1.7.19-.64.19-1.19,0-1.83-.15-.48.19-1.08.02-1.69Z"/><path class="cls-2" d="m115.29,100.91h-8.1s0,2.12,0,2.12h8.1c2.75,0,4.67,1.4,4.67,2.66,0,1.26-1.92,2.66-4.67,2.66h-21.96c-2.75,0-4.67-1.41-4.67-2.67,0-1.26,1.92-2.66,4.67-2.66h8.1s0-2.12,0-2.12h-8.1c-3.81,0-6.79,2.1-6.79,4.78,0,2.68,2.98,4.78,6.79,4.78h21.96c3.81,0,6.79-2.09,6.78-4.77,0-2.68-2.98-4.78-6.79-4.78Z"/><path class="cls-2" d="m107.19,105.16c-.76,0-1.37-.59-1.37-1.32v-22.05s-3.02,0-3.02,0v22.05c0,.73-.61,1.32-1.36,1.32-.76,0-1.37-.59-1.37-1.32v-23.38c0-.73.61-1.32,1.36-1.32h5.75c.76,0,1.37.59,1.37,1.33v23.38c0,.73-.61,1.32-1.36,1.32Z"/><path class="cls-2" d="m108.24,42.75c-.08.01-.15.02-.23.02h-7.43c-.73,0-1.33-.6-1.33-1.33v-19.17c0-1.34.52-2.6,1.47-3.55.95-.94,2.22-1.47,3.56-1.46,2.78,0,5.04,2.25,5.04,5.01v19.17c0,.35-.13.69-.38.94-.19.19-.44.32-.71.37Zm-6.33-2.63h4.77s0-17.85,0-17.85c0-1.3-1.07-2.36-2.39-2.36-.64,0-1.24.25-1.69.69-.45.45-.7,1.04-.7,1.67v17.85Z"/><path class="cls-2" d="m219.68,84.76c-3.12-3.02-6.59-5.05-10.05-5.96,1.56-.81,2.82-1.83,3.7-3.02,1.72-2.34,2.07-5.34,2.05-7.45,0-.53-.22-.98-.6-1.27-.39-.3-.91-.35-1.38-.21-4.58,1.33-7.83,4.26-8.4,9.51-.21-2.28-.86-4.26-1.95-5.73-1.72-2.34-4.48-3.55-6.49-4.15-.47-.14-.99-.09-1.38.21-.38.28-.6.73-.6,1.27-.08,4.77,1.75,8.72,6.51,10.82-3.47.9-6.95,2.94-10.08,5.97-5.23,5.06-8.54,11.87-8.64,17.77v.03c.08,5.07,2.68,9.16,7.52,11.83,3.94,2.17,9.38,3.37,15.33,3.37h.25c5.95,0,11.4-1.2,15.34-3.37,4.84-2.66,7.44-6.75,7.52-11.83v-.03c-.1-5.9-3.41-12.71-8.64-17.77Zm-14.76-6.62s.02.07.03.11c-.02,0-.05,0-.07,0,.02-.04.03-.08.04-.11Zm.8,3.62c-.51-.28-1.13-.25-1.62.07-1.12.75-1.96,1.68-2.71,2.48-.92.99-1.7,1.8-2.67,1.89-.99-1.01-.13-2.33,1.31-3.61,1.08-.96,2.5-1.9,3.71-2.67.47-.04.94-.07,1.4-.07.09,0,.18,0,.27,0,.11,0,.19,0,.27,0,.2,0,.4,0,.61.01.57.3,1.15.65,1.72,1.04,1.06.73,2.06,1.6,2.79,2.48.77.59,1.61,1.7,1.89,2.53.28.83,0,1.4-1.46.9-1.03-1.13-1.82-2.12-2.74-3.02-.76-.74-1.6-1.41-2.76-2.05Zm13.56,20.2c0-1.59.84-2.78,1.87-2.78s2.09,1.19,2.09,2.78-1.07,2.6-2.09,2.6-1.87-1.01-1.87-2.6Z"/></svg>