<?xml version="1.0" encoding="UTF-8"?><svg id="_レイヤー_1" xmlns="http://www.w3.org/2000/svg" viewBox="0 0 826.35 217.08"><defs><style>.cls-1{fill:#fff;}.cls-2{fill:#0c3388;}.cls-3{fill:none;stroke:#1b4e73;stroke-miterlimit:10;stroke-width:2.76px;}.cls-4{fill:#3d5ca0;}.cls-5{fill:#9eadcf;}</style></defs><path class="cls-2" d="m77.2,2.76v211.3H2.76V2.76h74.44m2.76-2.76H0v216.82h79.96V0h0Z"/><path class="cls-2" d="m47.51,28.53c1.35,0,1.5,0,1.92-.51,1.2-1.5,1.35-1.65,1.74-1.65.3,0,.48,0,2.58,1.86.48.42.72.63.72.87,0,.42-.18.42-1.65.42h-20.64c-2.52,0-3.42.06-3.78.09-.09,0-.54.06-.63.06-.12,0-.18-.09-.27-.18l-.63-.84c-.03-.06-.15-.21-.15-.27s.09-.06.12-.06c.15,0,1.08.12,1.26.12.96.09,3.3.09,4.17.09h15.24Z"/><path class="cls-2" d="m33.56,50.73c-2.64,0-3.48.06-3.78.09-.12,0-.51.06-.63.06s-.18-.06-.27-.18l-.57-.69c-.06-.06-.15-.15-.15-.21,0-.03.06-.06.12-.06.21,0,1.11.09,1.32.09,1.47.09,2.7.12,4.11.12h5.04c.9,0,.9-.48.9-1.53,0-.87-.12-1.35-.21-1.74-.03-.18-.15-.42-.15-.54s.12-.15.24-.15c.18,0,1.71.39,1.98.45.66.18,1.17.33,1.17.63,0,.15-.48.66-.54.78-.15.27-.21.6-.21.99,0,.69,0,1.11.9,1.11h5.19c.84,0,1.23,0,1.44-.09.33-.15,1.29-1.68,1.62-1.68.27,0,2.73,1.86,2.73,2.16,0,.39-.63.39-1.59.39h-6c-.18,0-.3,0-.3.18,0,.12.03.15.36.42.54.42.57.51.57.63,0,.27-.21.36-.9.6-.24.18-1.14.84-2.19,1.65-.36.3-.42.36-.42.51,0,.48,3.93,1.56,4.77,1.74,1.62.36,3.81.63,5.46.66.15,0,.72.03.72.18,0,.09-1.23.78-1.53,1.02-.3.24-.75.75-1.11,1.29-.09.15-.24.21-.42.21-.36,0-4.71-1.35-8.76-3.57-.45-.24-.63-.33-.87-.33-.36,0-.54.12-.93.33-4.77,2.73-10.53,3.66-13.71,3.66-.06,0-.27-.03-.27-.09,0-.09.06-.09.78-.27,3.6-.9,7.47-1.89,11.19-4.17.81-.48.9-.54.9-.78,0-.15-.09-.21-.84-.81-.51-.45-1.92-1.89-2.67-2.67-.3-.3-.54-.39-1.02-.39h-1.47Zm11.91,11.28c.51,0,.84-.09.84-.66,0-.12-.03-.36-.03-.57,0-.18-.18-1.38-.18-1.47,0-.12.09-.15.15-.15s1.89.57,2.13.66c.36.12.51.15.51.39,0,.09-.24.54-.3.66-.12.39-.12.93-.12,2.4,0,3.3.09,4.98.12,5.67.03.42.18,2.61.18,2.94,0,.63-.24,1.29-1.38,1.29-.09,0-.81,0-.93-.84-.06-.39,0-3.84,0-4.56,0-.87-.54-.87-.99-.87h-9.78c-.66,0-.96.06-1.17.57-.45,1.14-1.08,2.79-3.39,4.05-1.92,1.08-3.93,1.47-4.02,1.47l-.09-.06c.21-.24,1.56-.93,1.83-1.11,4.26-2.64,4.26-6.09,4.26-9.03,0-.63-.06-1.77-.06-2.1,0-.18-.15-.9-.15-1.02s0-.33.3-.33c.18,0,2.37.54,2.37,1.08,0,.12-.18.39-.27.54-.09.15-.12.27-.12.45,0,.45.15.6.78.6h9.51Zm-.03,4.08c.63,0,1.02-.12,1.02-.78,0-2.28,0-2.52-1.11-2.52h-9.24c-.36,0-.81,0-.96.39-.06.15-.21,2.07-.21,2.16,0,.75.51.75,1.02.75h9.48Zm-8.13-15.36c-.12,0-.42,0-.42.24,0,.45,3.33,2.7,4.08,2.7s3.03-2.1,3.03-2.61c0-.33-.3-.33-.54-.33h-6.15Z"/><path class="cls-2" d="m40.4,85.23c0,.99-2.28,1.89-3,2.19-.42.15-.45.27-.51,1.32-.06.66-.06,3.09-.06,3.24,0,.18,0,.54.27.54.09,0,2.55-1.02,3.03-1.2,2.97-1.11,4.32-1.2,5.1-1.2,2.19,0,4.62,1.71,4.62,4.53,0,3.96-4.17,5.76-6.63,5.76-1.71,0-3.09-.87-3.09-2.43,0-1.41,1.23-2.37,1.5-2.37.09,0,.15.09.15.15,0,.09-.06.15-.12.24-.09.12-.27.36-.27.81,0,1.44,1.65,1.44,1.95,1.44,1.98,0,4.5-1.32,4.5-3.72,0-2.13-1.59-3.3-2.88-3.3-.84,0-2.7.39-6.21,2.25-1.68.9-1.86.99-1.86,1.5,0,.33.09,1.68.09,1.98,0,1.38-.45,3.36-1.53,3.36-.81,0-1.14-.63-1.38-1.11-.96-1.86-1.11-1.86-1.5-1.86-.27,0-.57.12-.75.18-.18.09-.93.6-1.14.6-.33,0-1.86-.9-1.86-1.89,0-.54.33-1.17.87-1.17.18,0,1.05.15,1.23.15.81,0,1.35-.15,3.12-1.02,1.53-.75,1.71-.84,1.71-1.68,0-.69-.03-3.24-.06-3.75,0-.21-.09-.66-.42-.66-.36,0-1.2.21-1.38.27-1.53.51-1.68.57-2.13.57-1.02,0-2.16-2.07-2.16-2.28,0-.15.12-.21.24-.21.09,0,.45.12.54.12.54.09.99.15,1.38.15,1.08,0,3.63-.72,3.81-.9.15-.21.3-2.94.3-3.27,0-.93-.15-1.53-.99-2.4-.06-.06-.42-.42-.42-.48,0-.27.48-.33.66-.33,2.01,0,3.09,1.47,3.09,2.04,0,.27-.57,1.35-.63,1.56-.03.21-.3,1.41-.3,1.95,0,.12.06.33.24.33.21,0,1.05-.33,1.05-.75,0-.06-.15-.36-.15-.42,0-.03.06-.09.12-.12.42-.06,1.86.36,1.86,1.29Zm-6.84,11.49c0,.45.81,1.41,1.26,1.41.42,0,.84-.84.84-2.31,0-.12,0-.42-.09-.48-.09,0-2.01.96-2.01,1.38Zm19.71-9.33c0,.63-.36,1.44-.99,1.44-.18,0-.87-.06-1.02-.06-.15.03-.78.21-.9.21-.06,0-.15-.03-.15-.15,0-.06.09-.21.09-.24.06-.18.12-.33.12-.54,0-1.2-1.5-1.62-2.52-1.62-.48,0-.75.12-1.17.3-.12.06-.21.09-.3.09s-.12-.03-.12-.12c0-.21,1.26-1.89,3.24-1.89,2.31,0,3.72,1.2,3.72,2.58Z"/><path class="cls-2" d="m31.94,122.04c-.75,0-.84.21-.9,1.05-.09.93-.9,1.38-1.74,1.38-.15,0-.66-.06-.66-.54,0-.15.24-1.44.27-1.71.15-.87.75-4.95.75-7.44,0-.81,0-.9.18-.9.15,0,1.71.75,2.07.87.3.06.78.12,1.08.12h4.62c.81,0,.81-.48.84-.75.03-.78.06-1.92.06-3.42,0-.48-.09-.93-.87-.93h-3.78c-.72,0-2.76,0-3.81.06-.09.03-.51.09-.63.09-.09,0-.15-.09-.27-.21l-.57-.69q-.12-.15-.12-.18c0-.06.06-.09.09-.09.21,0,1.11.09,1.32.12.87.03,2.43.09,4.14.09h3.36c.24,0,.45-.03.66-.15s1.02-1.08,1.29-1.08c.18,0,2.19,1.26,2.19,1.92,0,.27-.15.42-.48.75-.21.21-.3.39-.36.63-.09.69.03,4.02.03,4.77,0,.84-.99,1.41-1.59,1.41s-.63-.36-.72-.99c-.06-.57-.66-.57-.84-.57h-4.92c-.66,0-.75.3-.78.48-.06.18-.54,3.84-.54,4.41,0,.51.12.69.87.69h5.31c.24,0,.45,0,.66-.12.18-.12.87-1.08,1.11-1.08.27,0,2.64,1.83,2.64,2.31,0,.24-.27.42-.48.54-.48.3-.66.48-.75.69-.06.15-.39,2.25-.45,2.58-1.17,7.35-4.89,8.16-6.18,8.16-.15,0-.72,0-.78-.51-.12-.81-.15-.93-.48-1.23-.15-.15-1.11-.72-1.11-.96,0-.15.18-.15.27-.15.24,0,1.86.24,2.22.24.9,0,2.01,0,3.09-2.88.6-1.59,1.08-4.47,1.08-6,0-.57-.3-.78-.87-.78h-5.52Zm19.5-12.51c-.15.54-.21,10.11-.21,11.67,0,1.83.12,9.84.12,11.49,0,1.17-1.35,1.56-1.77,1.56-.72,0-.72-.6-.72-1.05,0-.51.15-2.79.15-3.27.06-2.28.18-13.98.18-15.3,0-1.74-.12-4.65-.21-5.79,0-.18-.18-1.05-.18-1.23,0-.24.06-.3.3-.3.51,0,2.94.81,2.94,1.26,0,.18-.54.81-.6.96Z"/><path class="cls-2" d="m30.92,160.95c.42,1.29.63,1.89.63,2.4,0,.66-.6,1.32-1.32,1.32-1.17,0-1.23-.9-1.32-2.43-.21-3.24-.78-3.72-1.41-4.23-.15-.12-1.02-.51-1.02-.6,0-.06.66-.12.87-.15,1.29-.12,1.5-.48,3.3-3.57,1.23-2.13,1.35-2.37,2.01-3.72.06-.12.57-1.14.72-1.14.06,0,.09.12.09.18,0,.72-2.49,6.93-2.7,7.89-.06.27-.27,1.29-.27,1.83,0,.81.21,1.59.42,2.22Zm-.72-11.52c-.54,0-.66-.12-1.62-1.32-.48-.6-1.14-1.29-1.53-1.59-.3-.27-.51-.51-.51-.63s.33-.12.51-.12c2.16,0,4.02,1.05,4.02,2.52,0,.39-.12,1.14-.87,1.14Zm2.13-7.17c-.6,0-1.02-.51-2.01-1.74-.27-.33-1.14-1.11-1.56-1.38-.42-.24-.45-.27-.45-.33,0-.09.63-.12.81-.12,2.37,0,4.17,1.02,4.17,2.49,0,.54-.42,1.08-.96,1.08Zm10.17-.36c.75,0,.99-.18.99-1.02,0-.45-.03-.96-.09-1.41-.03-.24-.3-1.29-.3-1.5,0-.24.27-.27.42-.27.21,0,2.91.51,2.91,1.05,0,.18-.72.72-.78.9-.12.3-.12.75-.12.93,0,.84.06,1.32.87,1.32h2.91c1.29,0,1.59,0,1.92-.51.66-.99.72-1.11,1.02-1.11.39,0,2.37,1.65,2.37,2.01,0,.39-.54.39-1.59.39h-14.82c-.54,0-.93.06-.93.81,0,.51.06,2.76.06,3.24,0,8.73-.78,12.15-2.46,14.7-.54.84-1.8,2.28-2.07,2.28-.03,0-.06-.03-.06-.06,0-.36.81-1.68.93-1.95,1.71-4.05,1.71-7.2,1.71-14.61,0-2.49-.12-4.26-.33-5.28-.03-.09-.18-.72-.18-.87,0-.09.03-.3.21-.3.24,0,1.14.48,1.47.69.87.51.99.57,1.53.57h4.41Zm-3.72,12.15q-.12-.15-.12-.21s.06-.06.12-.06c.21,0,1.14.09,1.32.12,1.38.06,2.7.09,4.11.09h3.93c.6,0,.72,0,1.11-.42.48-.51.63-.69.9-.69.42,0,2.22,1.8,2.22,2.07,0,.42-.51.48-.84.51-.6.06-.72.24-1.77,1.68-.42.57-1.02,1.32-1.89,2.13-.75.69-.78.72-.78.87,0,.45.48.6,1.56.96,2.01.63,3.9.84,5.19.84.39,0,1.11.03,1.11.18-.15.09-1.74,1.08-1.98,1.26-.33.24-.66.66-.84,1.05-.09.18-.18.36-.3.36-.27,0-1.86-.3-6.27-3.21-.09-.03-.24-.15-.42-.15-.15,0-1.11.51-1.26.57-2.43,1.11-3.3,1.41-6,2.01-.3.06-1.26.24-1.56.24-.09,0-.21,0-.21-.09,0-.12.18-.18.6-.33,2.46-.84,7.08-3.03,7.08-3.72,0-.09-1.26-2.16-1.47-2.58-.18-.36-.78-2.1-.96-2.43-.12-.21-.36-.27-.66-.27-.15,0-.93.12-1.05.12s-.18-.09-.27-.21l-.6-.69Zm5.19-2.28c-.27,0-.54,0-.75.42-.27.54-.45.9-1.08.9-.93,0-.93-.75-.93-1.11,0-.42.06-2.4.06-2.85,0-.57-.06-.99-.87-.99-.18,0-1.17.09-1.29.09s-.18-.06-.27-.18l-.6-.69c-.09-.15-.12-.15-.12-.21s.06-.06.12-.06c.3,0,1.83.12,2.19.12.69,0,.78-.36.78-.84,0-.09-.03-1.11-.06-1.56,0-.12-.12-.69-.12-.81,0-.15.18-.15.27-.15.24,0,2.37.09,2.37.6,0,.09-.33.51-.36.6-.06.12-.12.39-.12,1.14,0,.39,0,1.11.75,1.11h2.28c.87,0,.93-.57.93-.87,0,0-.06-1.44-.06-1.65,0-.12-.15-.75-.15-.87,0-.15.15-.18.27-.18s.99.24,1.2.3c1.29.36,1.44.39,1.44.66,0,.18-.15.33-.51.57-.18.12-.18.54-.18.81,0,.96.15,1.2.66,1.2.3,0,.69-.06,1.05-.57.63-.93.69-1.05.96-1.05.33,0,2.58,1.68,2.58,2.01,0,.42-.6.42-1.59.42h-2.61c-.81,0-.93.33-.93.87,0,.39.09,2.46.09,2.55,0,.87-.81,1.11-1.26,1.11-.57,0-.69-.18-.93-.54-.18-.3-.42-.3-.63-.3h-2.58Zm-1.23,3.03c-.57,0-.87,0-.87.36,0,.66,2.61,3.99,3.36,3.99.63,0,3.21-3.27,3.21-3.99,0-.36-.33-.36-.72-.36h-4.98Zm1.23-6.72c-.54,0-.72.18-.72,1.44s.18,1.47.72,1.47h2.49c.54,0,.75-.18.75-1.44s-.21-1.47-.75-1.47h-2.49Z"/><path class="cls-2" d="m36.23,192.12c-.18,0-.81,0-.87.63-.06.78-.12,1.62-1.44,1.62-.99,0-1.05-.6-1.05-1.11,0-.12.18-6.12.18-7.26,0-3.27,0-10.41-.24-13.44-.03-.27-.18-1.53-.18-1.8,0-.15.03-.24.18-.24.12,0,.27.06,1.41.63.84.39.99.42,1.5.42h9.18c.63,0,.87,0,1.08-.3.45-.63.57-.78.87-.78.42,0,2.61,1.41,2.61,1.86,0,.21-.15.33-.66.78-.39.3-.54.51-.54,1.95,0,3.21.03,3.75.06,6.39.03,1.71.24,9.3.24,10.86,0,1.05-.69,1.65-1.5,1.65-.09,0-.87,0-.96-1.14-.03-.51-.03-.72-.63-.72h-9.24Zm9-10.89c.87,0,.87-.57.87-.96,0-.36-.09-7.35-.15-7.5-.18-.39-.57-.39-.75-.39h-9.27c-.42,0-.66.27-.69.45-.06.24-.06,6.75-.06,7.29,0,.57.03,1.11.84,1.11h9.21Zm-.03,10.08c.27,0,.81,0,.87-.63.03-.18.03-6.84.03-7.53,0-.63-.06-1.14-.87-1.14h-9.18c-.78,0-.87.45-.87,1.05,0,.99.09,5.82.09,6.9,0,.96.09,1.35.9,1.35h9.03Z"/><line class="cls-3" x1="79.96" y1="113.66" x2="785.76" y2="113.66"/><circle class="cls-1" cx="229.34" cy="113.13" r="102.79"/><path class="cls-2" d="m229.34,11.5c56.04,0,101.62,45.59,101.62,101.62s-45.59,101.62-101.62,101.62-101.62-45.59-101.62-101.62S173.31,11.5,229.34,11.5m0-2.33c-57.41,0-103.95,46.54-103.95,103.95s46.54,103.95,103.95,103.95,103.95-46.54,103.95-103.95S286.75,9.18,229.34,9.18h0Z"/><path class="cls-2" d="m150.95,102.72c.46.23.59.4.59.63,0,.4-.17.43-1.42.76-1.02,1.02-5.15,5.88-6.07,6.8.3-.03,2.84-.17,4.29-.36-.59-1.02-.96-1.39-1.35-1.78l.13-.17c2.34.66,4.95,2.21,4.95,4.06,0,.76-.46,1.49-1.35,1.49-1.09,0-1.29-.56-1.49-1.16-.07-.23-.4-1.29-.46-1.52l-2.61.63c0,1.09.07,6.83.07,7,.07,1.95.2,5.54.2,5.84,0,.43,0,1.65-1.82,1.65-1.09,0-1.09-.63-1.09-.99,0-.3.03-.66.03-.99.13-4.85.13-5.54.17-11.95-.69.13-3.5.79-3.83.89-.17.2-.33.36-.46.56-.16.26-.26.46-.53.46-.4,0-.56-.36-.63-.69l-.76-3.1c.92.2,1.55.23,2.94.23.86,0,1.72-.03,2.51-.07,1.82-2.58,4.26-7.29,4.69-8.52.13-.43.17-.89.17-1.32l3.14,1.62Zm-13.04,21.78c.53-1.39,2.14-5.74,2.14-10.03l2.87,1.12c.3.1.53.26.53.53,0,.33-.36.5-.92.76-.96,2.87-1.98,4.79-4.42,7.72l-.2-.1Zm1.06-21.68c2.01.4,2.94.83,3.04.89.89-2.05,2.08-5.38,2.01-7.46l3.37,1.68c.16.07.46.26.46.56,0,.46-.53.56-1.22.69-1.91,2.31-2.14,2.57-4.12,4.75,1.06.56,2.08,1.49,2.08,2.71,0,.76-.46,1.75-1.52,1.75-.92,0-1.09-.33-1.91-2.15-.53-1.19-1.02-1.95-2.28-3.23l.1-.2Zm7.69,12.38c2.87,1.12,5.02,2.34,5.02,4.46,0,1.25-.92,1.75-1.58,1.75-1.09,0-1.32-.89-1.78-2.48-.33-1.06-1.09-2.64-1.78-3.56l.13-.17Zm15.45-10.46l1.16-1.02c.23-.23.36-.33.53-.33s.26.07.56.33l1.52,1.25c.2.17.36.3.36.56s-.89,1.09-1.12,1.29c-.03.5-.07,1.29-.26,8.35-.03.59-.3,8.22-3.83,10.46-.66.43-1.91.92-3.3.89-.3-2.18-2.11-3.53-2.87-4.09l.1-.26c1.98.53,3.86.73,4.36.73.63,0,1.12,0,1.98-2.31,1.29-3.4,1.22-11.25,1.12-15.05h-8.25c-1.65,2.84-2.84,3.99-3.46,4.62l-.2-.13c2.84-5.71,3.37-10.92,3.37-11.98,0-.46-.07-.92-.13-1.42l3.83,1.68c.36.17.5.33.5.53,0,.3-.13.36-1.32.86-.96,2.81-1.91,4.59-2.14,5.05h7.52Zm-8.78,6.21c4.39,1.52,5.05,2.9,5.05,4.19,0,1.19-.86,1.65-1.58,1.65-1.06,0-1.35-.79-1.75-2.05-.3-.89-.76-2.21-1.85-3.63l.13-.17Z"/><path class="cls-2" d="m187.65,117.35c0,3.96-3.76,7.33-8.85,7.33-4.79,0-7.46-2.97-7.46-4.98,0-1.19,1.06-2.11,2.28-2.11.96,0,2.08.69,2.08,2.08,0,.26-.03.73-.23,1.19-.13.3-.26.59-.26.89,0,1.88,2.71,1.88,3,1.88,3.56,0,5.31-2.81,5.31-5.81,0-3.96-2.84-6.17-5.35-6.17-.17,0-1.12.17-1.32.17-.43,0-.82-.13-.82-.66,0-.43.3-.79.86-.79.2,0,1.16.17,1.35.17,2.54,0,4.62-1.91,4.62-5.21,0-2.74-1.52-4.88-4.06-4.88-1.78,0-2.71.92-2.71,2.01,0,.26.4,1.42.4,1.95,0,1.22-1.09,1.82-2.11,1.82-1.12,0-2.15-.79-2.15-1.91,0-2.15,2.54-4.92,7.23-4.92s7.36,2.84,7.36,5.71c0,1.58-1.02,4.49-6.01,5.91,1.85.53,6.83,2.01,6.83,6.37Z"/><path class="cls-2" d="m212.44,114.67c-1.95,0-4.55-.99-6.07-1.58-4.36-1.75-5.64-2.28-7.46-2.28-3,0-5.31,1.82-6.07,2.58l-.49-.46c2.44-3.5,6.07-4.59,7.95-4.59,1.98,0,4.65,1.02,6.07,1.58,4.09,1.65,5.61,2.28,7.46,2.28,3,0,5.31-1.82,6.07-2.57l.5.46c-2.44,3.5-6.07,4.59-7.95,4.59Z"/><path class="cls-2" d="m231.42,108.7c2.9,0,5.74,2.74,5.74,7.46,0,5.51-3.86,8.51-7.03,8.51-3.33,0-7.69-3.27-7.69-11.35,0-6.54,3.17-13.96,9.11-13.96,2.57,0,4.65,1.42,4.65,3.37,0,1.19-.79,2.01-1.91,2.01-1.06,0-2.08-.79-2.08-2.05,0-.17.13-.96.13-1.12,0-.86-.83-1.09-1.42-1.09-1.22,0-4.26,1.32-4.85,11.09,1.95-2.18,3.99-2.87,5.35-2.87Zm-1.25,14.82c2.64,0,3.47-4.09,3.47-6.96,0-3.37-1.16-6.21-3.33-6.21-.3,0-2.34,0-4.26,2.57.1,3.43.3,10.59,4.13,10.59Z"/><path class="cls-2" d="m244.02,124.74c6.44-3.93,7.99-11.09,7.99-12.41,0-.46-.2-.69-.56-.99-.5.07-2.54.4-2.97.4-.69,0-1.06-.3-1.58-.73-1.65,1.98-3.24,3.89-6.14,5.21l-.13-.26c3.5-3.23,6.83-8.91,6.83-10.36,0-.73-.36-.96-1.45-1.52.4-.17.83-.33,1.42-.33,1.49,0,3.37,1.68,3.37,2.24,0,.3-.13.4-.69.83-.3.23-2.08,2.71-2.44,3.2.46.07.76.1,1.32.1,1.22,0,6.37-.43,8.19-.79.3-.07,1.52-.5,1.78-.5.56,0,2.51.79,2.51,1.52,0,.83-1.12.83-1.58.83-.36,0-2.08-.07-2.41-.07-1.39,0-3.17.07-3.83.1,1.09.59,1.48.86,1.48,1.16,0,.2-.66.76-.76.89-.07.13-1.52,4.09-1.88,4.82-2.51,5.02-7.06,6.5-8.35,6.9l-.1-.23Z"/><path class="cls-2" d="m281.79,98.27l1.19-1.19c.17-.17.3-.33.53-.33.17,0,.4.17.53.3l1.91,1.62c.16.13.26.33.26.56,0,.4-.33.66-1.29,1.25-.07,2.9.13,11.92.2,15.25.03.76.13,5.15.13,5.74,0,2.01,0,4.03-4.65,4.72-.36-2.05-1.65-2.74-3.37-3.6l.03-.23c1.25.17,2.67.2,3.14.2,1.45,0,1.65-.1,1.68-1.02.03-.82.1-4.55.13-8.15h-10.3c-.4,4.12-1.85,10.03-8.75,13.27l-.17-.13c5.41-5.91,6.34-10.4,6.34-19.67,0-5.88-.4-8.71-.63-10.43l3.79,1.85h9.27Zm-9.67,7.95c0,3.7-.07,5.15-.13,6.37h10.23v-6.37h-10.1Zm0-7.16v6.37h10.1v-6.37h-10.1Z"/><path class="cls-2" d="m300.14,105.63c-.56.83-1.29,1.92-2.81,3.66.79.56.89.59.89.83,0,.3-.59.66-.96.86-.13,3.24-.13,8.05-.13,11.39,0,.33.03,1.98.03,2.34s0,.73-.33,1.06c-.4.4-1.22.63-1.75.63-.79,0-.99-.33-.99-1.02,0-.2.07-.99.07-1.22.33-5.38.36-6.04.46-12.08-2.41,2.34-3.79,3.07-4.52,3.43l-.16-.2c2.11-2.31,7.56-9.04,8.18-13.24l2.84,2.18c.26.2.4.46.4.63,0,.43-.86.66-1.22.76Zm-.17-6.3c-4.26,4.03-7.53,5.18-9.11,5.71l-.1-.17c1.09-.79,6.34-5.08,7.2-8.61l3.17,1.82c.4.23.46.36.46.56,0,.4-.43.53-1.62.69Zm17.46,26.67c-4.29-.99-6.63-2.67-8.38-4.36-3.76,3-7.06,4.03-10.46,4.32l-.07-.2c4.36-1.48,7.92-4.82,9.01-5.91-1.25-1.72-1.75-3.07-2.08-3.99-1.45,1.88-3.6,3.99-6.87,5.41l-.1-.17c3.17-2.84,5.91-7.76,6.7-9.9-1.32.17-3.56.5-3.96.53-.17.26-.5.86-.83.86-.3,0-.36-.23-.46-.59l-.89-3.23c1.95.5,2.54.59,6.93.53.86-.86,6.04-6.47,6.96-9.41l3.04,1.85c.16.1.4.3.4.56,0,.63-.79.69-1.85.83-.49.43-.82.76-3.73,3.53-1.49,1.39-1.62,1.49-3.3,2.61.56-.03,6.27-.23,7.29-.26-.56-.83-1.48-1.92-2.01-2.51l.13-.13c4.36,1.12,6.24,3.96,6.24,5.35,0,.53-.33,1.58-1.49,1.58-.63,0-1.09-.36-1.35-.89-.17-.4-.99-2.31-1.19-2.74-1.91.46-6.5,1.09-8.78,1.39l1.88.86c.17.1.5.23.5.53,0,.36-.36.56-1.42.66-.26.43-.3.5-.56.92h4.42l1.49-1.29c.23-.2.33-.3.53-.3.17,0,.46.23.53.26l1.72,1.25c.23.13.4.36.4.59,0,.53-1.09.89-1.72,1.09-.53.89-1.55,2.67-3.6,4.72,2.38,1.55,5.18,2.28,8.05,2.28.69,0,1.15-.03,1.55-.07l.03.26c-1.45.82-2.18,1.62-2.71,3.17Zm-7.23-27.06c-.83.89-2.87,3-3.99,3.89,1.29,1.02,1.81,2.08,1.81,2.77,0,.56-.4,1.45-1.45,1.45-.76,0-1.02-.36-1.68-1.65-1.29-2.57-2.11-3.23-2.84-3.89l.07-.13c.69.03,1.68.1,3.2.86.66-1.06,2.01-3.3,2.51-6.01l3.46,1.52c.3.1.5.26.5.53,0,.46-.17.5-1.58.66Zm-3.96,15.88c-.23.3-.23.33-.33.43.89,1.65,1.81,2.74,2.64,3.56,1.68-1.82,2.44-2.94,2.84-3.99h-5.15Z"/><circle class="cls-5" cx="475.87" cy="113.13" r="102.79"/><path class="cls-2" d="m475.87,11.5c56.04,0,101.62,45.59,101.62,101.62s-45.59,101.62-101.62,101.62-101.62-45.59-101.62-101.62S419.84,11.5,475.87,11.5m0-2.33c-57.41,0-103.95,46.54-103.95,103.95s46.54,103.95,103.95,103.95,103.95-46.54,103.95-103.95-46.54-103.95-103.95-103.95h0Z"/><path class="cls-2" d="m422.65,109.69c.49.25.63.42.63.67,0,.42-.18.46-1.51.81-1.09,1.09-5.47,6.24-6.45,7.22.32-.04,3.01-.17,4.56-.39-.63-1.09-1.02-1.47-1.44-1.89l.14-.17c2.49.7,5.26,2.35,5.26,4.31,0,.81-.49,1.58-1.44,1.58-1.16,0-1.37-.6-1.58-1.23-.07-.25-.42-1.37-.49-1.61l-2.77.67c0,1.16.07,7.26.07,7.43.07,2.07.21,5.89.21,6.21,0,.46,0,1.75-1.93,1.75-1.16,0-1.16-.67-1.16-1.05,0-.32.04-.7.04-1.05.14-5.15.14-5.89.18-12.69-.74.14-3.72.84-4.07.95-.17.21-.35.39-.49.6-.18.28-.28.49-.56.49-.42,0-.6-.39-.67-.74l-.81-3.3c.98.21,1.65.25,3.12.25.91,0,1.82-.04,2.67-.07,1.93-2.73,4.52-7.75,4.98-9.05.14-.46.18-.95.18-1.4l3.33,1.72Zm-13.85,23.14c.56-1.47,2.28-6.1,2.28-10.66l3.05,1.19c.32.11.56.28.56.56,0,.35-.38.53-.98.81-1.02,3.05-2.1,5.08-4.7,8.21l-.21-.1Zm1.12-23.04c2.14.42,3.12.88,3.23.95.95-2.17,2.21-5.72,2.14-7.92l3.58,1.79c.17.07.49.28.49.6,0,.49-.56.6-1.3.74-2.03,2.45-2.28,2.73-4.38,5.05,1.12.6,2.21,1.58,2.21,2.88,0,.81-.49,1.86-1.61,1.86-.98,0-1.16-.35-2.03-2.28-.56-1.26-1.09-2.07-2.42-3.44l.1-.21Zm8.17,13.15c3.05,1.19,5.33,2.49,5.33,4.73,0,1.33-.98,1.86-1.68,1.86-1.16,0-1.4-.95-1.89-2.63-.35-1.12-1.16-2.81-1.89-3.79l.14-.18Zm16.41-11.12l1.23-1.09c.25-.25.39-.35.56-.35s.28.07.6.35l1.61,1.33c.21.18.39.32.39.6s-.95,1.16-1.19,1.37c-.04.53-.07,1.37-.28,8.87-.04.63-.32,8.73-4.07,11.12-.7.46-2.03.98-3.51.95-.32-2.31-2.24-3.75-3.05-4.35l.11-.28c2.1.56,4.1.77,4.63.77.67,0,1.19,0,2.1-2.45,1.37-3.61,1.3-11.96,1.19-15.99h-8.77c-1.75,3.02-3.02,4.24-3.68,4.91l-.21-.14c3.02-6.07,3.58-11.61,3.58-12.73,0-.49-.07-.98-.14-1.51l4.07,1.79c.39.18.53.35.53.56,0,.32-.14.39-1.4.91-1.02,2.98-2.03,4.87-2.28,5.37h8Zm-9.33,6.59c4.66,1.61,5.37,3.09,5.37,4.45,0,1.26-.91,1.75-1.68,1.75-1.12,0-1.44-.84-1.86-2.17-.32-.95-.81-2.35-1.96-3.86l.14-.18Z"/><path class="cls-2" d="m446.33,129.98h4.07c2.17,0,4-1.54,4-4.42v-36.54c0-1.68-1.12-3.58-3.09-3.58h-5.4v-2.03c7.29-.28,11.78-2.31,12.76-2.74.28-.14,2.03-.91,2.17-.91.35,0,.42.28.42.7v45.23c0,2.1,1.68,4.28,4.7,4.28h3.37v2.24h-23v-2.24Z"/><path class="cls-2" d="m501.98,115.69l1.4-2c.32-.46.46-.46.53-.46.21,0,.49.25.67.39l2.28,1.96c.28.25.35.42.35.56,0,.35-.32.39-.53.39h-9.68c-.04.74-.04,1.19-.04,1.61,0,.98.07,5.26.07,6.1h7.19l1.89-2.28c.35-.46.42-.46.53-.46.24,0,.53.28.67.39l2.63,2.31c.21.17.35.28.35.53,0,.32-.28.35-.53.35h-12.73c.04,3.05.04,3.72.1,5.44,0,.46.18,2.52.18,2.95,0,.46,0,1.12-.84,1.58-.53.28-1.05.35-1.37.35-1.09,0-1.3-.7-1.3-1.26,0-1.44.32-7.75.32-9.05h-10.45c-2.14,0-2.91.11-3.79.25l-.56-1.3c2.14.21,4.59.21,4.98.21h1.79c.04-.88,0-5.82-.04-7.05,0-1.12-.07-1.72-.38-3.19l3.65,1.68h4.84v-6.84h-6.1c-1.19,1.86-4.91,6.73-8.66,8.59l-.14-.21c3.54-4.24,5.61-8.03,6.73-10.52.91-2.07,1.09-3.19,1.26-4.45l3.72,1.89c.35.18.56.32.56.53,0,.39-.7.63-1.75,1.02-.28.67-.56,1.23-1.19,2.31h14.73l1.44-2.07c.18-.25.32-.42.53-.42.17,0,.25,0,.67.35l2.67,2.07c.21.18.35.35.35.53,0,.35-.32.39-.53.39h-11.36c-.04,2.21-.07,5.19-.07,6.84h4.98Zm-7.85,8.56c0-1.09.03-6.49.03-7.71h-5.19v7.71h5.16Z"/><path class="cls-2" d="m526.94,112.78c-.6.88-1.37,2.03-2.98,3.89.84.6.95.63.95.88,0,.32-.63.7-1.02.91-.14,3.44-.14,8.56-.14,12.1,0,.35.04,2.1.04,2.49s0,.77-.35,1.12c-.42.42-1.3.67-1.86.67-.84,0-1.05-.35-1.05-1.09,0-.21.07-1.05.07-1.3.35-5.72.39-6.42.49-12.83-2.56,2.49-4.03,3.26-4.8,3.65l-.18-.21c2.24-2.46,8.03-9.61,8.7-14.06l3.02,2.31c.28.21.42.49.42.67,0,.46-.91.7-1.3.81Zm-.18-6.7c-4.52,4.28-8,5.51-9.68,6.07l-.11-.18c1.16-.84,6.73-5.4,7.64-9.15l3.37,1.93c.42.25.49.39.49.6,0,.42-.46.56-1.72.74Zm18.55,28.33c-4.56-1.05-7.05-2.84-8.91-4.63-4,3.19-7.5,4.28-11.12,4.59l-.07-.21c4.63-1.58,8.42-5.12,9.57-6.28-1.33-1.82-1.86-3.26-2.21-4.24-1.54,2-3.82,4.24-7.29,5.75l-.11-.18c3.37-3.02,6.28-8.24,7.12-10.52-1.4.18-3.79.53-4.21.56-.17.28-.53.91-.88.91-.31,0-.38-.25-.49-.63l-.95-3.44c2.07.53,2.7.63,7.36.56.91-.91,6.42-6.87,7.4-9.99l3.23,1.96c.18.11.42.32.42.6,0,.67-.84.74-1.96.88-.53.46-.88.81-3.96,3.75-1.58,1.47-1.72,1.58-3.51,2.77.6-.04,6.66-.25,7.75-.28-.6-.88-1.58-2.03-2.14-2.67l.14-.14c4.63,1.19,6.63,4.21,6.63,5.68,0,.56-.35,1.68-1.58,1.68-.67,0-1.16-.39-1.44-.95-.18-.42-1.05-2.45-1.26-2.91-2.03.49-6.91,1.16-9.33,1.47l2,.91c.18.11.53.25.53.56,0,.39-.39.6-1.51.7-.28.46-.32.53-.6.98h4.7l1.58-1.37c.25-.21.35-.32.56-.32.18,0,.49.25.56.28l1.82,1.33c.25.14.42.39.42.63,0,.56-1.16.95-1.82,1.16-.56.95-1.65,2.84-3.82,5.01,2.52,1.65,5.5,2.42,8.56,2.42.74,0,1.23-.04,1.65-.07l.04.28c-1.54.88-2.31,1.72-2.88,3.37Zm-7.68-28.75c-.88.95-3.05,3.19-4.24,4.14,1.37,1.09,1.93,2.21,1.93,2.95,0,.6-.42,1.54-1.54,1.54-.81,0-1.09-.39-1.79-1.75-1.37-2.74-2.24-3.44-3.02-4.14l.07-.14c.74.04,1.79.11,3.4.91.7-1.12,2.14-3.51,2.67-6.38l3.68,1.61c.32.1.53.28.53.56,0,.49-.17.53-1.68.7Zm-4.21,16.87c-.25.32-.25.35-.35.46.95,1.75,1.93,2.91,2.81,3.79,1.79-1.93,2.59-3.12,3.02-4.24h-5.47Z"/><circle class="cls-4" cx="722.41" cy="113.13" r="102.79" transform="translate(11.7 285.06) rotate(-22.5)"/><path class="cls-2" d="m722.41,11.5c56.04,0,101.62,45.59,101.62,101.62s-45.59,101.62-101.62,101.62-101.62-45.59-101.62-101.62,45.59-101.62,101.62-101.62m0-2.33c-57.41,0-103.95,46.54-103.95,103.95s46.54,103.95,103.95,103.95,103.95-46.54,103.95-103.95-46.54-103.95-103.95-103.95h0Z"/><path class="cls-1" d="m665.92,109.69c.49.25.63.42.63.67,0,.42-.18.46-1.51.81-1.09,1.09-5.47,6.24-6.45,7.22.32-.04,3.02-.17,4.56-.39-.63-1.09-1.02-1.47-1.44-1.89l.14-.17c2.49.7,5.26,2.35,5.26,4.31,0,.81-.49,1.58-1.44,1.58-1.16,0-1.37-.6-1.58-1.23-.07-.25-.42-1.37-.49-1.61l-2.77.67c0,1.16.07,7.26.07,7.43.07,2.07.21,5.89.21,6.21,0,.46,0,1.75-1.93,1.75-1.16,0-1.16-.67-1.16-1.05,0-.32.03-.7.03-1.05.14-5.15.14-5.89.18-12.69-.74.14-3.72.84-4.07.95-.17.21-.35.39-.49.6-.17.28-.28.49-.56.49-.42,0-.6-.39-.67-.74l-.81-3.3c.98.21,1.65.25,3.12.25.91,0,1.82-.04,2.66-.07,1.93-2.73,4.52-7.75,4.98-9.05.14-.46.17-.95.17-1.4l3.33,1.72Zm-13.85,23.14c.56-1.47,2.28-6.1,2.28-10.66l3.05,1.19c.32.11.56.28.56.56,0,.35-.39.53-.98.81-1.02,3.05-2.1,5.08-4.7,8.21l-.21-.1Zm1.12-23.04c2.14.42,3.12.88,3.23.95.95-2.17,2.21-5.72,2.14-7.92l3.58,1.79c.18.07.49.28.49.6,0,.49-.56.6-1.3.74-2.03,2.45-2.28,2.73-4.38,5.05,1.12.6,2.21,1.58,2.21,2.88,0,.81-.49,1.86-1.61,1.86-.98,0-1.16-.35-2.03-2.28-.56-1.26-1.09-2.07-2.42-3.44l.11-.21Zm8.17,13.15c3.05,1.19,5.33,2.49,5.33,4.73,0,1.33-.98,1.86-1.68,1.86-1.16,0-1.4-.95-1.89-2.63-.35-1.12-1.16-2.81-1.89-3.79l.14-.18Zm16.41-11.12l1.23-1.09c.25-.25.39-.35.56-.35s.28.07.6.35l1.61,1.33c.21.18.38.32.38.6s-.95,1.16-1.19,1.37c-.04.53-.07,1.37-.28,8.87-.04.63-.32,8.73-4.07,11.12-.7.46-2.03.98-3.51.95-.31-2.31-2.24-3.75-3.05-4.35l.11-.28c2.1.56,4.1.77,4.63.77.67,0,1.19,0,2.1-2.45,1.37-3.61,1.3-11.96,1.19-15.99h-8.77c-1.75,3.02-3.02,4.24-3.68,4.91l-.21-.14c3.02-6.07,3.58-11.61,3.58-12.73,0-.49-.07-.98-.14-1.51l4.07,1.79c.39.18.53.35.53.56,0,.32-.14.39-1.4.91-1.02,2.98-2.03,4.87-2.28,5.37h7.99Zm-9.33,6.59c4.66,1.61,5.36,3.09,5.36,4.45,0,1.26-.91,1.75-1.68,1.75-1.12,0-1.44-.84-1.86-2.17-.32-.95-.81-2.35-1.96-3.86l.14-.18Z"/><path class="cls-1" d="m687.63,130.33c3.86-7.57,5.12-9.89,11.36-17.32,8.98-10.8,12.06-14.52,12.06-21.6,0-3.16-1.61-9.47-8.21-9.47-3.44,0-7.36,1.75-7.36,5.4,0,1.12.28,1.47,1.33,2.95.42.56,1.12,1.75,1.12,3.23,0,2.17-1.61,4.35-4.14,4.35-2.73,0-4.63-2.38-4.63-5.12,0-4.98,4.91-12.97,14.8-12.97,8.91,0,14.66,6.1,14.66,13.33,0,7.64-4.91,11.71-13.04,18.37-3.51,2.95-9.05,7.5-12.9,14.31h13.32c6.94,0,9.75-4.56,11.36-8.63l1.54.56-3.44,14.52h-27.84v-1.89Z"/><path class="cls-1" d="m751.77,115.69l1.4-2c.32-.46.46-.46.53-.46.21,0,.49.25.67.39l2.28,1.96c.28.25.35.42.35.56,0,.35-.32.39-.53.39h-9.68c-.04.74-.04,1.19-.04,1.61,0,.98.07,5.26.07,6.1h7.19l1.89-2.28c.35-.46.42-.46.53-.46.25,0,.53.28.67.39l2.63,2.31c.21.17.35.28.35.53,0,.32-.28.35-.53.35h-12.73c.04,3.05.04,3.72.1,5.44,0,.46.18,2.52.18,2.95,0,.46,0,1.12-.84,1.58-.53.28-1.05.35-1.37.35-1.09,0-1.3-.7-1.3-1.26,0-1.44.32-7.75.32-9.05h-10.45c-2.14,0-2.91.11-3.79.25l-.56-1.3c2.14.21,4.59.21,4.98.21h1.79c.03-.88,0-5.82-.04-7.05,0-1.12-.07-1.72-.39-3.19l3.65,1.68h4.84v-6.84h-6.1c-1.19,1.86-4.91,6.73-8.66,8.59l-.14-.21c3.54-4.24,5.61-8.03,6.73-10.52.91-2.07,1.09-3.19,1.26-4.45l3.72,1.89c.35.18.56.32.56.53,0,.39-.7.63-1.75,1.02-.28.67-.56,1.23-1.19,2.31h14.73l1.44-2.07c.17-.25.32-.42.53-.42.17,0,.25,0,.67.35l2.66,2.07c.21.18.35.35.35.53,0,.35-.32.39-.53.39h-11.36c-.04,2.21-.07,5.19-.07,6.84h4.98Zm-7.85,8.56c0-1.09.03-6.49.03-7.71h-5.19v7.71h5.16Z"/><path class="cls-1" d="m776.73,112.78c-.6.88-1.37,2.03-2.98,3.89.84.6.95.63.95.88,0,.32-.63.7-1.02.91-.14,3.44-.14,8.56-.14,12.1,0,.35.04,2.1.04,2.49s0,.77-.35,1.12c-.42.42-1.3.67-1.86.67-.84,0-1.05-.35-1.05-1.09,0-.21.07-1.05.07-1.3.35-5.72.39-6.42.49-12.83-2.56,2.49-4.03,3.26-4.8,3.65l-.17-.21c2.24-2.46,8.03-9.61,8.7-14.06l3.02,2.31c.28.21.42.49.42.67,0,.46-.91.7-1.3.81Zm-.18-6.7c-4.52,4.28-7.99,5.51-9.68,6.07l-.11-.18c1.16-.84,6.73-5.4,7.64-9.15l3.37,1.93c.42.25.49.39.49.6,0,.42-.46.56-1.72.74Zm18.55,28.33c-4.56-1.05-7.05-2.84-8.91-4.63-4,3.19-7.5,4.28-11.12,4.59l-.07-.21c4.63-1.58,8.42-5.12,9.57-6.28-1.33-1.82-1.86-3.26-2.21-4.24-1.54,2-3.82,4.24-7.29,5.75l-.11-.18c3.37-3.02,6.28-8.24,7.12-10.52-1.4.18-3.79.53-4.21.56-.18.28-.53.91-.88.91-.32,0-.39-.25-.49-.63l-.95-3.44c2.07.53,2.7.63,7.36.56.91-.91,6.42-6.87,7.4-9.99l3.23,1.96c.17.11.42.32.42.6,0,.67-.84.74-1.96.88-.53.46-.88.81-3.96,3.75-1.58,1.47-1.72,1.58-3.51,2.77.6-.04,6.66-.25,7.75-.28-.6-.88-1.58-2.03-2.14-2.67l.14-.14c4.63,1.19,6.63,4.21,6.63,5.68,0,.56-.35,1.68-1.58,1.68-.67,0-1.16-.39-1.44-.95-.18-.42-1.05-2.45-1.26-2.91-2.03.49-6.91,1.16-9.33,1.47l2,.91c.17.11.53.25.53.56,0,.39-.39.6-1.51.7-.28.46-.32.53-.6.98h4.7l1.58-1.37c.25-.21.35-.32.56-.32.17,0,.49.25.56.28l1.82,1.33c.25.14.42.39.42.63,0,.56-1.16.95-1.82,1.16-.56.95-1.65,2.84-3.82,5.01,2.53,1.65,5.51,2.42,8.56,2.42.74,0,1.23-.04,1.65-.07l.04.28c-1.54.88-2.31,1.72-2.88,3.37Zm-7.68-28.75c-.88.95-3.05,3.19-4.24,4.14,1.37,1.09,1.93,2.21,1.93,2.95,0,.6-.42,1.54-1.54,1.54-.81,0-1.09-.39-1.79-1.75-1.37-2.74-2.24-3.44-3.02-4.14l.07-.14c.74.04,1.79.11,3.4.91.7-1.12,2.14-3.51,2.67-6.38l3.68,1.61c.32.1.53.28.53.56,0,.49-.18.53-1.68.7Zm-4.21,16.87c-.25.32-.25.35-.35.46.95,1.75,1.93,2.91,2.8,3.79,1.79-1.93,2.59-3.12,3.02-4.24h-5.47Z"/></svg>