<?xml version="1.0" encoding="UTF-8"?><svg id="_レイヤー_1" xmlns="http://www.w3.org/2000/svg" viewBox="0 0 288.56 56.43"><defs><style>.cls-1{fill:#fff;}</style></defs><path class="cls-1" d="m11.81,10.27c-.98-.33-1.74-.86-2.22-1.25-.05.03-.07.04-.12.08,0,.42.05,2.3.05,2.69,0,.42-.43.52-.58.52-.34,0-.33-.18-.31-.53h-3.87c0,.21,0,.55-.58.55-.33,0-.33-.19-.33-.4,0-.46.04-2.47.04-2.89-.98.73-2.07,1.29-3.24,1.56l-.03-.08c1.48-.81,2.86-1.81,3.98-3.08h-1.98c-.33,0-.95.01-1.54.12l-.26-.51c.88.06,1.82.08,2,.08h2.04c.48-.57.66-.87.85-1.18h-1.62c.01.43-.31.55-.61.55-.23,0-.29-.09-.29-.29,0-.23.03-1.27.03-1.5,0-1.43-.06-1.68-.12-1.91l1.11.52h5.04l.22-.23c.12-.12.18-.18.23-.18s.13.06.18.09l.51.34c.08.05.13.16.13.22,0,.1-.04.14-.31.39,0,.33.05,1.75.05,2.04,0,.35-.43.46-.62.46-.27,0-.27-.16-.26-.49h-2.9l.31.16c.07.03.09.1.09.17,0,.13-.09.17-.43.29-.19.23-.3.36-.49.57h4.78l.56-.64c.09-.09.14-.17.2-.17.09,0,.18.09.25.14l.73.64c.08.08.13.12.13.21,0,.12-.12.13-.21.13h-3.96c1.46,1.35,3.05,1.66,4.29,1.79v.08c-.52.21-.81.75-.91.96Zm.3-8.24h-3.63c0,.1.01.56.01.65,0,.26-.3.38-.58.38q-.31,0-.3-1.03h-2.2c0,.2.01.73-.05.82-.1.13-.36.22-.56.22-.26,0-.26-.18-.26-.38v-.66h-1.65c-.13,0-.94,0-1.53.12l-.26-.52c.87.08,1.75.09,2,.09h1.44c-.01-.78-.04-.91-.17-1.33l1.14.29c.08.03.18.05.18.17,0,.1-.08.16-.29.29v.58h2.18c-.01-.81-.05-.95-.14-1.29l1.14.27c.09.03.2.04.2.16s-.1.19-.33.33v.53h2.08l.48-.58c.08-.09.13-.16.21-.16s.18.08.25.13l.69.58c.07.05.13.1.13.19,0,.12-.1.14-.2.14Zm-2.73,1.6h-5.29v.82h5.29v-.82Zm0,1.13h-5.29v.87h5.29v-.87Zm-1.23,2.68h-2.47c-.43.44-.69.7-1.01.97l.04.03h3.9l.17-.17c-.26-.27-.44-.52-.62-.83Zm.48,1.31h-3.87v1.18h3.87v-1.18Zm0,1.5h-3.87v1.22h3.87v-1.22Z"/><path class="cls-1" d="m17.2,11.53v-.08c1.08-.17,2.11-.55,3.05-1.07.92-.49,1.69-1.12,1.69-2.22,0-.35-.08-1.66-1.64-1.66s-3.21,1.04-4.25,2.61c-.06.1-.16.23-.32.23-.48,0-.69-.77-.69-1.04,0-.21.03-.29.17-.94.13-.6.23-2.17.23-2.73,0-1.18,0-1.86,2.25-2.21.08-.01.12-.03.12-.09s-.04-.09-.35-.3c-.36-.25-.82-.78-.81-1.29.56.46.66.49,1.87,1,.29.12,1.01.42,1.01,1.2,0,.29-.1.4-.27.4-.18,0-.3-.07-.6-.21-.23-.1-.78-.22-1.35-.22-.99,0-1.4.31-1.4.69,0,.13.03.21.29.86.07.18.09.36.09.46,0,.13-.16.65-.18.77-.07.27-.27,1.17-.27,1.77,0,.08.01.3.17.3.08,0,.88-.58,1.05-.69,1.3-.79,2.59-1.04,3.35-1.04,1.78,0,2.54,1.25,2.54,2.26,0,2.14-2.65,3.42-5.75,3.24Z"/><path class="cls-1" d="m29.14,11.66c-2.2,0-2.55-1.01-2.55-3.31,0-.66.16-4.89.16-5.58,0-1.01-.25-1.11-1.05-1.38.3-.33.81-.33.86-.33.64,0,1.42.62,1.42,1,0,.12-.13.62-.16.73-.44,2.24-.48,5.46-.48,5.93,0,1.47,0,2.2,1.43,2.2,1.53,0,4.59-1.33,5.76-2.43l.05.05c-1.03,1.92-3.3,3.12-5.43,3.12Z"/><path class="cls-1" d="m41.71,11.02v-.1c2.77-.99,4.07-2.82,4.07-4.8,0-2.2-1.77-3.5-4.03-3.5-.33,0-.39.01-.53.08.7.38.9.86.9,1.04,0,.14-.04.23-.44,1.08-.83,1.78-2.05,4.39-2.94,5.12-.09.07-.25.14-.42.14-.3,0-.42-.17-.81-.72-.09-.13-.61-.61-.7-.73-.14-.21-.36-.68-.36-1.33,0-2.79,2.37-5.1,5.54-5.1,2.52,0,4.81,1.47,4.81,4.08s-2.11,4.46-5.08,4.72Zm-1.03-8.24c-1.43.23-3.42,2.08-3.42,4.47,0,.88.51,1.86,1.01,1.86.35,0,.86-.92,1.08-1.37,1.3-2.61,1.73-3.46,1.73-4.13,0-.33-.16-.6-.4-.83Z"/><path class="cls-1" d="m54.97,7.84c-.2,0-.36-.17-.57-.39-1.2-1.33-1.87-1.79-2.77-2.13,0,.51-.03,2.77-.01,3.24,0,.34.08,1.83.08,2.13,0,.27,0,1.04-.51,1.04-.43,0-.61-.75-.61-1.09,0-.2.01-.31.09-.87.16-1.03.17-3.08.17-4.19,0-.56-.01-3.15-.12-3.56-.08-.29-.36-.42-1.04-.65.26-.16.57-.31.86-.31.2,0,1.47.27,1.47.69,0,.1-.16.55-.18.65-.14.49-.17,1.99-.18,2.63,1.33.21,2.64.78,3.35,1.4.23.21.39.53.39.87,0,.43-.26.55-.42.55Z"/><path class="cls-1" d="m65.99,5.42c-.25.13-.27.18-.44.57-2.11,5.04-5.6,5.69-6.32,5.76l-.03-.09c.81-.34,4.45-2.39,5.51-6.51-.38.03-4.12.36-4.95.73-.08.04-.39.23-.47.23-.32,0-1.27-.77-1.27-1.55,0-.12.01-.22.09-.44.22.34.66.85,1.35.85.62,0,5.02-.34,5.21-.43.12-.05.48-.47.58-.47.14,0,1.1.69,1.1.99,0,.17-.17.26-.38.36Zm-1.56-2.52c-1,.05-3.11.23-3.41.29-.64.09-.7.1-.91.1-.42,0-1.04-.58-1.04-1.4.57.53.97.61,1.69.61.87,0,2.55-.18,3.09-.43.26-.12.3-.14.42-.14.23,0,1.07.18,1.07.58,0,.26-.17.35-.91.39Z"/><path class="cls-1" d="m76.77,4.19c-.17.09-.2.14-.38.64-.83,2.16-1.6,3.5-2.9,4.67-.96.86-2.38,1.72-3.6,1.96v-.09c1.54-.78,3.11-2.3,3.89-3.38.66-.92,1.65-2.78,1.96-4.33-1.68.03-4.97.51-5.55.75-.05.03-.4.21-.48.21-.1,0-.17-.05-.29-.16-.33-.3-.77-.73-.77-1.27,0-.2.08-.38.13-.53.53.87,1.03.87,1.3.87.18,0,2.51-.22,2.99-.25.56-.03,2.41-.13,2.79-.44.17-.13.21-.16.27-.16.17,0,1.09.96,1.09,1.13,0,.12-.12.18-.47.38Zm1.38-.68c-.2,0-.23-.05-.64-.6-.12-.17-.48-.65-1.27-1.25.91.09,2.22.6,2.22,1.4,0,.18-.1.44-.31.44Zm1.03-.87c-.12,0-.17-.05-.59-.56-.12-.14-.68-.73-1.33-1.12.57.01,2.18.23,2.18,1.22,0,.23-.1.46-.27.46Z"/><path class="cls-1" d="m83.46,4.16c-.03.3-.13,1.64-.16,1.91-.34,2.79-2.01,4.28-3.12,4.73l-.06-.08c2.4-2.26,2.4-5.07,2.4-6.16s-.01-1.08-1-1.34c.21-.14.49-.34.86-.34.34,0,1.22.29,1.22.65,0,.1-.13.53-.14.62Zm3.16,5.37c-.44.31-.48.36-.82.73-.07.06-.18.19-.26.19-.25,0-.83-1.07-.83-1.23,0-.09.16-.48.17-.57.12-.55.12-2.24.12-2.59,0-.48-.01-2.89-.08-3.2-.05-.23-.31-.4-.94-.61.17-.1.43-.27.73-.27.39,0,1.4.39,1.4.78,0,.12-.16.64-.18.74-.13.66-.2,4.3-.2,5.1,0,.05,0,.22.09.22.31,0,2.67-1.5,4.71-4.09l.1.08c-.88,2.13-2.76,3.84-4.02,4.73Z"/><path class="cls-1" d="m94.76,7.7c-.16.65-.46,1.9-.46,2.48,0,.14.07.77.07.9,0,.22-.03.48-.34.48-.53,0-1.38-1.2-1.38-3.83,0-.94.29-2.69.51-4.03.04-.25.08-.58.08-.87,0-.46-.06-.79-.44-1.26.06-.03.12-.05.23-.05.47,0,1.31.73,1.31,1.24,0,.12-.03.23-.17.61-.51,1.3-.91,2.67-.91,4.08,0,.9.22,1.9.43,1.9.08,0,.14-.16.17-.25.14-.44.69-1.95,1.16-2.95l.1.03c-.08.36-.26,1.12-.36,1.53Zm6.25,2.73c-.31,0-2.05-.01-3.19-.36-.78-.25-1.31-1-1.31-1.77,0-.3.06-.42.13-.55.3.99.53,1.74,2.99,1.74.26,0,1.52-.1,1.65-.1.46,0,1,.19,1,.56,0,.42-.46.48-1.27.48Zm-.1-6.88c-1.26.22-2.08.65-2.51.96l-.08-.08c.2-.18,1.14-1.05,1.18-1.09.04-.04.04-.06.04-.1,0-.14-.4-.14-.48-.14-.52,0-1.38.21-2.37.59.7-.94,2.01-1.27,3.22-1.27.81,0,1.73.23,1.73.69,0,.3-.27.38-.74.46Z"/><path class="cls-1" d="m111.84,10.87c-1.86,0-2.33-1.27-2.48-1.72h.07c.26.31.78.96,2,.96.98,0,2.07-.49,2.07-1.79,0-1.48-1.44-1.66-1.9-1.66-1.2,0-2.33.46-3.34,1.09.03.39.14,2.15.14,2.51,0,.87-.48,1.43-.73,1.43-.14,0-.25-.14-.52-.53-.33-.44-.97-1-1.2-1.17-.48.66-.53.74-.69.74-.14,0-.99-.17-.99-1.09,0-.17.01-.29.04-.4.31.3.39.38.56.38.09,0,.13-.03.34-.18,1.39-1.04,1.64-1.24,2.37-1.72-.03-1.68-.03-1.87-.01-2.55-.35.12-.79.26-1.26.26s-1.12-.25-1.26-1.04c.38.25.55.35,1.07.35.46,0,.96-.16,1.47-.34,0-.23.03-.9.03-1.12.01-.34,0-1.17-.09-1.39-.09-.22-.16-.25-.79-.6.31-.22.66-.22.74-.22.42,0,1.3.34,1.3.77,0,.09-.2.68-.21.73-.14.42-.23,1.34-.26,1.55.52-.22.73-.35.88-.47.26-.2.34-.25.61-.25.32,0,.57.18.57.38,0,.27-.08.31-.85.62-.55.22-.92.38-1.27.51-.04.65-.05,1.12-.05,1.3,0,.26,0,.34.04,1.08,1.24-.74,2.61-1.17,3.73-1.17,1.21,0,2.57.65,2.57,2.25,0,1.44-1.16,2.51-2.69,2.51Zm-4.24-1.91c-.01-.31-.01-.53-.01-.73-.68.53-1.13,1.05-1.57,1.66.25.12,1.1.49,1.35.49s.25-.08.25-.81c0-.08-.01-.52-.01-.62Zm6.71-3.85c-.17,0-.22-.01-.66-.22-.08-.04-.18-.04-.26-.04-.27,0-.49.04-1.18.21v-.05c1.09-.75,1.09-.82,1.09-.97,0-.27-.48-.74-1.83-1.12.27-.12.53-.14.87-.14,1.56,0,2.33,1.1,2.33,1.91,0,.1,0,.43-.35.43Z"/><path class="cls-1" d="m122.42,1.57v1.05h3.76l.39-.39c.08-.08.1-.1.17-.1s.09.03.21.13l.82.73c.05.04.08.1.08.2,0,.18-.07.19-.77.32-.09.05-1.18.81-1.33.9l-.06-.08c.12-.31.46-1.17.51-1.39h-3.76c0,.38.05,2.22.05,2.64s-.52.51-.65.51c-.31,0-.31-.27-.31-.39,0-.13.03-.77.03-.91.01-.43.01-.57.01-1.85h-3.5c.04.94-.42,1.77-1.08,1.77-.21,0-.51-.18-.51-.51,0-.27.13-.38.53-.69.43-.35.68-.88.77-1.44h.09c.08.19.13.34.17.56h3.52v-1.05h-2.44c-.35,0-.96.01-1.53.12l-.26-.52c.66.05,1.34.09,2,.09h5.81l.46-.52c.12-.14.14-.17.21-.17.05,0,.1.04.23.14l.69.52c.05.04.13.1.13.19,0,.13-.13.14-.21.14h-4.23Zm2.35,4.85l.22-.35c.04-.07.09-.18.18-.18.1,0,.16.06.23.12l.58.44c.1.08.16.12.16.18,0,.09-.05.13-.09.17-.07.04-.31.22-.36.26,0,.33,0,.84.01,1.43.01.22.09,1.2.09,1.4,0,.47-.52.55-.65.55-.3,0-.3-.18-.3-.52h-2.51c0,.17,0,.96.04,1.04.05.1.17.13.27.14.04.01.52.07,1.79.07,1.39,0,2.01-.01,2.25-.25.16-.16.25-.33.71-2.11h.09c.04.49.09,1.69.38,1.96.14.13.22.2.22.3,0,.12-.08.44-.75.7-.49.18-1.69.22-3.26.22-2.2,0-2.59-.17-2.59-1.03,0-.17.01-.91.01-1.05h-2.54c.01.08.03.42.03.48,0,.52-.49.56-.58.56-.39,0-.39-.27-.39-.42,0-.12.04-.66.04-.78.04-1.21.05-1.98.05-2.43,0-.88-.07-1.21-.12-1.46l1.18.55h5.59Zm-4.59-1.29l.18-.29c.07-.1.12-.18.21-.18.1,0,.16.08.22.16l.21.27c.08.1.1.17.1.21,0,.1-.07.14-.18.14h-1.7c-.07,0-.37,0-.65.05l-.17-.4c.47.03.88.04.98.04h.81Zm-.09-1.24l.17-.27c.05-.08.12-.18.21-.18.08,0,.17.09.22.16l.21.23c.09.09.12.14.12.23,0,.12-.1.14-.19.14h-1.55c-.32,0-.54.03-.65.04l-.18-.4c.48.04.87.05.99.05h.66Zm-1.12,2.83v1.26h2.52v-1.26h-2.52Zm0,1.57v1.3h2.54v-1.3h-2.54Zm5.88-.31v-1.26h-2.52v1.26h2.52Zm0,1.61v-1.3h-2.52v1.3h2.52Zm-.6-5.73l.13-.25c.05-.09.09-.19.21-.19.1,0,.17.08.23.17l.16.22c.08.1.13.17.13.23,0,.12-.12.13-.2.13h-1.2c-.05,0-.35,0-.65.05l-.17-.42c.47.04.88.05.99.05h.36Zm.47,1.25l.14-.22c.07-.1.1-.18.21-.18.06,0,.16.08.22.16l.2.21c.06.07.12.14.12.21,0,.12-.08.14-.17.14h-1.64c-.33,0-.55.04-.65.05l-.18-.4c.53.04.96.04.99.04h.77Z"/><path class="cls-1" d="m133.01,2.85l.34-.51c.08-.13.14-.17.21-.17.08,0,.13.04.25.16l.55.49c.08.07.13.12.13.2,0,.12-.12.14-.2.14h-3.26c-.13,0-.94,0-1.53.12l-.26-.52c.86.08,1.75.09,2,.09h1.78Zm-.58,3.21l.33-.42c.09-.1.13-.16.19-.16.08,0,.14.04.25.14l.44.4c.09.09.12.14.12.2,0,.12-.09.14-.2.14h-2.52c-.35,0-.73.01-1.08.08l-.17-.46c.58.05,1.16.07,1.42.07h1.22Zm-.04-1.6l.34-.4c.09-.12.13-.17.2-.17.08,0,.13.03.25.14l.44.4c.08.06.13.12.13.19,0,.1-.08.14-.19.14h-2.48c-.65,0-.91.04-1.08.08l-.18-.46c.69.05,1.33.06,1.42.06h1.17Zm.23,3.41l.26-.33c.1-.13.14-.16.21-.16.05,0,.1.03.21.1l.56.43c.08.07.14.12.14.2s-.04.1-.34.31c0,.46.03,2.44.03,2.85,0,.64-.48.66-.56.66-.38,0-.38-.18-.36-.83h-1.87c0,.49,0,.55-.01.62-.04.31-.35.47-.59.47-.36,0-.36-.27-.36-.43,0-.39.06-2.13.06-2.48,0-.66-.01-1.4-.12-2.04l1.13.62h1.61Zm-.23-6.62l.33-.44c.09-.12.14-.16.19-.16.07,0,.13.04.23.14l.48.43c.07.06.12.12.12.19,0,.1-.08.14-.19.14h-2.33c-.64,0-.91.04-1.08.08l-.17-.46c.68.05,1.31.06,1.4.06h1.01Zm-1.5,6.93v2.61h1.87v-2.61h-1.87Zm7.79-.95l.36-.48c.05-.08.09-.12.17-.12.05,0,.1.01.21.1l.57.47c.1.08.14.12.14.25,0,.08-.06.13-.4.36-.03.6.09,3.26.09,3.8,0,.26-.09.64-.62.64-.43,0-.42-.26-.39-.96h-3.25c0,.36.01.96-.61.96-.36,0-.36-.25-.36-.39,0-.06.03-.36.03-.43.04-.94.04-2.68.04-3.29,0-.91,0-1.04-.1-1.5l1.09.58h1.05v-2.38h-.97c-.23,0-.91,0-1.53.12l-.26-.52c.82.07,1.61.09,2,.09h.77v-2.42c-.73.13-1.64.26-2.42.22v-.09c1.4-.4,4.11-1.16,4.54-1.85l1.05.74c.08.05.12.1.12.18,0,.16-.16.16-.22.16s-.32-.01-.38-.03c-.34.09-.65.18-1.79.46v2.63h1.7l.56-.64c.09-.1.14-.16.19-.16.07,0,.13.03.25.13l.73.64c.06.05.13.12.13.19,0,.12-.12.14-.21.14h-3.35v2.38h1.09Zm-3.12.31v3.43h3.25v-3.43h-3.25Z"/><path class="cls-1" d="m143.44,11.31v-.42h.81c.73,0,1.03-.23,1.03-.79V3.03c0-.43-.48-.48-.7-.48h-1.12v-.35h.26c1.13,0,2.21-.46,2.39-.55.1-.05.16-.08.21-.08.12,0,.16.08.16.18v8.35c0,.58.34.79,1.03.79h.8v.42h-4.86Z"/><path class="cls-1" d="m153.01,3.48c-.33,0-.95,0-1.53.12l-.26-.52c.88.08,1.81.09,2,.09h3.16c0-.43,0-1.87-.26-2.68l1.4.43c.12.04.18.08.18.17,0,.12-.06.21-.47.42,0,.09-.01,1.11-.03,1.66h3.07l.61-.73c.09-.12.16-.17.22-.17s.14.05.26.14l.95.71c.09.07.13.14.13.21,0,.09-.07.14-.2.14h-4.77c1.01,2.34,3.37,4.8,5.6,5.34v.09c-.53.1-.88.17-1.5.81-1.53-1.14-2.43-2.31-3-3.28-.95-1.6-1.3-2.9-1.31-2.96h-.07c-.01.82-.03,1.38-.03,1.52,0,.57.03,3.09.03,3.61h.78l.46-.55c.09-.1.16-.16.22-.16s.14.05.23.13l.62.53c.09.08.13.14.13.21,0,.08-.08.14-.2.14h-2.25c.01.42.08,2.3.08,2.69,0,.6-.56.65-.69.65-.43,0-.43-.27-.43-.4,0-.39.08-1,.09-1.39.04-.75.05-1.21.05-1.55h-.71c-.33,0-.95,0-1.53.12l-.26-.52c.81.07,1.61.09,2,.09h.51c.01-.58.07-3.74.07-4.09-.83,1.47-2.69,4.15-5.55,5.23l-.04-.08c3.08-2.28,4.79-5.34,5.1-6.19h-2.87Z"/><path class="cls-1" d="m173.61,2.89c-1.66,0-2.16,0-3.03.52-1.21.71-2.2,2.39-2.2,3.87,0,2.17,2.29,2.68,3.46,2.94.2.04.74.16.74.71,0,.34-.33.36-.49.36-1.34,0-4.34-.99-4.34-3.85,0-.56.1-1.68,1.07-2.91.36-.47.68-.74,1.79-1.62-1.38.18-4.16,1.14-4.6,1.39-.56.32-.62.35-.83.35-.33,0-.95-.39-.95-1.14,0-.34.09-.51.18-.66.25.39.44.69,1.01.69.26,0,.6-.06,1.91-.38,1.55-.38,4.04-.94,5.59-1.31.13-.03.31-.06.42-.06.2,0,1.04.25,1.04.69,0,.42-.4.42-.77.42Zm-.36,3.3c-.22,0-.26-.05-.57-.6-.26-.45-.6-.81-1.22-1.43.87.18,2.14.75,2.14,1.57,0,.22-.08.46-.35.46Zm1.52-.6c-.19,0-.23-.06-.61-.64-.31-.46-.9-.94-1.33-1.25.83.08,2.29.61,2.29,1.47,0,.36-.27.42-.35.42Z"/><path class="cls-1" d="m176.52,11.9c1.4-.68,2.7-1.52,3.21-2.47l.9.74c.06.05.13.16.13.25,0,.2-.32.17-.62.16-.94.58-2.11,1.18-3.59,1.42l-.03-.09Zm8.15-5.19c.08.07.12.12.12.21,0,.16-.12.21-.62.23-1.09.74-2.03,1.26-2.38,1.46.74-.01,1.03-.03,3.5-.14-.38-.34-.55-.44-.74-.55l.04-.08c1.72.13,2.68.9,2.68,1.51,0,.43-.35.52-.49.52-.21,0-.39-.13-.57-.36-.4-.51-.43-.53-.64-.77-1.26.21-1.73.26-3.17.4,0,.43.04,2.27.04,2.64,0,.22-.01.34-.12.43-.16.13-.39.19-.53.19-.31,0-.33-.21-.33-.42,0-.05.07-1.34.07-1.47.01-.21.01-1.11.01-1.3-1.59.13-2.29.18-3.87.26-.07.16-.14.35-.31.35-.09,0-.14-.06-.18-.14l-.58-1.24c.91.22,3.61.18,4.76.16,1.07-.87,2.17-1.9,2.35-2.64l.99.74Zm-4.04-5.63l.32-.38c.07-.07.13-.16.21-.16.09,0,.14.07.23.13l.46.38c.07.05.12.12.12.2,0,.12-.12.14-.19.14h-2.05v1.01h.86l.3-.26c.07-.07.14-.13.21-.13.08,0,.14.06.21.1l.42.3c.07.05.12.12.12.18s0,.12-.3.36c0,.18.05.98.05,1.14,0,.42-.51.51-.59.51-.35,0-.32-.23-.3-.42h-.94v1.09h.99l.38-.46c.06-.08.13-.16.21-.16.07,0,.16.09.23.16l.46.43c.06.05.12.12.12.19,0,.12-.1.14-.2.14h-4.13c0,.35,0,.4-.03.48-.09.21-.43.3-.58.3-.3,0-.31-.26-.31-.36,0-.21.09-2.68.09-3.19,0-1.55-.05-1.81-.13-2.2l1.04.44h2.74Zm-2.82.31v1.01h1.11v-1.01h-1.11Zm0,1.33v1.17h2.89v-1.17h-2.89Zm0,1.48v1.09h1.11v-1.09h-1.11Zm4.36,1.99c.07.04.13.08.13.16,0,.17-.14.17-.48.18-.31.17-.74.4-1.1.61.16.12.56.39.56.82,0,.22-.17.42-.42.42-.21,0-.25-.05-.68-.56-.66-.81-.99-1-1.18-1.12v-.08c.22,0,.79.01,1.48.38.53-.71.64-1.16.69-1.37l1,.56Zm.23-4.98c.96.08,1.81.09,2,.09h1.13l.38-.35s.12-.08.18-.08c.09,0,.16.04.23.09l.61.47c.05.04.1.12.1.2,0,.17-.06.2-.65.4-.42.97-.75,1.52-1.27,2.14,1.25,1.03,2.71,1.12,3.16,1.14v.08c-.74.36-.9.58-1.17.97-.7-.29-1.64-.75-2.47-1.69-.96.84-1.82,1.17-2.39,1.36l-.06-.12c.35-.22,1.27-.82,2.07-1.76-.12-.17-.73-1.07-.96-2.53-.4.04-.48.05-.62.09l-.26-.52Zm1.78.4c-.2,0-.39,0-.69.01.3.92.7,1.59,1.12,2.07.56-.87.74-1.42.9-2.08h-1.33Zm-.58,8.18c1.88.12,3.22,1.03,3.22,1.77,0,.29-.26.48-.47.48-.27,0-.34-.07-.95-.7-.22-.23-1.17-1.11-1.81-1.44v-.1Z"/><path class="cls-1" d="m189.71,11.51c-.34,0-.56-.3-.56-.56,0-.33.29-.55.69-.86.57-.46.87-1,1-1.39h.08c.01.16.03.33.03.56,0,1.21-.51,2.25-1.23,2.25Zm9.87-7.48c-.17.12-.22.16-.29.21.03,1.31.04,1.82.06,2.34,0,.12.04.6.04.7,0,.42-.36.55-.6.55-.4,0-.4-.26-.4-.42v-.17h-6.02c-.23,0-.9,0-1.53.12l-.25-.52c.82.07,1.64.09,1.99.09h5.81v-1.38h-5.82c-.23,0-.91,0-1.53.12l-.26-.51c.81.07,1.61.08,2,.08h5.62v-1.33h-7.14c-.43.35-.94.71-1.82,1.18l-.04-.05c1.74-1.66,2.9-3.43,3.19-4.02.13-.27.14-.42.18-.73l1.14.56c.06.03.18.12.18.25s-.27.22-.48.27c-.07.08-.2.23-.3.35h2.9l.47-.39c.08-.06.17-.14.22-.14.08,0,.21.09.27.14l.61.48c.07.05.13.1.13.2,0,.16-.1.17-.49.26-.16.04-.25.1-1.33.86-.22.16-.51.35-.69.47h2.82l.38-.36c.06-.07.16-.16.21-.16.07,0,.14.08.19.12l.56.44c.08.06.14.13.14.21,0,.06-.05.12-.13.18Zm-6.55-1.99c-.18.2-1.22,1.35-1.42,1.56h3.48c.14-.2.75-1.13.96-1.56h-3.03Zm4.65,9.84c-.44.09-2.96.09-3.72.09-1.43,0-1.53-.27-1.53-1.51,0-2.13,0-2.22-.1-2.68l1.22.39c.08.03.21.1.21.18,0,.07-.05.12-.1.16-.04.04-.25.2-.29.23,0,.17-.03,1.91,0,2.12.03.23.29.25.6.25.58-.01,2.63.01,2.91-.09.16-.05.3-.16.39-.39.16-.4.33-1.16.39-1.47h.09c.08.43.25,1.4.49,1.63.21.19.29.27.29.43s-.14.53-.85.66Zm-1.82-2.11c-.35,0-.42-.16-.73-.91-.08-.18-.3-.7-.69-1.04l.05-.08c1.7.48,1.86,1.16,1.86,1.35,0,.3-.12.68-.49.68Zm4.54,1.05c-.36,0-.4-.09-.77-.91-.26-.6-.44-.99-.9-1.44v-.03c.71.12,2.21.9,2.21,1.81,0,.35-.25.57-.55.57Z"/><path class="cls-1" d="m207.64,3.89h-1.9l.99.64c.08.05.14.1.14.2,0,.17-.18.19-.52.26-.13.44-.36,1.26-.88,2.56.96,1.08,1.44,1.99,1.44,2.55,0,.43-.3.62-.51.62-.37,0-.51-.26-.74-1.03-.13-.43-.49-1.11-.6-1.27-1.07,2.21-2.38,3.12-3.39,3.65l-.05-.08c.46-.42,1.85-1.7,2.94-4.37-.61-.82-1.33-1.56-2.16-2.16l.05-.08c1.08.32,1.86,1.01,2.39,1.51.13-.38.58-1.7.65-3h-1.85c-.47,0-1.07.03-1.52.12l-.26-.51c.9.07,1.87.08,2,.08h.46c-.04-2.04-.04-2.28-.27-2.91l1.44.42c.09.03.18.12.18.21,0,.1-.14.22-.47.42,0,.16-.01.87-.01,1.01,0,.1,0,.17.01.86h.95l.48-.58c.05-.07.14-.16.21-.16.08,0,.17.08.23.13l.64.58c.08.08.13.14.13.21,0,.13-.13.13-.21.13Zm5.89.6h-2.16c0,1.6.03,4.15.03,5.73,0,.74,0,1.2-.64,1.7-.49.38-.9.4-1.16.42-.12-.65-.78-1.12-1.13-1.29v-.07c.25.01.69.03,1.18.03.64,0,.7,0,.78-.17.08-.14.08-1.21.08-1.44,0-.78-.03-4.21-.01-4.91h-1.22c-.26,0-.94,0-1.54.12l-.26-.52c.87.08,1.76.09,2,.09h1c0-.42,0-2.26-.03-2.64-.04-.56-.12-.78-.22-1.03l1.37.43c.09.03.23.1.23.19,0,.1-.14.22-.44.42-.03.4-.01,2.25-.03,2.63h.51l.51-.6c.07-.08.12-.16.2-.16s.17.07.25.13l.77.6c.05.04.13.1.13.19,0,.12-.12.14-.2.14Zm-4.82,4.11c-.47,0-.52-.51-.59-1.04-.09-.86-.31-1.31-.54-1.79l.05-.07c.52.29,1.7,1.33,1.7,2.16,0,.4-.3.74-.62.74Z"/><path class="cls-1" d="m225.31,2.81h-8.89c0,1.51,0,4.51-.25,5.69-.44,2.2-1.43,3.11-1.77,3.42l-.12-.03c1.16-1.66,1.24-4.99,1.24-6.41,0-.71-.05-2.82-.25-3.51l1.24.52h3.3c-.01-1.13-.03-1.48-.25-2.04l1.33.35c.09.03.22.08.22.21,0,.16-.18.25-.36.35v1.13h2.98l.49-.73c.08-.12.13-.17.21-.17s.14.05.25.16l.7.72c.08.09.12.16.12.21,0,.1-.1.13-.18.13Zm-8.32,8.15c-.23,0-.56-.17-.56-.51,0-.22.01-.25.52-1.01.44-.66.57-1.61.66-2.44l.09-.04c.1.29.3.86.3,1.85,0,1.38-.44,2.16-1.01,2.16Zm6.23.78c-.27.12-.6.14-1.82.14-2.25,0-2.35,0-2.35-1.62,0-.52.03-2.83.03-3.3,0-1.01-.04-1.26-.16-1.79l1.42.48c.05.01.14.06.14.16,0,.18-.27.34-.47.43-.04.94-.06,1.88-.06,2.82,0,.31,0,1.65.09,1.79.1.17.34.19,1.25.19.66,0,1.1,0,1.3-.22.14-.16.18-.36.53-1.72h.09c.16,1.14.18,1.42.47,1.56.17.09.23.14.23.25,0,.16-.09.57-.69.83Zm-1.2-5.24c-.34,0-.44-.22-.69-.77-.3-.66-.62-1.26-1.21-1.91l.03-.09c1.04.49,1.34.69,1.64.94.64.55.81,1.05.81,1.27,0,.34-.26.56-.57.56Zm3.25,3.46c-.38,0-.4-.13-.68-1.16-.23-.91-.55-1.79-1.11-2.55l.07-.08c1.66,1.08,2.35,2.42,2.35,3.03,0,.27-.13.75-.64.75Z"/><path class="cls-1" d="m14.15,25.48h-1.12c-1.44,0-2.56.76-2.56,2.48v20.7c0,4.61-2.95,7.78-7.02,7.78-1.87,0-3.46-.83-3.46-2.59,0-.83.5-2.09,2.05-2.09,1.08,0,1.58.32,2.09,1.91.22.68.65.94,1.33.94,1.62,0,2.16-1.37,2.16-3.53v-23.11c0-1.62-1.01-2.48-2.55-2.48h-1.48v-1.19h10.55v1.19Z"/><path class="cls-1" d="m43.43,29.33c-.94.14-1.26.4-2.59,1.3-2.27,1.55-5.18,3.53-6.95,4.39-.22.68-1.08,3.85-1.26,4.46-2.52,8.67-6.88,11.12-8.67,12.13l-.11-.22c5.54-5.87,7.45-15.19,7.45-17.28,0-1.04-.61-1.48-2.48-2.16.9-.4,1.26-.58,1.84-.58,1.33,0,3.56.83,3.56,1.8,0,.22-.04.54-.07.72,3.6-2.84,6.01-5.83,6.01-6.3,0-.11-.04-.22-.5-.22-1.87,0-12.74,1.22-15.26,2.05-.32.11-1.66.76-1.94.76-.36,0-3.2-1.48-3.2-3.46,0-.61.07-1.15.25-1.73,1.33,2.23,2.88,2.23,3.71,2.23,1.58,0,15.23-1.37,16.85-1.69.29-.04,1.51-.58,1.76-.58.58,0,3.35,2.92,3.35,3.53s-.14.61-1.73.83Z"/><path class="cls-1" d="m59.05,36.64c-.5,0-.83-.25-1.73-.9-3.46-2.41-5.22-3.02-6.84-3.56.97-.14,1.8-.25,3.06-.25,4.36,0,6.48,1.66,6.48,3.42,0,.83-.4,1.3-.97,1.3Zm2.88-7.88c-.4,0-.79-.29-1.29-.76-3.49-3.17-5.51-3.78-6.55-4.1.79-.11,1.4-.18,2.27-.18,4.61,0,6.69,2.05,6.69,3.67,0,.54-.25,1.37-1.12,1.37Zm-.83,18.79c-1.37,1.01-1.51,1.15-2.45,2.09-.25.29-.61.54-.94.54-.76,0-3.49-1.98-3.49-4.86,0-.29.04-.5.11-.83.72.94,2.3,2.09,2.84,2.09,2.3,0,13.57-9.14,19.4-16.56l.22.14c-1.22,3.1-5.36,9.97-15.69,17.39Z"/><path class="cls-1" d="m104.21,49.05c-.76,0-1.15-.61-1.48-1.15-2.88-4.75-4.86-7.13-8.06-9.5-6.41,8.06-12.53,10.33-15.91,11.01l-.04-.29c8.35-3.67,17.13-14.69,19.11-21.38-1.37.18-7.34,1.3-9.29,2.05-.32.14-1.66.86-1.94.86-.54,0-2.52-1.76-2.52-3.64,0-.72.14-1.19.32-1.55,1.37,2.16,1.98,2.2,2.7,2.2,1.01,0,8.82-.76,10.29-1.62.25-.14,1.37-1.01,1.66-1.01.4,0,3.06,2.27,3.06,2.88,0,.4-.25.47-1.4.9-.25.11-.29.18-.76,1.04-1.58,3.06-2.48,4.82-4.79,7.92,4.32,1.91,10.29,6.19,10.29,9.58,0,.97-.4,1.69-1.26,1.69Z"/><path class="cls-1" d="m129.08,40.96c-.54,0-1.01-.47-1.58-1.08-3.31-3.67-5.18-4.97-7.67-5.9,0,1.4-.07,7.67-.04,8.96,0,.94.21,5.08.21,5.9,0,.76,0,2.88-1.4,2.88-1.19,0-1.69-2.09-1.69-3.02,0-.54.04-.86.25-2.41.43-2.84.47-8.53.47-11.59,0-1.55-.04-8.71-.32-9.86-.22-.79-1.01-1.15-2.88-1.8.72-.43,1.58-.86,2.38-.86.54,0,4.07.76,4.07,1.91,0,.29-.43,1.51-.5,1.8-.4,1.37-.47,5.51-.5,7.27,3.67.58,7.31,2.16,9.29,3.89.65.58,1.08,1.48,1.08,2.41,0,1.19-.72,1.51-1.15,1.51Z"/><path class="cls-1" d="m146.37,54.26c-2.81-2.25-4.27-5.49-4.27-8.71s1.46-6.46,4.27-8.71l.16.25c-3.35,3.55-3.42,7.15-3.42,8.46s.07,4.92,3.42,8.46l-.16.25Z"/><path class="cls-1" d="m148.91,51.83c-.38,0-.59-.31-.59-.61,0-.27.05-.4.34-.97.34-.67.45-1.1.56-1.85h.13c.45.9.54,2.12.54,2.23,0,.67-.47,1.21-.97,1.21Zm6.77-4.41c-.5,4.12-.92,5.94-3.26,6.14-.18-.83-.83-1.39-1.51-1.78l.07-.14c.31.05,1.46.23,1.87.23s.7-.05.9-.63c.36-.97.74-2.74.76-4.23h-3.73c0,.18-.04.83-.76.83-.49,0-.52-.27-.52-.52,0-1.62.14-4.2.14-5.8,0-1.17-.02-2.99-.2-4.05l1.42.85h3.24l.45-.59c.11-.13.2-.23.27-.23.09,0,.25.13.32.18l.83.61c.07.05.18.14.18.27,0,.18-.14.2-.27.2h-2.56v2.29h.56l.4-.52c.11-.13.16-.22.27-.22.09,0,.27.13.32.16l.68.54c.11.07.18.2.18.29,0,.16-.18.18-.29.18h-2.12v2.3h.67l.45-.56c.14-.16.18-.22.27-.22s.23.09.32.18l.58.56c.13.11.18.22.18.27,0,.16-.14.2-.29.2h-2.18v2.38h.94l.41-.45c.09-.11.23-.23.32-.23.11,0,.18.05.25.11l.68.5c.11.07.22.22.22.32,0,.22-.14.32-.49.59Zm-4.63,3.58c-.58,0-.58-.59-.58-.85,0-1.17,0-1.3-.2-1.73l.13-.09c.32.22,1.26,1.06,1.26,1.87,0,.38-.16.79-.61.79Zm1.19-12.26h-1.46v2.29h1.46v-2.29Zm0,2.72h-1.46v2.3h1.46v-2.3Zm0,2.74h-1.46v2.38h1.46v-2.38Zm.29,6.36c-.36,0-.38-.13-.52-1.15-.02-.13-.16-.83-.41-1.24l.07-.09c.77.4,1.46,1.12,1.46,1.75,0,.43-.27.74-.59.74Zm1.19-1.37c-.27,0-.36-.2-.65-.79-.14-.29-.34-.58-.58-.76l.05-.09c1.64.13,1.66,1.04,1.66,1.06,0,.29-.22.58-.49.58Zm10.89,3.28h-6.54c0,.45-.02,1.13-.86,1.13-.52,0-.54-.43-.54-.59,0-.72.09-1.89.13-2.63.07-2.16.11-6.36.11-8.59,0-1.69-.02-2.43-.18-4.05l1.58.81h4.12l.58-.79c.11-.14.16-.22.25-.22s.25.09.34.18l.83.81c.13.11.18.16.18.27,0,.16-.16.18-.27.18h-6.23c0,.99-.07,5.29-.07,6.18,0,1.48,0,2.04.04,6.88h4.41l.68-.88c.09-.13.16-.22.27-.22s.23.09.34.18l.94.88c.11.11.16.16.16.27,0,.16-.14.2-.27.2Zm-1.3-3.48c-.4,0-.45-.14-1.01-1.46-.2-.49-.49-1.06-.81-1.58-1.26,2.41-2.66,3.58-3.19,4.03l-.09-.05c.45-.67,1.49-2.16,2.65-4.95-1.01-1.33-1.57-2-2.02-2.52l.09-.13c.97.63,1.37.96,2.25,1.78.22-.61.81-2.25.92-3.98l1.53.79c.11.05.22.16.22.27,0,.23-.43.4-.59.45-.23.77-.59,1.82-1.24,3.28,1.21,1.24,1.98,2.54,1.98,3.3,0,.54-.41.77-.68.77Z"/><path class="cls-1" d="m169.39,49.02c-.13.72-.14.85-.14,1.08,0,.13.04.68.02.79-.04.23-.16.56-.56.56-1.01,0-1.6-1.55-1.6-4.05,0-.41.02-1.85.29-3.58.18-1.06.45-2.81.45-3.17,0-.85-.16-1.13-.5-1.76,1.31-.02,1.93,1.39,1.93,1.91,0,.23-.05.36-.22.88-.83,2.56-1.1,3.42-1.1,5.13,0,.52.09,2,.4,2,.11,0,.2-.16.27-.31.14-.34,1.33-3.15,1.66-3.92l.13.04c-.14.7-.9,3.76-1.01,4.41Zm11.7-6.46c-.52.36-2.5.63-3.28.72.02.56.14,3.06.14,3.58,0,2.81-.79,5.24-4.52,6.95l-.09-.14c2.77-1.96,3.4-4.21,3.4-8.59,0-.81-.02-1.33-.02-1.67-.31.04-1.67.22-1.95.22-.88,0-1.96-.22-2.66-1.15.36.09.76.18,1.58.18.11,0,1.19,0,2.97-.29-.16-2.97-.29-3.62-1.8-3.85.25-.31.68-.58,1.04-.58.16,0,1.87.16,1.87,1.21,0,.13-.04.68-.04.79-.04.52,0,1.66,0,2.21.86-.16,1.21-.27,2.07-.54.13-.04.27-.07.45-.07.43,0,1.01.31,1.01.7,0,.13-.11.27-.2.32Z"/><path class="cls-1" d="m189.22,50.59c-.92,0-1.51-.05-1.91-.09v-.16c1.84-.04,9.56-.88,9.56-5.51,0-1.89-1.75-3.31-3.73-3.31-3.31,0-6.88,3.15-7.22,3.49-.47.47-.52.54-.85.54-.63,0-1.66-.92-1.66-2,0-.34.07-.59.14-.77.34.47.7.96,1.17.96.38,0,.74-.2,1.28-.47,2.65-1.37,4.5-2.32,7.09-2.32,2.86,0,5.15,1.66,5.15,4.25,0,3.04-3.19,5.4-9.04,5.4Z"/><path class="cls-1" d="m203.57,49.02c-.13.72-.14.85-.14,1.08,0,.13.04.68.02.79-.04.23-.16.56-.56.56-1.01,0-1.6-1.55-1.6-4.05,0-.41.02-1.85.29-3.58.18-1.06.45-2.81.45-3.17,0-.85-.16-1.13-.5-1.76,1.31-.02,1.93,1.39,1.93,1.91,0,.23-.05.36-.22.88-.83,2.56-1.1,3.42-1.1,5.13,0,.52.09,2,.4,2,.11,0,.2-.16.27-.31.14-.34,1.33-3.15,1.66-3.92l.13.04c-.14.7-.9,3.76-1.01,4.41Zm11.7-6.46c-.52.36-2.5.63-3.28.72.02.56.14,3.06.14,3.58,0,2.81-.79,5.24-4.52,6.95l-.09-.14c2.77-1.96,3.4-4.21,3.4-8.59,0-.81-.02-1.33-.02-1.67-.31.04-1.67.22-1.94.22-.88,0-1.96-.22-2.67-1.15.36.09.76.18,1.58.18.11,0,1.19,0,2.97-.29-.16-2.97-.29-3.62-1.8-3.85.25-.31.68-.58,1.04-.58.16,0,1.87.16,1.87,1.21,0,.13-.04.68-.04.79-.04.52,0,1.66,0,2.21.86-.16,1.21-.27,2.07-.54.12-.04.27-.07.45-.07.43,0,1.01.31,1.01.7,0,.13-.11.27-.2.32Z"/><path class="cls-1" d="m232.42,43.98c-.14,0-1.84-.27-2.2-.31-1.01-.11-1.6-.11-2.07-.11,0,3.89-.18,7.06-4.18,9.54l-.13-.13c2.97-3.01,3.03-5.69,3.1-9.38-.47.02-1.89.07-3.76.38,0,.56.07,3.02.07,3.53s0,1.04-.5,1.04-.76-.95-.76-1.26c0-.2.11-1.03.11-1.19,0-.31.02-1.66.02-1.93-.68.14-1.93.4-2.45.63-.36.16-.4.18-.49.18-.63,0-1.37-1.13-1.37-1.82,0-.27.04-.5.14-.74.7.94.81,1.08,1.57,1.08.27,0,2.18-.23,2.59-.27,0-.61-.04-2.63-.27-3.1-.16-.32-.49-.43-1.24-.65.4-.27.68-.43,1.1-.43.47,0,1.73.47,1.73.94,0,.11-.14.54-.16.63-.14.59-.12,1.26-.11,2.5,1.26-.13,2.74-.29,3.8-.36,0-2.66,0-2.97-.11-3.31-.16-.54-1.17-.7-1.46-.76.45-.27.74-.45,1.13-.45.52,0,2,.36,2,.97,0,.13-.16.7-.18.83-.13.68-.16,1.75-.18,2.67.74-.02,1.84-.07,2.23-.14.13-.02.63-.22.74-.22.29,0,.94.22,1.49.61.2.14.27.25.27.5,0,.5-.31.5-.49.5Z"/><path class="cls-1" d="m248.18,46.16c-.16,0-.59-.04-.63-.04-.65-.05-.83-.07-2.04-.07-5.49,0-7.11.11-7.92.32-.05.02-.63.16-.68.16-.47,0-1.44-1.15-1.44-1.98,0-.11.02-.45.22-.86.61,1.37,1.17,1.37,3.04,1.37,1.24,0,7.09-.02,7.92-.22.11-.02.63-.16.74-.16s1.91.2,1.91.9c0,.56-.9.58-1.12.58Z"/><path class="cls-1" d="m262.68,51.19c-1.35.23-3.66.25-4.18.25-4.83,0-4.92-1.17-4.92-4.56,0-.74.07-4.03.07-4.7,0-1.49,0-1.89-1.48-2.45.52-.34.61-.41.86-.41.68,0,2.29.65,2.29,1.26,0,.14-.31.63-.34.74-.09.31-.27,3.85-.31,4.43,2.81-.9,6.16-3.31,6.16-3.78,0-.22-.54-.65-.76-.83.18-.04.27-.05.41-.05,1.19,0,2.3,1.19,2.3,1.73,0,.27-.09.29-.83.5-.22.07-.34.11-.56.22-4.27,2.05-4.72,2.29-6.75,2.61-.02.38-.02.76-.02,1.37,0,2.27,0,2.86,3.35,2.86,1.75,0,2.59-.27,3.26-.47.47-.14.59-.14.76-.14.43,0,1.55.09,1.55.76,0,.47-.61.61-.88.67Zm.65-10.33c-.23,0-.29-.07-.81-.67-.63-.72-1.51-1.28-1.96-1.58,1.73.14,3.21.7,3.21,1.64,0,.29-.18.61-.43.61Zm1.85-1.03c-.2,0-.29-.07-1.12-.83-.76-.67-1.15-.94-1.87-1.26.22-.02.25-.04.4-.04.63,0,3.01.38,3.01,1.55,0,.27-.16.58-.41.58Z"/><path class="cls-1" d="m279.35,51.64c-.38,0-.58-.31-.74-.58-1.44-2.38-2.43-3.57-4.03-4.75-3.21,4.03-6.27,5.17-7.96,5.51l-.02-.14c4.18-1.84,8.57-7.35,9.56-10.7-.68.09-3.67.65-4.64,1.03-.16.07-.83.43-.97.43-.27,0-1.26-.88-1.26-1.82,0-.36.07-.59.16-.77.68,1.08.99,1.1,1.35,1.1.5,0,4.41-.38,5.15-.81.13-.07.68-.5.83-.5.2,0,1.53,1.13,1.53,1.44,0,.2-.12.23-.7.45-.13.05-.14.09-.38.52-.79,1.53-1.24,2.41-2.39,3.96,2.16.95,5.15,3.1,5.15,4.79,0,.49-.2.85-.63.85Z"/><path class="cls-1" d="m284.3,54.26l-.16-.25c3.35-3.55,3.42-7.15,3.42-8.46s-.07-4.92-3.42-8.46l.16-.25c2.81,2.25,4.27,5.49,4.27,8.71s-1.46,6.46-4.27,8.71Z"/></svg>