<?xml version="1.0" encoding="UTF-8"?><svg id="_レイヤー_1" xmlns="http://www.w3.org/2000/svg" viewBox="0 0 308.2 126.59"><defs><style>.cls-1,.cls-2{fill:#99ba98;}.cls-3{fill:#eeefeb;}.cls-2{fill-rule:evenodd;}.cls-4{fill:none;stroke:#99ba98;stroke-miterlimit:10;stroke-width:.99px;}</style></defs><rect class="cls-3" x=".5" y=".5" width="307.21" height="125.6" rx="4.97" ry="4.97"/><rect class="cls-4" x=".5" y=".5" width="307.21" height="125.6" rx="4.97" ry="4.97"/><path class="cls-1" d="m16.52,15.02c-.18.27-.87,1.5-1.04,1.75-.71,1.11-2,2.97-4.29,3.92v-.12c2.42-2,4.2-5.56,4.2-6.31,0-.33-.14-.58-.95-.99.18-.06.36-.13.74-.13.72,0,1.83.9,1.83,1.26,0,.12-.44.54-.5.63Zm6.76,4.91c-.41,0-.51-.3-.78-1.2-.71-2.36-2.16-4.28-3.34-5.4,2.19.71,4.71,3.78,4.71,5.67,0,.39-.15.93-.58.93Zm-.45-6.17c-.79,0-1.42-.65-1.42-1.42s.63-1.42,1.42-1.42,1.42.63,1.42,1.42-.64,1.42-1.42,1.42Zm0-2.29c-.48,0-.87.39-.87.87s.39.85.87.85.87-.39.87-.85-.39-.87-.87-.87Z"/><path class="cls-1" d="m28.76,15.77c-.3,0-.48-.24-.66-.55-.85-1.49-1.05-1.8-2.13-2.67,1.71.25,3.31,1.32,3.31,2.53,0,.41-.22.69-.53.69Zm7.12-1.82c-.22.18-.29.32-.75,1.46-.73,1.83-2.28,4.4-4.92,5.87-1.23.69-2.26.92-2.7,1.02v-.1c5.91-3.01,7.08-8.59,7.08-8.96,0-.48-.83-.93-.98-1.02.17-.08.34-.15.71-.15.78,0,1.91.99,1.91,1.42,0,.2-.11.27-.35.46Z"/><path class="cls-1" d="m48.02,14.14c-.21.15-.27.22-.33.48-.24.98-.36,1.73-.84,4.53.29.06.71.29.71.62,0,.4-.39.4-.81.4-.29,0-1.53-.06-1.79-.06-1.91,0-3.54.24-4.18.45-.13.04-.67.25-.79.25-.46,0-1.25-1.08-1.25-1.67,0-.23.06-.36.1-.5.18.21.79.96,1.61.96.51,0,1.14-.06,5.49-.41.46-3.1.71-4.74.71-5.32,0-.14-.06-.18-.21-.18-1.11,0-5.23.53-5.58.68-.1.04-.58.24-.67.24-.5,0-1.34-.99-1.34-1.74,0-.24.03-.38.08-.51.39.58.94,1.07,1.71,1.07.71,0,5.4-.34,5.8-.5.12-.06.63-.41.74-.41.17,0,1.23.9,1.23,1.2,0,.17-.07.21-.38.41Z"/><path class="cls-1" d="m53.97,14.19c-.25,0-.43-.18-.92-.66-1.05-1.06-1.89-1.45-2.46-1.71,1.8-.12,3.93.53,3.93,1.77,0,.33-.26.6-.56.6Zm1.31,5.14c-.32.24-1.73,1.26-1.98,1.52-.07.08-.4.45-.48.52-.06.06-.18.09-.25.09-.53,0-1.52-1.26-1.52-1.97,0-.27.09-.49.15-.66.34.67.78.99,1.09.99.5,0,2.82-1.72,3.46-2.22,2.42-1.84,3.57-3.13,4.78-4.53l.08.04c-.36,1.09-2.04,3.67-5.34,6.21Z"/><path class="cls-1" d="m73.89,15.32c-.12,0-1.53-.22-1.83-.25-.84-.09-1.33-.09-1.72-.09,0,3.24-.15,5.88-3.48,7.95l-.11-.1c2.47-2.5,2.52-4.74,2.58-7.81-.39.01-1.58.06-3.13.31,0,.46.06,2.52.06,2.94s0,.87-.42.87-.63-.79-.63-1.05c0-.17.09-.85.09-.99,0-.26.02-1.38.02-1.61-.57.12-1.61.33-2.04.53-.3.13-.33.15-.4.15-.53,0-1.14-.94-1.14-1.51,0-.22.03-.42.12-.62.58.78.67.9,1.3.9.22,0,1.81-.2,2.16-.23,0-.51-.03-2.19-.23-2.58-.14-.27-.41-.36-1.04-.54.33-.23.57-.36.92-.36.39,0,1.44.39,1.44.78,0,.09-.12.45-.13.52-.12.5-.1,1.05-.09,2.08,1.05-.1,2.28-.24,3.17-.3,0-2.22,0-2.47-.09-2.76-.14-.45-.98-.58-1.21-.63.38-.23.61-.38.94-.38.44,0,1.67.3,1.67.81,0,.11-.14.58-.15.69-.11.57-.13,1.46-.15,2.22.62-.01,1.53-.06,1.86-.12.11-.01.53-.18.62-.18.24,0,.78.18,1.25.51.17.12.23.21.23.42,0,.42-.26.42-.41.42Z"/><path class="cls-1" d="m76.41,20.46c-.09,0-.58,0-.58-.6,0-.46.19-.6.97-1.14.6-.42,1.12-.79,2.05-2.36-.13,1.85-1.42,4.09-2.45,4.09Zm10.38-5.2c-.23,0-1.23-.2-1.38-.21-.25-.03-1.17-.09-2.17-.09-.62,0-1,.01-1.27.03-.03,1.38-.05,3.29.03,4.67,0,.12.06,1.09.06,1.11,0,.18-.04,1.77-.78,1.77-.29,0-.38-.2-.72-1-.11-.24-.36-.46-1.52-1.3l.02-.08c1.33.3,1.51.34,1.79.34.19,0,.21-.09.22-.38.06-1,.07-1.42.04-5.05-.27.03-2.82.36-3.29.62-.3.17-.4.17-.48.17-.6,0-1.27-.98-1.27-1.58,0-.2.03-.39.08-.62.22.36.53.71.9.92.1.06.24.11.63.11.03,0,2.97-.21,3.42-.24-.01-2-.03-2.22-.13-2.55-.15-.42-.64-.55-1.28-.72.23-.15.57-.39.96-.39.58,0,1.77.56,1.77.96,0,.08-.18.5-.22.58-.15.38-.2,1.58-.21,2.04.42-.01,2.97-.22,3.17-.27.09-.02.46-.14.52-.14.23,0,1.42.32,1.42.96,0,.09-.01.35-.3.35Zm-.32,4.95c-.27,0-.34-.12-1.06-1.23-1.06-1.61-1.77-2.17-2.22-2.54.78.09,1.53.51,2.5,1.25.34.25,1.29.96,1.29,1.79,0,.46-.3.73-.51.73Zm-.01-6.94c-.79,0-1.42-.63-1.42-1.41s.63-1.42,1.42-1.42,1.41.63,1.41,1.42-.63,1.41-1.41,1.41Zm0-2.29c-.48,0-.87.39-.87.87s.39.87.87.87.87-.39.87-.87-.39-.87-.87-.87Z"/><path class="cls-1" d="m99.78,17.14c-.13,0-.49-.03-.52-.03-.54-.04-.69-.06-1.7-.06-4.58,0-5.92.09-6.6.27-.04.01-.52.13-.57.13-.39,0-1.2-.96-1.2-1.65,0-.09.02-.38.18-.72.51,1.14.98,1.14,2.53,1.14,1.04,0,5.91-.02,6.6-.18.09-.01.52-.13.61-.13s1.59.17,1.59.75c0,.46-.75.48-.93.48Z"/><path class="cls-1" d="m108.78,18.32c-.22,0-.42-.2-.66-.45-1.38-1.53-2.16-2.07-3.19-2.46,0,.58-.03,3.2-.02,3.74,0,.39.09,2.11.09,2.46,0,.31,0,1.2-.58,1.2-.5,0-.71-.87-.71-1.26,0-.22.01-.36.1-1,.18-1.18.2-3.55.2-4.83,0-.65-.01-3.63-.13-4.11-.09-.33-.42-.48-1.2-.75.3-.18.66-.36.99-.36.23,0,1.69.32,1.69.79,0,.12-.18.63-.21.75-.17.57-.2,2.29-.21,3.03,1.53.24,3.04.9,3.87,1.62.27.24.45.62.45,1,0,.5-.3.63-.48.63Z"/><path class="cls-1" d="m257.7,18.49h-45.16c-1.24,0-2.25,1.01-2.25,2.25v13.77h21.57v14.68s.03,0,.04,0c1.33,0,2.41,1.08,2.41,2.41s-1.08,2.41-2.41,2.41c-.01,0-.03,0-.04,0v8.36s.03,0,.04,0c1.33,0,2.41,1.08,2.41,2.41s-1.08,2.41-2.41,2.41c-.01,0-.03,0-.04,0v8.36s.03,0,.04,0c1.33,0,2.41,1.08,2.41,2.41s-1.08,2.41-2.41,2.41c-.01,0-.03,0-.04,0v8.81c.9-.71,2.03-1.13,3.26-1.13,2.91,0,5.26,2.36,5.26,5.26s-2.36,5.26-5.26,5.26c-1.23,0-2.36-.42-3.26-1.13v4.88h-21.57v5.52c0,1.24,1.01,2.25,2.25,2.25h45.16c1.24,0,2.25-1.01,2.25-2.25V20.74c0-1.24-1.01-2.25-2.25-2.25Zm-24.59,39.7c0-1.33,1.08-2.41,2.41-2.41s2.41,1.08,2.41,2.41-1.08,2.41-2.41,2.41-2.41-1.08-2.41-2.41Zm14.46,0c0-1.33,1.08-2.41,2.41-2.41s2.41,1.08,2.41,2.41-1.08,2.41-2.41,2.41-2.41-1.08-2.41-2.41Zm1.21,6.59c0,1.33-1.08,2.41-2.41,2.41s-2.41-1.08-2.41-2.41,1.08-2.41,2.41-2.41,2.41,1.08,2.41,2.41Zm-2.41-10.77c-1.33,0-2.41-1.08-2.41-2.41s1.08-2.41,2.41-2.41,2.41,1.08,2.41,2.41-1.08,2.41-2.41,2.41Zm-1.21,4.18c0,1.33-1.08,2.41-2.41,2.41s-2.41-1.08-2.41-2.41,1.08-2.41,2.41-2.41,2.41,1.08,2.41,2.41Zm-3.62,6.59c0,1.33-1.08,2.41-2.41,2.41s-2.41-1.08-2.41-2.41,1.08-2.41,2.41-2.41,2.41,1.08,2.41,2.41Zm-2.41-10.77c-1.33,0-2.41-1.08-2.41-2.41s1.08-2.41,2.41-2.41,2.41,1.08,2.41,2.41-1.08,2.41-2.41,2.41Zm-6.03,17.36c0-1.33,1.08-2.41,2.41-2.41s2.41,1.08,2.41,2.41-1.08,2.41-2.41,2.41-2.41-1.08-2.41-2.41Zm6.03,9c-1.33,0-2.41-1.08-2.41-2.41s1.08-2.41,2.41-2.41,2.41,1.08,2.41,2.41-1.08,2.41-2.41,2.41Zm1.21-9c0-1.33,1.08-2.41,2.41-2.41s2.41,1.08,2.41,2.41-1.08,2.41-2.41,2.41-2.41-1.08-2.41-2.41Zm6.03,9c-1.33,0-2.41-1.08-2.41-2.41s1.08-2.41,2.41-2.41,2.41,1.08,2.41,2.41-1.08,2.41-2.41,2.41Zm1.21-9c0-1.33,1.08-2.41,2.41-2.41s2.41,1.08,2.41,2.41-1.08,2.41-2.41,2.41-2.41-1.08-2.41-2.41Zm6.03,9c-1.33,0-2.41-1.08-2.41-2.41s1.08-2.41,2.41-2.41,2.41,1.08,2.41,2.41-1.08,2.41-2.41,2.41Zm0-13.17c-1.33,0-2.41-1.08-2.41-2.41s1.08-2.41,2.41-2.41,2.41,1.08,2.41,2.41-1.08,2.41-2.41,2.41Zm0-13.18c-1.33,0-2.41-1.08-2.41-2.41s1.08-2.41,2.41-2.41,2.41,1.08,2.41,2.41-1.08,2.41-2.41,2.41Zm2.49-24.47c0,.53-.43.96-.96.96h-39.21c-.53,0-.96-.43-.96-.96v-4.78c0-.53.43-.96.96-.96h39.21c.53,0,.96.43.96.96v4.78Z"/><path class="cls-2" d="m226.3,96.76v-56.69h-91.71v56.69h37.1v7.5h-8.75c-1.07,0-1.95.88-1.95,1.95v1.95c0,1.07.88,1.95,1.95,1.95h35.02c1.07,0,1.95-.88,1.95-1.95v-1.95c0-1.07-.88-1.95-1.95-1.95h-8.75v-7.5h37.1Zm-84.76-6.95v-42.8h77.81v42.8h-77.81Z"/><path class="cls-2" d="m125.94,91.57H53.49l-5.23,15.3v3.26c0,1.19.98,2.17,2.17,2.17h78.58c1.19,0,2.17-.98,2.17-2.17v-3.26l-5.23-15.3Zm-30.15,18.94h-12.16c-.6,0-1.09-.49-1.09-1.09s.49-1.09,1.09-1.09h12.16c.6,0,1.09.49,1.09,1.09s-.49,1.09-1.09,1.09Zm30.61-4.08H53.03c-.3,0-.54-.24-.54-.54s.24-.54.54-.54h73.37c.3,0,.54.24.54.54s-.24.54-.54.54Z"/><path class="cls-2" d="m122.03,46.92H57.4c-2.2,0-3.99,1.72-3.99,3.85v39.26h72.6v-39.26c0-2.12-1.79-3.85-3.99-3.85Zm-32.31.78c.47,0,.84.36.84.81s-.38.81-.84.81-.84-.36-.84-.81.38-.81.84-.81Zm-32.6,2.52h65.2v34.8H57.11v-34.8Z"/></svg>