<?xml version="1.0" encoding="UTF-8"?><svg id="_レイヤー_1" xmlns="http://www.w3.org/2000/svg" viewBox="0 0 1193.8 210.56"><defs><style>.cls-1{fill:#006934;}</style></defs><path class="cls-1" d="m524.17,93.15h-5.76c.58.26,3.17,1.38,3.17,3.07,0,.64-.38,1.41-1.21,1.41s-.93-.22-1.5-2.05c-.48-1.54-.9-2.05-1.28-2.43h-1.73c-.99,1.41-2.75,3.58-5.18,5.15l-.13-.1c1.95-2.78,5.22-7.62,4.9-10.4l3.2,1.47c.16.06.32.26.32.45,0,.42-.38.54-1.28.64-.51.83-.8,1.31-1.28,2.02h4.51l.93-1.18c.22-.29.38-.42.54-.42.19,0,.38.13.61.35l1.34,1.18c.22.22.32.35.32.51,0,.22-.22.32-.48.32Zm.06,6.98v3.46c0,.61.13,3.49.13,3.71,0,.58,0,1.66-1.5,1.66-.42,0-.74-.19-.74-.61,0-.13.03-.64.03-.77h-5.86c.03,1.5,0,3.87,0,5.38.58-.13.64-.16,5.12-1.22-.7-1.54-1.38-2.24-1.73-2.62l.1-.13c4.96,1.92,4.99,4.8,4.99,4.93,0,.58-.35,1.41-1.25,1.41-.8,0-1.09-.64-1.25-1.06-.1-.29-.54-1.7-.64-2.02-1.7.86-6.34,2.85-8.16,3.58-.22.54-.38.83-.64.83-.22,0-.38-.19-.51-.45l-1.41-2.66c.35.03.74.06,1.18.06.48,0,.96-.06,2.05-.26,0-1.54.06-9.02.06-10.72s0-3.42-.32-5.5l2.75,1.5h5.28l.7-.83c.19-.26.32-.32.45-.32.16,0,.29.06.54.29l1.18.96c.19.16.32.35.32.51,0,.22-.16.42-.9.86Zm-2.05-.74h-5.92v3.33h5.92v-3.33Zm0,4.03h-5.92v3.42h5.92v-3.42Zm16.74-10.3h-8.19c2.62,1.22,3.87,1.79,3.87,3.2,0,.58-.35,1.28-1.22,1.28s-1.06-.45-1.63-2.02c-.26-.67-.86-1.89-1.54-2.46h-1.92c-1.18,1.57-2.27,2.78-4.22,4.13l-.13-.13c1.41-2.02,3.68-6.11,3.84-7.62.06-.8.1-.99.03-1.47l3.07,1.44c.19.1.38.22.38.48,0,.32-.22.45-1.25.74-.26.35-.35.48-1.18,1.66h6.46l1.09-1.44c.22-.29.35-.42.54-.42s.38.13.61.35l1.54,1.41c.26.22.32.38.32.58s-.16.29-.48.29Zm-1.57,7.17c-.06,1.76.03,10.75-.06,11.23-.29,1.82-2.24,2.43-3.81,2.85-.64-2.08-1.92-2.82-2.69-3.23l.03-.16c.54.06,2.34.19,2.85.19,1.15,0,1.57-.1,1.57-1.31v-10.33h-5.7c-.06,1.89-.03,6.43-.03,8.51,0,1.22.13,6.69.13,7.81,0,1.47-1.47,1.5-1.6,1.5-.96,0-.96-.74-.96-1.02,0-.16.03-.45.06-.74.13-1.34.29-8.96.29-12.99,0-1.31,0-3.71-.38-5.31l2.72,1.54h5.18l.77-.96c.19-.26.32-.35.48-.35.13,0,.26.06.58.32l1.28,1.02c.13.13.29.26.29.45,0,.26-.13.42-.99.99Z"/><path class="cls-1" d="m552.96,98.94c-.67,2.72-2.5,6.66-4,8.99-.93,1.47-3.58,5.06-8.74,7.36l-.1-.19c2.5-1.92,5.98-5.95,7.68-9.5,1.22-2.53,2.4-5.05,2.91-7.84h-4.45c-.42,0-2.21.03-3.74.32l-.64-1.28c2.11.16,4.32.19,4.9.19h3.9l.83-.77c.16-.16.29-.26.45-.26.13,0,.29.1.48.29l1.34,1.41c.19.19.26.32.26.45,0,.35-.61.64-1.09.83Zm3.71-8.8c0,2.18-.03,11.71-.03,13.66,0,1.57.1,8.54.1,9.95,0,1.28,0,3.42-3.81,3.9-.29-.99-.54-1.5-1.18-2.05-.7-.61-1.44-1.15-2.24-1.44v-.16c.26.03,3.23.16,3.68.16,1.22,0,1.34-.35,1.34-1.47,0-.54-.06-3.04-.06-3.52,0-.99.1-11.17.1-13.28,0-1.31-.03-5.28-.29-6.37-.06-.29-.35-1.44-.42-1.7l3.46.9c.29.06.45.16.45.42,0,.32-.19.54-1.09.99Zm10.82,23.9c-4.61-2.56-10.17-10.56-10.33-20.45h.35c.51,3.42,1.28,5.31,1.82,6.69,2.21-1.73,4.83-4.35,5.5-6.75l2.88,2.4c.22.19.26.32.26.48,0,.61-.64.54-1.7.48-2.3,1.66-4.38,3.04-6.69,3.97,3.97,8.54,9.44,10.3,11.71,10.72v.19c-1.31.26-2.43.48-3.81,2.27Z"/><path class="cls-1" d="m582.96,96.44h-3.39v3.17c1.12.29,3.01,1.22,3.01,2.56,0,.19-.06,1.15-1.12,1.15-.35,0-.77-.1-.99-1.06-.22-1.02-.38-1.6-.9-2.18.1,10.5.13,12.06.19,13.92.03.48.06,1.31.06,1.7,0,.48,0,1.66-1.57,1.66-.77,0-.8-.51-.8-1.02,0-.83.16-4.58.19-5.34.03-1.82.03-2.53.06-9.09-.74,1.79-2.56,5.06-4.86,7.23l-.26-.16c2.24-3.23,4.48-9.54,4.86-12.54-1.09,0-2.43.1-3.52.29l-.64-1.25c1.47.13,2.85.19,4.38.19-.1-5.6-.48-6.82-.83-7.87l3.42,1.02c.22.06.48.19.48.48s-.1.35-1.06.96c-.03.54-.1,3.62-.13,5.41h.83l.64-.86c.13-.16.32-.42.51-.42.16,0,.32.13.61.38l.96.83c.19.16.32.32.32.51,0,.29-.29.32-.48.32Zm18.91,8.06h-8.61c.26,1.15.61,2.62,1.54,4.45,1.66-2.14,1.73-2.78,1.79-3.42l2.5,1.79c.16.13.26.16.26.35,0,.32-.13.35-1.31.61-.96,1.12-1.5,1.73-2.21,2.4,1.54,2.11,3.26,3.01,3.65,3.01.54,0,1.12-1.25,1.86-2.82l.22.03c-.03.45-.06.8-.06,1.63,0,1.76.06,1.89.38,2.43.19.35.38.7.38,1.02,0,.51-.22.93-.9.93-1.34,0-4.8-1.73-6.98-4.93-1.66,1.31-3.84,2.82-8.19,3.94l-.06-.26c2.82-1.28,5.28-2.98,7.36-5.22-1.5-3.04-1.98-5.54-2.08-5.95h-4.74c-.06,1.44-.19,2.37-.29,3.17,2.66.13,4.03,1.41,4.03,2.53,0,.61-.51,1.12-1.12,1.12-.64,0-.9-.48-1.18-1.09-.45-.86-1.31-1.98-1.79-2.27-.42,2.56-1.09,6.43-5.7,8.61l-.16-.13c2.91-2.75,4.16-6.69,4.06-11.84-.83.06-1.15.13-1.5.19l-.64-1.28c2.14.19,4.35.22,4.93.22h3.94c-.64-3.52-.67-3.84-1.09-12.99-.03-.74-.06-.93-.38-2.34-.03-.13-.06-.32-.1-.42l3.3.77c.16.03.45.16.45.45,0,.35-.48.64-1.12,1.02-.06.77-.13,1.76-.13,3.26,0,3.46.26,6.88.93,10.24h5.7l.86-1.09c.26-.32.35-.42.51-.42.19,0,.48.26.61.35l1.25,1.09c.16.16.32.29.32.51,0,.29-.29.32-.48.32Zm-12.96-3.81c-.7,0-.86-.61-.9-.83-.03-.16-.16-.86-.19-.99-1.15.38-2.75.9-4.22,1.38-.06.06-.42.64-.64.64-.19,0-.26-.26-.29-.38l-.77-2.27c.96.13,1.5.16,2.34.19,1.38-2.18,2.88-4.74,3.17-6.78l2.14,1.41c.19.13.32.22.32.42,0,.29-.1.32-.96.54-.7.67-3.55,3.81-4.13,4.45.7.03.93,0,2.91-.06-.29-.96-.45-1.25-.64-1.66l.13-.13c1.57.58,2.75,1.6,2.75,2.94,0,.29-.06,1.15-1.02,1.15Zm-1.79-10.01c-.35.32-1.73,1.57-2.56,2.34.67.35,1.25.77,1.25,1.57,0,.58-.42,1.15-.99,1.15-.48,0-.64-.29-1.15-1.12-.74-1.22-1.12-1.57-1.7-1.98v-.19c.58,0,1.18.03,2.21.42,1.25-2.88,1.28-3.87,1.34-4.64l2.3,1.44c.19.13.42.19.42.48,0,.35-.77.48-1.12.54Zm13.63,10.08c-.58,0-.8-.54-.93-.8-.1-.22-.51-1.18-.58-1.38-.77.19-4.13.99-4.77,1.22-.06.03-.32.35-.38.42-.1.1-.16.1-.26.1-.22,0-.32-.19-.42-.42l-.7-2.02c.96.1,1.34.13,1.95.16.32-.42,3.2-3.87,3.78-6.21l2.14,1.22c.1.06.35.26.35.48,0,.26-.35.38-1.02.61-.74.61-3.87,3.39-4.54,3.94,1.73.03,2.75,0,3.58,0-.38-.64-.67-.93-.96-1.25l.1-.22c1.25.38,3.68,1.12,3.68,2.98,0,.74-.48,1.18-1.02,1.18Zm-3.1-9.86c-.42.32-2.24,1.7-2.59,1.95.32.22,1.02.74,1.02,1.6,0,.74-.64,1.06-1.09,1.06-.64,0-.83-.51-.96-.93-.42-1.28-.61-1.66-1.15-2.18l.1-.19c.51.06,1.02.16,1.73.48.64-1.31,1.28-2.66,1.54-4.13l2.3,1.38c.16.1.32.22.32.42,0,.48-.99.54-1.22.54Zm-.77,12.51c-.54,0-.86-.42-1.05-.7-.96-1.28-1.06-1.41-1.63-1.86l.06-.19c.26-.03.48-.06.83-.06.86,0,2.85.38,2.85,1.79,0,.58-.51,1.02-1.06,1.02Z"/><path class="cls-1" d="m632.4,108.76c-2.94-.58-7.94-3.68-10.24-6.98h-6.14c-.99,1.09-3.49,3.65-6.59,5.47l1.63.67h3.68l.74-.83c.19-.22.29-.35.42-.35.16,0,.38.16.61.29l1.28.77c.16.1.26.29.26.42,0,.22-.26.45-.93.99.03.86.16,5.25.16,6.21,0,1.22-1.28,1.25-1.41,1.25-.9,0-.86-.7-.83-1.38h-4.06c.03.67.06,1.82-1.34,1.82-.86,0-.86-.61-.86-.96,0-.54.06-3.2.06-3.81,0-.83,0-4.19-.06-4.7-2.11,1.12-3.26,1.47-4.1,1.7l-.06-.16c1.21-.74,4.67-2.69,8.8-7.39h-4.13c-.77,0-2.37.03-3.78.29l-.64-1.25c2.53.19,4.35.19,4.93.19h4.29c.8-.93,3.01-3.55,3.17-5.41l2.78,1.15c.16.06.29.26.29.35,0,.42-.42.61-1.28.93-.51.74-1.18,1.66-2.34,2.98h12.35l1.22-1.54c.16-.22.35-.42.51-.42s.38.19.58.35l1.79,1.54c.16.13.32.29.32.48,0,.35-.32.35-.48.35h-10.08c3.29,2.88,8.19,4.19,10.97,4.19.48,0,.7-.03,1.02-.06l.06.16c-.74.45-1.82,1.12-2.56,2.69Zm-15.81-17.37c0,.61.13,3.36.13,3.9,0,.64,0,1.92-1.41,1.92-.83,0-.83-.58-.83-1.12h-4.13c0,.13.03.58.03.67,0,.58-.61,1.25-1.38,1.25-.67,0-.9-.42-.9-.99,0-.7.13-3.81.13-4.42,0-.48,0-2.27-.29-3.97l2.43.96h3.94l.61-.64c.16-.16.32-.32.45-.32.16,0,.35.16.51.29l1.41,1.06c.13.1.22.19.22.35,0,.19-.1.32-.93,1.06Zm-2.11-1.02h-4.13v4.96h4.13v-4.96Zm.54,18.33h-4.06v5.82h4.06v-5.82Zm13.47.8c-.03.99.1,5.31.1,6.18,0,1.28-1.28,1.28-1.38,1.28-.93,0-.86-.83-.8-1.7h-3.87c0,.61-.16,1.57-1.44,1.57-.58,0-.83-.29-.83-.93,0-.93.1-4.99.1-5.82,0-2.43-.06-2.78-.16-3.42l2.59,1.18h3.39l.51-.58c.13-.16.29-.32.42-.32s.35.13.48.22l1.38.93c.13.1.26.22.26.45,0,.16-.22.42-.74.96Zm1.34-18.05c0,.74.1,4.26.1,4.61,0,.9-.67,1.22-1.31,1.22-.77,0-.86-.42-.83-1.18h-4.42c0,.86-.51,1.41-1.41,1.41-.8,0-.83-.45-.83-.99,0-.61.06-3.36.06-3.94,0-2.43-.13-3.23-.26-4l2.62,1.02h4l.77-.67c.16-.16.29-.29.42-.29.16,0,.29.13.45.26l1.44,1.15c.13.1.22.22.22.38,0,.26-.19.45-1.02,1.02Zm-3.39,17.15h-3.94v5.89h3.94v-5.89Zm1.34-18.24h-4.45v4.96h4.45v-4.96Z"/><path class="cls-1" d="m651.26,114.11l-.03-.26c6.85-2.43,10.05-6.94,10.05-11.81,0-5.41-4.35-8.61-9.92-8.61-.8,0-.96.03-1.31.19,1.73.93,2.21,2.11,2.21,2.56,0,.35-.1.58-1.09,2.66-2.05,4.38-5.06,10.82-7.23,12.61-.22.16-.61.35-1.02.35-.74,0-1.02-.42-1.98-1.76-.22-.32-1.5-1.5-1.73-1.79-.35-.51-.9-1.66-.9-3.26,0-6.88,5.82-12.54,13.63-12.54,6.21,0,11.84,3.62,11.84,10.05s-5.18,10.98-12.51,11.62Zm-2.53-20.29c-3.52.58-8.42,5.12-8.42,11.01,0,2.18,1.25,4.58,2.5,4.58.86,0,2.11-2.27,2.66-3.36,3.2-6.43,4.26-8.51,4.26-10.17,0-.8-.38-1.47-.99-2.05Z"/><path class="cls-1" d="m694.24,107.87c-4.32.1-6.75.06-7.71.06l2.11.48c.42.1.64.22.64.48,0,.32-.35.58-.71.77l-.03.45h3.52l1.06-1.25c.22-.26.35-.38.51-.38.19,0,.38.13.61.32l1.6,1.25c.13.1.32.29.32.48,0,.26-.22.35-.48.35h-7.13c-.03.7.06,3.78-.06,4.38-.16.8-.99,2.3-3.46,2.34-.35-1.63-1.76-2.56-2.46-2.94v-.22c1.15.22,2.37.29,2.72.29,1.06,0,1.12-.32,1.12-.67.03-.67.03-2.59.03-3.17h-14.66c-.8,0-2.34.03-3.78.29l-.61-1.28c2.18.19,4.48.22,4.9.22h14.11c-.06-1.06-.19-1.6-.29-2.18-7.97,0-9.54-1.15-11.81-3.52-1.82,1.57-2.88,2.4-3.9,3.14-.19.67-.38,1.06-.67,1.06-.26,0-.42-.16-.58-.42l-1.47-2.27c1.6-.13,3.33-.26,4.7-.96v-6.27h-.64c-.8,0-2.34.03-3.78.29l-.64-1.28c1.82.16,2.85.19,4.64.22l.74-.83c.16-.19.32-.32.48-.32s.35.1.61.29l1.31.96c.19.13.29.35.29.48,0,.26-.26.48-.93.93-.03.77-.06,3.1.03,4.26,1.44,2.05,3.74,2.3,8.64,2.3,3.58,0,9.76-.19,13.06-.99l.03.19c-.51.26-1.57,1.02-1.98,2.69Zm-21.31-14.33c-.8,0-.96-.42-1.41-1.66-.61-1.66-1.41-2.43-1.92-2.91l.06-.19c.74.16,4.58,1.22,4.58,3.36,0,.8-.58,1.41-1.31,1.41Zm22.24-.9h-9.34c-.19.22-1.44,1.44-2.18,2.14h5.66l.67-.77c.16-.16.29-.26.45-.26s.32.1.51.22l1.31.93c.19.13.32.29.32.45,0,.29-.16.45-.99.99-.03.61-.06,1.38,0,3.26.03.99.16,2.59.16,3.62,0,1.18-1.09,1.38-1.38,1.38-.19,0-.83-.13-.8-.77h-9.86c.03,1.18-1.15,1.18-1.28,1.18-.93,0-.93-.67-.93-.9,0-.61.1-3.23.1-3.78,0-2.98,0-4.93-.22-6.66l2.43,1.09h3.1c.13-.64.26-1.47.26-2.14h-3.3c-.8,0-2.34,0-3.78.29l-.64-1.28c2.18.19,4.48.22,4.93.22h5.22c.35-.77.93-2.5.93-3.49,0-.54-.06-.74-.13-1.02l3.01,1.02c.26.1.42.26.42.58,0,.48-.67.54-1.02.54-.32.35-1.95,1.82-2.56,2.37h5.18l1.22-1.47c.22-.26.38-.38.54-.38.13,0,.35.13.58.32l1.57,1.44c.19.19.32.38.32.54,0,.19-.26.32-.48.32Zm-16.93,23.65c-1.06,0-1.28-1.18-1.44-2.02-.06-.42-.32-1.89-1.09-2.94l.13-.13c1.12.38,3.74,1.63,3.74,3.55,0,.74-.58,1.54-1.34,1.54Zm3.42-24.77c-.67,0-.9-.51-1.22-1.28s-1.06-1.98-1.6-2.59l.06-.19c1.54.29,3.94,1.25,3.94,2.78,0,.7-.54,1.28-1.18,1.28Zm7.9,4.03h-9.86v1.92h9.86v-1.92Zm0,2.69h-9.86v1.95h9.86v-1.95Zm0,2.72h-9.86v2.11h9.86v-2.11Z"/><path class="cls-1" d="m722.64,116.25c-4.51-2.94-8.06-7.13-10.02-12.16-.48-1.25-.74-2.18-.9-2.72-1.76,4.86-4.61,9.34-8.83,12.35-2.75,1.95-5.18,2.69-6.24,3.01l-.1-.26c9.73-5.18,13.47-15.93,13.31-19.84l.96.16c-.35-2.78-.32-4.29-.32-5.73h-2.91c-.58,0-2.21,0-3.78.29l-.61-1.25c1.98.13,3.97.19,4.9.19h1.82l1.15-1.12c.19-.19.35-.32.54-.32.16,0,.38.13.61.29l1.82,1.34c.26.19.35.32.35.51,0,.51-1.79,1.22-2.75,1.57-.48,10.82,7.2,19.04,14.4,21.02v.29c-.74.13-2.3.48-3.42,2.37Z"/><path class="cls-1" d="m537.71,40.07c-3.46-1.06-10.59-3.9-12.19-13.73-.83,5.02-3.1,9.73-7.97,12.16-3.1,1.54-5.76,1.7-6.78,1.76v-.16c9.34-2.88,12.61-10.66,12.61-15.55,0-.67-.06-1.12-.13-1.54l2.94.8c.22.06.45.19.45.42,0,.45-.48.77-.86.96.45,2.37,1.28,4.03,2.02,5.22,1.31-.93,3.81-3.52,4.83-5.79l2.59,2.08c.1.1.22.22.22.42,0,.45-.51.58-.8.58-.16,0-.26-.03-.48-.1-2.69,1.82-5.47,2.94-6.18,3.14,3.13,4.7,8.42,6.24,12.8,6.27v.13c-1.57.7-2.56,1.98-3.07,2.94Zm-19.26-26.4c-2.18,2.11-2.82,2.72-4.13,3.74,2.18,1.12,4.06,2.98,4.06,4.67,0,.67-.38,1.57-1.34,1.57s-1.06-.38-1.47-1.89c-.51-1.76-1.21-3.46-2.56-4.7v-.13c.38.1.58.16.89.29,1.12-1.7,2.24-4.26,2.56-6.24l2.72,1.86c.16.13.22.22.22.38,0,.32-.26.35-.96.45Zm-3.55,18.88c-.64,0-1.18-.54-1.18-1.31,0-.51.13-.96,1.31-1.95,1.66-1.34,2.05-2.72,2.18-3.2h.19c.22.9.22,1.5.22,1.86,0,1.89-.71,4.61-2.72,4.61Zm11.46-19.1c-1.25,1.28-2.82,2.72-4.06,3.71,2.3,1.02,3.65,2.85,3.65,4.06,0,.83-.45,1.5-1.25,1.5s-.99-.48-1.57-2.18c-.45-1.34-1.73-3.14-2.37-3.78l.1-.13c.35.1.61.16,1.06.32,1.22-1.92,2.05-3.87,2.18-5.92l2.85,1.47c.13.06.32.16.32.38,0,.42-.48.48-.9.54Zm8.38.38c-2.43,2.11-3.1,2.69-4.61,3.68,2.72,1.09,4.1,3.04,4.1,4.25,0,.16-.03,1.5-1.25,1.5-.8,0-.86-.22-1.66-2.21-.58-1.47-1.41-2.85-2.69-3.81l.13-.16c.51.13.67.16.96.26,1.89-2.37,2.78-4.58,3.14-6.11l2.69,1.79c.13.1.19.16.19.38,0,.32-.8.42-.99.42Z"/><path class="cls-1" d="m568.96,28.97h-23.87c-.58,0-2.21,0-3.78.29l-.64-1.28c1.98.16,3.97.22,4.93.22h7.81v-3.49h-3.36c-.8,0-2.33,0-3.78.29l-.64-1.28c2.02.16,4.03.22,4.93.22h2.85v-3.36h-3.62c-.58,0-2.21,0-3.78.29l-.61-1.28c1.98.16,3.94.22,4.9.22h3.07c-.03-.67-.1-1.66-.42-3.07l2.91.64c.42.1.64.26.64.45,0,.29-.13.45-.9.99.03.48.03.58.03.99h4.8l.9-1.25c.16-.22.32-.42.51-.42s.38.16.58.32l1.57,1.28c.22.19.32.35.32.51,0,.19-.19.32-.51.32h-8.16l-.03,3.36h4.29l.99-1.28c.19-.26.32-.42.51-.42.16,0,.35.16.58.35l1.47,1.28c.16.16.32.35.32.51,0,.19-.26.32-.48.32h-7.68v3.49h9.21l1.38-1.6c.19-.22.35-.38.51-.38s.32.13.54.32l1.86,1.6c.16.13.32.35.32.51,0,.22-.29.32-.48.32Zm-2.08-11.62c-.96.06-1.98.7-2.91,1.25l-.16-.16c.1-.42.51-2.27.58-2.66h-18.33c.19,2.82-1.31,4.77-3.04,4.77-1.15,0-1.38-.9-1.38-1.25,0-.67.1-.74,1.73-2.08,1.12-.9,1.79-2.21,1.92-3.62h.19c.19.38.35.67.48,1.41h7.74c0-1.76-.03-2.05-.58-4.03l3.17.77c.42.1.54.19.54.48,0,.26-.22.51-.9.9,0,.32-.03,1.63-.03,1.89h8.13l.99-.7c.26-.19.45-.29.61-.29.19,0,.35.13.64.38l1.82,1.73c.19.16.32.35.32.64,0,.45-.45.51-1.54.58Zm-3.46,16.16c.03.83.22,4.54.22,5.25,0,1.28-1.41,1.44-1.6,1.44-.8,0-.83-.74-.83-1.34h-12.51c-.03.54-.06.9-.16,1.06-.22.35-.7.67-1.34.67-.54,0-.9-.32-.9-.99,0-.58.19-3.58.19-4.26,0-.54,0-2.56-.19-4.64l2.69,1.31h11.71l.77-.83c.22-.22.35-.35.51-.35s.38.1.61.29l1.38,1.09c.16.13.32.32.32.48,0,.19-.16.42-.86.83Zm-2.21-.74h-12.51v5.31h12.51v-5.31Z"/><path class="cls-1" d="m573.51,33.45c-.1.83-.13,1.12-.54,1.12-.26,0-.45-.29-.58-.51l-1.34-2.66c2.18-.16,5.09-1.89,6.14-2.66l.19.19c-.86,1.25-2.53,3.07-3.87,4.51Zm12.09-14.3h-5.7v5.18c0,6.98.03,7.39.06,9.47,0,.42.1,2.3.1,2.69,0,1.25,0,3.07-3.9,3.9-.32-1.79-1.5-2.85-2.11-3.2l.1-.26c1.31.16,2.66.19,2.94.19.67,0,.74-.19.74-1.34,0-2.62.03-14.27.03-16.64h-1.86c-.8,0-2.34.03-3.74.29l-.64-1.25c1.98.16,3.97.19,4.93.19h1.31c-.13-5.41-.13-6.02-.77-7.36l3.29.8c.16.03.58.16.58.54,0,.35-.29.51-.96.9-.06,1.06-.1,2.27-.1,5.12h2.62l.83-1.09c.22-.29.35-.38.48-.38s.29.06.61.32l1.31,1.09c.19.16.32.32.32.51,0,.29-.29.32-.48.32Zm-10.14,7.84c-1.02,0-1.15-.7-1.41-1.89-.1-.48-.42-2.02-1.18-3.14l.19-.22c1.22.51,3.65,2.21,3.65,3.94,0,.67-.48,1.31-1.25,1.31Zm8.99-3.17c-1.73,1.57-3.3,2.43-4,2.82l-.1-.16c1.57-2.3,2.37-3.87,2.75-5.31l2.37,1.63c.26.19.32.45.32.61,0,.45-.54.45-1.34.42Zm.61,9.98c-.7,0-.96-.42-1.57-1.47-.8-1.41-1.6-2.53-2.75-3.46l.13-.22c1.09.29,5.44,1.47,5.44,3.9,0,.67-.58,1.25-1.25,1.25Zm-.64-17.28c-.67,0-.83-.32-1.31-1.25-.61-1.12-1.09-1.63-1.54-2.08l.1-.26c.9.1,3.97.42,3.97,2.37,0,.48-.35,1.22-1.22,1.22Zm13.95,23.23c-2.72-1.66-5.21-3.68-6.94-6.37-2.24,3.33-5.73,5.54-9.6,6.59l-.13-.26c3.58-1.95,6.62-4.8,8.67-8.35-1.31-2.98-1.6-6.24-1.79-9.47-1.38,2.4-2.27,3.36-2.72,3.87l-.22-.1c1.6-3.01,4.35-10.85,4.35-13.86,0-.38-.03-.64-.13-1.25l3.26,1.54c.19.1.45.29.45.51,0,.38-.35.48-1.22.77-.99,3.04-1.7,4.48-2.56,6.21h6.53l1.12-1.25c.26-.29.35-.42.51-.42.19,0,.48.26.61.35l1.57,1.28c.1.06.32.26.32.48,0,.32-.32.32-.48.32h-5.12l1.66.99c.32.19.51.35.51.61,0,.38-.54.58-1.15.77-.48,1.63-1.54,5.57-3.49,9.15,2.14,2.69,5.73,4.51,8.93,5.63v.13c-.58.16-1.82.54-2.94,2.11Zm-8.96-19.39c-.13.26-.19.35-.32.61.1,1.18.48,5.76,2.05,8.96,2.05-4.16,2.37-8.29,2.24-9.57h-3.97Z"/><path class="cls-1" d="m610.4,25.96c.03,1.7.19,9.18.19,10.72,0,.93,0,3.07-3.26,3.55-.26-1.66-1.79-2.62-3.1-3.26l.03-.19c.8.06,2.88.22,3.33.22.8,0,.8-.38.8-2.72,0-1.15-.03-6.21-.03-7.23-.42.22-2.33,1.15-2.72,1.34-.19.64-.35.93-.67.93-.19,0-.35-.19-.42-.32l-1.38-3.07c.32.06.51.1.8.1.93,0,3.33-.64,4.38-.93,0-2.05-.03-4.32-.06-6.11-.8,0-2.37.03-3.84.29l-.64-1.28c1.25.13,2.3.19,4.48.22-.1-4.77-.35-5.6-.8-7.1l3.42.96c.29.06.48.22.48.45,0,.29-.19.51-1.02,1.12v4.54h.93l.74-1.18c.16-.26.32-.42.48-.42.19,0,.42.19.61.35l1.47,1.18c.16.13.32.35.32.51,0,.22-.16.35-.48.35h-4.06v5.47c1.89-.61,3.55-1.18,4.51-1.6l.06.19c-.74.58-1.76,1.41-4.54,2.91Zm20.54,14.01c-4.51-1.5-7.01-3.39-7.65-3.97-4.22,3.65-8.38,4-9.7,4.1v-.19c3.14-1.12,5.98-2.85,8.38-5.18-1.66-1.89-2.27-3.62-2.56-4.51-1.7,3.42-4.45,6.18-7.62,8.29l-.1-.26c1.6-1.57,4.93-5.12,7.2-11.81h-2.18c-.8,0-2.34.03-3.78.29l-.64-1.28c2.21.19,4.51.22,4.93.22h1.92c.58-1.82.74-2.98.83-3.81h-1.38c-.8,0-2.34.03-3.78.32l-.61-1.28c2.18.19,4.45.19,4.9.19h7.71l.9-.99c.26-.29.35-.38.51-.38s.35.13.58.32l1.28,1.02c.26.19.32.32.32.48,0,.26-.26.32-.48.32h-7.62c-.22.96-.38,1.6-1.09,3.81h7.33l1.12-1.44c.22-.29.35-.38.51-.38.13,0,.35.13.58.32l1.7,1.44c.19.16.32.32.32.51,0,.22-.16.32-.48.32h-11.33c-.22.7-.54,1.5-1.12,2.85h5.63l.93-1.02c.26-.29.42-.38.61-.38.16,0,.35.1.58.26l1.57,1.15c.16.13.35.32.35.48,0,.42-.16.51-1.63.9-.9,1.34-1.82,2.59-3.26,4.06,3.84,2.24,7.55,2.34,8.93,2.34v.22c-.51.26-1.57.74-2.62,2.69Zm-2.27-26.33c-.16,0-.42-.03-.83-.13-4.13,1.18-8.8,1.82-12.99,1.63v-.29c1.44-.13,4.8-.74,9.86-2.56.96-.35,1.66-.64,2.27-1.34l2.05,1.86c.13.1.19.29.19.42,0,.29-.22.42-.54.42Zm-10.75,6.72c-.83,0-.99-.51-1.5-2.05-.1-.32-.74-1.95-1.28-2.72l.1-.1c.86.38,3.84,1.79,3.84,3.62,0,.67-.35,1.25-1.15,1.25Zm2.02,9.66c.58.96,1.47,2.27,3.1,3.58,1.38-1.6,1.89-2.53,2.43-3.58h-5.54Zm2.91-10.08c-.93,0-1.12-.67-1.41-1.76-.29-.99-.9-2.4-1.44-3.1l.1-.06c3.04,1.6,3.9,2.56,3.9,3.68,0,.45-.19,1.25-1.15,1.25Zm6.53-3.01c-1.82,1.63-2.43,2.18-4.26,3.68l-.13-.13c.19-.32,2.4-3.97,2.97-6.14l2.21,1.34c.32.19.42.35.42.61,0,.29-.19.48-1.22.64Z"/><path class="cls-1" d="m662.52,33.74c-1.73,0-9.18-8.03-11.13-10.27-1.41-1.66-3.01-3.55-3.94-3.55-1.09,0-2.69,2.24-3.52,3.36-2.72,3.78-2.94,4.35-3.55,5.76-.26.58-.45.67-.74.67-.83,0-3.42-1.98-3.42-3.97,0-.29.06-.58.13-1.02,1.06,1.25,1.57,1.6,2.02,1.6s.9-.48,1.31-.96c1.47-1.66,5.66-6.27,6.69-6.85.26-.16.67-.32,1.18-.32,1.06,0,1.73.35,4.83,3.78,4,4.38,5.5,5.38,8.57,7.39.93.61,2.37,1.98,2.37,3.3,0,.51-.22,1.09-.8,1.09Zm-3.39-12.19c-.48,0-.61-.16-1.63-1.5-.99-1.31-2.27-2.21-3.23-2.82,3.33.32,5.6,1.7,5.6,3.23,0,.58-.32,1.09-.74,1.09Zm3.14-2.78c-.38,0-.54-.16-2.02-1.63-.22-.22-1.28-1.28-3.14-2.3,2.53-.1,5.89,1.22,5.89,3.01,0,.58-.38.93-.74.93Z"/><path class="cls-1" d="m675.9,20.59c-.54,0-.93-.38-1.95-1.41-2.24-2.27-4.03-3.1-5.25-3.65,3.84-.26,8.38,1.12,8.38,3.78,0,.7-.54,1.28-1.18,1.28Zm2.78,10.98c-.67.51-3.68,2.69-4.22,3.23-.16.16-.86.96-1.02,1.12-.13.13-.38.19-.54.19-1.12,0-3.23-2.69-3.23-4.19,0-.58.19-1.06.32-1.41.74,1.44,1.66,2.11,2.34,2.11,1.06,0,6.02-3.68,7.39-4.74,5.15-3.94,7.62-6.69,10.21-9.66l.16.1c-.77,2.34-4.35,7.84-11.39,13.25Z"/><path class="cls-1" d="m711.54,20.33c-.51.22-.7.38-1.12,1.25-5.7,11.33-10.11,14.78-17.66,17.25l-.13-.26c5.66-3.07,9.38-7.13,11.17-9.76-.22,0-.51,0-1.34-.99-1.22-1.44-1.98-2.34-4.16-3.68-2.18,2.37-4.35,3.55-5.47,4.16l-.1-.16c3.68-3.58,7.94-10.37,7.94-12,0-.7-.7-1.12-1.82-1.7.74-.26,1.12-.38,1.57-.38,1.18,0,3.58,1.57,3.58,2.27,0,.29-.13.38-.58.83-.35.35-.42.45-1.05,1.41.77.13,5.6-.16,6.81-.93.1-.06.83-.51.9-.51.29,0,2.46,1.95,2.46,2.5,0,.26-.32.38-.99.7Zm-8.16-.19c-.42,0-.9-.06-1.76-.54-.45.7-1.98,2.94-2.98,4.1,1.22.19,3.71.8,5.06,1.86.51.42.96,1.18.9,2.08,2.05-3.2,3.74-6.69,4.19-8.22-.93.16-4.7.74-5.41.74Zm10.24-1.98c-.51,0-.7-.26-1.66-1.47-1.02-1.28-1.98-1.92-3.07-2.59,3.65.26,5.47,1.57,5.47,3.04,0,.58-.32,1.02-.74,1.02Zm3.36-1.25c-.22,0-.51-.03-1.31-.99-.96-1.15-1.7-1.92-3.52-2.91,1.6-.03,5.5.48,5.5,2.88,0,.67-.29,1.02-.67,1.02Z"/><path class="cls-1" d="m740.55,26.86c-.29,0-1.06-.06-1.12-.06-1.15-.1-1.47-.13-3.62-.13-9.76,0-12.64.19-14.08.58-.1.03-1.12.29-1.22.29-.83,0-2.56-2.05-2.56-3.52,0-.19.03-.8.38-1.54,1.09,2.43,2.08,2.43,5.41,2.43,2.21,0,12.61-.03,14.08-.38.19-.03,1.12-.29,1.31-.29s3.39.35,3.39,1.6c0,.99-1.6,1.02-1.98,1.02Z"/><path class="cls-1" d="m760.5,37.23l-.03-.26c6.85-2.43,10.05-6.94,10.05-11.81,0-5.41-4.35-8.61-9.92-8.61-.8,0-.96.03-1.31.19,1.73.93,2.21,2.11,2.21,2.56,0,.35-.1.58-1.09,2.66-2.05,4.38-5.06,10.82-7.23,12.61-.22.16-.61.35-1.02.35-.74,0-1.02-.42-1.98-1.76-.22-.32-1.5-1.5-1.73-1.79-.35-.51-.9-1.66-.9-3.26,0-6.88,5.82-12.54,13.63-12.54,6.21,0,11.84,3.62,11.84,10.05s-5.18,10.98-12.51,11.62Zm-2.53-20.29c-3.52.58-8.41,5.12-8.41,11.01,0,2.18,1.25,4.58,2.5,4.58.86,0,2.11-2.27,2.66-3.36,3.2-6.43,4.26-8.51,4.26-10.17,0-.8-.38-1.47-.99-2.05Z"/><path class="cls-1" d="m787.98,17.74h-7.52c-.29,0-2.27,0-3.74.29l-.64-1.25c2.11.16,4.32.19,4.93.19h3.52l1.06-1.22c.22-.29.35-.35.48-.35.19,0,.32.1.61.32l1.47,1.18c.19.13.32.35.32.51,0,.22-.19.32-.48.32Zm-1.79,4h-4.22c-.8,0-2.33.03-3.74.29l-.64-1.28c2.18.19,4.45.22,4.9.22h.64l.8-1.02c.22-.29.32-.38.51-.38.16,0,.32.1.61.32l1.31,1.02c.16.13.32.29.32.51,0,.19-.19.32-.48.32Zm.19-8.06h-4.26c-.42,0-2.21,0-3.78.29l-.64-1.28c2.14.19,4.38.22,4.93.22h.7l.86-1.06c.19-.26.32-.35.45-.35.16,0,.35.1.61.32l1.28,1.02c.19.16.32.35.32.48,0,.29-.19.35-.48.35Zm.1,16.96c0,.61.03,3.68.06,5.09.03.26.13,1.31.13,1.54,0,1.02-1.02,1.38-1.5,1.38-.86,0-.83-.7-.83-1.6h-4.16c.06,1.89.13,3.14-1.5,3.14-.74,0-.9-.42-.9-.8,0-.16.03-.58.06-.77.13-1.5.22-5.79.22-6.37,0-2.91-.1-3.62-.22-4.42l2.66,1.47h3.58l.77-.86c.26-.29.42-.38.54-.38s.29.06.64.32l1.18.86c.16.13.29.26.29.42,0,.38-.35.61-1.02.99Zm-.29-4.96h-3.97c-.58,0-2.21,0-3.74.29l-.64-1.28c1.98.16,3.97.22,4.9.22h.58l.77-.99c.19-.26.35-.35.51-.35.19,0,.35.1.58.29l1.18.99c.19.16.32.35.32.51,0,.22-.19.32-.48.32Zm-1.82,4.38h-4.22v6.21h4.22v-6.21Zm18.34,9.38c-3.97-1.06-6.21-2.94-7.58-4.45-2.85,2.78-6.56,4.42-10.46,5.18v-.22c5.82-2.56,8.77-5.92,9.25-6.43-2.08-2.91-2.53-5.5-2.72-6.75-1.18.1-1.5.16-1.95.26l-.61-1.28c2.14.19,4.35.22,4.9.22h4.32l.9-.9c.22-.22.38-.32.58-.32.16,0,.29.06.58.32l1.28,1.15c.19.19.35.38.35.58,0,.38-.22.54-1.63.93-.54,1.38-1.47,3.52-3.55,5.98,2.56,1.89,5.73,2.69,8.9,2.91v.19c-1.22.54-2.05,1.44-2.53,2.62Zm-2.37-16.86c-3.97,0-3.97-.22-3.97-4.06v-4.35c0-.06,0-.16-.03-.29h-3.07c-.16,5.6-1.06,8.22-4.64,10.4l-.16-.16c2.24-2.69,2.66-5.86,2.66-8.48,0-1.73-.19-2.91-.32-3.81l2.46,1.28h3.07l.67-.74c.22-.26.38-.38.54-.38s.35.13.54.29l1.25,1.02c.19.16.32.35.32.51,0,.26-.22.45-1.15.96-.03,1.22-.06,3.49-.06,4.8,0,.7.19.9,1.34.9.58,0,1.57,0,1.98-.32.48-.38.61-.96,1.31-3.94l.19-.03c.16,1.06.54,3.33,1.22,3.71.54.32.61.45.61.67,0,2.02-2.62,2.02-4.77,2.02Zm-7.33,4.16c-.42,0-.99,0-1.38.03.93,3.2,2.4,4.86,3.2,5.66,2.05-2.78,2.62-4.86,2.88-5.7h-4.7Z"/><path class="cls-1" d="m835.72,21.32h-12.32c-.06.8-.16,1.63-.19,2.46h5.12l.83-.83c.1-.1.29-.29.48-.29.16,0,.32.1.54.26l1.25.93c.19.16.32.35.32.51,0,.32-.48.7-1.06,1.02,0,1.57.06,3.33.1,4.64.03.7.19,3.78.19,4.42,0,1.22-1.09,1.41-1.54,1.41-.9,0-.9-.45-.9-1.06h-9.38c.03,1.34-1.31,1.34-1.5,1.34-.83,0-.93-.42-.93-.77,0-.19,0-.35.03-.48.19-1.57.19-3.94.19-5.38,0-2.21-.03-4.99-.19-7.17l2.5,1.44h1.73c.1-.86.19-2.34.19-2.46h-8.67c-.8,0-2.34,0-3.78.29l-.64-1.28c2.18.19,4.45.22,4.93.22h8.22c.03-1.31.03-1.57-.13-2.4.51.1,2.72.67,2.72.67.32.06.54.19.54.45s-.35.48-.86.77q-.03.26-.03.51h8.67l1.09-1.22c.22-.22.35-.42.51-.42s.32.13.58.32l1.5,1.25c.13.1.35.32.35.48,0,.29-.29.35-.48.35Zm.29,17.37h-22.43c0,.7,0,1.66-1.54,1.66-.96,0-.96-.67-.96-1.06,0-.32.06-1.7.06-1.98.06-2.59.13-5.18.13-7.78,0-4.45-.13-5.25-.38-6.46l3.07.93c.26.06.48.22.48.51,0,.38-.38.61-.89.93-.06,1.47-.06,2.98-.06,4.48,0,1.02,0,1.41.03,5.02,0,.42.03,2.56.06,2.98h18.43l1.22-1.5c.22-.26.35-.42.51-.42.19,0,.29.1.58.32l1.89,1.54c.13.13.32.29.32.51,0,.29-.29.32-.51.32Zm-3.3-24.54c0,.58.13,3.01.13,3.52,0,.93-.61,1.38-1.54,1.38-.7,0-.83-.26-.83-1.15h-16.22c.03,1.57-1.41,1.6-1.66,1.6-.19,0-.83-.1-.83-.8,0-.51.16-2.82.16-3.3,0-2.62-.29-3.55-.45-4.13l2.88,1.28h16.03l.8-.8c.06-.06.26-.26.45-.26.16,0,.35.1.64.32l1.22.93c.1.06.22.22.22.38,0,.22-.13.38-.99,1.02Zm-14.72-.83h-3.78v3.81h3.78v-3.81Zm10.53,11.23h-9.38v2.4h9.38v-2.4Zm0,3.17h-9.38v2.69h9.38v-2.69Zm0,3.46h-9.38v2.85h9.38v-2.85Zm-4.48-17.85h-3.87v3.81h3.87v-3.81Zm6.43,0h-4.29v3.81h4.29v-3.81Z"/><path class="cls-1" d="m492.1.94h-40.18c-.48,0-.87.39-.87.87v47.17c0,.48.39.87.87.87h40.18c.48,0,.87-.39.87-.87V1.82c0-.48-.39-.87-.87-.87Zm-37.56,3.49h22.71v6.99h-1.75v-3.49c0-.96-.78-1.75-1.75-1.75s-1.75.78-1.75,1.75v3.49h-1.75v-3.49c0-.96-.78-1.75-1.75-1.75s-1.75.78-1.75,1.75v3.49h-6.99v-3.49c0-.96-.78-1.75-1.75-1.75s-1.75.78-1.75,1.75v3.49h-1.75v-6.99Zm0,10.48h22.71v6.99h-1.75v-3.49c0-.96-.78-1.75-1.75-1.75s-1.75.78-1.75,1.75v3.49h-1.75v-3.49c0-.96-.78-1.75-1.75-1.75s-1.75.78-1.75,1.75v3.49h-1.75v-3.49c0-.96-.78-1.75-1.75-1.75s-1.75.78-1.75,1.75v3.49h-1.75v-3.49c0-.96-.78-1.75-1.75-1.75s-1.75.78-1.75,1.75v3.49h-1.75v-6.99Zm6.99,13.98v3.49h-1.75v-3.49c0-.96-.78-1.75-1.75-1.75s-1.75.78-1.75,1.75v3.49h-1.75v-6.99h22.71v6.99h-1.75v-3.49c0-.96-.78-1.75-1.75-1.75s-1.75.78-1.75,1.75v3.49h-6.99v-3.49c0-.96-.78-1.75-1.75-1.75s-1.75.78-1.75,1.75Zm19.22,15.72h-17.47v-6.99h17.47v6.99Zm6.99-14.85c0,.48-.39.87-.87.87h-3.49c-.48,0-.87-.39-.87-.87v-1.75c0-.48.39-.87.87-.87h3.49c.48,0,.87.39.87.87v1.75Zm0-10.48c0,.48-.39.87-.87.87h-3.49c-.48,0-.87-.39-.87-.87v-1.75c0-.48.39-.87.87-.87h3.49c.48,0,.87.39.87.87v1.75Zm0-10.48c0,.48-.39.87-.87.87h-3.49c-.48,0-.87-.39-.87-.87v-1.75c0-.48.39-.87.87-.87h3.49c.48,0,.87.39.87.87v1.75Z"/><path class="cls-1" d="m536.44,188.8c-.35,0-1.89-.45-2.21-.51-2.08-.42-5.12-.67-7.2-.67-3.33,0-10.05.61-12.32,1.31-.26.06-1.47.61-1.6.61-.93,0-2.78-1.98-2.78-3.49,0-.35.06-.61.19-1.02.35.61,1.18,2.05,3.33,2.05.22,0,3.52-.29,3.97-.32.74-.06,3.97-.32,4.61-.38.16-5.06.19-6.11.19-6.94,0-3.01-.42-3.33-1.15-3.84-1.98.26-2.08.26-3.01.42-.16.03-.9.16-.99.16-.93,0-2.62-1.63-2.69-3.04,1.5,1.22,3.49,1.22,4,1.22,1.12,0,8.64-.58,9.66-.96.19-.06,1.02-.48,1.22-.48.32,0,2.46.51,2.46,1.54,0,.67-.77.7-1.02.7-2.62,0-5.09.06-6.75.19.77.64.86.7.86.99,0,.26-.38,1.44-.42,1.7-.13.93-.13,1.18-.51,8.26,4.8-.19,5.31-.22,6.4-.22,1.38,0,1.5,0,1.89-.06.26-.03,1.18-.22,1.34-.22,1.06,0,3.14,1.18,3.14,2.37,0,.35-.16.67-.61.67Z"/><path class="cls-1" d="m558.84,175.74c-.9.29-1.12.45-1.79,1.25-.7.9-1.73,2.11-3.26,3.84.99.58,1.09.64,1.09.93,0,.16-.16.8-.19.96-.06.42-.19,1.89-.19,3.87,0,.99.16,5.47.16,6.4,0,.22,0,1.7-.99,1.7-.8,0-1.44-1.34-1.44-2.08,0-.32.19-1.7.22-1.98.13-1.54.13-4.45.13-5.18s0-2.75-.19-3.14c-2.69,2.66-5.79,5.28-10.4,6.91l-.13-.32c7.1-4.35,13.25-12.77,13.25-13.47,0-.03-.03-.13-.19-.13-.19,0-4.58,1.22-6.17,1.89-.26.1-1.25.74-1.5.74-.9,0-2.43-2.02-2.43-3.23,0-.64.1-.9.19-1.15,1.18,1.5,1.86,1.66,2.56,1.66,1.47,0,7.26-.7,8.77-1.89.54-.42.61-.48.8-.48.48,0,2.66,1.54,2.66,2.18,0,.32-.19.51-.93.74Zm-3.39-4.29c-.45,0-.48,0-2.27-1.6-1.92-1.73-3.52-2.27-4.51-2.62.54-.1.86-.16,1.66-.16,2.46,0,4.86.99,5.63,1.73.42.42.54,1.15.54,1.47,0,.61-.29,1.18-1.06,1.18Zm8.58,16.22c-.74,0-1.12-.54-1.44-.99-2.21-3.14-5.18-5.06-7.36-6.4,5.31.54,9.79,3.84,9.79,6.21,0,.16-.03,1.18-.99,1.18Z"/><path class="cls-1" d="m577.02,175.71c-.06.74-.32,4.03-.38,4.7-.83,6.88-4.96,10.53-7.68,11.65l-.16-.19c5.92-5.57,5.92-12.48,5.92-15.17s-.03-2.66-2.46-3.3c.51-.35,1.21-.83,2.11-.83.83,0,3.01.7,3.01,1.6,0,.26-.32,1.31-.35,1.54Zm7.78,13.21c-1.09.77-1.18.9-2.02,1.79-.16.16-.45.48-.64.48-.61,0-2.05-2.62-2.05-3.04,0-.22.38-1.18.42-1.41.29-1.34.29-5.5.29-6.37,0-1.18-.03-7.1-.19-7.87-.13-.58-.77-.99-2.3-1.5.42-.26,1.06-.67,1.79-.67.96,0,3.46.96,3.46,1.92,0,.29-.38,1.57-.45,1.82-.32,1.63-.48,10.59-.48,12.54,0,.13,0,.54.22.54.77,0,6.56-3.68,11.58-10.08l.26.19c-2.18,5.25-6.78,9.44-9.89,11.65Z"/><path class="cls-1" d="m621.1,181.76c-3.52,0-5.02,0-9.21.74.45,2.37.96,4.8,1.38,6.72.64,2.85.74,3.33.74,3.78,0,.77-.58,1.25-1.02,1.25-.35,0-1.76-.54-1.79-3.49-.03-1.06-.26-2.62-.32-3.07-.38-2.53-.48-3.17-.74-4.8-1.86.38-5.66,1.15-7.1,1.82-1.18.54-1.41.64-1.82.64-.8,0-3.1-1.47-3.1-3.23,0-.29.06-.51.19-.8.48.67,1.5,1.63,2.85,1.63.71,0,1.57-.19,2.34-.32,1.02-.19,5.5-1.02,6.43-1.18-.13-.74-.64-4-.77-4.67-.06-.35-.1-.54-.16-.8-2.62.58-3.49.9-4.74,1.44-.51.22-.7.32-.89.32-.58,0-2.82-1.38-2.82-2.85,0-.22.06-.48.1-.64.7.54,1.6,1.18,2.85,1.18.48,0,2.53-.35,5.25-.8-.19-.77-.8-3.55-.99-4-.45-1.06-1.5-1.31-2.91-1.63.74-.51,1.34-.96,2.24-.96.99,0,3.42.54,3.42,1.41,0,.26-.26,1.25-.26,1.47,0,.77.32,2.88.38,3.36,2.91-.54,3.23-.58,4.64-1.12.29-.1.51-.19.83-.19.8,0,2.59.26,2.59,1.28,0,.8-.77.83-1.06.83-1.98,0-3.26,0-6.82.58,0,.06.77,4.8.86,5.47,1.12-.19,4.96-.93,5.66-1.22,1.22-.51,1.34-.58,1.79-.58.8,0,3.3.35,3.3,1.54,0,.9-.86.9-1.31.9Zm-.29-8.51c-.38,0-.48-.1-1.44-1.18-1.7-1.86-2.56-2.4-3.62-2.98,1.6-.03,5.82.83,5.82,3.17,0,.58-.35.99-.77.99Zm3.94-1.09c-.45,0-.58-.13-1.6-1.38-1.15-1.38-1.86-1.95-3.49-2.94,1.6.1,5.82.74,5.82,3.2,0,.51-.13,1.12-.74,1.12Z"/><path class="cls-1" d="m650.18,182.24c-.29,0-1.06-.06-1.12-.06-1.15-.1-1.47-.13-3.62-.13-9.76,0-12.64.19-14.08.58-.1.03-1.12.29-1.22.29-.83,0-2.56-2.05-2.56-3.52,0-.19.03-.8.38-1.54,1.09,2.43,2.08,2.43,5.41,2.43,2.21,0,12.61-.03,14.08-.38.19-.03,1.12-.29,1.31-.29s3.39.35,3.39,1.6c0,.99-1.6,1.02-1.98,1.02Z"/><path class="cls-1" d="m670.13,192.6l-.03-.26c6.85-2.43,10.05-6.94,10.05-11.81,0-5.41-4.35-8.61-9.92-8.61-.8,0-.96.03-1.31.19,1.73.93,2.21,2.11,2.21,2.56,0,.35-.1.58-1.09,2.66-2.05,4.38-5.05,10.82-7.23,12.61-.22.16-.61.35-1.02.35-.74,0-1.02-.42-1.98-1.76-.22-.32-1.5-1.5-1.73-1.79-.35-.51-.9-1.66-.9-3.26,0-6.88,5.82-12.54,13.63-12.54,6.21,0,11.84,3.62,11.84,10.05s-5.18,10.98-12.51,11.62Zm-2.53-20.29c-3.52.58-8.42,5.12-8.42,11.01,0,2.18,1.25,4.58,2.5,4.58.86,0,2.11-2.27,2.66-3.36,3.2-6.43,4.26-8.51,4.26-10.17,0-.8-.38-1.47-.99-2.05Z"/><path class="cls-1" d="m705.9,194.78q-7.14,0-7.14-4.99c0-1.63,0-4.13.06-5.66h-3.9l1.47.77c.22.13.42.26.42.54,0,.38-.32.51-1.06.67-1.79,4.54-4.9,8.7-12.51,9.5l-.03-.22c3.78-1.15,7.07-3.62,8.99-7.07.99-1.76,1.02-2.94,1.09-4.19h-1.79c.1,1.86-1.34,1.86-1.54,1.86-.93,0-.99-.54-.99-.9,0-.26.06-.67.06-.83.13-2.5.22-8.25.22-9.7,0-5.34-.19-6.46-.42-7.97l2.85,1.54h11.94l.89-1.02c.19-.22.38-.42.58-.42.16,0,.38.13.58.29l1.47,1.25c.26.22.35.35.35.58,0,.32-.64.74-1.18,1.09-.06.93-.06,1.73-.06,2.11,0,3.33.22,10.43.29,11.68.03.35.03.61.03.7,0,1.09-1.15,1.44-1.66,1.44-.8,0-.8-.42-.8-1.7h-3.07v6.72c0,1.44.32,1.66,1.79,1.66,1.66,0,4.42,0,4.93-.1,1.5-.32,2.05-2.43,2.94-5.98h.16c.13,1.63.32,4.16.67,4.77.06.13.64.61.8.74.13.1.19.29.19.51,0,2.34-4.7,2.34-6.62,2.34Zm-1.79-25.89h-12.64v4.13h12.64v-4.13Zm0,4.9h-12.64v4.42h12.64v-4.42Zm0,5.18h-12.64v4.38h12.64v-4.38Z"/><path class="cls-1" d="m736.7,194.27c-.06,0-4.48-.1-5.47-.42-2.4-.74-2.75-2.4-3.23-4.93-.32-1.63-1.22-2.08-2.27-2.08-1.41,0-2.08.99-4.67,4.74-.61.86-1.66,2.37-2.21,2.75-.16.13-.29.22-.64.22-.54,0-1.09-.45-1.09-1.44,0-1.06.26-1.28,2.08-2.82,1.12-.93,1.31-1.12,6.3-6.56.77-.86,4.7-5.15,4.77-5.28.03-.06.1-.16.1-.26,0-.32-.38-.32-.51-.32-1.06,0-5.18,1.92-5.66,2.24-.9.64-1.09.77-1.57.77-.86,0-2.78-1.31-2.78-2.62,0-.26.03-.35.29-1.15.64.77,1.18,1.34,2.24,1.34,1.86,0,6.88-1.79,6.98-1.82.93-.35,1.76-.64,1.79-.64.61,0,2.69.99,2.69,2.02,0,.58-.22.7-1.12,1.31-1.73,1.15-5.79,4.48-7.65,6.85.45-.1.96-.19,1.66-.19,2.56,0,2.98,1.73,3.3,3.07.64,2.75.99,3.36,3.33,3.36,1.54,0,3.17-.42,3.68-.54,1.18-.35,1.31-.38,1.66-.38.8,0,1.79.61,1.79,1.38,0,1.31-2.66,1.41-3.78,1.41Zm-5.28-21.44c-.45,0-2.27-.42-2.66-.42-.61,0-.83.06-3.01.61-.1.03-.42.13-.51.13l-.1-.19c.54-.32,1.38-.83,1.86-1.18.54-.38.74-.54.74-.83,0-.42-.26-.58-1.12-1.15-2.02-1.38-2.4-2.14-2.53-3.71,1.25,1.18,2.34,2.05,4.38,2.82,1.63.64,3.71,1.41,3.71,3.01,0,.38-.19.93-.77.93Z"/><path class="cls-1" d="m757.06,193.56c-3.07,0-6.24-1.25-6.24-3.74,0-2.21,2.21-2.78,3.52-2.78,2.4,0,4.19,1.66,5.02,4.32,2.56-.45,4.35-3.2,4.35-5.63s-1.95-4.77-5.22-4.77c-6.24,0-10.37,6.05-10.85,6.78-.8,1.28-1.09,1.76-1.76,1.76-.38,0-1.09-.22-1.09-1.34,0-1.06.26-1.31,2.18-3.17,2.56-2.53,10.43-12.74,10.43-13.95,0-.19-.1-.32-.35-.32-.42,0-2.85.8-4.58,1.73-.06.03-1.31.7-1.41.7-.71,0-2.59-1.02-2.59-3.01,0-.58.16-.83.35-1.06.74,1.22,1.31,1.5,2.21,1.5,1.54,0,4.93-.96,5.89-1.28.22-.06,1.28-.42,1.44-.42,1.22,0,2.34,1.54,2.34,2.21,0,.51,0,.54-1.15,1.41-.83.64-6.97,7.68-8.25,9.76,1.92-1.09,4.35-2.27,7.68-2.27,5.15,0,7.17,3.07,7.17,5.98,0,3.68-3.2,7.58-9.09,7.58Zm-3.49-5.25c-.64,0-1.54.42-1.54,1.34,0,1.66,3.3,2.4,4.22,2.4.48,0,.74-.06,1.12-.19-.67-2.37-2.75-3.55-3.81-3.55Z"/><path class="cls-1" d="m781.91,169.63c-.64,1.12-1.47,2.66-2.88,4.83l1.12.61c.13.06.38.19.38.45,0,.19-.45.58-.9.96-.06.96-.1,1.73-.1,3.65s.13,10.3.13,12.03c0,2.37-.03,2.46-.13,2.72-.26.7-1.12.93-1.63.93-.61,0-.93-.26-.93-.9,0-.45.1-2.5.13-2.91.1-2.85.29-8.29.29-10.62v-4.48c-.93,1.28-3.65,4.96-6.62,6.34l-.1-.16c3.62-3.71,9.28-13.6,9.12-16.64l3.29,2.11c.16.1.29.26.29.35,0,.45-1.22.7-1.47.74Zm17.41,24.35c-1.12.74-4.22.74-5.79.74-5.79,0-6.69-.06-6.69-4.32,0-2.24.19-12.16.19-14.17,0-1.73,0-5.95-.1-7.07-.06-.99-.35-1.6-.54-2.11l3.84,1.12c.19.06.42.16.42.38,0,.32-.42.61-1.25,1.18,0,1.09-.16,5.92-.16,6.88,0,2.24,0,2.5-.03,3.9,2.85-2.02,6.17-6.11,6.82-7.14.35-.58.51-1.09.67-1.66l2.94,2.69c.13.1.19.22.19.42,0,.45-.22.61-1.7.58-2.11,1.76-5.09,4.1-8.93,5.76,0,7.14,0,9.66.1,10.27.13.93.77.93,1.5.93.58,0,3.04.06,3.52.06,3.04,0,3.17-.06,4.45-6.11h.26c.13.93.64,4.26.93,4.77.06.1.58.42.64.51.06.1.1.19.1.32,0,.29,0,1.18-1.38,2.08Z"/><path class="cls-1" d="m471.22,152.53c-10.63,0-19.83,8.97-20.08,19.58-.15,6.47,2.86,12.65,8.05,16.53.77.57,1.22,1.52,1.22,2.52v2.57c0,1.25.5,2.38,1.32,3.21-.13.21-.2.45-.2.71,0,3.99,3.14,8.82,7.03,8.82h5.32c3.9,0,7.03-4.82,7.03-8.82,0-.26-.08-.5-.2-.71.81-.83,1.32-1.96,1.32-3.21v-2.51c0-1.04.46-2.01,1.23-2.59,5.11-3.83,8.05-9.69,8.05-16.05,0-11.06-9.01-20.05-20.08-20.05Zm2.66,51.2h-5.32c-2.01,0-3.97-2.97-4.25-5.47.23.04.46.06.7.06h12.42c.24,0,.47-.02.7-.06-.29,2.5-2.25,5.47-4.25,5.47Zm7.73-17.29c-1.46,1.09-2.33,2.88-2.33,4.78v2.51c0,1.02-.83,1.85-1.85,1.85h-12.42c-1.02,0-1.85-.83-1.85-1.85v-2.57c0-1.86-.87-3.62-2.32-4.71-4.48-3.36-7.08-8.69-6.95-14.28.21-9.16,8.15-16.9,17.33-16.9s17.34,7.77,17.34,17.31c0,5.5-2.53,10.55-6.95,13.86Z"/><path class="cls-1" d="m485.42,165.23c-.15-.71-.83-1.18-1.54-1.08l-.61.09c-4.51.66-9.57,1.41-13.65,6.85-1.74-1.53-5.18-3.92-9.59-3.92-.88,0-1.77.1-2.65.29-.56.13-.98.58-1.06,1.15-.51,3.69-1,15.98,14.03,19.08,0,0,.01,0,.02,0,0,0,.02,0,.03,0,.08.01.16.02.23.02h0s0,0,.01,0c.08,0,.16,0,.24-.02,0,0,.02,0,.02,0,0,0,.02,0,.02,0l.16-.04c4.48-1.01,18.12-4.08,14.33-22.42Zm-26.49,4.74c.37-.04.73-.07,1.1-.07,5.05,0,8.72,4.16,8.76,4.2,0,0,.02.02.03.02,0,0,.01.02.02.03.11.11,2.1,2.36,1.52,7.37-1.08-2.23-2.81-4.98-5.56-7.52-.56-.51-1.42-.48-1.94.08-.51.56-.48,1.42.08,1.94,3.2,2.96,4.87,6.27,5.68,8.39-9.24-2.93-10.01-10.37-9.67-14.44Zm13.75,14.44c1.8-5.19,4.29-9.12,7.42-11.68.59-.48.67-1.34.19-1.93-.48-.59-1.34-.67-1.93-.19-2.06,1.68-3.86,3.86-5.4,6.51-.33-1.86-.97-3.16-1.47-3.95,3.28-4.68,7.26-5.49,11.48-6.12,1.93,11.54-4.01,15.52-10.3,17.36Z"/><path class="cls-1" d="m472.14,114.77c7.14,0,12.95-5.81,12.95-12.95,0-2.9-2.01-7.8-5.98-14.56-2.89-4.92-5.82-9.12-5.85-9.16-.26-.37-.68-.58-1.12-.58s-.87.22-1.12.58c-.03.04-2.96,4.24-5.85,9.16-3.97,6.76-5.98,11.66-5.98,14.56,0,7.14,5.81,12.95,12.95,12.95Zm0-33.45c3.63,5.41,10.21,16.12,10.21,20.51,0,5.63-4.58,10.21-10.21,10.21s-10.21-4.58-10.21-10.21c0-4.38,6.58-15.09,10.21-20.51Z"/><path class="cls-1" d="m472.14,120.37c9.98,0,14.99-5.24,14.99-8.17,0-.75-.61-1.35-1.36-1.36,0,0,0,0-.01,0-.75,0-1.36.61-1.37,1.36-.02.96-3.26,5.43-12.25,5.43s-12.23-4.47-12.25-5.43c0-.76-.61-1.37-1.37-1.37s-1.37.61-1.37,1.37c0,2.93,5.01,8.17,14.99,8.17Z"/><path class="cls-1" d="m492.39,110.83c-.76,0-1.37.61-1.37,1.37,0,5.37-7.75,11.34-18.88,11.34s-18.88-5.98-18.88-11.34c0-.76-.61-1.37-1.37-1.37s-1.37.61-1.37,1.37c0,7.63,9.9,14.09,21.62,14.09s21.62-6.45,21.62-14.09c0-.76-.61-1.37-1.37-1.37Z"/><path class="cls-1" d="m477.37,101.94c0,.76.61,1.37,1.37,1.38h0c.75,0,1.37-.61,1.37-1.37,0-2.54-2.4-7.32-2.67-7.86-.34-.67-1.17-.94-1.84-.6-.67.34-.94,1.17-.6,1.84.92,1.8,2.38,5.19,2.37,6.6Z"/><path class="cls-1" d="m95.97,30.84h-4.77c.03,1.06.1,4.74.1,5.54,0,1.31,0,3.49-3.55,4.1-.32-1.22-.54-2.08-3.1-3.17v-.26c.7.1,1.66.19,2.62.19,1.47,0,1.79-.06,1.79-.8.03-.8,0-4.7,0-5.6h-14.3v7.68c0,.7,0,.9-.13,1.12-.22.45-.93.83-1.63.83-.58,0-.86-.42-.86-.93,0-.22.13-1.28.16-1.5.16-1.38.19-2.37.32-7.2h-.83c-.83,0-2.37.03-3.74.29l-.64-1.28c2.3.22,4.42.22,5.21.22.03-.83.1-6.08.1-6.5,0-2.05,0-4.16-.42-6.18l2.78,1.5h5.7v-4.19h-8.03c-.74,0-2.34.03-3.74.29l-.64-1.28c2.53.22,4.35.22,4.93.22h17.86l1.38-1.57c.16-.19.32-.38.48-.38.19,0,.51.29.58.35l1.73,1.54c.19.16.32.29.32.48,0,.35-.32.35-.48.35h-12.22v4.19h5.79l.64-.8c.22-.29.35-.42.58-.42.16,0,.38.13.61.29l1.5,1.09c.06.06.32.22.32.42,0,.32-.8.96-1.22,1.28,0,2.66,0,4.61.06,9.31h1.05l1.25-1.76c.16-.19.32-.35.48-.35.26,0,.48.26.61.38l1.5,1.6c.26.26.35.38.35.58,0,.32-.32.32-.48.32Zm-15.2-11.17h-6.02v4.77h6.02v-4.77Zm0,5.54h-6.02v4.86h6.02v-4.86Zm8.29-5.54h-6.14v4.77h6.14v-4.77Zm0,5.54h-6.14v4.86h6.14v-4.86Z"/><path class="cls-1" d="m127.73,38.49h-23.9c-.8,0-2.34.03-3.74.32l-.64-1.28c1.98.16,3.94.19,4.9.19h8.58v-8.7h-4.22c-.58,0-2.24,0-3.78.29l-.64-1.25c1.98.13,3.97.19,4.93.19h3.71c0-2.46,0-4.93-.03-7.42h-6.65c-1.25,3.01-2.82,6.78-6.4,9.7l-.19-.1c3.1-4.96,5.76-13.02,5.76-15.9,0-.22-.03-.35-.06-.64l3.36,1.44c.26.13.45.29.45.54,0,.45-.64.64-1.34.86-.51,1.41-.86,2.37-1.28,3.33h6.37c0-.9,0-4.9-.03-5.7,0-.16-.06-1.25-.61-2.72l3.65.99c.26.06.48.19.48.48,0,.19-.06.35-.38.61-.35.26-.45.38-.64.61-.03.48-.06.7-.06,2.33q0,2.05-.03,3.39h6.11l1.15-1.6c.16-.22.32-.38.51-.38.16,0,.32.1.61.32l2.02,1.57c.16.13.32.32.32.51s-.19.35-.48.35h-10.24c-.03,4.54-.06,5.06-.06,7.42h4.51l1.28-1.66c.22-.29.35-.38.48-.38.16,0,.32.1.58.32l2.11,1.66c.19.13.32.32.32.51,0,.16-.13.32-.48.32h-8.8c0,1.38-.03,7.68-.03,8.64v.06h8.09l1.54-1.66c.26-.26.38-.38.54-.38s.32.1.61.35l1.95,1.63c.22.19.32.35.32.51,0,.26-.19.32-.48.32Z"/><path class="cls-1" d="m156.04,15.45h-5.7c0,1.7,0,21.5-.03,21.92-.19,1.82-2.08,2.69-3.55,2.98-.16-1.02-.29-1.73-4.13-3.68v-.19c.42.06,3.01.29,3.81.29s1.41,0,1.54-.51c.1-.42.1-6.78.1-7.81,0-2.08-.1-11.13-.03-12.99h-15.65c-.32,0-2.3,0-3.78.29l-.64-1.28c2.24.19,4.64.22,4.93.22h18.81l1.47-1.7c.16-.19.35-.42.51-.42s.35.16.58.35l1.95,1.7c.16.16.32.29.32.48,0,.32-.29.35-.51.35Zm-14.05,6.24c0,.93.03,3.9.03,4.86,0,.7.1,3.81.1,4.45,0,1.63-1.15,1.7-1.5,1.7-.96,0-.93-.8-.93-1.82h-4.7c.06,1.73.16,3.04-1.54,3.04-.61,0-1.02-.29-1.02-.99,0-.26.1-1.47.1-1.73.1-3.33.1-5.79.1-8.51,0-2.02-.03-2.72-.48-4.16l2.98,1.6h4.38l.86-.83c.26-.26.42-.38.54-.38s.22.03.54.29l1.28,1.02c.26.22.38.32.38.54,0,.29-.51.58-1.12.93Zm-2.3-.8h-4.7v9.22h4.7v-9.22Z"/><path class="cls-1" d="m171.99,21.14c-.8,0-1.22-.8-1.41-1.25-.1-.22-.42-1.18-.51-1.38-2.69.67-6.18,1.47-8.83,1.82-.19.45-.42.86-.77.86-.22,0-.38-.22-.48-.48l-.93-3.01c1.63.54,3.2.54,4.19.54.35-.64,2.18-4.48,2.11-7.04l3.1,1.6c.19.1.38.26.38.54,0,.22,0,.42-1.47.58-1.25,2.02-3.36,4.29-3.39,4.32.38,0,4.51-.06,5.89-.16-.83-1.63-1.34-2.11-1.86-2.59l.03-.13c3.07.74,5.12,2.82,5.12,4.32,0,.58-.32,1.44-1.18,1.44Zm-1.09,3.33v10.72c0,2.72-.03,3.62-.9,4.42-.22.19-.93.83-2.34,1.02-.48-1.82-1.5-2.5-2.3-3.01l.06-.19c1.18.16,2.3.26,2.53.26.19,0,.67,0,.74-.38.03-.38.1-3.97.1-4.16h-5.44c.03,1.06.1,4.61.1,5.54,0,1.57-1.12,1.73-1.47,1.73-.9,0-.99-.67-.99-1.02,0-.1.03-.13.03-.32.26-3.97.29-7.97.29-11.93s-.16-4.77-.26-5.44l2.62,1.38h4.8l.83-.93c.13-.13.22-.22.38-.22.13,0,.19.03.45.19l1.47.99c.26.16.29.38.29.45,0,.22-.29.58-.99.93Zm-2.11-.64h-5.44v3.84h5.44v-3.84Zm0,4.61h-5.44v3.94h5.44v-3.94Zm11.26,11.58c-5.57,0-5.57-.42-5.57-3.49,0-1.31,0-7.78-.03-8.77-.06-1.28-.13-1.63-.35-2.21l3.26.96c.19.06.45.22.45.48s-.22.64-1.22.93c0,.67-.06,3.65-.06,4.29,1.34-.61,4.77-2.46,6.14-4.8l2.34,2.18c.16.16.19.26.19.38,0,.19-.1.45-.45.45-.26,0-.64-.06-.83-.13-2.37,1.38-5.86,2.18-7.39,2.43-.03.77-.06,4.26.06,4.64.19.51.74.64,2.69.64,4.16,0,4.89,0,5.82-5.22h.22c.45,3.3.48,3.65.93,4,.54.38.54.42.54.7,0,2.53-4.45,2.53-6.75,2.53Zm5.6-15.33c-.99.48-2.24.51-4.42.51-6.66,0-6.66-.1-6.69-4.03-.1-7.33-.1-8.16-.38-9.57l3.3,1.06c.22.06.48.16.48.45,0,.51-.87.86-1.28,1.02-.06,1.25-.06,3.33-.06,4.64.83-.35,4.86-2.02,6.37-4.51l2.18,2.18c.13.13.22.26.22.45,0,.22-.19.45-.58.45-.1,0-.19,0-.54-.13-3.71,1.44-6.46,1.95-7.65,2.05,0,1.02,0,2.88.03,3.07.06.29.26.58.7.67.42.06,3.33.13,3.81.13,2.05,0,2.62-.19,3.07-1.06.45-.9.86-2.34,1.05-3.49h.22c.1.9.42,3.68.86,4,.26.16.54.35.54.7,0,.32-.29.96-1.25,1.41Z"/><path class="cls-1" d="m215.88,33.78c-.35,0-1.89-.45-2.21-.51-2.08-.42-5.12-.67-7.2-.67-3.33,0-10.05.61-12.32,1.31-.26.06-1.47.61-1.6.61-.93,0-2.78-1.98-2.78-3.49,0-.35.06-.61.19-1.02.35.61,1.18,2.05,3.33,2.05.22,0,3.52-.29,3.97-.32.74-.06,3.97-.32,4.61-.38.16-5.06.19-6.11.19-6.94,0-3.01-.42-3.33-1.15-3.84-1.98.26-2.08.26-3.01.42-.16.03-.9.16-.99.16-.93,0-2.62-1.63-2.69-3.04,1.5,1.22,3.49,1.22,4,1.22,1.12,0,8.64-.58,9.66-.96.19-.06,1.02-.48,1.21-.48.32,0,2.46.51,2.46,1.54,0,.67-.77.7-1.02.7-2.62,0-5.09.06-6.75.19.77.64.86.7.86.99,0,.26-.38,1.44-.42,1.7-.13.93-.13,1.18-.51,8.26,4.8-.19,5.31-.22,6.4-.22,1.38,0,1.5,0,1.89-.06.26-.03,1.18-.22,1.34-.22,1.06,0,3.14,1.18,3.14,2.37,0,.35-.16.67-.61.67Z"/><path class="cls-1" d="m238.29,20.73c-.9.29-1.12.45-1.79,1.25-.7.9-1.73,2.11-3.26,3.84.99.58,1.09.64,1.09.93,0,.16-.16.8-.19.96-.06.42-.19,1.89-.19,3.87,0,.99.16,5.47.16,6.4,0,.22,0,1.7-.99,1.7-.8,0-1.44-1.34-1.44-2.08,0-.32.19-1.7.22-1.98.13-1.54.13-4.45.13-5.18s0-2.75-.19-3.14c-2.69,2.66-5.79,5.28-10.4,6.91l-.13-.32c7.1-4.35,13.25-12.77,13.25-13.47,0-.03-.03-.13-.19-.13-.19,0-4.58,1.22-6.18,1.89-.26.1-1.25.74-1.5.74-.9,0-2.43-2.02-2.43-3.23,0-.64.1-.9.19-1.15,1.18,1.5,1.86,1.66,2.56,1.66,1.47,0,7.26-.7,8.77-1.89.54-.42.61-.48.8-.48.48,0,2.66,1.54,2.66,2.18,0,.32-.19.51-.93.74Zm-3.39-4.29c-.45,0-.48,0-2.27-1.6-1.92-1.73-3.52-2.27-4.51-2.62.54-.1.86-.16,1.66-.16,2.46,0,4.86.99,5.63,1.73.42.42.54,1.15.54,1.47,0,.61-.29,1.18-1.06,1.18Zm8.58,16.22c-.74,0-1.12-.54-1.44-.99-2.21-3.14-5.18-5.06-7.36-6.4,5.31.54,9.79,3.84,9.79,6.21,0,.16-.03,1.18-.99,1.18Z"/><path class="cls-1" d="m256.47,20.7c-.06.74-.32,4.03-.38,4.7-.83,6.88-4.96,10.53-7.68,11.65l-.16-.19c5.92-5.57,5.92-12.48,5.92-15.17s-.03-2.66-2.46-3.3c.51-.35,1.22-.83,2.11-.83.83,0,3.01.7,3.01,1.6,0,.26-.32,1.31-.35,1.54Zm7.78,13.21c-1.09.77-1.18.9-2.02,1.79-.16.16-.45.48-.64.48-.61,0-2.05-2.62-2.05-3.04,0-.22.38-1.18.42-1.41.29-1.34.29-5.5.29-6.37,0-1.18-.03-7.1-.19-7.87-.13-.58-.77-.99-2.3-1.5.42-.26,1.06-.67,1.79-.67.96,0,3.46.96,3.46,1.92,0,.29-.38,1.57-.45,1.82-.32,1.63-.48,10.59-.48,12.54,0,.13,0,.54.22.54.77,0,6.56-3.68,11.58-10.08l.26.19c-2.18,5.25-6.78,9.44-9.89,11.65Z"/><path class="cls-1" d="m300.54,26.74c-3.52,0-5.02,0-9.21.74.45,2.37.96,4.8,1.38,6.72.64,2.85.74,3.33.74,3.78,0,.77-.58,1.25-1.02,1.25-.35,0-1.76-.54-1.79-3.49-.03-1.06-.26-2.62-.32-3.07-.38-2.53-.48-3.17-.74-4.8-1.86.38-5.66,1.15-7.1,1.82-1.18.54-1.41.64-1.82.64-.8,0-3.1-1.47-3.1-3.23,0-.29.06-.51.19-.8.48.67,1.5,1.63,2.85,1.63.7,0,1.57-.19,2.34-.32,1.02-.19,5.5-1.02,6.43-1.18-.13-.74-.64-4-.77-4.67-.06-.35-.1-.54-.16-.8-2.62.58-3.49.9-4.74,1.44-.51.22-.7.32-.9.32-.58,0-2.82-1.38-2.82-2.85,0-.22.06-.48.1-.64.71.54,1.6,1.18,2.85,1.18.48,0,2.53-.35,5.25-.8-.19-.77-.8-3.55-.99-4-.45-1.06-1.5-1.31-2.91-1.63.74-.51,1.34-.96,2.24-.96.99,0,3.42.54,3.42,1.41,0,.26-.26,1.25-.26,1.47,0,.77.32,2.88.38,3.36,2.91-.54,3.23-.58,4.64-1.12.29-.1.51-.19.83-.19.8,0,2.59.26,2.59,1.28,0,.8-.77.83-1.06.83-1.98,0-3.26,0-6.82.58,0,.06.77,4.8.86,5.47,1.12-.19,4.96-.93,5.66-1.22,1.22-.51,1.34-.58,1.79-.58.8,0,3.3.35,3.3,1.54,0,.9-.86.9-1.31.9Zm-.29-8.51c-.38,0-.48-.1-1.44-1.18-1.7-1.86-2.56-2.4-3.62-2.98,1.6-.03,5.82.83,5.82,3.17,0,.58-.35.99-.77.99Zm3.94-1.09c-.45,0-.58-.13-1.6-1.38-1.15-1.38-1.86-1.95-3.49-2.94,1.6.1,5.82.74,5.82,3.2,0,.51-.13,1.12-.74,1.12Z"/><path class="cls-1" d="m329.62,27.22c-.29,0-1.06-.06-1.12-.06-1.15-.1-1.47-.13-3.62-.13-9.76,0-12.64.19-14.08.58-.1.03-1.12.29-1.22.29-.83,0-2.56-2.05-2.56-3.52,0-.19.03-.8.38-1.54,1.09,2.43,2.08,2.43,5.41,2.43,2.21,0,12.61-.03,14.08-.38.19-.03,1.12-.29,1.31-.29s3.39.35,3.39,1.6c0,.99-1.6,1.02-1.98,1.02Z"/><path class="cls-1" d="m349.57,37.59l-.03-.26c6.85-2.43,10.05-6.94,10.05-11.81,0-5.41-4.35-8.61-9.92-8.61-.8,0-.96.03-1.31.19,1.73.93,2.21,2.11,2.21,2.56,0,.35-.1.58-1.09,2.66-2.05,4.38-5.06,10.82-7.23,12.61-.22.16-.61.35-1.02.35-.74,0-1.02-.42-1.98-1.76-.22-.32-1.5-1.5-1.73-1.79-.35-.51-.9-1.66-.9-3.26,0-6.88,5.82-12.54,13.63-12.54,6.21,0,11.84,3.62,11.84,10.05s-5.18,10.98-12.51,11.62Zm-2.53-20.29c-3.52.58-8.41,5.12-8.41,11.01,0,2.18,1.25,4.58,2.5,4.58.86,0,2.11-2.27,2.66-3.36,3.2-6.43,4.26-8.51,4.26-10.17,0-.8-.38-1.47-.99-2.05Z"/><path class="cls-1" d="m392.56,31.35c-4.32.1-6.75.06-7.71.06l2.11.48c.42.1.64.22.64.48,0,.32-.35.58-.7.77l-.03.45h3.52l1.06-1.25c.22-.26.35-.38.51-.38.19,0,.38.13.61.32l1.6,1.25c.13.1.32.29.32.48,0,.26-.22.35-.48.35h-7.13c-.03.7.06,3.78-.06,4.38-.16.8-.99,2.3-3.46,2.34-.35-1.63-1.76-2.56-2.46-2.94v-.22c1.15.22,2.37.29,2.72.29,1.05,0,1.12-.32,1.12-.67.03-.67.03-2.59.03-3.17h-14.66c-.8,0-2.34.03-3.78.29l-.61-1.28c2.18.19,4.48.22,4.89.22h14.11c-.06-1.06-.19-1.6-.29-2.18-7.97,0-9.54-1.15-11.81-3.52-1.82,1.57-2.88,2.4-3.9,3.14-.19.67-.38,1.06-.67,1.06-.26,0-.42-.16-.58-.42l-1.47-2.27c1.6-.13,3.33-.26,4.7-.96v-6.27h-.64c-.8,0-2.34.03-3.78.29l-.64-1.28c1.82.16,2.85.19,4.64.22l.74-.83c.16-.19.32-.32.48-.32s.35.1.61.29l1.31.96c.19.13.29.35.29.48,0,.26-.26.48-.93.93-.03.77-.06,3.1.03,4.26,1.44,2.05,3.74,2.3,8.64,2.3,3.58,0,9.76-.19,13.05-.99l.03.19c-.51.26-1.57,1.02-1.98,2.69Zm-21.31-14.33c-.8,0-.96-.42-1.41-1.66-.61-1.66-1.41-2.43-1.92-2.91l.06-.19c.74.16,4.58,1.22,4.58,3.36,0,.8-.58,1.41-1.31,1.41Zm22.24-.9h-9.34c-.19.22-1.44,1.44-2.18,2.14h5.66l.67-.77c.16-.16.29-.26.45-.26s.32.1.51.22l1.31.93c.19.13.32.29.32.45,0,.29-.16.45-.99.99-.03.61-.06,1.38,0,3.26.03.99.16,2.59.16,3.62,0,1.18-1.09,1.38-1.38,1.38-.19,0-.83-.13-.8-.77h-9.86c.03,1.18-1.15,1.18-1.28,1.18-.93,0-.93-.67-.93-.9,0-.61.1-3.23.1-3.78,0-2.98,0-4.93-.22-6.66l2.43,1.09h3.1c.13-.64.26-1.47.26-2.14h-3.3c-.8,0-2.34,0-3.78.29l-.64-1.28c2.18.19,4.48.22,4.93.22h5.22c.35-.77.93-2.5.93-3.49,0-.54-.06-.74-.13-1.02l3.01,1.02c.26.1.42.26.42.58,0,.48-.67.54-1.02.54-.32.35-1.95,1.82-2.56,2.37h5.18l1.22-1.47c.22-.26.38-.38.54-.38.13,0,.35.13.58.32l1.57,1.44c.19.19.32.38.32.54,0,.19-.26.32-.48.32Zm-16.93,23.65c-1.06,0-1.28-1.18-1.44-2.02-.06-.42-.32-1.89-1.09-2.94l.13-.13c1.12.38,3.74,1.63,3.74,3.55,0,.74-.58,1.54-1.34,1.54Zm3.42-24.77c-.67,0-.9-.51-1.22-1.28s-1.06-1.98-1.6-2.59l.06-.19c1.54.29,3.94,1.25,3.94,2.78,0,.7-.54,1.28-1.18,1.28Zm7.9,4.03h-9.86v1.92h9.86v-1.92Zm0,2.69h-9.86v1.95h9.86v-1.95Zm0,2.72h-9.86v2.11h9.86v-2.11Z"/><path class="cls-1" d="m420.95,39.73c-4.51-2.94-8.06-7.13-10.02-12.16-.48-1.25-.74-2.18-.89-2.72-1.76,4.86-4.61,9.34-8.83,12.35-2.75,1.95-5.18,2.69-6.24,3.01l-.1-.26c9.73-5.18,13.47-15.93,13.31-19.84l.96.16c-.35-2.78-.32-4.29-.32-5.73h-2.91c-.58,0-2.21,0-3.78.29l-.61-1.25c1.98.13,3.97.19,4.9.19h1.82l1.15-1.12c.19-.19.35-.32.54-.32.16,0,.38.13.61.29l1.82,1.34c.26.19.35.32.35.51,0,.51-1.79,1.22-2.75,1.57-.48,10.82,7.2,19.04,14.4,21.02v.29c-.74.13-2.3.48-3.42,2.37Z"/><path class="cls-1" d="m75.74,90.91l.58-.54c.29-.29.48-.38.64-.38s.35.1.61.35l1.44,1.28c.16.16.26.29.26.61,0,.42-.42.7-1.38.86-.19.35-3.01,5.22-4.16,6.94,2.11,1.76,4.58,3.84,4.58,7.55,0,1.95-1.02,4.03-4,4.51-.45-1.73-.96-2.37-1.73-2.94l.1-.26c.61.1,1.12.19,1.73.19s1.66,0,1.66-2.27c0-1.12-.35-3.65-3.04-6.59,1.47-3.62,2.05-5.7,2.66-8.54h-3.84c-.06.61-.03,13.79-.06,16,0,1.25.16,7.65.16,8.86,0,1.34-1.31,1.44-1.57,1.44-.74,0-.86-.42-.86-.8,0-.45,0-1.44.03-2.94.06-1.76.16-5.09.16-6.69.03-12.16,0-14.33-.22-16.45-.06-.51-.13-1.06-.19-1.54l2.59,1.34h3.87Zm16.13,4.99l1.21-1.6c.22-.29.35-.42.54-.42s.35.16.61.38l1.63,1.5c.22.19.35.42.35.58,0,.22-.19.32-.48.32h-10.27l1.54.64c.29.13.48.29.48.51,0,.42-.45.7-.83.96-.03.61-.1,1.31-.38,3.23h4.35l.8-.83c.22-.26.38-.38.58-.38.16,0,.38.13.64.35l1.28,1.12c.16.13.29.32.29.51,0,.22-.13.45-.9.96-.42,10.21-.64,13.76-6.4,14.05-.29-1.34-.93-2.53-2.02-3.33l.1-.29c.7.22,1.73.54,3.04.54.83,0,1.31-.06,1.73-.64,1.06-1.54,1.22-8.32,1.22-10.46v-.83h-4.83c-1.7,9.34-6.5,12.38-10.72,14.02l-.06-.22c1.41-.93,3.68-2.46,5.54-5.28,2.91-4.45,3.39-10.37,3.39-12.86,0-.99-.06-1.41-.1-1.76h-2.56c-.29,0-2.27,0-3.74.29l-.64-1.28c2.11.19,4.32.22,4.89.22h2.56c0-3.17,0-4.51-.64-6.62l3.33.99c.29.1.51.19.51.51,0,.26-.22.48-.9.9,0,.7-.03,3.1-.03,4.22h4.9Z"/><path class="cls-1" d="m124.88,118.07c-3.46-1.06-10.59-3.9-12.19-13.73-.83,5.02-3.1,9.73-7.97,12.16-3.1,1.54-5.76,1.7-6.78,1.76v-.16c9.34-2.88,12.61-10.66,12.61-15.55,0-.67-.06-1.12-.13-1.54l2.94.8c.22.06.45.19.45.42,0,.45-.48.77-.86.96.45,2.37,1.28,4.03,2.02,5.22,1.31-.93,3.81-3.52,4.83-5.79l2.59,2.08c.1.1.22.22.22.42,0,.45-.51.58-.8.58-.16,0-.26-.03-.48-.1-2.69,1.82-5.47,2.94-6.18,3.14,3.14,4.7,8.42,6.24,12.8,6.27v.13c-1.57.7-2.56,1.98-3.07,2.94Zm-19.26-26.4c-2.18,2.11-2.82,2.72-4.13,3.74,2.18,1.12,4.06,2.98,4.06,4.67,0,.67-.38,1.57-1.34,1.57s-1.06-.38-1.47-1.89c-.51-1.76-1.22-3.46-2.56-4.7v-.13c.38.1.58.16.9.29,1.12-1.7,2.24-4.26,2.56-6.24l2.72,1.86c.16.13.22.22.22.38,0,.32-.26.35-.96.45Zm-3.55,18.88c-.64,0-1.18-.54-1.18-1.31,0-.51.13-.96,1.31-1.95,1.66-1.34,2.05-2.72,2.18-3.2h.19c.22.9.22,1.5.22,1.86,0,1.89-.7,4.61-2.72,4.61Zm11.46-19.1c-1.25,1.28-2.82,2.72-4.06,3.71,2.3,1.02,3.65,2.85,3.65,4.06,0,.83-.45,1.5-1.25,1.5s-.99-.48-1.57-2.18c-.45-1.34-1.73-3.14-2.37-3.78l.1-.13c.35.1.61.16,1.06.32,1.21-1.92,2.05-3.87,2.18-5.92l2.85,1.47c.13.06.32.16.32.38,0,.42-.48.48-.9.54Zm8.38.38c-2.43,2.11-3.1,2.69-4.61,3.68,2.72,1.09,4.1,3.04,4.1,4.25,0,.16-.03,1.5-1.25,1.5-.8,0-.86-.22-1.66-2.21-.58-1.47-1.41-2.85-2.69-3.81l.13-.16c.51.13.67.16.96.26,1.89-2.37,2.78-4.58,3.14-6.11l2.69,1.79c.13.1.19.16.19.38,0,.32-.8.42-.99.42Z"/><path class="cls-1" d="m151.74,99.16c-.64.16-.83.35-1.54.99-6.02,5.73-6.88,6.27-8.32,7.2,2.3,1.82,3.3,3.49,3.3,4.77,0,.77-.42,1.5-1.25,1.5-.7,0-1.02-.51-1.89-1.95-.35-.58-2.62-4.19-8.03-7.87,1.47.29,4,.8,7.26,3.1,1.86-1.73,5.79-6.4,7.46-9.09-5.82.38-6.5.45-12.45,1.22-.7.1-3.81.48-5.22,1.28-.58.35-.64.35-.77.35-.67,0-2.78-2.02-2.78-3.74,0-.58.13-.99.29-1.47,1.12,2.05,1.63,2.14,3.1,2.14,1.25,0,16.22-.96,17.21-1.15.67-.13.96-.35,1.47-.7.42-.29.61-.35.77-.35.54,0,2.75,2.59,2.75,3.01s-.13.42-1.38.77Z"/><path class="cls-1" d="m179.66,110.65c-.06,0-1.66-.29-2.5-.42-1.06-.19-2.91-.35-4.83-.35-2.94,0-9.44.54-11.97,1.34-1.31.42-1.44.45-1.73.45-.83,0-2.94-1.57-2.94-3.74,0-.35.06-.54.13-.83,1.15,1.41,1.98,1.98,3.78,1.98.19,0,8.86-.74,10.53-.8,1.95-.1,4.77-.22,5.76-.54,1.05-.32,1.15-.35,1.34-.35.67,0,3.23,1.12,3.23,2.37,0,.48-.29.9-.8.9Zm-5.76-12.58c-.7.06-3.2.22-4.93.32-1.86.1-3.68.19-5.73.67-.22.06-.38.06-.58.06-.8,0-2.78-.7-2.94-3.14.58.38,1.7,1.12,3.94,1.12,1.06,0,5.66-.22,7.97-.86.29-.06,1.6-.58,1.89-.58.61,0,2.56.48,2.56,1.47,0,.77-.58.83-2.18.93Z"/><path class="cls-1" d="m207.51,112.83c-.22,0-.58-.13-1.41-.38-1.76-.58-3.36-.54-4.29-.54-2.14,0-8.38.29-11.49,1.41-.29.1-1.47.67-1.73.67-.06,0-2.53-.74-2.53-3.23,0-.22.03-.38.06-.67.74.86,1.5,1.66,2.66,1.66.06,0,2.27-.26,2.46-.29,1.12-.13,6.08-.61,7.07-.7.16-.61.86-3.84,1.5-8.93-1.7.19-3.36.51-4.99.93-.38.1-2.24.7-2.3.7-.54,0-2.02-1.38-2.02-2.62,0-.29.06-.45.16-.77.35.54.93,1.38,2.3,1.38.06,0,5.47-.51,6.53-.96.19-.1.86-.74,1.06-.74.45,0,2.43,1.63,2.43,2.18,0,.26-.1.32-.86.8-.35.19-.35.26-.54.96-.26,1.09-1.5,6.66-1.6,6.94.7-.06,3.74-.1,4.35-.19.26-.03,1.28-.26,1.5-.26.45,0,2.53.99,2.53,1.89,0,.06,0,.77-.86.77Z"/><path class="cls-1" d="m232.45,97.05c-.83.13-1.12.35-2.3,1.15-2.02,1.38-4.61,3.14-6.18,3.9-.19.61-.96,3.42-1.12,3.97-2.24,7.71-6.11,9.89-7.71,10.78l-.1-.19c4.93-5.22,6.62-13.5,6.62-15.36,0-.93-.54-1.31-2.21-1.92.8-.35,1.12-.51,1.63-.51,1.18,0,3.17.74,3.17,1.6,0,.19-.03.48-.06.64,3.2-2.53,5.34-5.18,5.34-5.6,0-.1-.03-.19-.45-.19-1.66,0-11.33,1.09-13.57,1.82-.29.1-1.47.67-1.73.67-.32,0-2.85-1.31-2.85-3.07,0-.54.06-1.02.22-1.54,1.18,1.98,2.56,1.98,3.29,1.98,1.41,0,13.54-1.22,14.98-1.5.26-.03,1.34-.51,1.57-.51.51,0,2.98,2.59,2.98,3.14s-.13.54-1.54.74Z"/><path class="cls-1" d="m245.83,98.33c-.06.74-.32,4.03-.38,4.7-.83,6.88-4.96,10.53-7.68,11.65l-.16-.19c5.92-5.57,5.92-12.48,5.92-15.17s-.03-2.66-2.46-3.3c.51-.35,1.22-.83,2.11-.83.83,0,3.01.7,3.01,1.6,0,.26-.32,1.31-.35,1.54Zm7.78,13.21c-1.09.77-1.18.9-2.02,1.79-.16.16-.45.48-.64.48-.61,0-2.05-2.62-2.05-3.04,0-.22.38-1.18.42-1.41.29-1.34.29-5.5.29-6.37,0-1.18-.03-7.1-.19-7.87-.13-.58-.77-.99-2.3-1.5.42-.26,1.06-.67,1.79-.67.96,0,3.46.96,3.46,1.92,0,.29-.38,1.57-.45,1.82-.32,1.63-.48,10.59-.48,12.54,0,.13,0,.54.22.54.77,0,6.56-3.68,11.58-10.08l.26.19c-2.18,5.25-6.78,9.44-9.89,11.65Z"/><path class="cls-1" d="m280.15,115.23l-.03-.26c6.85-2.43,10.05-6.94,10.05-11.81,0-5.41-4.35-8.61-9.92-8.61-.8,0-.96.03-1.31.19,1.73.93,2.21,2.11,2.21,2.56,0,.35-.1.58-1.09,2.66-2.05,4.38-5.06,10.82-7.23,12.61-.22.16-.61.35-1.02.35-.74,0-1.02-.42-1.98-1.76-.22-.32-1.5-1.5-1.73-1.79-.35-.51-.9-1.66-.9-3.26,0-6.88,5.82-12.54,13.63-12.54,6.21,0,11.84,3.62,11.84,10.05s-5.18,10.98-12.51,11.62Zm-2.53-20.29c-3.52.58-8.42,5.12-8.42,11.01,0,2.18,1.25,4.58,2.5,4.58.86,0,2.11-2.27,2.66-3.36,3.2-6.43,4.26-8.51,4.26-10.17,0-.8-.38-1.47-.99-2.05Z"/><path class="cls-1" d="m301.16,96.51c.03-1.18.03-1.47,0-4.16h-.51c-.32,0-2.3,0-3.78.29l-.64-1.28c1.63.16,3.29.22,4.93.22h5.92l1.15-1.25c.13-.16.38-.38.51-.38.19,0,.38.19.58.35l1.44,1.22c.16.13.32.29.32.51,0,.29-.26.32-.48.32h-4.8v4.16h1.76l.83-.7c.19-.16.35-.29.48-.29s.32.19.45.32l1.09,1.09c.16.16.35.38.35.61,0,.13-.16.29-.32.38-.13.06-.51.29-.77.48v11.78c0,.83.1,4.48.1,5.25,0,1.02-.61,1.47-1.38,1.47-.51,0-.83-.29-.83-.77,0-.29.03-.74.06-.99h-8.32c0,1.57,0,2.59-1.38,2.59-.64,0-.96-.32-.96-.9,0-.35.22-2.46.26-2.88.13-2.82.13-9.18.13-12.22,0-4.61-.1-5.31-.32-6.62l2.59,1.41h1.54Zm1.7.77c-.16,3.71-.51,6.3-3.55,8.58v2.27h8.32v-3.49c-.48.26-1.38.26-1.66.26-1.18,0-1.73-.29-1.86-.99-.16-.77-.06-5.54-.03-6.62h-1.22Zm-3.55,0v8.09c1.31-1.66,1.73-5.25,1.82-8.09h-1.82Zm8.32,11.62h-8.32v5.47h8.32v-5.47Zm-3.55-12.38c0-.58.03-3.49.03-4.16h-1.15c-.03,1.41-.06,3.65-.1,4.16h1.22Zm1.73.77c-.03.83-.1,4.58-.06,5.18,0,.13.13.29.42.29s.42-.13.48-.26c.06-.16.16-.7.19-.96h.19c.22.48.35.67.61,1.02v-5.28h-1.82Zm8.64,4.74c-.06,1.22-.06,5.76-.06,7.33,0,2.34,0,4.06.13,4.38.19.61,1.86.64,3.07.64.96,0,3.3-.03,3.97-.64.54-.48.7-1.18,1.54-4.51h.26c.45,3.01.54,3.62.83,3.94.48.51.7.74.7.99,0,.22-.19.86-.93,1.44-.7.54-1.63.86-4.77.86-4.58,0-5.31-.13-5.95-.51-.99-.58-1.02-1.09-1.02-5.09,0-1.06.03-5.79.03-6.75-.03-1.09,0-3.2-.32-4.48l2.88,1.63h5.21c.06-5.54.1-6.43.06-8.9h-3.33c-.51,0-2.21,0-3.74.29l-.64-1.28c1.63.16,3.26.22,4.93.22h2.43l.89-.96c.16-.19.35-.35.51-.35.22,0,.45.19.54.29l1.47,1.18c.16.13.29.32.29.48,0,.26-.22.38-.38.51-.32.22-.45.35-.7.54-.03,1.44.06,8.8,0,9.15-.1.74-.96,1.09-1.54,1.09-.83,0-.8-.61-.8-1.5h-5.57Z"/><path class="cls-1" d="m355.27,96.25h-15.74c-1.34,2.75-2.34,4.48-2.75,5.22l1.21.51h4.32c-.06-2.91-.16-3.33-.77-4.96l3.29.8c.48.13.64.29.64.51,0,.32-.16.48-1.06.93v2.72h5.02l.83-.83c.22-.22.38-.35.54-.35s.32.1.61.32l1.18.93c.26.22.42.38.42.54,0,.26-.19.45-1.09.99-.06,2.24.19,5.79.19,8.03,0,1.38,0,3.07-3.55,3.84-.22-1.63-1.44-2.46-2.27-3.01v-.26c.54.06,1.57.22,2.72.22.71,0,.77-.29.77-1.12,0-1.76,0-6.94-.06-8.54h-5.31c.03,4.32.03,9.02.22,12.96.03.38.06,1.06.06,1.18,0,1.7-1.34,1.7-1.6,1.7-.74,0-.96-.45-.96-.99,0-.19.03-1.06.06-1.22.06-1.98.16-11.65.13-13.63h-4.8c0,1.82.16,9.79.16,11.42,0,1.44-1.25,1.54-1.57,1.54-.86,0-.93-.58-.93-.93,0-.42.16-2.78.19-3.33.03-1.18.03-1.82.03-7.78-3.04,4.58-6.59,7.07-8.29,8.19l-.19-.26c4.35-4.29,8.45-11.39,10.18-15.36h-5.31c-.58,0-2.21,0-3.78.29l-.64-1.28c2.05.16,4.03.22,4.93.22h5.15c1.92-4.7,1.92-5.44,1.89-7.01l3.39,1.73c.26.13.38.29.38.51,0,.32-.32.54-1.44.8-.77,1.73-1.25,2.82-1.82,3.97h10.91l1.44-1.66c.22-.29.38-.42.58-.42.16,0,.42.16.74.42l1.89,1.6c.16.13.32.32.32.51,0,.22-.16.32-.48.32Z"/><path class="cls-1" d="m75.74,168.55l.58-.54c.29-.29.48-.38.64-.38s.35.1.61.35l1.44,1.28c.16.16.26.29.26.61,0,.42-.42.7-1.38.86-.19.35-3.01,5.22-4.16,6.94,2.11,1.76,4.58,3.84,4.58,7.55,0,1.95-1.02,4.03-4,4.51-.45-1.73-.96-2.37-1.73-2.94l.1-.26c.61.1,1.12.19,1.73.19s1.66,0,1.66-2.27c0-1.12-.35-3.65-3.04-6.59,1.47-3.62,2.05-5.7,2.66-8.54h-3.84c-.06.61-.03,13.79-.06,16,0,1.25.16,7.65.16,8.86,0,1.34-1.31,1.44-1.57,1.44-.74,0-.86-.42-.86-.8,0-.45,0-1.44.03-2.94.06-1.76.16-5.09.16-6.69.03-12.16,0-14.33-.22-16.45-.06-.51-.13-1.06-.19-1.54l2.59,1.34h3.87Zm16.13,4.99l1.21-1.6c.22-.29.35-.42.54-.42s.35.16.61.38l1.63,1.5c.22.19.35.42.35.58,0,.22-.19.32-.48.32h-10.27l1.54.64c.29.13.48.29.48.51,0,.42-.45.7-.83.96-.03.61-.1,1.31-.38,3.23h4.35l.8-.83c.22-.26.38-.38.58-.38.16,0,.38.13.64.35l1.28,1.12c.16.13.29.32.29.51,0,.22-.13.45-.9.96-.42,10.21-.64,13.76-6.4,14.05-.29-1.34-.93-2.53-2.02-3.33l.1-.29c.7.22,1.73.54,3.04.54.83,0,1.31-.06,1.73-.64,1.06-1.54,1.22-8.32,1.22-10.46v-.83h-4.83c-1.7,9.34-6.5,12.38-10.72,14.02l-.06-.22c1.41-.93,3.68-2.46,5.54-5.28,2.91-4.45,3.39-10.37,3.39-12.86,0-.99-.06-1.41-.1-1.76h-2.56c-.29,0-2.27,0-3.74.29l-.64-1.28c2.11.19,4.32.22,4.89.22h2.56c0-3.17,0-4.51-.64-6.62l3.33.99c.29.1.51.19.51.51,0,.26-.22.48-.9.9,0,.7-.03,3.1-.03,4.22h4.9Z"/><path class="cls-1" d="m124.88,195.71c-3.46-1.06-10.59-3.9-12.19-13.73-.83,5.02-3.1,9.73-7.97,12.16-3.1,1.54-5.76,1.7-6.78,1.76v-.16c9.34-2.88,12.61-10.66,12.61-15.55,0-.67-.06-1.12-.13-1.54l2.94.8c.22.06.45.19.45.42,0,.45-.48.77-.86.96.45,2.37,1.28,4.03,2.02,5.22,1.31-.93,3.81-3.52,4.83-5.79l2.59,2.08c.1.1.22.22.22.42,0,.45-.51.58-.8.58-.16,0-.26-.03-.48-.1-2.69,1.82-5.47,2.94-6.18,3.14,3.14,4.7,8.42,6.24,12.8,6.27v.13c-1.57.7-2.56,1.98-3.07,2.94Zm-19.26-26.4c-2.18,2.11-2.82,2.72-4.13,3.74,2.18,1.12,4.06,2.98,4.06,4.67,0,.67-.38,1.57-1.34,1.57s-1.06-.38-1.47-1.89c-.51-1.76-1.22-3.46-2.56-4.7v-.13c.38.1.58.16.9.29,1.12-1.7,2.24-4.26,2.56-6.24l2.72,1.86c.16.13.22.22.22.38,0,.32-.26.35-.96.45Zm-3.55,18.88c-.64,0-1.18-.54-1.18-1.31,0-.51.13-.96,1.31-1.95,1.66-1.34,2.05-2.72,2.18-3.2h.19c.22.9.22,1.5.22,1.86,0,1.89-.7,4.61-2.72,4.61Zm11.46-19.1c-1.25,1.28-2.82,2.72-4.06,3.71,2.3,1.02,3.65,2.85,3.65,4.06,0,.83-.45,1.5-1.25,1.5s-.99-.48-1.57-2.18c-.45-1.34-1.73-3.14-2.37-3.78l.1-.13c.35.1.61.16,1.06.32,1.21-1.92,2.05-3.87,2.18-5.92l2.85,1.47c.13.06.32.16.32.38,0,.42-.48.48-.9.54Zm8.38.38c-2.43,2.11-3.1,2.69-4.61,3.68,2.72,1.09,4.1,3.04,4.1,4.25,0,.16-.03,1.5-1.25,1.5-.8,0-.86-.22-1.66-2.21-.58-1.47-1.41-2.85-2.69-3.81l.13-.16c.51.13.67.16.96.26,1.89-2.37,2.78-4.58,3.14-6.11l2.69,1.79c.13.1.19.16.19.38,0,.32-.8.42-.99.42Z"/><path class="cls-1" d="m156.4,177.95c-4.99-2.14-9.76-6.33-11.81-9.57-.16.03-.26.06-.64.1-4.1,4.96-9.09,9.25-15.2,11.26l-.1-.22c4.8-2.78,10.34-8.35,12.64-11.74.06-.06.58-.83.71-1.82l3.04,1.38c.19.1.29.29.29.38,0,.19-.1.42-.29.54,4.35,4.38,10.27,6.72,14.37,7.01v.19c-1.73.8-1.98,1.15-3.01,2.5Zm-4.16,1.86c0,.64-.03,1.28,0,2.24.03.54.22,3.33.22,3.46,0,.8-.74,1.31-1.34,1.31-.54,0-.96-.26-.99-.86h-12.54c-.32,1.5-1.31,6.46-7.36,8.77l-.13-.13c4.96-4.03,5.73-8.29,5.73-13.44,0-1.31-.06-2.56-.13-3.07-.1-.77-.13-.83-.13-1.15l3.04,1.5h11.23l.83-.93c.16-.19.29-.32.42-.32s.22.1.42.22l1.31,1.06c.1.1.26.29.26.45,0,.32-.38.54-.83.9Zm-2.11,2.62h-12.13c-.06,1.15-.16,1.95-.29,2.75h12.42v-2.75Zm3.3,7.55c0,.74.19,4.13.19,4.67,0,1.02-1.28,1.18-1.47,1.18-.86,0-.83-.8-.83-1.54h-10.94c.16,1.7-1.31,1.7-1.57,1.7-.58,0-.8-.22-.8-.83,0-.29.1-1.57.1-1.82.06-1.12.06-2.11.06-3.23,0-1.22,0-1.28-.1-2.88l2.46,1.31h10.37l1.12-.96c.13-.1.26-.22.42-.22.13,0,.29.13.45.26l1.15.9c.16.13.35.32.35.45,0,.29-.45.61-.96,1.02Zm-3.3-10.78h-12.03c0,1.5,0,1.66-.03,2.46h12.06v-2.46Zm-1.79-3.36h-5.18c-.61,0-2.21,0-3.78.29l-.64-1.28c2.02.16,4.03.22,4.93.22h1.47l.86-1.06c.16-.19.35-.38.51-.38.13,0,.26.06.58.32l1.44,1.09c.16.13.29.29.29.45,0,.32-.29.35-.48.35Zm2.98,13.47h-10.97v4.22h10.97v-4.22Z"/><path class="cls-1" d="m187.94,171.36h-22.33c.03.99.13,3.55.13,4.32,0,5.02-.1,13.73-5.73,18.85l-.16-.13c3.33-5.86,3.58-11.81,3.58-17.31,0-1.98-.03-6.18-.58-7.94l3.26,1.44h7.81c-.03-1.44-.06-2.75-.64-4.06l3.01.8c.32.1.58.19.58.54,0,.38-.48.7-.77.86v1.86h7.78l1.22-1.6c.19-.26.32-.38.48-.38.19,0,.38.16.64.35l1.89,1.57c.16.13.32.26.32.48,0,.29-.29.35-.48.35Zm.22,19.71h-11.14c0,.54.06,2.91.06,3.39,0,.54,0,1.54-1.54,1.54-.9,0-.93-.45-.93-.93,0-.58.03-3.26.06-4h-5.89c-.8,0-2.34.03-3.78.32l-.64-1.28c1.98.16,3.97.19,4.93.19h5.38l.06-3.62h-4.51c-.03.61-.06,1.57-1.44,1.57-.83,0-.86-.48-.86-.93,0-.19.06-1.02.06-1.18.06-1.76.1-3.55.1-5.18,0-1.79-.03-2.4-.26-3.65l2.62,1.09h4.29v-2.82h-4.25c-.61,0-2.24,0-3.78.29l-.64-1.28c1.98.16,3.97.22,4.93.22h3.74c-.03-1.5-.03-1.7-.38-3.14l2.94.83c.13.03.42.16.42.42s-.42.58-.86.83v1.06h6.34l.96-1.34c.16-.22.29-.42.48-.42.13,0,.42.19.58.32l1.82,1.38c.1.06.32.26.32.48,0,.32-.26.35-.48.35h-10.02v2.82h4.58l.8-.9c.1-.1.22-.26.38-.26.13,0,.29.1.51.29l1.18,1.02c.16.13.29.32.29.54,0,.29-.32.54-.9.9-.06.22-.06.61-.06.86,0,.9.26,4.86.26,5.6,0,1.18-1.15,1.31-1.44,1.31-.83,0-.86-.51-.86-1.09h-4.7l.1,3.62h7.14l1.15-1.57c.22-.29.32-.38.48-.38s.29.06.64.35l1.92,1.54c.16.13.32.35.32.51,0,.32-.29.32-.48.32Zm-13.41-11.9h-4.51v2.75h4.54l-.03-2.75Zm-4.51,3.52v3.23h4.51c.03-1.09.03-2.72.03-3.23h-4.54Zm11.36-3.52h-4.74l-.03,2.75h4.77v-2.75Zm0,3.52h-4.77c0,.51.03,2.14.06,3.23h4.7v-3.23Z"/><path class="cls-1" d="m204.13,192.86l-.03-.26c6.85-2.43,10.05-6.94,10.05-11.81,0-5.41-4.35-8.61-9.92-8.61-.8,0-.96.03-1.31.19,1.73.93,2.21,2.11,2.21,2.56,0,.35-.1.58-1.09,2.66-2.05,4.38-5.06,10.82-7.23,12.61-.22.16-.61.35-1.02.35-.74,0-1.02-.42-1.98-1.76-.22-.32-1.5-1.5-1.73-1.79-.35-.51-.9-1.66-.9-3.26,0-6.88,5.82-12.54,13.63-12.54,6.21,0,11.84,3.62,11.84,10.05s-5.18,10.98-12.51,11.62Zm-2.53-20.29c-3.52.58-8.42,5.12-8.42,11.01,0,2.18,1.25,4.58,2.5,4.58.86,0,2.11-2.27,2.66-3.36,3.2-6.43,4.26-8.51,4.26-10.17,0-.8-.38-1.47-.99-2.05Z"/><path class="cls-1" d="m231.6,173.38h-7.52c-.29,0-2.27,0-3.74.29l-.64-1.25c2.11.16,4.32.19,4.93.19h3.52l1.06-1.22c.22-.29.35-.35.48-.35.19,0,.32.1.61.32l1.47,1.18c.19.13.32.35.32.51,0,.22-.19.32-.48.32Zm-1.79,4h-4.22c-.8,0-2.34.03-3.74.29l-.64-1.28c2.18.19,4.45.22,4.89.22h.64l.8-1.02c.22-.29.32-.38.51-.38.16,0,.32.1.61.32l1.31,1.02c.16.13.32.29.32.51,0,.19-.19.32-.48.32Zm.19-8.06h-4.26c-.42,0-2.21,0-3.78.29l-.64-1.28c2.14.19,4.38.22,4.93.22h.7l.86-1.06c.19-.26.32-.35.45-.35.16,0,.35.1.61.32l1.28,1.02c.19.16.32.35.32.48,0,.29-.19.35-.48.35Zm.1,16.96c0,.61.03,3.68.06,5.09.03.26.13,1.31.13,1.54,0,1.02-1.02,1.38-1.5,1.38-.86,0-.83-.7-.83-1.6h-4.16c.06,1.89.13,3.14-1.5,3.14-.74,0-.9-.42-.9-.8,0-.16.03-.58.06-.77.13-1.5.22-5.79.22-6.37,0-2.91-.1-3.62-.22-4.42l2.66,1.47h3.58l.77-.86c.26-.29.42-.38.54-.38s.29.06.64.32l1.18.86c.16.13.29.26.29.42,0,.38-.35.61-1.02.99Zm-.29-4.96h-3.97c-.58,0-2.21,0-3.74.29l-.64-1.28c1.98.16,3.97.22,4.89.22h.58l.77-.99c.19-.26.35-.35.51-.35.19,0,.35.1.58.29l1.18.99c.19.16.32.35.32.51,0,.22-.19.32-.48.32Zm-1.82,4.38h-4.22v6.21h4.22v-6.21Zm18.33,9.38c-3.97-1.06-6.21-2.94-7.58-4.45-2.85,2.78-6.56,4.42-10.46,5.18v-.22c5.82-2.56,8.77-5.92,9.25-6.43-2.08-2.91-2.53-5.5-2.72-6.75-1.18.1-1.5.16-1.95.26l-.61-1.28c2.14.19,4.35.22,4.89.22h4.32l.9-.9c.22-.22.38-.32.58-.32.16,0,.29.06.58.32l1.28,1.15c.19.19.35.38.35.58,0,.38-.22.54-1.63.93-.54,1.38-1.47,3.52-3.55,5.98,2.56,1.89,5.73,2.69,8.9,2.91v.19c-1.22.54-2.05,1.44-2.53,2.62Zm-2.37-16.86c-3.97,0-3.97-.22-3.97-4.06v-4.35c0-.06,0-.16-.03-.29h-3.07c-.16,5.6-1.06,8.22-4.64,10.4l-.16-.16c2.24-2.69,2.66-5.86,2.66-8.48,0-1.73-.19-2.91-.32-3.81l2.46,1.28h3.07l.67-.74c.22-.26.38-.38.54-.38s.35.13.54.29l1.25,1.02c.19.16.32.35.32.51,0,.26-.22.45-1.15.96-.03,1.22-.06,3.49-.06,4.8,0,.7.19.9,1.34.9.58,0,1.57,0,1.98-.32.48-.38.61-.96,1.31-3.94l.19-.03c.16,1.06.54,3.33,1.22,3.71.54.32.61.45.61.67,0,2.02-2.62,2.02-4.77,2.02Zm-7.33,4.16c-.42,0-.99,0-1.38.03.93,3.2,2.4,4.86,3.2,5.66,2.05-2.78,2.62-4.86,2.88-5.7h-4.7Z"/><path class="cls-1" d="m279.35,176.96h-12.32c-.06.8-.16,1.63-.19,2.46h5.12l.83-.83c.1-.1.29-.29.48-.29.16,0,.32.1.54.26l1.25.93c.19.16.32.35.32.51,0,.32-.48.7-1.06,1.02,0,1.57.06,3.33.1,4.64.03.7.19,3.78.19,4.42,0,1.22-1.09,1.41-1.54,1.41-.9,0-.9-.45-.9-1.06h-9.38c.03,1.34-1.31,1.34-1.5,1.34-.83,0-.93-.42-.93-.77,0-.19,0-.35.03-.48.19-1.57.19-3.94.19-5.38,0-2.21-.03-4.99-.19-7.17l2.5,1.44h1.73c.1-.86.19-2.34.19-2.46h-8.67c-.8,0-2.34,0-3.78.29l-.64-1.28c2.18.19,4.45.22,4.93.22h8.22c.03-1.31.03-1.57-.13-2.4.51.1,2.72.67,2.72.67.32.06.54.19.54.45s-.35.48-.86.77q-.03.26-.03.51h8.67l1.09-1.22c.22-.22.35-.42.51-.42s.32.13.58.32l1.5,1.25c.13.1.35.32.35.48,0,.29-.29.35-.48.35Zm.29,17.37h-22.43c0,.7,0,1.66-1.54,1.66-.96,0-.96-.67-.96-1.06,0-.32.06-1.7.06-1.98.06-2.59.13-5.18.13-7.78,0-4.45-.13-5.25-.38-6.46l3.07.93c.26.06.48.22.48.51,0,.38-.38.61-.9.93-.06,1.47-.06,2.98-.06,4.48,0,1.02,0,1.41.03,5.02,0,.42.03,2.56.06,2.98h18.43l1.22-1.5c.22-.26.35-.42.51-.42.19,0,.29.1.58.32l1.89,1.54c.13.13.32.29.32.51,0,.29-.29.32-.51.32Zm-3.3-24.54c0,.58.13,3.01.13,3.52,0,.93-.61,1.38-1.54,1.38-.7,0-.83-.26-.83-1.15h-16.22c.03,1.57-1.41,1.6-1.66,1.6-.19,0-.83-.1-.83-.8,0-.51.16-2.82.16-3.3,0-2.62-.29-3.55-.45-4.13l2.88,1.28h16.03l.8-.8c.06-.06.26-.26.45-.26.16,0,.35.1.64.32l1.22.93c.1.06.22.22.22.38,0,.22-.13.38-.99,1.02Zm-14.72-.83h-3.78v3.81h3.78v-3.81Zm10.53,11.23h-9.38v2.4h9.38v-2.4Zm0,3.17h-9.38v2.69h9.38v-2.69Zm0,3.46h-9.38v2.85h9.38v-2.85Zm-4.48-17.85h-3.87v3.81h3.87v-3.81Zm6.43,0h-4.29v3.81h4.29v-3.81Z"/><path class="cls-1" d="m24.38,35.69h-10.22c-.92,0-1.79-.48-2.27-1.27l.86-1.49.84.48c.81.47,1.9.22,2.43-.54.35-.49.43-1.1.23-1.68l-2.8-8.01c-.3-.86-1.24-1.39-2.13-1.2l-8.13,1.73c-.76.16-1.32.76-1.44,1.52-.12.76.24,1.51.91,1.89l.59.34-2.31,3.99c-1.25,2.17-1.25,4.86,0,7.03.02.03.04.07.06.1l3.29,4.61c.08.14.18.27.27.4.04.08.1.16.16.23,1.31,1.76,3.39,2.83,5.62,2.83h14.03c1.02,0,1.85-.83,1.85-1.85v-7.26c0-1.02-.83-1.85-1.85-1.85Zm-21.33,1.51c-.78-1.4-.77-3.12.03-4.51l2.93-5.06c.16-.28.21-.62.12-.94s-.29-.59-.58-.75l-.27-.15,6.02-1.28,2.08,5.93-.46-.27c-.59-.34-1.34-.14-1.68.45l-2.16,3.73s0,0,0,0c0,0,0,0,0,0l-3.51,6.32-2.5-3.5Zm20.71,6.98h-13.41c-1.2,0-2.34-.48-3.18-1.3l3.43-6.17c.94.91,2.22,1.45,3.56,1.45h9.6v6.02Z"/><path class="cls-1" d="m36.96,17.79l3.07-7.72c.23-.57.16-1.21-.19-1.72-.51-.75-1.54-1.03-2.36-.62l-.61.31-2.04-4.13C33.73,1.66,31.49.16,29,0c-.04,0-.08,0-.12,0l-5.66.18c-.17,0-.34,0-.51,0-.08,0-.17,0-.25,0-2.21.12-4.24,1.25-5.47,3.11l-7.79,11.68c-.56.85-.33,2,.51,2.56l6.04,4.03c.31.2.66.31,1.03.31.62,0,1.19-.31,1.54-.82l5.67-8.5c.51-.77,1.37-1.22,2.31-1.18l.76,1.55-.87.43c-.7.35-1.1,1.07-1.02,1.85.08.78.62,1.4,1.38,1.6l8.22,2.11c.89.23,1.84-.26,2.18-1.11Zm-15.03-6.61l-5.33,7.99-5.01-3.34,7.44-11.16c.67-1,1.7-1.68,2.85-1.92l3.23,6.27c-1.29.28-2.43,1.04-3.18,2.16Zm7.89,1.74l-1.91-3.86s0,0,0,0c0,0,0,0,0-.01l-3.31-6.43,4.3-.14c1.6.12,3.02,1.09,3.73,2.53l2.59,5.24c.14.29.4.52.71.62.31.11.65.08.94-.06l.28-.14-2.27,5.72-6.09-1.56.48-.24c.61-.3.86-1.04.56-1.65Z"/><path class="cls-1" d="m51.51,36.5c.85-2.02.72-4.36-.41-6.27l-7.11-12.1c-.33-.56-.94-.91-1.59-.91-.33,0-.65.09-.94.25l-6.26,3.68c-.88.52-1.17,1.65-.66,2.53l5.18,8.81c.47.8.49,1.78.06,2.6h-1.72s0-.96,0-.96c-.01-1.01-.84-1.83-1.85-1.83-.54,0-1.05.24-1.41.65l-5.49,6.48c-.6.71-.58,1.76.05,2.44l5.61,6.13c.36.39.84.6,1.36.6.49,0,.98-.2,1.32-.55s.54-.82.53-1.32v-.68s4.6-.03,4.6-.03c2.5-.02,4.82-1.38,6.06-3.55.02-.03.04-.07.05-.11l2.31-5.17c.08-.14.14-.29.21-.44.05-.08.09-.16.12-.25Zm-14.52-13.54l5.19-3.05,6.79,11.57c.61,1.04.77,2.26.49,3.4l-7.06.17c.31-1.28.12-2.65-.56-3.81l-4.86-8.28Zm9.67,18.34c-.81,1.38-2.3,2.25-3.9,2.26l-5.85.04c-.33,0-.64.13-.87.37s-.36.55-.35.88v.31s-4.15-4.54-4.15-4.54l4.06-4.79v.54c.01.68.56,1.22,1.24,1.22h0l4.31-.03h.02l7.23-.17-1.75,3.93Z"/><path class="cls-1" d="m52.99,87.71c-.36-.04-.74-.08-1.11-.12v-.27c0-1.79-1.29-3.31-3.06-3.62-3.85-.67-7.48-.65-11.09.06-3.27.64-6.64,1.86-10.26,3.73-3.63-1.87-7.01-3.1-10.29-3.73-3.63-.7-7.26-.72-11.12-.04-1.74.31-3.01,1.82-3.01,3.61v.27c-.37.04-.75.08-1.11.12-1.02.13-1.8,1-1.8,2.03v30.93c0,.58.25,1.13.68,1.52.43.39,1.01.57,1.59.51,6.71-.75,13.79-1.28,20.93.76l.66,1.31c.14.28.42.45.73.45h5.69c.34,0,.65-.21.76-.53l.45-1.24c7.13-2.02,14.19-1.5,20.88-.74.58.07,1.16-.12,1.59-.51.43-.39.68-.94.68-1.52v-30.93c0-1.03-.77-1.9-1.8-2.03Zm-4.71-.93c.27.05.47.27.47.53v28.48c0,.2-.11.33-.17.39-.06.06-.2.15-.39.14-3.65-.25-7.13-.05-10.64.63-2.72.52-5.52,1.34-8.52,2.48v-29.24c6.89-3.53,12.7-4.55,19.26-3.41Zm-42.11.53c0-.26.18-.48.42-.53,6.58-1.15,12.4-.13,19.31,3.41v29.24c-3-1.15-5.81-1.96-8.52-2.48-2.55-.49-5.08-.73-7.67-.73-.98,0-1.97.03-2.97.1-.2.01-.33-.08-.39-.14-.06-.06-.17-.19-.17-.39v-28.48Z"/><path class="cls-1" d="m45.9,166.65l-2.86-12.54c-.47-2.04-2.75-3.61-5.11-3.61h-18.8c-2.36,0-4.64,1.57-5.11,3.61l-2.86,12.54c-.72,3.14,1.29,5.92,4.51,5.92h8.07v8.23l2.02,1.66-2.02,1.5v2.31l1.9,1.75v1.66l-1.9,1.75v2.06l1.9,1.75v1.66l-1.9,1.75v1.43l1.9,1.57-1.61,1.2,1.61,1.33-1.9,1.41v3.65l2.84,1.34v-32.12h1.02v32.12l4.07-.72,1.65-2.28v-35h8.07c3.23,0,5.23-2.77,4.51-5.92Zm-8.84-9.52h-17.06c-.94,0-1.71-.77-1.71-1.71s.77-1.71,1.71-1.71h17.06c.94,0,1.71.77,1.71,1.71s-.77,1.71-1.71,1.71Z"/><path class="cls-1" d="m939.87,23.81c-.64,0-1.02-.51-1.41-1.18-1.82-3.17-2.24-3.84-4.54-5.7,3.65.54,7.07,2.82,7.07,5.41,0,.86-.48,1.47-1.12,1.47Zm15.2-3.87c-.48.38-.61.67-1.6,3.1-1.57,3.9-4.86,9.38-10.5,12.51-2.62,1.47-4.83,1.95-5.76,2.18v-.22c12.61-6.43,15.1-18.33,15.1-19.1,0-1.02-1.76-1.98-2.08-2.18.35-.16.74-.32,1.5-.32,1.66,0,4.06,2.11,4.06,3.04,0,.42-.22.58-.74.99Z"/><path class="cls-1" d="m983.07,26.72c-.29,0-1.06-.06-1.12-.06-1.15-.1-1.47-.13-3.62-.13-9.76,0-12.64.19-14.08.58-.1.03-1.12.29-1.22.29-.83,0-2.56-2.05-2.56-3.52,0-.19.03-.8.38-1.54,1.09,2.43,2.08,2.43,5.41,2.43,2.21,0,12.61-.03,14.08-.38.19-.03,1.12-.29,1.31-.29s3.39.35,3.39,1.6c0,.99-1.6,1.02-1.98,1.02Z"/><path class="cls-1" d="m1009.7,23.3c-.61.32-.67.45-1.09,1.41-5.18,12.42-13.79,14.01-15.55,14.17l-.06-.22c1.98-.83,10.94-5.89,13.57-16.03-.93.06-10.14.9-12.19,1.79-.19.1-.96.58-1.15.58-.8,0-3.14-1.89-3.14-3.81,0-.29.03-.54.22-1.09.54.83,1.63,2.08,3.33,2.08,1.54,0,12.35-.83,12.83-1.06.29-.13,1.18-1.15,1.44-1.15.35,0,2.72,1.7,2.72,2.43,0,.42-.42.64-.93.9Zm-3.84-6.21c-2.46.13-7.65.58-8.38.7-1.57.22-1.73.26-2.24.26-1.02,0-2.56-1.44-2.56-3.46,1.41,1.31,2.4,1.5,4.16,1.5,2.14,0,6.27-.45,7.62-1.06.64-.29.74-.35,1.02-.35.58,0,2.62.45,2.62,1.44,0,.64-.42.86-2.24.96Z"/><path class="cls-1" d="m1039.24,26.72c-.29,0-1.06-.06-1.12-.06-1.15-.1-1.47-.13-3.62-.13-9.76,0-12.64.19-14.08.58-.1.03-1.12.29-1.22.29-.83,0-2.56-2.05-2.56-3.52,0-.19.03-.8.38-1.54,1.09,2.43,2.08,2.43,5.41,2.43,2.21,0,12.61-.03,14.08-.38.19-.03,1.12-.29,1.31-.29s3.39.35,3.39,1.6c0,.99-1.6,1.02-1.98,1.02Z"/><path class="cls-1" d="m1045.67,40.04c-.74,0-1.31-.61-1.31-1.31s.06-.74,1.47-2.05c.58-.58,1.54-1.86,1.86-3.17h.16c.13.45.26,1.02.26,2.05,0,2.46-.9,4.48-2.43,4.48Zm9.73-24.96c.03,3.62.06,9.12.1,12.48,0,.32.06,1.76.06,2.05,0,1.25-.8,1.5-1.38,1.5-.9,0-.9-.48-.83-1.38h-4.64c0,.29.03.67.03,1.02,0,.48,0,1.44-1.57,1.44-.32,0-.74-.06-.74-.8,0-.29.03-.67.03-.9.19-2.82.22-9.02.22-10.05,0-4.1-.03-4.16-.51-8.67l2.5,1.34h4.45l.83-.7c.19-.16.32-.32.45-.32s.32.16.48.32l1.41,1.22c.13.13.22.29.22.42,0,.26-.1.32-1.12,1.02Zm-2.05-1.18h-4.67v6.94h4.67v-6.94Zm0,7.71h-4.67v7.36h4.67v-7.36Zm1.63,18.11c-1.28,0-1.28-1.28-1.28-1.7,0-.35.13-1.79.13-2.08,0-1.34-.13-1.82-.29-2.3l.19-.13c2.05,2.11,2.72,2.82,2.72,4.38,0,1.34-.83,1.82-1.47,1.82Zm15.52-24.54c-.77,3.97-1.44,6.62-4.58,6.91-.06-1.5-1.5-2.75-1.86-3.04l.03-.13c.74.19,1.86.38,2.18.38,1.5,0,1.95-3.94,2.08-5.5h-4.7c-.74,4.38-4.03,7.87-7.2,8.9l-.1-.22c3.36-2.56,4.7-7.07,4.86-8.67-1.95.03-2.69.16-3.33.29l-.64-1.28c1.98.16,3.97.22,4.93.22h6.27l.58-.51c.16-.13.32-.26.48-.26.1,0,.35.13.48.26l1.47,1.31c.13.13.19.29.19.42,0,.42-.83.77-1.15.93Zm-.61,9.82c0,.32-.03.86-.03,1.54,0,.61.16,3.55.16,3.81,0,1.15-.74,1.5-1.57,1.5-.7,0-.7-.54-.74-1.09h-6.82c.06.93-.67,1.28-1.47,1.28-.48,0-.7-.32-.7-.8,0-.26.13-1.25.13-1.47.03-1.25.03-2.18.03-3.17,0-1.31-.1-3.97-.13-4.22l2.4,1.02h6.34l.74-.7c.26-.22.38-.29.51-.29.16,0,.38.13.54.26l1.09.86c.19.13.29.38.29.51,0,.26-.13.42-.77.96Zm-6.82,14.56c-1.12,0-1.28-.99-1.47-2.34-.1-.61-.32-1.98-1.12-3.68l.13-.1c2.37,1.25,3.81,2.94,3.81,4.42,0,.32-.1,1.7-1.34,1.7Zm4.64-15.39h-6.82v5.82h6.82v-5.82Zm3.36,15.39c-1.12,0-1.47-1.38-1.73-2.4-.35-1.47-.99-2.82-1.66-3.87l.06-.06c4.42,1.89,4.67,4.48,4.67,4.8,0,.74-.45,1.54-1.34,1.54Z"/><path class="cls-1" d="m1083.78,13.38l.83-.9c.13-.16.32-.26.45-.26.16,0,.38.16.51.26l1.38,1.02c.26.19.45.35.45.54,0,.22-.32.42-1.25.93.03.61.03,9.5.03,10.82,0,.74.06,4,.06,4.67,0,.48-.1.77-.38.96-.38.26-.96.42-1.28.42-.51,0-.67-.32-.67-.7,0-.29.06-1.54.06-1.79h-5.38v2.43c0,1.12-1.02,1.47-1.6,1.47-.74,0-.99-.48-.99-1.09,0-.54.22-2.82.22-3.26.19-5.66.19-11.62.19-12.13,0-2.05-.13-3.52-.32-4.99l2.72,1.6h4.96Zm-5.18.77v6.62h5.38v-6.62h-5.38Zm0,7.39v7.04h5.38v-7.04h-5.38Zm12.51,6.91c-1.25,6.21-4.96,9.41-10.62,11.33l-.06-.19c2.56-1.44,5.54-4,7.33-7.55,1.25-2.53,1.73-5.06,1.73-12.54,0-2.05-.03-6.3-.42-8.03l2.66,1.44h6.72l.96-.96c.1-.1.26-.26.38-.26.1,0,.32.13.45.22l1.79,1.28c.1.06.29.29.29.45,0,.38-.51.67-1.34,1.12,0,2.69,0,8.54.03,10.01,0,.99.13,9.92.13,10.46,0,2.18,0,3.33-1.86,4.29-.61.32-1.44.54-2.21.58-.83-2.43-3.01-3.14-3.23-3.23v-.16c1.47.16,2.33.19,3.01.19,1.5,0,1.92-.1,1.92-1.41v-7.04h-7.65Zm7.65-.77v-6.56h-7.13c-.06,4.54-.26,5.76-.35,6.56h7.49Zm0-7.33v-6.69h-7.13v6.69h7.13Z"/><path class="cls-1" d="m1119,37.09l-.03-.26c6.85-2.43,10.05-6.94,10.05-11.81,0-5.41-4.35-8.61-9.92-8.61-.8,0-.96.03-1.31.19,1.73.93,2.21,2.11,2.21,2.56,0,.35-.1.58-1.09,2.66-2.05,4.38-5.06,10.82-7.23,12.61-.22.16-.61.35-1.02.35-.74,0-1.02-.42-1.98-1.76-.22-.32-1.5-1.5-1.73-1.79-.35-.51-.9-1.66-.9-3.26,0-6.88,5.82-12.54,13.63-12.54,6.21,0,11.84,3.62,11.84,10.05s-5.18,10.98-12.51,11.62Zm-2.53-20.29c-3.52.58-8.41,5.12-8.41,11.01,0,2.18,1.25,4.58,2.5,4.58.86,0,2.11-2.27,2.66-3.36,3.2-6.43,4.26-8.51,4.26-10.17,0-.8-.38-1.47-.99-2.05Z"/><path class="cls-1" d="m1161.98,30.85c-4.32.1-6.75.06-7.71.06l2.11.48c.42.1.64.22.64.48,0,.32-.35.58-.7.77l-.03.45h3.52l1.06-1.25c.22-.26.35-.38.51-.38.19,0,.38.13.61.32l1.6,1.25c.13.1.32.29.32.48,0,.26-.22.35-.48.35h-7.14c-.03.7.06,3.78-.06,4.38-.16.8-.99,2.3-3.46,2.34-.35-1.63-1.76-2.56-2.46-2.94v-.22c1.15.22,2.37.29,2.72.29,1.06,0,1.12-.32,1.12-.67.03-.67.03-2.59.03-3.17h-14.65c-.8,0-2.34.03-3.78.29l-.61-1.28c2.18.19,4.48.22,4.9.22h14.11c-.06-1.06-.19-1.6-.29-2.18-7.97,0-9.54-1.15-11.81-3.52-1.82,1.57-2.88,2.4-3.9,3.14-.19.67-.38,1.06-.67,1.06-.26,0-.42-.16-.58-.42l-1.47-2.27c1.6-.13,3.33-.26,4.7-.96v-6.27h-.64c-.8,0-2.34.03-3.78.29l-.64-1.28c1.82.16,2.85.19,4.64.22l.74-.83c.16-.19.32-.32.48-.32s.35.1.61.29l1.31.96c.19.13.29.35.29.48,0,.26-.26.48-.93.93-.03.77-.06,3.1.03,4.26,1.44,2.05,3.74,2.3,8.64,2.3,3.58,0,9.76-.19,13.05-.99l.03.19c-.51.26-1.57,1.02-1.98,2.69Zm-21.31-14.33c-.8,0-.96-.42-1.41-1.66-.61-1.66-1.41-2.43-1.92-2.91l.06-.19c.74.16,4.58,1.22,4.58,3.36,0,.8-.58,1.41-1.31,1.41Zm22.24-.9h-9.34c-.19.22-1.44,1.44-2.18,2.14h5.66l.67-.77c.16-.16.29-.26.45-.26s.32.1.51.22l1.31.93c.19.13.32.29.32.45,0,.29-.16.45-.99.99-.03.61-.06,1.38,0,3.26.03.99.16,2.59.16,3.62,0,1.18-1.09,1.38-1.38,1.38-.19,0-.83-.13-.8-.77h-9.86c.03,1.18-1.15,1.18-1.28,1.18-.93,0-.93-.67-.93-.9,0-.61.1-3.23.1-3.78,0-2.98,0-4.93-.22-6.66l2.43,1.09h3.1c.13-.64.26-1.47.26-2.14h-3.29c-.8,0-2.34,0-3.78.29l-.64-1.28c2.18.19,4.48.22,4.93.22h5.21c.35-.77.93-2.5.93-3.49,0-.54-.06-.74-.13-1.02l3.01,1.02c.26.1.42.26.42.58,0,.48-.67.54-1.02.54-.32.35-1.95,1.82-2.56,2.37h5.18l1.22-1.47c.22-.26.38-.38.54-.38.13,0,.35.13.58.32l1.57,1.44c.19.19.32.38.32.54,0,.19-.26.32-.48.32Zm-16.93,23.65c-1.06,0-1.28-1.18-1.44-2.02-.06-.42-.32-1.89-1.09-2.94l.13-.13c1.12.38,3.74,1.63,3.74,3.55,0,.74-.58,1.54-1.34,1.54Zm3.42-24.77c-.67,0-.9-.51-1.22-1.28-.32-.77-1.06-1.98-1.6-2.59l.06-.19c1.54.29,3.94,1.25,3.94,2.78,0,.7-.54,1.28-1.18,1.28Zm7.9,4.03h-9.86v1.92h9.86v-1.92Zm0,2.69h-9.86v1.95h9.86v-1.95Zm0,2.72h-9.86v2.11h9.86v-2.11Z"/><path class="cls-1" d="m1190.38,39.23c-4.51-2.94-8.06-7.13-10.02-12.16-.48-1.25-.74-2.18-.9-2.72-1.76,4.86-4.61,9.34-8.83,12.35-2.75,1.95-5.18,2.69-6.24,3.01l-.1-.26c9.73-5.18,13.47-15.93,13.31-19.84l.96.16c-.35-2.78-.32-4.29-.32-5.73h-2.91c-.58,0-2.21,0-3.78.29l-.61-1.25c1.98.13,3.97.19,4.9.19h1.82l1.15-1.12c.19-.19.35-.32.54-.32.16,0,.38.13.61.29l1.82,1.34c.26.19.35.32.35.51,0,.51-1.79,1.22-2.75,1.57-.48,10.82,7.2,19.04,14.4,21.02v.29c-.74.13-2.3.48-3.42,2.37Z"/><path class="cls-1" d="m936.19,103.85v8.35c0,1.38.8,2.21,2.27,2.21h2.46c5.38,0,7.07-2.94,8.45-5.28l.93.42-2.24,5.89h-17.89v-1.02h1.18c1.31,0,2.27-.7,2.27-2.21v-16.86c0-1.44-.89-2.21-2.27-2.21h-1.18v-1.06h17.47l2.08,5.18-.86.54c-1.76-2.82-3.81-4.67-6.85-4.67h-3.55c-1.34,0-2.27.74-2.27,2.21v7.49h3.65c2.43,0,3.62-1.02,3.62-3.17v-.83h1.02v9.15h-1.02v-.96c0-2.3-1.66-3.17-3.62-3.17h-3.65Z"/><path class="cls-1" d="m963.25,111.72l5.66-15.9c.13-.38.29-1.02.29-1.41,0-.83-.83-1.28-1.6-1.28h-1.44v-1.06h7.36v1.06h-.48c-1.66,0-2.62,1.44-3.13,2.85l-7.14,20.06h-.77l-6.85-20.06c-.7-2.02-1.28-2.85-3.01-2.85h-.45v-1.06h8.61v1.06h-.83c-1.02,0-1.95.35-1.95,1.38,0,.38.13.86.22,1.12l5.5,16.09Z"/><path class="cls-1" d="m1003.29,116.3c-1.06.38-2.21.54-6.14.54-5.25,0-5.54-.13-5.54-3.71,0-1.25.1-6.66.1-7.78,0-2.72-.13-3.3-.29-4-.74.16-1.38.29-4.7.86l1.76.61c.22.06.58.22.58.48,0,.29-.38.58-1.06,1.06-.48,6.94-3.74,12.32-11.93,13.47l-.03-.22c4.29-1.47,6.43-3.78,7.52-5.54,1.38-2.24,2.11-5.57,2.11-7.81,0-.58-.06-1.22-.16-1.86-1.79.32-4.77.77-5.92.93-.51.64-.67.8-.96.8-.26,0-.42-.35-.45-.54l-.64-3.04c.67.26,1.22.45,2.75.45s3.04-.1,4.58-.22c.67-1.18,1.95-3.55,3.04-5.98h-7.17c-.58,0-2.21.03-3.78.29l-.64-1.25c1.98.16,3.97.19,4.93.19h7.71c.03-3.1.03-3.78-.48-5.28l3.14.8c.35.1.61.19.61.54,0,.32-.19.42-.93.93-.03,1.63-.03,1.82-.03,3.01h8.74l1.31-1.66c.22-.26.35-.42.51-.42.22,0,.45.19.64.35l1.95,1.7c.16.16.29.26.29.48,0,.29-.26.32-.48.32h-12.99c-1.79,2.05-3.58,4.1-5.57,5.92,5.63-.45,9.31-.93,11.71-1.25-1.7-1.5-2.53-1.95-3.36-2.4l.1-.13c6.27.61,8.06,3.52,8.06,4.83,0,.83-.54,1.28-1.25,1.28s-.86-.22-1.79-1.6c-.42-.64-.83-1.06-1.28-1.5-2.27.58-3.46.8-6.27,1.38l2.69.99c.22.1.54.22.54.51,0,.19-.19.42-.9,1.06,0,1.41-.16,7.65-.16,8.89,0,1.76,0,1.98,2.46,1.98.77,0,4.1-.1,4.58-.38.67-.38.9-1.06,1.06-1.7.32-1.18.54-3.14.8-4.35h.22c.16.83.83,4.8.99,5.18.03.13.64.45.74.54.22.16.29.42.29.64,0,.96-1.31,1.5-1.6,1.6Z"/><path class="cls-1" d="m1021.54,91.47l.03,2.59h9.21l.96-.96c.19-.19.26-.26.42-.26s.22.06.51.32l2.02,1.79c.13.1.19.26.19.48,0,.45-.16.48-1.89.8-.22.13-2.91,1.98-3.26,2.21l-.16-.19c.29-.77,1.12-2.88,1.25-3.42h-9.25c0,.93.13,5.47.13,6.5s-1.28,1.25-1.6,1.25c-.77,0-.77-.67-.77-.96,0-.32.06-1.89.06-2.24.03-1.06.03-1.41.03-4.54h-8.61c.1,2.3-1.02,4.35-2.66,4.35-.51,0-1.25-.45-1.25-1.25,0-.67.32-.93,1.31-1.7,1.06-.86,1.66-2.18,1.89-3.55h.22c.19.48.32.83.42,1.38h8.67l-.03-2.59h-5.98c-.86,0-2.37.03-3.78.29l-.64-1.28c1.63.13,3.3.22,4.93.22h14.3l1.12-1.28c.29-.35.35-.42.51-.42.13,0,.26.1.58.35l1.7,1.28c.13.1.32.26.32.48,0,.32-.32.35-.51.35h-10.4Zm5.79,11.93l.54-.86c.1-.16.22-.45.45-.45.26,0,.38.16.58.29l1.44,1.09c.26.19.38.29.38.45,0,.22-.13.32-.22.42-.16.1-.77.54-.9.64,0,.8,0,2.08.03,3.52.03.54.22,2.94.22,3.46,0,1.15-1.28,1.34-1.6,1.34-.74,0-.74-.45-.74-1.28h-6.18c0,.42,0,2.37.1,2.56.13.26.42.32.67.35.1.03,1.28.16,4.42.16,3.42,0,4.96-.03,5.54-.61.38-.38.61-.8,1.76-5.18h.22c.1,1.22.22,4.16.93,4.83.35.32.54.48.54.74,0,.29-.19,1.09-1.86,1.73-1.22.45-4.16.54-8.03.54-5.41,0-6.37-.42-6.37-2.53,0-.42.03-2.24.03-2.59h-6.24c.03.19.06,1.02.06,1.18,0,1.28-1.22,1.38-1.44,1.38-.96,0-.96-.67-.96-1.02,0-.29.1-1.63.1-1.92.1-2.98.13-4.86.13-5.98,0-2.18-.16-2.98-.29-3.58l2.91,1.34h13.76Zm-11.3-3.17l.45-.7c.16-.26.29-.45.51-.45.26,0,.38.19.54.38l.51.67c.19.26.26.42.26.51,0,.26-.16.35-.45.35h-4.19c-.16,0-.9,0-1.6.13l-.42-.99c1.15.06,2.18.1,2.4.1h1.98Zm-.22-3.04l.42-.67c.13-.19.29-.45.51-.45.19,0,.42.22.54.38l.51.58c.22.22.29.35.29.58,0,.29-.26.35-.48.35h-3.81c-.8,0-1.34.06-1.6.1l-.45-.99c1.18.1,2.14.13,2.43.13h1.63Zm-2.75,6.97v3.1h6.21v-3.1h-6.21Zm0,3.87v3.2h6.24v-3.2h-6.24Zm14.46-.77v-3.1h-6.21v3.1h6.21Zm0,3.97v-3.2h-6.21l.03,3.2h6.18Zm-1.47-14.11l.32-.61c.13-.22.22-.48.51-.48.26,0,.42.19.58.42l.38.54c.19.26.32.42.32.58,0,.29-.29.32-.48.32h-2.94c-.13,0-.86,0-1.6.13l-.42-1.02c1.15.1,2.18.13,2.43.13h.9Zm1.15,3.07l.35-.54c.16-.26.26-.45.51-.45.16,0,.38.19.54.38l.48.51c.16.16.29.35.29.51,0,.29-.19.35-.42.35h-4.03c-.8,0-1.34.1-1.6.13l-.45-.99c1.31.1,2.37.1,2.43.1h1.89Z"/><path class="cls-1" d="m1065.47,109.38c-2.94-.58-7.94-3.68-10.24-6.98h-6.14c-.99,1.09-3.49,3.65-6.59,5.47l1.63.67h3.68l.74-.83c.19-.22.29-.35.42-.35.16,0,.38.16.61.29l1.28.77c.16.1.26.29.26.42,0,.22-.26.45-.93.99.03.86.16,5.25.16,6.21,0,1.22-1.28,1.25-1.41,1.25-.9,0-.86-.7-.83-1.38h-4.06c.03.67.06,1.82-1.34,1.82-.86,0-.86-.61-.86-.96,0-.54.06-3.2.06-3.81,0-.83,0-4.19-.06-4.7-2.11,1.12-3.26,1.47-4.1,1.7l-.06-.16c1.22-.74,4.67-2.69,8.8-7.39h-4.13c-.77,0-2.37.03-3.78.29l-.64-1.25c2.53.19,4.35.19,4.93.19h4.29c.8-.93,3.01-3.55,3.17-5.41l2.78,1.15c.16.06.29.26.29.35,0,.42-.42.61-1.28.93-.51.74-1.18,1.66-2.34,2.98h12.35l1.22-1.54c.16-.22.35-.42.51-.42s.38.19.58.35l1.79,1.54c.16.13.32.29.32.48,0,.35-.32.35-.48.35h-10.08c3.3,2.88,8.19,4.19,10.97,4.19.48,0,.71-.03,1.02-.06l.06.16c-.74.45-1.82,1.12-2.56,2.69Zm-15.81-17.37c0,.61.13,3.36.13,3.9,0,.64,0,1.92-1.41,1.92-.83,0-.83-.58-.83-1.12h-4.13c0,.13.03.58.03.67,0,.58-.61,1.25-1.38,1.25-.67,0-.9-.42-.9-.99,0-.7.13-3.81.13-4.42,0-.48,0-2.27-.29-3.97l2.43.96h3.94l.61-.64c.16-.16.32-.32.45-.32.16,0,.35.16.51.29l1.41,1.06c.13.1.22.19.22.35,0,.19-.1.32-.93,1.06Zm-2.11-1.02h-4.13v4.96h4.13v-4.96Zm.54,18.33h-4.06v5.82h4.06v-5.82Zm13.47.8c-.03.99.1,5.31.1,6.18,0,1.28-1.28,1.28-1.38,1.28-.93,0-.86-.83-.8-1.7h-3.87c0,.61-.16,1.57-1.44,1.57-.58,0-.83-.29-.83-.93,0-.93.1-4.99.1-5.82,0-2.43-.06-2.78-.16-3.42l2.59,1.18h3.39l.51-.58c.13-.16.29-.32.42-.32s.35.13.48.22l1.38.93c.13.1.26.22.26.45,0,.16-.22.42-.74.96Zm1.34-18.05c0,.74.1,4.26.1,4.61,0,.9-.67,1.22-1.31,1.22-.77,0-.86-.42-.83-1.18h-4.42c0,.86-.51,1.41-1.41,1.41-.8,0-.83-.45-.83-.99,0-.61.06-3.36.06-3.94,0-2.43-.13-3.23-.26-4l2.62,1.02h4l.77-.67c.16-.16.29-.29.42-.29.16,0,.29.13.45.26l1.44,1.15c.13.1.22.22.22.38,0,.26-.19.45-1.02,1.02Zm-3.39,17.15h-3.94v5.89h3.94v-5.89Zm1.34-18.24h-4.45v4.96h4.45v-4.96Z"/><path class="cls-1" d="m1084.32,114.73l-.03-.26c6.85-2.43,10.05-6.94,10.05-11.81,0-5.41-4.35-8.61-9.92-8.61-.8,0-.96.03-1.31.19,1.73.93,2.21,2.11,2.21,2.56,0,.35-.1.58-1.09,2.66-2.05,4.38-5.06,10.82-7.23,12.61-.22.16-.61.35-1.02.35-.74,0-1.02-.42-1.98-1.76-.22-.32-1.5-1.5-1.73-1.79-.35-.51-.9-1.66-.9-3.26,0-6.88,5.82-12.54,13.63-12.54,6.21,0,11.84,3.62,11.84,10.05s-5.18,10.98-12.51,11.62Zm-2.53-20.29c-3.52.58-8.42,5.12-8.42,11.01,0,2.18,1.25,4.58,2.5,4.58.86,0,2.11-2.27,2.66-3.36,3.2-6.43,4.26-8.51,4.26-10.17,0-.8-.38-1.47-.99-2.05Z"/><path class="cls-1" d="m1111.8,95.24h-7.52c-.29,0-2.27,0-3.74.29l-.64-1.25c2.11.16,4.32.19,4.93.19h3.52l1.06-1.22c.22-.29.35-.35.48-.35.19,0,.32.1.61.32l1.47,1.18c.19.13.32.35.32.51,0,.22-.19.32-.48.32Zm-1.79,4h-4.22c-.8,0-2.34.03-3.74.29l-.64-1.28c2.18.19,4.45.22,4.9.22h.64l.8-1.02c.22-.29.32-.38.51-.38.16,0,.32.1.61.32l1.31,1.02c.16.13.32.29.32.51,0,.19-.19.32-.48.32Zm.19-8.06h-4.26c-.42,0-2.21,0-3.78.29l-.64-1.28c2.14.19,4.38.22,4.93.22h.7l.86-1.06c.19-.26.32-.35.45-.35.16,0,.35.1.61.32l1.28,1.02c.19.16.32.35.32.48,0,.29-.19.35-.48.35Zm.1,16.96c0,.61.03,3.68.06,5.09.03.26.13,1.31.13,1.54,0,1.02-1.02,1.38-1.5,1.38-.87,0-.83-.7-.83-1.6h-4.16c.06,1.89.13,3.14-1.5,3.14-.74,0-.9-.42-.9-.8,0-.16.03-.58.06-.77.13-1.5.22-5.79.22-6.37,0-2.91-.1-3.62-.22-4.42l2.66,1.47h3.58l.77-.86c.26-.29.42-.38.54-.38s.29.06.64.32l1.18.86c.16.13.29.26.29.42,0,.38-.35.61-1.02.99Zm-.29-4.96h-3.97c-.58,0-2.21,0-3.74.29l-.64-1.28c1.98.16,3.97.22,4.9.22h.58l.77-.99c.19-.26.35-.35.51-.35.19,0,.35.1.58.29l1.18.99c.19.16.32.35.32.51,0,.22-.19.32-.48.32Zm-1.82,4.38h-4.22v6.21h4.22v-6.21Zm18.33,9.38c-3.97-1.06-6.21-2.94-7.58-4.45-2.85,2.78-6.56,4.42-10.46,5.18v-.22c5.82-2.56,8.77-5.92,9.25-6.43-2.08-2.91-2.53-5.5-2.72-6.75-1.18.1-1.5.16-1.95.26l-.61-1.28c2.14.19,4.35.22,4.9.22h4.32l.9-.9c.22-.22.38-.32.58-.32.16,0,.29.06.58.32l1.28,1.15c.19.19.35.38.35.58,0,.38-.22.54-1.63.93-.54,1.38-1.47,3.52-3.55,5.98,2.56,1.89,5.73,2.69,8.9,2.91v.19c-1.22.54-2.05,1.44-2.53,2.62Zm-2.37-16.86c-3.97,0-3.97-.22-3.97-4.06v-4.35c0-.06,0-.16-.03-.29h-3.07c-.16,5.6-1.06,8.22-4.64,10.4l-.16-.16c2.24-2.69,2.66-5.86,2.66-8.48,0-1.73-.19-2.91-.32-3.81l2.46,1.28h3.07l.67-.74c.22-.26.38-.38.54-.38s.35.13.54.29l1.25,1.02c.19.16.32.35.32.51,0,.26-.22.45-1.15.96-.03,1.22-.06,3.49-.06,4.8,0,.7.19.9,1.34.9.58,0,1.57,0,1.98-.32.48-.38.61-.96,1.31-3.94l.19-.03c.16,1.06.54,3.33,1.22,3.71.54.32.61.45.61.67,0,2.02-2.62,2.02-4.77,2.02Zm-7.33,4.16c-.42,0-.99,0-1.38.03.93,3.2,2.4,4.86,3.2,5.66,2.05-2.78,2.62-4.86,2.88-5.7h-4.7Z"/><path class="cls-1" d="m1159.55,98.83h-12.32c-.06.8-.16,1.63-.19,2.46h5.12l.83-.83c.1-.1.29-.29.48-.29.16,0,.32.1.54.26l1.25.93c.19.16.32.35.32.51,0,.32-.48.7-1.06,1.02,0,1.57.06,3.33.1,4.64.03.7.19,3.78.19,4.42,0,1.22-1.09,1.41-1.54,1.41-.9,0-.9-.45-.9-1.06h-9.38c.03,1.34-1.31,1.34-1.5,1.34-.83,0-.93-.42-.93-.77,0-.19,0-.35.03-.48.19-1.57.19-3.94.19-5.38,0-2.21-.03-4.99-.19-7.17l2.5,1.44h1.73c.1-.86.19-2.34.19-2.46h-8.67c-.8,0-2.34,0-3.78.29l-.64-1.28c2.18.19,4.45.22,4.93.22h8.22c.03-1.31.03-1.57-.13-2.4.51.1,2.72.67,2.72.67.32.06.54.19.54.45s-.35.48-.86.77q-.03.26-.03.51h8.67l1.09-1.22c.22-.22.35-.42.51-.42s.32.13.58.32l1.5,1.25c.13.1.35.32.35.48,0,.29-.29.35-.48.35Zm.29,17.37h-22.43c0,.7,0,1.66-1.54,1.66-.96,0-.96-.67-.96-1.06,0-.32.06-1.7.06-1.98.06-2.59.13-5.18.13-7.78,0-4.45-.13-5.25-.38-6.46l3.07.93c.26.06.48.22.48.51,0,.38-.38.61-.9.93-.06,1.47-.06,2.98-.06,4.48,0,1.02,0,1.41.03,5.02,0,.42.03,2.56.06,2.98h18.43l1.22-1.5c.22-.26.35-.42.51-.42.19,0,.29.1.58.32l1.89,1.54c.13.13.32.29.32.51,0,.29-.29.32-.51.32Zm-3.29-24.54c0,.58.13,3.01.13,3.52,0,.93-.61,1.38-1.54,1.38-.7,0-.83-.26-.83-1.15h-16.22c.03,1.57-1.41,1.6-1.66,1.6-.19,0-.83-.1-.83-.8,0-.51.16-2.82.16-3.3,0-2.62-.29-3.55-.45-4.13l2.88,1.28h16.03l.8-.8c.06-.06.26-.26.45-.26.16,0,.35.1.64.32l1.22.93c.1.06.22.22.22.38,0,.22-.13.38-.99,1.02Zm-14.72-.83h-3.78v3.81h3.78v-3.81Zm10.53,11.23h-9.38v2.4h9.38v-2.4Zm0,3.17h-9.38v2.69h9.38v-2.69Zm0,3.46h-9.38v2.85h9.38v-2.85Zm-4.48-17.85h-3.87v3.81h3.87v-3.81Zm6.43,0h-4.29v3.81h4.29v-3.81Z"/><path class="cls-1" d="m916.91,96.87c.22-.66.09-1.37-.37-2-1.07-1.48-3.92-2.38-5.12-2.38-.43,0-.8.08-1.13.21-3.11-6.44-4.41-7.42-5.4-7.61-.75-.24-4.61-1.29-13.39-1.29s-12.63,1.05-13.39,1.29c-.99.19-2.29,1.17-5.4,7.61-.33-.13-.7-.21-1.13-.21-1.2,0-4.05.9-5.12,2.38-.45.62-.58,1.33-.37,2,.47,1.44,2.26,2.34,3.58,2.82-.17.58-.44,1.2-.84,1.49-1.72,1.25-2.55,2.84-2.55,4.86v15.73c0,1.38,1.2,2.55,2.61,2.55h5.2c1.41,0,2.55-1.15,2.55-2.55v-1.08c3.36-.37,12.11-2.09,16.93-10.06,3.08-5.09,2.39-10.44,2.1-11.96-.14-.74-.86-1.23-1.6-1.1-.74.14-1.23.86-1.09,1.6.24,1.28.82,5.78-1.75,10.03-4.88,8.07-14.87,8.78-15.9,8.83-.05,0-.1,0-.15,0-.7.05-1.26.63-1.28,1.33,0,.02,0,.03,0,.04v2.16h-4.88v-15.54c0-1.14.41-1.91,1.43-2.65,1.89-1.38,2.13-4.24,2.16-4.56.04-.66-.39-1.26-1.03-1.42-1.14-.29-2.2-.8-2.66-1.16.6-.45,2.02-1.02,2.66-1.02.06,0,.14,0,.17.09.1.59.58,1.05,1.17,1.13.59.08,1.17-.24,1.42-.78,2.99-6.47,4.2-7.7,4.46-7.91.03,0,.06-.02.08-.03.03-.01,3.52-1.18,12.61-1.18s12.57,1.16,12.6,1.17c.03.01.06.02.09.03.26.21,1.47,1.45,4.46,7.91.25.54.82.88,1.42.81.6-.08,1.06-.51,1.17-1.1.04-.13.12-.13.18-.13.64,0,2.05.57,2.66,1.02-.47.37-1.53.88-2.66,1.17-.64.16-1.07.76-1.03,1.42.02.32.26,3.18,2.16,4.56,1.01.74,1.42,1.51,1.42,2.65v15.54h-4.88v-2.18c0-.76-.61-1.37-1.37-1.37h-16.21c-.76,0-1.37.61-1.37,1.37s.61,1.37,1.37,1.37h14.84v.99c0,1.41,1.15,2.55,2.55,2.55h5.2c1.41,0,2.61-1.17,2.61-2.55v-15.73c0-2.02-.83-3.61-2.55-4.86-.4-.29-.67-.91-.84-1.49,1.32-.48,3.11-1.38,3.58-2.82Z"/><path class="cls-1" d="m893.32,114.19c-.7.28-1.04,1.08-.76,1.78.21.54.73.86,1.27.86.17,0,.34-.03.51-.1,5.05-2.03,8.26-6.6,8.38-11.99-.12-8.73-7.15-13.52-7.45-13.72-.49-.33-1.13-.3-1.59.05-.02.01-1.82,1.39-2.81,2.02-6.36,4.09-9.07,8.88-8.31,14.66.35,2.63,1.18,3.86,1.79,4.76l.09.13c.42.63,1.27.8,1.9.38.63-.42.8-1.27.38-1.9l-.09-.14c-.51-.75-1.08-1.6-1.34-3.59-.39-2.95-.08-7.4,7.08-12,.62-.4,1.5-1.04,2.15-1.52,1.64,1.38,5.4,5.15,5.48,10.84-.09,4.22-2.65,7.85-6.66,9.46Z"/><path class="cls-1" d="m872.38,106.59c0,1,.81,1.81,1.81,1.81s1.81-.81,1.81-1.81-.81-1.81-1.81-1.81-1.81.81-1.81,1.81Z"/><path class="cls-1" d="m910.65,106.59c0-1-.81-1.81-1.81-1.81s-1.81.81-1.81,1.81.81,1.81,1.81,1.81,1.81-.81,1.81-1.81Z"/><path class="cls-1" d="m889.49,16.3c-6.28,0-11.38,5.11-11.38,11.39s5.11,11.38,11.38,11.38,11.39-5.11,11.39-11.38-5.11-11.39-11.39-11.39Z"/><path class="cls-1" d="m889.49,43.26c-1.16,0-2.11.94-2.11,2.11v7.4c0,1.16.94,2.11,2.11,2.11s2.11-.94,2.11-2.11v-7.4c0-1.16-.94-2.11-2.11-2.11Z"/><path class="cls-1" d="m914.59,25.52h-7.4c-1.16,0-2.11.94-2.11,2.11s.94,2.11,2.11,2.11h7.4c1.16,0,2.11-.94,2.11-2.11s-.94-2.11-2.11-2.11Z"/><path class="cls-1" d="m889.45,12.03c1.16,0,2.11-.94,2.11-2.11V2.52c0-1.16-.94-2.11-2.11-2.11s-2.11.94-2.11,2.11v7.4c0,1.16.94,2.11,2.11,2.11Z"/><path class="cls-1" d="m873.85,27.66c0-1.16-.94-2.11-2.11-2.11h-7.4c-1.16,0-2.11.94-2.11,2.11s.94,2.11,2.11,2.11h7.4c1.16,0,2.11-.94,2.11-2.11Z"/><path class="cls-1" d="m900.17,41.93c-.58-1.01-1.87-1.35-2.88-.77-1.01.58-1.35,1.87-.77,2.88l2.65,4.58c.39.68,1.1,1.05,1.83,1.05.36,0,.72-.09,1.05-.28,1.01-.58,1.35-1.87.77-2.88l-2.65-4.58Z"/><path class="cls-1" d="m902.99,19.82c.39.68,1.1,1.05,1.83,1.05.36,0,.72-.09,1.05-.28l4.58-2.65c1.01-.58,1.35-1.87.77-2.88-.58-1.01-1.87-1.35-2.88-.77l-4.58,2.65c-1.01.58-1.35,1.87-.77,2.88Z"/><path class="cls-1" d="m878.77,13.36c.39.68,1.1,1.05,1.83,1.05.36,0,.72-.09,1.05-.28,1.01-.58,1.35-1.87.77-2.88l-2.65-4.58c-.58-1.01-1.87-1.35-2.88-.77-1.01.58-1.35,1.87-.77,2.88l2.65,4.58Z"/><path class="cls-1" d="m875.95,35.47c-.58-1.01-1.87-1.35-2.88-.77l-4.58,2.65c-1.01.58-1.35,1.87-.77,2.88.39.68,1.1,1.05,1.83,1.05.36,0,.72-.09,1.05-.28l4.58-2.65c1.01-.58,1.35-1.87.77-2.88Z"/><path class="cls-1" d="m910.47,37.31l-4.58-2.65c-1.01-.58-2.3-.24-2.88.77-.58,1.01-.24,2.3.77,2.88l4.58,2.65c.33.19.69.28,1.05.28.73,0,1.44-.38,1.83-1.05.58-1.01.24-2.3-.77-2.88Z"/><path class="cls-1" d="m897.27,14.11c.33.19.69.28,1.05.28.73,0,1.44-.38,1.83-1.05l2.65-4.58c.58-1.01.24-2.3-.77-2.88-1.01-.58-2.3-.24-2.88.77l-2.65,4.58c-.58,1.01-.24,2.3.77,2.88Z"/><path class="cls-1" d="m868.48,17.98l4.58,2.65c.33.19.69.28,1.05.28.73,0,1.44-.38,1.83-1.05.58-1.01.24-2.29-.77-2.88l-4.58-2.65c-1.01-.58-2.3-.24-2.88.77-.58,1.01-.24,2.29.77,2.88Z"/><path class="cls-1" d="m881.68,41.18c-1.01-.58-2.3-.24-2.88.77l-2.64,4.58c-.58,1.01-.24,2.3.77,2.88.33.19.69.28,1.05.28.73,0,1.44-.38,1.83-1.05l2.64-4.58c.58-1.01.24-2.3-.77-2.88Z"/><path class="cls-1" d="m941.95,178.02h-3.74v10.3c2.59-.77,3.33-1.06,4.06-1.31l.13.26c-1.12.83-2.62,1.7-4.61,2.72-1.31.67-2.98,1.5-3.94,1.98-.29.67-.42,1.02-.8,1.02-.22,0-.42-.22-.51-.38l-1.66-2.85c1.09.06,1.63.13,5.25-.86,0-1.09.03-5.95.03-6.94v-3.94h-.64c-.58,0-2.21,0-3.78.29l-.61-1.28c1.89.16,3.81.22,5.02.22,0-1.6,0-3.2-.03-4.8-.03-2.69-.1-3.39-.42-4.74l3.23,1.09c.16.06.45.19.45.48,0,.38-.64.86-1.09,1.15-.06,2.24-.06,3.33-.1,6.82h.77l.96-1.06c.29-.32.38-.42.54-.42.19,0,.38.22.54.35l1.12,1.06c.16.16.29.29.29.48,0,.32-.29.35-.48.35Zm14.3,16.38c-.74.13-6.4.13-7.3.13-5.25,0-6.18-.26-6.18-3.74,0-1.25.1-6.75.1-7.87,0-.32-.03-1.76-.03-2.05-1.28.58-1.98.93-3.1,1.7l-1.09-.9c1.73-.58,3.71-1.44,4.19-1.66v-5.66c0-1.5-.06-2.21-.35-3.71l2.98,1.02c.22.06.48.19.48.45,0,.29-.26.51-1.02,1.06-.03.96-.06,5.12-.06,5.95l3.49-1.57c.03-3.2.03-5.47-.06-7.71-.06-1.18-.29-2.3-.38-2.82l3.07,1.02c.32.1.54.26.54.48,0,.29-.45.67-1.12,1.18-.06,2.88-.06,3.3-.06,6.94l3.1-1.38.77-1.28c.16-.26.32-.54.54-.54s.42.13.61.26l1.5.93c.13.06.32.29.32.51,0,.38-.35.7-.8,1.12,0,9.6-.06,11.81-3.81,12.8-.29-1.6-1.47-2.4-1.92-2.69v-.16c.54.06.74.06.99.06,2.24,0,2.59-.29,2.59-7.04,0-2.18-.03-2.53-.06-3.46l-3.81,1.73c.03,4.7.06,7.78.1,8.64,0,.42.1,2.3.1,2.69,0,1.54-1.34,1.6-1.63,1.6-.45,0-.77-.16-.77-.83,0-.35.1-1.98.1-2.3.06-2.05.06-3.26.1-8.9l-3.49,1.57c-.03,1.28,0,11.1.03,11.49.03.42.35.77.77.9s4.99.13,5.6.13c3.29,0,4.29,0,4.96-1.18.61-1.12,1.28-3.49,1.41-3.87h.22c.06,1.15.16,3.04.61,3.81.19.32.74.61.74.93,0,.45-.54,1.82-2.94,2.24Z"/><path class="cls-1" d="m969.01,176.29l.64-1.25c.1-.19.22-.42.48-.42.19,0,.38.16.61.35l1.44,1.25c.13.13.29.26.29.48,0,.29-.26.35-.48.35h-3.52c0,1.41.03,7.74.03,9.86,1.12-.42,3.17-1.15,3.33-1.25l.1.22c-1.63,1.25-6.5,4.45-8.13,5.34-.1.48-.26.83-.58.83-.26,0-.45-.35-.54-.58l-1.22-2.72c1.47.03,1.73-.03,4.8-1.06v-8.19c0-.42-.03-2.11-.03-2.46-1.09,0-2.3.03-3.65.29l-.64-1.28c1.38.13,2.34.16,4.29.19,0-1.06-.03-5.86-.06-6.37-.06-.9-.26-1.63-.42-2.14l2.98.93c.38.13.67.19.67.54,0,.16-.19.45-.96,1.06,0,.96.03,5.15.03,6.02h.54Zm11.68,11.13c-1.12.58-1.98.99-4.16,1.98-1.34.61-3.3,1.5-4.29,1.98-.16.45-.32.77-.64.77-.22,0-.38-.42-.45-.58l-1.06-2.62c1.12.06,1.73.06,3.58-.29,1.54-.29,5.54-1.15,6.91-1.54l.1.29Zm6.08-13.7l1.22-1.47c.22-.26.35-.42.54-.42.16,0,.45.22.58.35l1.63,1.47c.22.22.32.32.32.51,0,.29-.26.32-.48.32h-8.16c.19,5.09.83,8.03,1.63,10.5,1.76-3.2,2.66-6.82,2.69-8.8l2.62,1.44c.19.1.51.29.51.54,0,.32-.29.54-1.02.83-.9,2.24-2.27,5.6-3.87,8.25,1.34,2.82,2.91,3.71,3.36,3.71.48,0,.67-.13.93-.61.45-.8.93-1.79,1.63-3.26l.22.03c-.32,2.27-.42,3.81-.42,4.77,0,.38.03.54.35,1.25.13.26.16.48.16.64,0,.54-.32.96-.93.96-.93,0-4.38-1.47-6.62-5.6-2.43,3.07-5.98,4.86-9.76,5.82l-.1-.22c3.62-1.63,6.72-4.25,8.89-7.55-1.38-3.36-1.63-6.3-1.79-8.06-.06-.74-.32-4-.38-4.64h-4.61c-.58,0-2.24.03-3.78.32l-.64-1.28c1.98.16,3.97.19,4.93.19h4.03c-.03-.64-.32-3.81-.35-4.1-.13-1.63-.29-2.05-.54-2.78l3.23.77c.29.06.54.19.54.38,0,.29-.19.51-.86.83-.13,2.53-.13,3.74-.1,4.9h4.38Zm-9.41,4.19l.64-.61c.16-.16.26-.32.45-.32.13,0,.29.1.42.22l1.09.96c.13.1.35.32.35.58,0,.22-.16.45-.67.9,0,.8.06,4.32.06,5.06s-.35,1.44-1.25,1.44c-.7,0-.93-.7-.86-1.41h-2.53c0,.45-.06.93-.06,1.18,0,.51-.67.99-1.41.99-.8,0-.8-.51-.8-.8,0-.7.13-3.78.13-4.42,0-2.18-.1-3.87-.13-4.7l2.18.93h2.4Zm-2.3.77v5.28h2.53v-5.28h-2.53Zm8.29-9.98c2.4.16,4.06,1.15,4.06,2.46,0,.77-.64,1.18-1.15,1.18-.61,0-1.02-.54-1.25-.99-.48-.9-.83-1.6-1.7-2.5l.03-.16Z"/><path class="cls-1" d="m1021.43,178.24h-21.79c.29,9.86-1.02,14.02-5.41,17.54l-.16-.13c2.78-3.94,3.36-8.64,3.39-12.61,0-1.98-.16-5.06-.7-7.01l3.17,1.44h10.3c.83-1.82,2.11-4.64,2.43-6.24h-12.93c-.83,0-2.33.03-3.78.29l-.61-1.28c2.02.16,4,.22,4.9.22h6.72c-.1-2.18-.35-3.23-.51-3.84l3.33.8c.22.06.45.13.45.45s-.77.74-1.12.93v1.66h6.75l1.38-1.54c.26-.29.35-.42.51-.42.13,0,.26.06.58.32l2.05,1.57c.16.13.32.29.32.48,0,.32-.26.35-.48.35h-6.46l1.95,1.09c.19.1.26.22.26.35,0,.45-.48.54-1.31.74-1.44,1.73-2.08,2.4-3.74,4.06h6.24l1.18-1.44c.19-.26.32-.38.48-.38.13,0,.32.1.64.32l2.11,1.44c.22.16.35.29.35.48,0,.29-.26.35-.48.35Zm.26,16.16h-18.33c-.32,0-2.27,0-3.78.29l-.61-1.28c2.21.19,4.64.22,4.9.22h4.48v-4.58h-2.11c-.8,0-2.34.03-3.74.29l-.64-1.28c2.18.19,4.51.22,4.93.22h1.57v-3.94h-4.35c-1.25,1.98-2.08,3.29-4.16,5.09l-.16-.1c1.57-2.94,3.68-7.39,4.13-10.21l2.82,1.22c.29.13.32.26.32.35,0,.29-.13.35-1.12.83-.26.32-.9,1.34-1.31,2.05h3.84c-.06-3.07-.06-3.39-.35-4.86l3.1.58c.16.03.42.1.42.38s-.51.61-1.02.93c0,.45-.03,2.53-.03,2.98h4.7l1.12-1.54c.19-.26.35-.42.51-.42s.29.13.58.35l1.86,1.54c.26.19.32.35.32.48,0,.29-.29.35-.51.35h-8.58v3.94h3.81l.96-1.18c.26-.29.32-.38.51-.38.13,0,.26.1.58.32l1.76,1.22c.26.19.32.32.32.45,0,.32-.29.35-.48.35h-7.46v4.58h6.91l1.44-1.34c.19-.16.42-.35.54-.35.1,0,.26.1.58.32l1.92,1.31c.16.13.32.29.32.48,0,.29-.26.35-.48.35Zm-17.92-17.41c-.77,0-.83-.22-1.54-2.08-.54-1.41-1.12-2.34-1.86-3.07l.06-.16c1.31.45,4.64,1.6,4.64,3.81,0,.77-.51,1.5-1.31,1.5Z"/><path class="cls-1" d="m1040.07,175.55c1.22,2.91,4,6.75,6.34,8.7,1.57,1.34,5.21,3.62,7.93,4.1v.22c-2.21.42-2.85,1.18-3.81,2.37-8.32-4.77-10.85-14.91-10.88-14.97,0,1.79-.03,4.16,0,7.65,0,1.66.38,10.24.38,10.4,0,1.66-1.34,1.7-1.7,1.7-1.21,0-1.21-.64-1.21-1.09,0-.61.19-3.46.22-4.13.06-1.98.1-3.04.19-12.42-.7,1.44-1.82,3.58-4.32,6.46-2.94,3.39-5.12,4.83-8.67,6.72l-.06-.16c3.49-3.07,8.96-8.77,11.97-15.55h-7.07c-.86,0-2.37.03-3.78.29l-.64-1.28c1.63.13,3.3.22,4.93.22h7.65c-.1-5.5-.32-6.69-.8-8.42l3.65.93c.16.03.42.1.42.38,0,.38-.35.61-1.09,1.02,0,.86-.03,5.12-.03,6.08h8.13l1.47-1.76c.13-.13.32-.38.51-.38s.45.22.61.35l1.92,1.73c.16.13.32.26.32.48,0,.32-.32.35-.51.35h-12.06Z"/><path class="cls-1" d="m1070.52,175.17h-5.12v2.75c3.23,1.25,5.47,2.08,5.47,4.19,0,.7-.67,1.12-1.18,1.12-.96,0-1.34-.74-2.05-2.14-.7-1.41-1.44-2.14-2.24-2.75v6.66c0,2.46.1,6.43.1,8.9,0,.48,0,1.76-1.47,1.76-1.09,0-1.09-.64-1.09-1.25,0-.1.32-7.49.35-8.9.03-1.57.03-3.14.03-4.74-1.44,3.1-4.29,7.1-6.88,8.9l-.16-.16c2.75-3.23,6.17-10.88,6.94-14.33h-1.7c-.58,0-2.21,0-3.78.29l-.61-1.28c1.98.16,3.97.22,4.9.22h1.28c0-4.67-.22-6.4-.74-8l3.14.93c.74.22.8.42.8.61,0,.38-.29.48-.99.9,0,.9-.1,4.77-.1,5.57h1.6l1.12-1.28c.19-.19.35-.42.48-.42.19,0,.38.13.61.35l1.44,1.28c.16.13.32.29.32.48,0,.32-.26.35-.48.35Zm15.2,0h-5.79c.03,6.46.03,7.2.06,9.12.03,1.12.19,6.05.19,7.07,0,1.54,0,3.84-4.03,4.38-.16-.7-.51-2.02-2.5-3.14v-.22c.86.13,2.3.22,3.01.22s1.06-.03,1.12-.64c.06-.54.06-3.97.06-4.74,0-2.05,0-4-.06-7.46-2.53,5.18-6.98,9.79-10.4,11.55l-.06-.16c5.12-5.02,9.44-13.38,10.24-16h-.93c-.8,0-2.34.03-3.78.29l-.64-1.28c2.21.19,4.48.22,4.93.22h.58c-.1-5.73-.1-6.37-.61-7.68l3.1.67c.35.06.67.16.67.54,0,.22,0,.35-1.02,1.12,0,.83.03,4.58.03,5.34h2.24l1.09-1.41c.19-.22.32-.42.51-.42.16,0,.29.1.58.35l1.6,1.41c.13.13.32.29.32.48,0,.32-.29.35-.51.35Z"/><path class="cls-1" d="m1101.45,192.61l-.03-.26c6.85-2.43,10.05-6.94,10.05-11.81,0-5.41-4.35-8.61-9.92-8.61-.8,0-.96.03-1.31.19,1.73.93,2.21,2.11,2.21,2.56,0,.35-.1.58-1.09,2.66-2.05,4.38-5.05,10.82-7.23,12.61-.22.16-.61.35-1.02.35-.74,0-1.02-.42-1.98-1.76-.22-.32-1.5-1.5-1.73-1.79-.35-.51-.9-1.66-.9-3.26,0-6.88,5.82-12.54,13.63-12.54,6.21,0,11.84,3.62,11.84,10.05s-5.18,10.98-12.51,11.62Zm-2.53-20.29c-3.52.58-8.42,5.12-8.42,11.01,0,2.18,1.25,4.58,2.5,4.58.86,0,2.11-2.27,2.66-3.36,3.2-6.43,4.26-8.51,4.26-10.17,0-.8-.38-1.47-.99-2.05Z"/><path class="cls-1" d="m1127.08,169.38c-1.02,1.92-1.66,3.1-2.37,4.38l1.22.74c.22.13.32.32.32.45,0,.16-.1.32-.22.45-.22.22-.51.45-.58.51-.1,2.05-.13,3.49-.13,5.18,0,3.52.26,9.18.26,12.73,0,.77-.19,2.08-1.63,2.08-.9,0-.96-.64-.96-.99,0-.48.19-2.59.19-3.04.13-3.55.13-5.15.26-15.9-1.22,2.11-2.69,4.48-5.86,6.72l-.13-.16c2.56-3.2,5.79-9.57,7.29-14.01.26-.74.29-1.31.29-1.95l3.04,1.44c.22.1.38.32.38.48,0,.32-.16.38-1.38.9Zm18.34,26.01c-1.6-.42-7.17-1.86-10.72-4.7-2.02,2.27-4.86,3.55-7.87,4.06v-.22c2.59-1.12,5.06-2.62,6.62-4.99-2.14-2.34-2.5-4.35-2.62-5.09l.22-.16c.42.77,1.21,2.24,3.13,3.9.48-.96.96-2.75,1.22-5.22h-4.48c.03,1.18-.8,1.57-1.54,1.57-.9,0-.9-.48-.9-.77,0-.74.1-3.94.1-4.58,0-2.56-.06-3.2-.32-4.7l2.98,1.44h4.32c-.03-.54-.06-2.94-.06-3.46h-4c-.58,0-2.24,0-3.78.29l-.64-1.28c1.98.16,3.97.22,4.93.22h3.46c-.13-3.2-.29-3.68-.77-5.22l3.62.96c.26.06.42.26.42.38,0,.16-.13.35-.22.45-.29.26-.64.48-.74.58-.03.54-.03.58-.03,1.34s0,.9-.03,1.5h4.35l1.44-1.6c.22-.26.32-.42.51-.42s.35.16.58.35l1.95,1.6c.16.13.32.29.32.48,0,.32-.26.35-.48.35h-8.67c0,.54-.03,2.98-.03,3.46h4.32l.8-.86c.26-.29.35-.42.45-.42.16,0,.29.13.54.29l1.41.96c.26.16.35.26.35.48s-.06.35-.19.48c-.22.22-.64.54-.74.64,0,.58.03,3.39.06,4.42,0,.19.06,1.02.06,1.18,0,.77-.7,1.31-1.5,1.31-.58,0-.86-.32-.86-.86,0-.1,0-.19.03-.58h-4.99c-.1.86-.42,4.1-1.73,6.3,3.01,1.92,7.71,2.91,12.19,3.07v.16c-1.76,1.15-2.24,2.37-2.46,2.88Zm-14.53-18.69v5.5h4.58c.03-.86.1-2.88.1-5.5h-4.67Zm11.55,0h-4.77c0,2.85-.13,4.96-.19,5.5h4.96v-5.5Z"/><path class="cls-1" d="m1172.79,168.83l1.12-.96c.26-.22.38-.29.48-.29.16,0,.38.13.51.22l1.6,1.15c.19.13.32.35.32.48,0,.35-.42.67-1.34,1.22-.06,1.22-.06,1.34-.06,4.77,0,2.43.1,13.12.1,15.29,0,1.92,0,3.74-3.74,4.51-.61-2.14-2.24-2.91-3.01-3.26l.06-.26c1.02.13,2.05.22,3.07.22,1.28,0,1.28-.26,1.28-2.53,0-.64,0-4,.03-4.48h-7.62c0,1.86.03,4.67.13,7.3.03.45.03.9.03,1.06,0,.67,0,1.95-1.79,1.95-.96,0-.99-.67-.99-1.09,0-.26.03-1.06.06-1.34.26-3.87.29-6.75.29-7.87h-7.07c-.42,2.66-1.44,6.69-6.53,10.21l-.26-.26c4.8-4.42,5.02-12.13,5.02-20.74,0-3.23,0-3.33-.51-6.82l3.17,1.5h15.65Zm-16.03,8.22c0,1.86-.16,5.44-.38,7.1h6.98l.06-7.1h-6.66Zm0-7.46v6.69h6.66v-6.69h-6.66Zm16.45,14.56l.03-7.1h-7.58l-.06,7.1h7.62Zm.03-7.87l.03-6.69h-7.62v6.69h7.58Z"/><path class="cls-1" d="m908.59,170.7c.26-.88.4-1.8.4-2.76,0-4.69-3.24-8.63-7.61-9.7-1.2-5.09-5.77-8.89-11.23-8.89s-10.03,3.8-11.24,8.89c-4.36,1.08-7.6,5.01-7.6,9.7,0,.95.14,1.88.4,2.76-2.73,2.12-4.49,5.42-4.49,9.14,0,6.38,5.17,11.55,11.55,11.55,1.62,0,3.16-.33,4.55-.93.21.18.42.35.64.5v14.95h12.37v-14.95c.22-.16.43-.32.64-.5,1.41.6,2.94.93,4.56.93,6.38,0,11.55-5.17,11.55-11.55,0-3.72-1.76-7.02-4.49-9.14Zm-15.79,31.68h-5.3v-9.74c.85.22,1.73.34,2.65.34s1.8-.11,2.65-.34v9.74Zm8.73-14.52c-1.1,0-2.16-.21-3.16-.65l-2.01-.87-.03.03-1.64,1.4c-.57.48-1.21.87-1.89,1.14-.84.35-1.73.53-2.65.53s-1.81-.19-2.65-.53c-.68-.27-1.32-.66-1.89-1.14l-1.64-1.4-.03-.03-2.01.87c-1.01.43-2.07.65-3.16.65-4.42,0-8.02-3.6-8.02-8.02,0-2.49,1.13-4.8,3.12-6.34l1.89-1.47-.66-2.31c-.17-.6-.26-1.2-.26-1.78,0-2.98,2.02-5.56,4.91-6.27l2.09-.52.5-2.1c.86-3.63,4.07-6.17,7.79-6.17s6.94,2.54,7.79,6.17l.5,2.1,2.1.52c2.89.71,4.91,3.29,4.91,6.27,0,.58-.09,1.18-.26,1.78l-.66,2.31,1.89,1.47c1.99,1.54,3.12,3.84,3.12,6.34,0,4.42-3.6,8.02-8.02,8.02Z"/></svg>