<?xml version="1.0" encoding="UTF-8"?><svg id="_レイヤー_1" xmlns="http://www.w3.org/2000/svg" viewBox="0 0 308.2 126.59"><defs><style>.cls-1,.cls-2{fill:#99ba98;}.cls-3{fill:none;stroke:#99ba98;stroke-miterlimit:10;stroke-width:.99px;}.cls-4{fill:#eeefeb;}.cls-2{fill-rule:evenodd;}</style></defs><rect class="cls-4" x=".5" y=".5" width="307.21" height="125.6" rx="4.97" ry="4.97"/><rect class="cls-3" x=".5" y=".5" width="307.21" height="125.6" rx="4.97" ry="4.97"/><path class="cls-1" d="m21.43,21.81c-2.14,0-2.68-1.47-2.86-1.98h.08c.3.36.9,1.11,2.31,1.11,1.12,0,2.38-.57,2.38-2.07,0-1.71-1.67-1.92-2.19-1.92-1.38,0-2.68.53-3.85,1.26.03.45.16,2.47.16,2.89,0,1-.55,1.65-.84,1.65-.17,0-.29-.17-.6-.61-.38-.51-1.12-1.16-1.38-1.35-.55.77-.61.86-.79.86-.16,0-1.14-.2-1.14-1.26,0-.2.01-.33.04-.46.36.34.45.43.64.43.11,0,.15-.03.39-.21,1.6-1.2,1.89-1.42,2.73-1.98-.03-1.93-.03-2.16-.01-2.94-.41.13-.92.3-1.46.3s-1.29-.29-1.46-1.2c.43.29.63.41,1.23.41.52,0,1.11-.18,1.69-.39,0-.27.03-1.04.03-1.29.01-.39,0-1.35-.11-1.61-.11-.25-.18-.28-.92-.69.36-.25.76-.25.85-.25.48,0,1.5.39,1.5.88,0,.11-.22.78-.24.84-.16.48-.27,1.54-.3,1.79.6-.25.84-.41,1.02-.54.3-.22.39-.29.71-.29.38,0,.66.21.66.44,0,.31-.09.36-.98.72-.63.25-1.07.43-1.47.58-.04.75-.06,1.29-.06,1.5,0,.3,0,.39.04,1.25,1.43-.86,3.02-1.35,4.3-1.35,1.4,0,2.97.75,2.97,2.59,0,1.67-1.33,2.9-3.11,2.9Zm-4.89-2.21c-.02-.36-.02-.62-.02-.84-.78.62-1.3,1.21-1.81,1.92.29.13,1.27.57,1.56.57s.28-.09.28-.93c0-.09-.01-.6-.01-.72Zm7.74-4.44c-.2,0-.25-.02-.76-.26-.09-.04-.21-.04-.3-.04-.31,0-.57.04-1.37.24v-.06c1.26-.87,1.26-.95,1.26-1.12,0-.32-.56-.86-2.12-1.29.32-.13.62-.17,1-.17,1.8,0,2.69,1.27,2.69,2.21,0,.12,0,.5-.41.5Z"/><path class="cls-1" d="m39.05,14.82c-2.23-.76-4.08-1.74-5.8-4.12h-.07c-.96,1.22-2.09,2.31-3.36,3.21l1.11.53h1.59c-.02-1-.03-1.2-.26-1.72l1.43.36c.15.03.3.11.3.25,0,.09-.04.15-.1.21-.08.06-.26.2-.35.24,0,.11-.01.55-.01.66h1.69l.33-.36c.08-.09.12-.13.21-.13.1,0,.16.04.27.12l.53.41c.09.07.18.18.18.27,0,.13-.04.17-.51.48.01.43.1,2.89.1,3.31,0,.57-.55.69-.69.69-.12,0-.36-.09-.36-.44h-2.46c.29.42.87,1.2,1.98,1.91.77-.57,1.56-1.28,1.95-2.03l1.08,1.02c.09.08.12.13.12.22,0,.08-.06.2-.27.2-.08,0-.44-.04-.53-.04-.83.36-.95.4-2.12.78,1.28.72,3.02,1.11,5.01,1.04v.11c-.43.19-1.04.58-1.24,1.32-2.96-.51-5.58-2.74-6.24-4.51h-1.86v2.78c.9-.11,2.58-.39,3.45-.57l.06.13c-1.85.74-3.75,1.29-5.69,1.79-.03.04-.11.27-.15.32-.06.06-.1.13-.16.13-.13,0-.22-.06-.29-.18l-.78-1.41c.21.01.58.04.81.04.33,0,1.38-.11,1.77-.13-.01-3.5-.03-7.09-.09-7.65-1.04.72-2.25,1.38-3.38,1.7l-.03-.09c.44-.24,4-2.61,5.79-5.28.09-.13.23-.63.29-.85l1.33.69c.16.09.16.18.16.21,0,.14-.19.2-.33.24,1.6,1.51,4.11,2.8,6.88,2.78v.09c-.42.22-.9.66-1.31,1.32Zm-3.76-.03h-4.59v1.6h4.59v-1.6Zm0,1.96h-4.59v1.67h4.59v-1.67Z"/><path class="cls-1" d="m55,18.43h-2.37c0,.06,0,.7.01.84.02.24.08,1.11.08,1.21,0,.48-.51.64-.77.64-.42,0-.4-.25-.36-.87h-3c.01,1.79.01,1.92-.11,2.24-.3.84-1.23,1.11-1.59,1.21-.27-.92-.86-1.29-1.89-1.68v-.11c.32.03,1.27.14,1.84.14.13,0,.51,0,.6-.18.08-.17.08-.3.11-1.62h-2.78c-.36,0-1.08,0-1.75.14l-.3-.6c.93.08,1.86.11,2.31.11h2.52l.03-1.47h-4.41c-.19,0-1.04,0-1.77.13l-.3-.6c1,.09,2.02.11,2.31.11h4.17v-1.5h-2.95c-.15,0-1.08,0-1.77.15l-.3-.6c1.05.09,2.17.09,2.31.09h2.71v-1.41h-2.89c0,.28-.01.33-.06.42-.1.19-.39.33-.66.33-.18,0-.38-.09-.38-.33,0-.09.08-1.21.08-1.46,0-1.14-.03-1.3-.11-1.65l1.2.56h2.82v-1.14h-3.9c-.27,0-1.03,0-1.77.13l-.29-.6c.93.08,1.86.11,2.29.11h3.66c-.01-.3-.07-1-.28-1.73l1.59.48c.17.04.24.12.24.22,0,.17-.25.29-.52.41,0,.13-.01.39-.01.62h3.6l.62-.72c.1-.13.15-.18.22-.18s.13.03.29.15l.96.72c.12.09.15.15.15.22,0,.14-.13.17-.22.17h-5.62c0,.09,0,.98-.01,1.14h2.83l.33-.32c.11-.1.15-.15.21-.15.08,0,.1.03.21.11l.63.51c.1.08.13.13.13.21,0,.17-.3.3-.41.34-.01.21.02,1.12.02,1.32,0,.62-.57.69-.71.69-.36,0-.35-.29-.33-.58h-2.94c0,.36,0,.46.01,1.41h2.86l.42-.45c.11-.11.15-.17.23-.17.06,0,.1.01.25.15l.6.51c.11.09.14.18.14.21,0,.08-.05.15-.43.42v1.18h.61l.6-.74c.12-.13.15-.19.22-.19.09,0,.15.04.27.17l.75.73c.11.11.13.17.13.23,0,.15-.13.17-.22.17Zm-7.41-5.4h-2.89v1.41h2.89v-1.41Zm3.9,0h-2.92v1.41h2.92v-1.41Zm.12,3.54h-3.04v1.5h3.04v-1.5Zm0,1.86h-3.03l.02,1.47h3.01v-1.47Z"/><path class="cls-1" d="m62.69,21.99v-.12c3.2-1.14,4.7-3.25,4.7-5.53,0-2.54-2.04-4.04-4.65-4.04-.38,0-.45.01-.61.09.81.44,1.03.99,1.03,1.2,0,.17-.04.27-.51,1.25-.96,2.05-2.37,5.07-3.39,5.91-.1.08-.28.17-.48.17-.35,0-.48-.19-.93-.83-.11-.15-.71-.7-.81-.84-.17-.24-.42-.78-.42-1.53,0-3.23,2.73-5.88,6.39-5.88,2.91,0,5.55,1.69,5.55,4.71s-2.43,5.14-5.87,5.44Zm-1.18-9.51c-1.65.27-3.94,2.4-3.94,5.16,0,1.02.58,2.14,1.17,2.14.4,0,.99-1.06,1.24-1.57,1.5-3.02,2-3.99,2-4.77,0-.38-.18-.69-.46-.96Z"/><path class="cls-1" d="m82.34,13.19c-.48.24-.92.55-1.35.87l-.08-.04c.41-1.16.42-1.26.46-1.54h-8.73c.04,1.68-.87,2.47-1.52,2.47-.42,0-.64-.33-.64-.58,0-.38.34-.64.76-.97.71-.54.99-.98,1.16-1.86h.09c.06.18.09.32.12.58h3.87c.03-1.41-.09-1.75-.3-2.38l1.56.45c.16.04.22.13.22.22,0,.14-.11.23-.45.46v1.25h3.79l.47-.43c.09-.08.18-.15.28-.15s.21.11.29.18l.87.84c.15.15.18.29.18.38,0,.15-.07.27-1.06.27Zm.87,9.34c-.64.46-2.47.48-3.33.48-3.4,0-4.09-.03-4.15-1.47-.01-.24-.01-2.31-.01-2.68l-3.09.57c-.75.13-1.29.28-1.71.45l-.41-.54c.76-.07,1.53-.16,2.29-.3l2.91-.54c0-.38.01-2.23.03-2.65-1.34.34-3.11.83-4.83.84v-.11c.22-.04,6.81-1.84,7.92-3.38l1,.99c.09.08.11.2.11.25,0,.14-.15.2-.22.2s-.45-.01-.54-.01c-.41.18-.98.42-2.39.88,0,.41-.03,2.35-.03,2.79l4.53-.83.56-.9c.08-.12.13-.22.22-.22.08,0,.2.06.27.1l1.02.58c.09.05.2.15.2.24,0,.12-.09.15-.2.17l-6.62,1.21c-.01,1.14,0,1.96.03,2.73.01.24.07.39.3.48.27.11.96.12,2.76.12,2.28,0,2.54-.03,3-2.8h.09c.08.41.18,1.02.29,1.53.11.51.12.57.3.73.21.2.24.21.24.36,0,.31-.32.57-.54.72Z"/><path class="cls-1" d="m87.82,13.22c.02-.55.02-.69,0-1.95h-.24c-.15,0-1.08,0-1.77.13l-.3-.6c.76.08,1.54.11,2.31.11h2.78l.54-.58c.06-.08.18-.18.24-.18.09,0,.18.09.27.17l.67.57c.08.06.15.13.15.24,0,.13-.12.15-.22.15h-2.25v1.95h.82l.39-.33c.09-.08.16-.13.22-.13s.15.09.21.15l.51.51c.07.07.16.18.16.28,0,.06-.07.14-.15.18-.06.03-.24.13-.36.22v5.52c0,.39.04,2.1.04,2.46,0,.48-.29.69-.64.69-.24,0-.39-.13-.39-.36,0-.13.02-.34.03-.46h-3.9c0,.74,0,1.21-.65,1.21-.3,0-.45-.15-.45-.42,0-.17.11-1.16.12-1.35.06-1.32.06-4.3.06-5.73,0-2.16-.04-2.49-.15-3.1l1.21.66h.72Zm.79.36c-.07,1.74-.24,2.96-1.66,4.02v1.06h3.9v-1.63c-.23.12-.65.12-.78.12-.55,0-.81-.13-.87-.46-.08-.36-.03-2.59-.02-3.11h-.57Zm-1.66,0v3.79c.62-.78.81-2.46.85-3.79h-.85Zm3.9,5.45h-3.9v2.56h3.9v-2.56Zm-1.67-5.8c0-.27.02-1.63.02-1.95h-.54c-.01.66-.03,1.71-.04,1.95h.57Zm.81.36c-.02.39-.04,2.15-.03,2.43,0,.06.06.13.19.13s.2-.06.23-.12c.03-.08.08-.33.09-.45h.09c.1.23.17.32.29.48v-2.48h-.85Zm4.05,2.22c-.03.57-.03,2.7-.03,3.43,0,1.09,0,1.91.06,2.05.09.29.87.3,1.44.3.45,0,1.54-.01,1.86-.3.26-.22.33-.55.72-2.11h.12c.21,1.41.26,1.69.39,1.84.22.24.33.34.33.46,0,.1-.09.41-.44.67-.33.25-.76.41-2.23.41-2.14,0-2.49-.06-2.79-.24-.46-.27-.48-.51-.48-2.38,0-.5.01-2.71.01-3.17-.01-.51,0-1.5-.15-2.1l1.35.76h2.44c.03-2.59.04-3.01.03-4.17h-1.56c-.24,0-1.04,0-1.75.13l-.3-.6c.77.08,1.53.11,2.31.11h1.14l.42-.45c.08-.09.17-.17.24-.17.11,0,.21.09.26.13l.69.55c.08.06.13.15.13.23,0,.12-.1.18-.18.24-.15.11-.21.17-.33.26-.01.67.03,4.12,0,4.29-.04.35-.45.51-.72.51-.39,0-.38-.29-.38-.71h-2.61Z"/><path class="cls-1" d="m153.85,60.5c0-1.05-.24-2.08-.69-3.06,0-.08,0-.16,0-.24,0-3.15-1.82-5.96-4.61-7.29-.6-2.05-2.02-3.8-3.91-4.83-.97-2.99-3.63-5.17-6.77-5.53-1.53-1.88-3.81-2.97-6.27-2.97-.54,0-1.07.05-1.59.16-1.39-1.04-3.08-1.61-4.85-1.61-1.86,0-3.63.62-5.05,1.77-.41-.06-.82-.1-1.24-.1-2.9,0-5.52,1.51-6.96,3.95-3.25.27-6.05,2.5-7.04,5.58-1.99,1.31-3.29,3.41-3.58,5.76-.98.76-1.76,1.72-2.29,2.81-1.61,1.7-2.45,3.59-2.45,5.59,0,.9.32,4.39.5,5.43,1.88,10.16,8.92,18.47,18.24,21.97v3.95c0,.94.76,1.82,1.7,1.95,5.45.71,10.97.71,16.42,0,.94-.12,1.7-1.01,1.7-1.95v-3.95c9.32-3.5,16.37-11.81,18.24-21.97.25-.77.5-4.53.5-5.43Zm-46.6-11.39c.48-.25.82-.7.93-1.23.43-2.06,2.28-3.56,4.39-3.56.09,0,.2,0,.32.01.78.06,1.51-.4,1.8-1.12.69-1.71,2.32-2.81,4.17-2.81.42,0,.85.06,1.26.18.64.19,1.34,0,1.8-.48.86-.88,2-1.37,3.23-1.37s2.29.45,3.14,1.28c.49.47,1.2.63,1.84.41.47-.16.96-.24,1.46-.24,1.55,0,2.96.78,3.79,2.08.34.53.94.85,1.57.83,2.13.01,3.97,1.52,4.38,3.6.12.6.53,1.09,1.1,1.32,1.23.49,2.17,1.49,2.59,2.71.09.25.15.5.19.77.1.67.58,1.23,1.23,1.44,1.82.59,3.05,2.24,3.11,4.14,0,.04,0,.08,0,.12,0,.65-.14,1.28-.41,1.87,0,0,0,.01,0,.02-.27.59-.21,1.27.16,1.8.05.08.1.15.15.23-.43,1.83-2.74,3.77-6.37,5.3-2.64,1.11-5.79,1.95-9.23,2.47-.83.13-1.67.23-2.53.32-1.98.2-4.04.31-6.13.31-.76,0-1.51-.01-2.25-.04-.48-.02-.96-.04-1.44-.07-2.64-.16-5.18-.49-7.54-.98-.87-.18-1.72-.38-2.54-.61-1.48-.4-2.86-.87-4.13-1.41-3.62-1.53-5.93-3.47-6.37-5.3.13-.21.29-.42.46-.61.35-.39.51-.92.44-1.44-.03-.21-.04-.42-.04-.62,0-.07,0-.14,0-.21.05-1.14.52-2.19,1.32-2.97.25-.25.53-.47.84-.66.54-.33.87-.91.87-1.54,0,0,0-.02,0-.02,0-.87.26-1.69.71-2.4.42-.65,1-1.19,1.71-1.56Z"/><path class="cls-1" d="m111.43,56.62c-.74,0-1.35-.6-1.35-1.34,0-3.09,2.52-5.6,5.62-5.6.69,0,1.36.12,1.98.36,1.24-1.48,3.08-2.36,5.05-2.36,1.81,0,3.49.71,4.74,2.01.52.53.5,1.38-.04,1.9-.54.51-1.39.5-1.9-.04-.74-.77-1.74-1.19-2.8-1.19-1.43,0-2.75.78-3.43,2.04-.18.34-.5.58-.87.67-.37.09-.76.02-1.08-.2-.49-.34-1.06-.52-1.66-.52-1.61,0-2.93,1.31-2.93,2.92,0,.74-.6,1.34-1.35,1.34Z"/><path class="cls-1" d="m138.42,63.49c-.6,0-1.15-.41-1.3-1.02-.23-.92-.81-1.69-1.64-2.17-1.11-.64-2.48-.62-3.57.06-.33.2-.72.25-1.09.15-.37-.11-.67-.37-.84-.71-.23-.47-.59-.86-1.04-1.13-1.24-.71-2.82-.28-3.54.95-.37.64-1.19.86-1.84.49-.64-.37-.87-1.19-.49-1.83,1.45-2.52,4.69-3.38,7.21-1.93.54.31,1.01.7,1.4,1.16,1.68-.59,3.56-.44,5.14.47,1.47.84,2.5,2.21,2.91,3.84.18.72-.26,1.45-.98,1.63-.11.03-.22.04-.33.04Z"/><path class="cls-1" d="m200.95,63.56c-4.11-1.74-9.66-2.7-15.63-2.7s-11.52.96-15.63,2.7c-1.82.77-2.93,1.52-3.59,2.11.67.59,1.78,1.34,3.59,2.11,4.11,1.74,9.66,2.7,15.63,2.7s11.52-.96,15.63-2.7c1.82-.77,2.93-1.52,3.59-2.11-.67-.59-1.78-1.34-3.59-2.11Zm-19.39,3.86l-2.2-.89,1.16-1.69,2.2.89-1.16,1.69Zm1.16-4.38l1.45-.93,1.2,1.12-1.45.93-1.2-1.12Zm3.78,4.81l-2-1.22,1.59-1.54,2,1.22-1.59,1.54Zm3.74-2.41l-2.15-.41.54-1.66,2.15.41-.54,1.66Z"/><path class="cls-1" d="m211.66,64.23c0-3.61-2.96-6.85-8.34-9.14-4.84-2.05-11.23-3.18-17.99-3.18s-13.15,1.13-17.99,3.18c-5.38,2.28-8.34,5.53-8.34,9.14,0,11.63,7.17,21.55,17.22,25.35v3.65c0,.87.7,1.69,1.56,1.8,5.01.66,10.08.66,15.09,0,.86-.11,1.56-.93,1.56-1.8v-3.65c10.05-3.8,17.22-13.72,17.22-25.35Zm-42.78-5.48c4.36-1.85,10.2-2.87,16.44-2.87s12.08,1.02,16.44,2.87c3.71,1.57,5.92,3.62,5.92,5.48s-2.21,3.9-5.92,5.48c-4.36,1.85-10.2,2.87-16.44,2.87s-12.08-1.02-16.44-2.87c-3.71-1.57-5.92-3.62-5.92-5.48s2.21-3.9,5.92-5.48Z"/><path class="cls-2" d="m118.44,106.92c-.62,0-1.12-.51-1.12-1.12v-1.41c0-.62.5-1.12,1.12-1.12,0,0,71.3-.72,71.31-.72.3,0,.58.12.79.33.21.21.33.5.33.8v2.84c0,.3-.12.59-.33.8-.21.21-.5.33-.79.33,0,0-71.31-.72-71.31-.72Z"/><path class="cls-2" d="m118.44,113.2c-.62,0-1.12-.51-1.12-1.12v-1.41c0-.62.5-1.12,1.12-1.12,0,0,71.3-.72,71.31-.72.3,0,.58.12.79.33.21.21.33.5.33.8v2.84c0,.3-.12.59-.33.8-.21.21-.5.33-.79.33,0,0-71.31-.72-71.31-.72Z"/><polygon class="cls-1" points="169.68 19.8 167.8 19.99 167.54 18.56 169.42 18.36 169.68 19.8"/><polygon class="cls-1" points="171.63 21.95 169.82 22.77 168.74 21.39 170.56 20.57 171.63 21.95"/><polygon class="cls-1" points="173.32 20.55 171.13 20.03 171.81 18.36 174.01 18.88 173.32 20.55"/><path class="cls-1" d="m187,18c-1.52-.57-3.21-1.05-5.03-1.44l-1.26-2.09c-.26-.42-.71-.68-1.21-.68h-17.46c-.49,0-.95.26-1.21.68l-1.26,2.09c-1.81.39-3.51.87-5.03,1.44-4.97,1.87-7.7,4.6-7.7,7.68,0,8.85,10.71,16.02,23.93,16.02s23.93-7.17,23.93-16.02c0-3.08-2.73-5.81-7.7-7.68Zm-24.16-1.39h15.86l4.63,7.66h-25.12l4.63-7.66Zm-8.54,9.19s0,.04,0,.07c0,.04.01.08.02.12,0,.02,0,.04.01.05,0,0,0,0,0,.01l.91,3.41c-3.31-1.37-4.5-2.87-4.5-3.77,0-.96,1.36-2.6,5.17-4.04.24-.09.48-.18.73-.26l-2.16,3.57s0,0,0,0c-.03.05-.06.1-.08.16,0,.02-.01.03-.02.05-.01.04-.03.08-.04.11,0,.02-.01.04-.02.07,0,.03-.02.07-.02.11,0,.02,0,.05,0,.07,0,.04,0,.07,0,.11,0,.02,0,.05,0,.07,0,.04,0,.07,0,.11Zm28.77,4.74c-3.54.96-7.8,1.49-12.3,1.49s-8.76-.52-12.3-1.49l-.92-3.44h26.44l-.92,3.44Zm3.22-1.08l.91-3.41s0,0,0-.01c0-.02,0-.04.01-.05,0-.04.02-.08.02-.12,0-.02,0-.04,0-.07,0-.04,0-.07,0-.11,0-.02,0-.05,0-.07,0-.04,0-.07,0-.11,0-.02,0-.05,0-.07,0-.04-.01-.07-.02-.1,0-.02-.01-.04-.02-.07-.01-.04-.03-.08-.04-.11,0-.02-.01-.03-.02-.05-.02-.05-.05-.11-.08-.16,0,0,0,0,0,0l-2.16-3.57c.25.08.49.17.73.26,3.82,1.44,5.17,3.07,5.17,4.04,0,.9-1.2,2.4-4.5,3.77Z"/></svg>