<svg id="_レイヤー_2" data-name="レイヤー 2" xmlns="http://www.w3.org/2000/svg" viewBox="0 0 256.52 98.33"><defs><filter id="outer-glow-1" filterUnits="userSpaceOnUse"><feOffset/><feGaussianBlur result="blur" stdDeviation=".8"/><feFlood flood-color="#231815" flood-opacity="1"/><feComposite in2="blur" operator="in"/><feComposite in="SourceGraphic"/></filter><style>.cls-1{fill:#231815;stroke-width:0}</style></defs><g id="_レイヤー_1-2" data-name="レイヤー 1"><path class="cls-1" d="M120.54 81.21c.33 0 .64-.02.93-.07.29-.04.55-.13.78-.27s.4-.34.53-.61c.13-.27.2-.62.2-1.06v-9.51c0-.44-.07-.79-.2-1.06s-.31-.48-.53-.62-.48-.24-.78-.29c-.29-.05-.61-.07-.93-.07h-.09v-1.26h5.3v12.67c0 .47.06.84.2 1.13.13.28.3.5.52.65s.48.25.77.3c.3.05.61.07.94.07h.39v1.26h-8.43v-1.26h.39Zm2.01-19.68c0-.35.04-.64.13-.88s.21-.42.36-.57c.15-.15.33-.25.54-.31.2-.06.43-.09.67-.09s.45.03.65.09.38.16.53.31.27.34.36.57.14.53.14.88-.05.64-.14.88-.21.42-.36.57-.33.25-.53.32a2.463 2.463 0 0 1-1.32 0c-.2-.06-.38-.17-.54-.32-.15-.15-.28-.34-.36-.57s-.13-.53-.13-.88ZM137.77 81.21v1.26h-7.98v-1.26h.25c.34 0 .65-.02.95-.07.29-.05.55-.15.77-.3s.39-.37.52-.65.2-.66.2-1.13V69.7c0-.44-.07-.79-.2-1.06s-.31-.48-.53-.62-.48-.24-.78-.29c-.29-.05-.61-.07-.93-.07h-.09V66.4h4.8l.39 2.43h.15c.31-.56.64-1.01.98-1.37s.71-.63 1.09-.84c.38-.2.79-.34 1.22-.41.43-.07.88-.11 1.35-.11.78 0 1.48.12 2.09.34.61.23 1.14.58 1.56 1.05.43.47.76 1.08.99 1.82s.34 1.63.34 2.65v7.09c0 .47.06.84.17 1.13.11.28.27.5.47.65.2.15.44.25.72.3s.58.07.91.07h.1v1.26h-5.17V72.1c0-.65-.06-1.24-.17-1.74-.12-.51-.3-.94-.56-1.29s-.59-.62-1.01-.8c-.42-.18-.92-.27-1.52-.27-.68 0-1.24.13-1.7.4-.46.26-.83.62-1.11 1.07s-.48.97-.6 1.55c-.12.59-.18 1.2-.18 1.85v6.33c0 .44.06.79.2 1.06.13.27.31.47.53.61.22.14.48.23.77.27.29.04.61.07.93.07h.09ZM155.97 81.18c.36 0 .69-.02.99-.06.3-.04.6-.09.91-.15v1.32c-.13.06-.29.12-.49.18s-.42.11-.66.15c-.24.04-.49.08-.75.1-.26.02-.51.04-.74.04-.75 0-1.4-.08-1.94-.24-.54-.16-.99-.42-1.33-.78s-.61-.84-.78-1.44-.25-1.32-.25-2.18V68.1h-2.26v-1.2c.36 0 .75-.07 1.18-.22.43-.15.81-.39 1.14-.73.34-.37.61-.81.82-1.33.21-.51.39-1.15.54-1.93h1.36v3.69h3.88v1.71h-3.88V78.2c0 1.03.21 1.78.62 2.26s.96.72 1.65.72ZM167.07 82.77c-1.07 0-2.04-.18-2.89-.55-.85-.37-1.58-.9-2.17-1.6-.59-.7-1.04-1.56-1.35-2.58s-.47-2.18-.47-3.48c0-2.8.57-4.91 1.71-6.33 1.14-1.42 2.76-2.12 4.87-2.12.96 0 1.82.15 2.58.45s1.41.75 1.94 1.35c.53.6.94 1.35 1.22 2.24.28.89.43 1.93.43 3.11v1.38h-9.88c.02 1.09.13 2.03.33 2.82s.48 1.43.85 1.94.83.88 1.37 1.12c.54.24 1.16.36 1.87.36.51 0 .99-.06 1.43-.18s.84-.27 1.2-.47.67-.42.95-.67c.28-.25.5-.51.67-.78.14.06.26.18.38.37s.18.41.18.66c0 .3-.11.63-.32.97-.21.35-.54.67-.97.96-.43.29-.98.54-1.63.73-.65.2-1.42.29-2.3.29Zm-.37-15.06c-1.1 0-1.95.45-2.54 1.36s-.94 2.22-1.05 3.96h6.83c0-.79-.06-1.51-.17-2.17s-.3-1.22-.55-1.68c-.25-.47-.58-.83-.99-1.08s-.92-.38-1.51-.38ZM183.98 82.47h-8.56v-1.26h.09c.34 0 .65-.02.95-.07.29-.05.55-.15.77-.3s.39-.37.52-.65.2-.66.2-1.13V69.7c0-.44-.07-.79-.2-1.06s-.31-.48-.53-.62-.48-.24-.78-.29c-.29-.05-.61-.07-.93-.07h-.09V66.4h4.56l.57 2.97h.14c.19-.45.39-.87.59-1.27.2-.4.45-.74.75-1.04.29-.3.66-.53 1.09-.7.43-.17.98-.26 1.64-.26 1.08 0 1.89.19 2.41.57.53.38.79.92.79 1.61 0 .31-.05.6-.15.86-.1.26-.26.49-.49.68-.22.19-.51.34-.85.44-.35.1-.77.15-1.28.15 0-.83-.12-1.43-.35-1.79-.23-.37-.64-.55-1.22-.55-.37 0-.7.11-.99.32-.29.21-.54.49-.76.83-.22.35-.4.75-.55 1.19s-.27.91-.36 1.38c-.09.47-.16.95-.2 1.41s-.06.89-.06 1.27v4.72c0 .44.06.79.2 1.06.13.27.31.47.53.61.22.14.48.23.77.27.29.04.61.07.93.07h.83v1.26ZM188.53 67.65v-1.26h7.42v1.26h-.38c-.6 0-1.05.12-1.34.35-.29.23-.44.6-.44 1.1 0 .17.02.33.06.5.04.17.1.37.17.59l2.01 5.67c.13.35.26.74.39 1.17.14.42.26.84.38 1.25.12.41.23.8.33 1.16.1.37.16.68.2.93h.1c.05-.21.13-.48.24-.8.11-.32.24-.66.38-1.04s.28-.76.43-1.15.29-.77.43-1.13l2.13-5.84c.1-.24.17-.48.21-.7s.06-.42.06-.59c0-.52-.16-.89-.49-1.13s-.81-.35-1.47-.35h-.22v-1.26h6.36v1.26h-.36c-.29 0-.54.03-.74.1-.2.06-.39.18-.55.36-.16.18-.32.42-.47.72s-.32.69-.5 1.17l-4.68 12.48h-2.71l-4.77-13.23c-.12-.31-.24-.57-.36-.78s-.27-.37-.43-.49c-.16-.12-.35-.21-.56-.26-.21-.05-.46-.07-.75-.07h-.09ZM206.67 81.21c.33 0 .64-.02.93-.07.29-.04.55-.13.78-.27s.4-.34.53-.61c.13-.27.2-.62.2-1.06v-9.51c0-.44-.07-.79-.2-1.06s-.31-.48-.53-.62-.48-.24-.78-.29c-.29-.05-.61-.07-.93-.07h-.09v-1.26h5.3v12.67c0 .47.06.84.2 1.13.13.28.3.5.52.65s.48.25.77.3c.3.05.61.07.94.07h.39v1.26h-8.43v-1.26h.39Zm2.01-19.68c0-.35.04-.64.13-.88s.21-.42.36-.57c.15-.15.33-.25.54-.31.2-.06.43-.09.67-.09s.45.03.65.09.38.16.53.31.27.34.36.57.14.53.14.88-.05.64-.14.88-.21.42-.36.57-.33.25-.53.32a2.463 2.463 0 0 1-1.32 0c-.2-.06-.38-.17-.54-.32-.15-.15-.28-.34-.36-.57s-.13-.53-.13-.88ZM223.61 82.77c-1.07 0-2.04-.18-2.89-.55-.85-.37-1.58-.9-2.17-1.6-.59-.7-1.04-1.56-1.35-2.58s-.47-2.18-.47-3.48c0-2.8.57-4.91 1.71-6.33 1.14-1.42 2.76-2.12 4.87-2.12.96 0 1.82.15 2.58.45s1.41.75 1.94 1.35c.53.6.94 1.35 1.22 2.24.28.89.43 1.93.43 3.11v1.38h-9.88c.02 1.09.13 2.03.33 2.82s.48 1.43.85 1.94.83.88 1.37 1.12c.54.24 1.16.36 1.87.36.51 0 .99-.06 1.43-.18s.84-.27 1.2-.47c.36-.2.67-.42.95-.67.28-.25.5-.51.67-.78.14.06.26.18.38.37s.18.41.18.66c0 .3-.11.63-.32.97-.21.35-.54.67-.97.96-.43.29-.98.54-1.63.73-.65.2-1.42.29-2.3.29Zm-.36-15.06c-1.1 0-1.95.45-2.54 1.36s-.94 2.22-1.05 3.96h6.83c0-.79-.06-1.51-.17-2.17s-.3-1.22-.55-1.68c-.25-.47-.58-.83-.99-1.08s-.92-.38-1.51-.38ZM245.1 66.48l2.97 8.89c.12.36.24.75.37 1.17.13.42.25.83.37 1.23.12.41.22.79.32 1.15s.17.67.22.92h.09c.09-.5.23-1.11.42-1.84s.44-1.58.74-2.54l1.48-4.83c.08-.25.14-.52.2-.81.05-.29.08-.51.08-.68 0-.52-.16-.89-.49-1.13s-.82-.35-1.49-.35h-.2V66.4h6.35v1.26h-.38c-.29 0-.54.03-.75.09-.21.06-.4.17-.57.34-.17.17-.33.41-.47.71s-.29.7-.43 1.2l-3.83 12.48h-2.38l-3.54-10.56-.54-1.98-4.2 12.54h-2.35l-3.88-13.23c-.12-.31-.24-.57-.36-.78s-.27-.37-.43-.49c-.16-.12-.35-.21-.56-.26-.21-.05-.46-.07-.75-.07h-.09v-1.26h7.33v1.26h-.39c-.59 0-1.03.09-1.33.26s-.45.51-.45 1c0 .17.03.37.08.6.05.23.11.46.17.69l1.39 5.04c.1.36.2.76.3 1.19s.21.86.3 1.28c.09.42.18.82.25 1.19.08.37.14.68.19.94h.09c.05-.25.11-.55.2-.89.08-.34.18-.7.29-1.08.11-.38.23-.78.35-1.18s.25-.78.38-1.14l3.09-9.07h1.87Z"/><g style="filter:url(#outer-glow-1)"><path class="cls-1" d="M22.62 98.33c-20.08 0-25.31-22.71-21.43-48.89C5.08 23.13 18.89 0 36.34 0c19.39 0 25.44 22.71 21.59 48.75-3.87 26.17-17.31 49.58-35.31 49.58ZM35.85 3.32c-12.33 0-19.96 23.54-23.28 45.98-3.2 21.6-3.95 45.43 10.73 45.43 12.6 0 19.87-23.82 23.08-45.56C49.72 26.6 50.39 3.33 35.85 3.33ZM115.74 95.14c-.12.83-.78 1.52-2.17 1.52 0 0-10.96-.83-23.28-.83-6.09 0-12.62.14-18.13.83h-.28c-.97 0-1.58-.55-1.46-1.38.12-.83.8-1.66 2.03-2.49 17.62-2.08 16.6-3.6 19.54-18.83 1.02-4.99 3.12-17.31 4.98-29.91 1.39-9.42 2.69-19.11 3.2-26.31.23-1.52-.92-2.21-1.33-2.21-4.73.14-13.8 2.49-13.8 2.49h-.14c-1.25 0-2.09-.83-1.93-1.94.08-.55.62-1.39 1.55-2.08 10.98-3.05 23.85-10.53 25.69-12.6.82-.83 1.87-1.39 2.56-1.39.97 0 1.68.83 1.39 2.77l-.12.83c-2.84 10.8-6.54 33.93-9.27 52.35-1.04 7.06-2.01 13.57-2.5 17.87-1.88 15.51-2.42 17.31 12.29 18.97.87.69 1.28 1.66 1.18 2.35Z"/></g></g></svg>