<svg xmlns="http://www.w3.org/2000/svg" id="_レイヤー_2" data-name="レイヤー 2" viewBox="0 0 162.31 55.98"><defs><style>.cls-2{stroke-width:0;fill:#231815}</style></defs><g id="_レイヤー_1-2" data-name="レイヤー 1"><path d="M49.02 27.89C48.99 22.6 46.99 17.3 43 13.24c-3.99-4.06-9.32-6.3-15.02-6.3s-10.79 2.14-14.75 6.04c-4.17 4.1-6.26 9.51-6.28 14.94v.27C7 33.45 9 38.71 12.97 42.75c3.99 4.06 9.32 6.3 15.02 6.3s10.79-2.14 14.75-6.04c4.15-4.08 6.25-9.46 6.29-14.86v-.26ZM27.99 8.38c3.16 0 6.2.75 8.93 2.14 0 0-.2.34-1.07 1.99-.87 1.65-1.59 2.09-3.46 2.09h-9.05c-2.4 0-2.87-.7-3.54-1.87-.67-1.17-1.14-2-1.14-2 2.83-1.53 6.02-2.35 9.33-2.35ZM17.55 44.59A19.7 19.7 0 0 1 14 41.73a19.547 19.547 0 0 1-5.6-12.98h2.31c1.53 0 1.9 0 2.79 1.55.89 1.54 4.07 7.08 4.97 8.61.9 1.54.68 2.86.16 3.78-.52.92-1.08 1.9-1.08 1.9Zm24.18-2.61a19.304 19.304 0 0 1-3.68 2.85s-.11-.2-1.19-2.21c-1.08-2.01-.69-2.38.2-3.93l4.75-8.22c.85-1.47 1.5-1.72 3.25-1.72h2.52c-.19 4.82-2.13 9.58-5.84 13.22Zm3.59-14.67c-2.21 0-2.93-.71-3.88-2.35-.43-.75-1.22-2.1-2.02-3.5l-1.06.66-.16.1-7.75 5.08s-.84.52-.84.53c-.79.5-.86.75-.86 1.69v11.93h3.57c2.25 0 2.63.65 3.3 1.88.67 1.23 1.18 2.18 1.18 2.18a19.52 19.52 0 0 1-8.8 2.08c-3.26 0-6.4-.79-9.2-2.28 0 0 .05-.02 1.08-1.9 1.03-1.87 1.45-1.96 3.13-1.96h4.31V29.71c0-.74-.23-1.48-.89-1.9l-.83-.52-8.4-5.06-.13-.08-1.12-.71c-.89 1.52-1.74 3-2.16 3.82-.89 1.72-1.86 2.02-3.3 2.02H8.42a19.49 19.49 0 0 1 5.84-13.31c.98-.97 2.05-1.81 3.18-2.54 0 0 .3.54 1.07 1.86.77 1.33 1.04 2-.02 3.83-.41.72-1.09 1.86-1.81 3.08l1.12.7.13.08 8.08 4.86s1.02.64 1.05.65c.8.5 1.49.31 2.22-.15l1.01-.64 7.21-4.74.16-.1 1.05-.66c-.7-1.21-1.35-2.33-1.73-3.01-.95-1.68-.54-2.73.17-4.06.71-1.32 1.04-1.93 1.04-1.93 1.37.83 2.64 1.85 3.8 3.02 3.58 3.64 5.44 8.33 5.6 13.07h-2.26Z" style="fill:#6a3906;stroke-width:0"/><path d="M27.99 52.74c-13.65 0-24.76-11.11-24.76-24.76S14.34 3.23 27.99 3.23s24.76 11.11 24.76 24.76-11.11 24.76-24.76 24.76Zm0-48.07c-12.86 0-23.32 10.46-23.32 23.32s10.46 23.32 23.32 23.32 23.32-10.46 23.32-23.32S40.85 4.67 27.99 4.67Z" style="stroke-width:0;fill:#2ca6e0"/><path d="M27.99 55.98C12.56 55.98 0 43.42 0 27.99S12.56 0 27.99 0s27.99 12.56 27.99 27.99-12.56 27.99-27.99 27.99Zm0-54.54c-14.64 0-26.55 11.91-26.55 26.55s11.91 26.55 26.55 26.55 26.55-11.91 26.55-26.55S42.63 1.44 27.99 1.44Z" style="fill:#8dc21f;stroke-width:0"/><path d="M99.08 20.55c1.78-1.08 2.87-2.96 2.87-5.05 0-1.96-.83-3.62-2.39-4.81-1.46-1.1-3.17-1.19-4.66-1.19h-9.84v2.68h2.96v18.43h-3.73L75.24 9.66l-.07-.16h-6.54v2.68h2.95l-8.2 18.43h-2.99v2.68h8.84v-2.68h-2.79l2.14-4.81h10.44l2.08 4.81h-2.89v2.68h17.27c1.93 0 3.81-.13 5.46-1.64 1.34-1.24 2.1-3.03 2.1-4.92 0-2.8-1.47-5.07-3.98-6.19Zm-1.28-1.89c-.99.82-1.91.88-3.31.88h-3.58v-7.35h4.18c.91 0 1.79.04 2.57.6.92.66 1.42 1.71 1.42 2.98s-.43 2.19-1.27 2.89Zm-6.89 3.43h3.48c1.46 0 2.85 0 4.05.83 1.09.77 1.74 2.09 1.74 3.53 0 .58-.11 2.55-1.48 3.43-1.14.74-2.56.74-4.06.74H90.9V22.1ZM73.86 13.1l4.26 10.25h-8.61l4.35-10.25ZM103.63 12.19h2.97v18.43h-2.97v2.68h8.81v-2.68h-2.96V12.19h2.96V9.51h-8.81v2.68zM139.51 9.51h-8.8v2.68h2.96v16.3L120.13 9.51h-5.75v2.68h2.97v18.43h-2.97v2.68h8.84v-2.68h-2.99v-16.2l13.5 18.88h2.82V12.19h2.96V9.51zM159.15 26.68l-.08.11c-1.84 2.6-4.73 4.09-7.93 4.09-5.23 0-9.47-4.34-9.47-9.67s4.19-9.44 9.54-9.44c3.24 0 6.23 1.46 7.79 3.82l.08.12h2.56v-6.2h-2.68v2.34c-1.97-1.92-4.71-2.96-7.78-2.96-3.39 0-6.55 1.25-8.66 3.44-2.44 2.54-3.72 5.61-3.72 8.88 0 3.44 1.29 6.61 3.63 8.92 2.34 2.31 5.54 3.63 8.79 3.63 4.67 0 8.96-2.63 10.93-6.7l.19-.38h-3.17ZM61.63 40.07v.32h-1.12v-.32h.39l1.11-2.84h-.39v-.31h.92l1.21 3.15h.39v.32h-1.12v-.32h.35l-.29-.77h-1.51l-.29.77h.35Zm.69-2.75-.62 1.64h1.24l-.62-1.64ZM64.32 39.58h.32v.03c0 .32.24.53.61.53.33 0 .52-.18.52-.47 0-.36-.3-.39-.72-.51-.46-.13-.69-.35-.69-.74 0-.42.3-.73.79-.73.21 0 .37.08.52.24v-.18h.3v.66h-.3c-.07-.28-.24-.42-.51-.42-.29 0-.46.15-.46.4 0 .36.28.39.72.5.48.13.71.34.71.76 0 .48-.34.8-.88.8-.26 0-.45-.08-.61-.28v.21h-.31v-.81ZM66.54 39.58h.32v.03c0 .32.24.53.61.53.32 0 .52-.18.52-.47 0-.36-.3-.39-.72-.51-.46-.13-.69-.35-.69-.74 0-.42.3-.73.79-.73.22 0 .38.08.52.24v-.18h.3v.66h-.3c-.07-.28-.23-.42-.51-.42-.29 0-.46.15-.46.4 0 .36.28.39.72.5.48.13.71.34.71.76 0 .48-.34.8-.88.8-.26 0-.45-.08-.62-.28v.21h-.31v-.81ZM70.1 37.69c.78 0 1.37.63 1.37 1.36 0 .78-.59 1.41-1.35 1.41s-1.36-.65-1.36-1.38c0-.78.62-1.39 1.33-1.39Zm.02 2.45c.55 0 1-.45 1-1.07s-.44-1.06-1.02-1.06c-.5 0-.97.43-.97 1.07 0 .6.43 1.06 1 1.06ZM73.18 38.01c-.54 0-.97.45-.97 1.07s.43 1.05 1 1.05c.39 0 .72-.2.88-.57h.38c-.2.57-.65.89-1.25.89-.79 0-1.36-.64-1.36-1.37 0-.78.59-1.39 1.38-1.39.31 0 .56.09.8.3v-.22h.31v.8h-.26c-.21-.38-.5-.56-.91-.56ZM75.2 38.07h-.39v-.3h.71v2.31h.39v.3H74.8v-.3h.39v-2.02Zm0-1.15h.33v.58h-.33v-.58ZM79.16 40.09v.3h-.73v-.37c-.29.29-.59.43-.97.43-.8 0-1.37-.61-1.37-1.38s.55-1.36 1.34-1.36c.39 0 .73.14 1.01.43v-.36h.72v.3h-.39v2.01h.39Zm-1.71-2.08c-.53 0-1 .43-1 1.04 0 .64.48 1.08 1.01 1.08.5 0 .99-.47.99-1.04 0-.62-.49-1.08-1-1.08ZM79.95 38.07h-.4v-.3h.4v-.85h.33v.85h.4v.3h-.4v2.02h.4v.3h-.72v-2.32ZM81.55 38.07h-.38v-.3h.71v2.31h.39v.3h-1.1v-.3h.38v-2.02Zm0-1.15h.33v.58h-.33v-.58ZM83.88 37.69c.77 0 1.37.63 1.37 1.36 0 .78-.59 1.41-1.35 1.41s-1.36-.65-1.36-1.38c0-.78.63-1.39 1.33-1.39Zm.01 2.45c.55 0 1-.45 1-1.07s-.44-1.06-1.02-1.06c-.5 0-.97.43-.97 1.07 0 .6.43 1.06 1 1.06ZM85.95 38.07h-.38v-.3h.72v.39c.18-.3.44-.44.8-.44s.68.16.87.43c.17.24.19.49.19.79v1.15h.39v.3h-1.11v-.3h.39v-1.06c0-.23 0-.43-.07-.6-.11-.25-.34-.39-.66-.39-.54 0-.8.36-.8 1.08v.97h.39v.3h-1.1v-.3h.38v-2.02ZM90.72 38.07h-.35v-.3h.35v-.09c0-.55.25-.83.76-.83h.02v.32c-.33 0-.47.16-.47.51v.09h.46v.3h-.46v2.02h.43v.3h-1.14v-.3h.39v-2.02ZM93.17 37.69c.77 0 1.37.63 1.37 1.36 0 .78-.59 1.41-1.35 1.41s-1.36-.65-1.36-1.38c0-.78.63-1.39 1.33-1.39Zm.01 2.45c.55 0 1-.45 1-1.07s-.44-1.06-1.02-1.06c-.5 0-.97.43-.97 1.07 0 .6.43 1.06 1 1.06ZM95.24 38.07h-.38v-.3h.72v.44c.17-.34.47-.48.95-.48v.83h-.31v-.44c-.44.05-.64.42-.64 1.13v.84h.39v.3h-1.1v-.3h.38v-2.02ZM98.37 40.07h.39v-2.84h-.39v-.31h1.13c.67 0 1.05.39 1.05.92 0 .32-.12.55-.35.67.33.11.53.42.53.8 0 .36-.15.68-.4.87-.24.18-.49.2-.8.2h-1.17v-.32Zm.93-1.65c.56 0 .9-.11.9-.59 0-.38-.26-.57-.77-.57h-.34v1.16h.21Zm.28 1.64c.55 0 .82-.2.82-.65s-.28-.66-.83-.66h-.48v1.31h.48ZM102.7 40.44c-.37 0-.69-.15-.88-.43-.18-.25-.19-.49-.19-.78v-1.16h-.38v-.3h.71v1.36c0 .23 0 .43.07.6.11.25.34.39.66.39.54 0 .8-.36.8-1.08v-.97h-.39v-.3h.72v2.32h.39v.3h-.72V40a.87.87 0 0 1-.8.44ZM104.59 39.58h.32v.03c0 .32.24.53.61.53.33 0 .52-.18.52-.47 0-.36-.3-.39-.72-.51-.46-.13-.69-.35-.69-.74 0-.42.3-.73.79-.73.21 0 .38.08.52.24v-.18h.3v.66h-.3c-.07-.28-.24-.42-.51-.42-.29 0-.46.15-.46.4 0 .36.28.39.71.5.48.13.71.34.71.76 0 .48-.34.8-.88.8-.26 0-.45-.08-.61-.28v.21h-.31v-.81ZM107.23 38.07h-.38v-.3h.71v2.31h.39v.3h-1.1v-.3h.38v-2.02Zm0-1.15h.33v.58h-.33v-.58ZM108.74 38.07h-.38v-.3h.72v.39c.19-.3.44-.44.8-.44s.68.16.87.43c.17.24.19.49.19.79v1.15h.39v.3h-1.11v-.3h.39v-1.06c0-.23 0-.43-.07-.6-.11-.25-.34-.39-.66-.39-.54 0-.8.36-.8 1.08v.97h.4v.3h-1.11v-.3h.38v-2.02ZM111.92 39.19c.04.57.47.95 1 .95.38 0 .71-.2.89-.57h.38c-.24.58-.69.89-1.26.89-.79 0-1.36-.64-1.36-1.37 0-.78.62-1.39 1.33-1.39.76 0 1.36.57 1.36 1.45v.04h-2.35Zm1.01-1.18c-.52 0-.93.35-1 .89h1.98c-.12-.57-.48-.89-.98-.89ZM114.65 39.58h.32v.03c0 .32.24.53.61.53.33 0 .52-.18.52-.47 0-.36-.3-.39-.72-.51-.46-.13-.69-.35-.69-.74 0-.42.3-.73.8-.73.21 0 .38.08.52.24v-.18h.3v.66h-.3c-.07-.28-.24-.42-.51-.42-.29 0-.46.15-.46.4 0 .36.28.39.71.5.48.13.71.34.71.76 0 .48-.34.8-.88.8-.26 0-.45-.08-.62-.28v.21h-.31v-.81ZM116.88 39.58h.32v.03c0 .32.24.53.61.53.33 0 .52-.18.52-.47 0-.36-.3-.39-.72-.51-.46-.13-.69-.35-.69-.74 0-.42.3-.73.8-.73.21 0 .37.08.52.24v-.18h.3v.66h-.3c-.07-.28-.24-.42-.51-.42-.29 0-.46.15-.46.4 0 .36.28.39.72.5.48.13.71.34.71.76 0 .48-.34.8-.88.8-.26 0-.45-.08-.62-.28v.21h-.31v-.81ZM120.98 37.23h-.39v-.31h1.12v.31h-.39v2.84h.39v.32h-1.12v-.32h.39v-2.84ZM122.57 38.07h-.38v-.3h.71v.39c.19-.3.44-.44.81-.44s.68.16.87.43c.17.24.19.49.19.79v1.15h.39v.3h-1.11v-.3h.39v-1.06c0-.23 0-.43-.07-.6-.11-.25-.34-.39-.66-.39-.54 0-.8.36-.8 1.08v.97h.4v.3h-1.11v-.3h.38v-2.02ZM125.92 38.07h-.39v-.3h.72v.39c.19-.3.44-.44.8-.44s.68.16.87.43c.17.24.19.49.19.79v1.15h.39v.3h-1.11v-.3h.39v-1.06c0-.23 0-.43-.07-.6-.11-.25-.34-.39-.66-.39-.54 0-.8.36-.8 1.08v.97h.4v.3h-1.11v-.3h.39v-2.02ZM130.08 37.69c.77 0 1.37.63 1.37 1.36 0 .78-.59 1.41-1.35 1.41s-1.36-.65-1.36-1.38c0-.78.63-1.39 1.33-1.39Zm.02 2.45c.55 0 1-.45 1-1.07s-.44-1.06-1.02-1.06c-.5 0-.97.43-.97 1.07 0 .6.43 1.06 1 1.06ZM131.97 38.07h-.35v-.3h1.09v.3h-.39l.73 1.85.73-1.85h-.39v-.3h1.09v.3h-.36l-.92 2.32h-.31l-.92-2.32ZM137.73 40.09v.3h-.72v-.37c-.29.29-.6.43-.97.43-.8 0-1.37-.61-1.37-1.38s.55-1.36 1.34-1.36c.39 0 .73.14 1.01.43v-.36h.71v.3h-.38v2.01h.38Zm-1.71-2.08c-.53 0-1 .43-1 1.04 0 .64.48 1.08 1.01 1.08.5 0 .98-.47.98-1.04 0-.62-.49-1.08-1-1.08ZM138.52 38.07h-.4v-.3h.4v-.85h.33v.85h.4v.3h-.4v2.02h.39v.3h-.72v-2.32ZM140.12 38.07h-.39v-.3h.71v2.31h.39v.3h-1.11v-.3h.39v-2.02Zm0-1.15h.33v.58h-.33v-.58ZM142.45 37.69c.77 0 1.37.63 1.37 1.36 0 .78-.59 1.41-1.34 1.41s-1.36-.65-1.36-1.38c0-.78.62-1.39 1.33-1.39Zm.02 2.45c.55 0 1-.45 1-1.07s-.44-1.06-1.02-1.06c-.5 0-.97.43-.97 1.07 0 .6.43 1.06 1 1.06ZM144.52 38.07h-.39v-.3h.72v.39c.19-.3.44-.44.81-.44s.68.16.87.43c.17.24.19.49.19.79v1.15h.39v.3H146v-.3h.39v-1.06c0-.23 0-.43-.07-.6-.11-.25-.34-.39-.66-.39-.54 0-.81.36-.81 1.08v.97h.4v.3h-1.11v-.3h.39v-2.02ZM61.25 43.92h-.39v-.3h.71v2.32h.4v.3h-1.11v-.3h.39v-2.02Zm0-1.15h.33v.58h-.33v-.58ZM62.75 43.92h-.38v-.3h.72v.39c.19-.3.44-.44.8-.44s.68.16.87.43c.17.24.19.49.19.78v1.16h.39v.3h-1.11v-.3h.39v-1.06c0-.23 0-.43-.07-.6-.11-.25-.34-.39-.66-.39-.54 0-.8.36-.8 1.08v.97h.4v.3h-1.11v-.3h.38v-2.02ZM67.5 43.08h-.39v-.3h.72v1.24c.19-.3.44-.44.8-.44s.69.16.88.43c.18.25.18.5.18.78v1.16h.39v.3h-1.1v-.3h.38v-1.13c0-.2 0-.38-.07-.53-.11-.25-.34-.39-.66-.39-.54 0-.8.36-.8 1.08v.97h.39v.3h-1.11v-.3h.39v-2.86ZM73.3 45.94v.3h-.73v-.38c-.29.29-.59.43-.97.43-.8 0-1.37-.61-1.37-1.38s.55-1.37 1.34-1.37c.39 0 .73.14 1 .44v-.37h.72v.3h-.38v2.01h.38Zm-1.71-2.07c-.53 0-1.01.43-1.01 1.04 0 .64.48 1.08 1.01 1.08.5 0 .98-.47.98-1.04 0-.62-.49-1.08-.99-1.08ZM74.13 43.92h-.39v-.3h.72v.44c.17-.34.47-.48.95-.48v.83h-.31v-.44c-.44.05-.64.42-.64 1.13v.84h.39v.3h-1.11v-.3h.39v-2.02ZM76.2 43.92h-.38v-.3h.71v.39c.17-.3.41-.44.73-.44.4 0 .73.22.87.59.18-.39.45-.59.82-.59.33 0 .62.16.79.43.17.26.17.51.17.78v1.16h.39v.3h-1.11v-.3h.39v-1.07c0-.23 0-.42-.06-.58-.09-.25-.31-.39-.59-.39-.47 0-.71.36-.71 1.08v.97h.39v.3h-1.1v-.3h.39v-.97c0-.67-.08-1.08-.68-1.08-.45 0-.69.36-.69 1.08v.97h.39v.3h-1.1v-.3h.38v-2.02ZM81.88 43.54c.77 0 1.37.63 1.37 1.36 0 .77-.59 1.41-1.35 1.41s-1.36-.65-1.36-1.38c0-.79.63-1.4 1.33-1.4Zm.02 2.45c.55 0 1-.45 1-1.07s-.44-1.06-1.02-1.06c-.5 0-.97.43-.97 1.07 0 .6.43 1.06 1 1.06ZM83.95 43.92h-.39v-.3h.72v.39c.18-.3.44-.44.8-.44s.68.16.87.43c.17.24.19.49.19.78v1.16h.39v.3h-1.11v-.3h.39v-1.06c0-.23 0-.43-.07-.6-.11-.25-.34-.39-.66-.39-.54 0-.8.36-.8 1.08v.97h.39v.3h-1.11v-.3h.39v-2.02ZM87.02 43.92h-.36v-.3h1.1v.3h-.39l.73 1.85.73-1.85h-.39v-.3h1.09v.3h-.36l-1.14 2.86h.34v.31h-1.1v-.31h.41l.23-.57-.91-2.29ZM91.3 43.92h-.36v-.3h1.1v.3h-.39l.66 1.85.65-1.81h.21l.65 1.81.66-1.85h-.39v-.3h1.1v.3h-.37l-.84 2.32h-.33l-.59-1.64-.59 1.64h-.33l-.84-2.32ZM95.99 43.92h-.38v-.3h.71v2.32h.4v.3h-1.11v-.3h.38v-2.02Zm0-1.15h.33v.58h-.33v-.58ZM97.35 43.92h-.39v-.3h.39v-.85h.33v.85h.4v.3h-.4v2.02h.39v.3h-.72v-2.32ZM98.93 43.08h-.39v-.3h.72v1.24c.19-.3.44-.44.8-.44s.69.16.88.43c.18.25.18.5.18.78v1.16h.39v.3h-1.11v-.3h.39v-1.13c0-.2 0-.38-.07-.53-.11-.25-.34-.39-.66-.39-.54 0-.8.36-.8 1.08v.97h.39v.3h-1.11v-.3h.39v-2.86ZM106.01 43.08h-.39v-.31h1.12v.31h-.39v3.16h-.41l-1.86-2.94v2.63h.39v.32h-1.12v-.32h.39v-2.84h-.39v-.31h.8l1.86 2.94v-2.64ZM110.03 45.94v.3h-.73v-.38c-.29.29-.59.43-.97.43-.8 0-1.37-.61-1.37-1.38s.55-1.37 1.34-1.37c.39 0 .73.14 1 .44v-.37h.72v.3h-.38v2.01h.38Zm-1.71-2.07c-.53 0-1 .43-1 1.04 0 .64.48 1.08 1.01 1.08.5 0 .98-.47.98-1.04 0-.62-.49-1.08-.99-1.08ZM110.92 43.92h-.4v-.3h.4v-.85h.33v.85h.4v.3h-.4v2.02h.39v.3h-.72v-2.32ZM113.51 46.29c-.37 0-.69-.15-.88-.43-.18-.25-.19-.49-.19-.79v-1.15h-.38v-.3h.71v1.36c0 .24 0 .43.07.6.11.25.34.39.66.39.54 0 .8-.36.8-1.08v-.97h-.4v-.3h.72v2.32h.39v.3h-.72v-.39a.87.87 0 0 1-.8.44ZM115.82 43.92h-.39v-.3h.72v.44c.17-.34.47-.48.95-.48v.83h-.31v-.44c-.44.05-.64.42-.64 1.13v.84h.4v.3h-1.11v-.3h.39v-2.02ZM117.82 45.04c.04.57.47.95 1 .95.38 0 .71-.2.89-.57h.38c-.24.58-.69.89-1.26.89-.79 0-1.36-.64-1.36-1.37 0-.78.62-1.39 1.33-1.39.76 0 1.36.58 1.36 1.45v.04h-2.35Zm1-1.17c-.52 0-.93.35-.99.89h1.98c-.12-.57-.48-.89-.99-.89ZM125.04 45.94v.3h-.73v-.38c-.29.29-.59.43-.97.43-.8 0-1.37-.61-1.37-1.38s.55-1.37 1.34-1.37c.39 0 .73.14 1 .44v-.37h.72v.3h-.38v2.01h.38Zm-1.71-2.07c-.53 0-1.01.43-1.01 1.04 0 .64.48 1.08 1.01 1.08.5 0 .98-.47.98-1.04 0-.62-.49-1.08-.99-1.08ZM125.87 43.92h-.39v-.3h.72v.39c.19-.3.44-.44.8-.44s.68.16.87.43c.17.24.18.49.18.78v1.16h.39v.3h-1.11v-.3h.39v-1.06c0-.23 0-.43-.07-.6-.11-.25-.34-.39-.66-.39-.54 0-.8.36-.8 1.08v.97h.4v.3h-1.11v-.3h.39v-2.02ZM129.98 46.3c-.8 0-1.37-.61-1.37-1.38s.55-1.37 1.34-1.37c.39 0 .72.14 1 .44v-.91h-.39v-.3h.72v3.17h.39v.3h-.73v-.38c-.29.29-.59.43-.96.43Zm-.01-.31c.5 0 .98-.47.98-1.04 0-.62-.49-1.08-.99-1.08s-1.01.44-1.01 1.04c0 .64.48 1.08 1.01 1.08ZM136.35 42.77h.31v.87h-.23c-.34-.42-.7-.6-1.18-.6-.79 0-1.4.68-1.4 1.45 0 .86.65 1.49 1.4 1.49.48 0 .86-.2 1.15-.6h.42c-.4.64-.88.93-1.57.93-.99 0-1.76-.78-1.76-1.82 0-.48.19-.93.54-1.28.33-.33.75-.5 1.22-.5.41 0 .75.11 1.1.36v-.3ZM138.49 43.54c.78 0 1.37.63 1.37 1.36 0 .77-.59 1.41-1.35 1.41s-1.36-.65-1.36-1.38c0-.79.62-1.4 1.33-1.4Zm.02 2.45c.55 0 1-.45 1-1.07s-.44-1.06-1.02-1.06c-.5 0-.98.43-.98 1.07 0 .6.43 1.06 1 1.06ZM140.66 43.92h-.39v-.3h.71v.39c.17-.3.41-.44.73-.44.39 0 .73.22.87.59.18-.39.45-.59.82-.59.33 0 .62.16.79.43.17.26.17.51.17.78v1.16h.39v.3h-1.11v-.3h.39v-1.07c0-.23 0-.42-.06-.58-.09-.25-.31-.39-.59-.39-.47 0-.71.36-.71 1.08v.97h.39v.3h-1.11v-.3h.4v-.97c0-.67-.08-1.08-.68-1.08-.45 0-.69.36-.69 1.08v.97h.4v.3h-1.11v-.3h.39v-2.02ZM145.52 43.92h-.38v-.3h.71v.39c.16-.3.4-.44.73-.44.4 0 .73.22.87.59.18-.39.44-.59.82-.59.33 0 .62.16.79.43.17.26.17.51.17.78v1.16h.39v.3h-1.11v-.3h.39v-1.07c0-.23 0-.42-.06-.58-.09-.25-.31-.39-.59-.39-.47 0-.71.36-.71 1.08v.97h.39v.3h-1.11v-.3h.39v-.97c0-.67-.08-1.08-.68-1.08-.45 0-.69.36-.69 1.08v.97h.39v.3h-1.1v-.3h.38v-2.02ZM151.18 46.29c-.37 0-.69-.15-.88-.43-.18-.25-.19-.49-.19-.79v-1.15h-.39v-.3h.72v1.36c0 .24 0 .43.07.6.11.25.34.39.66.39.54 0 .8-.36.8-1.08v-.97h-.4v-.3h.72v2.32h.39v.3h-.71v-.39c-.19.3-.45.44-.81.44ZM153.49 43.92h-.38v-.3h.72v.39c.18-.3.44-.44.8-.44s.68.16.87.43c.17.24.19.49.19.78v1.16h.39v.3h-1.11v-.3h.39v-1.06c0-.23 0-.43-.07-.6-.11-.25-.34-.39-.66-.39-.54 0-.8.36-.8 1.08v.97h.39v.3h-1.1v-.3h.38v-2.02ZM156.74 43.92h-.38v-.3h.71v2.32h.39v.3h-1.1v-.3h.38v-2.02Zm0-1.15h.33v.58h-.33v-.58ZM158.01 43.92h-.4v-.3h.4v-.85h.33v.85h.4v.3h-.4v2.02h.4v.3h-.72v-2.32ZM159.43 43.92h-.36v-.3h1.1v.3h-.39l.73 1.85.73-1.85h-.39v-.3h1.09v.3h-.36l-1.14 2.86h.34v.31h-1.1v-.31h.41l.23-.57-.91-2.29Z" class="cls-2"/></g></svg>