<svg xmlns="http://www.w3.org/2000/svg" id="_レイヤー_2" data-name="レイヤー 2" viewBox="0 0 784.76 55.98"><defs><style>.cls-2{stroke-width:0;fill:#231815}</style></defs><g id="_レイヤー_1-2" data-name="レイヤー 1"><path d="M49.02 27.89C48.99 22.6 46.99 17.3 43 13.24c-3.99-4.06-9.32-6.3-15.02-6.3s-10.79 2.14-14.75 6.04c-4.17 4.1-6.26 9.51-6.28 14.94v.27C7 33.45 9 38.71 12.97 42.75c3.99 4.06 9.32 6.3 15.02 6.3s10.79-2.14 14.75-6.04c4.15-4.08 6.25-9.46 6.29-14.86v-.26ZM27.99 8.38c3.16 0 6.2.75 8.93 2.14 0 0-.2.34-1.07 1.99-.87 1.65-1.59 2.09-3.46 2.09h-9.05c-2.4 0-2.87-.7-3.54-1.87-.67-1.17-1.14-2-1.14-2 2.83-1.53 6.02-2.35 9.33-2.35ZM17.55 44.59A19.7 19.7 0 0 1 14 41.73a19.547 19.547 0 0 1-5.6-12.98h2.31c1.53 0 1.9 0 2.79 1.55.89 1.54 4.07 7.08 4.97 8.61.9 1.54.68 2.86.16 3.78-.52.92-1.08 1.9-1.08 1.9Zm24.18-2.61a19.304 19.304 0 0 1-3.68 2.85s-.11-.2-1.19-2.21c-1.08-2.01-.69-2.38.2-3.93l4.75-8.22c.85-1.47 1.5-1.72 3.25-1.72h2.52c-.19 4.82-2.13 9.58-5.84 13.22Zm3.59-14.67c-2.21 0-2.93-.71-3.88-2.35-.43-.75-1.22-2.1-2.02-3.5l-1.06.66-.16.1-7.75 5.08s-.84.52-.84.53c-.79.5-.86.75-.86 1.69v11.93h3.57c2.25 0 2.63.65 3.3 1.88.67 1.23 1.18 2.18 1.18 2.18a19.52 19.52 0 0 1-8.8 2.08c-3.26 0-6.4-.79-9.2-2.28 0 0 .05-.02 1.08-1.9 1.03-1.87 1.45-1.96 3.13-1.96h4.31V29.71c0-.74-.23-1.48-.89-1.9l-.83-.52-8.4-5.06-.13-.08-1.12-.71c-.89 1.52-1.74 3-2.16 3.82-.89 1.72-1.86 2.02-3.3 2.02H8.42a19.49 19.49 0 0 1 5.84-13.31c.98-.97 2.05-1.81 3.18-2.54 0 0 .3.54 1.07 1.86.77 1.33 1.04 2-.02 3.83-.41.72-1.09 1.86-1.81 3.08l1.12.7.13.08 8.08 4.86s1.02.64 1.05.65c.8.5 1.49.31 2.22-.15l1.01-.64 7.21-4.74.16-.1 1.05-.66c-.7-1.21-1.35-2.33-1.73-3.01-.95-1.68-.54-2.73.17-4.06.71-1.32 1.04-1.93 1.04-1.93 1.37.83 2.64 1.85 3.8 3.02 3.58 3.64 5.44 8.33 5.6 13.07h-2.26Z" style="fill:#6a3906;stroke-width:0"/><path d="M27.99 52.74c-13.65 0-24.76-11.11-24.76-24.76S14.34 3.23 27.99 3.23s24.76 11.11 24.76 24.76-11.11 24.76-24.76 24.76Zm0-48.07c-12.86 0-23.32 10.46-23.32 23.32s10.46 23.32 23.32 23.32 23.32-10.46 23.32-23.32S40.85 4.67 27.99 4.67Z" style="stroke-width:0;fill:#2ca6e0"/><path d="M27.99 55.98C12.56 55.98 0 43.42 0 27.99S12.56 0 27.99 0s27.99 12.56 27.99 27.99-12.56 27.99-27.99 27.99Zm0-54.54c-14.64 0-26.55 11.91-26.55 26.55s11.91 26.55 26.55 26.55 26.55-11.91 26.55-26.55S42.63 1.44 27.99 1.44Z" style="fill:#8dc21f;stroke-width:0"/><path d="M99.08 20.55c1.78-1.08 2.87-2.96 2.87-5.05 0-1.96-.83-3.62-2.39-4.81-1.46-1.1-3.17-1.19-4.66-1.19h-9.84v2.68h2.96v18.43h-3.73L75.24 9.66l-.07-.16h-6.54v2.68h2.95l-8.2 18.43h-2.99v2.68h8.84v-2.68h-2.79l2.14-4.81h10.44l2.08 4.81h-2.89v2.68h17.27c1.93 0 3.81-.13 5.46-1.64 1.34-1.24 2.1-3.03 2.1-4.92 0-2.8-1.47-5.07-3.98-6.19Zm-1.28-1.89c-.99.82-1.91.88-3.31.88h-3.58v-7.35h4.18c.91 0 1.79.04 2.57.6.92.66 1.42 1.71 1.42 2.98s-.43 2.19-1.27 2.89Zm-6.89 3.43h3.48c1.46 0 2.85 0 4.05.83 1.09.77 1.74 2.09 1.74 3.53 0 .58-.11 2.55-1.48 3.43-1.14.74-2.56.74-4.06.74H90.9V22.1ZM73.86 13.1l4.26 10.25h-8.61l4.35-10.25ZM103.63 12.19h2.97v18.43h-2.97v2.68h8.81v-2.68h-2.96V12.19h2.96V9.51h-8.81v2.68zM139.51 9.51h-8.8v2.68h2.96v16.3L120.13 9.51h-5.75v2.68h2.97v18.43h-2.97v2.68h8.84v-2.68h-2.99v-16.2l13.5 18.88h2.82V12.19h2.96V9.51zM159.15 26.68l-.08.11c-1.84 2.6-4.73 4.09-7.93 4.09-5.23 0-9.47-4.34-9.47-9.67s4.19-9.44 9.54-9.44c3.24 0 6.23 1.46 7.79 3.82l.08.12h2.56v-6.2h-2.68v2.34c-1.97-1.92-4.71-2.96-7.78-2.96-3.39 0-6.55 1.25-8.66 3.44-2.44 2.54-3.72 5.61-3.72 8.88 0 3.44 1.29 6.61 3.63 8.92 2.34 2.31 5.54 3.63 8.79 3.63 4.67 0 8.96-2.63 10.93-6.7l.19-.38h-3.17ZM61.63 40.07v.32h-1.12v-.32h.39l1.11-2.84h-.39v-.31h.92l1.21 3.15h.39v.32h-1.12v-.32h.35l-.29-.77h-1.51l-.29.77h.35Zm.69-2.75-.62 1.64h1.24l-.62-1.64ZM64.32 39.58h.32v.03c0 .32.24.53.61.53.33 0 .52-.18.52-.47 0-.36-.3-.39-.72-.51-.46-.13-.69-.35-.69-.74 0-.42.3-.73.79-.73.21 0 .37.08.52.24v-.18h.3v.66h-.3c-.07-.28-.24-.42-.51-.42-.29 0-.46.15-.46.4 0 .36.28.39.72.5.48.13.71.34.71.76 0 .48-.34.8-.88.8-.26 0-.45-.08-.61-.28v.21h-.31v-.81ZM66.54 39.58h.32v.03c0 .32.24.53.61.53.32 0 .52-.18.52-.47 0-.36-.3-.39-.72-.51-.46-.13-.69-.35-.69-.74 0-.42.3-.73.79-.73.22 0 .38.08.52.24v-.18h.3v.66h-.3c-.07-.28-.23-.42-.51-.42-.29 0-.46.15-.46.4 0 .36.28.39.72.5.48.13.71.34.71.76 0 .48-.34.8-.88.8-.26 0-.45-.08-.62-.28v.21h-.31v-.81ZM70.1 37.69c.78 0 1.37.63 1.37 1.36 0 .78-.59 1.41-1.35 1.41s-1.36-.65-1.36-1.38c0-.78.62-1.39 1.33-1.39Zm.02 2.45c.55 0 1-.45 1-1.07s-.44-1.06-1.02-1.06c-.5 0-.97.43-.97 1.07 0 .6.43 1.06 1 1.06ZM73.18 38.01c-.54 0-.97.45-.97 1.07s.43 1.05 1 1.05c.39 0 .72-.2.88-.57h.38c-.2.57-.65.89-1.25.89-.79 0-1.36-.64-1.36-1.37 0-.78.59-1.39 1.38-1.39.31 0 .56.09.8.3v-.22h.31v.8h-.26c-.21-.38-.5-.56-.91-.56ZM75.2 38.07h-.39v-.3h.71v2.31h.39v.3H74.8v-.3h.39v-2.02Zm0-1.15h.33v.58h-.33v-.58ZM79.16 40.09v.3h-.73v-.37c-.29.29-.59.43-.97.43-.8 0-1.37-.61-1.37-1.38s.55-1.36 1.34-1.36c.39 0 .73.14 1.01.43v-.36h.72v.3h-.39v2.01h.39Zm-1.71-2.08c-.53 0-1 .43-1 1.04 0 .64.48 1.08 1.01 1.08.5 0 .99-.47.99-1.04 0-.62-.49-1.08-1-1.08ZM79.95 38.07h-.4v-.3h.4v-.85h.33v.85h.4v.3h-.4v2.02h.4v.3h-.72v-2.32ZM81.55 38.07h-.38v-.3h.71v2.31h.39v.3h-1.1v-.3h.38v-2.02Zm0-1.15h.33v.58h-.33v-.58ZM83.88 37.69c.77 0 1.37.63 1.37 1.36 0 .78-.59 1.41-1.35 1.41s-1.36-.65-1.36-1.38c0-.78.63-1.39 1.33-1.39Zm.01 2.45c.55 0 1-.45 1-1.07s-.44-1.06-1.02-1.06c-.5 0-.97.43-.97 1.07 0 .6.43 1.06 1 1.06ZM85.95 38.07h-.38v-.3h.72v.39c.18-.3.44-.44.8-.44s.68.16.87.43c.17.24.19.49.19.79v1.15h.39v.3h-1.11v-.3h.39v-1.06c0-.23 0-.43-.07-.6-.11-.25-.34-.39-.66-.39-.54 0-.8.36-.8 1.08v.97h.39v.3h-1.1v-.3h.38v-2.02ZM90.72 38.07h-.35v-.3h.35v-.09c0-.55.25-.83.76-.83h.02v.32c-.33 0-.47.16-.47.51v.09h.46v.3h-.46v2.02h.43v.3h-1.14v-.3h.39v-2.02ZM93.17 37.69c.77 0 1.37.63 1.37 1.36 0 .78-.59 1.41-1.35 1.41s-1.36-.65-1.36-1.38c0-.78.63-1.39 1.33-1.39Zm.01 2.45c.55 0 1-.45 1-1.07s-.44-1.06-1.02-1.06c-.5 0-.97.43-.97 1.07 0 .6.43 1.06 1 1.06ZM95.24 38.07h-.38v-.3h.72v.44c.17-.34.47-.48.95-.48v.83h-.31v-.44c-.44.05-.64.42-.64 1.13v.84h.39v.3h-1.1v-.3h.38v-2.02ZM98.37 40.07h.39v-2.84h-.39v-.31h1.13c.67 0 1.05.39 1.05.92 0 .32-.12.55-.35.67.33.11.53.42.53.8 0 .36-.15.68-.4.87-.24.18-.49.2-.8.2h-1.17v-.32Zm.93-1.65c.56 0 .9-.11.9-.59 0-.38-.26-.57-.77-.57h-.34v1.16h.21Zm.28 1.64c.55 0 .82-.2.82-.65s-.28-.66-.83-.66h-.48v1.31h.48ZM102.7 40.44c-.37 0-.69-.15-.88-.43-.18-.25-.19-.49-.19-.78v-1.16h-.38v-.3h.71v1.36c0 .23 0 .43.07.6.11.25.34.39.66.39.54 0 .8-.36.8-1.08v-.97h-.39v-.3h.72v2.32h.39v.3h-.72V40a.87.87 0 0 1-.8.44ZM104.59 39.58h.32v.03c0 .32.24.53.61.53.33 0 .52-.18.52-.47 0-.36-.3-.39-.72-.51-.46-.13-.69-.35-.69-.74 0-.42.3-.73.79-.73.21 0 .38.08.52.24v-.18h.3v.66h-.3c-.07-.28-.24-.42-.51-.42-.29 0-.46.15-.46.4 0 .36.28.39.71.5.48.13.71.34.71.76 0 .48-.34.8-.88.8-.26 0-.45-.08-.61-.28v.21h-.31v-.81ZM107.23 38.07h-.38v-.3h.71v2.31h.39v.3h-1.1v-.3h.38v-2.02Zm0-1.15h.33v.58h-.33v-.58ZM108.74 38.07h-.38v-.3h.72v.39c.19-.3.44-.44.8-.44s.68.16.87.43c.17.24.19.49.19.79v1.15h.39v.3h-1.11v-.3h.39v-1.06c0-.23 0-.43-.07-.6-.11-.25-.34-.39-.66-.39-.54 0-.8.36-.8 1.08v.97h.4v.3h-1.11v-.3h.38v-2.02ZM111.92 39.19c.04.57.47.95 1 .95.38 0 .71-.2.89-.57h.38c-.24.58-.69.89-1.26.89-.79 0-1.36-.64-1.36-1.37 0-.78.62-1.39 1.33-1.39.76 0 1.36.57 1.36 1.45v.04h-2.35Zm1.01-1.18c-.52 0-.93.35-1 .89h1.98c-.12-.57-.48-.89-.98-.89ZM114.65 39.58h.32v.03c0 .32.24.53.61.53.33 0 .52-.18.52-.47 0-.36-.3-.39-.72-.51-.46-.13-.69-.35-.69-.74 0-.42.3-.73.8-.73.21 0 .38.08.52.24v-.18h.3v.66h-.3c-.07-.28-.24-.42-.51-.42-.29 0-.46.15-.46.4 0 .36.28.39.71.5.48.13.71.34.71.76 0 .48-.34.8-.88.8-.26 0-.45-.08-.62-.28v.21h-.31v-.81ZM116.88 39.58h.32v.03c0 .32.24.53.61.53.33 0 .52-.18.52-.47 0-.36-.3-.39-.72-.51-.46-.13-.69-.35-.69-.74 0-.42.3-.73.8-.73.21 0 .37.08.52.24v-.18h.3v.66h-.3c-.07-.28-.24-.42-.51-.42-.29 0-.46.15-.46.4 0 .36.28.39.72.5.48.13.71.34.71.76 0 .48-.34.8-.88.8-.26 0-.45-.08-.62-.28v.21h-.31v-.81ZM120.98 37.23h-.39v-.31h1.12v.31h-.39v2.84h.39v.32h-1.12v-.32h.39v-2.84ZM122.57 38.07h-.38v-.3h.71v.39c.19-.3.44-.44.81-.44s.68.16.87.43c.17.24.19.49.19.79v1.15h.39v.3h-1.11v-.3h.39v-1.06c0-.23 0-.43-.07-.6-.11-.25-.34-.39-.66-.39-.54 0-.8.36-.8 1.08v.97h.4v.3h-1.11v-.3h.38v-2.02ZM125.92 38.07h-.39v-.3h.72v.39c.19-.3.44-.44.8-.44s.68.16.87.43c.17.24.19.49.19.79v1.15h.39v.3h-1.11v-.3h.39v-1.06c0-.23 0-.43-.07-.6-.11-.25-.34-.39-.66-.39-.54 0-.8.36-.8 1.08v.97h.4v.3h-1.11v-.3h.39v-2.02ZM130.08 37.69c.77 0 1.37.63 1.37 1.36 0 .78-.59 1.41-1.35 1.41s-1.36-.65-1.36-1.38c0-.78.63-1.39 1.33-1.39Zm.02 2.45c.55 0 1-.45 1-1.07s-.44-1.06-1.02-1.06c-.5 0-.97.43-.97 1.07 0 .6.43 1.06 1 1.06ZM131.97 38.07h-.35v-.3h1.09v.3h-.39l.73 1.85.73-1.85h-.39v-.3h1.09v.3h-.36l-.92 2.32h-.31l-.92-2.32ZM137.73 40.09v.3h-.72v-.37c-.29.29-.6.43-.97.43-.8 0-1.37-.61-1.37-1.38s.55-1.36 1.34-1.36c.39 0 .73.14 1.01.43v-.36h.71v.3h-.38v2.01h.38Zm-1.71-2.08c-.53 0-1 .43-1 1.04 0 .64.48 1.08 1.01 1.08.5 0 .98-.47.98-1.04 0-.62-.49-1.08-1-1.08ZM138.52 38.07h-.4v-.3h.4v-.85h.33v.85h.4v.3h-.4v2.02h.39v.3h-.72v-2.32ZM140.12 38.07h-.39v-.3h.71v2.31h.39v.3h-1.11v-.3h.39v-2.02Zm0-1.15h.33v.58h-.33v-.58ZM142.45 37.69c.77 0 1.37.63 1.37 1.36 0 .78-.59 1.41-1.34 1.41s-1.36-.65-1.36-1.38c0-.78.62-1.39 1.33-1.39Zm.02 2.45c.55 0 1-.45 1-1.07s-.44-1.06-1.02-1.06c-.5 0-.97.43-.97 1.07 0 .6.43 1.06 1 1.06ZM144.52 38.07h-.39v-.3h.72v.39c.19-.3.44-.44.81-.44s.68.16.87.43c.17.24.19.49.19.79v1.15h.39v.3H146v-.3h.39v-1.06c0-.23 0-.43-.07-.6-.11-.25-.34-.39-.66-.39-.54 0-.81.36-.81 1.08v.97h.4v.3h-1.11v-.3h.39v-2.02ZM61.25 43.92h-.39v-.3h.71v2.32h.4v.3h-1.11v-.3h.39v-2.02Zm0-1.15h.33v.58h-.33v-.58ZM62.75 43.92h-.38v-.3h.72v.39c.19-.3.44-.44.8-.44s.68.16.87.43c.17.24.19.49.19.78v1.16h.39v.3h-1.11v-.3h.39v-1.06c0-.23 0-.43-.07-.6-.11-.25-.34-.39-.66-.39-.54 0-.8.36-.8 1.08v.97h.4v.3h-1.11v-.3h.38v-2.02ZM67.5 43.08h-.39v-.3h.72v1.24c.19-.3.44-.44.8-.44s.69.16.88.43c.18.25.18.5.18.78v1.16h.39v.3h-1.1v-.3h.38v-1.13c0-.2 0-.38-.07-.53-.11-.25-.34-.39-.66-.39-.54 0-.8.36-.8 1.08v.97h.39v.3h-1.11v-.3h.39v-2.86ZM73.3 45.94v.3h-.73v-.38c-.29.29-.59.43-.97.43-.8 0-1.37-.61-1.37-1.38s.55-1.37 1.34-1.37c.39 0 .73.14 1 .44v-.37h.72v.3h-.38v2.01h.38Zm-1.71-2.07c-.53 0-1.01.43-1.01 1.04 0 .64.48 1.08 1.01 1.08.5 0 .98-.47.98-1.04 0-.62-.49-1.08-.99-1.08ZM74.13 43.92h-.39v-.3h.72v.44c.17-.34.47-.48.95-.48v.83h-.31v-.44c-.44.05-.64.42-.64 1.13v.84h.39v.3h-1.11v-.3h.39v-2.02ZM76.2 43.92h-.38v-.3h.71v.39c.17-.3.41-.44.73-.44.4 0 .73.22.87.59.18-.39.45-.59.82-.59.33 0 .62.16.79.43.17.26.17.51.17.78v1.16h.39v.3h-1.11v-.3h.39v-1.07c0-.23 0-.42-.06-.58-.09-.25-.31-.39-.59-.39-.47 0-.71.36-.71 1.08v.97h.39v.3h-1.1v-.3h.39v-.97c0-.67-.08-1.08-.68-1.08-.45 0-.69.36-.69 1.08v.97h.39v.3h-1.1v-.3h.38v-2.02ZM81.88 43.54c.77 0 1.37.63 1.37 1.36 0 .77-.59 1.41-1.35 1.41s-1.36-.65-1.36-1.38c0-.79.63-1.4 1.33-1.4Zm.02 2.45c.55 0 1-.45 1-1.07s-.44-1.06-1.02-1.06c-.5 0-.97.43-.97 1.07 0 .6.43 1.06 1 1.06ZM83.95 43.92h-.39v-.3h.72v.39c.18-.3.44-.44.8-.44s.68.16.87.43c.17.24.19.49.19.78v1.16h.39v.3h-1.11v-.3h.39v-1.06c0-.23 0-.43-.07-.6-.11-.25-.34-.39-.66-.39-.54 0-.8.36-.8 1.08v.97h.39v.3h-1.11v-.3h.39v-2.02ZM87.02 43.92h-.36v-.3h1.1v.3h-.39l.73 1.85.73-1.85h-.39v-.3h1.09v.3h-.36l-1.14 2.86h.34v.31h-1.1v-.31h.41l.23-.57-.91-2.29ZM91.3 43.92h-.36v-.3h1.1v.3h-.39l.66 1.85.65-1.81h.21l.65 1.81.66-1.85h-.39v-.3h1.1v.3h-.37l-.84 2.32h-.33l-.59-1.64-.59 1.64h-.33l-.84-2.32ZM95.99 43.92h-.38v-.3h.71v2.32h.4v.3h-1.11v-.3h.38v-2.02Zm0-1.15h.33v.58h-.33v-.58ZM97.35 43.92h-.39v-.3h.39v-.85h.33v.85h.4v.3h-.4v2.02h.39v.3h-.72v-2.32ZM98.93 43.08h-.39v-.3h.72v1.24c.19-.3.44-.44.8-.44s.69.16.88.43c.18.25.18.5.18.78v1.16h.39v.3h-1.11v-.3h.39v-1.13c0-.2 0-.38-.07-.53-.11-.25-.34-.39-.66-.39-.54 0-.8.36-.8 1.08v.97h.39v.3h-1.11v-.3h.39v-2.86ZM106.01 43.08h-.39v-.31h1.12v.31h-.39v3.16h-.41l-1.86-2.94v2.63h.39v.32h-1.12v-.32h.39v-2.84h-.39v-.31h.8l1.86 2.94v-2.64ZM110.03 45.94v.3h-.73v-.38c-.29.29-.59.43-.97.43-.8 0-1.37-.61-1.37-1.38s.55-1.37 1.34-1.37c.39 0 .73.14 1 .44v-.37h.72v.3h-.38v2.01h.38Zm-1.71-2.07c-.53 0-1 .43-1 1.04 0 .64.48 1.08 1.01 1.08.5 0 .98-.47.98-1.04 0-.62-.49-1.08-.99-1.08ZM110.92 43.92h-.4v-.3h.4v-.85h.33v.85h.4v.3h-.4v2.02h.39v.3h-.72v-2.32ZM113.51 46.29c-.37 0-.69-.15-.88-.43-.18-.25-.19-.49-.19-.79v-1.15h-.38v-.3h.71v1.36c0 .24 0 .43.07.6.11.25.34.39.66.39.54 0 .8-.36.8-1.08v-.97h-.4v-.3h.72v2.32h.39v.3h-.72v-.39a.87.87 0 0 1-.8.44ZM115.82 43.92h-.39v-.3h.72v.44c.17-.34.47-.48.95-.48v.83h-.31v-.44c-.44.05-.64.42-.64 1.13v.84h.4v.3h-1.11v-.3h.39v-2.02ZM117.82 45.04c.04.57.47.95 1 .95.38 0 .71-.2.89-.57h.38c-.24.58-.69.89-1.26.89-.79 0-1.36-.64-1.36-1.37 0-.78.62-1.39 1.33-1.39.76 0 1.36.58 1.36 1.45v.04h-2.35Zm1-1.17c-.52 0-.93.35-.99.89h1.98c-.12-.57-.48-.89-.99-.89ZM125.04 45.94v.3h-.73v-.38c-.29.29-.59.43-.97.43-.8 0-1.37-.61-1.37-1.38s.55-1.37 1.34-1.37c.39 0 .73.14 1 .44v-.37h.72v.3h-.38v2.01h.38Zm-1.71-2.07c-.53 0-1.01.43-1.01 1.04 0 .64.48 1.08 1.01 1.08.5 0 .98-.47.98-1.04 0-.62-.49-1.08-.99-1.08ZM125.87 43.92h-.39v-.3h.72v.39c.19-.3.44-.44.8-.44s.68.16.87.43c.17.24.18.49.18.78v1.16h.39v.3h-1.11v-.3h.39v-1.06c0-.23 0-.43-.07-.6-.11-.25-.34-.39-.66-.39-.54 0-.8.36-.8 1.08v.97h.4v.3h-1.11v-.3h.39v-2.02ZM129.98 46.3c-.8 0-1.37-.61-1.37-1.38s.55-1.37 1.34-1.37c.39 0 .72.14 1 .44v-.91h-.39v-.3h.72v3.17h.39v.3h-.73v-.38c-.29.29-.59.43-.96.43Zm-.01-.31c.5 0 .98-.47.98-1.04 0-.62-.49-1.08-.99-1.08s-1.01.44-1.01 1.04c0 .64.48 1.08 1.01 1.08ZM136.35 42.77h.31v.87h-.23c-.34-.42-.7-.6-1.18-.6-.79 0-1.4.68-1.4 1.45 0 .86.65 1.49 1.4 1.49.48 0 .86-.2 1.15-.6h.42c-.4.64-.88.93-1.57.93-.99 0-1.76-.78-1.76-1.82 0-.48.19-.93.54-1.28.33-.33.75-.5 1.22-.5.41 0 .75.11 1.1.36v-.3ZM138.49 43.54c.78 0 1.37.63 1.37 1.36 0 .77-.59 1.41-1.35 1.41s-1.36-.65-1.36-1.38c0-.79.62-1.4 1.33-1.4Zm.02 2.45c.55 0 1-.45 1-1.07s-.44-1.06-1.02-1.06c-.5 0-.98.43-.98 1.07 0 .6.43 1.06 1 1.06ZM140.66 43.92h-.39v-.3h.71v.39c.17-.3.41-.44.73-.44.39 0 .73.22.87.59.18-.39.45-.59.82-.59.33 0 .62.16.79.43.17.26.17.51.17.78v1.16h.39v.3h-1.11v-.3h.39v-1.07c0-.23 0-.42-.06-.58-.09-.25-.31-.39-.59-.39-.47 0-.71.36-.71 1.08v.97h.39v.3h-1.11v-.3h.4v-.97c0-.67-.08-1.08-.68-1.08-.45 0-.69.36-.69 1.08v.97h.4v.3h-1.11v-.3h.39v-2.02ZM145.52 43.92h-.38v-.3h.71v.39c.16-.3.4-.44.73-.44.4 0 .73.22.87.59.18-.39.44-.59.82-.59.33 0 .62.16.79.43.17.26.17.51.17.78v1.16h.39v.3h-1.11v-.3h.39v-1.07c0-.23 0-.42-.06-.58-.09-.25-.31-.39-.59-.39-.47 0-.71.36-.71 1.08v.97h.39v.3h-1.11v-.3h.39v-.97c0-.67-.08-1.08-.68-1.08-.45 0-.69.36-.69 1.08v.97h.39v.3h-1.1v-.3h.38v-2.02ZM151.18 46.29c-.37 0-.69-.15-.88-.43-.18-.25-.19-.49-.19-.79v-1.15h-.39v-.3h.72v1.36c0 .24 0 .43.07.6.11.25.34.39.66.39.54 0 .8-.36.8-1.08v-.97h-.4v-.3h.72v2.32h.39v.3h-.71v-.39c-.19.3-.45.44-.81.44ZM153.49 43.92h-.38v-.3h.72v.39c.18-.3.44-.44.8-.44s.68.16.87.43c.17.24.19.49.19.78v1.16h.39v.3h-1.11v-.3h.39v-1.06c0-.23 0-.43-.07-.6-.11-.25-.34-.39-.66-.39-.54 0-.8.36-.8 1.08v.97h.39v.3h-1.1v-.3h.38v-2.02ZM156.74 43.92h-.38v-.3h.71v2.32h.39v.3h-1.1v-.3h.38v-2.02Zm0-1.15h.33v.58h-.33v-.58ZM158.01 43.92h-.4v-.3h.4v-.85h.33v.85h.4v.3h-.4v2.02h.4v.3h-.72v-2.32ZM159.43 43.92h-.36v-.3h1.1v.3h-.39l.73 1.85.73-1.85h-.39v-.3h1.09v.3h-.36l-1.14 2.86h.34v.31h-1.1v-.31h.41l.23-.57-.91-2.29ZM186.49 21.69h29.12v4.1h-29.12v-4.1ZM233.37 24.76l-1.44.19v10.52c0 2.85-1.16 3.35-4.98 3.35-.09-.81-.5-2.16-.91-2.94 1.03.03 2.07.03 2.38.03.38 0 .47-.13.47-.5V25.36l-4.48.56c-.06 4.16-.5 9.49-2.63 12.87-.53-.5-1.82-1.35-2.54-1.66 1.85-3.01 2.16-7.23 2.22-10.86l-.66.09c-.06.28-.28.41-.5.47l-1.07-3.35 2.22-.19v-9.74h2.79c.38-1.35.78-3.04.94-4.32l4.32 1.03c-.06.22-.34.38-.78.38-.31.85-.75 1.94-1.22 2.91h4.42v8.7l1.35-.16.09 2.66Zm-8.95-8.3V23c1.41-.13 2.94-.28 4.48-.44v-6.11h-4.48Zm1.72 5.6c-.16-1.1-.72-2.76-1.41-4.01l2.19-.88c.75 1.19 1.41 2.82 1.6 3.91l-2.38.97Zm2.09 4.45c-.03.25-.19.38-.63.44v6.64h-2.16v-7.23l2.79.16Zm17.07-3.13 2.25.78c-.03.25-.16.34-.31.5-.84 3.44-2.32 6.23-4.29 8.52 1.75 1.16 3.88 2.04 6.36 2.54-.75.75-1.75 2.16-2.22 3.13-2.66-.72-4.85-1.78-6.7-3.26-1.79 1.38-3.85 2.47-6.14 3.26-.41-.91-1.28-2.35-2-3.1 2.07-.59 3.95-1.5 5.57-2.72-1.25-1.6-2.29-3.44-3.1-5.57l2.79-.66h-3.57v-3.32h10.74l.63-.09Zm-6.89-9.71v1.16c0 2.76-.5 6.2-3.13 8.36-.5-.63-1.94-1.72-2.66-2.16 2.25-1.78 2.47-4.2 2.47-6.26v-4.35h10.05v7.08c0 .97 0 1.1.38 1.1.72 0 .81 0 .91-.09.25-.19.31-.66.38-3.32.6.53 1.79 1.13 2.69 1.44-.25 3.22-.34 4.85-3.23 4.85h-1.66c-2.85 0-2.85-2.22-2.85-3.95v-3.85h-3.35Zm-.63 13.12c.6 1.5 1.44 2.85 2.47 4.04 1.03-1.19 1.91-2.54 2.54-4.04h-5.01ZM265.06 16.33c-.09.22-.28.38-.53.47-.94 2.44-2.29 4.85-3.88 7.05 1.53 1.06 4.13 2.97 4.85 3.54l-2.19 3.1c-.72-.88-1.94-2.1-3.13-3.19v11.55h-3.73V28.67a23.862 23.862 0 0 1-3.76 2.94c-.31-.97-1.22-2.82-1.82-3.54 3.6-2 7.04-5.6 9.14-9.58h-8.17v-3.38h4.6V9.29l4.57.25c-.03.31-.28.5-.85.59v4.98h1.85l.56-.16 2.47 1.38Zm9.43 17.88h6.73v3.69h-17.91v-3.69h7.29V22.66h-6.01v-3.63h6.01V9.57l4.73.28c-.03.31-.28.5-.85.59v8.58h5.98v3.63h-5.98V34.2ZM284.67 10.64h26.96v28.15h-3.91v-1.32H288.4v1.32h-3.73V10.64Zm3.72 23.23h19.32V14.24h-19.32v19.63Zm18.35-15.34v3.19h-3.63v7.8c0 2.88-.97 3.63-6.45 3.57-.12-.91-.56-2.25-1-3.16 1.38.06 2.94.06 3.38.06s.59-.13.59-.53v-7.73h-10.05v-3.19h10.05v-3.51l4.26.16c-.03.31-.22.5-.78.59v2.76h3.63Zm-12.36 10.61c-.5-1.47-1.91-3.69-3.29-5.29l2.6-1.44c1.41 1.57 2.91 3.66 3.51 5.17l-2.82 1.57ZM316.55 17.9c2.04.69 4.73 1.91 6.11 2.94l-2.1 3.16c-1.25-1.06-3.88-2.47-5.95-3.26l1.94-2.85Zm-1.07 18.07c1.57-2.38 3.82-6.29 5.57-9.93 2.72 2.32 2.79 2.35 2.82 2.38-1.5 3.29-3.29 6.7-4.76 9.11.16.19.22.41.22.59s-.06.38-.19.53l-3.66-2.69Zm2.98-26.59c2.04.78 4.7 2.13 6.04 3.23l-2.19 3.07c-1.25-1.13-3.85-2.63-5.92-3.51l2.07-2.79Zm25.64 12.5v3.6h-11.77l1.41.44c-.12.25-.44.44-.94.44-.75 2.16-1.88 4.82-3.01 7.11 2.44-.13 5.07-.28 7.7-.44-.81-1.25-1.69-2.5-2.57-3.6l3.26-1.72c2.35 2.76 4.92 6.48 5.92 9.14l-3.57 1.97c-.25-.75-.63-1.6-1.1-2.47-5.2.44-10.52.85-14.06 1.13-.06.28-.31.47-.59.5l-1.35-4.2 2.29-.09c1.13-2.41 2.32-5.54 3.1-8.2h-5.42v-3.6h8.2v-4.51h-6.64v-3.57h6.64V9.3l4.82.28c-.03.34-.34.69-.94.78v3.44h6.92v3.57h-6.92v4.51h8.61ZM364.46 10.45c0 .31-.34.53-.85.59-.03.44-.09 1-.12 1.63.44 5.07 2.47 17.5 13.68 22.67-1.19.88-2.29 2.16-2.88 3.19-7.17-3.51-10.77-9.99-12.59-15.81-1.66 5.54-4.95 11.68-11.62 15.81-.66-.97-1.88-2.1-3.16-2.97 12.65-7.01 12.21-21.39 12.43-25.55l5.1.44ZM390.73 13.67c-.09.28-.44.5-.81.53-.47 2.44-.81 5.73-.81 8.61 0 6.89 2 9.36 3.76 9.36 1.06 0 2.38-3.13 3.07-5.73.75.75 2.29 1.97 3.19 2.5-1.5 5.14-3.54 7.51-6.42 7.51-4.85 0-7.23-6.04-7.55-11.15-.06-1.13-.12-2.35-.12-3.63 0-2.85.19-5.98.56-8.95l5.13.94Zm17.51 15.13c-.94-5.64-3.54-8.99-7.39-11.27l2.47-2.94c4.42 2.38 8.08 6.7 9.05 12.84l-4.13 1.38ZM439.59 21.72c-2.19.78-5.48 1.32-8.67 1.69.94 1.44 2.66 3.07 4.6 3.88l-2.19 3.07c-1.63-.94-2.38-1.35-4.85-1.35-.56 0-1.16.03-1.72.13l-.94-2.88c.41-.03.91-.06 1.41-.06s1 .03 1.38.06c-.47-.53-1.19-1.47-1.69-2.44-2.29.16-4.76.22-6.73.22-1.53 0-3.79 0-5.73-.06l-.06-3.29c1.25.03 2.76.06 4.16.06 2.41 0 4.82 0 7.23-.16-.22-.75-.63-2-.88-3.04-1.03.09-2.41.13-3.6.13-1.72 0-3.41 0-4.95-.06l.03-3.32c1.66.09 3.32.09 4.76.09.94 0 2.19 0 3.13-.09-.25-1.28-.47-2.97-.66-4.45l4.98.09c0 .38-.31.66-.84.75.09 1 .22 2.25.41 3.32 2.54-.22 5.79-.81 7.89-1.57l.75 3.35c-2.44.78-5.26 1.19-7.98 1.47.28 1.06.56 2.25.81 3.04 3.32-.38 6.73-1.06 9.3-2l.66 3.41Zm-5.55 15.84c-1.19.13-2.79.22-4.98.22-.72 0-1.5-.03-2.38-.03-5.42-.06-9.17-1.91-9.17-5.51 0-1.97 1.6-3.88 3.41-5.01l2.6 2.41c-1.28.66-1.97 1.63-2 2.41 0 2.16 3.6 2.25 5.82 2.25s5.07-.13 6.89-.34l-.19 3.6ZM459.13 27.64c-1.85.22-4.26.34-6.58.34-.06.69-.09 1.28-.09 1.88 0 3.66 2.35 4.23 5.04 4.23 1.28 0 2.69-.19 3.91-.56 1.44-.41 2.16-1.5 2.16-2.97s-.72-3.32-2.25-5.2c1.03-.28 2.76-.85 3.66-1.25 1.88 2.63 2.79 5.07 2.79 7.14 0 6.54-8.33 6.54-10.27 6.54-6.11 0-8.89-2.22-8.89-8.08 0-.88.03-1.28.09-1.85-2.32-.19-6.54-.5-6.54-4.1 0-1.38.72-2.88 2.54-4.32l3.04 1.28c-1.19.75-1.94 1.69-1.94 2.38 0 1.13 1.88 1.22 3.16 1.28.19-1.72.34-3.63.56-5.64-2-.19-4.38-.69-6.07-1.47l.81-3.63c1.63.72 3.6 1.28 5.67 1.5.22-1.75.44-3.57.59-5.14l5.26.63c-.06.41-.47.66-1.13.75-.22 1.1-.47 2.57-.69 4.07.59.03 1.35.06 2.1.06 1.16 0 2.44-.06 3.48-.13l-.19 3.63c-.81.06-1.88.09-2.94.09s-2.1-.03-2.97-.06c-.25 1.88-.44 3.73-.63 5.45 2.13-.03 4.38-.19 6.29-.47l.03 3.6ZM486.75 16.71c-.13.28-.5.53-.94.53-1.28 10.71-4.42 16.91-9.8 16.91-3.41 0-5.89-2.88-5.89-8.2 0-8.02 6.39-13.9 14.37-13.9 8.86 0 13.4 5.26 13.4 12.05 0 7.36-3.79 11.18-11.68 13.18-.6-.94-1.47-2.25-2.5-3.32 7.14-1.41 9.99-4.82 9.99-9.8s-3.51-8.45-9.27-8.45c-.56 0-1.06.06-1.6.13l3.91.88Zm-4.98-.63c-4.76 1.13-7.8 5.23-7.8 9.71 0 2.63.78 4.48 2.16 4.48 3.07 0 5.1-6.86 5.64-14.18ZM515.59 31.74c-.12.25-.47.38-.91.31-2.13 2.16-5.73 5.01-8.89 6.83-.84-.88-2.32-2.13-3.26-2.82 3.13-1.5 6.7-4.13 8.39-6.26l4.67 1.94Zm16-6.51v3.66h-28.74v-3.66h6.79v-6.64h-5.54v-3.66h5.54V9.48l4.76.28c-.03.31-.25.5-.85.59v4.57h7.26V9.47l4.79.28c-.03.31-.28.5-.88.59v4.57h5.92v3.66h-5.92v6.64h6.86Zm-18.03-6.64v6.64h7.26v-6.64h-7.26Zm14.34 20.19c-1.75-1.85-5.54-4.88-8.33-6.98l3.57-2c2.66 1.91 6.61 4.76 8.61 6.67l-3.85 2.32ZM550.51 34.21h12.31v3.69h-28.43v-3.69h12.21v-6.29h-8.58v-3.6h8.58v-5.57h-6.58c-.97 1.97-2.07 3.79-3.22 5.2-.72-.69-2.25-1.78-3.19-2.35 2.38-2.66 4.41-7.48 5.54-12.02l4.63 1.25c-.12.28-.44.44-.88.41-.38 1.28-.81 2.57-1.28 3.85h4.98V9.27l4.76.25c-.03.31-.28.5-.85.63v4.95h10.77v3.66h-10.77v5.57H560v3.6h-9.49v6.29ZM593.79 27.23v2.85h-3.32v5.51h-3.82v-1.31h-5.67c0 3.79-.22 4.6-7.26 4.6-.19-.88-.75-2.19-1.22-2.97 1.5.06 3.38.06 3.88.06.59-.03.78-.22.78-.75v-.94h-9.58v-2.72h9.58v-1.47h-12.49v-2.85h12.49v-1.35h-9.33v-2.57h9.33v-1.25h-8.55v-6.58h8.55V14.3h-11.77v-2.97h11.77V9.26l4.67.19c-.03.34-.25.56-.84.66v1.22h12.09v2.97h-12.09v1.19h8.99v6.58h-8.99v1.25h9.49v3.91h3.32Zm-21.58-7.55h4.95v-1.82h-4.95v1.82Zm13.91-1.81h-5.13v1.82h5.13v-1.82Zm-5.14 8.01v1.35h5.67v-1.35h-5.67Zm5.67 5.67v-1.47h-5.67v1.47h5.67ZM624.6 31.61h-9.11c2.66 1.63 6.33 2.85 9.99 3.44-.88.81-1.97 2.38-2.54 3.41-3.91-.97-7.7-2.88-10.61-5.32v5.67h-3.73v-5.48c-2.94 2.29-6.83 4.1-10.58 5.1-.53-.91-1.63-2.38-2.41-3.13 3.54-.72 7.26-2.04 9.99-3.69h-9.05v-3.1h12.05V27.1h-9.11v-2.72h9.11v-1.41h-10.68v-2.94h6.01c-.25-.78-.66-1.75-1.06-2.47l.38-.06v-.03l-6.61.03v-3.07h4.23c-.44-1.19-1.25-2.72-1.97-3.91l3.22-1.1c.94 1.35 1.97 3.23 2.41 4.45l-1.53.56h2.88V9.26l4.32.22c-.03.31-.28.53-.81.59v4.35h2.32V9.25l4.41.22c-.03.34-.31.53-.84.63v4.32h2.66l-1.1-.41c.75-1.25 1.66-3.16 2.1-4.51l4.23 1.32c-.09.25-.38.38-.81.34-.53.97-1.28 2.22-2 3.26h4.16v3.07h-5.73l.28.09c-.12.25-.44.34-.81.31-.31.63-.75 1.41-1.22 2.13h6.26v2.94h-10.96v1.41h9.49v2.72h-9.49v1.41h12.27v3.1Zm-11.43-11.58c.34-.72.78-1.66 1.16-2.54h-7.48c.44.81.85 1.78 1.06 2.44l-.53.09v.03l5.79-.03ZM638.51 23.44l.41 3.23-2.85.88v7.04c0 3.23-1 4.2-6.04 4.2-.12-1-.59-2.63-1.06-3.66.72.03 1.47.06 2.04.06 1.32 0 1.47 0 1.47-.63v-5.95c-1.1.34-2.07.63-2.91.85a.69.69 0 0 1-.56.59l-.91-4.16c1.22-.25 2.72-.59 4.38-.97v-6.14h-3.98v-3.44h3.98V9.3l4.38.22c-.03.31-.22.5-.78.59v5.23h2.82v3.44h-2.82v5.26l2.44-.59Zm19.26 10.3v3.41h-13.5v1.66h-3.6v-16c-.44.63-.91 1.22-1.38 1.75-.44-.85-1.47-2.5-2.07-3.29 2.35-2.63 4.38-7.39 5.54-12.05l4.23 1.19c-.09.28-.38.44-.81.41-.47 1.57-1.03 3.13-1.63 4.63h3.19c.84-1.91 1.66-4.26 2.13-6.11l4.23 1.35c-.12.25-.41.38-.88.38-.47 1.32-1.13 2.91-1.82 4.38h5.76v3.29h-5.79v2.88h4.79v3.16h-4.79v2.88h4.79v3.16h-4.79v2.91h6.39Zm-9.87-12.11v-2.88h-3.63v2.88h3.63Zm0 6.04v-2.88h-3.63v2.88h3.63Zm-3.63 3.16v2.91h3.63v-2.91h-3.63ZM667.64 21.53v10.11c1.88 3.19 5.32 3.19 11.08 3.19 3.73 0 8.2-.09 11.21-.34-.44.88-1 2.6-1.19 3.66-2.38.13-5.82.19-8.99.19-7.23 0-10.83 0-13.68-3.6a68.934 68.934 0 0 1-3.69 3.35c.03.38-.09.5-.41.66l-1.85-3.95c1.22-.81 2.63-1.82 3.91-2.88V25h-3.54v-3.48h7.14Zm-4.14-11.46c1.79 1.41 3.98 3.51 4.98 5.01l-3.1 2.35c-.88-1.5-2.97-3.69-4.76-5.23l2.88-2.13Zm7.45 23.52V21.28c-.5.56-1.03 1.1-1.57 1.57-.56-.75-1.79-2.16-2.54-2.82 2.79-2.32 5.29-6.51 6.67-10.71l4.32 1.32c-.12.25-.44.41-.88.34-.41 1.1-.88 2.16-1.38 3.22h3.38c.66-1.47 1.25-3.26 1.63-4.63l4.45 1.1c-.09.25-.38.41-.84.41-.41.94-.94 2.07-1.53 3.13h6.23v3.16h-6.61v1.91h5.42v3.04h-5.42v1.94h5.29v3.04h-5.29v2h7.01v3.16h-14.72v1.13h-3.63Zm7.77-14.31v-1.91h-4.13v1.91h4.13Zm0 4.98v-1.94h-4.13v1.94h4.13Zm0 5.04v-2h-4.13v2h4.13ZM711.73 15.36c-1.13 3.16-3.32 5.67-7.8 7.42-.31-.66-.97-1.57-1.53-2.19h-3.13v18.19h-3.6V20.59h-3.48v-3.41h3.48V9.29l4.42.22c-.03.31-.25.5-.81.59v7.08h3.19v2.88c3.04-1.13 4.7-2.66 5.64-4.7h-4.7v-2.97h5.54c.16-.97.25-1.97.31-3.1l4.23.31c-.03.28-.28.5-.75.56-.06.78-.16 1.5-.28 2.22h4.6l.72-.06 1.97.28c-.03.28-.09.66-.16.94-.53 8.33-1.06 8.86-5.79 8.86-.47 0-.97 0-1.47-.03-.06-.97-.44-2.29-.97-3.13 1.22.13 2.38.16 2.91.16.44 0 .72-.06 1-.31.34-.34.59-1.41.81-3.73h-4.35Zm-2.92 10.27 1.63.09c0 .28-.03.66-.03 1-.16 7.26-.34 10.02-1 10.9-.72 1.06-1.44 1.19-4.29 1.19-.06-.91-.31-2.16-.75-2.91.75.06 1.32.09 1.69.09.31 0 .53-.06.72-.38.31-.47.47-2.25.59-7.11h-1.44c-.5 4.07-1.6 7.7-4.13 10.36-.41-.75-1.28-1.75-2.04-2.29 1.91-1.97 2.72-4.76 3.1-8.08h-2.35v-2.85h2.54c.06-.94.06-1.91.09-2.91l3.85.25c-.03.28-.28.47-.72.53l-.09 2.13h1.94l.69-.03Zm10.56.03 1.69.09c0 .28-.03.66-.03.97-.16 7.2-.34 9.99-1 10.86-.88 1.19-1.82 1.22-4.45 1.22-.06-.94-.38-2.19-.78-3.01.78.09 1.41.09 1.78.09.31 0 .53-.09.75-.38.31-.47.44-2.22.56-7.01h-1.53c-.53 4.04-1.72 7.67-4.38 10.33-.41-.75-1.31-1.82-2.04-2.35 1.97-1.94 2.85-4.67 3.23-7.98h-2.1v-2.85h2.32c.06-.94.06-1.91.09-2.91l3.95.28c-.06.25-.25.44-.72.53l-.09 2.1h2.76ZM734.59 14.49v2.97h-10.46v-2.97h10.46Zm-.88 13.08v9.52h-5.45v1.28h-2.91v-10.8h8.36Zm-8.26-5.82V18.9h8.33v2.85h-8.33Zm0 4.29v-2.82h8.33v2.82h-8.33Zm8.26-15.78v2.85h-8.08v-2.85h8.08Zm-2.97 20.26h-2.47v3.63h2.47v-3.63Zm17.06-.69c.09.85.25 1.6.41 2.29.56-.63 1.1-1.28 1.5-1.97l2.94 1.38c-.09.19-.31.28-.69.28-.69 1.03-1.66 2.07-2.75 3.04.47.75 1 1.16 1.6 1.16.5 0 .78-.81.91-2.57.63.59 1.5 1.03 2.16 1.35-.44 3.01-1.44 4.13-3.38 4.13-1.63 0-2.85-.81-3.76-2.22-1.03.69-2.13 1.28-3.23 1.75-.38-.56-1.19-1.47-1.78-1.97 1.35-.53 2.69-1.28 3.95-2.16-.41-1.28-.72-2.79-.94-4.48h-3.07v1.25l2.41-.22.06 2.35-2.47.38v2.22c0 2.63-1.06 3.01-5.48 3.01-.12-.78-.53-1.91-.91-2.66 1.06.03 2.29.03 2.63.03.38-.03.5-.13.5-.44v-1.72c-1.06.16-2.04.28-2.85.38-.03.28-.28.47-.47.5l-.97-3.19 4.29-.34v-1.53h-3.91v-2.72h3.91v-1.25c-.94.09-1.91.19-2.82.25-.09-.59-.47-1.57-.75-2.19 2.66-.28 5.79-.75 7.58-1.38l1.94 1.97c-.03-.53-.06-1.1-.06-1.66l3.91.13c0 .31-.22.5-.75.56 0 1.28.03 2.47.09 3.57h3.44c-.59-.88-1.82-2.1-2.91-2.94l2.07-1.38c1.16.81 2.47 2 3.1 2.91l-2.07 1.41h2.19v2.72h-5.57Zm-5.67-13.62v-1.16h-6.51v-2.54h3.48c-.34-.75-.85-1.63-1.35-2.32l2.63-.94c.72.91 1.53 2.19 1.85 3.07l-.56.19h4.67l-.44-.16c.56-.91 1.25-2.19 1.63-3.1l3.6 1.16c-.09.22-.38.31-.78.31-.34.5-.81 1.19-1.28 1.78h3.66v2.54h-6.98v1.16h5.89v2.35h-5.89v1.19h7.64v2.69h-18.85v-2.69h7.61v-1.19h-5.32V16.2h5.32Zm-.46 10.89h2.82c-.06-.72-.09-1.44-.12-2.22h-.41c-.66.19-1.44.34-2.29.5v1.72ZM762.24 22.22V19.9c-1.69 1.16-3.51 2.25-5.39 3.13-.44-.85-1.41-2.32-2.19-3.07 5.45-2.41 10.58-6.95 12.9-10.71l5.07.25c-.09.31-.38.56-.81.63 2.91 3.91 8.17 7.45 12.93 9.17-.94.94-1.79 2.29-2.44 3.44-1.75-.81-3.6-1.88-5.35-3.07v2.54h-14.72Zm-5.6 6.11v-3.51h26.15v3.51h-14.72l.94.31c-.12.25-.44.38-.94.38-.66 1.53-1.57 3.32-2.5 4.98 3.1-.06 6.48-.16 9.86-.25-1.06-1.22-2.19-2.41-3.29-3.41l3.32-1.72c2.82 2.44 5.76 5.73 7.23 8.11l-3.51 2.13c-.34-.63-.81-1.31-1.35-2.07-7.08.44-14.34.81-19.13 1.03-.06.28-.31.47-.6.5l-1.31-4.13c1.31-.03 2.88-.03 4.63-.09.91-1.75 1.82-3.88 2.5-5.76h-7.3Zm19.03-9.55c-2.44-1.82-4.67-3.88-6.11-5.86-1.35 1.91-3.38 3.98-5.82 5.86h11.93Z" class="cls-2"/></g></svg>