<svg xmlns="http://www.w3.org/2000/svg" id="_レイヤー_2" data-name="レイヤー 2" viewBox="0 0 12.08 12.08"><defs><style>.cls-1{fill:#231815;stroke-width:0}</style></defs><g id="_レイヤー_1-2" data-name="レイヤー 1"><path d="M6.04 0C2.7 0 0 2.7 0 6.04s2.7 6.04 6.04 6.04 6.04-2.7 6.04-6.04S9.38 0 6.04 0Zm0 11.17c-2.83 0-5.13-2.3-5.13-5.13S3.21.91 6.04.91s5.13 2.3 5.13 5.13-2.3 5.13-5.13 5.13Z" class="cls-1"/><path d="M6.04 1.62c-2.44 0-4.42 1.98-4.42 4.42s1.98 4.42 4.42 4.42 4.42-1.98 4.42-4.42-1.98-4.42-4.42-4.42Z" class="cls-1"/></g></svg>