<svg id="_レイヤー_2" data-name="レイヤー 2" xmlns="http://www.w3.org/2000/svg" viewBox="0 0 305.64 175.06"><defs><filter id="outer-glow-2" filterUnits="userSpaceOnUse"><feOffset/><feGaussianBlur result="blur" stdDeviation=".8"/><feFlood flood-color="#231815" flood-opacity="1"/><feComposite in2="blur" operator="in"/><feComposite in="SourceGraphic"/></filter><style>.cls-1{fill:#231815;stroke-width:0}</style></defs><g id="_レイヤー_1-2" data-name="レイヤー 1"><path class="cls-1" d="M1.07 119.15c.33 0 .64-.02.93-.07.29-.04.55-.13.78-.27.22-.14.4-.34.53-.61.13-.27.2-.62.2-1.06v-9.51c0-.44-.07-.79-.2-1.06s-.31-.48-.53-.62c-.22-.15-.48-.24-.78-.29-.29-.05-.61-.07-.93-.07H.98v-1.26h5.3V117c0 .47.07.84.2 1.13.13.28.3.5.52.65.22.15.48.25.77.3.3.05.61.07.94.07h.39v1.26H.68v-1.26h.39Zm2.02-19.69c0-.35.04-.64.13-.88s.21-.42.36-.57.33-.25.54-.31c.2-.06.43-.09.67-.09s.45.03.65.09.38.16.53.31c.15.15.27.34.36.57s.14.53.14.88-.05.64-.14.88-.21.42-.36.57c-.15.15-.33.25-.53.32a2.463 2.463 0 0 1-1.32 0 1.392 1.392 0 0 1-.9-.89c-.08-.23-.13-.53-.13-.88ZM18.3 119.15v1.26h-7.98v-1.26h.25c.34 0 .65-.02.95-.07s.55-.15.77-.3c.22-.15.39-.37.52-.65s.2-.66.2-1.13v-9.36c0-.44-.07-.79-.2-1.06s-.31-.48-.53-.62c-.22-.15-.48-.24-.78-.29-.29-.05-.61-.07-.93-.07h-.09v-1.26h4.8l.39 2.43h.15c.31-.56.63-1.01.98-1.37s.71-.63 1.09-.84c.38-.2.79-.34 1.22-.41.43-.07.88-.11 1.35-.11.78 0 1.48.12 2.09.34.61.23 1.14.58 1.57 1.05.43.47.76 1.08.99 1.82.23.74.34 1.63.34 2.65v7.09c0 .47.05.84.17 1.13s.27.5.47.65c.2.15.44.25.72.3s.58.07.91.07h.1v1.26h-5.17v-10.36c0-.65-.06-1.24-.17-1.74-.12-.51-.3-.94-.56-1.29s-.59-.62-1.01-.8c-.42-.18-.92-.27-1.52-.27-.68 0-1.24.13-1.7.4-.46.26-.83.62-1.11 1.07s-.48.97-.6 1.55c-.12.59-.18 1.2-.18 1.85v6.33c0 .44.07.79.2 1.06s.31.47.53.61.48.23.78.27c.29.04.61.07.93.07h.09ZM36.5 119.12c.36 0 .69-.02.99-.06s.6-.09.91-.15v1.32c-.13.06-.29.12-.49.18s-.42.11-.66.15c-.24.04-.49.08-.75.1s-.51.04-.74.04c-.75 0-1.4-.08-1.94-.24-.54-.16-.99-.42-1.33-.78s-.61-.84-.78-1.44-.25-1.32-.25-2.18v-10.02H29.2v-1.2c.36 0 .75-.07 1.18-.22.43-.15.81-.39 1.14-.73.34-.37.61-.81.82-1.33.21-.51.39-1.15.54-1.93h1.36v3.69h3.88v1.71h-3.88v10.11c0 1.03.21 1.78.62 2.26.41.48.96.72 1.64.72ZM47.6 120.7c-1.07 0-2.04-.18-2.89-.55-.85-.37-1.58-.9-2.17-1.6s-1.04-1.56-1.35-2.58c-.31-1.02-.47-2.18-.47-3.48 0-2.8.57-4.91 1.71-6.33 1.14-1.42 2.76-2.12 4.87-2.12.96 0 1.82.15 2.58.45.76.3 1.41.75 1.94 1.35.53.6.94 1.35 1.22 2.24.28.89.43 1.93.43 3.11v1.38h-9.88c.02 1.09.13 2.03.33 2.82s.48 1.43.86 1.94.83.88 1.37 1.12 1.16.36 1.87.36c.51 0 .99-.06 1.43-.18s.84-.27 1.2-.47.67-.42.95-.67c.28-.25.5-.51.67-.78.13.06.26.18.38.37s.18.41.18.66c0 .3-.11.63-.32.97s-.54.67-.97.96-.98.54-1.63.73c-.65.2-1.42.29-2.3.29Zm-.36-15.06c-1.1 0-1.95.45-2.54 1.36-.59.9-.94 2.22-1.05 3.96h6.83c0-.79-.06-1.51-.17-2.17-.12-.65-.3-1.22-.55-1.68-.25-.47-.58-.83-.99-1.08-.41-.25-.92-.38-1.51-.38ZM64.51 120.4h-8.56v-1.26h.09c.34 0 .65-.02.95-.07s.55-.15.77-.3c.22-.15.39-.37.52-.65s.2-.66.2-1.13v-9.36c0-.44-.07-.79-.2-1.06s-.31-.48-.53-.62c-.22-.15-.48-.24-.78-.29-.29-.05-.61-.07-.93-.07h-.09v-1.26h4.56l.57 2.97h.14c.19-.45.39-.87.59-1.27.2-.4.45-.74.75-1.04.29-.3.66-.53 1.09-.7.43-.17.98-.26 1.64-.26 1.08 0 1.89.19 2.41.57.53.38.79.92.79 1.61 0 .31-.05.6-.15.86-.1.26-.26.49-.49.68-.22.19-.51.34-.85.44-.35.1-.77.15-1.28.15 0-.83-.12-1.43-.35-1.79-.23-.37-.64-.55-1.22-.55-.37 0-.7.11-.99.32-.29.21-.54.49-.76.83-.22.35-.4.75-.55 1.19-.15.45-.27.91-.36 1.38-.09.47-.16.95-.2 1.41-.04.47-.06.89-.06 1.27v4.72c0 .44.07.79.2 1.06s.31.47.53.61.48.23.78.27c.29.04.61.07.93.07h.83v1.26ZM69.06 105.58v-1.26h7.42v1.26h-.38c-.6 0-1.05.12-1.34.35-.29.23-.44.6-.44 1.1 0 .17.02.33.06.5.04.17.1.37.17.59l2.01 5.67c.12.35.26.74.39 1.17.14.42.26.84.38 1.25.12.41.23.8.33 1.16.1.37.17.68.2.93h.1c.05-.21.13-.48.24-.8s.24-.66.38-1.04.28-.76.43-1.15c.15-.39.29-.77.43-1.13l2.13-5.84c.1-.24.17-.48.21-.7.04-.22.07-.42.07-.59 0-.52-.16-.89-.49-1.13-.32-.23-.81-.35-1.47-.35h-.22v-1.26h6.36v1.26h-.36c-.29 0-.54.03-.74.1-.2.06-.39.18-.55.36-.17.18-.32.42-.47.72-.15.3-.32.69-.5 1.17l-4.68 12.48h-2.71l-4.77-13.23c-.12-.31-.24-.57-.36-.78a1.74 1.74 0 0 0-.43-.49c-.17-.12-.35-.21-.57-.26s-.46-.07-.75-.07h-.09ZM87.21 119.15c.33 0 .64-.02.93-.07.29-.04.55-.13.78-.27.22-.14.4-.34.53-.61.13-.27.2-.62.2-1.06v-9.51c0-.44-.07-.79-.2-1.06s-.31-.48-.53-.62c-.22-.15-.48-.24-.78-.29s-.61-.07-.93-.07h-.09v-1.26h5.3V117c0 .47.06.84.2 1.13s.3.5.52.65c.22.15.48.25.78.3s.61.07.94.07h.39v1.26h-8.43v-1.26h.39Zm2.01-19.69c0-.35.04-.64.13-.88s.21-.42.36-.57c.15-.15.33-.25.54-.31s.42-.09.67-.09.45.03.65.09.38.16.53.31c.15.15.27.34.36.57s.14.53.14.88-.05.64-.14.88-.21.42-.36.57c-.15.15-.33.25-.53.32s-.42.09-.65.09-.46-.03-.67-.09-.38-.17-.54-.32c-.16-.15-.28-.34-.36-.57s-.13-.53-.13-.88ZM104.14 120.7c-1.07 0-2.04-.18-2.89-.55-.85-.37-1.58-.9-2.17-1.6-.59-.7-1.04-1.56-1.36-2.58-.31-1.02-.47-2.18-.47-3.48 0-2.8.57-4.91 1.71-6.33s2.76-2.12 4.87-2.12c.96 0 1.82.15 2.58.45.76.3 1.41.75 1.94 1.35.53.6.94 1.35 1.22 2.24.29.89.43 1.93.43 3.11v1.38h-9.88c.02 1.09.13 2.03.33 2.82s.48 1.43.85 1.94.83.88 1.37 1.12c.54.24 1.16.36 1.87.36.51 0 .99-.06 1.43-.18s.84-.27 1.2-.47.67-.42.95-.67c.28-.25.5-.51.67-.78.14.06.26.18.38.37s.18.41.18.66c0 .3-.11.63-.32.97-.21.35-.54.67-.97.96-.43.29-.98.54-1.63.73s-1.42.29-2.3.29Zm-.36-15.06c-1.1 0-1.95.45-2.54 1.36-.59.9-.94 2.22-1.05 3.96h6.83c0-.79-.06-1.51-.17-2.17-.12-.65-.3-1.22-.55-1.68s-.58-.83-.99-1.08c-.41-.25-.92-.38-1.51-.38ZM125.63 104.41l2.97 8.89c.12.36.24.75.37 1.17s.25.83.37 1.23c.12.41.22.79.32 1.15s.17.67.22.92h.09c.09-.5.23-1.11.42-1.84s.44-1.58.74-2.54l1.48-4.83c.08-.25.14-.52.2-.81.05-.29.08-.51.08-.68 0-.52-.16-.89-.49-1.13-.32-.23-.82-.35-1.49-.35h-.2v-1.26h6.35v1.26h-.38c-.29 0-.54.03-.75.09s-.4.17-.57.34a2.5 2.5 0 0 0-.47.71c-.15.3-.29.7-.43 1.2l-3.83 12.48h-2.38l-3.54-10.56-.54-1.98-4.2 12.54h-2.35l-3.88-13.23c-.12-.31-.24-.57-.36-.78-.12-.21-.27-.37-.43-.49s-.35-.21-.56-.26c-.21-.05-.46-.07-.75-.07h-.09v-1.26h7.33v1.26h-.39c-.59 0-1.03.09-1.33.26-.3.18-.45.51-.45 1 0 .17.03.37.08.6s.11.46.17.69l1.39 5.04c.1.36.2.76.3 1.19s.21.86.3 1.28c.09.42.18.82.25 1.19.08.37.14.68.19.94h.09c.05-.25.11-.55.2-.89.08-.34.18-.7.29-1.08.11-.38.23-.78.35-1.18.13-.4.25-.78.38-1.14l3.09-9.07h1.87Z"/><g style="filter:url(#outer-glow-2)"><path class="cls-1" d="M182.55 122.43c-20.08 0-25.31-22.71-21.43-48.89 3.89-26.31 17.7-49.44 35.15-49.44 19.39 0 25.44 22.71 21.59 48.75-3.87 26.17-17.31 49.58-35.31 49.58Zm13.22-95.01c-12.33 0-19.96 23.54-23.28 45.98-3.2 21.6-3.95 45.43 10.73 45.43 12.6 0 19.87-23.82 23.08-45.56 3.34-22.57 4.01-45.84-10.53-45.84ZM282.35 92.79c-1.94 0-4.71 0-7.46-.14-.28 0-.87.28-.95.83-.16 1.11-.41 3.74-.6 4.99-1.19 11.77-3.91 17.03 8.24 18.28.59.69.72 1.66.6 2.49-.12.83-.64 1.52-1.75 1.52-.14 0-8.01-1.11-17.01-1.11-4.57 0-9.32.28-13.6 1.11h-.42c-.69 0-1.16-.55-1.04-1.38.12-.83.68-1.8 1.77-2.63 11.12-1.25 11.47-3.6 14.04-20.91.47-3.18.21-3.32-.2-3.32-1.78-.14-4.96-.14-8.57-.14-8.03 0-18.6.28-22.96 1.66-1.15.28-2.02.55-2.85.55s-6.01-1.52-5.64-4.02c.16-1.11 1.6-2.35 3.03-3.6 5.88-5.12 17.51-20.08 29.07-35.45 10.86-14.4 20.8-28.25 23.91-32.41 2.29-3.32 4.96-3.6 9.81-3.6 1.78.14 2.49.97 2.3 2.22-.1.69-.64 1.52-1.32 2.35-7.12 7.89-13.89 16.2-19.91 24.1-12.13 15.51-22.04 27.28-32.77 39.89-.52.69-1.21 1.66-1.34 2.49s.33 1.52 1.99 1.52h.55c8.95-.55 18.22-.55 25.61-.83.28 0 .57-.14.68-.83s.33-2.22.61-4.15c.86-5.82 2.2-15.79 2.62-20.5l.12-.83c.7-4.71 9.26-7.34 10.23-7.34.83 0 1.74.42 1.6 1.38l-.06.42c-1.5 3.6-5.23 27.84-5.7 31.02-.04.28.17.69.45.69h.14c1.11 0 3.78-.28 9.7-.97 1.27-.14 2.12-.28 2.81-.28.97 0 1.48.28 1.32 1.38-.08.55-.34 1.39-.76 2.35-1.1 2.77-1.3 3.19-6.29 3.19Z"/></g></g></svg>