<svg xmlns="http://www.w3.org/2000/svg" width="399.546" height="74"><g data-name="レイヤー 2"><g data-name="レイヤー 1"><path d="M28.005 7.4 33.754 0H47.85c.613.022.825.182.792.904V35.74L34.918 52.904h-8.835l13.299-17.443V9.031s0-1.359-1.128-1.632Z" style="fill:#00948c"/><path d="M25.423 10.917v54.909L18.84 74H.703A1.126 1.126 0 0 1 0 73.354V42.96l9.489-11.898v33.942a1.104 1.104 0 0 0 1.119.916h4.413s.587-.063.847-.916v-41.95Z" style="fill:#0082cc"/><path d="M155.347 32.22h-30.315a1.357 1.357 0 0 0-1.368 1.308.035.035 0 0 0-.014.028v.073a1.394 1.394 0 0 0 1.382 1.402.063.063 0 0 1 .036-.016.124.124 0 0 0 .04.016h8.976v5.959h-5.434c-2.697 0-3.869.91-3.869 3.856v14.045c0 2.944 1.172 3.935 3.87 3.935h22.932c2.75 0 3.908-1.02 3.908-3.935V44.846c0-2.987-1.233-3.856-3.908-3.856h-5.49V35.03h9.122c.046 0 .066-.006.106-.006a1.42 1.42 0 0 0 1.346-1.431 1.39 1.39 0 0 0-1.32-1.374m-17.99 2.811h5.436v5.946h-5.435Zm-9.28 10.273a1.385 1.385 0 0 1 1.55-1.587h4.457v1.882c0 5.222-3.618 6.207-6.008 6.527Zm24.11 13.142c0 1.123-.574 1.553-1.583 1.553h-20.976a1.36 1.36 0 0 1-1.552-1.553v-3.323a10.046 10.046 0 0 0 6.736-2.915c1.01-1.152 2.493-2.435 2.493-6.769v-1.722h5.475v7.044c0 .904.766 3.304 3.016 3.304h6.391Zm-1.583-14.73a1.409 1.409 0 0 1 1.583 1.588v5.997h-4.36s.557.006-.146.006c-.775 0-1.589-.515-1.589-1.24v-6.35Zm31.705-10.65h-17.708c-3.325 0-4.552 1.121-4.552 4.544v19.782c0 3.46 1.26 4.587 4.552 4.587h17.708c3.309 0 4.539-1.214 4.539-4.587V37.61c0-3.451-1.304-4.543-4.539-4.543m1.247 24.014a1.817 1.817 0 0 1-2.075 2.074h-15.969c-1.217 0-2.085-.462-2.085-2.074v-8.513h20.13Zm0-11.296h-20.129v-7.82c0-1.622.868-2.074 2.085-2.074h15.969a1.812 1.812 0 0 1 2.075 2.074Zm214.69 1.05a1.317 1.317 0 0 0 1.3-1.327 1.403 1.403 0 0 0-.791-1.267v-.02a29.037 29.037 0 0 1-5.524-3.168l5.12-4.852a1.314 1.314 0 0 0-.898-2.246 1.251 1.251 0 0 0-.882.383v-.026l-5.399 5.096c-.834-.706-1.672-1.349-2.358-2.005l4.525-4.252a1.264 1.264 0 0 0 .422-.95 1.275 1.275 0 0 0-2.163-.954l-.02-.013-4.574 4.302c-1.304-1.402-2.106-2.369-2.151-2.454a2.34 2.34 0 0 0-1.817-.881h-9.946a1.298 1.298 0 0 0-1.302 1.305 1.279 1.279 0 0 0 1.302 1.29v.012h7.235a30.68 30.68 0 0 1-4.635 4.858l-4.318-3.716-.026.016a1.25 1.25 0 0 0-.781-.304 1.306 1.306 0 0 0-1.303 1.299 1.283 1.283 0 0 0 .413.947h-.014l3.892 3.345a26.739 26.739 0 0 1-5.696 2.928l.007.028a1.376 1.376 0 0 0-.858 1.268 1.33 1.33 0 0 0 1.302 1.35 1.167 1.167 0 0 0 .459-.092.553.553 0 0 0 .06-.013 26.242 26.242 0 0 0 4.162-1.973 1.706 1.706 0 0 0-.093.53 1.346 1.346 0 0 0 1.298 1.337h3.4v3.414h-8.49a.121.121 0 0 0-.046-.022 1.368 1.368 0 0 0-.014 2.73v.006h8.48c-.395 2.969-2.339 5.968-9.186 7.572h.011a1.57 1.57 0 0 0-1.046 1.478 1.347 1.347 0 0 0 1.296 1.355 2.833 2.833 0 0 0 .287-.05l.006.037c7.752-1.612 11.09-6.25 11.458-10.392h5.11v5.837a4.085 4.085 0 0 0 1.29 3.181 4.685 4.685 0 0 0 3.219 1.048h8.304v-.019a1.453 1.453 0 0 0-.026-2.886c-.007 0-.04.031-.046.031h-8.042a2.239 2.239 0 0 1-1.455-.38 1.737 1.737 0 0 1-.404-1.264v-5.548h9.121a1.36 1.36 0 0 0 0-2.714H388.3v-3.414h4.214a1.344 1.344 0 0 0 1.28-1.337 1.422 1.422 0 0 0-.234-.768 26.595 26.595 0 0 0 4.142 2.177 1.153 1.153 0 0 0 .545.148M385.46 50.03h-5.05v-3.414h5.05Zm6.928-6.113H374.46a33.244 33.244 0 0 0 8.777-8.38 41.984 41.984 0 0 0 9.33 8.427.32.32 0 0 0-.179-.047m-103.144-7.32c-.15 0-.254.01-.342.012h-2.597v-4.264a1.428 1.428 0 0 0-2.857 0v4.264h-2.209a1.387 1.387 0 0 0 0 2.774h2.21v4.095c0 2.206-.752 10.129-3.942 15.837a1.285 1.285 0 0 0-1.536-1.224h-.03c-.062 0-.072.013-.119.013-1.873.313-3.861.608-5.811.853v-2.086h5.805a1.233 1.233 0 0 0 1.206-1.234 1.213 1.213 0 0 0-1.206-1.208h-5.805v-1.904h3.74a3.217 3.217 0 0 0 3.226-3.232v-5.08a3.217 3.217 0 0 0-3.226-3.223h-3.74v-1.607h6.404a1.387 1.387 0 0 0 0-2.774h-6.404v-2.44c2.068-.274 4.749-.575 6.053-.858v-.021a1.198 1.198 0 0 0 .94-1.158 1.222 1.222 0 0 0-1.212-1.224 1.05 1.05 0 0 0-.266.053v-.037a104.64 104.64 0 0 1-14.315 1.61 1.215 1.215 0 0 0 0 2.428h.033a55.912 55.912 0 0 0 5.9-.461v2.108h-6.771a1.387 1.387 0 1 0 0 2.774h6.771v1.607h-3.657a3.25 3.25 0 0 0-3.232 3.222v5.08a3.25 3.25 0 0 0 3.232 3.233h3.657v1.904h-5.966a1.208 1.208 0 0 0-1.22 1.208 1.228 1.228 0 0 0 1.22 1.234h5.966v2.463c-2.76.33-5.234.602-6.942.734l.017.013a1.377 1.377 0 0 0 .171 2.745.553.553 0 0 0 .132-.01v.01c3.605-.307 10.198-1.064 15.907-2.014v.021a.853.853 0 0 0 .171-.068.659.659 0 0 1-.081.135c-.011.012-.011.012 0 .012a3.026 3.026 0 0 0-.12.913 1.3 1.3 0 0 0 1.314 1.306 1.285 1.285 0 0 0 1.057-.603v.022c5.463-7.779 5.535-17.883 5.535-19.307v-3.86h2.926a.96.96 0 0 1 .967 1.017c0 10.26-.008 13.74-.521 17.418-.143 1.13-.601 2.197-1.445 2.197h-2.429c-.045 0-.09-.016-.131-.016a1.41 1.41 0 0 0-1.381 1.412 1.39 1.39 0 0 0 1.38 1.4v.006h2.983c2.75 0 3.555-2.162 3.732-3.58.605-4.908.589-8.918.589-18.818 0-2.69-.96-3.822-3.731-3.822m-17.233 6.831h3.74a.796.796 0 0 1 .792.784v1.328h-4.532Zm0 4.547h4.532v1.318a.803.803 0 0 1-.792.793h-3.74Zm-2.867 2.111h-3.657a.808.808 0 0 1-.786-.793v-1.318h4.443Zm0-4.546h-4.443v-1.328a.802.802 0 0 1 .786-.784h3.657Zm-11.084 5.632a127.764 127.764 0 0 0-10.153-10.182 1.702 1.702 0 0 0-1.21-.518 1.652 1.652 0 0 0-1.653 1.67 1.555 1.555 0 0 0 .595 1.242l-.017.019c.017.006 1.818 1.56 4.027 3.62a70.99 70.99 0 0 1 5.99 6.427v-.012a1.6 1.6 0 0 0 1.194.514 1.66 1.66 0 0 0 1.655-1.66 1.632 1.632 0 0 0-.445-1.107Zm-1.624-15.4a1.392 1.392 0 1 0 0-2.784h-27.943a1.392 1.392 0 0 0 0 2.783h13.936c-1.737 3.653-5.815 9.737-15.202 15.178v.016a1.655 1.655 0 0 0 .862 3.066 1.75 1.75 0 0 0 .985-.317 42.497 42.497 0 0 0 11.703-10.085v17.81a1.673 1.673 0 0 0 3.345 0V39.707a29.324 29.324 0 0 0 1.912-3.936Zm-35.22 3.015a1.427 1.427 0 0 0 0-2.852h-13.368v-3.386a1.672 1.672 0 0 0-3.345 0v3.386h-13.351a1.426 1.426 0 0 0 0 2.852h10.045a47.625 47.625 0 0 1-3.845 7.493 36.185 36.185 0 0 1-6.961 8.639 1.552 1.552 0 0 0-.617 1.233 1.569 1.569 0 0 0 1.572 1.575 1.5 1.5 0 0 0 .943-.335l.02.018c2.86-2.275 5.737-6.354 8.062-10.23 1.157-1.96 2.163-3.856 2.891-5.443a15.837 15.837 0 0 0 1.09-2.95h.151v15.856h-6.075v.009h-.007a1.423 1.423 0 0 0 0 2.846h6.082v3.941a1.664 1.664 0 0 0 1.67 1.66 1.702 1.702 0 0 0 1.675-1.66V57.5h6.072a1.423 1.423 0 1 0 .023-2.847v-.01h-6.095V38.788h.15a16.537 16.537 0 0 0 1.09 2.95 53.684 53.684 0 0 0 2.902 5.444c2.302 3.875 5.192 7.954 8.047 10.23v-.02a1.605 1.605 0 0 0 .978.336 1.562 1.562 0 0 0 1.556-1.575 1.483 1.483 0 0 0-.63-1.233 36.489 36.489 0 0 1-6.95-8.639 48.186 48.186 0 0 1-3.839-7.493Zm139.82-6.517a.055.055 0 0 1-.047-.029h-8.357c-2.338 0-3.258.841-3.258 3.27v4.88c0 2.44.95 3.272 3.258 3.272h8.404v15.285a.894.894 0 0 1-.795.988c-.89-.022-1.503 0-1.958 0h-.104c-.022 0-.036-.022-.058-.022a1.451 1.451 0 0 0 0 2.903h2.286c2.08 0 3.472-1.186 3.472-3.847V35.389a.668.668 0 0 0-.015-.192c-.071-2.096-.967-2.865-2.828-2.927m-8.884 3.561a1.008 1.008 0 0 1 1.146-1.139h6.61c.796 0 1.095.402 1.095 1.14v.953h-8.851Zm8.884 5.394h-7.857a.973.973 0 0 1-1.027-1.107v-1.14h8.884Zm-3.713 13.427a1.222 1.222 0 0 0 1.078-1.214 1.204 1.204 0 0 0-1.204-1.212h-2.926v-3.834h2.926a1.21 1.21 0 0 0 0-2.42h-18.031a1.21 1.21 0 0 0 0 2.42h2.714v3.834h-2.714a1.213 1.213 0 0 0 0 2.426h.023c-.093.01-.132.01-.036.01h2.628a8.145 8.145 0 0 1-3.271 5.673 1.378 1.378 0 0 0 .79 2.504 1.82 1.82 0 0 0 .99-.396 10.49 10.49 0 0 0 4.274-7.781h6.954v6.802a1.377 1.377 0 1 0 2.753 0v-6.802h3.045s0-.02.007-.01m-5.805-2.426h-6.874v-3.834h6.874Zm-4.704-11.864v-4.85c0-2.524-1.069-3.27-3.232-3.27h-8.223c-.023 0-.033.028-.033.028-1.87.056-2.792.765-2.9 2.824a1.15 1.15 0 0 0-.032.295v26.176c0 .037.014.09.014.135a1.437 1.437 0 0 0 1.437 1.437 1.411 1.411 0 0 0 1.406-1.38V43.662h8.331c2.29 0 3.232-.831 3.232-3.3m-11.563-4.592c.04-.683.607-1.079 1.385-1.079h6.323c.755 0 1.101.377 1.101 1.14v.953h-8.809Zm0 5.454v-2.247h8.81v1.14c0 .746-.347 1.076-.987 1.107Zm-7.816 18.79h-10.463v-3.942h8.236c.03 0 .03-.012.03-.012a1.3 1.3 0 0 0 1.24-1.268 1.262 1.262 0 0 0-1.26-1.264h-8.246v-4.086h9.32a1.261 1.261 0 1 0 0-2.523l-9.32-.003V44.25a1.477 1.477 0 0 0-2.955 0v2.667h-5.697c.275-.677.496-1.246.651-1.669a6.48 6.48 0 0 0 .264-1.055 1.423 1.423 0 0 0-1.445-1.418 1.44 1.44 0 0 0-1.286.8s-.138.48-.258.797a24.01 24.01 0 0 1-3.324 6.367 1.41 1.41 0 0 0-.317.87 1.439 1.439 0 0 0 1.43 1.424 1.396 1.396 0 0 0 1.083-.508l.014.009a1.184 1.184 0 0 0 .079-.12l.012-.018a20.792 20.792 0 0 0 1.907-2.969l6.887.016v4.086h-8.252a1.276 1.276 0 0 0-1.296 1.264 1.235 1.235 0 0 0 .53.986c.014.04.053.06.086.088.1.037.18.075.272.119a.986.986 0 0 0 .328.056 1.426 1.426 0 0 0 .32.031h8.012v3.942h-9.77a3.225 3.225 0 0 0-.323.012 1.414 1.414 0 0 0-1.352 1.4 1.39 1.39 0 0 0 1.391 1.39h23.472a1.397 1.397 0 0 0 1.383-1.39 1.412 1.412 0 0 0-1.383-1.412m.075-23.773a1.39 1.39 0 0 0 .03-2.78h-12.936v-1.054a1.518 1.518 0 0 0-1.531-1.5 1.493 1.493 0 0 0-1.49 1.5c0 .038-.007.063-.007.12v.934h-12.942a1.39 1.39 0 0 0-.02 2.78h5.963a29.7 29.7 0 0 1 1.172 3.524s-3.949.025-3.961.025c-1.781 0-3.154 1.098-3.154 3.543V51.8a27.967 27.967 0 0 1-.336 3.502 19.027 19.027 0 0 1-2.118 5.83h.01a1.528 1.528 0 0 0-.156.624 1.393 1.393 0 0 0 1.406 1.374 1.505 1.505 0 0 0 1.338-.825v-.012a.461.461 0 0 1 .047-.07 24.885 24.885 0 0 0 2.672-10.392v-8.334a1.149 1.149 0 0 1 1.167-1.208h24.885a1.257 1.257 0 1 0 0-2.514l-7.176-.009c.576-1.534.91-2.388 1.23-3.524Zm-10.033 3.524h-8.78a29.57 29.57 0 0 0-1.224-3.514h11.228a25.797 25.797 0 0 1-1.224 3.514M94.587 63.287a1.88 1.88 0 0 1-1.873-1.876c0-.317 0-.53.006-.662V37.896c0-4.434 1.155-5.855 4.723-5.855h12.824a8.508 8.508 0 0 1 2.843 16.436l5.112 12.335a2.233 2.233 0 0 1 .092.615 1.842 1.842 0 0 1-1.843 1.848 1.788 1.788 0 0 1-1.693-1.177L109.48 49.01H96.45v12.272l.003.129a1.866 1.866 0 0 1-1.866 1.876m1.863-17.383h8.17l5.581-.007a5.35 5.35 0 0 0-.136-10.697H98.35c-1.323 0-1.9.584-1.9 1.915ZM74.922 63.275a10.665 10.665 0 0 1-10.65-10.662 1.849 1.849 0 0 1 3.698-.01s.007.383.007.584a6.968 6.968 0 0 0 13.912-.574l.017-19.832a1.842 1.842 0 1 1 3.683-.034v19.866a3.887 3.887 0 0 1-.053.674 10.656 10.656 0 0 1-10.614 9.988"/></g></g></svg>