<?xml version="1.0" encoding="UTF-8"?>
<svg id="_レイヤー_2" data-name="レイヤー 2" xmlns="http://www.w3.org/2000/svg" viewBox="0 0 435.35 525.61">
  <defs>
    <style>
      .cls-1 {
        stroke: #9d8034;
      }

      .cls-1, .cls-2 {
        stroke-width: 1.3px;
      }

      .cls-1, .cls-3 {
        fill: #9d8034;
      }

      .cls-2 {
        stroke: #231815;
      }

      .cls-2, .cls-4 {
        fill: #231815;
      }

      .cls-4, .cls-3 {
        stroke-width: 0px;
      }
    </style>
  </defs>
  <g id="_レイヤー_1-2" data-name="レイヤー 1">
    <g>
      <g>
        <path class="cls-4" d="M211.73,102.98c-3.17,3.4-3.68,3.82-4.69,3.82s-2.67-.78-3.45-1.56c-.6-.64-1.06-1.75-1.06-2.58,0-.55.14-1.01.32-1.01.05,0,.09.05.14.14.32.78,1.75,1.52,2.9,1.52,1.52,0,3.22-1.2,7.87-5.61,1.52-1.47,2.35-1.89,3.59-1.89,1.52,0,2.35.41,4.65,2.3,9.25,7.41,13.57,9.98,19.28,11.32,1.24.28,1.89.97,1.89,2.02,0,1.15-1.24,2.12-2.67,2.12-1.15,0-2.39-.41-4.23-1.43-3.54-1.98-6.17-3.96-10.9-8.19-6.4-5.7-6.9-6.07-8-6.07-.78,0-1.7.78-5.61,5.11Z"/>
        <path class="cls-4" d="M247.75,112.65c5.61,1.29,9.38,4.23,9.38,7.27,0,1.38-.97,2.44-2.21,2.44-.55,0-1.1-.23-1.47-.64q-.37-.46-.92-2.48c-.92-2.85-1.75-3.82-5.11-5.93l.32-.64Z"/>
      </g>
      <g>
        <path class="cls-4" d="M209.17,236.95c.46,3.08.64,4.51.64,5.57,0,4.65-2.12,10.12-5.61,14.63-2.67,3.45-5.15,5.15-7.54,5.15-1.15,0-2.16-.55-3.17-1.75-1.61-1.93-2.39-4.23-2.39-7.27,0-9.75,8.47-17.76,18.77-17.76,9.11,0,15.46,5.7,15.46,13.89,0,7.31-4.32,13.25-11.59,15.87-2.21.78-5.24,1.52-6.3,1.52-.32,0-.6-.23-.6-.41,0-.14.14-.18.78-.37,3.27-.83,6.16-2.35,8.69-4.55,3.31-2.85,5.24-7.54,5.24-12.83,0-4.23-1.33-7.36-3.96-9.34-1.93-1.52-4.6-2.39-7.13-2.39l-1.29.05ZM207.33,237.13c-7.91,1.47-13.48,8.19-13.48,16.29,0,3.4,1.29,5.98,3.04,5.98,1.98,0,5.66-3.73,7.91-8,1.79-3.5,3.22-8.23,3.22-10.86,0-1.1-.23-2.21-.6-3.17l-.09-.23Z"/>
        <path class="cls-4" d="M250.48,228.58l3.82.32c.64.05,1.1.41,1.1.92,0,.28-.23.6-.69.92l-1.15.83v5.34h12.51l2.58-3.04,3.82,2.85c.28.18.46.51.46.78s-.23.46-.55.46h-18.17c.51.51.74.87.74,1.15,0,.41-.41.64-1.33.78l-.69.05c-3.63,4.65-4.74,6.03-7.64,9.29,1.47,1.89,2.02,3.17,2.02,4.6,0,1.15-.83,2.12-1.93,2.12-.74,0-1.2-.46-1.56-1.56-1.24-4.14-3.91-7.45-7.18-8.97l.28-.69c2.76.6,5.43,1.84,7.36,3.54,2.39-3.91,3.31-5.61,5.52-10.31h-9.62c-2.53,0-4.28.05-8.46.18l-.6-1.52c4.69.23,6.62.28,9.06.28h10.31v-8.33ZM262.99,246.7c.37.32.6.69.6,1.01,0,.41-.37.74-.87.78l-1.43.18c-2.85,3.22-9.71,10.4-14.58,15.23,4.23-.05,4.32-.05,17.25-.69-1.7-2.9-2.58-3.86-6.44-7.41l.41-.55c6.07,2.21,11.41,7.5,11.41,11.32,0,1.29-.78,2.21-1.89,2.21-.87,0-1.24-.37-1.7-1.7-.64-1.43-.83-1.89-1.06-2.35-7.18.92-13.34,1.52-25.76,2.58l-.69.87c-.18.23-.55.41-.83.41-.37,0-.55-.18-.83-.78l-2.07-4.19c3.31.23,4.92.32,6.81.32.74,0,1.79,0,3.22-.05,4.55-5.29,10.4-12.83,15.37-19.78l3.08,2.58Z"/>
        <path class="cls-4" d="M285.8,230.69h9.62l1.29-1.89,2.9,2.99c.14.14.23.37.23.55,0,.28-.09.41-.32.51l-1.01.41v9.48c0,.55-1.1,1.15-2.12,1.15-.51,0-.69-.18-.69-.6v-1.2h-10.35v25.35c0,.74-.09.92-.69,1.33-.55.37-1.24.64-1.66.64-.46,0-.74-.32-.74-.78v-39.98l3.54,2.02ZM295.7,235.71v-3.91h-10.35v3.91h10.35ZM295.7,241v-4.19h-10.35v4.19h10.35ZM290.68,255.07c1.24.05,2.39.05,2.76.05h5.34c.28-1.52.37-2.58.41-4.6h-3.96c-1.01,0-1.2,0-5.7.14l-.46-1.43c3.45.14,4.74.18,6.16.18h.64c-.41-2.53-1.2-3.91-2.9-5.11l.18-.51c3.22.6,5.47,2.3,5.47,4.28,0,.41-.09.74-.46,1.33h4.55l1.89-5.71c-.23.05-.46.09-.6.09-.32,0-.6-.23-.6-.51v-14.72l3.5,2.12h9.43l1.29-1.98,2.67,2.58c.46.41.64.74.64,1.01s-.18.55-.46.64l-.78.28v32.71c0,1.1-.55,1.89-2.07,2.76-.6.32-1.1.51-1.52.51s-.55-.23-.64-.87c-.05-.6-.14-.78-.55-.97l-3.86-1.43-.05-.74h4.65c.83,0,.97-.14,1.01-1.06v-22.04h-10.44v.6l2.07,1.33c.32.18.46.41.46.64,0,.28-.23.55-.51.6l-1.33.32-2.81,3.82h3.73l2.07-2.44,3.13,2.58c.18.14.32.37.32.55,0,.23-.28.41-.64.41h-10.63c-.09,1.61-.18,2.58-.46,4.6h7.68l2.25-2.76,3.27,2.53c.18.14.32.46.32.74s-.28.6-.51.6h-13.2l-.37,1.61c5.61,1.24,9.38,3.54,9.38,5.8,0,1.06-.78,2.02-1.61,2.02q-.74,0-2.81-2.67c-1.66-2.02-3.5-3.5-5.34-4.28-1.2,2.99-2.48,4.37-5.93,6.21-1.84,1.01-4.74,2.21-5.38,2.21-.23,0-.37-.18-.37-.41,0-.37.18-.51,1.2-.97,5.43-2.58,7.45-4.92,8.33-9.52h-5.11c-1.29,0-2.48.05-5.66.14l-.51-1.43,3.4.14ZM316.67,235.71v-3.91h-10.44v3.91h10.44ZM316.67,241v-4.19h-10.44v4.19h10.44Z"/>
        <path class="cls-4" d="M331.67,235.66h22.54l1.75-2.67,3.36,3.45c.23.28.41.6.41.92s-.28.6-.74.74l-.92.23v25.44c0,.87-.97,1.43-2.53,1.43-.74,0-1.01-.23-1.01-.78v-4.6h-23.37v5.11c0,.55-.23.83-.87,1.15-.55.23-1.38.46-1.75.46-.46,0-.83-.23-.83-.51v-33.03l3.96,2.67ZM354.53,258.71v-21.94h-23.37v21.94h23.37Z"/>
        <path class="cls-4" d="M371.46,254.34q1.75-4.69,2.02-4.69c.18,0,.37.23.37.41,0,.09,0,.14-.05.28-.18.32-.87,2.67-1.2,3.86-.74,2.85-1.24,6.07-1.24,8.05,0,.97.14,1.7.55,2.67.14.41.18.6.18.88,0,.97-.64,1.7-1.43,1.7-2.62,0-5.15-6.12-5.15-12.51,0-3.04.41-5.66,2.07-12.79.69-3.08.87-4.09.87-5.43,0-1.84-.51-3.22-1.47-3.91-.14-.14-.18-.18-.18-.28s.09-.14.28-.14c.74,0,1.79.46,2.76,1.24,1.47,1.2,2.16,2.53,2.16,4.37,0,1.52-.14,1.93-2.07,6.81-1.7,4.32-2.3,6.81-2.3,9.89s.55,5.25,1.33,5.25c.46,0,.74-.32,1.06-1.38l1.43-4.28ZM380.47,252.73s0,.05-.05.09c-.05.28-.14.97-.14,1.47,0,3.91,2.81,5.84,8.42,5.84,2.07,0,4.28-.32,6.44-.87,1.06-.28,1.29-.32,1.7-.32,1.24,0,2.12.78,2.12,1.89,0,1.75-2.44,2.62-7.04,2.62-4.23,0-7.68-.6-9.43-1.7-2.02-1.29-3.27-3.54-3.27-6.03,0-1.98.37-3.22.97-3.22.14,0,.28.09.28.23ZM395.98,240.26c0,.6-.64,1.01-1.84,1.15-2.3.32-5.8.6-7.91.6-2.44,0-4.09-.6-5.61-2.12-.46-.46-.92-1.33-.92-1.7,0-.09.14-.18.23-.18s.18.05.28.23c.51.87,2.07,1.43,3.91,1.43,2.76,0,6.3-.78,8.28-1.79.32-.18.46-.23.74-.23,1.01,0,2.85,1.66,2.85,2.62Z"/>
      </g>
      <g>
        <path class="cls-4" d="M186.95,445.33c.97-.05,1.84-.09,2.21-.09h1.15l9.34-17.71.69.28-6.12,15.32c-.87,2.3-1.01,2.67-1.01,3.63,0,1.24.37,3.31.83,4.69.55,1.52.83,2.76.83,3.36,0,1.2-1.15,2.39-2.35,2.39s-1.93-.83-1.93-2.12l.23-5.2c0-1.1-.6-2.44-1.38-2.94-.51-.37-.97-.51-2.48-1.01v-.6ZM187.32,428.9c3.86.41,6.26,2.25,6.26,4.88,0,1.29-.64,2.07-1.66,2.07-.51,0-.92-.23-1.15-.6q-.09-.23-.51-1.75c-.46-1.79-1.61-3.31-3.04-4.05l.09-.55ZM189.99,418.46c1.38.28,2.02.46,2.94.87,2.12,1.01,3.45,2.76,3.45,4.6,0,1.29-.69,2.12-1.75,2.12-.46,0-.87-.18-1.1-.46q-.18-.18-.97-3.04c-.41-1.29-1.33-2.44-2.9-3.82l.32-.28ZM200.2,423.66c2.53.09,5.15,1.89,5.47,3.73,1.29-2.25,2.07-3.91,3.08-6.35h-2.9c-.28,0-1.33.05-2.94.09l-2.85.05-.37-1.43c3.91.14,4.19.14,6.17.18h3.04l1.56-1.7,2.44,2.67c.23.23.37.51.37.74,0,.28-.23.55-.64.74l-1.29.51c-2.9,4.92-4.46,7.32-6.81,10.08h10.86l2.07-2.44,3.04,2.16c.41.28.55.51.55.78,0,.37-.28.6-.69.6h-16.79c-4.19,3.59-6.12,4.97-6.95,4.97-.23,0-.37-.09-.37-.32,0-.28.09-.32,1.15-1.2,2.07-1.7,5.2-5.24,6.85-7.77-.51-.09-.74-.14-.92-.37-.18-.18-.32-.41-.41-.64l-.6-1.79c-.37-1.15-.74-1.56-2.25-2.9l.14-.37ZM222.37,455.49l2.81-3.27,3.63,2.81c.41.28.6.6.6.92,0,.37-.28.69-.6.69h-24.57c-1.15,0-1.7,0-7.5.18l-.51-1.56c1.29.05,3.13.09,8,.23h9.43c.83-2.71,1.29-4.88,1.79-8.28l3.22.97c.64.18.97.46.97.78s-.28.69-.64.92l-.97.55-2.81,5.06h7.13ZM204.8,438.15h13.85l.92-1.61,2.85,2.58c.23.18.37.41.37.6,0,.23-.18.37-.46.46l-.55.23v6.03c0,.69-.92,1.15-2.35,1.15-.41,0-.55-.18-.55-.64v-1.33h-14.22v1.43c3.08,1.33,4.74,3.27,4.74,5.43,0,1.29-.78,2.12-1.98,2.12-.55,0-.87-.23-1.15-.78q-.28-.6-.46-2.53c-.14-1.24-.55-2.21-1.29-3.22-.92.55-1.61.78-2.12.78-.41,0-.55-.18-.55-.69v-11.64l2.94,1.66ZM218.88,444.5v-5.25h-14.22v5.25h14.22ZM213.68,418c.64,1.89,2.39,4.88,3.86,6.58,1.2-1.24,2.21-2.53,3.91-5.01l2.39,1.61c.32.23.51.51.51.78,0,.32-.28.55-.74.64l-1.24.18-3.86,2.85c.74.78,1.1,1.1,2.48,2.35,1.33-1.15,2.44-2.35,4.55-5.06l2.44,1.84c.23.18.37.46.37.69,0,.32-.23.51-.74.55l-1.2.14-4.19,2.76c2.9,1.89,4.74,2.81,8,4.19-2.12,1.43-2.35,1.66-3.31,3.04-7.54-4.79-12.19-10.72-13.94-17.85l.69-.28Z"/>
        <path class="cls-4" d="M245.28,424.62c0-3.04-.46-3.77-2.35-3.86-.37-.05-.41-.05-.41-.18,0-.37,1.79-1.2,2.58-1.2.69,0,2.07.46,2.9.97.6.41.97.92.97,1.38,0,.23-.05.37-.32,1.29-.37,1.24-.51,1.98-.78,3.82,2.07-.78,2.76-1.24,3.27-2.12,1.43.09,2.76.97,2.76,1.7,0,.41-.23.6-1.1,1.01-1.52.74-3.5,1.47-5.38,1.98-.32,2.39-.37,2.71-.69,5.01.97.28,1.61,1.06,1.61,1.98,0,.64-.37,2.12-1.47,5.8-1.29,4.42-1.75,6.53-1.75,8.24,0,2.12,1.61,3.08,5.2,3.08,2.76,0,7.04-.78,8.83-1.61,1.56-.74,2.16-1.84,2.16-4.05,0-1.38-.05-1.93-.69-8.7-.32-3.04-.46-5.24-.46-6.62,0-2.94,1.2-4.46,3.5-4.46,4.19,0,9.52,4.37,9.52,7.82,0,1.52-1.24,3.22-2.3,3.22-.18,0-.32-.09-.46-.32-1.1-1.24-2.16-1.61-4.83-1.56-.37,0-.55-.09-.55-.32,0-.18.05-.23.41-.28.05,0,.32-.05.55-.14.64-.09,1.15-.23,1.66-.32,1.43-.28,1.89-.6,1.89-1.29,0-.74-.87-2.35-1.84-3.36-1.33-1.43-3.04-2.35-4.28-2.35-1.33,0-2.02,1.2-2.02,3.63,0,3.04.51,7.64,1.15,10.4.69,3.13,1.29,4.46,2.44,5.47.18.46.23.69.23,1.06,0,1.47-.97,2.76-2.81,3.82-2.53,1.43-6.81,2.35-10.86,2.35-5.89,0-8.69-1.79-8.69-5.57,0-.83.18-1.98.55-3.87-.69.55-1.06.69-1.79.69-1.79,0-2.94-2.12-2.94-5.34,0-4.37,2.48-7.87,5.57-7.87.18,0,.37,0,.69.05.09-2.07.14-2.39.23-4.09-2.94.83-4.6,1.15-5.98,1.15-1.47,0-2.12-.37-2.62-1.47-.41-.83-.69-2.21-.69-3.27,0-.23.09-.37.28-.37.14,0,.14.05.23.23.55,1.7,1.61,2.48,3.31,2.48,1.29,0,3.17-.37,5.57-1.06,0-.78,0-1.43.05-1.66v-1.33ZM241.87,437.14c-.64,1.15-1.06,3.08-1.06,4.79,0,1.79.69,3.04,1.66,3.04.87,0,1.33-.64,1.61-2.21.37-1.98.87-5.34.87-5.75,0-.92-.32-1.47-.92-1.56s-1.66.74-2.16,1.7Z"/>
        <path class="cls-4" d="M278.4,440.03c4.19.18,5.89.23,7.96.23h3.17c1.15-1.52,1.33-1.75,2.25-3.4h-3.59v1.2c0,.51-1.01,1.01-1.98,1.01-.37,0-.64-.28-.64-.64v-13.48l3.36,1.84h2.94v-3.68h-4.37c-2.81,0-4.51.05-8.88.23l-.55-1.61c4.88.23,6.85.28,9.43.28h4.37v-5.34l3.4.18c.6.05,1.06.41,1.06.87,0,.37-.28.74-.69.92l-1.1.46v2.9h8.56v-5.34l3.54.41c.74.09,1.15.41,1.15.87,0,.41-.18.55-1.06.97l-.92.51v2.58h7.77l2.81-2.99,3.5,2.9c.41.28.51.46.51.69,0,.28-.28.51-.64.51h-13.94v3.68h3.31l.97-1.7,2.81,2.12c.32.28.64.64.64.83,0,.14-.18.32-.64.51l-.78.41v8.42c0,.69-.97,1.33-2.02,1.33-.46,0-.64-.18-.64-.64v-1.2h-14.12c-1.1,1.61-1.29,1.89-2.58,3.4h21.25l2.81-3.04,3.22,2.62c.37.28.55.6.55.87,0,.32-.28.64-.55.64h-11.92c2.62,2.44,8.14,4.65,13.34,5.38-1.75,1.66-1.93,1.84-3.08,3.36-.28-.14-1.01-.55-1.15-.6-4.42-2.07-8.46-5.11-10.86-8.14h-14.58c-1.38,1.61-1.56,1.84-2.94,3.08l2.16,1.1h16.01l.87-1.38,2.71,2.16c.37.28.55.51.55.69,0,.14-.09.28-.46.46l-.78.41v9.43c0,.55-.83.97-1.98.97-.55,0-.69-.14-.69-.6v-1.79h-16.84v1.61c0,.83-.6,1.24-1.93,1.24-.51,0-.69-.18-.69-.74v-12.65c-3.45,2.85-8.19,5.8-9.25,5.8-.18,0-.32-.14-.32-.32,0-.23.05-.28,1.43-1.1,3.4-2.3,7.27-5.8,9.11-8.37h-2.39c-1.7,0-3.17.05-7.31.18l-.64-1.52ZM309.45,431.16v-3.27h-21.25v3.27h21.25ZM309.45,435.76v-3.5h-21.25v3.5h21.25ZM307.24,450.11v-3.45h-16.84v3.45h16.84ZM307.24,454.8v-3.59h-16.84v3.59h16.84ZM303.1,426.79v-3.68h-8.56v3.68h8.56Z"/>
        <path class="cls-4" d="M335.62,427.8c-1.2.74-1.7,1.47-1.7,2.53,0,.64.09.92.37,1.24.32.37.46.64.46,1.06,0,.55,0,.64-.6,3.13-.74,3.13-1.29,6.3-1.29,7.5s.51,2.02,1.2,2.02c.37,0,.92-.37,1.47-.92,3.4-3.59,6.99-5.29,11.04-5.29,4.69,0,7.82,2.9,7.82,7.22,0,4.65-3.36,8.19-9.57,10.08-2.44.78-8.28,1.66-10.72,1.66-.51,0-.87-.28-.87-.64,0-.18.09-.18.69-.28,3.68-.32,7.18-1.2,9.98-2.53,4.09-1.89,6.9-5.38,6.9-8.65,0-3.08-2.12-5.01-5.52-5.01-2.58,0-5.11,1.1-7.31,3.22-1.29,1.24-1.84,2.3-2.3,4.32-.23.87-.6,1.29-1.15,1.29-.74,0-2.44-.78-3.08-1.43-.78-.74-1.1-1.75-1.1-3.45,0-1.15.14-2.3.6-4.46.46-2.35.6-3.68.6-5.43,0-.28,0-1.01-.05-1.33-.05-.74-.05-1.24-.05-1.47,0-2.53,1.52-4.46,4.37-5.57,1.38-.55,3.31-.97,4.74-1.06.32-.05.46-.09.46-.23,0-.09-.09-.14-.23-.18-2.85-.51-4.6-2.58-4.6-5.43,0-1.01.28-1.66.69-1.66.18,0,.23.05.23.37.14,2.62,1.98,3.82,6.12,4,.83,0,1.15.14,1.7.64.74.69,1.33,1.98,1.33,2.85,0,.74-.51,1.29-1.2,1.29-.14,0-.41-.05-.69-.09-1.61-.37-2.99-.55-3.73-.55-1.7,0-3.82.55-5.01,1.24Z"/>
        <path class="cls-4" d="M395.38,446.25c0,.78-1.06,2.48-2.62,4.28-3.63,4.05-7.77,6.07-12.61,6.07-3.27,0-5.84-.97-7.68-2.9-1.93-2.07-2.76-4.79-2.76-8.97,0-2.76.05-3.36.92-15.37q.28-3.86.28-4.42c0-2.94-.69-4.19-2.25-4.19-.28,0-.41-.09-.41-.23,0-.51.97-.92,2.02-.92,2.35,0,4.6,2.67,4.6,5.52,0,.69,0,.74-.69,3.5-.87,3.68-1.93,12.24-1.93,15.78,0,6.44,2.53,9.34,8.28,9.34,3.31,0,6.85-1.29,10.08-3.73,1.66-1.2,3.13-2.62,3.91-3.73.18-.32.37-.46.55-.46s.32.18.32.41Z"/>
        <path class="cls-4" d="M414.42,451.54c0,3.17-2.48,5.61-5.71,5.61-2.99,0-5.52-2.58-5.52-5.61s2.53-5.57,5.61-5.57,5.61,2.48,5.61,5.57ZM405.13,451.67c0,1.89,1.7,3.54,3.68,3.54s3.68-1.7,3.68-3.68-1.66-3.68-3.68-3.68-3.68,1.7-3.68,3.82Z"/>
      </g>
      <g>
        <path class="cls-2" d="M61.71,111.98c1.49,1,1.99,1.66,1.99,2.82,0,1.33-.83,1.99-2.49,2.32l-4.15.66c-11.95,13.61-28.21,25.55-47.12,34.68l-1.49-1.83c20.57-13.44,35.67-28.71,44.14-44.63l9.13,5.97ZM134.55,34l9.79-9.96,12.44,9.79c1,.83,1.33,1.49,1.33,2.32,0,1.33-.83,1.99-2.16,1.99H36.32c-7.8,0-13.94.17-24.23.66l-3.32-5.97c17.75,1,23.23,1.16,38.83,1.16h31.03v-15.43c0-4.65-.17-6.3-.33-9.62l13.11,1.99c2.16.33,3.15,1.16,3.15,2.82,0,1.33-.83,2.32-2.65,2.99l-3.65,1.49v15.76h46.29ZM88.59,94.23l.17,11.78c.17,19.75.33,24.39.5,34.35.17,2.49.17,4.48.17,5.31,0,5.14-.66,6.97-3.15,9.12-2.99,2.49-7.3,4.48-10.12,4.48-2.49,0-2.49-.17-2.82-6.31,0-1.49-.33-1.83-1.49-2.32-2.99-1-3.15-1.16-14.6-4.48l.17-2.32c4.65.33,9.13.66,10.45.83,3.32.33,6.97.5,8.46.5,2.16,0,2.82-.66,2.82-2.82v-48.12h-31.53v7.96c0,1.49-.17,2.16-1.16,2.66-1.33.83-4.48,1.49-6.64,1.49-1.49,0-1.99-.5-1.99-2.66,0-.83,0-3.32.17-5.48.5-17.26.66-26.05.66-32.69,0-4.81,0-7.63-.33-14.27l10.79,5.97h69.85l4.15-6.14,8.96,8.3c1.33,1.33,1.66,1.99,1.66,2.99,0,1.16-.66,1.99-2.16,2.32l-2.16.66.17,14.1c.17,15.6.17,16.09.33,19.08v.66c0,1.99-3.48,3.65-7.8,3.65-1.33,0-1.83-.66-1.83-2.32v-6.3h-31.69ZM120.28,61.37H47.61v28.71h72.67v-28.71ZM104.52,107.33c12.78,4.15,22.57,8.63,30.86,13.94,11.12,7.3,17.59,15.43,17.59,22.07,0,3.48-2.32,6.14-5.48,6.14-3.32,0-3.48-.17-8.46-8.79-7.3-12.11-20.57-23.73-35.67-31.19l1.16-2.16Z"/>
        <path class="cls-2" d="M30.18,316.9c.33-3.32.83-30.53,1-50.77-10.12,7.96-13.77,10.45-24.06,16.59l-1-1.99c10.29-7.96,14.6-11.61,25.05-21.4v-.83l-.17-8.13,5.81,3.48c5.64-5.48,10.62-10.95,15.43-16.59,1.16-1.33,1.33-1.49,1.83-2.16h-19.41c-7.8,0-13.94.17-24.23.66l-3.32-5.97c17.09.83,23.73,1.16,34.68,1.16h3.82v-24.89h-7.13c-7.8,0-11.78.17-20.74.5l-3.32-5.64c14.93.66,21.4,1,31.19,1v-17.26c0-4.65-.17-6.47-.33-9.62l12.78,1.99c2.16.33,3.15,1.16,3.15,2.82,0,1.33-.83,2.32-2.65,2.99l-3.65,1.33v17.75h2.49l8.63-9.46,11.28,9.29c.66.5.83.66,1.33,1.33,4.31-6.47,6.47-10.29,10.79-18.75l10.45,7.3c1.16.83,1.83,1.83,1.83,2.99,0,1.49-1.16,2.32-3.65,2.49l-4.31.17c-11.95,16.76-17.42,23.89-25.88,33.68h11.95l9.79-9.79,12.44,9.62c1,.83,1.49,1.49,1.49,2.32,0,1.16-.83,1.99-2.32,1.99h-37.17c-7.8,8.46-16.43,17.09-21.57,21.4h30.2l4.15-6.31,8.96,8.46c1.16,1.33,1.66,1.99,1.66,2.99,0,1.16-.66,1.99-2.16,2.32l-2.65.83v12.28c.5,25.55.66,38.49.66,38.66.17.33.17.5.17.83,0,1-.5,1.66-1.66,2.16-1.33.5-4.65,1.33-5.64,1.33-1.33,0-1.83-.66-1.83-2.32v-8.13h-34.84v11.12c0,1.66-.17,2.16-1.16,2.82-1.16.66-4.48,1.49-6.3,1.49-1.33,0-1.83-.66-1.83-2.32v-5.81ZM74.15,284.87h-34.51l-.17,20.57h34.84l-.17-20.57ZM73.99,260.65h-34.18l-.17,20.08h34.51l-.17-20.08ZM54.91,206.06v24.89h2.65c7.8-9.79,12.44-15.76,14.27-18.25,1.82-2.32,3.15-4.31,4.81-6.64h-21.74ZM115.97,194.28v125.44c0,1.49-.33,2.16-1.16,2.65-.83.5-5.48,1.49-6.97,1.49-1.83,0-1.83-.17-1.83-5.31,0-2.16,0-8.46.17-16.43.33-17.59.83-72.34.83-94.25,0-9.46-.17-13.27-.33-23.89l10.95,6.14h24.89l4.15-5.48,9.13,8.63c1.49,1.49,1.99,2.16,1.99,3.15,0,1.16-.83,1.83-2.82,2.49l-2.99.83-22.57,36.67c9.79,8.63,14.44,13.27,17.92,18.25,5.64,7.8,8.3,15.93,8.3,25.39,0,10.79-3.32,17.26-10.62,21.4-2.49,1.33-5.31,2.16-7.13,2.16-1.66,0-2.49-.83-2.65-2.99-.33-3.82-.66-4.31-2.82-5.31l-11.28-4.15.5-2.16c7.13,1.16,12.44,1.66,15.27,1.66,6.64,0,9.29-3.98,9.29-14.27,0-14.43-3.82-21.74-20.41-39.49l17.42-42.64h-27.21Z"/>
        <path class="cls-1" d="M32.51,426.07c1,10.95,1.33,15.1,1.33,19.74,0,21.24-7.8,37.33-18.09,37.33-2.99,0-5.14-2.32-5.14-5.48,0-2.99.83-4.31,4.98-8.3,10.12-10.45,13.77-21.4,14.1-43.14l2.82-.17ZM60.88,419.43c-.17,10.62-.33,18.09-.33,21.57l-.17,42.14v9.46c0,2.66.33,3.48,1.66,3.98,1.33.66,8.3,1,20.57,1,18.92,0,24.56-.83,27.21-3.82,2.32-2.49,4.65-11.12,7.13-26.55l2.32.33-1,24.39c0,1.33.17,1.83,1.66,2.49,3.48,1.83,3.98,2.49,3.98,4.31,0,5.81-8.63,7.63-37.67,7.63-34.35,0-35.34-.33-35.34-12.44v-4.15l.33-69.69c0-5.31,0-6.14-.5-9.96l13.44,1.99c2.16.33,3.15,1.16,3.15,2.82,0,1.33-.83,2.32-2.65,2.99l-3.82,1.49ZM55.74,372.15c23.4,9.96,38.33,25.88,38.33,40.65,0,4.31-2.49,7.3-5.97,7.3-1.83,0-3.32-.83-4.15-2.32q-.66-1.33-3.82-11.95c-4.81-13.94-11.61-22.57-25.39-31.86l1-1.83ZM113.81,419.43c24.39,11.62,41.98,33.52,41.98,52.1,0,5.31-2.16,8.46-5.97,8.46-3.32,0-5.14-1.99-6.3-6.47-5.64-26.71-12.44-38.16-30.7-52.27l1-1.83Z"/>
      </g>
      <g>
        <path class="cls-3" d="M83.99,342.86c-4.36,0-7.9,3.54-7.9,7.9s3.54,7.9,7.9,7.9,7.9-3.54,7.9-7.9-3.54-7.9-7.9-7.9ZM83.99,357.47c-3.7,0-6.71-3.01-6.71-6.71s3.01-6.71,6.71-6.71,6.71,3.01,6.71,6.71-3.01,6.71-6.71,6.71Z"/>
        <path class="cls-3" d="M83.99,344.98c-3.19,0-5.78,2.59-5.78,5.78s2.59,5.78,5.78,5.78,5.78-2.59,5.78-5.78-2.59-5.78-5.78-5.78Z"/>
      </g>
    </g>
  </g>
</svg>