<?xml version="1.0" encoding="UTF-8"?>
<svg id="_レイヤー_2" data-name="レイヤー 2" xmlns="http://www.w3.org/2000/svg" xmlns:xlink="http://www.w3.org/1999/xlink" viewBox="0 0 212.04 212.04">
  <defs>
    <style>
      .cls-1 {
        fill: url(#_ブロンズ-2);
      }

      .cls-1, .cls-2, .cls-3 {
        stroke-width: 0px;
      }

      .cls-4 {
        fill: none;
        stroke: url(#_ブロンズ);
        stroke-miterlimit: 10;
      }

      .cls-2 {
        fill: #231815;
      }

      .cls-3 {
        fill: #9a512a;
      }
    </style>
    <linearGradient id="_ブロンズ" data-name="ブロンズ" x1="0" y1="106.02" x2="212.04" y2="106.02" gradientUnits="userSpaceOnUse">
      <stop offset="0" stop-color="#421314"/>
      <stop offset=".08" stop-color="#6f4b26"/>
      <stop offset=".38" stop-color="#9a804f"/>
      <stop offset=".56" stop-color="#d3c5a3"/>
      <stop offset=".8" stop-color="#8c8058"/>
      <stop offset=".96" stop-color="#805429"/>
    </linearGradient>
    <linearGradient id="_ブロンズ-2" data-name="ブロンズ" x1="21.84" y1="-11.62" x2="191.84" y2="225.95" xlink:href="#_ブロンズ"/>
  </defs>
  <g id="_レイヤー_1-2" data-name="レイヤー 1">
    <circle class="cls-4" cx="106.02" cy="106.02" r="105.52"/>
    <circle class="cls-1" cx="106.02" cy="106.02" r="101.54"/>
    <g>
      <path class="cls-2" d="M54.32,44.33c-.81,0-.81.09-.99,1.59-.84,7.23-5.37,9.93-5.58,9.93-.12,0-.18-.09-.18-.21,0-.15.54-.78.66-.93,3.24-4.71,3.24-11.94,3.24-16.62,0-3.03-.15-6.54-.39-7.92-.03-.12-.21-1.08-.21-1.17,0-.06,0-.15.09-.15.15,0,.36.09,2.16.99.84.42,1.14.42,1.62.42h8.55c.69,0,.93-.12,1.23-.51.69-.84.75-.93.93-.93.3,0,2.37,1.56,2.37,1.95,0,.12-.12.24-.15.27-.57.39-.69.51-.84.87-.15.48-.15.84-.15,4.53s.03,7.14.12,10.68c.03.78.21,4.71.21,5.61,0,.72-.09,1.35-.57,1.83-.27.27-1.47,1.08-2.13,1.08-.39,0-.48-.15-.66-.48-.6-1.23-2.16-2.1-3.6-2.46-.54-.12-.75-.18-.75-.39,0-.12.18-.18.36-.18.3,0,3.3.27,3.69.27.9,0,1.05-.18,1.05-.93,0-.87.03-5.19.03-6.18,0-.84-.33-.96-.96-.96h-9.15ZM54.53,37.46c-.24,0-.81,0-.9.54-.06.24-.09,2.67-.09,3.87,0,1.32,0,1.68.93,1.68h9.06c.93,0,.93-.03.93-2.97q0-3.12-.93-3.12h-9ZM54.53,31.04c-.63,0-.93.21-.93.9v3.69c0,.57.03,1.02.93,1.02h9c.24,0,.66,0,.84-.39.09-.24.09-2.49.09-2.88,0-2.1,0-2.34-.93-2.34h-9Z"/>
      <path class="cls-2" d="M88.04,36.26c-.72.57-2.01,2.34-2.01,2.64,0,.45.78.45.99.45,1.17,0,3.57-.3,4.53-.51.21-.03,1.2-.45,1.44-.45.69,0,2.4,1.77,2.4,2.28,0,.33-.36.42-.39.45-1.14.27-1.26.3-1.68.72-1.02,1.02-2.58,2.67-3.63,3.66-1.02.96-1.11,1.08-1.11,1.32,0,.18.06.24.36.51.84.75,1.74,1.8,1.74,3,0,.27-.09,1.17-1.05,1.17-.51,0-.69-.18-1.2-1.05-1.38-2.37-3.39-4.56-4.98-5.73-.09-.09-.78-.6-.78-.69,0-.06.06-.12.15-.12.18,0,2.07.75,3.69,1.71.15.09,1.02.57,1.17.57.27,0,.42,0,1.77-2.01.81-1.2,2.16-3.39,2.16-3.75,0-.12-.06-.21-.54-.21-.63,0-3.84.45-4.56.45-.15,0-.36-.03-.6-.12-.06-.03-.69-.27-.72-.27-.21,0-.39.21-.75.69-1.35,1.68-2.94,3.09-4.23,4.14-1.08.84-3.75,2.67-4.38,2.67-.09,0-.15-.06-.15-.15,0-.06,1.17-1.02,1.29-1.14,3.78-3.12,8.79-10.32,8.79-11.82,0-.21-.06-.42-.39-.75-.15-.12-1.02-.6-1.02-.81,0-.27.87-.3,1.11-.3,1.56,0,3.45,2.07,3.45,2.4,0,.42-.15.51-.87,1.05Z"/>
      <path class="cls-2" d="M102.92,41q-.12-.15-.12-.21c0-.06.06-.06.12-.06.48,0,2.88.18,3.42.18s.6-.06.87-.42c.03-.03.48-.6.78-.6s2.04,1.08,2.04,1.44c0,.09-.39.42-.42.45-.18.15-.42.39-.54.57-.09.18-.09,3.6-.09,4.14,0,.75,0,2.55.03,2.91.03.33.09.57.24.84,1.35,2.16,3.72,2.52,8.97,2.52,7.41,0,9.78-.6,11.52-1.02.24-.06,1.32-.36,1.41-.36.06,0,.12,0,.12.09s-.39.33-.45.42c-.69.63-1.26,1.14-1.47,2.04-.18.72-.21.87-.51.96-.33.09-7.65.15-8.43.15-8.94,0-10.47-2.1-11.55-4.14-.03-.03-.33-.63-.42-.63s-.18.06-.21.09c-.03.03-2.94,3.72-3.18,4.23-.24.45-.27.48-.45.48-.72,0-2.13-2.37-2.13-2.7,0-.24.18-.24.48-.24,1.44,0,3.9-1.38,4.02-2.1.03-.18.03-6.81.03-7.41,0-.3,0-.9-.75-.9-.36,0-2.22.15-2.46.15-.12,0-.18-.06-.27-.18l-.6-.69ZM110.6,35.75c0,.39-.15,1.2-.96,1.2-.72,0-.9-.24-2.31-2.61-.03-.06-1.38-2.25-3.6-4.17-.09-.03-.42-.33-.42-.36,0-.24,2.1.51,2.85.9,2.79,1.5,4.44,3.81,4.44,5.04ZM123.8,36.53c.45,0,.72-.06.93-.45.24-.42.39-.57.66-.57.15,0,2.43.87,2.43,1.47,0,.24-.09.3-.57.63-.51.36-.72.63-1.14,1.68-.78,2.07-1.65,3.57-2.52,4.86-.24.33-.45.69-.45.81,0,.54,3.84,2.85,7.26,3.66.09,0,.45.09.45.15,0,.12-.06.12-.33.18-.51.09-1.11.27-1.56.51-.27.12-1.35,1.05-1.68,1.05s-2.25-.9-4.44-2.91c-.87-.81-.99-.9-1.14-.9-.18,0-.27.06-.96.66-3.06,2.55-7.02,3.54-7.29,3.54-.09,0-.15-.06-.15-.12s1.56-.93,1.86-1.11c2.88-1.77,5.28-3.81,5.28-4.41,0-.15-.3-.57-.39-.75-1.32-1.92-2.16-3.33-2.82-5.76-.33-1.2-.39-1.41-.93-1.41-.87,0-1.17,0-1.2.84-.21,4.29-.3,6.87-1.92,9.78-.93,1.71-2.37,2.7-2.55,2.7-.03,0-.06,0-.06-.06,0-.03.03-.09.39-.63,1.47-2.13,2.37-4.86,2.37-12.3,0-1.65-.06-4.47-.18-5.94-.03-.21-.12-1.17-.12-1.38,0-.36.15-.48.36-.48.27,0,.78.24,1.59.72.63.36.81.39,1.17.39h7.5c.84,0,1.23,0,1.47-.09.3-.15,1.29-1.62,1.65-1.62.3,0,2.58,1.62,2.58,2.07s-.48.45-1.38.45h-11.88c-.9,0-.93.21-.93,3.72,0,.9.3,1.02.93,1.02h7.71ZM118.22,37.34c-.27,0-.6,0-.6.36,0,1.38,3.18,6,3.93,6s2.85-4.98,2.85-5.88c0-.48-.54-.48-.78-.48h-5.4Z"/>
      <path class="cls-2" d="M136.58,35.36c.57,0,3.93.81,3.93,2.82,0,.9-.75,1.38-1.11,1.38-.42,0-.54-.18-1.41-1.8-.54-.99-.72-1.17-1.44-1.92-.09-.09-.27-.3-.3-.36.03-.09.24-.12.33-.12ZM138.11,46.43c1.23-.93,2.31-3.27,5.16-9.72.18-.39.63-1.47.84-1.47.18,0,.21.12.21.21,0,.3-1.26,3.99-1.53,4.68-1.95,5.07-2.46,6.48-2.46,7.71,0,.99,1.32,5.25,1.32,6.12,0,1.08-.69,1.56-1.26,1.56-1.62,0-1.65-1.65-1.74-4.17-.03-.87-.06-2.16-1.29-3.24-.15-.12-.96-.54-.96-.63,0-.06,1.47-.87,1.71-1.05ZM138.8,29.06c.09,0,1.41.24,2.67.84.66.3,1.59.81,1.59,2.1,0,.99-.54,1.5-1.05,1.5-.42,0-.72-.3-1.02-.9-.24-.51-.66-1.32-.93-1.62-.3-.36-.87-1.08-1.44-1.8,0-.06.09-.12.18-.12ZM155.9,45.71c.66,0,.93-.24.93-.87,0-.3-.09-1.14-.09-1.32s0-.27.27-.27c.09,0,2.52.39,2.52,1.08,0,.15-.03.18-.48.69-.15.18-.15.57-.15.9,0,.78.09,6.33.12,6.99.03.27.15,1.5.15,1.74,0,.9-.99,1.29-1.77,1.29-.63,0-.63-.36-.63-.75,0-.33.06-1.92.06-2.22,0-1.71,0-2.28-.96-2.28h-6.42c-.48,0-.51.12-1.08,1.26-.99,2.04-3.15,4.05-3.72,4.05-.03,0-.09-.03-.09-.09,0-.12.33-.48.39-.57,2.04-3.12,2.07-4.95,2.07-7.95,0-2.04,0-4.32-1.32-4.32-.15,0-2.25.45-2.52.45-.09,0-.39-.03-.39-.15,0-.21.81-.51,1.05-.6,4.89-1.77,8.04-4.89,8.04-4.95,0-.03-1.2-1.56-1.44-1.92-.33-.54-.84-1.5-1.41-2.67-.15-.3-.39-.42-.66-.42-.93,0-2.07.03-2.97.09-.12,0-.54.06-.63.06-.12,0-.18-.06-.27-.18l-.6-.69c-.09-.15-.12-.15-.12-.21,0-.03.03-.06.12-.06.21,0,1.14.09,1.32.09,1.26.06,2.61.12,3.87.12h1.41c.3,0,.96,0,.96-.78,0-.39-.12-2.34-.12-2.55,0-.06,0-.12.12-.12.09,0,2.25.27,2.43.3.12.03.36.09.36.3,0,.15-.54.72-.66.84-.06.21-.06.57-.06.66,0,.81,0,1.35.9,1.35h2.64c.45,0,1.38,0,1.53-.18.12-.15,1.02-1.23,1.14-1.35.06-.06.15-.09.27-.09.33,0,2.73,1.68,2.73,1.98,0,.42-.6.42-1.59.42h-3.27c-.15,0-.3,0-.3.15,0,.06.09.09.27.18.27.15.51.21.51.45s-.18.3-.48.45c-.33.15-.51.33-1.08,1.11-.69.9-1.86,2.19-2.31,2.58-.03.03-.12.12-.12.24,0,.18,1.89,1.65,7.53,2.97.36.09,2.28.3,2.28.45-.3.15-1.23.57-1.38.66-.51.33-.75.6-1.2,1.14-.09.12-.24.3-.54.3-.12,0-2.91-1.23-4.74-2.31-1.35-.78-1.5-.9-2.91-2.01-.09-.06-.18-.12-.27-.12s-.6.36-.75.45c-2.76,1.98-3.75,2.4-4.98,2.94-.45.21-.48.24-.48.39,0,.24,0,.3,1.89.63.6.09.72.12.72.3,0,.12-.33.63-.36.66-.12.18-.12.48-.12.6,0,.69.09.69.99.69h5.85ZM155.93,49.91c.9,0,.9-.15.9-2.61,0-.81-.6-.81-.9-.81h-6.06c-.78,0-.96,0-.96,2.58,0,.33.12.84.9.84h6.12ZM150.56,32.81c-.21,0-.57,0-.57.33,0,.78,2.22,3.66,2.79,3.66.54,0,2.61-3.12,2.61-3.6,0-.39-.24-.39-.9-.39h-3.93Z"/>
    </g>
    <path class="cls-3" d="M128.22,82.19c0,10.73-8.89,15.57-15.43,19.88,9.03,5.1,17.27,11.9,17.27,24.33,0,13.86-10.86,22.24-26.16,22.24-11.64,0-24.2-5.89-24.2-21.84,0-9.81,9.02-16.48,17.66-21.97-7.59-4.19-14.78-10.46-14.91-20.54-.13-13.34,10.73-21.19,24.07-21.19,11.64,0,21.71,6.54,21.71,19.1ZM120.37,128.89c0-10.33-9.81-17.53-19.36-21.84-8.63,5.89-11.9,12.95-11.9,18.57,0,10.99,6.41,19.1,16.09,19.1s15.17-6.28,15.17-15.83ZM91.86,81.54c0,9.03,8.89,14.52,17.13,18.57,6.02-4.32,10.46-10.2,10.46-17.66,0-7.98-5.49-15.43-13.86-15.43-9.03,0-13.73,6.93-13.73,14.52Z"/>
    <g>
      <path class="cls-2" d="M66.78,165.36c-.99,0-.99.15-1.14,1.11-.81,5.7-1.93,9.87-6.88,13.89-1.35,1.11-2.55,1.77-2.82,1.77-.03,0-.06-.03-.06-.06,0-.09.27-.36.36-.45,5.46-5.28,6.33-9.99,6.78-12.93.45-2.79.75-7.02.75-9.6,0-.66-.12-1.02-.93-1.02h-4.23c-.66,0-2.73,0-3.78.09-.09,0-.54.06-.63.06-.12,0-.15-.06-.27-.21l-.57-.66c-.12-.15-.15-.18-.15-.21,0-.06.06-.06.12-.06.21,0,1.14.09,1.32.09,1.38.06,2.73.12,4.11.12h14.07c1.38,0,1.53,0,2.13-.84.75-1.05.96-1.32,1.38-1.32.78,0,3.18,2.28,3.18,2.52,0,.42-.63.42-1.62.42h-11.56c-.21,0-.54,0-.54.15,0,.09.03.09.54.21.51.09.63.12.63.3s-.72.6-.75.72l-.09,1.86c-.03.42-.15,2.16-.15,2.52,0,.33.06.72.9.72h5.54c.6,0,.9,0,1.26-.39.6-.72.69-.78.9-.78.36,0,2.4,1.32,2.4,1.74,0,.27-.18.39-.6.69-.45.3-.45.48-.51,2.07-.06,1.08-.48,9.84-2.61,12.45-.96,1.14-2.54,1.77-4.04,1.77-.42,0-.45-.06-.69-.78-.33-.93-1.53-1.98-1.74-2.16-.51-.42-.57-.48-.57-.6,0-.06.09-.06.12-.06.18,0,1.02.27,1.2.3.6.12,1.53.33,2.49.33s1.56,0,2.31-2.19c1.05-3.06,1.38-7.98,1.38-10.68,0-.72-.24-.9-1.02-.9h-5.9Z"/>
      <path class="cls-2" d="M90.86,170.16c-.45,0-.96.03-.99.84-.03.87-.03,4.32-.03,9,0,2.04-1.38,2.16-1.65,2.16-.9,0-.9-.42-.9-.81,0-.06.18-2.55.21-3.03.21-3.18.27-16.26.27-16.56,0-.81-.12-4.74-.12-5.61,0-.21,0-.36.15-.36.39,0,1.02.3,1.62.54.48.21.72.24,1.53.24h16.14c.96,0,1.08-.09,1.41-.42.45-.42.63-.54.81-.54s2.4,1.41,2.4,1.83c0,.3-.15.39-.78.87-.48.36-.54.42-.54,3.63,0,2.46.3,14.85.3,17.64,0,2.13-2.28,2.43-2.43,2.43-.51,0-.57-.21-.69-1.02-.15-.81-1.53-1.29-2.4-1.62-1.59-.57-1.77-.63-1.77-.81,0-.15.21-.15.36-.15.39,0,3.12.45,3.72.45.3,0,.66,0,.75-.33.09-.45.12-2.58.12-3.24,0-.6-.03-4.29-.09-4.53-.12-.57-.6-.6-.9-.6h-16.5ZM96.95,169.38c.3,0,.63-.03.78-.36.09-.24.12-6.33.12-7.05,0-.57-.03-4.02-.12-4.23-.18-.36-.45-.36-.78-.36h-6.15c-.24,0-.63.03-.78.36-.09.21-.09,5.22-.09,5.94,0,.63,0,4.95.06,5.22.09.48.63.48.81.48h6.15ZM107.21,169.38c1.05,0,1.05-.21,1.05-2.07,0-.42-.09-9.06-.15-9.42-.12-.51-.51-.51-.99-.51h-6c-.39,0-.75,0-.9.33-.15.3-.15,4.8-.15,5.58s0,5.46.15,5.76c.15.33.48.33.9.33h6.09Z"/>
      <path class="cls-2" d="M137.99,160.14c0-.06.03-.06.09-.06.81,0,7.29,3.12,7.29,6.42,0,1.32-.96,1.56-1.23,1.56-.57,0-.69-.24-1.95-2.46-.48-.84-.72-.93-1.14-.93-.39,0-3.66.39-4.35.45-13.23,1.23-15.24,1.38-15.9,1.68-.09.06-.54.42-.66.42-.57,0-.93-2.76-.93-3.03,0-.24.09-.24.27-.24.12,0,.78.09.93.09,1.92.15,3.42.24,3.9.24,1.05,0,1.23-.09,1.74-.93.21-.3,3.6-5.4,3.87-8.04.06-.51.06-.57.21-.57.24,0,3.63,1.08,3.63,1.77,0,.12-.06.21-.18.3-.12.06-.75.24-.87.33-.33.18-1.47,1.71-2.19,2.64-.51.66-3.45,3.99-3.45,4.23s.6.24.66.24c3,0,8.61-.21,11.73-.45.93-.06,1.02-.09,1.08-.21.3-.57-2.55-3.12-2.55-3.45ZM138.08,170.16c.57,0,.9-.03,1.26-.39.63-.63.69-.72.9-.72.36,0,1.8,1.02,1.8,1.68,0,.24-.21.42-.45.6-.36.27-.45.36-.45,3.33,0,.66.15,3.99.15,4.74,0,2.1-1.56,2.1-1.68,2.1-.84,0-.84-.45-.84-1.14,0-.84-.63-.84-.9-.84h-12.21c-.69,0-.9.24-.93.78-.06,1.32-1.05,1.83-1.74,1.83-.21,0-.75,0-.75-1.05,0-.12.03-.45.06-.87.12-1.83.12-5.79.12-6.24,0-1.65-.03-2.58-.12-3.63,0-.12-.12-.72-.12-.87,0-.18.18-.24.39-.24.39,0,.96.24,2.25.72.57.21.99.21,1.32.21h11.94ZM125.6,170.97c-.93,0-.96.42-.96,1.2v4.95c0,1.23,0,1.59.93,1.59h12.33c.9,0,.93-.42.93-1.2v-4.95c0-1.26,0-1.59-.93-1.59h-12.3Z"/>
      <path class="cls-2" d="M164.9,167.82c2.04,1.05,3.63,1.65,4.98,1.65,1.71,0,4.26-.87,6.06-2.1.27-.18.36-.24.48-.24.33,0,.42.27.42.39,0,.51-4.05,3.48-7.89,3.48-.69,0-1.98-.03-5.37-1.74-3.18-1.62-4.26-1.59-5.01-1.59-1.35,0-3.69.45-5.67,1.71-.15.09-.99.66-1.05.66-.27,0-.39-.21-.39-.39,0-.54,4.05-3.63,7.89-3.63.9,0,2.31.12,5.55,1.8Z"/>
    </g>
    <g>
      <path class="cls-2" d="M68.28,192.22l-.2-.2,2.07-2.07-2.07-2.06.2-.2,2.06,2.07,2.06-2.07.2.2-2.07,2.06,2.07,2.07-.2.2-2.06-2.07-2.06,2.07ZM69.14,189.95c0,.29-.24.53-.53.53s-.54-.24-.54-.53.24-.53.54-.53.53.24.53.53ZM70.88,188.22c0,.28-.23.53-.53.53s-.53-.24-.53-.53.24-.54.53-.54.53.24.53.54ZM70.88,191.69c0,.29-.23.54-.53.54s-.53-.24-.53-.54.24-.53.53-.53.53.24.53.53ZM72.62,189.95c0,.29-.24.53-.54.53s-.53-.24-.53-.53.24-.53.53-.53.54.24.54.53Z"/>
      <path class="cls-2" d="M75.32,188.3c.27,0,.29,0,.35-.05.03-.03.13-.2.17-.2.06,0,.33.29.33.35,0,.08-.04.08-.34.08h-.9c-.56,0-.75.01-.81.01-.02,0-.11.02-.13.02s-.03-.02-.06-.04l-.12-.15s-.03-.03-.03-.04c0-.01,0-.02.02-.02.04,0,.24.02.28.03.31.01.57.02.87.02h.36ZM74.84,192.17c-.2,0-.2.06-.2.34,0,.2-.13.31-.32.31-.12,0-.15-.06-.15-.16,0-.03.01-.18.01-.22.02-.23.03-.83.03-1.01,0-.08,0-.38-.01-.53,0-.04-.03-.25-.03-.27,0-.03.02-.04.05-.04.06,0,.3.11.36.13.12.05.19.05.27.05h.46c.07,0,.11,0,.18-.03.03-.01.13-.1.15-.1.05,0,.43.26.43.36,0,.03-.04.08-.09.11-.09.07-.1.08-.1.2,0,.06.02.71.02.75,0,.06.03.27.03.31,0,.25-.26.25-.28.25-.17,0-.17-.11-.17-.29,0-.08,0-.17-.21-.17h-.42ZM75.13,189.17c.11,0,.13,0,.18-.03.04-.03.21-.23.26-.23.06,0,.34.29.34.35,0,.07-.09.07-.21.07h-.75c-.13,0-.26,0-.42.01-.02,0-.13.02-.15.02-.03,0-.04-.03-.05-.04l-.11-.15s-.01-.02-.01-.03c0-.02.01-.02.03-.02.03,0,.15.01.18.02.31.02.39.02.52.02h.2ZM75.18,189.96c.14,0,.16,0,.21-.06.08-.09.13-.15.17-.15.05,0,.32.22.32.3,0,.08-.08.08-.21.08h-.68c-.11,0-.27,0-.41.01-.03,0-.14.02-.16.02s-.03-.01-.05-.04l-.1-.15s-.02-.03-.02-.04c0-.02.02-.02.03-.02.03,0,.14.02.16.02.31.03.41.03.55.03h.2ZM75.23,187.47c.15,0,.18,0,.25-.11.07-.11.1-.15.15-.15.07,0,.37.31.37.36,0,.08-.09.08-.22.08h-.79c-.12,0-.27,0-.42,0-.03,0-.13.02-.15.02-.03,0-.04-.02-.05-.04l-.11-.15s-.01-.02-.01-.04c0-.01.01-.01.03-.01.03,0,.13.02.16.02.21.01.36.02.54.02h.25ZM74.81,190.94c-.2,0-.2,0-.2.59,0,.43,0,.47.2.47h.46c.05,0,.15,0,.18-.08.03-.05.03-.5.03-.59,0-.34,0-.4-.2-.4h-.46ZM78.6,188.36c.27,0,.29,0,.35-.05.04-.04.18-.29.24-.29.07,0,.44.36.44.44,0,.07-.03.07-.34.07h-1.13c-.2,0-.24,0-.24.9,0,.1,0,.2.16.2.35,0,.39,0,.45-.1.13-.2.14-.22.18-.22.08,0,.5.34.5.41,0,.07-.03.07-.34.07h-.75c-.21,0-.21.05-.21.5v.52c.03.12.14.12.2.12h.43c.27,0,.29,0,.35-.04.04-.04.19-.3.25-.3.07,0,.57.37.57.44s-.03.07-.34.07h-1.26c-.11,0-.2.02-.2.22s.02,1.06.02,1.24c0,.08,0,.27-.31.27-.16,0-.18-.04-.18-.2,0-.21.04-1.13.04-1.32,0-.21-.05-.21-.38-.21-.26,0-.55.01-.68.02-.02,0-.11.01-.13.01-.03,0-.04-.01-.06-.04l-.12-.15s-.03-.03-.03-.04c0,0,.01-.01.03-.01.04,0,.24.02.28.03.51.02.69.02.91.02.06,0,.15,0,.17-.07.03-.06.02-.71.02-.8,0-.2-.03-.26-.24-.26-.22,0-.5,0-.71.02-.02,0-.11.01-.13.01-.03,0-.04-.01-.06-.04l-.12-.15s-.03-.03-.03-.04.01-.01.03-.01c.05,0,.26.02.31.02.15,0,.53.03.65.03.2,0,.26,0,.29-.09.01-.04.01-.53.01-.59,0-.38,0-.42-.21-.42-.23,0-.45,0-.68.02-.02,0-.11.01-.13.01s-.03-.01-.06-.04l-.12-.15s-.03-.03-.03-.04,0-.01.02-.01c.04,0,.24.02.28.02.31.01.58.03.87.03h.46c.13,0,.2,0,.52-.85.04-.12.05-.15.11-.4,0-.04.03-.08.07-.08s.52.32.52.44c0,.06-.02.07-.2.13-.09.03-.69.64-.69.72,0,.04.04.04.07.04h.29ZM76.89,187.24c.64.34.64.55.64.69,0,.23-.17.33-.22.33-.1,0-.11-.04-.28-.42-.06-.13-.17-.35-.4-.64-.01-.02-.04-.06-.03-.08.02-.03.27.1.3.12Z"/>
      <path class="cls-2" d="M81.41,188.1c0,.06-.11.31-.12.36-.09.32-.27,1.73-.27,2.27,0,.64.12,1.22.97,1.22.31,0,.77-.06,1.34-.33.1-.04.58-.31.61-.31s.03.02.03.03c0,.07-.94,1.1-2.14,1.1-.83,0-1.22-.48-1.22-1.76,0-.4.01-.52.15-1.77.03-.21.08-.73.08-.91,0-.11-.02-.22-.06-.31,0-.02-.07-.17-.07-.17,0-.04.05-.06.09-.06.33,0,.61.52.61.66Z"/>
      <path class="cls-2" d="M85.84,187.29c.15,0,.78.32.78.56,0,.17-1.71,1.82-1.71,2.1,0,.11.05.2.19.35.57.62,1.43,1.55,1.43,1.99,0,.21-.14.3-.27.3-.2,0-.24-.12-.37-.5-.2-.56-.89-1.41-1.06-1.61-.2-.24-.25-.34-.25-.47,0-.17.08-.36.52-.9.63-.79.87-1.12.87-1.36,0-.13-.06-.23-.16-.37-.02-.03-.03-.06-.02-.08,0-.01.03-.01.04-.01Z"/>
      <path class="cls-2" d="M88.68,192.06c0,.14-.06.26-.21.26-.32,0-.64-.64-.64-1.62,0-.38.03-.68.17-1.25.18-.78.19-.82.19-1.01,0-.22-.03-.32-.15-.53-.02-.04-.12-.18-.12-.22s.08-.05.11-.05c.36,0,.68.64.68.75,0,.05-.28.83-.33.99-.13.42-.23.82-.23,1.28,0,.04,0,.45.15.45.06,0,.06-.03.18-.38.03-.08.22-.64.26-.64.03,0,.03.04.03.06,0,.2-.18,1.12-.18,1.31,0,.1.09.52.09.61ZM91.21,191.7c-.17.35-.52.61-.95.61s-.8-.26-.8-.64c0-.09,0-.76,1.31-.78.16,0,.16-.04.16-.44,0-.04-.02-.71-.03-.89,0-.04,0-.11-.05-.15-.01-.01-.26-.01-.29-.01-.72,0-.94-.5-.94-.57,0-.02,0-.04.03-.04s.15.08.17.09c.18.08.44.13.71.13q.35,0,.35-.42c0-.4,0-.58-.12-.73-.03-.03-.2-.17-.2-.22,0-.04.08-.11.22-.11s.55.09.55.33c0,.04,0,.06-.07.16-.02.03-.04.08-.04.13,0,.19.33.2.37.2.28.01.49.02.49.29,0,.3-.43.48-.66.59-.24.1-.24.11-.24.38,0,.14.04.86.06,1.03.03.24.04.28.2.35.31.13.98.43.98.81,0,.11-.09.25-.23.25-.08,0-.1-.03-.25-.22-.19-.22-.52-.49-.63-.43-.04.02-.1.25-.12.3ZM89.72,191.62c0,.17.2.28.42.28.38,0,.76-.31.76-.52,0-.11-.09-.16-.5-.16-.36,0-.69.22-.69.4ZM91.19,188.61c0,.24.05.24.1.24.09,0,.33-.08.33-.22,0-.11-.21-.2-.3-.2-.02,0-.05,0-.08.03-.03.02-.05.07-.05.15Z"/>
      <path class="cls-2" d="M94.21,187.72c-.56,0-.75.01-.8.02-.03,0-.11.02-.13.02s-.04-.01-.06-.04l-.13-.15s-.03-.03-.03-.04c0-.01,0-.02.03-.02.04,0,.24.03.28.03.31.02.57.02.87.02h3.24c.29,0,.32,0,.41-.11.18-.21.2-.24.25-.24.04,0,.6.34.6.42,0,.08-.09.09-.34.09h-2.11c-.07,0-.16,0-.19.11-.01.05-.01.81-.01.91,0,.3.02.31.25.33.74.09,1.54.41,1.54,1.03,0,.21-.08.4-.27.4-.16,0-.19-.08-.34-.4-.36-.75-.99-.95-1.08-.95-.07,0-.1.06-.1.13v1.08c0,.13.03,1.66.03,1.93,0,.18-.01.3-.13.41-.08.06-.22.15-.28.15-.03,0-.19-.03-.19-.24,0-.07.03-.38.03-.44.04-1.11.06-2.79.06-3.93,0-.47,0-.52-.19-.52h-1.2Z"/>
      <path class="cls-2" d="M101.21,188.18c.07,0,.08,0,.13-.05.23-.21.25-.24.3-.24.08,0,.39.31.39.38,0,.08-.08.08-.22.08h-1.6c-.13,0-.34,0-.52.01-.02,0-.11.02-.13.02-.01,0-.03-.01-.04-.04l-.08-.15s-.02-.03-.02-.04c0,0,0-.01.01-.01s.13.02.16.02c.17.01.48.03.65.03h.98ZM101,190.79c.06,0,.1,0,.13-.01.04-.02.19-.2.24-.2s.4.19.4.29c0,.01-.07.12-.08.13-.03.05-.04.1-.04.17,0,.13.03.8.03.96,0,.2-.13.29-.32.29-.1,0-.1-.05-.1-.13,0-.15-.1-.15-.2-.15h-.59c-.19,0-.19.08-.19.33,0,.13,0,.3-.3.3-.17,0-.18-.11-.18-.19,0-.17.03-.98.03-1.17,0-.26,0-.38-.02-.52,0-.03-.03-.2-.03-.24,0-.03.01-.06.05-.06s.3.13.34.15c.1.05.15.04.22.04h.62ZM100.92,188.99s.08,0,.11-.03c.04-.03.19-.24.24-.24.07,0,.39.31.39.36,0,.07-.1.07-.27.07h-.8c-.11,0-.35,0-.52.01-.02,0-.11.02-.13.02s-.03-.02-.04-.04l-.09-.15s-.02-.03-.02-.04c0,0,0-.01.02-.01.03,0,.13.02.16.02.16.01.48.03.64.03h.31ZM100.94,189.86c.06,0,.1,0,.17-.1.07-.1.11-.13.16-.13.11,0,.4.24.4.32s-.1.08-.25.08h-.8c-.42,0-.54.02-.56.02-.01,0-.08.01-.1.01s-.02,0-.04-.04l-.08-.15s-.02-.03-.02-.04c0,0,0-.01.01-.01s.13.02.16.02c.18.01.47.03.64.03h.3ZM100.85,187.44c.07,0,.1,0,.17-.1.11-.15.13-.17.18-.17.09,0,.41.25.41.35,0,.08-.09.08-.22.08h-.72c-.16,0-.37,0-.52.01-.02,0-.11.02-.13.02s-.03-.02-.04-.04l-.08-.15s-.02-.03-.02-.04c0,0,0-.01.02-.01,0,0,.13.02.16.02.16.02.48.03.64.03h.16ZM100.43,190.97c-.15,0-.18.03-.18.26,0,.75.03.75.21.75h.59c.07,0,.2,0,.2-.17,0-.07,0-.72-.01-.76-.04-.09-.13-.09-.18-.09h-.62ZM103.88,187.48c.26,0,.29,0,.32-.03.14-.12.18-.16.25-.16.06,0,.47.18.47.33,0,.03-.13.13-.15.17-.04.06-.04.11-.04.64,0,.15.03.85.03,1.01,0,.11,0,.39-.27.39-.17,0-.18-.06-.22-.22-.03-.12-.11-.13-.19-.13h-1.07c-.18,0-.19.09-.19.21,0,.66-.01,1.32-.01,1.98,0,.24.03.32.1.38.11.08.59.1.78.1.05,0,.69,0,.85-.13.09-.07.19-.45.24-.64.04-.13.04-.16.08-.16.03,0,.04.1.06.15.03.16.08.41.16.48.11.11.13.13.13.2,0,.11-.14.24-.22.29-.14.1-.4.23-1.13.23-1.2,0-1.4-.18-1.44-.48-.01-.11-.01-1.96-.01-2.26,0-.1,0-.15-.01-.4,0-.04-.03-.26-.03-.31,0-.02,0-.09.07-.09.08,0,.32.13.49.22.06.03.1.04.2.04h.98c.12,0,.15-.03.18-.09.03-.08.03-.71.03-.87,0-.68-.02-.7-.2-.7h-.9c-.15,0-.58,0-.8.02-.02,0-.11.01-.13.01s-.03-.01-.06-.04l-.12-.15s-.03-.03-.03-.04c0-.01.01-.01.02-.01.04,0,.24.02.28.02.19,0,.52.02.87.02h.65Z"/>
      <path class="cls-2" d="M105.89,190.44c0-.19.18-.4.61-.9.29-.33.54-.86.54-.95,0-.04-.04-.04-.07-.04-.06,0-.33.05-.38.05-.24,0-.57-.31-.57-.56,0-.02,0-.04.04-.04s.2.1.24.12c.08.04.25.11.42.11.52,0,.52-.17.52-.3,0-.04,0-.14-.05-.22-.02-.03-.15-.15-.15-.18,0-.05.17-.1.28-.1.15,0,.31.06.32.2,0,.08.03.1.29.11.04,0,.29.03.29.17,0,.21-.47.39-.76.5-.1.04-.1.05-.24.38-.15.35-.18.4-.34.69-.03.06-.04.08-.04.1,0,.01,0,.03.03.03s.14-.04.2-.07c.07-.03.15-.05.25-.05.08,0,.38.01.54.39.04.11.05.12.06.12.02,0,.23-.29.26-.34.21-.29.62-.87,1.18-.87.35,0,.6.3.6.57,0,.3-.5.51-.9.68-.16.07-.88.36-.99.43-.1.06-.11.13-.11.27,0,.06.01.32.01.38,0,.1,0,.47-.24.47-.17,0-.2-.21-.2-.32,0-.06.02-.37.02-.38,0-.03,0-.08-.04-.08-.05,0-.62.4-.62.76,0,.44.64.44.82.44.16,0,.28-.01.41-.04.09-.01.5-.11.58-.11.13,0,.31.06.31.22,0,.4-.99.42-1.14.42-.81,0-1.24-.33-1.24-.83,0-.41.24-.61.84-1.1.06-.05.1-.13.1-.22,0-.29-.05-.64-.31-.64s-.62.29-.78.68c-.07.16-.14.31-.34.31-.12,0-.24-.04-.24-.21ZM107.51,188.03s.32-.08.32-.15c0-.08-.16-.1-.22-.1-.09,0-.11.18-.11.2s0,.04.01.04ZM108.09,190.09s0,.03.03.03,1.27-.51,1.27-.93c0-.16-.14-.19-.22-.19-.53,0-1.08.99-1.08,1.09Z"/>
      <path class="cls-2" d="M112.49,191.53c.08,0,.34-.03.61-.06.1-.01.51-.08.59-.08.22,0,.41.16.41.3,0,.34-1.08.38-1.44.38-.85,0-1.98-.18-1.98-1.13,0-.2.07-.29.09-.29.03,0,.03.01.07.16.15.5.76.71,1.25.71.04,0,.33.01.39.01ZM111.51,188.04c.48,0,.94-.1,1.03-.11.23-.05.28-.05.32-.05.3,0,.59.3.59.43,0,.1-.04.11-.47.21-.32.08-.54.25-.75.42-.05.04-.06.05-.08.05-.01,0-.02-.01-.02-.02,0-.05.28-.39.28-.47,0-.04-.02-.04-.22-.05-.75-.01-1.2-.34-1.2-.43,0-.02.03-.03.04-.03.02,0,.04,0,.2.03.11.01.22.01.28.01ZM114.21,188.84c.18.12.27.27.27.36,0,.12-.08.25-.18.25-.08,0-.13-.03-.34-.26-.13-.14-.18-.17-.46-.35-.03-.03-.1-.07-.1-.1,0-.02.05-.06.11-.06.27,0,.47,0,.71.15ZM115.16,188.69c0,.07-.05.19-.17.19-.13,0-.21-.1-.33-.24-.08-.1-.34-.28-.55-.36-.07-.03-.08-.05-.08-.07,0-.04.13-.08.24-.08.57,0,.9.29.9.55Z"/>
      <path class="cls-2" d="M118.15,191.6s-.06,0-.06.03.13.11.13.15c0,.03-.04.04-.04.04-.1.06-.11.06-.19.16-.5.64-1.65.84-2.38.84-.03,0-.26,0-.26-.02,0,0,0-.02.01-.02.01,0,.37-.08.43-.09,1.66-.36,1.82-.97,1.82-1.01,0-.08-.05-.08-.09-.08h-.56c-.06,0-.11,0-.15.06-.06.11-.12.22-.29.22s-.17-.1-.17-.17c0-.03.03-.83.03-.97,0-.22,0-.48-.02-.72,0-.04-.02-.21-.02-.25,0-.06.01-.08.06-.08.07,0,.1.02.32.13.15.07.27.07.37.07h2.46c.06,0,.14,0,.21-.06.03-.02.15-.16.19-.16.06,0,.48.22.48.34,0,.06-.06.11-.11.14-.11.06-.11.1-.11.36,0,.16.04.92.04.98,0,.32-.3.32-.31.32-.1,0-.11-.03-.15-.14-.03-.07-.08-.07-.13-.07h-.53c-.15,0-.15.03-.15.36,0,.17,0,.33.51.33,1.1,0,1.1,0,1.21-.37.03-.11.15-.73.19-.73.03,0,.03.06.03.14,0,.1,0,.45.08.62.03.05.2.25.2.31,0,.25-.4.36-.43.38-.13.03-.96.06-1.15.06-.84,0-.93-.13-.97-.24-.04-.11-.04-.25-.04-.71,0-.1-.04-.14-.14-.14h-.27ZM117.28,187.44c.26,0,.31,0,.38-.14.05-.1.06-.13.11-.13.08,0,.41.28.41.35,0,.08-.03.08-.34.08h-.45c-.13,0-.18.03-.18.18,0,.27,0,.3.24.3.04,0,.08,0,.13-.03.03-.02.12-.13.15-.13.06,0,.38.19.38.24,0,.03-.08.14-.1.17-.01.03-.02.06-.02.11s.01.27.01.32c0,.17-.1.28-.27.28-.09,0-.1-.03-.11-.08-.03-.07-.11-.07-.13-.07-.23,0-.25,0-.25.27,0,.16.04.2.16.2.22,0,.27-.01.36-.11s.1-.11.15-.11c.1,0,.36.26.36.31,0,.08-.03.08-.34.08h-1.57c-.1,0-.12,0-.17.1-.1.17-.27.17-.29.17-.09,0-.14-.03-.14-.17,0-.07,0-.24.02-.39.03-.34.03-.89.03-1.24s0-.44-.01-.54c0-.02-.01-.12-.01-.15s0-.06.03-.06c.06,0,.12.03.32.13.13.06.27.06.36.06h.8ZM116.34,187.61c-.16,0-.16.08-.16.27,0,.12,0,.21.16.21h.32c.15,0,.15-.1.15-.21,0-.18,0-.27-.15-.27h-.32ZM116.34,188.26c-.16,0-.16.1-.16.21,0,.17,0,.25.16.25h1.11c.16,0,.16-.1.16-.24s0-.23-.16-.23h-1.11ZM116.34,188.89c-.15,0-.16.1-.16.2,0,.18.01.27.17.27h.32c.16,0,.16-.1.16-.21,0-.18,0-.26-.16-.26h-.33ZM116.93,190.06c-.14,0-.14.08-.14.17,0,.1,0,.18.14.18h2.71c.14,0,.14-.06.14-.23,0-.09-.04-.12-.14-.12h-2.71ZM116.93,190.58c-.13,0-.14.06-.14.16,0,.1.01.16.14.16h2.71s.14,0,.14-.11c0-.14,0-.2-.14-.2h-2.71ZM116.94,191.07c-.14,0-.14.07-.14.19,0,.1,0,.17.14.17h2.71s.14,0,.14-.11c0-.2,0-.24-.14-.24h-2.71ZM118.87,187.99c-.11,0-.18,0-.31.13-.22.21-.34.29-.37.29,0,0-.02,0-.02-.01,0-.02.15-.29.18-.35.14-.27.27-.61.27-.76,0-.03-.04-.19-.04-.2,0-.02.03-.02.04-.02.04,0,.41.1.48.12.1.03.17.04.17.1,0,.04-.17.12-.2.15-.03.02-.18.25-.18.32s.08.07.15.07h1.09c.27,0,.3,0,.38-.14.06-.1.11-.15.17-.15.04,0,.47.25.47.37,0,.08-.03.08-.34.08h-1.96ZM119.76,188.85c.29,0,.32,0,.4-.11.15-.18.17-.21.24-.21.1,0,.48.29.48.39,0,.1-.11.1-.34.1h-.92c-.59,0-.78.01-.8.01-.03,0-.11.02-.13.02-.03,0-.04-.02-.06-.04l-.12-.15s-.03-.03-.03-.04c0-.01.01-.02.03-.02.04,0,.24.02.28.03.31.01.57.02.87.02h.11Z"/>
      <path class="cls-2" d="M123.19,187.29c.15,0,.78.32.78.56,0,.17-1.71,1.82-1.71,2.1,0,.11.05.2.19.35.57.62,1.43,1.55,1.43,1.99,0,.21-.14.3-.27.3-.2,0-.24-.12-.37-.5-.2-.56-.89-1.41-1.06-1.61-.2-.24-.25-.34-.25-.47,0-.17.08-.36.52-.9.63-.79.87-1.12.87-1.36,0-.13-.06-.23-.16-.37-.02-.03-.03-.06-.02-.08,0-.01.03-.01.04-.01Z"/>
      <path class="cls-2" d="M125.3,191.48c.66-1.24.84-2.34.84-2.34,0-.06-.03-.06-.23-.06-.13,0-.36,0-.57-.11-.2-.1-.33-.28-.33-.34,0-.02.02-.03.03-.03.03,0,.12.05.15.06.1.03.36.07.57.07.1,0,.4-.01.45-.06.05-.04.07-.48.07-.52,0-.05,0-.27-.08-.4-.03-.03-.18-.19-.18-.24,0-.06.12-.15.29-.15.29,0,.51.26.51.34,0,.03-.07.16-.07.19,0,.12.51.23.57.23.03,0,.17-.01.2-.01.05,0,.21,0,.21.2,0,.36-.54.54-.96.66-.22.06-.24.06-.27.18-.32,1.39-.33,1.4-.46,1.81-.44,1.33-.67,1.33-.79,1.33-.15,0-.17-.21-.17-.28,0-.08.03-.14.23-.51ZM126.64,188.56s.52-.17.52-.25c0-.06-.34-.2-.41-.2-.04,0-.06.01-.07.08-.03.13-.03.15-.06.3,0,.04-.01.08.03.08ZM127.13,191.27c.13.55.82.68,1.31.68.11,0,.59-.04.69-.04.22,0,.51.11.51.32,0,.18-.24.22-.78.22-1.03,0-1.89-.26-1.89-1.06,0-.15.04-.28.09-.28.03,0,.06.16.07.18ZM128.54,189.05c.61,0,1.06.18,1.06.46,0,.15-.13.15-.19.15-.06,0-.31-.02-.36-.02-.11,0-.21,0-.47.1-.16.06-.22.08-.27.08-.01,0-.03,0-.03-.02,0-.04.33-.29.33-.36,0-.1-.45-.1-.55-.1-.14,0-.31,0-.46.03-.04,0-.19.03-.21.03-.02,0-.05,0-.06-.01-.04-.08.51-.34,1.19-.34ZM129.58,188.34c0,.1-.09.24-.2.24-.09,0-.14-.04-.33-.29-.11-.15-.17-.19-.43-.4-.03-.02-.09-.08-.09-.1s.06-.05.11-.05c.57,0,.93.37.93.6ZM130.23,187.92c0,.08-.06.19-.17.19-.14,0-.22-.12-.32-.27-.08-.12-.33-.31-.53-.4-.06-.03-.08-.06-.08-.08,0-.06.15-.06.24-.06.22,0,.85.18.85.61Z"/>
      <path class="cls-2" d="M131.58,189.27c-.66,0-.94-.49-.94-.61,0-.03,0-.06.05-.06.03,0,.13.06.26.12.21.1.45.17.66.17.24,0,.68-.11.68-.22,0-.06-.21-.2-.29-.26-.17-.12-.41-.34-.41-.52,0-.2.17-.31.32-.31.13,0,.2.04.49.21.08.05.25.15.6.15.08,0,.4,0,.47,0,.22.02.22.21.22.23,0,.17-.3.4-.39.45-.17.11-.19.12-.19.17s.04.09.08.12c.33.29,1.17,1.03,1.17,1.68,0,.43-.38.43-.42.43-.11,0-.16-.03-.54-.24-.24-.13-.65-.33-1.08-.33-.62,0-.89.5-.89.74,0,.41.4.57.94.57.11,0,.65-.06.66-.06.21-.02.31.14.31.25,0,.34-.61.34-.73.34-.53,0-.81-.09-1.03-.2-.32-.16-.55-.48-.55-.79,0-.63.65-1.01,1.36-1.01.15,0,.34.01.69.11.4.11.43.13.52.13.07,0,.22-.03.22-.2,0-.41-.85-1.36-1.03-1.36-.04,0-.68.24-.81.27-.19.04-.37.04-.39.04ZM132.7,188.52s.24-.06.24-.2c0-.08-.02-.1-.22-.22-.42-.25-.47-.28-.54-.28-.04,0-.12.03-.12.11,0,.15.23.34.28.38.09.07.29.22.37.22Z"/>
      <path class="cls-2" d="M136.02,188.87c0,.05-.01.07-.08.26-.09.25-.15.48-.15.82,0,.64.33,1.11.53,1.11.11,0,.13-.03.32-.35.04-.06.15-.22.2-.22.02,0,.03.03.03.05s-.01.11-.02.13c-.07.29-.08.35-.08.48,0,.11.02.19.04.25.02.07.05.18.05.21,0,.13-.13.2-.24.2-.41,0-1.21-.67-1.21-1.89,0-.18.09-.96.09-1.13,0-.13-.03-.3-.04-.37-.04-.16-.05-.18-.05-.22,0-.02.03-.03.04-.03.29,0,.58.51.58.68ZM139.13,189.02c.33.26.57.71.57,1.22,0,.12-.01.42-.32.42s-.31-.34-.31-.43c0-.53,0-.8-.34-1.13-.05-.05-.31-.25-.31-.29,0-.02.03-.03.06-.03,0,0,.38.02.65.24Z"/>
      <path class="cls-2" d="M141.95,192.04c0,.36-.29.71-.71.71s-.7-.36-.7-.71c0-.48.42-.7.71-.7.41,0,.71.34.71.71ZM140.72,192.03c0,.29.24.54.54.54.27,0,.53-.22.53-.52,0-.25-.19-.54-.54-.54s-.52.27-.52.52Z"/>
    </g>
  </g>
</svg>