<?xml version="1.0" encoding="UTF-8"?>
<svg id="_レイヤー_2" data-name="レイヤー 2" xmlns="http://www.w3.org/2000/svg" viewBox="0 0 332.19 40.95">
  <defs>
    <style>
      .cls-1 {
        fill: #040000;
        stroke-width: 0px;
      }
    </style>
  </defs>
  <g id="_レイヤー_1-2" data-name="レイヤー 1">
    <g>
      <path class="cls-1" d="M127.98,9.67c0,1.26-.82,1.76-1.76,1.76-.19,0-.39-.02-.62-.04l-.04-.64c.23.04.42.04.62.04.56,0,1.02-.39,1.02-1.23v-4.87h.78v4.96Z"/>
      <path class="cls-1" d="M132.08,4.7c1.56,0,2.27.64,2.27,1.73,0,.81-.47,1.45-1.4,1.67l1.58,3.21h-.86l-1.45-3.08h-1.59v3.08h-.76v-6.6h2.22ZM130.62,7.61h1.36c1.1,0,1.57-.43,1.57-1.17s-.41-1.11-1.51-1.11h-1.42v2.28Z"/>
      <path class="cls-1" d="M145.52,5.13c0,.06,0,.07-.07.07-.05,0-.33-.02-1.17-.02h-1.66v1.38h.99c.9,0,1.23-.02,1.26-.02.06,0,.07,0,.07.07,0,.04-.02.37-.02,1.55v1.5c0,1.89.02,2.2.02,2.25,0,.06,0,.07-.07.07h-.42c-.06,0-.07,0-.07-.07v-.51h-5.48v.53c0,.06,0,.07-.07.07h-.41c-.06,0-.07,0-.07-.07,0-.05.02-.36.02-2.26v-1.33c0-1.35-.02-1.67-.02-1.72,0-.06,0-.07.07-.07.04,0,.36.02,1.26.02h.84c0-.29.02-.6.02-.93v-.45h-1.51c-.84,0-1.13.02-1.17.02-.06,0-.07,0-.07-.07v-.4c0-.06,0-.07.07-.07.04,0,.33.02,1.17.02h5.26c.84,0,1.12-.02,1.17-.02.06,0,.07,0,.07.07v.4ZM144.37,7.06h-1.76v1.42c0,.25,0,.34.09.39s.17.06.36.06c.17,0,.3,0,.4-.08.12-.09.14-.3.15-1,.11.08.22.13.32.17.16.05.17.08.16.28-.03.5-.09.82-.29.97-.2.14-.49.17-.73.17-.33,0-.56-.02-.75-.12-.16-.08-.26-.21-.26-.6v-1.67h-1.07c-.11,1.17-.43,2.05-1.36,2.71-.05.04-.09.06-.13.06s-.08-.03-.15-.1c-.08-.08-.19-.15-.31-.21.98-.57,1.31-1.36,1.42-2.46h-1.59v3.84h5.48v-3.84ZM142.08,5.19h-1.01v.47c0,.32,0,.62-.02.9h1.03v-1.38Z"/>
      <path class="cls-1" d="M153.22,8.67c0,2.56.02,3.01.02,3.05,0,.06,0,.07-.07.07h-.43c-.06,0-.07,0-.07-.07v-.55h-4.15v.56c0,.06,0,.07-.06.07h-.44c-.06,0-.07,0-.07-.07,0-.05.02-.5.02-3.07v-1.73c0-1.74-.02-2.2-.02-2.26,0-.06,0-.07.07-.07.05,0,.36.02,1.25.02h2.66c.89,0,1.19-.02,1.25-.02.06,0,.07,0,.07.07,0,.05-.02.52-.02,2.03v1.95ZM152.67,5.14h-4.15v2.43h4.15v-2.43ZM152.67,8.07h-4.15v2.6h4.15v-2.6Z"/>
      <path class="cls-1" d="M160,6.47c.83,1.47,2.07,2.75,3.7,3.62-.09.09-.19.21-.26.34-.05.09-.07.13-.11.13s-.07-.03-.13-.06c-1.5-.95-2.71-2.22-3.48-3.76,0,1.11,0,2.2.02,3.1h.65c.81,0,1.07-.02,1.12-.02.06,0,.07,0,.07.07v.38c0,.06,0,.07-.07.07-.05,0-.31-.02-1.12-.02h-.64c.02.93.04,1.59.04,1.69,0,.06,0,.07-.07.07h-.47c-.06,0-.07,0-.07-.07,0-.11.02-.75.03-1.69h-.55c-.81,0-1.07.02-1.11.02-.06,0-.07,0-.07-.07v-.38c0-.06,0-.07.07-.07.04,0,.3.02,1.11.02h.56c.02-.87.03-1.93.03-3.01-.75,1.51-1.93,2.82-3.27,3.71-.07.04-.11.07-.14.07-.04,0-.07-.04-.11-.13-.07-.13-.15-.23-.27-.32,1.34-.74,2.69-2.14,3.49-3.69h-1.9c-.85,0-1.15.02-1.19.02-.06,0-.07,0-.07-.07v-.4c0-.06,0-.07.07-.07.04,0,.34.02,1.19.02h2.16v-.8c0-.56,0-.75-.06-1.08.22,0,.44.03.62.05.06,0,.11.04.11.07,0,.07-.04.13-.05.2-.03.11-.04.26-.04.75v.81h2.34c.86,0,1.16-.02,1.2-.02.06,0,.07,0,.07.07v.4c0,.06,0,.07-.07.07-.04,0-.34-.02-1.2-.02h-2.09Z"/>
      <path class="cls-1" d="M172.38,5.25c0,.06,0,.07-.07.07-.05,0-.33-.02-1.18-.02h-1.99c-.14.3-.3.58-.46.85v4.5c0,.88.02,1.25.02,1.3,0,.06,0,.07-.07.07h-.47c-.06,0-.07,0-.07-.07,0-.05.02-.42.02-1.3v-3.67c-.81,1.03-1.84,1.91-3.17,2.66-.06.04-.1.05-.13.05-.04,0-.06-.04-.13-.13-.09-.13-.17-.21-.3-.3,1.8-.91,3.31-2.26,4.13-3.97h-2.61c-.85,0-1.14.02-1.18.02-.06,0-.07,0-.07-.07v-.41c0-.07,0-.08.07-.08.04,0,.33.02,1.18.02h5.21c.85,0,1.13-.02,1.18-.02.06,0,.07,0,.07.08v.41ZM169.58,6.82c.07-.05.11-.04.15,0,.78,1.03,1.93,1.88,2.96,2.33-.1.1-.21.24-.27.35-.05.09-.07.13-.12.13-.04,0-.07-.03-.14-.06-1.1-.6-2.06-1.43-2.85-2.45-.04-.05-.04-.08.06-.15l.21-.14Z"/>
      <path class="cls-1" d="M177.81,6.1c0,.06,0,.07-.05.07-.04,0-.32-.02-1.15-.02h-.63v.57h.48c.76,0,1.01-.02,1.07-.02.06,0,.07,0,.07.07,0,.04-.02.21-.02.73v.88c0,.5.02.69.02.73,0,.06,0,.07-.07.07-.05,0-.23-.02-1.07-.02h-.48v.57h.47c.79,0,1.04-.02,1.09-.02.06,0,.07,0,.07.07v.32c0,.06,0,.07-.07.07-.05,0-.3-.02-1.09-.02h-.47v.65c.56-.07,1.13-.16,1.65-.27-.04.11-.05.19-.06.27-.02.19-.02.18-.2.21-1.04.21-2.1.36-3.2.48-.18.02-.31.05-.35.07s-.07.04-.11.04c-.04,0-.08-.03-.11-.11-.04-.13-.09-.33-.13-.51.3,0,.56,0,.92-.03.31-.03.69-.06,1.09-.11v-.71h-.63c-.79,0-1.04.02-1.09.02-.06,0-.07,0-.07-.07v-.32c0-.06,0-.07.07-.07.05,0,.3.02,1.09.02h.63v-.57h-.44c-.76,0-1.01.02-1.07.02-.06,0-.07,0-.07-.07,0-.05.02-.23.02-.73v-.87c0-.52-.02-.7-.02-.74,0-.06,0-.07.07-.07.05,0,.3.02,1.07.02h.44v-.57h-.76c-.81,0-1.09.02-1.14.02-.06,0-.07,0-.07-.07v-.33c0-.06,0-.07.07-.07.04,0,.32.02,1.14.02h.76v-.59c-.44.06-.88.12-1.37.16-.16,0-.18.02-.23-.11-.05-.13-.13-.23-.2-.31,1.31-.08,2.19-.22,3.08-.47.16-.04.3-.1.41-.17.14.11.26.21.35.3.05.05.07.08.07.12,0,.05-.07.08-.15.08s-.22.04-.35.06c-.39.1-.76.18-1.13.25v.67h.63c.82,0,1.09-.02,1.14-.02.05,0,.06,0,.06.07v.33ZM175.5,7.11h-1.08v.65h1.08v-.65ZM175.5,8.12h-1.08v.68h1.08v-.68ZM177.12,7.11h-1.14v.65h1.14v-.65ZM177.12,8.12h-1.14v.68h1.14v-.68ZM180.12,6.17c.71,0,.93-.02.98-.02.06,0,.08.02.08.08-.02.28-.02.53-.02.8-.02,1.42-.08,2.88-.26,3.99-.11.63-.41.9-.97.9-.25,0-.45,0-.64-.02-.15,0-.15-.05-.16-.15,0-.16-.06-.31-.13-.43.3.05.57.08.88.08s.44-.16.51-.62c.16-.97.23-2.48.23-4.12h-1.08c-.04.9-.13,1.78-.32,2.51-.31,1.15-.77,2.02-1.71,2.77-.07.05-.1.08-.13.08-.03,0-.06-.03-.12-.08-.1-.11-.22-.19-.36-.24,1.01-.64,1.5-1.54,1.83-2.71.16-.59.25-1.43.3-2.32h-.09c-.7,0-.91.02-.96.02-.07,0-.08,0-.08-.07v-.38c0-.06,0-.07.08-.07.04,0,.26.02.96.02h.11c0-.34.02-.68.02-1.01,0-.56,0-.77-.06-1.1.21,0,.39.03.58.06.06,0,.1.04.1.08,0,.06-.02.11-.04.19-.04.09-.05.36-.05.83,0,.31,0,.64,0,.95h.53Z"/>
      <path class="cls-1" d="M190.29,6.93c0,.06,0,.07-.06.07s-.35-.02-1.24-.02h-5.28v.66c0,.69-.05,1.49-.16,2.23-.1.66-.3,1.35-.71,2.02-.04.07-.06.11-.09.11s-.05-.03-.11-.08c-.11-.12-.25-.21-.35-.26.42-.57.65-1.28.75-1.95s.13-1.43.13-2.07c0-.73-.02-1.03-.02-1.08,0-.06,0-.07.07-.07.05,0,.36.02,1.25.02h.7c-.11-.3-.24-.58-.39-.81-.04-.06-.04-.08.06-.13l.25-.11c.08-.04.1-.03.13.04.16.26.35.64.48,1h1.68c.14-.23.25-.44.36-.7.05-.12.1-.24.12-.37.18.04.38.11.51.16.06.03.08.05.08.09,0,.04-.03.08-.08.12-.05.04-.1.1-.16.21-.09.16-.18.32-.3.49h1.06c.89,0,1.18-.02,1.24-.02s.06,0,.06.07v.36ZM190.04,5.36c0,.06,0,.07-.07.07-.04,0-.35-.02-1.25-.02h-4.31c-.9,0-1.2.02-1.25.02-.06,0-.07,0-.07-.07v-.35c0-.07,0-.08.07-.08.04,0,.34.02,1.25.02h1.89v-.13c0-.39,0-.62-.06-.83.22,0,.42.03.58.04.06,0,.11.04.11.07,0,.06-.03.11-.05.17-.03.08-.04.21-.04.55v.13h1.89c.9,0,1.2-.02,1.25-.02.06,0,.07,0,.07.08v.35ZM190.3,11.73c0,.06,0,.07-.07.07-.04,0-.35-.02-1.26-.02h-3.89c-.9,0-1.2.02-1.25.02-.06,0-.07,0-.07-.07v-.36c0-.06,0-.07.07-.07.05,0,.35.02,1.25.02h1.67v-1.16h-.64c-.84,0-1.11.02-1.16.02-.06,0-.07,0-.07-.07v-.35c0-.06,0-.07.07-.07.05,0,.32.02,1.16.02h.64v-1.03h-1.68c-.2.35-.43.68-.72,1.03-.04.04-.06.07-.09.07-.04,0-.07-.03-.12-.09-.09-.1-.18-.16-.28-.22.56-.56.89-1.12,1.15-1.8.04-.12.09-.27.11-.44.18.04.37.09.49.14.07.04.08.05.08.09,0,.04-.04.07-.07.11-.04.04-.09.13-.14.26-.05.13-.1.25-.16.38h1.44v-.15c0-.41,0-.54-.06-.84.21,0,.4.03.58.04.06,0,.12.04.12.07,0,.06-.04.12-.05.18-.03.09-.05.21-.05.56v.13h1.11c.86,0,1.14-.02,1.19-.02.06,0,.07,0,.07.07v.36c0,.06,0,.07-.07.07-.05,0-.33-.02-1.19-.02h-1.11v1.03h.79c.84,0,1.12-.02,1.16-.02.06,0,.07,0,.07.07v.35c0,.06,0,.07-.07.07-.04,0-.32-.02-1.16-.02h-.79v1.16h1.69c.91,0,1.22-.02,1.26-.02.06,0,.07,0,.07.07v.36Z"/>
      <path class="cls-1" d="M194.9,6.14c0,.56.02.78.02.82,0,.06,0,.07-.07.07-.04,0-.27-.02-.9-.02h-1.62v3.13c0,1.28.02,1.81.02,1.86,0,.06,0,.07-.07.07h-.42c-.06,0-.07,0-.07-.07,0-.05.02-.58.02-1.86v-3.88c0-1.28-.02-1.83-.02-1.88,0-.06,0-.07.07-.07.05,0,.35.02,1.01.02h1.08c.63,0,.85-.02.9-.02.06,0,.07,0,.07.07,0,.05-.02.28-.02.82v.93ZM194.39,4.77h-2.06v.68h2.06v-.68ZM194.39,5.88h-2.06v.71h2.06v-.71ZM197.87,9.7c0,.06,0,.07-.07.07-.04,0-.34-.02-1.22-.02h-.13v.96c0,.66.02.93.02.99,0,.06,0,.07-.07.07h-.39c-.06,0-.07,0-.07-.07,0-.05.02-.32.02-.99v-.96h-1.27c-.06.47-.13.7-.27,1.02-.17.38-.44.73-.8,1.01-.05.04-.09.07-.12.07-.04,0-.07-.04-.14-.11-.1-.1-.21-.17-.31-.21.39-.22.7-.53.9-.93.13-.27.21-.56.23-.85h-.05c-.88,0-1.16.02-1.22.02-.06,0-.07,0-.07-.07v-.33c0-.06,0-.07.07-.07.05,0,.34.02,1.22.02h.09c0-.28.03-.63.03-1.07-.72,0-.98.02-1,.02-.07,0-.08,0-.08-.07v-.33c0-.06,0-.07.08-.07.04,0,.31.02,1.16.02h1.99c.84,0,1.12-.02,1.16-.02.05,0,.06,0,.06.07v.33c0,.06,0,.07-.06.07-.04,0-.31-.02-1.08-.02v1.07h.13c.88,0,1.17-.02,1.22-.02.06,0,.07,0,.07.07v.33ZM195.96,8.25h-1.21c0,.42,0,.77-.03,1.07h1.24v-1.07ZM198.98,9.8c0,.49.03.96.03,1.3,0,.39-.06.55-.23.68-.17.14-.37.18-1.08.18-.17,0-.16,0-.21-.17-.04-.17-.09-.28-.16-.39.23.03.44.04.65.04.39,0,.47-.07.47-.43v-3.99h-1.64c-.7,0-.92.02-.97.02-.07,0-.08,0-.08-.07,0-.04.02-.21.02-.77v-1.04c0-.55-.02-.72-.02-.77,0-.06,0-.07.08-.07.04,0,.27.02.97.02h1.15c.69,0,.92-.02.97-.02.06,0,.07,0,.07.07,0,.05-.02.41-.02,1.28v4.14ZM198.45,4.77h-2.16v.68h2.16v-.68ZM198.45,5.88h-2.16v.71h2.16v-.71Z"/>
      <path class="cls-1" d="M203.74,4.4c.39,0,.66-.02.73-.02.05,0,.08,0,.12.09.11.3.26.56.44.81.1.14.2.29.31.41.28-.23.53-.52.73-.77.09-.11.15-.21.22-.36.19.1.33.2.44.29.05.04.06.07.06.11,0,.04-.03.07-.08.1-.07.03-.13.06-.28.22-.24.26-.5.51-.79.75.2.2.42.38.65.55.35-.29.67-.6.89-.84.09-.11.17-.22.24-.36.18.1.3.18.43.28.05.04.07.08.07.12,0,.04-.04.07-.1.1-.06.03-.13.06-.27.21-.24.24-.52.49-.86.76.53.33,1.11.6,1.72.81-.09.1-.16.2-.22.32-.05.11-.08.14-.13.14-.03,0-.07-.02-.13-.04-1.66-.74-2.85-1.63-3.63-3.12-.73,1.27-1.78,2.27-3.5,3.13-.07.04-.11.05-.14.05-.04,0-.06-.04-.13-.14-.06-.11-.13-.19-.23-.27.78-.33,1.44-.73,1.98-1.16-.34-.37-.65-.64-1.04-.91-.05-.04-.05-.05,0-.12l.21-.2c.05-.05.07-.06.13-.03.41.29.73.57,1.07.93.48-.44.86-.91,1.14-1.41h-1.29c-.67,0-.88.02-.92.02-.07,0-.08,0-.08-.07v-.35c0-.06,0-.07.08-.07.04,0,.25.02.92.02h1.22ZM205.43,10.93c0,.24.04.35.12.4.1.06.33.11.88.11s.79-.04.92-.14c.13-.1.24-.37.28-1,.11.07.21.13.35.17.15.05.17.06.14.22-.09.61-.17.87-.46,1.05-.22.13-.7.18-1.24.18-.69,0-1.04-.04-1.24-.15-.22-.12-.29-.29-.29-.68v-1.67h-1.37c-.26,1.39-.99,2.04-2.44,2.54-.06.03-.11.04-.13.04-.05,0-.08-.04-.14-.13-.07-.12-.18-.22-.29-.3,1.49-.4,2.19-.91,2.45-2.14h-.81c-.9,0-1.19.02-1.25.02-.06,0-.07,0-.07-.07v-.36c0-.06,0-.07.07-.07.05,0,.35.02,1.25.02h.89c.04-.3.05-.64.05-1.03v-.23c-.51,0-.7.02-.74.02-.06,0-.07,0-.07-.07v-.34c0-.07,0-.08.07-.08.05,0,.31.02,1.08.02h1.67c.81,0,1.07-.02,1.12-.02.06,0,.07,0,.07.08v.34c0,.06,0,.07-.07.07-.04,0-.25,0-.81-.02v1.26h1.06c.9,0,1.19-.02,1.25-.02.06,0,.07,0,.07.07v.36c0,.06,0,.07-.07.07-.05,0-.35-.02-1.25-.02h-1.06v1.51ZM204.91,7.69h-1.25v.23c0,.38-.02.73-.04,1.03h1.3v-1.26Z"/>
      <path class="cls-1" d="M213.64,5.81c-.16,1.51-.62,3-1.18,3.91-.39.65-.79.92-1.32.92-.67,0-1.31-.73-1.31-2.03,0-.82.38-1.7,1.04-2.32.66-.62,1.56-.99,2.69-.99,2.01,0,3.2,1.17,3.2,2.88,0,1.46-.9,2.63-2.85,3.13-.11.03-.17,0-.23-.1-.05-.09-.17-.22-.35-.33,1.77-.35,2.79-1.31,2.79-2.8,0-1.33-1.03-2.27-2.31-2.27h-.17ZM211.26,6.67c-.6.59-.86,1.33-.86,1.93,0,.98.4,1.4.73,1.4.3,0,.57-.2.83-.65.46-.81.93-2.19,1.05-3.5-.7.09-1.32.39-1.75.82Z"/>
      <path class="cls-1" d="M222.21,8.98c0,.06,0,.07-.07.07-.04,0-.3-.02-1.08-.02h-.28c.36.52.73.8,1.33,1.15-.07.07-.15.17-.21.31-.04.07-.05.11-.08.11s-.06-.03-.13-.08c-.44-.32-.78-.68-1.09-1.2.02,1.44.06,2.29.06,2.67,0,.06,0,.07-.08.07h-.4c-.06,0-.07,0-.07-.07,0-.37.03-1.17.05-2.56-.37.72-.82,1.28-1.52,1.85-.06.04-.1.07-.13.07s-.05-.04-.09-.11c-.06-.13-.16-.26-.24-.33.79-.53,1.35-1.09,1.79-1.87h-.46c-.79,0-1.05.02-1.09.02-.06,0-.07,0-.07-.07v-.36c0-.06,0-.07.07-.07.04,0,.3.02,1.09.02h.63v-.02c0-.42,0-.64-.05-.84.19,0,.39.03.55.04.05,0,.09.04.09.07,0,.05-.02.09-.04.13-.03.06-.04.17-.04.6v.02h.43c.79,0,1.04-.02,1.08-.02.06,0,.07,0,.07.07v.36ZM222.36,7.48c0,.06,0,.07-.07.07-.05,0-.31-.02-1.11-.02h-1.73c-.81,0-1.07.02-1.11.02-.06,0-.07,0-.07-.07v-.37c0-.06,0-.07.07-.07.04,0,.3.02,1.11.02h1.18c.2-.39.31-.72.41-1.02.04-.13.07-.24.08-.39.2.04.34.08.48.13.08.03.11.06.11.11s-.03.07-.06.11c-.04.04-.09.1-.13.21-.12.3-.23.55-.39.86h.05c.78,0,1.04-.02,1.11-.02.06,0,.07,0,.07.07v.37ZM222.22,5.37c0,.06,0,.07-.07.07-.04,0-.3-.02-1.07-.02h-1.49c-.77,0-1.02.02-1.07.02-.06,0-.07,0-.07-.07v-.35c0-.06,0-.07.07-.07.04,0,.3.02,1.07.02h.52v-.28c0-.22,0-.45-.06-.65.23,0,.4.02.58.04.07,0,.12.04.12.07,0,.06-.03.11-.05.16-.04.08-.04.15-.04.37v.28h.43c.77,0,1.02-.02,1.07-.02.06,0,.07,0,.07.07v.35ZM219.42,5.69c.07-.03.09-.02.13.04.17.29.3.59.39.89.02.06,0,.09-.08.12l-.22.09c-.12.04-.14.04-.16-.04-.09-.32-.19-.61-.34-.9-.04-.06-.03-.08.09-.13l.21-.07ZM226.38,7.49c0,.06,0,.07-.07.07-.04,0-.3-.02-1.08-.02h-.04v3.16c0,.97.02,1.29.02,1.33,0,.07,0,.07-.07.07h-.44c-.06,0-.07,0-.07-.07,0-.04.02-.37.02-1.33v-3.16h-1.33c0,.95-.03,1.86-.22,2.62-.15.58-.35,1.09-.91,1.77-.05.07-.09.1-.13.1s-.06-.02-.12-.07c-.09-.09-.21-.15-.34-.21.57-.6.86-1.22,1.02-1.88.14-.6.18-1.39.18-2.52v-1.1c0-.49-.02-.88-.06-1.26.22.04.37.09.58.18.73-.2,1.33-.46,1.78-.7.18-.1.32-.21.45-.32.14.12.29.27.39.4.04.04.05.08.05.13,0,.04-.04.07-.12.08-.1,0-.2.04-.33.11-.6.3-1.37.58-2.23.81v1.38h1.93c.79,0,1.04-.02,1.08-.02.06,0,.07,0,.07.07v.38Z"/>
      <path class="cls-1" d="M231.11,5.23c0,.06,0,.07-.07.07-.04,0-.25-.02-.94-.02h-.26c.13.21.23.46.34.72.03.06,0,.08-.08.11l-.27.07c-.11.03-.13.03-.15-.04-.08-.27-.2-.57-.36-.85h-.83c-.21.35-.46.65-.79.97-.07.07-.1.1-.13.1s-.07-.03-.13-.09c-.1-.09-.19-.14-.28-.18.61-.55.99-1.1,1.26-1.71.04-.11.09-.23.12-.38.21.04.39.08.49.12.06.02.09.04.09.09s-.04.08-.07.12c-.04.04-.08.08-.13.2-.05.12-.12.23-.17.33h1.36c.69,0,.9-.02.94-.02.06,0,.07,0,.07.07v.33ZM231.84,9.96c.83.65,1.9,1.09,3.45,1.44-.1.09-.17.2-.24.33-.08.15-.09.16-.27.11-1.39-.4-2.45-.89-3.38-1.75.02,1.1.06,1.81.06,1.96,0,.05,0,.06-.07.06h-.44c-.05,0-.06,0-.06-.06,0-.15.04-.84.05-1.94-.93.88-1.94,1.37-3.26,1.74-.17.04-.18.04-.27-.12-.05-.11-.15-.23-.23-.3,1.51-.36,2.49-.78,3.31-1.48h-1.78c-.85,0-1.15.02-1.19.02-.06,0-.07,0-.07-.07v-.35c0-.06,0-.07.07-.07.04,0,.34.02,1.19.02h2.2v-.05c0-.22,0-.4-.04-.63.22,0,.39.03.56.04.07,0,.12.04.12.08,0,.06-.03.1-.04.16-.03.07-.05.16-.05.36v.04h2.32c.86,0,1.15-.02,1.19-.02.06,0,.07,0,.07.07v.35c0,.06,0,.07-.07.07-.04,0-.33-.02-1.19-.02h-1.92ZM229.29,8.08c.34-.1.72-.22,1.16-.39-.03.1-.04.18-.04.29q-.02.18-.18.23c-.7.25-1.42.47-2.19.65-.19.04-.3.09-.33.13s-.07.05-.12.05c-.04,0-.06-.03-.09-.09-.07-.15-.13-.3-.18-.46.23-.03.48-.07.82-.14.21-.04.43-.09.66-.15v-1.25h-.24c-.63,0-.81.02-.86.02-.06,0-.07,0-.07-.07v-.33c0-.06,0-.07.07-.07.05,0,.23.02.86.02h.9c.63,0,.82-.02.86-.02.06,0,.07,0,.07.07v.33c0,.06,0,.07-.07.07-.04,0-.23-.02-.86-.02h-.17v1.12ZM233.81,8.05c0,.23.03.28.08.32.06.04.14.05.36.05s.37-.03.46-.16c.07-.11.12-.32.13-.88.08.06.16.11.29.16.14.06.14.07.13.22-.03.44-.07.71-.26.89-.17.17-.42.22-.77.22-.33,0-.52-.02-.65-.08-.14-.07-.24-.2-.24-.5v-1.49h-1.76c0,1.23-.26,1.71-1.06,2.17-.06.04-.1.06-.13.06s-.06-.04-.13-.1c-.1-.11-.18-.16-.3-.21.93-.44,1.13-.78,1.13-1.98,0-.19-.02-.27-.02-.32,0-.06,0-.07.07-.07.05,0,.23.02.85.02h.9c.63,0,.81-.02.87-.02.06,0,.07,0,.07.07,0,.05-.02.24-.02.71v.91ZM235.1,5.23c0,.06,0,.07-.07.07-.04,0-.31-.02-1.12-.02h-.62c.13.2.24.41.36.66.03.05,0,.08-.08.11l-.27.08c-.1.03-.12.03-.14-.04-.1-.27-.22-.56-.39-.81h-.9c-.15.27-.33.53-.56.78-.06.07-.1.1-.13.1-.04,0-.06-.02-.12-.06-.11-.09-.19-.13-.28-.17.44-.47.76-.94.97-1.53.04-.13.07-.22.1-.4.21.04.34.06.47.1.06.02.1.04.1.09s-.03.07-.06.11c-.05.05-.07.09-.13.22-.04.12-.09.22-.14.33h1.81c.81,0,1.08-.02,1.12-.02.06,0,.07,0,.07.07v.33ZM232,7.31c.07-.06.08-.06.14,0,.3.25.59.55.84.86.04.06.04.07-.04.13l-.18.15c-.08.07-.09.08-.14,0-.24-.35-.5-.63-.81-.89-.05-.04-.05-.05.02-.12l.17-.14Z"/>
      <path class="cls-1" d="M239.54,4.69c-.06.05-.13.11-.16.2-.73,1.48-1.57,2.44-2.82,3.34-.07.05-.11.08-.13.08-.04,0-.07-.04-.13-.12-.09-.13-.21-.23-.31-.3,1.33-.81,2.29-2.01,2.79-3.13.08-.19.12-.34.14-.53.2.05.43.14.57.21.08.04.12.08.12.13,0,.03-.03.06-.07.1ZM241.2,7.61c.88,0,1.16-.02,1.22-.02.06,0,.08.02.08.08-.02.28-.02.57-.04.95-.02.72-.07,1.36-.21,2.26-.11.6-.39,1.02-1.15,1.02-.29,0-.47,0-.72-.03q-.18,0-.21-.21c-.04-.17-.1-.31-.18-.42.44.07.69.09,1.02.09.42,0,.61-.2.69-.67.11-.62.18-1.41.2-2.55h-2c-.13,1.86-1.06,3.13-2.7,3.9-.06.03-.1.04-.13.04-.04,0-.07-.04-.13-.13-.07-.12-.18-.22-.29-.3,1.65-.65,2.54-1.81,2.68-3.51h-.4c-.87,0-1.16.02-1.2.02-.06,0-.07,0-.07-.07v-.39c0-.06,0-.07.07-.07.04,0,.33.02,1.2.02h2.27ZM241.09,4.25c.11-.05.12-.04.14.03.64,1.43,1.74,2.7,3.12,3.5-.11.08-.22.22-.31.36-.05.08-.08.13-.11.13s-.06-.03-.13-.07c-1.37-.99-2.38-2.24-3.06-3.68-.04-.07,0-.07.08-.12l.27-.14Z"/>
      <path class="cls-1" d="M247.78,6.12c0,.07,0,.08-.07.08-.04,0-.24-.02-.9-.02h-.8c-.66,0-.85.02-.9.02-.06,0-.07,0-.07-.08v-.38c0-.06,0-.06.07-.06.04,0,.23.02.9.02h.8c.65,0,.85-.02.9-.02.06,0,.07,0,.07.06v.38ZM247.6,4.91c0,.06,0,.07-.07.07-.04,0-.21-.02-.75-.02h-.59c-.55,0-.71.02-.75.02-.06,0-.07,0-.07-.07v-.35c0-.06,0-.07.07-.07.04,0,.21.02.75.02h.59c.55,0,.71-.02.75-.02.06,0,.07,0,.07.07v.35ZM247.52,10.62c0,1.04.02,1.21.02,1.25,0,.06,0,.07-.07.07h-.35c-.06,0-.07,0-.07-.07v-.3h-1.13v.47c0,.05,0,.06-.07.06h-.36c-.06,0-.07,0-.07-.06s.02-.23.02-1.32v-.54c0-.54-.02-.73-.02-.79,0-.06,0-.07.07-.07.04,0,.21.02.73.02h.5c.53,0,.69-.02.74-.02.06,0,.07,0,.07.07,0,.04-.02.24-.02.65v.56ZM247.44,7.34c0,.06,0,.07-.08.07-.04,0-.18-.02-.67-.02h-.46c-.5,0-.64.02-.68.02-.06,0-.07,0-.07-.07v-.35c0-.06,0-.07.07-.07.04,0,.18.02.68.02h.46c.49,0,.63-.02.67-.02.07,0,.08,0,.08.07v.35ZM247.44,8.56c0,.05,0,.06-.08.06-.04,0-.18-.02-.67-.02h-.46c-.5,0-.64.02-.68.02-.06,0-.07,0-.07-.06v-.36c0-.06,0-.07.07-.07.04,0,.18.02.68.02h.46c.49,0,.63-.02.67-.02.07,0,.08,0,.08.07v.36ZM247.04,9.79h-1.13v1.35h1.13v-1.35ZM250.83,9.33c.14.37.33.7.57.99.29-.19.53-.36.79-.59.11-.09.18-.17.25-.29.15.1.26.18.38.28.03.03.04.06.04.1,0,.04-.03.08-.09.09-.07,0-.14.04-.3.16-.29.21-.5.36-.81.54.43.42.99.75,1.74.98-.09.07-.18.18-.24.3q-.09.16-.25.1c-1.34-.56-2.16-1.51-2.53-2.65h-.04c-.23.26-.47.47-.71.65v1.32c.49-.12,1-.27,1.46-.46-.02.09-.04.2-.04.29q0,.18-.18.23c-.75.27-1.51.46-2.07.58-.19.04-.29.07-.34.1-.04.02-.08.05-.13.05-.04,0-.06-.04-.09-.12-.04-.12-.09-.25-.13-.42.22,0,.5-.04.71-.08l.32-.06v-1.1c-.32.2-.67.38-1.07.56-.11.05-.13.06-.2-.06-.05-.11-.13-.21-.23-.29.99-.34,1.62-.73,2.1-1.19h-.54c-.9,0-1.2.02-1.24.02-.06,0-.07,0-.07-.07v-.27c0-.06,0-.07.07-.07.04,0,.34.02,1.24.02h.24v-.72c-.67,0-.92.02-.96.02-.06,0-.07,0-.07-.07v-.25c0-.06,0-.07.07-.07.04,0,.29.02.96.02v-.64c-.79,0-1.06.02-1.1.02-.06,0-.07,0-.07-.07v-.27c0-.06,0-.07.07-.07.04,0,.31.02,1.1.02v-.04c0-.23-.02-.38-.05-.59.18,0,.36.03.48.05.06,0,.1.03.1.07,0,.04,0,.06-.04.11-.03.05-.04.17-.04.39h1.13v-.03c0-.29,0-.41-.05-.59.19,0,.37.03.5.05.05,0,.09.04.09.07s0,.06-.04.11c-.04.05-.04.15-.04.38h.08c.84,0,1.08-.02,1.13-.02.06,0,.07,0,.07.07v.27c0,.06,0,.07-.07.07-.04,0-.29-.02-1.13-.02h-.08v.64c.71,0,.96-.02,1.01-.02s.06,0,.06.07v.25c0,.06,0,.07-.06.07s-.3-.02-1.01-.02v.72h.4c.9,0,1.2-.02,1.25-.02.06,0,.07,0,.07.07v.27c0,.06,0,.07-.07.07-.04,0-.35-.02-1.25-.02h-1.03ZM249.99,5.77c-.08.02-.15.04-.24.11-.37.27-.71.46-1.29.66-.17.06-.16.05-.25-.08-.06-.09-.15-.17-.23-.23.62-.15,1.09-.39,1.4-.61.1-.07.19-.15.26-.25.15.08.27.15.37.22.05.04.07.06.07.1s-.04.07-.08.08ZM253.1,5.21c0,.06,0,.07-.07.07-.05,0-.35-.02-1.23-.02h-2.52c-.88,0-1.17.02-1.23.02-.06,0-.07,0-.07-.07v-.31c0-.06,0-.07.07-.07.05,0,.35.02,1.23.02h.96v-.17c0-.28,0-.48-.06-.67.21,0,.42.03.55.04.06,0,.11.04.11.07,0,.05-.03.1-.05.15-.04.07-.04.2-.04.4v.17h1.07c.88,0,1.17-.02,1.23-.02.06,0,.07,0,.07.07v.31ZM251.01,7.24h-1.13v.64h1.13v-.64ZM251.01,8.24h-1.13v.72h1.13v-.72ZM251.26,5.45c.08-.08.09-.07.15-.03.57.42.95.57,1.72.8-.06.04-.14.15-.2.26q-.07.12-.24.08c-.57-.2-1.06-.46-1.6-.84-.05-.04-.04-.05.04-.13l.13-.13Z"/>
      <path class="cls-1" d="M260.24,6.01c.4,0,.57-.03.65-.07s.16-.04.22.03c.15.13.28.27.39.42.08.12.04.21-.04.27-.13.1-.22.14-.42.38-.66.78-1.6,1.74-2.55,2.5.3.3.65.69.92,1.05.06.07.06.12,0,.19-.1.11-.22.21-.33.29-.07.04-.1.05-.15-.03-.81-1.04-1.73-1.94-2.77-2.69.11-.11.26-.26.36-.35.06-.05.09-.04.17,0,.52.39.97.75,1.38,1.13.93-.77,1.88-1.76,2.48-2.54l-3.94.02c-.73,0-1.28.04-1.77.07-.1,0-.13-.02-.14-.1-.03-.18-.06-.4-.07-.63.59.06,1.21.07,1.99.07h3.64Z"/>
      <path class="cls-1" d="M264.42,5.41c.06-.06.11-.05.16-.02.5.28,1.09.7,1.61,1.19.06.06.07.1.03.17-.07.11-.23.31-.3.39-.05.06-.08.07-.14,0-.53-.52-1.12-.98-1.7-1.33.12-.14.25-.3.35-.41ZM265.22,10.16c.97-.51,1.76-.99,2.59-1.67.9-.74,1.65-1.41,2.42-2.41.04.25.09.42.15.59.05.12.04.19-.06.31-.6.71-1.39,1.42-2.18,2.06-.76.61-1.66,1.18-2.69,1.75-.24.14-.41.28-.49.35-.09.08-.16.08-.24,0-.13-.14-.3-.36-.44-.61.35-.1.62-.21.94-.37Z"/>
      <path class="cls-1" d="M272.92,6.97c.04-.06.08-.08.15-.06.58.21,1.09.48,1.58.81.09.06.08.12.04.19-.06.12-.15.28-.23.38-.05.07-.1.08-.17.02-.49-.39-1.06-.68-1.65-.9.12-.17.21-.35.28-.44ZM274.31,10.4c.82-.43,1.62-.9,2.46-1.54.77-.6,1.75-1.47,2.55-2.48.04.23.08.38.17.58.04.09.03.16-.04.24-.75.88-1.53,1.56-2.36,2.19-.8.62-1.67,1.15-2.62,1.67-.2.11-.34.21-.43.3-.08.08-.17.06-.25-.03-.12-.13-.29-.39-.42-.6.31-.07.59-.17.94-.35ZM273.98,4.93c.05-.08.08-.08.16-.04.56.23,1.08.56,1.56.93.08.06.07.1.03.18-.07.12-.17.29-.26.39-.05.06-.09.04-.16-.02-.44-.4-1.02-.76-1.6-1.01.09-.13.19-.3.28-.42Z"/>
      <path class="cls-1" d="M286.37,7.57h-2.02c-.39,0-.98.04-1.33.05-.09,0-.13-.02-.13-.13,0-.13-.03-.3-.04-.48.49.04,1,.04,1.5.04h1.44c.35,0,.73,0,1.06-.02.1,0,.11.03.11.12,0,.38-.02.75-.02,1.11v1.9c0,.34,0,.81.03,1.26,0,.1-.03.13-.13.13-.09,0-.25,0-.36,0-.09,0-.11-.02-.11-.1v-.31h-2.1c-.38,0-.84.03-1.29.05-.09,0-.12-.02-.13-.13-.02-.13-.04-.32-.04-.49.49.03,1.03.04,1.47.04h2.08v-1.34h-1.86c-.35,0-.89,0-1.28.04-.1,0-.13-.02-.14-.13-.02-.12-.03-.3-.03-.47.51.03,1.02.04,1.44.04h1.87v-1.2Z"/>
      <path class="cls-1" d="M291.29,5.41c.06-.06.11-.05.16-.02.5.28,1.09.7,1.61,1.19.06.06.07.1.03.17-.07.11-.23.31-.3.39-.05.06-.08.07-.14,0-.53-.52-1.12-.98-1.7-1.33.12-.14.25-.3.35-.41ZM292.1,10.16c.97-.51,1.76-.99,2.59-1.67.9-.74,1.65-1.41,2.42-2.41.04.25.09.42.15.59.05.12.04.19-.06.31-.6.71-1.39,1.42-2.18,2.06-.76.61-1.66,1.18-2.69,1.75-.24.14-.41.28-.49.35-.09.08-.16.08-.24,0-.13-.14-.3-.36-.44-.61.35-.1.62-.21.94-.37Z"/>
    </g>
    <g>
      <path class="cls-1" d="M128.41,25.69c-.47,0-.73-.22-1.47-.85-.18-.14-1.32-1.12-3.28-1.87.53-.1,1.28-.26,2.14-.26,2.08,0,3.5.79,3.5,1.91,0,.51-.37,1.06-.88,1.06ZM128.87,32.08c-.22.18-.35.31-.49.47-.28.31-.37.41-.65.41-.67,0-2.24-1.55-2.24-3.09,0-.26.04-.41.1-.63.14.2.83,1.16,1.49,1.16.26,0,.43-.04.79-.26,3.12-1.81,7.11-4.87,10.12-8.8l.16.08c-2.22,5.37-5.09,7.53-9.28,10.65ZM129.91,21.15c-.47,0-.73-.26-1.45-.96-.29-.27-1.59-1.38-2.91-1.95.49-.12.79-.18,1.36-.18,1.98,0,3.87.73,3.87,2.1,0,.65-.49.98-.86.98ZM136.96,21.07c-.33,0-.39-.08-1.1-.86-.16-.18-.92-1.04-2.04-1.69,3.09-.08,3.81,1.24,3.81,1.77,0,.45-.28.79-.67.79ZM138.55,19.29c-.29,0-.35-.06-1.02-.75-.18-.18-.96-.98-2.14-1.51.26-.02.41-.04.75-.04.18,0,3.1,0,3.1,1.55,0,.47-.27.75-.69.75Z"/>
      <path class="cls-1" d="M155.91,31.51c-.2,0-1.08-.2-1.4-.26-.33-.08-1.49-.28-3.01-.28-1.59,0-4.8.28-6.03.71-.14.06-.69.35-.81.35-.45,0-1.67-1.22-1.67-2.08,0-.41.1-.69.2-.92.35.51.86,1.26,1.89,1.26.22,0,3.42-.24,3.77-.28.04-.85.06-1.4.06-1.95,0-.85,0-2.24-.33-2.91-.29.04-1.63.31-1.91.31-.75,0-1.67-1.1-1.55-1.95.75.61,1.61.61,1.77.61,1.47,0,2.95-.12,4.38-.33.22-.04,1.08-.37,1.26-.37.35,0,1.43.33,1.43,1,0,.51-.61.51-.9.51-.71,0-2.2,0-2.83.06.57.37.57.45.57.55,0,.12-.2.59-.22.71-.18.69-.31,3.52-.31,3.66.55-.04,2.97-.12,3.46-.2.14-.02.75-.2.88-.2.18,0,1.91.71,1.91,1.42,0,.47-.31.57-.61.57Z"/>
      <path class="cls-1" d="M172.9,20.05c-.47.26-2.83,2.79-3.36,3.3.26.18.53.35.79.55.14.1.22.16.22.33,0,.06-.18.65-.2.71-.1.37-.1.83-.1,1.24,0,1.67.12,4.34.12,5.99,0,.83-.31,1.45-.86,1.45-.81,0-1.26-1.26-1.26-1.69,0-.18.18-1.02.2-1.2.08-.45.16-2.97.16-3.81,0-.55,0-2.18-.22-2.52-2,1.81-4.34,3.2-6.9,4.09l-.08-.12c4.07-2.61,9.45-8.9,9.45-9.83,0-.65-.57-1.04-1.02-1.36.24-.04.41-.08.69-.08,1.75,0,3.07,1.77,3.07,2.24,0,.33-.31.49-.69.69Z"/>
      <path class="cls-1" d="M193.2,22.7c-.26.1-.29.16-.67.79-2.08,3.48-3.22,5.39-6.05,7.37-1.75,1.24-4.01,2.3-5.46,2.57l-.04-.12c2.2-1.12,5.29-3.89,7.57-7.06.71-.98,2.38-4.11,2.38-4.17,0-.12-.12-.12-.18-.12-.47,0-2.85.49-2.95.49-.24,0-.69-.28-.9-.43-1.63,1.95-3.14,3.73-5.62,4.68l-.08-.12c2.83-2.77,5.05-6.66,5.05-7.29,0-.43-.39-.67-1.2-1.12.71-.22,1.12-.22,1.18-.22.61,0,2.67.94,2.67,1.69,0,.18-.04.22-.55.69-.1.1-.43.41-.77.83,1.95.02,3.36-.29,3.52-.39.14-.1.83-.61.96-.61.16,0,1.42,1.06,1.63,1.24.31.28.41.35.41.57,0,.37-.27.47-.9.73ZM194.6,20.88c-.31,0-.51-.26-.73-.51-.67-.86-1.28-1.65-2.32-2.18,1.47-.08,3.68.65,3.68,1.95,0,.51-.37.75-.63.75ZM196.5,19.93c-.29,0-.35-.08-1.02-.9-.16-.22-.83-1.06-2.1-1.61,1.93-.08,3.77.53,3.77,1.77,0,.29-.1.75-.65.75Z"/>
      <path class="cls-1" d="M213.11,24.18c-.41.26-.47.35-.94,1.34-.83,1.75-1.81,3.83-4.28,5.76-1.1.86-3.11,2.14-5.37,2.36l-.02-.14c2.04-1.04,6.6-4.46,7.98-9.75-2.91.18-6.33.94-6.9,1.16-.12.04-.77.33-.86.33-.63,0-1.95-1.32-1.95-2.52,0-.33.08-.57.24-.88.71,1.32,1.61,1.32,2.2,1.32,1.3,0,7-.57,7.39-.73.14-.1.71-.53.83-.61.08-.06.16-.08.28-.08.29,0,1.97,1.32,1.97,1.83,0,.26-.18.39-.55.61ZM210.18,20.35c-1.16,0-3.81.24-4.89.43-.88.16-.98.18-1.22.18-.75,0-1.71-1.06-1.71-2.16,0-.12.02-.18.06-.37.85.83,1.73.87,2.48.87,2.18,0,3.87-.43,4.28-.57.45-.16.83-.27,1-.27.51,0,2,.39,2,1.22,0,.65-.71.67-2,.69Z"/>
      <path class="cls-1" d="M224.98,22.29c-.39,0-.59-.22-1.42-1.12-.94-1.06-1.93-1.87-3.16-2.34.41-.08.84-.16,1.47-.16,1.1,0,4.15.35,4.15,2.44,0,.77-.59,1.18-1.04,1.18ZM227.98,28.42c-.57.47-3.54,2.79-3.66,2.91-.55.57-.61.63-.88.63-.84,0-2.46-1.89-2.46-3.14,0-.37.12-.69.2-.92.83,1.38,1.51,1.4,1.59,1.4.55,0,3.32-1.83,4.93-3.03,2.4-1.79,4.64-3.99,6.21-5.96l.12.06c-.53,1.79-2.48,5.15-6.05,8.06Z"/>
      <path class="cls-1" d="M242.6,30.04c-1.43,1.51-3.68,3.05-6.03,3.93l-.1-.12c1.73-1.38,3.87-3.95,4.4-5.54l2.2,1.04c.08.04.28.2.28.37,0,.24-.08.24-.75.31ZM254.08,19.76h-14.92c-1.2,0-1.63.04-2.12.14l-.31-.73c1.2.1,2.57.12,2.79.12h5.03c0-1.28,0-1.81-.35-3.01l2.85.55c.16.04.39.12.39.28,0,.24-.31.41-.77.69-.02,1.02-.02,1.22-.02,1.49h4.25l.94-1.2c.06-.08.18-.24.29-.24.08,0,.26.12.39.22l1.65,1.18c.06.04.2.16.2.29,0,.2-.16.22-.29.22ZM251.11,23.22c-.02.41-.02,1.04,0,1.55,0,.28.06,1.51.06,1.75,0,1.14-1.1,1.26-1.3,1.26-.81,0-.81-.45-.79-1.1h-2.38c0,.84.04,4.64.04,5.4,0,.83,0,1.97-2.69,2.44-.14-1.26-1-2.12-2.14-2.65l.04-.16c1.51.24,1.77.27,2.3.27.26,0,.39-.08.39-.49,0-.77.04-4.13,0-4.81h-2.59c.02.31.06,1.43-1.34,1.43-.79,0-.79-.59-.79-.85,0-.43.04-2.32.04-2.71,0-2.24-.08-2.73-.22-3.64l2.48.94h6.76l.69-.75c.14-.14.2-.2.29-.2.06,0,.12.02.29.16l1.26,1c.1.08.29.24.29.39,0,.24-.26.41-.71.75ZM249.09,22.33h-7.04v3.87h7.04v-3.87ZM252.37,33.46c-.61,0-.69-.14-1.53-1.47-.08-.14-1.3-2.1-3.01-3.28l.02-.14c2.3.35,5.74,1.63,5.74,3.66,0,.51-.39,1.24-1.22,1.24Z"/>
      <path class="cls-1" d="M266.52,23.31h-3.48c-.59.67-1.42,1.53-2.69,2.63h2.34l.59-.77c.1-.14.2-.22.28-.22s.24.1.31.16l1.32.98c.12.1.27.22.27.39,0,.24-.35.45-.71.65,0,.73-.06,2.1,0,4.09,0,.24.06,1.3.06,1.53,0,.29,0,1.04-1.32,1.04-.67,0-.71-.29-.65-.94h-2.63c.02.73.04,1.34-1.3,1.34-.73,0-.73-.37-.73-.57,0-.29.1-1.73.12-2.04.04-1.38.06-2.54.02-4.11-1.28.88-2.2,1.38-2.87,1.71l-.12-.16c.65-.51,1.63-1.28,2.97-2.56-.04-.86-.08-1.14-.12-1.4l1.06.43c1.08-1.2,1.4-1.55,1.91-2.2h-2.85c-1.38,0-1.75.06-2.12.14l-.33-.73c.94.08,1.87.12,2.81.12h.87v-2.87h-.61c-1.38,0-1.75.08-2.12.14l-.33-.73c1.02.1,2.04.12,3.07.12,0-1-.04-2.06-.12-2.46-.04-.2-.12-.57-.18-.75l2.54.61c.12.02.33.1.33.26,0,.18-.06.22-.63.59-.02.26-.06,1.32-.06,1.75h.12l.53-.88c.06-.1.16-.26.29-.26.16,0,.27.14.35.24l.83.85s.08.06.1.08c.65-1.26.69-1.38.86-2.14l2.02,1.4c.06.04.22.16.22.27,0,.31-.47.29-.67.28-.55.86-1.4,2.12-2.59,3.52h.77l.69-.96c.16-.22.22-.26.31-.26s.29.16.39.24l1,.94c.08.08.18.18.18.29,0,.2-.2.22-.29.22ZM262.86,26.42h-2.65v2.71h2.65v-2.71ZM262.86,29.6h-2.65v2.79h2.65v-2.79ZM261.41,19.97c-.02.22-.02,2.4-.02,2.87h.14c.33-.45,1.02-1.4,1.87-2.87h-1.98ZM272.73,19.54c-1.45,2.2-2.08,3.16-2.95,4.25,1.16.67,3.79,2.16,3.79,5.13,0,2.1-1.26,3.22-3.28,3.46-.08-1.06-.14-1.75-1.53-2.52.02.53.06,3.09.06,3.44,0,.86-.59,1.12-1.26,1.12-.81,0-.81-.61-.81-.83,0-.16.04-.96.04-1.16.06-3.14.1-7.7.1-10.99,0-2.34-.1-3.52-.35-4.5l2.3.96h1.81l.61-.67c.06-.08.18-.2.27-.2.08,0,.2.1.28.18l1.61,1.4c.12.12.22.26.22.35,0,.26-.29.39-.9.57ZM269.33,23.79c.73-2.02,1.24-4.5,1.36-5.4h-1.93c-.02,2.08-.04,4.17-.04,6.25,0,2.46.02,2.73.04,5.05.35.08,1.2.16,1.71.16.31,0,1.08-.02,1.08-1.3,0-1.02-.27-2.71-2.22-4.76Z"/>
      <path class="cls-1" d="M292.5,18.66h-6.15v3.42h2.48l.69-.92c.08-.12.14-.2.24-.2.08,0,.14.06.26.14l1.43,1.1c.12.1.22.2.22.31,0,.22-.2.37-.61.67-.04,3.01.04,6.54.08,7.72.02.33.12,1.83.12,2.14,0,.33-.06.57-.29.77-.33.26-.79.35-1.1.35-.88,0-.84-.59-.81-1.16h-10.18c0,1.24-1.3,1.24-1.42,1.24-.79,0-.81-.45-.81-.65,0-.12.04-.83.04-.92.04-.9.12-4.4.12-7.33,0-2.63-.06-3.26-.26-4.36l2.59,1.1h1.79v-3.42h-3.38c-1.36,0-1.75.08-2.12.14l-.31-.73c.92.08,1.85.12,2.79.12h11.4l1-1.28c.12-.16.2-.26.29-.26s.2.08.37.22l1.63,1.28c.08.06.2.18.2.29,0,.2-.2.22-.29.22ZM289.04,28.11c-.16.47-.43,1.06-2.57,1.06-1.63,0-2.02-.53-2.02-1.53v-5.09h-1.67c-.1,2.83-.77,5.44-3.91,7.39v2.59h10.18v-4.42ZM278.86,22.55v7.17c1.95-2.4,2.06-4.38,2.06-7.17h-2.06ZM284.44,18.66h-1.65v3.42h1.65v-3.42ZM289.04,22.55h-2.69v4.17c0,.22,0,.45.51.45.43,0,.75-.08,1.06-2.02h.16c.29,1.57.31,1.59.96,2.2v-4.8Z"/>
      <path class="cls-1" d="M309.95,34.08c-4.4-2.34-5.56-6.54-6.13-10.12-.98,8.16-7.25,9.69-9.59,10.26l-.08-.16c5.62-2.46,7.21-7.02,7.55-11.48h-4.46c-1.36,0-1.75.06-2.12.14l-.31-.73c.92.08,1.85.12,2.79.12h4.15c.04-.35.08-.9.08-1.73,0-1.24-.12-2.59-.39-3.81l2.99.75c.31.08.37.16.37.28,0,.22-.24.39-.67.67-.02.55-.16,3.24-.18,3.85h4.66l1.06-1.42c.1-.14.2-.24.29-.24s.24.1.39.22l1.69,1.4c.08.06.2.16.2.29,0,.2-.18.22-.29.22h-7.94c1.36,5.6,4.34,8.12,8.55,9.28v.16c-.61.14-1.85.45-2.59,2.06Z"/>
      <path class="cls-1" d="M319.03,17.81l.51-.59c.08-.1.18-.22.31-.22.1,0,.2.08.29.14l1.18.81c.14.1.27.24.27.37,0,.18-.08.29-.67.79,0,.49.04,2.69.04,3.14s0,1.34-1.1,1.34c-.77,0-.75-.39-.73-.84h-.27v3.56h.1l.55-1.08c.06-.12.18-.26.29-.26s.24.1.35.22l1.12,1.06c.1.08.18.2.18.31,0,.18-.16.22-.29.22h-2.3v3.75c.2-.04,1.4-.31,3.2-.92l.04.16c-1.69,1.32-6.25,3.28-6.98,3.62-.18.35-.26.55-.51.55-.14,0-.22-.12-.29-.28l-1.14-2.42c.2.02.39.04.63.04.26,0,.63-.04.75-.04,0-4.42,0-4.78-.08-5.76-.04-.49-.18-.98-.22-1.18l2.22.57c.12.04.29.1.29.28,0,.2-.18.29-.51.53v5.37c.08-.02.55-.1.83-.14v-8.16h-.69c0,.45,0,.49-.08.61-.18.22-.69.43-1.16.43s-.61-.29-.61-.65c0-.59.04-3.22.04-3.77,0-1.14-.02-1.71-.14-2.48l2.1.92h2.46ZM316.41,18.28v3.99h2.73v-3.99h-2.73ZM328.09,18.34c.08-.08.22-.18.35-.18.08,0,.18.04.26.1l1.44,1.2c.1.08.2.2.2.33,0,.35-.35.45-.98.61-1.02,1.69-1.97,2.71-2.08,2.85,1.83,1.12,3.42,1.38,4.46,1.51v.14c-.96.63-1.3,1.26-1.51,2.16-.79-.31-2.44-1.04-4.03-2.71-1.32,1.2-2.44,1.93-3.16,2.32l1.59.67h2.93l.47-.59c.08-.08.22-.26.33-.26.14,0,.26.08.41.2l1.3.86c.12.08.24.18.24.29,0,.2-.26.41-.65.73,0,.69.08,3.69.08,4.32,0,.35,0,1.16-1.28,1.16-.71,0-.71-.41-.69-1.22h-3.36c0,.67,0,1.42-1.24,1.42-.73,0-.73-.57-.73-.86,0-.86.14-4.68.14-5.44,0-.33-.02-.63-.06-1-.85.45-1.4.67-1.85.85l-.08-.18c.86-.63,2.77-2.02,4.62-4.48-.43-.63-.88-1.49-1.18-2.48-.67.88-1.67,2.02-3.22,3.14l-.12-.14c1.04-1.4,2.67-3.95,3.07-7.39l2.26,1c.12.06.35.18.35.31s-.12.26-.73.49c-.28.51-.35.67-.49.9h2.26l.69-.65ZM324.86,19.46c-.26.37-.31.49-.53.77.37.71.85,1.34,1.51,1.96.06-.08.77-1.12,1.53-2.73h-2.52ZM327.75,27.81h-3.36v4.56h3.36v-4.56Z"/>
    </g>
    <g>
      <path class="cls-1" d="M92.9,7.63c-13.91,1.95-64.8,18.63-81.09,30.02l-.97-1.4C35.85,20.57,79.09,9.26,92.9,7.63"/>
      <path class="cls-1" d="M92.23,8.1c-14.31,3.5-54.44,18.61-73.58,32.85l-1-1.38c21.61-15.7,60.83-28.4,74.58-31.47"/>
      <path class="cls-1" d="M8.18,22.31c0,3.35-.16,6.28-.77,8.23-1.05,3.39-3.08,6.11-6.04,6.11-.38,0-1.37-.04-1.37-.93,0-.72.51-1.74,1.08-1.74.73,0,1.65.64,2.57.64.67,0,1.05-.51,1.28-1.1.73-1.95.83-8.44.83-10.69V6.92c0-2.46-.09-4.62-.45-5.22-.32-.55-.98-.72-1.49-.8l-.95-.21c-.13-.25-.13-.51.03-.68,1.75.09,2.77.13,4.07.13s2.48-.04,3.6-.13c.16.13.16.43.03.68l-.48.13c-.51.17-1.18.34-1.5.89-.35.64-.44,2.76-.44,5.22v15.4Z"/>
      <path class="cls-1" d="M15.14,24.52c-1.12,0-2.05-.93-2.05-2.06s.93-2.06,2.05-2.06,2.06.93,2.06,2.06-.93,2.06-2.06,2.06"/>
      <path class="cls-1" d="M37.13,23.68c0,.17,0,.61-.32.61-.18,0-.3-.2-.51-.61-.21-.47-.65-1.52-1.01-1.52-.27,0-1.07.95-1.28,1.08-1.48,1.29-2.97,1.69-4.46,1.69-5.2,0-9.33-5.2-9.33-12.06S24.47.03,29.96.03c.84,0,1.58.13,2.97.88.83.47,1.07.51,1.28.51.18,0,.44,0,1.1-.37.5-.27.68-.31.8-.31.38,0,.56.24.56.74v4.46c0,.54-.09.91-.44.91-.3,0-.36-.1-.95-1.29-.86-1.69-2.38-4.39-5.32-4.39-3.83,0-6.86,4.52-6.86,11.72,0,1.52,0,10.87,6.78,10.87,3.36,0,4.58-2.67,4.58-5.81v-1.62c0-.84-.45-1.31-1.13-1.31h-.98c-.27,0-.47-.24-.47-.54,0-.34.24-.57.47-.57h6.63c.3,0,.5.3.5.57,0,.3-.23.54-.5.54h-.72c-.62,0-1.13.4-1.13,1.38v7.26Z"/>
      <path class="cls-1" d="M54.06,6.07c0,3.79-2.25,5.17-5.35,5.17h-4.22V3.05c0-2.02,1.88-1.7,3.21-1.7,2.08,0,4.11.13,5.52,2.09.55.74.84,1.67.84,2.63M59.27,23.72v-.97c-1.77,0-2.69.16-3.71-1.64l-5.09-8.87c1.71-.07,4.48-1.06,5.38-2.83.44-.83.58-2.02.58-2.99,0-1.03-.23-2.38-.81-3.22-1.25-1.76-3.64-2.83-5.61-2.83h-10.44v.97c1.19,0,2.66-.07,2.66,1.7v17.84c0,1.7-1.5,1.8-2.66,1.86v.97h7.61v-.97c-1.3-.06-2.69,0-2.69-1.86v-8.64h3.47l6.53,11.47h4.78Z"/>
      <path class="cls-1" d="M71.36,14.01h-7.03l3.33-10.67,3.7,10.67ZM78.5,23.75v-1c-1.56,0-1.82-.32-2.34-1.89L69.13,0l-1.47.36-6.33,20.24c-.49,1.58-1.48,2.15-2.92,2.15v1h6.42v-1c-.7-.03-2.78.03-2.78-1.12,0-.23.03-.45.09-.68l1.88-5.95h7.7l1.99,5.76.14,1.06c0,1-1.73.93-2.28.93v1h6.94Z"/>
      <path class="cls-1" d="M96.29,3.08v20.64h-1.13l-13.05-21.37v18.77c0,1.93,1.82,1.64,3.07,1.64v.97h-6.54v-.97c1.02,0,2.58-.06,2.58-1.64V3.15c0-1.8-1.3-1.8-2.54-1.8V.38h4.54l12.18,19.48V3.08c0-1.99-1.85-1.73-3.15-1.73V.38h6.54v.97c-1.33,0-2.49-.1-2.49,1.73"/>
    </g>
    <path class="cls-1" d="M39.82,32c0-.84-.02-.97-.45-1.01l-.19-.02s-.03-.18.02-.2c.37.02.61.02.95.02.3,0,.55,0,.88-.02.05.02.06.17.02.2l-.14.02c-.44.05-.45.17-.45,1.01v.92c0,.15.02.31.1.31.07,0,.16-.05.21-.09.11-.1.3-.31.39-.39l.82-.86c.14-.15.51-.55.59-.67.04-.06.05-.1.05-.13s-.03-.06-.13-.08l-.2-.05c-.05-.06-.04-.16.02-.2.26.02.57.02.83.02s.52,0,.75-.02c.05.04.06.15.02.2-.2.02-.49.1-.7.23-.21.13-.64.51-1.06.93l-.68.68c-.11.11-.17.19-.17.25,0,.06.05.12.14.25.72.88,1.3,1.6,1.89,2.26.18.19.35.3.61.33l.2.02c.05.04.04.18-.02.2-.2-.02-.49-.02-.85-.02-.31,0-.58,0-.92.02-.05-.02-.08-.15-.03-.2l.17-.03c.11-.02.18-.04.18-.08,0-.05-.05-.11-.11-.19-.14-.19-.34-.41-.63-.76l-.61-.72c-.43-.51-.55-.68-.73-.68-.11,0-.13.1-.13.39v1.04c0,.84.02.96.44,1l.2.02s.03.18-.01.2c-.37-.02-.63-.02-.92-.02-.31,0-.57,0-.88.02-.04-.02-.06-.14-.01-.2l.15-.02c.4-.06.42-.16.42-1v-2.9Z"/>
    <path class="cls-1" d="M46.99,34.88c0,.86.05.99.45,1.02l.29.02s.03.18-.02.2c-.47-.02-.73-.02-1.03-.02-.32,0-.59,0-.99.02-.04-.02-.06-.15-.01-.2l.23-.02c.44-.05.45-.16.45-1.02v-.41c0-.44-.02-.55-.24-1l-.89-1.85c-.26-.53-.37-.57-.6-.61l-.21-.04c-.04-.06-.04-.17.02-.2.24.02.51.02.88.02s.62,0,.81-.02c.07.02.07.15.02.2l-.1.02c-.27.04-.32.08-.32.14,0,.08.2.54.23.62.28.6.56,1.23.86,1.79.23-.43.48-.89.71-1.36.21-.42.49-.96.49-1.06,0-.05-.14-.1-.32-.13l-.14-.02c-.05-.06-.04-.17.02-.2.27.02.49.02.73.02s.45,0,.7-.02c.06.04.07.15.02.2l-.21.04c-.39.07-.62.58-1,1.27l-.48.88c-.33.61-.36.68-.36,1.3v.42Z"/>
    <path class="cls-1" d="M48.66,33.5c0-1.61,1.14-2.84,2.69-2.84,1.75,0,2.63,1.34,2.63,2.76,0,1.62-1.17,2.81-2.63,2.81-1.68,0-2.69-1.28-2.69-2.73ZM53.23,33.67c0-1.33-.55-2.76-2-2.76-.79,0-1.81.57-1.81,2.33,0,1.19.54,2.73,2.04,2.73.91,0,1.77-.72,1.77-2.31Z"/>
    <path class="cls-1" d="M56.69,34.89c0,.84.02.96.45,1l.24.02s.03.18-.02.2c-.43-.02-.69-.02-.99-.02s-.57,0-1.05.02c-.05-.02-.06-.16,0-.2l.27-.02c.43-.04.47-.16.47-1v-3.59c0-.25,0-.26-.23-.26h-.42c-.33,0-.74.02-.93.2-.18.18-.26.35-.34.55-.06.05-.17,0-.2-.06.12-.36.23-.88.29-1.2.02-.02.12-.02.14,0,.05.26.29.25.64.25h3.06c.41,0,.48-.02.59-.23.04-.02.12,0,.14.02-.08.33-.14.98-.11,1.22-.03.06-.16.06-.2.02-.02-.2-.08-.5-.19-.59-.17-.14-.46-.2-.88-.2h-.54c-.23,0-.22,0-.22.27v3.58Z"/>
    <g>
      <path class="cls-1" d="M58.93,33.5c0-1.61,1.14-2.84,2.69-2.84,1.75,0,2.63,1.34,2.63,2.76,0,1.62-1.17,2.81-2.63,2.81-1.68,0-2.69-1.28-2.69-2.73ZM63.49,33.67c0-1.33-.55-2.76-2-2.76-.79,0-1.81.57-1.81,2.33,0,1.19.54,2.73,2.04,2.73.91,0,1.77-.72,1.77-2.31Z"/>
      <path class="cls-1" d="M71.52,34.73c0,.24,0,1.2.02,1.41-.02.05-.06.09-.14.09-.09-.14-.31-.42-.97-1.21l-1.76-2.12c-.2-.25-.72-.91-.88-1.09h-.02c-.03.1-.04.28-.04.52v1.75c0,.38,0,1.42.14,1.66.04.09.2.14.39.15l.23.02c.05.06.04.16-.01.2-.34-.02-.61-.02-.89-.02-.32,0-.52,0-.79.02-.05-.04-.06-.15-.02-.2l.2-.02c.17-.02.29-.07.33-.16.11-.29.1-1.27.1-1.66v-2.32c0-.23,0-.39-.17-.58-.11-.11-.29-.17-.47-.19l-.13-.02s-.05-.17.01-.2c.32.02.72.02.86.02.12,0,.25,0,.35-.02.15.41,1.04,1.47,1.29,1.77l.73.88c.52.62.89,1.07,1.25,1.46h.02s.03-.17.03-.34v-1.72c0-.38,0-1.42-.15-1.66-.05-.07-.17-.12-.47-.16l-.13-.02c-.05-.05-.05-.18.02-.2.35.02.61.02.89.02.33,0,.52,0,.78-.02.06.04.06.15.01.2l-.11.02c-.24.04-.39.1-.42.17-.13.29-.11,1.29-.11,1.66v1.92Z"/>
      <path class="cls-1" d="M73.37,32.01c0-.85-.02-.99-.46-1.03l-.19-.02s-.03-.18.02-.2c.38.02.64.02.95.02s.56,0,.94-.02c.05.02.06.17.02.2l-.19.02c-.45.04-.46.18-.46,1.03v2.86c0,.85.02.96.46,1.02l.19.02s.03.18-.02.2c-.38-.02-.64-.02-.94-.02-.32,0-.58,0-.95.02-.05-.02-.06-.15-.02-.2l.19-.02c.45-.06.46-.17.46-1.02v-2.86Z"/>
      <path class="cls-1" d="M76.65,36.23c-.64,0-1.04-.21-1.18-.3-.09-.18-.19-.75-.2-1.13.04-.06.15-.07.18-.02.11.41.42,1.2,1.3,1.2.64,0,.95-.44.95-.92,0-.35-.07-.75-.62-1.13l-.72-.5c-.38-.27-.82-.72-.82-1.38,0-.76.56-1.38,1.54-1.38.23,0,.51.05.7.1.1.03.2.05.26.05.07.19.14.64.14.98-.03.05-.15.07-.19.02-.1-.39-.3-.91-1.03-.91s-.9.52-.9.89c0,.47.36.8.64.99l.61.4c.48.31.95.78.95,1.54,0,.88-.63,1.49-1.61,1.49Z"/>
      <path class="cls-1" d="M80.63,33.5c-.36,0-.38.02-.38.26v1.13c0,.84.04.96.46,1l.22.02s.03.18-.02.2c-.41-.02-.67-.02-.96-.02-.33,0-.58.02-.88.02-.04-.02-.06-.15-.01-.2l.13-.02c.42-.08.44-.16.44-1v-2.9c0-.84-.05-.98-.45-1.01l-.2-.02s-.03-.18.02-.2c.37,0,.63.02.95.02.3,0,.55,0,.88-.02.05.02.06.17.02.2l-.14.02c-.44.05-.45.17-.45,1.01v.92c0,.25.02.26.38.26h2.16c.36,0,.38,0,.38-.26v-.92c0-.84-.02-.96-.46-1.01l-.14-.02s-.03-.18.02-.2c.35.02.61.02.92.02s.55,0,.89-.02c.04.02.06.17.01.2l-.16.02c-.44.05-.45.17-.45,1.01v2.9c0,.84.02.95.45,1l.18.02s.03.18-.02.2c-.36-.02-.62-.02-.92-.02-.31,0-.58,0-.92.02-.05-.02-.06-.15-.02-.2l.14-.02c.46-.08.46-.16.46-1v-1.13c0-.24-.02-.26-.38-.26h-2.16Z"/>
      <path class="cls-1" d="M85.72,32.01c0-.85-.02-.99-.46-1.03l-.19-.02s-.03-.18.02-.2c.38.02.64.02.95.02s.56,0,.94-.02c.05.02.06.17.02.2l-.19.02c-.45.04-.46.18-.46,1.03v2.86c0,.85.02.96.46,1.02l.19.02s.03.18-.02.2c-.38-.02-.64-.02-.94-.02-.32,0-.58,0-.95.02-.05-.02-.06-.15-.02-.2l.19-.02c.45-.06.46-.17.46-1.02v-2.86Z"/>
      <path class="cls-1" d="M87.66,33.5c0-1.61,1.14-2.84,2.69-2.84,1.75,0,2.63,1.34,2.63,2.76,0,1.62-1.17,2.81-2.63,2.81-1.68,0-2.69-1.28-2.69-2.73ZM92.22,33.67c0-1.33-.55-2.76-2-2.76-.79,0-1.81.57-1.81,2.33,0,1.19.54,2.73,2.04,2.73.91,0,1.77-.72,1.77-2.31Z"/>
      <path class="cls-1" d="M94.41,32.01c0-.89-.08-.99-.52-1.03l-.19-.02s-.03-.18.02-.2c.44.02.7.02,1.01.02s.56,0,.86-.02c.04.02.06.17.01.2l-.11.02c-.45.06-.46.18-.46,1.03v2.98c0,.64-.03,1.19-.17,1.56-.25.64-.79,1.16-1.49,1.16-.09,0-.33,0-.33-.17,0-.14.11-.37.27-.37.09,0,.18.02.28.05.11.03.21.06.32.06.16,0,.25-.1.3-.21.17-.38.2-1.58.2-2.02v-3.04Z"/>
      <path class="cls-1" d="M96.9,32.01c0-.85-.02-.99-.46-1.03l-.19-.02s-.03-.18.02-.2c.38.02.64.02.95.02s.56,0,.94-.02c.05.02.06.17.02.2l-.19.02c-.45.04-.46.18-.46,1.03v2.86c0,.85.02.96.46,1.02l.19.02s.03.18-.02.2c-.38-.02-.64-.02-.94-.02-.32,0-.58,0-.95.02-.05-.02-.06-.15-.02-.2l.19-.02c.45-.06.46-.17.46-1.02v-2.86Z"/>
    </g>
  </g>
</svg>