<?xml version="1.0" encoding="UTF-8"?><svg id="_レイヤー_2" xmlns="http://www.w3.org/2000/svg" viewBox="0 0 196.94 34.92"><g id="_レイヤー_1-2"><g><g><path d="M30.59,17.2c0-2.11,.32-3.93,.96-5.45s1.48-2.66,2.54-3.41c.82-.59,1.67-.89,2.54-.89,1.42,0,2.69,.72,3.82,2.17,1.41,1.79,2.12,4.22,2.12,7.29,0,2.15-.31,3.97-.93,5.47-.62,1.5-1.41,2.59-2.37,3.27-.96,.68-1.89,1.02-2.78,1.02-1.77,0-3.24-1.04-4.41-3.13-.99-1.76-1.49-3.87-1.49-6.35Zm2.68,.34c0,2.55,.31,4.63,.94,6.24,.52,1.36,1.29,2.03,2.32,2.03,.49,0,1-.22,1.53-.66,.53-.44,.93-1.18,1.2-2.22,.42-1.57,.63-3.77,.63-6.62,0-2.11-.22-3.87-.66-5.28-.33-1.05-.75-1.79-1.27-2.23-.37-.3-.82-.45-1.35-.45-.62,0-1.17,.28-1.65,.83-.66,.75-1.1,1.94-1.34,3.56-.24,1.62-.35,3.22-.35,4.79Z"/><path d="M44.46,9.65l4.51-2.2h.45v15.63c0,1.04,.04,1.68,.13,1.94s.27,.45,.54,.59,.83,.21,1.67,.23v.5h-6.96v-.5c.87-.02,1.44-.09,1.69-.23s.43-.31,.53-.53,.15-.89,.15-2V13.09c0-1.35-.05-2.21-.14-2.59-.06-.29-.18-.5-.35-.64s-.37-.21-.61-.21c-.34,0-.81,.14-1.41,.42l-.21-.42Z"/><path d="M66.72,22.78l-1.3,3.56h-10.92v-.5c3.21-2.93,5.47-5.32,6.79-7.18,1.31-1.86,1.97-3.55,1.97-5.09,0-1.17-.36-2.14-1.08-2.89-.72-.76-1.58-1.13-2.58-1.13-.91,0-1.73,.27-2.45,.8s-1.26,1.31-1.6,2.34h-.5c.23-1.68,.81-2.98,1.75-3.88,.94-.9,2.12-1.35,3.53-1.35,1.5,0,2.76,.48,3.76,1.45,1.01,.96,1.51,2.1,1.51,3.41,0,.94-.22,1.88-.66,2.81-.67,1.47-1.77,3.04-3.28,4.68-2.27,2.48-3.68,3.97-4.25,4.48h4.83c.98,0,1.67-.04,2.07-.11,.4-.07,.75-.22,1.07-.44,.32-.22,.6-.54,.83-.95h.5Z"/><path d="M69.31,17.2c0-2.11,.32-3.93,.96-5.45s1.48-2.66,2.54-3.41c.82-.59,1.67-.89,2.54-.89,1.42,0,2.69,.72,3.82,2.17,1.41,1.79,2.12,4.22,2.12,7.29,0,2.15-.31,3.97-.93,5.47-.62,1.5-1.41,2.59-2.37,3.27-.96,.68-1.89,1.02-2.78,1.02-1.77,0-3.24-1.04-4.41-3.13-.99-1.76-1.49-3.87-1.49-6.35Zm2.68,.34c0,2.55,.31,4.63,.94,6.24,.52,1.36,1.29,2.03,2.32,2.03,.49,0,1-.22,1.53-.66,.53-.44,.93-1.18,1.2-2.22,.42-1.57,.63-3.77,.63-6.62,0-2.11-.22-3.87-.66-5.28-.33-1.05-.75-1.79-1.27-2.23-.37-.3-.82-.45-1.35-.45-.62,0-1.17,.28-1.65,.83-.66,.75-1.1,1.94-1.34,3.56-.24,1.62-.35,3.22-.35,4.79Z"/><path d="M85.51,15.93h7.06v2.06h-7.06v-2.06Z"/><path d="M96.8,17.2c0-2.11,.32-3.93,.96-5.45s1.48-2.66,2.54-3.41c.82-.59,1.67-.89,2.54-.89,1.42,0,2.69,.72,3.82,2.17,1.41,1.79,2.12,4.22,2.12,7.29,0,2.15-.31,3.97-.93,5.47-.62,1.5-1.41,2.59-2.37,3.27-.96,.68-1.89,1.02-2.78,1.02-1.77,0-3.24-1.04-4.41-3.13-.99-1.76-1.49-3.87-1.49-6.35Zm2.68,.34c0,2.55,.31,4.63,.94,6.24,.52,1.36,1.29,2.03,2.32,2.03,.49,0,1-.22,1.53-.66,.53-.44,.93-1.18,1.2-2.22,.42-1.57,.63-3.77,.63-6.62,0-2.11-.22-3.87-.66-5.28-.33-1.05-.75-1.79-1.27-2.23-.37-.3-.82-.45-1.35-.45-.62,0-1.17,.28-1.65,.83-.66,.75-1.1,1.94-1.34,3.56-.24,1.62-.35,3.22-.35,4.79Z"/><path d="M111.75,17.2c0-2.11,.32-3.93,.96-5.45s1.48-2.66,2.54-3.41c.82-.59,1.67-.89,2.54-.89,1.42,0,2.69,.72,3.82,2.17,1.41,1.79,2.12,4.22,2.12,7.29,0,2.15-.31,3.97-.93,5.47-.62,1.5-1.41,2.59-2.37,3.27-.96,.68-1.89,1.02-2.78,1.02-1.77,0-3.24-1.04-4.41-3.13-.99-1.76-1.49-3.87-1.49-6.35Zm2.68,.34c0,2.55,.31,4.63,.94,6.24,.52,1.36,1.29,2.03,2.32,2.03,.49,0,1-.22,1.53-.66,.53-.44,.93-1.18,1.2-2.22,.42-1.57,.63-3.77,.63-6.62,0-2.11-.22-3.87-.66-5.28-.33-1.05-.75-1.79-1.27-2.23-.37-.3-.82-.45-1.35-.45-.62,0-1.17,.28-1.65,.83-.66,.75-1.1,1.94-1.34,3.56-.24,1.62-.35,3.22-.35,4.79Z"/><path d="M138.71,19.52v1.94h-2.48v4.89h-2.25v-4.89h-7.84v-1.75l8.59-12.26h1.5v12.07h2.48Zm-4.74,0V10.33l-6.5,9.19h6.5Z"/><path d="M141.79,15.93h7.06v2.06h-7.06v-2.06Z"/><path d="M155.34,9.65l4.51-2.2h.45v15.63c0,1.04,.04,1.68,.13,1.94s.27,.45,.54,.59,.83,.21,1.67,.23v.5h-6.96v-.5c.87-.02,1.44-.09,1.69-.23s.43-.31,.53-.53,.15-.89,.15-2V13.09c0-1.35-.05-2.21-.14-2.59-.06-.29-.18-.5-.35-.64s-.37-.21-.61-.21c-.34,0-.81,.14-1.41,.42l-.21-.42Z"/><path d="M179.16,7.83l-1.06,2.32h-5.57l-1.21,2.49c2.41,.35,4.32,1.25,5.73,2.69,1.21,1.24,1.82,2.69,1.82,4.37,0,.97-.2,1.88-.59,2.7s-.89,1.53-1.49,2.12c-.6,.58-1.27,1.05-2.01,1.41-1.05,.5-2.12,.75-3.22,.75s-1.92-.19-2.42-.57c-.51-.38-.76-.79-.76-1.25,0-.25,.1-.48,.31-.68,.21-.2,.47-.29,.79-.29,.24,0,.44,.04,.62,.11,.18,.07,.48,.26,.91,.56,.68,.47,1.37,.71,2.08,.71,1.06,0,2-.4,2.81-1.21,.81-.8,1.21-1.79,1.21-2.94s-.36-2.16-1.08-3.13c-.72-.97-1.71-1.72-2.98-2.25-.99-.41-2.34-.65-4.05-.71l3.55-7.19h6.64Z"/><path d="M194.52,7.45v.51c-1.2,.12-2.18,.36-2.94,.72-.76,.36-1.51,.91-2.25,1.64s-1.36,1.56-1.84,2.46c-.49,.91-.89,1.98-1.22,3.23,1.31-.9,2.63-1.35,3.95-1.35s2.36,.51,3.29,1.53c.93,1.02,1.39,2.33,1.39,3.93s-.47,2.96-1.41,4.23c-1.13,1.55-2.62,2.32-4.48,2.32-1.27,0-2.34-.42-3.22-1.26-1.73-1.63-2.59-3.74-2.59-6.33,0-1.66,.33-3.23,1-4.72,.66-1.49,1.61-2.82,2.85-3.97,1.23-1.16,2.41-1.93,3.54-2.33,1.13-.4,2.18-.6,3.15-.6h.79Zm-8.49,9.56c-.16,1.23-.25,2.22-.25,2.98,0,.87,.16,1.82,.48,2.85,.32,1.02,.8,1.84,1.44,2.44,.46,.43,1.03,.64,1.69,.64,.79,0,1.5-.37,2.12-1.12,.62-.75,.94-1.81,.94-3.19,0-1.56-.31-2.9-.93-4.04-.62-1.14-1.5-1.71-2.63-1.71-.35,0-.72,.07-1.11,.22-.4,.15-.98,.46-1.75,.94Z"/></g><g><path d="M3.32,19.94c0,2.24,1.76,3.33,3.19,3.33s3.19-1.09,3.19-3.33c0-1.74-1.72-3.13-3.19-3.96-1.46,.83-3.19,2.22-3.19,3.96Z"/><path d="M16.27,19.9c0,2.24,1.76,3.33,3.19,3.33s3.19-1.09,3.19-3.33c0-1.74-1.72-3.13-3.19-3.96-1.46,.83-3.19,2.22-3.19,3.96Z"/><path d="M0,27.06H25.91V10.15H0V27.06ZM0,12.78c2.63,0,4.96,.66,6.55,1.48,1.58-.82,3.77-1.48,6.4-1.48s4.82,.66,6.4,1.48c1.58-.82,3.92-1.48,6.55-1.48v1.48c-1.56,0-3.45,.29-4.93,.93,1.6,1.07,3.15,2.69,3.15,4.74,0,2.71-2.27,4.77-4.77,4.77s-4.69-2.07-4.69-4.77c0-2.05,1.47-3.67,3.07-4.74-1.48-.64-3.23-.93-4.79-.93s-3.3,.29-4.79,.93c1.6,1.07,3.07,2.69,3.07,4.74,0,2.71-2.19,4.77-4.69,4.77s-4.8-2.07-4.8-4.77c0-2.05,1.58-3.67,3.18-4.74C3.44,14.56,1.56,14.26,0,14.26v-1.48Z"/><path d="M28.3,24.04c-.89,0-1.62,.73-1.62,1.62s.72,1.62,1.62,1.62,1.62-.73,1.62-1.62-.73-1.62-1.62-1.62Zm0,3.05c-.79,0-1.43-.64-1.43-1.43s.64-1.43,1.43-1.43,1.43,.64,1.43,1.43-.64,1.43-1.43,1.43Z"/><path d="M28.76,25.47c.09-.1,.13-.22,.13-.35,0-.18-.06-.31-.18-.41-.12-.1-.28-.15-.48-.15h-.61v2.14h.25v-.97h.28l.63,.97h.31l-.68-1.02c.15-.04,.27-.11,.36-.21Zm-.89,.04v-.73h.32c.29,0,.44,.12,.44,.36,0,.11-.04,.2-.12,.27-.08,.07-.19,.11-.32,.11h-.31Z"/></g></g></g></svg>