<?xml version="1.0" encoding="UTF-8"?>
<svg id="_レイヤー_2" data-name="レイヤー 2" xmlns="http://www.w3.org/2000/svg" xmlns:xlink="http://www.w3.org/1999/xlink" viewBox="0 0 338.55 126.19">
  <defs>
    <style>
      .cls-1 {
        fill: none;
        stroke: #000;
        stroke-miterlimit: 10;
      }

      .cls-2, .cls-3 {
        stroke-width: 0px;
      }

      .cls-3 {
        fill: url(#_ジャガイモ);
      }
    </style>
    <linearGradient id="_ジャガイモ" data-name="ジャガイモ" x1="4.56" y1="65.5" x2="178.43" y2="65.5" gradientUnits="userSpaceOnUse">
      <stop offset=".02" stop-color="#806736"/>
      <stop offset=".12" stop-color="#755126"/>
      <stop offset=".23" stop-color="#806533"/>
      <stop offset=".45" stop-color="#94794b"/>
      <stop offset=".51" stop-color="#9a8052"/>
      <stop offset=".7" stop-color="#c4a480"/>
      <stop offset=".81" stop-color="#ae9167"/>
      <stop offset=".9" stop-color="#9a8052"/>
      <stop offset="1" stop-color="#d0bf9e"/>
    </linearGradient>
  </defs>
  <g id="_レイヤー_1-2" data-name="レイヤー 1">
    <g>
      <g>
        <g>
          <path class="cls-2" d="M17.05,7.29c-.89,1.41-1.98,2.61-3.11,3.43l-.26-.22c1.24-1.33,2.52-3.52,3.28-5.85l1.7.67c-.07.19-.3.33-.69.3-.19.41-.39.8-.61,1.17h3.13l.78-.98s.85.7,1.37,1.22c-.04.19-.2.28-.46.28h-3.83c2.32,1.3,1.24,3.19.28,2.33.02-.8-.43-1.72-.93-2.33h-.65ZM28.98,14.92l1.35,1.13c-.11.15-.35.22-.72.24-.2,2.32-.67,3.74-1.39,4.28-.44.32-1.06.48-1.72.48,0-.33-.07-.65-.28-.83-.24-.19-.85-.33-1.44-.43l.02-.33c.63.06,1.74.15,2.11.15.3,0,.44-.04.61-.15.37-.28.72-1.44.91-3.28h-5.43v5.08c0,.09-.41.37-1.02.37h-.18v-4.67c-1.89,1.98-4.61,3.56-7.74,4.59l-.15-.3c2.76-1.24,5.24-3.09,6.83-5.08h-3.95c-.13.44-.24.87-.35,1.24-.32.17-.65.18-1.26-.02.48-1.56,1.09-3.83,1.37-5.09l1.33.63h3.91v-2.22h-6.19l-.15-.54h11.91l.63-.69,1.43,1.07c-.11.13-.37.28-.69.33v3.2c-.02.13-.63.41-1.02.41h-.19v-1.04h-4.54v2.15h5.3l.69-.7ZM21.79,15.62v-2.15h-4.33c-.13.59-.33,1.37-.52,2.15h4.85ZM29.35,5.71s.96.74,1.54,1.3c-.04.19-.2.28-.46.28h-4.59c2.2,1.19,1.26,2.98.28,2.22-.06-.76-.56-1.63-1.11-2.22h-1.02c-.69,1.02-1.48,1.89-2.3,2.52l-.24-.19c.91-1.17,1.89-3.06,2.5-5l1.74.67c-.09.2-.31.33-.7.3-.2.41-.43.8-.67,1.19h4.21l.83-1.06ZM22.99,12.93h4.54v-2.22h-4.54v2.22Z"/>
          <path class="cls-2" d="M45.45,18.79v1.39h-8.17v-1.11c1.15-1.19,2.3-2.43,3.19-3.37,2.04-2.21,2.85-3.72,2.85-5.28,0-1.67-.96-2.8-2.56-2.8-.35,0-.78.04-1.22.17l-.46,1.43c-.22.8-.5,1.15-.98,1.15-.41,0-.69-.22-.89-.57.32-1.95,2.04-2.93,3.96-2.93,2.5,0,3.67,1.39,3.67,3.43,0,1.7-.89,3.04-3.85,6-.52.56-1.46,1.5-2.48,2.5h6.95Z"/>
          <path class="cls-2" d="M53.66,15.86v-7.76h-1.63l-.15-.56h1.78v-2.65l1.78.2c-.06.24-.22.41-.61.48v1.96h3.35v-2.67l1.82.2c-.04.26-.2.45-.65.5v1.96h.28l.68-.93s.78.67,1.26,1.19c-.04.2-.22.3-.46.3h-1.76v7.76h.3l.76-1.02s.83.74,1.35,1.28c-.04.19-.22.28-.48.28h-9.58l-.15-.54h2.11ZM51.56,21.38c1.11-.96,2.22-2.59,2.91-4.46l1.76.78c-.09.19-.35.32-.72.26-.94,1.65-2.3,2.91-3.7,3.67l-.24-.24ZM54.82,8.1v2.08h3.35v-2.08h-3.35ZM54.82,12.95h3.35v-2.22h-3.35v2.22ZM54.82,15.86h3.35v-2.37h-3.35v2.37ZM57.42,17.03c3.76,1.26,2.83,3.8,1.63,2.93-.2-.93-1.11-2.11-1.85-2.78l.22-.15ZM68.75,6.21c-.13.15-.43.31-.8.37v13.23c0,.98-.2,1.57-1.89,1.76-.06-.37-.17-.7-.41-.87-.26-.2-.72-.37-1.54-.46v-.32s1.83.15,2.22.15c.33,0,.44-.11.44-.41v-5h-3.59c-.22,2.59-1,5.11-3.45,6.91l-.28-.2c2.35-2.43,2.67-5.63,2.67-9.13v-7.02l1.37.59h3.09l.59-.76,1.56,1.17ZM66.79,14.1v-3.71h-3.5v1.82c0,.63-.02,1.26-.06,1.89h3.56ZM63.29,6.36v3.52h3.5v-3.52h-3.5Z"/>
          <path class="cls-2" d="M82.93,19.58v.59h-7.32v-.59l2.93-.35c.02-1.11.04-2.21.04-3.3v-7.59l-2.78.31v-.67l4-1.04.28.22-.07,2.87v5.89c0,1.09.02,2.19.04,3.3l2.89.35Z"/>
          <path class="cls-2" d="M96.1,13.23c-1.22.98-3.04,2.43-5.43,4.13,0,.22-.13.43-.3.52l-1-1.52c1.09-.44,3.85-1.87,6.59-3.35l.13.22ZM90.51,6.25c4.98.93,4.26,4.04,2.76,3.2-.46-1.06-1.83-2.33-2.95-3.02l.19-.18ZM100.81,9.04c.33,5.13,1.48,8.97,5.82,11.34l-.05.2c-.59.09-1,.33-1.17,1.04-3.37-2.24-4.45-6.08-4.83-10.63-.63,5.35-2.58,8.63-8.71,10.61l-.15-.26c6.04-2.59,7.54-6.32,7.8-12.36h-2.13c-.93,1.59-2.04,2.93-3.3,3.91l-.26-.2c1.61-1.87,3.08-4.83,3.78-8.1l2,.61c-.07.22-.28.37-.7.37-.35,1.02-.76,1.98-1.22,2.87h6.82l.8-.83,1.44,1.41c-.15.13-.37.15-.72.18-.63,1.13-1.8,2.63-2.85,3.59l-.22-.18c.57-.98,1.24-2.48,1.61-3.63h-3.82v.07l.07-.02Z"/>
          <path class="cls-2" d="M108,21.38c1-1.13,1.83-2.89,2.2-4.11l1.7.74c-.11.18-.26.3-.69.24-.61,1.07-1.69,2.48-3.02,3.35l-.2-.22ZM110.11,17.31c0,.11-.37.39-.94.39h-.17V5.19l1.33.56h2.72l.63-.72,1.37,1.06c-.13.17-.35.28-.76.35v10.63c0,.07-.44.37-.98.37h-.19v-1.02h-3.02v.89ZM110.11,6.3v2.74h3.02v-2.74h-3.02ZM113.13,12.42v-2.82h-3.02v2.82h3.02ZM113.13,15.88v-2.91h-3.02v2.91h3.02ZM112.24,17.29c3.3,1.33,2.11,3.63.98,2.72-.11-.85-.67-1.94-1.19-2.59l.2-.13ZM124.63,10.8c-.15.17-.33.22-.74.26-.52,2.3-1.32,4.48-2.69,6.35,1.09,1.3,2.46,2.3,4.08,3.02l-.06.18c-.5.04-.95.33-1.19.87-1.45-.83-2.59-1.91-3.52-3.24-1.13,1.3-2.61,2.39-4.56,3.24l-.2-.28c1.8-1,3.19-2.28,4.24-3.78-1.02-1.78-1.67-3.93-2.04-6.56h-.72v.59c0,3.33-.3,7.39-3.39,10.15l-.3-.2c2.22-2.8,2.54-6.37,2.54-9.95v-6l1.35.59h5.19l.8-1.02s.94.72,1.52,1.28c-.06.2-.22.3-.48.3h-7.22v3.71h5.28l.76-.74,1.35,1.22ZM118.35,10.88c.41,2.22,1.15,4.13,2.21,5.69,1.02-1.72,1.67-3.65,2.06-5.69h-4.26Z"/>
          <path class="cls-2" d="M126.45,21.34c5.09-1.45,5.89-4.09,5.71-7.43l2.02.18c-.06.33-.28.48-.67.52-.11,3.22-1.2,5.78-6.93,7.02l-.13-.3ZM129.27,12.68c.06,1.31-.5,2.19-1.06,2.56-.46.33-1.13.39-1.35-.06-.17-.41.07-.76.46-.98.78-.44,1.48-1.59,1.39-2.89l.31-.02c.09.3.15.57.2.83h11.99l.81-.83,1.48,1.43c-.13.13-.33.18-.72.2-.63.76-1.82,1.78-2.7,2.39l-.22-.17c.41-.63.96-1.65,1.32-2.46h-11.91ZM127.04,6.8h7.32v-2.17l1.93.2c-.04.28-.22.46-.69.52v1.45h5.15l.91-1.15s1.02.82,1.67,1.41c-.06.19-.24.28-.5.28h-7.22v2.28h3.98l.87-1.13s1.02.8,1.63,1.37c-.06.2-.2.3-.46.3h-12.91l-.15-.54h5.8v-2.28h-7.15l-.17-.54ZM143.16,19.92c.41.15.5.3.5.54,0,.54-.58.76-3.5.76h-2.04c-1.48,0-1.78-.3-1.78-1.22v-6.09l1.74.2c-.04.22-.2.39-.56.45v5.19c0,.3.09.37.78.37h1.89c.85,0,1.5,0,1.74-.02.22-.02.3-.07.39-.24.13-.3.35-1.26.56-2.3h.24l.04,2.37Z"/>
          <path class="cls-2" d="M150.59,5.28c-.09.2-.3.35-.72.33-.52,1.39-1.11,2.74-1.8,3.98l.72.28c-.07.19-.24.3-.57.33v11c-.02.09-.48.39-.93.39h-.22v-10.32c-.65,1-1.35,1.91-2.09,2.65l-.28-.19c1.5-2.19,3.07-5.65,3.96-9.08l1.93.61ZM157.92,7.14v3.32h2.22l.61-.74,1.35,1.07c-.13.15-.33.26-.72.31v9.8c0,.07-.46.37-.98.37h-.19v-1.56h-8.89v1.28c0,.09-.35.37-.94.37h-.19v-11.49l1.35.57h1.89v-3.32h-3.28l-.15-.52h9.52l.95-1.17s1.07.8,1.72,1.41c-.06.2-.22.28-.46.28h-3.82ZM151.33,19.2h2.11v-8.21h-2.11v8.21ZM156.79,7.14h-2.22v3.32h2.22v-3.32ZM154.57,19.2h2.22v-8.21h-2.22v8.21ZM157.92,10.99v8.21h2.3v-8.21h-2.3Z"/>
          <path class="cls-2" d="M167.5,11.08c3.59,1.48,2.65,3.74,1.5,2.91-.22-.78-.87-1.76-1.5-2.48v9.67c0,.19-.48.48-.91.48h-.24v-8.74c-.67,1.69-1.56,3.22-2.72,4.58l-.28-.24c1.37-2.17,2.24-4.96,2.7-7.74h-2.41l-.15-.54h2.85v-4.41l1.83.22c-.06.28-.2.44-.69.52v3.67h.8l.8-1.06s.93.74,1.46,1.3c-.04.2-.2.3-.46.3h-2.59v1.57ZM179.53,7.4c-.13.15-.33.2-.8.24-.69,1.43-1.63,2.74-2.83,3.91,1.33.91,2.95,1.63,4.87,2.13l-.04.2c-.5.13-.89.43-1,1-1.85-.7-3.33-1.59-4.56-2.67-.98.83-2.13,1.58-3.43,2.19l.96.43h4.67l.61-.7,1.33,1.04c-.13.15-.32.24-.69.3v5.63c0,.09-.46.35-1,.35h-.19v-1.11h-4.96v.89c0,.11-.37.37-.96.37h-.19v-6.98c-.76.33-1.54.63-2.41.89l-.17-.3c2.28-.91,4.22-2.15,5.74-3.63-.85-.87-1.52-1.83-2.11-2.91-.72,1.15-1.58,2.11-2.46,2.85l-.28-.19c1.26-1.56,2.48-4.04,3.15-6.67l1.82.61c-.07.2-.28.37-.69.35-.17.44-.37.87-.57,1.3h4.08l.8-.74,1.3,1.22ZM172.49,15.38v4.39h4.96v-4.39h-4.96ZM173.1,7.47c-.15.28-.3.54-.44.78.65,1,1.45,1.93,2.45,2.71.96-1.06,1.74-2.24,2.3-3.48h-4.3Z"/>
          <path class="cls-2" d="M192.13,23.85l-.39.31c-2.8-2.8-4.11-5.87-4.11-9.58s1.32-6.8,4.11-9.59l.39.33c-2.43,3.52-3.13,5.91-3.13,9.26s.72,5.76,3.13,9.26Z"/>
          <path class="cls-2" d="M202.28,12.71c3.67,1.31,2.72,3.65,1.58,2.83-.22-.78-.93-1.8-1.58-2.46v8.15c0,.09-.43.41-1.02.41h-.17v-7.98c-.8,1.72-1.87,3.26-3.22,4.56l-.24-.26c1.5-1.95,2.52-4.58,3.13-7.17h-2.52l-.13-.56h2.98v-3.17c-.96.26-2,.46-2.96.61l-.11-.3c1.93-.57,4.28-1.72,5.43-2.52l1.56,1.22c-.17.18-.48.18-.93.06-.5.2-1.11.41-1.8.61v3.48h.72l.8-1.04s.91.76,1.46,1.3c-.04.2-.22.3-.48.3h-2.5v1.93ZM214.75,20.1c.37.15.43.28.43.52,0,.48-.46.7-2.48.7h-1.24c-1.15,0-1.35-.3-1.35-1.11v-6.33h-1.35c-.35,3.93-1.56,6.22-5.35,7.76l-.13-.28c3.15-1.82,3.98-4.04,4.17-7.48h-.82v.54c0,.11-.5.37-.98.37h-.17v-6.72l1.24.57h3.3c.67-1.13,1.39-2.72,1.8-3.91l1.83.63c-.07.2-.3.33-.69.3-.59.93-1.52,2.08-2.46,2.98h1.93v-.02h.04l.61-.69,1.2,1.07c-.13.13-.39.28-.69.33v4.95c-.02.09-.46.37-.94.37h-.22v-.78h-1.17v6.06c0,.26.06.33.48.33h.98c.46,0,.8,0,.94-.02s.22-.06.28-.24c.11-.3.33-1.5.52-2.61h.24l.06,2.7ZM206.11,4.9c3.74,1.7,2.67,4.24,1.43,3.28-.2-1.02-1-2.33-1.65-3.15l.22-.13ZM206.61,13.32h5.8v-4.17h-5.8v4.17Z"/>
          <path class="cls-2" d="M220.56,18.25c1.28,1.48,2.69,1.7,5.87,1.7,2.17,0,5.09,0,7.32-.07v.26c-.54.09-.85.44-.93,1.02h-6.37c-3.37,0-4.85-.43-6.17-2.56-.76.81-1.98,1.94-2.72,2.54.04.26-.04.37-.22.46l-.85-1.58c.72-.31,1.85-.89,2.91-1.46v-5.46h-2.72l-.11-.56h2.58l.7-.95,1.61,1.33c-.13.13-.39.28-.89.33v4.98ZM217.43,5.23c4.63,1.43,3.74,4.45,2.3,3.5-.33-1.11-1.52-2.54-2.48-3.35l.19-.15ZM220.81,18.2c2.98-2.19,5.24-5.82,6.09-10.34-.07-.44-.13-.91-.19-1.39h-3.69l-.17-.54h3.39l.65-.94,1.74,1.26c-.24.26-.72.41-1.37.44.69,4.39,2.45,8.48,6.43,10.48l-.07.2c-.52.13-.96.52-1.15,1-2.61-1.72-4.09-4.28-4.98-7.58-1.17,3.09-3.43,5.87-6.46,7.67l-.22-.28Z"/>
          <path class="cls-2" d="M239.48,5.32l.39-.33c2.8,2.8,4.11,5.89,4.11,9.59s-1.32,6.78-4.11,9.58l-.39-.31c2.43-3.52,3.13-5.93,3.13-9.26s-.72-5.76-3.13-9.26Z"/>
        </g>
        <rect class="cls-1" x=".5" y=".5" width="252.42" height="28"/>
      </g>
      <g>
        <g>
          <path class="cls-2" d="M32.78,47.31c0,3.44-1.85,5.96-2.94,7.14-1.51,1.6-2.94,2.86-4.96,4.2-.25.34-.25.67.17.84,2.69.59,7.31,1.76,10.16,5.29,1.43,1.76,2.35,4.37,2.35,7.73,0,6.89-4.87,13.86-12.1,18.06-4.28,2.52-9.07,3.53-12.43,3.53-4.62,0-8.48-1.85-8.48-4.2,0-.5.34-1.43.67-1.93.67-1.01,1.6-1.6,2.27-1.6.34,0,1.34.59,2.02,1.18,2.77,2.44,5.88,3.02,8.48,3.02,1.76,0,4.79-.67,6.97-2.44,3.95-3.11,5.46-8.06,5.46-11.42s-.92-6.89-3.02-9.16c-2.1-2.27-4.54-2.86-7.56-2.86-1.34,0-4.45.5-6.55,1.43-.42.17-.76-.25-.67-.67,0-.67.76-1.76,1.26-2.18,1.09-.76,2.35-1.43,4.12-2.35,6.3-3.19,8.06-6.55,8.06-10.58,0-4.62-3.7-8.32-8.15-8.32-3.36,0-6.55,1.43-9.24,4.7-.92,1.18-1.51,1.51-1.76,1.51-.5,0-.76-.34-.76-1.18,0-.92,1.85-3.86,4.62-6.3,2.86-2.52,6.38-3.95,10.33-3.95,7.98,0,11.68,6.47,11.68,10.5Z"/>
          <path class="cls-2" d="M55.79,88.22c0,7.56-7.98,10.5-9.66,10.5-.59,0-1.51-.17-1.51-.76,0-.76.92-1.09,1.51-1.34,1.68-1.01,4.96-3.11,4.96-6.13,0-1.43-1.26-2.27-2.44-2.69-.92-.34-3.19-1.09-3.19-3.53,0-2.77,2.35-3.86,3.95-3.86,3.19,0,6.38,2.86,6.38,7.81Z"/>
          <path class="cls-2" d="M97.12,72.34c0,6.89-3.28,11.84-7.56,14.95-3.28,2.52-6.38,3.61-10.33,3.61-10.42,0-16.8-7.98-16.8-19.74,0-14.2,10.33-26.8,20.41-33.26,5.63-3.53,10.92-5.63,13.69-5.63.59,0,1.68.17,1.68.92,0,.59-.67.84-1.68,1.34-3.78,1.51-8.4,3.86-14.11,8.99-7.64,6.89-12.85,17.05-12.85,27.13,0,8.06,4.54,16.97,12.43,16.97,1.18,0,3.02-.25,4.54-1.34,2.27-1.68,4.28-5.04,4.28-10.25,0-7.73-4.37-11.59-9.66-11.59-1.43,0-4.79,1.18-6.13,1.85-.17.08-.76-.17-.76-.67,0-.59.17-1.01.92-1.85s3.11-2.44,4.79-3.11c1.51-.84,3.86-1.51,5.29-1.51,7.9,0,11.84,6.22,11.84,13.19Z"/>
          <path class="cls-2" d="M137.61,63.02c0,13.52-4.87,22.43-9.58,25.45-2.44,1.6-5.21,2.44-7.73,2.35-12.6-.25-17.22-15.79-17.22-26.54,0-13.52,4.87-21.84,10.16-25.2,2.27-1.43,4.54-2.27,7.73-2.27,13.27,0,16.63,17.22,16.63,26.21ZM114.42,42.52c-2.02,3.02-4.28,8.32-4.28,20.75,0,9.32,2.77,25.28,11.34,25.28,2.86,0,5.21-3.61,5.46-4.03,1.93-3.7,3.28-10.25,3.28-21,0-13.78-4.03-21-6.3-22.6-1.34-.92-2.69-1.6-4.37-1.6-1.93,0-3.36.76-5.12,3.19Z"/>
          <path class="cls-2" d="M178.43,63.02c0,13.52-4.87,22.43-9.58,25.45-2.44,1.6-5.21,2.44-7.73,2.35-12.6-.25-17.22-15.79-17.22-26.54,0-13.52,4.87-21.84,10.16-25.2,2.27-1.43,4.54-2.27,7.73-2.27,13.27,0,16.63,17.22,16.63,26.21ZM155.25,42.52c-2.02,3.02-4.28,8.32-4.28,20.75,0,9.32,2.77,25.28,11.34,25.28,2.86,0,5.21-3.61,5.46-4.03,1.93-3.7,3.28-10.25,3.28-21,0-13.78-4.03-21-6.3-22.6-1.34-.92-2.69-1.6-4.37-1.6-1.93,0-3.36.76-5.12,3.19Z"/>
        </g>
        <g>
          <path class="cls-3" d="M32.78,47.31c0,3.44-1.85,5.96-2.94,7.14-1.51,1.6-2.94,2.86-4.96,4.2-.25.34-.25.67.17.84,2.69.59,7.31,1.76,10.16,5.29,1.43,1.76,2.35,4.37,2.35,7.73,0,6.89-4.87,13.86-12.1,18.06-4.28,2.52-9.07,3.53-12.43,3.53-4.62,0-8.48-1.85-8.48-4.2,0-.5.34-1.43.67-1.93.67-1.01,1.6-1.6,2.27-1.6.34,0,1.34.59,2.02,1.18,2.77,2.44,5.88,3.02,8.48,3.02,1.76,0,4.79-.67,6.97-2.44,3.95-3.11,5.46-8.06,5.46-11.42s-.92-6.89-3.02-9.16c-2.1-2.27-4.54-2.86-7.56-2.86-1.34,0-4.45.5-6.55,1.43-.42.17-.76-.25-.67-.67,0-.67.76-1.76,1.26-2.18,1.09-.76,2.35-1.43,4.12-2.35,6.3-3.19,8.06-6.55,8.06-10.58,0-4.62-3.7-8.32-8.15-8.32-3.36,0-6.55,1.43-9.24,4.7-.92,1.18-1.51,1.51-1.76,1.51-.5,0-.76-.34-.76-1.18,0-.92,1.85-3.86,4.62-6.3,2.86-2.52,6.38-3.95,10.33-3.95,7.98,0,11.68,6.47,11.68,10.5Z"/>
          <path class="cls-3" d="M55.79,88.22c0,7.56-7.98,10.5-9.66,10.5-.59,0-1.51-.17-1.51-.76,0-.76.92-1.09,1.51-1.34,1.68-1.01,4.96-3.11,4.96-6.13,0-1.43-1.26-2.27-2.44-2.69-.92-.34-3.19-1.09-3.19-3.53,0-2.77,2.35-3.86,3.95-3.86,3.19,0,6.38,2.86,6.38,7.81Z"/>
          <path class="cls-3" d="M97.12,72.34c0,6.89-3.28,11.84-7.56,14.95-3.28,2.52-6.38,3.61-10.33,3.61-10.42,0-16.8-7.98-16.8-19.74,0-14.2,10.33-26.8,20.41-33.26,5.63-3.53,10.92-5.63,13.69-5.63.59,0,1.68.17,1.68.92,0,.59-.67.84-1.68,1.34-3.78,1.51-8.4,3.86-14.11,8.99-7.64,6.89-12.85,17.05-12.85,27.13,0,8.06,4.54,16.97,12.43,16.97,1.18,0,3.02-.25,4.54-1.34,2.27-1.68,4.28-5.04,4.28-10.25,0-7.73-4.37-11.59-9.66-11.59-1.43,0-4.79,1.18-6.13,1.85-.17.08-.76-.17-.76-.67,0-.59.17-1.01.92-1.85s3.11-2.44,4.79-3.11c1.51-.84,3.86-1.51,5.29-1.51,7.9,0,11.84,6.22,11.84,13.19Z"/>
          <path class="cls-3" d="M137.61,63.02c0,13.52-4.87,22.43-9.58,25.45-2.44,1.6-5.21,2.44-7.73,2.35-12.6-.25-17.22-15.79-17.22-26.54,0-13.52,4.87-21.84,10.16-25.2,2.27-1.43,4.54-2.27,7.73-2.27,13.27,0,16.63,17.22,16.63,26.21ZM114.42,42.52c-2.02,3.02-4.28,8.32-4.28,20.75,0,9.32,2.77,25.28,11.34,25.28,2.86,0,5.21-3.61,5.46-4.03,1.93-3.7,3.28-10.25,3.28-21,0-13.78-4.03-21-6.3-22.6-1.34-.92-2.69-1.6-4.37-1.6-1.93,0-3.36.76-5.12,3.19Z"/>
          <path class="cls-3" d="M178.43,63.02c0,13.52-4.87,22.43-9.58,25.45-2.44,1.6-5.21,2.44-7.73,2.35-12.6-.25-17.22-15.79-17.22-26.54,0-13.52,4.87-21.84,10.16-25.2,2.27-1.43,4.54-2.27,7.73-2.27,13.27,0,16.63,17.22,16.63,26.21ZM155.25,42.52c-2.02,3.02-4.28,8.32-4.28,20.75,0,9.32,2.77,25.28,11.34,25.28,2.86,0,5.21-3.61,5.46-4.03,1.93-3.7,3.28-10.25,3.28-21,0-13.78-4.03-21-6.3-22.6-1.34-.92-2.69-1.6-4.37-1.6-1.93,0-3.36.76-5.12,3.19Z"/>
        </g>
      </g>
      <g>
        <path class="cls-2" d="M219.3,56.47s2.17,1.71,3.5,2.92c-.04.38-.42.57-.99.57h-18.54c-.11,2.74-.23,5.51-.65,8.28h11.13l1.52-1.6,2.89,2.43c-.27.27-.8.49-1.6.57-.46,8.66-1.71,15.73-3.65,17.59-1.14,1.03-2.7,1.52-4.64,1.52,0-.76-.19-1.41-.84-1.82-.65-.46-2.74-.91-4.52-1.18l.04-.68c2.01.23,5.59.53,6.54.53.8,0,1.18-.11,1.67-.49,1.41-1.22,2.43-7.9,2.93-15.77h-11.63c-1.25,7.29-4.45,14.4-13.53,20.06l-.57-.65c11.29-8.59,11.85-19.3,12.04-28.8h-11.74l-.34-1.06h29.03l1.94-2.43Z"/>
        <path class="cls-2" d="M259.92,58.71c-.27.3-.91.65-1.67.76v25.91c0,1.98-.49,3.27-4.48,3.65-.11-.8-.38-1.37-1.06-1.75-.68-.38-1.86-.72-4.03-.99v-.61s5.02.38,5.97.38c.87,0,1.14-.3,1.14-.99v-12.5h-24.28v15.65c0,.34-.91.99-2.01.99h-.46v-32.67l2.7,1.29h23.67l1.29-1.6,3.23,2.47ZM231.5,71.51h10.75v-12.54h-10.75v12.54ZM255.78,71.51v-12.54h-11.02v12.54h11.02Z"/>
        <path class="cls-2" d="M286.29,59.32c13.37,6.15,12.04,13.83,8.74,11.74-.46-1.33-1.33-2.81-2.39-4.26-6.38.87-14.59,1.82-25.49,2.89-.27.42-.72.72-1.1.8l-.99-3.46c1.56,0,3.76-.04,6.42-.15,2.36-3.84,5.02-8.93,6.57-12.73l4.25,1.48c-.19.49-.68.76-1.52.68-1.86,3-4.86,7.22-7.87,10.52,5.24-.19,11.97-.53,19.11-.87-1.86-2.36-4.18-4.67-6.16-6.31l.42-.34ZM291.77,72.2l3.19,2.47c-.27.34-.91.61-1.71.76v12.69c-.04.23-1.29.84-2.17.84h-.38v-3h-18.24v2.51c0,.27-1.06.87-2.09.87h-.42v-16.79l2.74,1.29h17.63l1.44-1.63ZM290.7,84.81v-9.88h-18.24v9.88h18.24Z"/>
        <path class="cls-2" d="M311.22,70.18c-3.46,0-6,1.6-8.17,3.88l-.61-.57c2.43-3.42,5.89-5.32,9.5-5.32,3.04,0,5.32.91,8.21,2.66,2.96,1.82,4.98,2.7,7.71,2.7,3.46,0,6.04-1.63,8.17-3.91l.61.57c-2.39,3.42-5.89,5.36-9.5,5.36-3.04,0-5.32-.91-8.21-2.66-2.96-1.82-4.98-2.7-7.71-2.7Z"/>
      </g>
    </g>
  </g>
</svg>