<?xml version="1.0" encoding="UTF-8"?>
<svg id="_レイヤー_2" data-name="レイヤー 2" xmlns="http://www.w3.org/2000/svg" xmlns:xlink="http://www.w3.org/1999/xlink" viewBox="0 0 355.44 52.31">
  <defs>
    <style>
      .cls-1, .cls-2 {
        stroke-width: 0px;
      }

      .cls-2 {
        fill: url(#_ジャガイモ);
      }
    </style>
    <linearGradient id="_ジャガイモ" data-name="ジャガイモ" x1="2.51" y1="24.95" x2="353.85" y2="24.95" gradientUnits="userSpaceOnUse">
      <stop offset=".02" stop-color="#806736"/>
      <stop offset=".12" stop-color="#755126"/>
      <stop offset=".23" stop-color="#806533"/>
      <stop offset=".45" stop-color="#94794b"/>
      <stop offset=".51" stop-color="#9a8052"/>
      <stop offset=".7" stop-color="#c4a480"/>
      <stop offset=".81" stop-color="#ae9167"/>
      <stop offset=".9" stop-color="#9a8052"/>
      <stop offset="1" stop-color="#d0bf9e"/>
    </linearGradient>
  </defs>
  <g id="_レイヤー_1-2" data-name="レイヤー 1">
    <g>
      <g>
        <path class="cls-1" d="M19.64,19.24c-.7,0-1.15,0-1.15.25s.4.55.85.9c3.46,2.61,3.46,3.76,3.46,4.71,0,1.45-.8,2.5-1.55,2.5-1,0-1.25-.8-2.05-2.86-2.1-5.51-2.56-5.51-4.16-5.51h-3.21c-1.5,0-1.6.7-1.6,1.65v6.21c0,2.56.35,16.74.35,17.99,0,1.6-1.7,2.71-2.81,2.71-1.3,0-1.3-1.1-1.3-1.7,0-2.81.15-15.23.15-17.79,0-5.11,0-5.71-.25-9.97,0-.3-.1-1.5-.1-1.75,0-.2,0-.5.2-.5.5,0,2.25.9,3.21,1.4.8.45,1.35.45,2.15.45h9.82c1.5,0,1.5-.4,1.5-3.86,0-2.25,0-3.11-1.4-3.11h-10.22c-4.41,0-5.86.1-6.36.15-.15,0-.9.1-1.05.1s-.25-.1-.45-.3l-.95-1.15c-.2-.2-.2-.25-.2-.35,0-.05.05-.1.15-.1.35,0,1.9.2,2.21.2,2.46.15,4.56.15,6.92.15h9.87c1.45,0,1.45-1,1.45-1.4,0-.9,0-2.11-.1-2.96-.05-.45-.35-2.36-.35-2.71,0-.3.3-.3.5-.3.05,0,5.01.55,5.01,1.45,0,.35-.15.5-.65.95-.5.45-.55.6-.55,1.3,0,3.31,0,3.66,1.45,3.66h8.72c2.25,0,2.51,0,3.11-.85,1.55-2.05,1.7-2.3,2.25-2.3.95,0,5.26,3.31,5.26,3.76,0,.7-1,.7-2.71.7h-16.64c-1.55,0-1.55.6-1.55,2.96,0,3.61,0,4.01,1.5,4.01h9.37c.75,0,1-.1,1.45-.65.95-1.2,1.05-1.35,1.45-1.35.7,0,4.26,1.96,4.26,2.86,0,.45-.15.55-.9,1.05-.5.3-.6.75-.6,1.65,0,.45-.05,2.56-.05,3.01.05,2.66.35,14.43.35,16.84,0,2.1-.25,4.11-1.8,5.21-.8.55-2.05.95-2.81.95-.5,0-.55-.05-.8-1-.2-.85-1.6-1.95-2.1-2.1-.3-.05-3.71-1.1-3.76-1.15-.3-.1-.3-.35-.3-.4,0-.2.25-.25.45-.25.8,0,4.46.1,5.16.05,1.6-.1,2.15-.25,2.15-2.36,0-2.81-.15-15.33-.15-17.89,0-2.71,0-3.16-1.55-3.16h-6.66c-.35,0-.75,0-.75.25,0,.3,1.55,1.1,2,1.3,1,.5,1.1.7,1.1.95,0,.4-.15.45-1.25.95-.7.35-.95.65-3.36,3.66-.65.8-.75.9-.75,1.1,0,.1.1.25.45.25,1.35,0,1.55-.15,1.8-.4.3-.25,1.5-1.8,1.85-1.8.65,0,3.96,2.25,3.96,2.86,0,.7-1,.7-2.71.7h-5.96c-1.5,0-1.5.9-1.5,2.81,0,3.16,0,3.56,2.46,3.51,2.25,0,2.51,0,3.21-.8,1.2-1.5,1.3-1.7,1.75-1.7.65,0,4.36,2.61,4.36,3.16,0,.7-1,.7-2.71.7h-7.32c-.55,0-1.6,0-1.6,1.3,0,1,.15,5.51.15,6.41,0,1.85-1.65,2.56-2.71,2.56-.2,0-1.3-.05-1.3-1.7,0-.65.2-5.16.2-6.11,0-2,0-2.46-1.4-2.46-3.46,0-5.01.1-5.41.1-.2,0-1.4.15-1.5.15-.15,0-.25-.1-.45-.35l-.95-1.15c-.2-.2-.2-.25-.2-.3,0-.1.05-.1.15-.1.35,0,1.9.15,2.25.15,1.95.1,4.26.15,6.21.15,1.35,0,1.35-.3,1.35-3.41,0-2.91-.05-2.91-2.41-2.91-1.65,0-3.81.05-4.56.15-.15,0-.65.1-.75.1-.15,0-.25-.15-.45-.35l-.95-1.15c-.1-.15-.2-.25-.2-.3,0-.1.05-.15.15-.15.35,0,1.9.2,2.2.2,2.46.15,4.56.15,6.87.15h1.9c1.55,0,1.65-.25,2.66-2.66.5-1.25,1.25-3.81,1.25-4.96,0-.85-.6-.85-1.35-.85h-7.67Z"/>
        <path class="cls-1" d="M67.99,29.81c-.8,0-.85.3-.9.85-.15,1.05-1.6,1.45-2.51,1.45-.8,0-1.35-.15-1.35-1.5,0-.6.2-5.91.2-7.02,0-1.5-.1-8.27-.1-9.67,0-.25,0-.4.2-.4.25,0,1.35.4,2.25.8,1.6.7,2.31,1,3.71,1h4.91c.55,0,1.45,0,1.45-1.5,0-2.66,0-3.26-1.6-3.26h-10.02c-4.41,0-5.86.05-6.31.1-.2.05-.9.15-1.1.15-.15,0-.25-.15-.4-.35l-1-1.15c-.2-.2-.2-.25-.2-.3,0-.1.05-.15.2-.15.3,0,1.85.15,2.21.2,2.46.1,4.51.15,6.86.15h9.77c1.45,0,1.6-.55,1.6-1.85,0-.7-.3-3.86-.3-4.51,0-.55.1-.7.45-.7.15,0,2.61.7,3.46.95,1.45.4,1.5.65,1.5.95s-1.15,1.15-1.25,1.35c-.15.35-.25.7-.25,2.2,0,1.15.15,1.6,1.65,1.6h8.92c2.1,0,2.35,0,2.91-.9,1.2-2.05,1.6-2.05,1.95-2.05,1,0,5.06,3.11,5.06,3.61,0,.7-1,.7-2.71.7h-16.14c-1.8,0-1.8.3-1.8,3.36,0,.65.15,1.4,1.45,1.4h6.11c.9,0,1.15,0,1.7-.65.7-.75.9-.95,1.25-.95.6,0,3.56,1.95,3.56,2.61,0,.3-1,1.35-1.05,1.65-.15.45-.25,2.16-.25,2.66,0,1.35.1,7.47.1,8.72,0,2.16-2.71,2.16-2.91,2.16-1.05,0-1.1-.45-1.15-1.15-.05-.55-.2-.55-1.45-.55h-5.21c-.25,0-.6,0-.6.35,0,.4,5.41,7.42,18.14,11.42,1.25.4,1.4.45,1.4.6,0,.2-.1.3-.35.3-1.8,0-3.66,0-4.61,1.75-.25.5-.35.65-.65.65-.45,0-6.66-3.51-10.97-8.37-2.05-2.31-2.96-3.66-3.91-5.16-.15-.2-.2-.35-.4-.35-.25,0-.25.3-.25.5,0,.65-.05,3.36-.05,3.91,0,1.45.3,9.07.3,9.67,0,.8-.1,1.4-.9,2.05-.35.25-1.1.75-1.85.75-1.2,0-1.35-1-1.35-1.65,0-.3.3-8.02.3-9.47,0-2.61,0-2.91-.4-2.91-.15,0-2.61,2.21-2.96,2.51-5.31,4.71-15.58,9.27-16.69,9.27-.1,0-.25,0-.25-.2,0-.25,2.25-1.6,2.96-2,5.86-3.51,11.93-8.82,13.48-10.97.5-.7,1.4-1.96,1.4-2.21,0-.45-.4-.45-.85-.45h-4.41ZM74.26,21.59c1.6,0,1.6-.55,1.6-3.06,0-1.3-.1-1.85-1.6-1.85h-5.56c-1.5,0-1.6.6-1.6,1.85,0,2.56.05,3.06,1.65,3.06h5.51ZM68.75,22.9c-.65,0-1.6.05-1.6,1.4,0,4.06,0,4.16,1.6,4.16h5.41c1.55,0,1.7-.4,1.7-3.31,0-1.55-.05-2.25-1.65-2.25h-5.46ZM80.92,16.68c-1.55,0-1.65.4-1.65,2.91,0,1.5.1,2,1.6,2h5.76c1.6,0,1.6-.35,1.6-2.91,0-1.4,0-2-1.6-2h-5.71ZM86.63,28.46c1.65,0,1.65-.75,1.65-2.25,0-2.56,0-3.31-1.7-3.31h-5.66c-1.65,0-1.65.8-1.65,2.21,0,2.96,0,3.36,1.65,3.36h5.71Z"/>
        <path class="cls-1" d="M119.9,12.42c1.65,0,1.95-.25,2.81-1.45,1.25-1.75,3.41-6.31,3.71-7.57.2-.95.25-1.4.6-1.4.2,0,3.51,2.05,3.71,2.2.25.2,1.35.95,1.35,1.45,0,.4-.15.45-1.4.6-.95.15-6.71,5.56-6.71,5.76,0,.4.3.4.8.4h20.34c.95,0,1.35-.35,1.65-.75.6-.8.8-1,1.05-1,.55,0,4.11,2.76,4.11,3.46,0,.25-.3.5-.4.6-1.25,1-1.55,1.25-1.6,2.86-.05,1.45-.05,2.46-.05,11.73,0,1.9.15,11.32.15,13.48,0,1.75-.5,2.86-2.05,3.81-.5.3-1.7.9-2.46.9-.4,0-.9-.15-1-.55-.25-1.05-.3-1.25-.7-1.55-.5-.35-3.61-1.5-3.61-1.9,0-.25.45-.25.55-.25.45,0,2.56.2,3.06.2,2.61,0,2.61-.5,2.61-4.31,0-1.4.1-8.07.1-9.57,0-1.9-.05-11.62-.05-13.53,0-1.7,0-2.3-1.55-2.3h-28.86c-.6,0-1.3,0-1.6.6-.3.6-.3,8.07-.3,9.52,0,2.96.2,17.44.2,20.7,0,1.4,0,3.06-2.96,3.06-1.1,0-1.4-.3-1.4-1.15,0-2,.3-5.16.45-7.17.1-1.7.25-17.94.25-18.29,0-1.6,0-4.66-.25-7.32-.05-.35-.4-2.1-.4-2.46,0-.1.1-.2.25-.2.6,0,1.45.4,2.81.95.9.4,1.9.45,2.76.45h4.06ZM126.27,36.83c-1.25,0-1.25.15-1.25,1.4,0,1.4-1.15,2.11-2.51,2.11-1,0-1.35-.35-1.35-1.4,0-.25.35-9.07.35-10.77,0-.55.05-2.36-.1-4.96,0-.4-.3-2.25-.3-2.66,0-.45.15-.8.6-.8.5,0,2.76,1.15,3.31,1.25.6.15,1,.15,1.4.15h8.07c.6,0,1.1,0,1.4-.3.75-.7,1.05-1,1.4-1,.65,0,3.01,1.55,3.01,2.41,0,.35-1.1,1.8-1.2,2.15-.1.35-.1,4.41-.1,5.11,0,1.1.1,6.61.1,7.82,0,1,0,2.81-2.56,2.81-1.15,0-1.15-.25-1.15-2.46,0-.85-.55-.85-1-.85h-8.12ZM134.03,35.52c.4,0,1.15,0,1.4-.6.2-.6.2-7.97.2-8.87,0-3.21,0-3.61-1.5-3.61h-7.87c-1.5,0-1.5.8-1.5,2.15,0,.7,0,9.72.25,10.32s.95.6,1.4.6h7.62Z"/>
        <path class="cls-1" d="M170.66,6.51c.85,3.06,2.25,5.16,2.61,5.16.2,0,1.05-.2,1.96-.8,1-.6,1.15-.7,1.75-.7,1,0,1.7.65,1.7,1.5,0,.8-.65,1.95-2.15,2.46-.15.05-1.2.45-1.2.6.35.6,2.61,4.21,3.06,4.21.2,0,1.8-.55,1.8-1.4,0-.2-.65-.9-.65-1.1,0-.4.5-.45.7-.5,1.8-.15,2.81-.25,3.11-.25,1.65,0,2.96.8,2.96,2.21,0,.7-.1,1.85-4.41,3.41-1.3.45-1.45.55-1.45.75,0,.25.05.35,1.6,2.81,2.46,3.81,3.21,6.01,3.21,7.87,0,2.05-1.6,3.46-2.91,3.46s-1.6-.25-4.86-2.51c-1.95-1.35-3.66-1.5-4.86-1.5-4.51,0-6.62,2.91-6.62,5.16,0,3.71,4.41,3.96,5.71,3.96.8,0,4.16-.35,4.86-.35.6,0,2.36.2,2.36,1.8,0,2.86-5.26,2.86-5.86,2.86-1.45,0-9.87,0-9.87-7.01,0-2.91,2.16-7.87,9.72-7.87,1.85,0,2.81.2,4.81.6,1.4.3,1.85.3,2.21.3.75,0,1.3-.25,1.3-1.05,0-1-.75-3.26-2.25-6.16-.75-1.45-.8-1.6-1.25-1.6-.3,0-2.2.55-2.61.65-2.1.5-3.76.75-6.01.75-3.01,0-5.06-.4-6.62-1.9-.8-.8-1.2-1.75-1.2-2.15,0-.35.25-.5.45-.5.25,0,1.35.8,1.6.9,1.65.75,3.51,1,5.26,1,3.96,0,7.77-1.3,7.77-1.6s-2.81-4.71-3.41-4.71c-.1,0-2.76.45-3.26.45-3.91,0-6.86-2.71-6.86-3.66,0-.15.1-.4.4-.4.2,0,1.15.4,1.3.45,1.65.55,2.25.7,3.46.7s2.96-.25,2.96-.6c0-.15-2.71-4.11-5.11-5.31-1.45-.7-1.65-.75-1.65-1.1,0-.5.95-1.35,1.95-1.35,1.1,0,4.06.6,4.51,2.11Z"/>
        <path class="cls-1" d="M199.47,25.05c0-1.8,1.45-3.31,3.31-3.31s3.31,1.45,3.31,3.31-1.55,3.31-3.31,3.31-3.31-1.45-3.31-3.31Z"/>
        <path class="cls-1" d="M237.75,15.08c0,2.96-1.7,5.61-4.46,7.62-.4.25-2.61,1.45-2.61,1.75,0,.45,2.36,1.25,2.76,1.5,2.35,1.45,5.06,4.11,5.06,8.52,0,6.41-5.51,10.57-11.83,10.57-5.01,0-9.82-2.81-9.82-6.82,0-2.05,1.4-3.01,2.86-3.01,1.7,0,2.46,1.35,2.46,2.35,0,.4-.45,2.25-.45,2.66,0,1.85,2.16,3.21,4.51,3.21,4.01,0,7.77-4.06,7.77-8.92s-3.46-9.17-7.87-9.17c-.25,0-1.65.2-1.96.2-.75,0-1.1-.45-1.1-1,0-.6.5-1.05,1.15-1.05.3,0,1.8.25,2.15.25,3.41,0,6.87-3.11,6.87-7.92,0-3.86-2.36-7.57-6.31-7.57-2.66,0-4.01,1.75-4.01,3.21,0,.25.25,1.55.25,1.85,0,1.5-1.15,2.66-2.55,2.66-1.6,0-2.51-1.35-2.51-2.66,0-2.41,2.96-6.71,9.77-6.71,4.96,0,9.87,3.36,9.87,8.47Z"/>
        <path class="cls-1" d="M258.39,42.49c3.16,0,8.82-1,12.63-6.81.95-1.4,1.05-1.55,1.4-1.55.3,0,.75.15.75.75,0,.3-1.9,5.21-2.21,6.01-1.25,3.16-1.45,3.21-4.71,3.21h-21c-.75,0-1.45,0-1.45-.8s.55-.8,1.8-.8,3.36-.15,3.81-2.61c.15-.85.15-12.38.15-13.83,0-2,0-13.38-.15-14.28-.45-2.56-2.66-2.56-4.51-2.56-.35,0-1.1,0-1.1-.8,0-.85.7-.85,1.45-.85h12.43c.8,0,1.5,0,1.5.85,0,.8-.55.8-1.8.8-1.05,0-3.36.1-3.81,2.56-.15.9-.15,11.58-.15,13.93,0,13.33,0,13.38.15,14.18.45,2.35,2.51,2.61,3.46,2.61h1.35Z"/>
        <path class="cls-1" d="M293.27,7.56c16.99,0,18.99,12.03,18.99,17.79,0,10.82-6.16,18.74-18.54,18.74h-13.78c-.75,0-1.45,0-1.45-.8s.75-.8,1.05-.8c1.96,0,4.11,0,4.56-2.61.15-.8.15-.85.15-14.18,0-2.35,0-13.08-.15-13.93-.45-2.41-2.61-2.56-3.81-2.56s-1.8,0-1.8-.8c0-.85.7-.85,1.45-.85h13.33ZM291.71,9.22c-1.8,0-3.16.8-3.46,2.61-.15.85-.15,11.62-.15,13.88,0,13.33,0,13.38.15,14.18.4,2.35,2.46,2.61,3.46,2.61h2.4c8.52,0,13.63-7.32,13.63-17.34,0-6.31-2.61-15.94-13.43-15.94h-2.61Z"/>
        <path class="cls-1" d="M340.11,44.09c-.5,0-1.25,0-1.25-.8s.7-.8,1.45-.8c1.6,0,2.15-.85,2.15-1.6,0-.5-.1-.85-.2-1.1-.15-.45-5.26-8.57-5.86-9.57-2.71-4.31-3.01-4.81-3.56-4.81-.6,0-1.4.75-2.51,1.96-2,2.2-2.2,2.71-2.2,4.61v7.07c0,3.46,2.71,3.46,4.21,3.46.45,0,1,.15,1,.8,0,.8-.75.8-1.2.8h-11.88c-.5,0-1.25,0-1.25-.8s.7-.8,1.4-.8c1.75,0,3.76-.65,3.76-3.46V12.67c0-3.46-2.71-3.46-4.21-3.46-.4,0-.95-.15-.95-.8,0-.85.75-.85,1.2-.85h11.83c.55,0,1.3,0,1.3.85,0,.8-.75.8-1.4.8-1.6,0-3.81.55-3.81,3.46v12.83c0,.45.05,1,.6,1,.25,0,.45-.25.55-.3.45-.5,8.07-8.82,9.57-10.47,3.21-3.51,3.61-3.91,3.61-4.86,0-1.65-1.95-1.65-3.41-1.65-.15,0-1,0-1-.8,0-.85.75-.85,1.3-.85h12.38c.6,0,1.35,0,1.35.85,0,.8-.7.8-1.65.8-1.55,0-3.81.3-5.86,1.85-1.05.8-6.51,6.82-8.62,9.12-.35.35-.8.9-.8,1.55,0,.55.35,1.15.75,1.8,1.9,3.01,2.76,4.36,10.47,16.59.6,1,2.96,2.36,5.51,2.36.95,0,.95.7.95.8,0,.8-.75.8-1.2.8h-12.53Z"/>
      </g>
      <g>
        <path class="cls-2" d="M19.64,19.24c-.7,0-1.15,0-1.15.25s.4.55.85.9c3.46,2.61,3.46,3.76,3.46,4.71,0,1.45-.8,2.5-1.55,2.5-1,0-1.25-.8-2.05-2.86-2.1-5.51-2.56-5.51-4.16-5.51h-3.21c-1.5,0-1.6.7-1.6,1.65v6.21c0,2.56.35,16.74.35,17.99,0,1.6-1.7,2.71-2.81,2.71-1.3,0-1.3-1.1-1.3-1.7,0-2.81.15-15.23.15-17.79,0-5.11,0-5.71-.25-9.97,0-.3-.1-1.5-.1-1.75,0-.2,0-.5.2-.5.5,0,2.25.9,3.21,1.4.8.45,1.35.45,2.15.45h9.82c1.5,0,1.5-.4,1.5-3.86,0-2.25,0-3.11-1.4-3.11h-10.22c-4.41,0-5.86.1-6.36.15-.15,0-.9.1-1.05.1s-.25-.1-.45-.3l-.95-1.15c-.2-.2-.2-.25-.2-.35,0-.05.05-.1.15-.1.35,0,1.9.2,2.21.2,2.46.15,4.56.15,6.92.15h9.87c1.45,0,1.45-1,1.45-1.4,0-.9,0-2.11-.1-2.96-.05-.45-.35-2.36-.35-2.71,0-.3.3-.3.5-.3.05,0,5.01.55,5.01,1.45,0,.35-.15.5-.65.95-.5.45-.55.6-.55,1.3,0,3.31,0,3.66,1.45,3.66h8.72c2.25,0,2.51,0,3.11-.85,1.55-2.05,1.7-2.3,2.25-2.3.95,0,5.26,3.31,5.26,3.76,0,.7-1,.7-2.71.7h-16.64c-1.55,0-1.55.6-1.55,2.96,0,3.61,0,4.01,1.5,4.01h9.37c.75,0,1-.1,1.45-.65.95-1.2,1.05-1.35,1.45-1.35.7,0,4.26,1.96,4.26,2.86,0,.45-.15.55-.9,1.05-.5.3-.6.75-.6,1.65,0,.45-.05,2.56-.05,3.01.05,2.66.35,14.43.35,16.84,0,2.1-.25,4.11-1.8,5.21-.8.55-2.05.95-2.81.95-.5,0-.55-.05-.8-1-.2-.85-1.6-1.95-2.1-2.1-.3-.05-3.71-1.1-3.76-1.15-.3-.1-.3-.35-.3-.4,0-.2.25-.25.45-.25.8,0,4.46.1,5.16.05,1.6-.1,2.15-.25,2.15-2.36,0-2.81-.15-15.33-.15-17.89,0-2.71,0-3.16-1.55-3.16h-6.66c-.35,0-.75,0-.75.25,0,.3,1.55,1.1,2,1.3,1,.5,1.1.7,1.1.95,0,.4-.15.45-1.25.95-.7.35-.95.65-3.36,3.66-.65.8-.75.9-.75,1.1,0,.1.1.25.45.25,1.35,0,1.55-.15,1.8-.4.3-.25,1.5-1.8,1.85-1.8.65,0,3.96,2.25,3.96,2.86,0,.7-1,.7-2.71.7h-5.96c-1.5,0-1.5.9-1.5,2.81,0,3.16,0,3.56,2.46,3.51,2.25,0,2.51,0,3.21-.8,1.2-1.5,1.3-1.7,1.75-1.7.65,0,4.36,2.61,4.36,3.16,0,.7-1,.7-2.71.7h-7.32c-.55,0-1.6,0-1.6,1.3,0,1,.15,5.51.15,6.41,0,1.85-1.65,2.56-2.71,2.56-.2,0-1.3-.05-1.3-1.7,0-.65.2-5.16.2-6.11,0-2,0-2.46-1.4-2.46-3.46,0-5.01.1-5.41.1-.2,0-1.4.15-1.5.15-.15,0-.25-.1-.45-.35l-.95-1.15c-.2-.2-.2-.25-.2-.3,0-.1.05-.1.15-.1.35,0,1.9.15,2.25.15,1.95.1,4.26.15,6.21.15,1.35,0,1.35-.3,1.35-3.41,0-2.91-.05-2.91-2.41-2.91-1.65,0-3.81.05-4.56.15-.15,0-.65.1-.75.1-.15,0-.25-.15-.45-.35l-.95-1.15c-.1-.15-.2-.25-.2-.3,0-.1.05-.15.15-.15.35,0,1.9.2,2.2.2,2.46.15,4.56.15,6.87.15h1.9c1.55,0,1.65-.25,2.66-2.66.5-1.25,1.25-3.81,1.25-4.96,0-.85-.6-.85-1.35-.85h-7.67Z"/>
        <path class="cls-2" d="M67.99,29.81c-.8,0-.85.3-.9.85-.15,1.05-1.6,1.45-2.51,1.45-.8,0-1.35-.15-1.35-1.5,0-.6.2-5.91.2-7.02,0-1.5-.1-8.27-.1-9.67,0-.25,0-.4.2-.4.25,0,1.35.4,2.25.8,1.6.7,2.31,1,3.71,1h4.91c.55,0,1.45,0,1.45-1.5,0-2.66,0-3.26-1.6-3.26h-10.02c-4.41,0-5.86.05-6.31.1-.2.05-.9.15-1.1.15-.15,0-.25-.15-.4-.35l-1-1.15c-.2-.2-.2-.25-.2-.3,0-.1.05-.15.2-.15.3,0,1.85.15,2.21.2,2.46.1,4.51.15,6.86.15h9.77c1.45,0,1.6-.55,1.6-1.85,0-.7-.3-3.86-.3-4.51,0-.55.1-.7.45-.7.15,0,2.61.7,3.46.95,1.45.4,1.5.65,1.5.95s-1.15,1.15-1.25,1.35c-.15.35-.25.7-.25,2.2,0,1.15.15,1.6,1.65,1.6h8.92c2.1,0,2.35,0,2.91-.9,1.2-2.05,1.6-2.05,1.95-2.05,1,0,5.06,3.11,5.06,3.61,0,.7-1,.7-2.71.7h-16.14c-1.8,0-1.8.3-1.8,3.36,0,.65.15,1.4,1.45,1.4h6.11c.9,0,1.15,0,1.7-.65.7-.75.9-.95,1.25-.95.6,0,3.56,1.95,3.56,2.61,0,.3-1,1.35-1.05,1.65-.15.45-.25,2.16-.25,2.66,0,1.35.1,7.47.1,8.72,0,2.16-2.71,2.16-2.91,2.16-1.05,0-1.1-.45-1.15-1.15-.05-.55-.2-.55-1.45-.55h-5.21c-.25,0-.6,0-.6.35,0,.4,5.41,7.42,18.14,11.42,1.25.4,1.4.45,1.4.6,0,.2-.1.3-.35.3-1.8,0-3.66,0-4.61,1.75-.25.5-.35.65-.65.65-.45,0-6.66-3.51-10.97-8.37-2.05-2.31-2.96-3.66-3.91-5.16-.15-.2-.2-.35-.4-.35-.25,0-.25.3-.25.5,0,.65-.05,3.36-.05,3.91,0,1.45.3,9.07.3,9.67,0,.8-.1,1.4-.9,2.05-.35.25-1.1.75-1.85.75-1.2,0-1.35-1-1.35-1.65,0-.3.3-8.02.3-9.47,0-2.61,0-2.91-.4-2.91-.15,0-2.61,2.21-2.96,2.51-5.31,4.71-15.58,9.27-16.69,9.27-.1,0-.25,0-.25-.2,0-.25,2.25-1.6,2.96-2,5.86-3.51,11.93-8.82,13.48-10.97.5-.7,1.4-1.96,1.4-2.21,0-.45-.4-.45-.85-.45h-4.41ZM74.26,21.59c1.6,0,1.6-.55,1.6-3.06,0-1.3-.1-1.85-1.6-1.85h-5.56c-1.5,0-1.6.6-1.6,1.85,0,2.56.05,3.06,1.65,3.06h5.51ZM68.75,22.9c-.65,0-1.6.05-1.6,1.4,0,4.06,0,4.16,1.6,4.16h5.41c1.55,0,1.7-.4,1.7-3.31,0-1.55-.05-2.25-1.65-2.25h-5.46ZM80.92,16.68c-1.55,0-1.65.4-1.65,2.91,0,1.5.1,2,1.6,2h5.76c1.6,0,1.6-.35,1.6-2.91,0-1.4,0-2-1.6-2h-5.71ZM86.63,28.46c1.65,0,1.65-.75,1.65-2.25,0-2.56,0-3.31-1.7-3.31h-5.66c-1.65,0-1.65.8-1.65,2.21,0,2.96,0,3.36,1.65,3.36h5.71Z"/>
        <path class="cls-2" d="M119.9,12.42c1.65,0,1.95-.25,2.81-1.45,1.25-1.75,3.41-6.31,3.71-7.57.2-.95.25-1.4.6-1.4.2,0,3.51,2.05,3.71,2.2.25.2,1.35.95,1.35,1.45,0,.4-.15.45-1.4.6-.95.15-6.71,5.56-6.71,5.76,0,.4.3.4.8.4h20.34c.95,0,1.35-.35,1.65-.75.6-.8.8-1,1.05-1,.55,0,4.11,2.76,4.11,3.46,0,.25-.3.5-.4.6-1.25,1-1.55,1.25-1.6,2.86-.05,1.45-.05,2.46-.05,11.73,0,1.9.15,11.32.15,13.48,0,1.75-.5,2.86-2.05,3.81-.5.3-1.7.9-2.46.9-.4,0-.9-.15-1-.55-.25-1.05-.3-1.25-.7-1.55-.5-.35-3.61-1.5-3.61-1.9,0-.25.45-.25.55-.25.45,0,2.56.2,3.06.2,2.61,0,2.61-.5,2.61-4.31,0-1.4.1-8.07.1-9.57,0-1.9-.05-11.62-.05-13.53,0-1.7,0-2.3-1.55-2.3h-28.86c-.6,0-1.3,0-1.6.6-.3.6-.3,8.07-.3,9.52,0,2.96.2,17.44.2,20.7,0,1.4,0,3.06-2.96,3.06-1.1,0-1.4-.3-1.4-1.15,0-2,.3-5.16.45-7.17.1-1.7.25-17.94.25-18.29,0-1.6,0-4.66-.25-7.32-.05-.35-.4-2.1-.4-2.46,0-.1.1-.2.25-.2.6,0,1.45.4,2.81.95.9.4,1.9.45,2.76.45h4.06ZM126.27,36.83c-1.25,0-1.25.15-1.25,1.4,0,1.4-1.15,2.11-2.51,2.11-1,0-1.35-.35-1.35-1.4,0-.25.35-9.07.35-10.77,0-.55.05-2.36-.1-4.96,0-.4-.3-2.25-.3-2.66,0-.45.15-.8.6-.8.5,0,2.76,1.15,3.31,1.25.6.15,1,.15,1.4.15h8.07c.6,0,1.1,0,1.4-.3.75-.7,1.05-1,1.4-1,.65,0,3.01,1.55,3.01,2.41,0,.35-1.1,1.8-1.2,2.15-.1.35-.1,4.41-.1,5.11,0,1.1.1,6.61.1,7.82,0,1,0,2.81-2.56,2.81-1.15,0-1.15-.25-1.15-2.46,0-.85-.55-.85-1-.85h-8.12ZM134.03,35.52c.4,0,1.15,0,1.4-.6.2-.6.2-7.97.2-8.87,0-3.21,0-3.61-1.5-3.61h-7.87c-1.5,0-1.5.8-1.5,2.15,0,.7,0,9.72.25,10.32s.95.6,1.4.6h7.62Z"/>
        <path class="cls-2" d="M170.66,6.51c.85,3.06,2.25,5.16,2.61,5.16.2,0,1.05-.2,1.96-.8,1-.6,1.15-.7,1.75-.7,1,0,1.7.65,1.7,1.5,0,.8-.65,1.95-2.15,2.46-.15.05-1.2.45-1.2.6.35.6,2.61,4.21,3.06,4.21.2,0,1.8-.55,1.8-1.4,0-.2-.65-.9-.65-1.1,0-.4.5-.45.7-.5,1.8-.15,2.81-.25,3.11-.25,1.65,0,2.96.8,2.96,2.21,0,.7-.1,1.85-4.41,3.41-1.3.45-1.45.55-1.45.75,0,.25.05.35,1.6,2.81,2.46,3.81,3.21,6.01,3.21,7.87,0,2.05-1.6,3.46-2.91,3.46s-1.6-.25-4.86-2.51c-1.95-1.35-3.66-1.5-4.86-1.5-4.51,0-6.62,2.91-6.62,5.16,0,3.71,4.41,3.96,5.71,3.96.8,0,4.16-.35,4.86-.35.6,0,2.36.2,2.36,1.8,0,2.86-5.26,2.86-5.86,2.86-1.45,0-9.87,0-9.87-7.01,0-2.91,2.16-7.87,9.72-7.87,1.85,0,2.81.2,4.81.6,1.4.3,1.85.3,2.21.3.75,0,1.3-.25,1.3-1.05,0-1-.75-3.26-2.25-6.16-.75-1.45-.8-1.6-1.25-1.6-.3,0-2.2.55-2.61.65-2.1.5-3.76.75-6.01.75-3.01,0-5.06-.4-6.62-1.9-.8-.8-1.2-1.75-1.2-2.15,0-.35.25-.5.45-.5.25,0,1.35.8,1.6.9,1.65.75,3.51,1,5.26,1,3.96,0,7.77-1.3,7.77-1.6s-2.81-4.71-3.41-4.71c-.1,0-2.76.45-3.26.45-3.91,0-6.86-2.71-6.86-3.66,0-.15.1-.4.4-.4.2,0,1.15.4,1.3.45,1.65.55,2.25.7,3.46.7s2.96-.25,2.96-.6c0-.15-2.71-4.11-5.11-5.31-1.45-.7-1.65-.75-1.65-1.1,0-.5.95-1.35,1.95-1.35,1.1,0,4.06.6,4.51,2.11Z"/>
        <path class="cls-2" d="M199.47,25.05c0-1.8,1.45-3.31,3.31-3.31s3.31,1.45,3.31,3.31-1.55,3.31-3.31,3.31-3.31-1.45-3.31-3.31Z"/>
        <path class="cls-2" d="M237.75,15.08c0,2.96-1.7,5.61-4.46,7.62-.4.25-2.61,1.45-2.61,1.75,0,.45,2.36,1.25,2.76,1.5,2.35,1.45,5.06,4.11,5.06,8.52,0,6.41-5.51,10.57-11.83,10.57-5.01,0-9.82-2.81-9.82-6.82,0-2.05,1.4-3.01,2.86-3.01,1.7,0,2.46,1.35,2.46,2.35,0,.4-.45,2.25-.45,2.66,0,1.85,2.16,3.21,4.51,3.21,4.01,0,7.77-4.06,7.77-8.92s-3.46-9.17-7.87-9.17c-.25,0-1.65.2-1.96.2-.75,0-1.1-.45-1.1-1,0-.6.5-1.05,1.15-1.05.3,0,1.8.25,2.15.25,3.41,0,6.87-3.11,6.87-7.92,0-3.86-2.36-7.57-6.31-7.57-2.66,0-4.01,1.75-4.01,3.21,0,.25.25,1.55.25,1.85,0,1.5-1.15,2.66-2.55,2.66-1.6,0-2.51-1.35-2.51-2.66,0-2.41,2.96-6.71,9.77-6.71,4.96,0,9.87,3.36,9.87,8.47Z"/>
        <path class="cls-2" d="M258.39,42.49c3.16,0,8.82-1,12.63-6.81.95-1.4,1.05-1.55,1.4-1.55.3,0,.75.15.75.75,0,.3-1.9,5.21-2.21,6.01-1.25,3.16-1.45,3.21-4.71,3.21h-21c-.75,0-1.45,0-1.45-.8s.55-.8,1.8-.8,3.36-.15,3.81-2.61c.15-.85.15-12.38.15-13.83,0-2,0-13.38-.15-14.28-.45-2.56-2.66-2.56-4.51-2.56-.35,0-1.1,0-1.1-.8,0-.85.7-.85,1.45-.85h12.43c.8,0,1.5,0,1.5.85,0,.8-.55.8-1.8.8-1.05,0-3.36.1-3.81,2.56-.15.9-.15,11.58-.15,13.93,0,13.33,0,13.38.15,14.18.45,2.35,2.51,2.61,3.46,2.61h1.35Z"/>
        <path class="cls-2" d="M293.27,7.56c16.99,0,18.99,12.03,18.99,17.79,0,10.82-6.16,18.74-18.54,18.74h-13.78c-.75,0-1.45,0-1.45-.8s.75-.8,1.05-.8c1.96,0,4.11,0,4.56-2.61.15-.8.15-.85.15-14.18,0-2.35,0-13.08-.15-13.93-.45-2.41-2.61-2.56-3.81-2.56s-1.8,0-1.8-.8c0-.85.7-.85,1.45-.85h13.33ZM291.71,9.22c-1.8,0-3.16.8-3.46,2.61-.15.85-.15,11.62-.15,13.88,0,13.33,0,13.38.15,14.18.4,2.35,2.46,2.61,3.46,2.61h2.4c8.52,0,13.63-7.32,13.63-17.34,0-6.31-2.61-15.94-13.43-15.94h-2.61Z"/>
        <path class="cls-2" d="M340.11,44.09c-.5,0-1.25,0-1.25-.8s.7-.8,1.45-.8c1.6,0,2.15-.85,2.15-1.6,0-.5-.1-.85-.2-1.1-.15-.45-5.26-8.57-5.86-9.57-2.71-4.31-3.01-4.81-3.56-4.81-.6,0-1.4.75-2.51,1.96-2,2.2-2.2,2.71-2.2,4.61v7.07c0,3.46,2.71,3.46,4.21,3.46.45,0,1,.15,1,.8,0,.8-.75.8-1.2.8h-11.88c-.5,0-1.25,0-1.25-.8s.7-.8,1.4-.8c1.75,0,3.76-.65,3.76-3.46V12.67c0-3.46-2.71-3.46-4.21-3.46-.4,0-.95-.15-.95-.8,0-.85.75-.85,1.2-.85h11.83c.55,0,1.3,0,1.3.85,0,.8-.75.8-1.4.8-1.6,0-3.81.55-3.81,3.46v12.83c0,.45.05,1,.6,1,.25,0,.45-.25.55-.3.45-.5,8.07-8.82,9.57-10.47,3.21-3.51,3.61-3.91,3.61-4.86,0-1.65-1.95-1.65-3.41-1.65-.15,0-1,0-1-.8,0-.85.75-.85,1.3-.85h12.38c.6,0,1.35,0,1.35.85,0,.8-.7.8-1.65.8-1.55,0-3.81.3-5.86,1.85-1.05.8-6.51,6.82-8.62,9.12-.35.35-.8.9-.8,1.55,0,.55.35,1.15.75,1.8,1.9,3.01,2.76,4.36,10.47,16.59.6,1,2.96,2.36,5.51,2.36.95,0,.95.7.95.8,0,.8-.75.8-1.2.8h-12.53Z"/>
      </g>
    </g>
  </g>
</svg>